<svg width="659" height="355" viewBox="0 0 659 355" fill="none" xmlns="http://www.w3.org/2000/svg">
<path opacity="0.1" d="M141.48 171.079H66.7924C64.1474 171.079 62.0032 173.223 62.0032 175.868V191.763C62.0032 194.408 64.1474 196.553 66.7924 196.553H141.48C144.125 196.553 146.269 194.408 146.269 191.763V175.868C146.269 173.223 144.125 171.079 141.48 171.079Z" fill="#FFAA71"/>
<path opacity="0.1" d="M229.664 196.559H154.977C152.332 196.559 150.188 198.703 150.188 201.348V217.243C150.188 219.888 152.332 222.033 154.977 222.033H229.664C232.309 222.033 234.454 219.888 234.454 217.243V201.348C234.454 198.703 232.309 196.559 229.664 196.559Z" fill="#FFAA71"/>
<path opacity="0.1" d="M317.855 222.033H243.168C240.523 222.033 238.379 224.177 238.379 226.822V242.717C238.379 245.362 240.523 247.506 243.168 247.506H317.855C320.5 247.506 322.644 245.362 322.644 242.717V226.822C322.644 224.177 320.5 222.033 317.855 222.033Z" fill="#FFAA71"/>
<path opacity="0.1" d="M141.48 132.869H66.7924C64.1474 132.869 62.0032 135.013 62.0032 137.658V153.553C62.0032 156.198 64.1474 158.342 66.7924 158.342H141.48C144.125 158.342 146.269 156.198 146.269 153.553V137.658C146.269 135.013 144.125 132.869 141.48 132.869Z" fill="#FFAA71"/>
<path opacity="0.1" d="M229.664 158.342H154.977C152.332 158.342 150.188 160.486 150.188 163.131V179.026C150.188 181.671 152.332 183.816 154.977 183.816H229.664C232.309 183.816 234.454 181.671 234.454 179.026V163.131C234.454 160.486 232.309 158.342 229.664 158.342Z" fill="#FFAA71"/>
<path opacity="0.1" d="M317.855 183.822H243.168C240.523 183.822 238.379 185.967 238.379 188.612V204.507C238.379 207.152 240.523 209.296 243.168 209.296H317.855C320.5 209.296 322.644 207.152 322.644 204.507V188.612C322.644 185.967 320.5 183.822 317.855 183.822Z" fill="#FFAA71"/>
<path opacity="0.1" d="M415.838 171.079H341.15C338.505 171.079 336.361 173.223 336.361 175.868V191.763C336.361 194.408 338.505 196.553 341.15 196.553H415.838C418.483 196.553 420.627 194.408 420.627 191.763V175.868C420.627 173.223 418.483 171.079 415.838 171.079Z" fill="#FFAA71"/>
<path opacity="0.1" d="M504.022 196.559H429.335C426.69 196.559 424.546 198.703 424.546 201.348V217.243C424.546 219.888 426.69 222.033 429.335 222.033H504.022C506.667 222.033 508.811 219.888 508.811 217.243V201.348C508.811 198.703 506.667 196.559 504.022 196.559Z" fill="#FFAA71"/>
<path opacity="0.1" d="M592.213 222.033H517.526C514.881 222.033 512.737 224.177 512.737 226.822V242.717C512.737 245.362 514.881 247.506 517.526 247.506H592.213C594.858 247.506 597.003 245.362 597.003 242.717V226.822C597.003 224.177 594.858 222.033 592.213 222.033Z" fill="#FFAA71"/>
<path opacity="0.1" d="M415.838 132.869H341.15C338.505 132.869 336.361 135.013 336.361 137.658V153.553C336.361 156.198 338.505 158.342 341.15 158.342H415.838C418.483 158.342 420.627 156.198 420.627 153.553V137.658C420.627 135.013 418.483 132.869 415.838 132.869Z" fill="#FFAA71"/>
<path opacity="0.1" d="M504.022 158.342H429.335C426.69 158.342 424.546 160.486 424.546 163.131V179.026C424.546 181.671 426.69 183.816 429.335 183.816H504.022C506.667 183.816 508.811 181.671 508.811 179.026V163.131C508.811 160.486 506.667 158.342 504.022 158.342Z" fill="#FFAA71"/>
<path opacity="0.1" d="M592.213 183.822H517.526C514.881 183.822 512.737 185.967 512.737 188.612V204.507C512.737 207.152 514.881 209.296 517.526 209.296H592.213C594.858 209.296 597.003 207.152 597.003 204.507V188.612C597.003 185.967 594.858 183.822 592.213 183.822Z" fill="#FFAA71"/>
<path opacity="0.1" d="M141.48 81.9146H66.7924C64.1474 81.9146 62.0032 84.0587 62.0032 86.7038V102.599C62.0032 105.244 64.1474 107.388 66.7924 107.388H141.48C144.125 107.388 146.269 105.244 146.269 102.599V86.7038C146.269 84.0587 144.125 81.9146 141.48 81.9146Z" fill="#FFAA71"/>
<path opacity="0.1" d="M229.664 107.388H154.977C152.332 107.388 150.188 109.532 150.188 112.177V128.073C150.188 130.718 152.332 132.862 154.977 132.862H229.664C232.309 132.862 234.454 130.718 234.454 128.073V112.177C234.454 109.532 232.309 107.388 229.664 107.388Z" fill="#FFAA71"/>
<path opacity="0.1" d="M317.855 132.869H243.168C240.523 132.869 238.379 135.013 238.379 137.658V153.553C238.379 156.198 240.523 158.342 243.168 158.342H317.855C320.5 158.342 322.644 156.198 322.644 153.553V137.658C322.644 135.013 320.5 132.869 317.855 132.869Z" fill="#FFAA71"/>
<path opacity="0.1" d="M141.48 43.6974H66.7926C64.1476 43.6974 62.0034 45.8417 62.0034 48.4867V64.3819C62.0034 67.027 64.1476 69.1712 66.7926 69.1712H141.48C144.125 69.1712 146.269 67.027 146.269 64.3819V48.4867C146.269 45.8417 144.125 43.6974 141.48 43.6974Z" fill="#FFAA71"/>
<path opacity="0.1" d="M229.664 69.1779H154.977C152.332 69.1779 150.188 71.3221 150.188 73.9671V89.8624C150.188 92.5074 152.332 94.6516 154.977 94.6516H229.664C232.309 94.6516 234.454 92.5074 234.454 89.8624V73.9671C234.454 71.3221 232.309 69.1779 229.664 69.1779Z" fill="#FFAA71"/>
<path opacity="0.1" d="M317.855 94.6516H243.168C240.523 94.6516 238.379 96.7958 238.379 99.4408V115.336C238.379 117.981 240.523 120.125 243.168 120.125H317.855C320.5 120.125 322.644 117.981 322.644 115.336V99.4408C322.644 96.7958 320.5 94.6516 317.855 94.6516Z" fill="#FFAA71"/>
<path opacity="0.1" d="M415.838 81.9146H341.15C338.505 81.9146 336.361 84.0587 336.361 86.7038V102.599C336.361 105.244 338.505 107.388 341.15 107.388H415.838C418.483 107.388 420.627 105.244 420.627 102.599V86.7038C420.627 84.0587 418.483 81.9146 415.838 81.9146Z" fill="#FFAA71"/>
<path opacity="0.1" d="M504.022 107.388H429.335C426.69 107.388 424.546 109.532 424.546 112.177V128.073C424.546 130.718 426.69 132.862 429.335 132.862H504.022C506.667 132.862 508.811 130.718 508.811 128.073V112.177C508.811 109.532 506.667 107.388 504.022 107.388Z" fill="#FFAA71"/>
<path opacity="0.1" d="M592.213 132.869H517.526C514.881 132.869 512.737 135.013 512.737 137.658V153.553C512.737 156.198 514.881 158.342 517.526 158.342H592.213C594.858 158.342 597.003 156.198 597.003 153.553V137.658C597.003 135.013 594.858 132.869 592.213 132.869Z" fill="#FFAA71"/>
<path opacity="0.1" d="M415.838 43.6975H341.15C338.505 43.6975 336.361 45.8417 336.361 48.4868V64.382C336.361 67.027 338.505 69.1712 341.15 69.1712H415.838C418.483 69.1712 420.627 67.027 420.627 64.382V48.4868C420.627 45.8417 418.483 43.6975 415.838 43.6975Z" fill="#FFAA71"/>
<path opacity="0.1" d="M504.022 69.1779H429.335C426.69 69.1779 424.546 71.3221 424.546 73.9671V89.8624C424.546 92.5074 426.69 94.6516 429.335 94.6516H504.022C506.667 94.6516 508.811 92.5074 508.811 89.8624V73.9671C508.811 71.3221 506.667 69.1779 504.022 69.1779Z" fill="#FFAA71"/>
<path opacity="0.1" d="M592.213 94.6516H517.526C514.881 94.6516 512.737 96.7958 512.737 99.4408V115.336C512.737 117.981 514.881 120.125 517.526 120.125H592.213C594.858 120.125 597.003 117.981 597.003 115.336V99.4408C597.003 96.7958 594.858 94.6516 592.213 94.6516Z" fill="#FFAA71"/>
<path d="M629.678 0.145416H373.901V163.956H629.678V0.145416Z" fill="#E6E6E6"/>
<path d="M622.364 20.691H381.214V83.1372H622.364V20.691Z" fill="white"/>
<path d="M492.195 29.711H441.198V32.6384H492.195V29.711Z" fill="#E6E6E6"/>
<path d="M519.949 40.3896H441.198V43.317H519.949V40.3896Z" fill="#FFA500"/>
<path d="M505.379 50.4503H441.198V53.3777H505.379V50.4503Z" fill="#E6E6E6"/>
<path d="M478.665 60.4732H441.198V63.4006H478.665V60.4732Z" fill="#E6E6E6"/>
<path d="M497.746 70.4958H441.198V73.4233H497.746V70.4958Z" fill="#E6E6E6"/>
<path d="M424.198 28.6702H417.954V34.9148H424.198V28.6702Z" fill="#E6E6E6"/>
<path d="M424.198 38.7309H417.954V44.9755H424.198V38.7309Z" fill="#FFA500"/>
<path d="M424.198 48.7918H417.954V55.0364H424.198V48.7918Z" fill="#E6E6E6"/>
<path d="M424.198 58.8525H417.954V65.0971H424.198V58.8525Z" fill="#E6E6E6"/>
<path d="M424.198 68.9133H417.954V75.1579H424.198V68.9133Z" fill="#E6E6E6"/>
<path d="M588.64 42.894H567.824V63.7094H588.64V42.894Z" fill="#E6E6E6"/>
<path d="M622.364 91.8103H381.214V154.256H622.364V91.8103Z" fill="white"/>
<path d="M434.953 97.3601H428.709V103.605H434.953V97.3601Z" fill="#E6E6E6"/>
<path d="M424.198 97.3601H417.954V103.605H424.198V97.3601Z" fill="#FFA500"/>
<path d="M523.832 111.016C521.929 107.794 519.288 105.069 516.127 103.066C512.965 101.064 509.374 99.8399 505.647 99.4957C501.921 99.1514 498.166 99.6966 494.691 101.086C491.216 102.476 488.121 104.671 485.66 107.49L484.138 106.16C486.809 103.099 490.168 100.717 493.94 99.2077C497.712 97.6988 501.788 97.1068 505.833 97.4804C509.878 97.854 513.776 99.1825 517.208 101.357C520.639 103.531 523.506 106.489 525.571 109.987L523.832 111.016Z" fill="#E6E6E6"/>
<path d="M524.785 137.343L523.107 136.215C525.591 132.51 526.978 128.179 527.106 123.72C527.234 119.262 526.099 114.857 523.832 111.016L525.571 109.987C528.033 114.157 529.265 118.938 529.126 123.778C528.987 128.619 527.482 133.321 524.785 137.343V137.343Z" fill="#FFA500"/>
<path d="M484.348 140.158C480.171 135.493 477.843 129.461 477.805 123.199C477.766 116.937 480.018 110.877 484.138 106.16L485.659 107.49C481.865 111.835 479.79 117.418 479.826 123.187C479.861 128.955 482.005 134.512 485.853 138.81L484.348 140.158Z" fill="#FFA500"/>
<path d="M503.471 148.707C499.862 148.704 496.294 147.941 492.999 146.468C489.705 144.996 486.757 142.846 484.348 140.158L485.854 138.81C488.256 141.494 491.241 143.594 494.579 144.949C497.918 146.304 501.521 146.879 505.116 146.628C508.71 146.378 512.199 145.31 515.317 143.505C518.435 141.7 521.1 139.207 523.108 136.215L524.785 137.343C522.438 140.842 519.266 143.709 515.549 145.691C511.832 147.673 507.683 148.708 503.471 148.707Z" fill="#FFA500"/>
<path d="M588.64 110.891H567.824V131.706H588.64V110.891Z" fill="#E6E6E6"/>
<path d="M437.902 124.421H417.087V145.236H437.902V124.421Z" fill="#E6E6E6"/>
<path d="M629.568 -3.05176e-05H373.791V10.8663H629.568V-3.05176e-05Z" fill="#FFA500"/>
<path d="M381.866 7.56946C382.978 7.56946 383.88 6.66777 383.88 5.55547C383.88 4.44317 382.978 3.54147 381.866 3.54147C380.754 3.54147 379.852 4.44317 379.852 5.55547C379.852 6.66777 380.754 7.56946 381.866 7.56946Z" fill="white"/>
<path d="M389.511 7.56946C390.623 7.56946 391.525 6.66777 391.525 5.55547C391.525 4.44317 390.623 3.54147 389.511 3.54147C388.398 3.54147 387.497 4.44317 387.497 5.55547C387.497 6.66777 388.398 7.56946 389.511 7.56946Z" fill="white"/>
<path d="M397.155 7.56946C398.267 7.56946 399.169 6.66777 399.169 5.55547C399.169 4.44317 398.267 3.54147 397.155 3.54147C396.043 3.54147 395.141 4.44317 395.141 5.55547C395.141 6.66777 396.043 7.56946 397.155 7.56946Z" fill="white"/>
<path opacity="0.1" d="M329.5 354.895C511.478 354.895 659 328.06 659 294.958C659 261.856 511.478 235.022 329.5 235.022C147.522 235.022 0 261.856 0 294.958C0 328.06 147.522 354.895 329.5 354.895Z" fill="#FFA500"/>
<path d="M79.2111 57.5361H54.7104V62.3402H79.2111V57.5361Z" fill="#FFA500"/>
<path d="M59.3405 77.4068H34.8398V82.2109H59.3405V77.4068Z" fill="#FFA500"/>
<path d="M92.6624 113.423H80.332V118.227H92.6624V113.423Z" fill="#8C8C8C"/>
<path d="M135.098 113.423H122.768V118.227H135.098V113.423Z" fill="#8C8C8C"/>
<path d="M157.357 113.423H145.027V118.227H157.357V113.423Z" fill="#8C8C8C"/>
<path d="M146.148 149.934H133.817V154.738H146.148V149.934Z" fill="#8C8C8C"/>
<path d="M190.665 149.934H178.335V154.738H190.665V149.934Z" fill="#8C8C8C"/>
<path d="M179.616 113.423H167.286V118.227H179.616V113.423Z" fill="#8C8C8C"/>
<path d="M201.875 113.423H189.544V118.227H201.875V113.423Z" fill="#8C8C8C"/>
<path d="M213.084 87.4814H66.7207V66.8239H67.0412V87.161H213.084V87.4814Z" fill="#8C8C8C"/>
<path d="M201.474 124.393H106.783V87.3811H107.104V124.072H201.474V124.393Z" fill="#8C8C8C"/>
<path d="M86.6579 87.4014H86.3376V108.039H86.6579V87.4014Z" fill="#8C8C8C"/>
<path d="M129.094 87.4014H128.773V108.039H129.094V87.4014Z" fill="#8C8C8C"/>
<path d="M151.352 87.4014H151.032V108.039H151.352V87.4014Z" fill="#8C8C8C"/>
<path d="M173.611 87.4014H173.291V108.039H173.611V87.4014Z" fill="#8C8C8C"/>
<path d="M195.87 87.4014H195.549V108.039H195.87V87.4014Z" fill="#8C8C8C"/>
<path d="M140.143 124.233H139.822V144.87H140.143V124.233Z" fill="#8C8C8C"/>
<path d="M184.66 124.233H184.34V144.87H184.66V124.233Z" fill="#8C8C8C"/>
<path d="M79.2111 98.106H54.7104V102.91H79.2111V98.106Z" fill="#FFA500"/>
<path d="M92.6624 42.2189H80.332V47.0229H92.6624V42.2189Z" fill="#8C8C8C"/>
<path d="M135.098 42.2189H122.768V47.0229H135.098V42.2189Z" fill="#8C8C8C"/>
<path d="M157.357 42.2189H145.027V47.0229H157.357V42.2189Z" fill="#8C8C8C"/>
<path d="M146.148 5.70819H133.817V10.5122H146.148V5.70819Z" fill="#8C8C8C"/>
<path d="M190.665 5.70819H178.335V10.5122H190.665V5.70819Z" fill="#8C8C8C"/>
<path d="M179.616 42.2189H167.286V47.0229H179.616V42.2189Z" fill="#8C8C8C"/>
<path d="M201.875 42.2189H189.544V47.0229H201.875V42.2189Z" fill="#8C8C8C"/>
<path d="M213.084 72.9648H66.7207V93.6223H67.0412V73.2853H213.084V72.9648Z" fill="#8C8C8C"/>
<path d="M201.474 36.0536H106.783V73.0651H107.104V36.3741H201.474V36.0536Z" fill="#8C8C8C"/>
<path d="M86.6579 52.4076H86.3376V73.0448H86.6579V52.4076Z" fill="#8C8C8C"/>
<path d="M129.094 52.4076H128.773V73.0448H129.094V52.4076Z" fill="#8C8C8C"/>
<path d="M151.352 52.4076H151.032V73.0448H151.352V52.4076Z" fill="#8C8C8C"/>
<path d="M173.611 52.4076H173.291V73.0448H173.611V52.4076Z" fill="#8C8C8C"/>
<path d="M195.87 52.4076H195.549V73.0448H195.87V52.4076Z" fill="#8C8C8C"/>
<path d="M140.143 15.5765H139.822V36.2138H140.143V15.5765Z" fill="#8C8C8C"/>
<path d="M184.66 15.5765H184.34V36.2138H184.66V15.5765Z" fill="#8C8C8C"/>
<path d="M504.496 103.929H147.117V298.863H504.496V103.929Z" fill="#8C8C8C"/>
<path d="M433.753 126.462H209.999V127.51H433.753V126.462Z" fill="#2F2E41"/>
<path d="M270.147 178.669H188.514V187.945H270.147V178.669Z" fill="#FFA500"/>
<path d="M325.806 194.439H188.514V200.004H325.806V194.439Z" fill="#F2F2F2"/>
<path d="M318.385 206.498H188.514V212.064H318.385V206.498Z" fill="#F2F2F2"/>
<path d="M283.134 218.558H188.514V224.124H283.134V218.558Z" fill="#F2F2F2"/>
<path d="M521.264 281.009C521.264 264.153 512.711 250.489 502.16 250.489C495.529 250.489 489.688 255.889 486.263 264.085C485.106 263.604 483.865 263.355 482.612 263.352C479.419 263.352 476.466 264.989 474.058 267.758C470.97 257.539 464.423 250.489 456.844 250.489C449.759 250.489 443.578 256.657 440.28 265.811C438.448 264.265 436.139 263.397 433.742 263.352C425.645 263.352 419.081 273.839 419.081 286.775C419.048 291.087 419.831 295.367 421.391 299.387H517.411C519.829 294.275 521.264 287.91 521.264 281.009Z" fill="#FFA500"/>
<path d="M565.805 298.339H77.9468V299.387H565.805V298.339Z" fill="#2F2E41"/>
<path d="M493.491 110.217H469.91V119.126H493.491V110.217Z" fill="#FFA500"/>
<path opacity="0.4" d="M445.279 226.219C461.777 226.219 475.151 212.845 475.151 196.347C475.151 179.85 461.777 166.476 445.279 166.476C428.781 166.476 415.407 179.85 415.407 196.347C415.407 212.845 428.781 226.219 445.279 226.219Z" fill="#FFA500"/>
<path opacity="0.4" d="M389.994 231.569C401.567 231.569 410.949 222.187 410.949 210.614C410.949 199.041 401.567 189.66 389.994 189.66C378.421 189.66 369.04 199.041 369.04 210.614C369.04 222.187 378.421 231.569 389.994 231.569Z" fill="#FFA500"/>
<path d="M575.547 318.116C574.372 328.805 512.663 327.908 512.757 318.115C513.932 307.427 575.641 308.324 575.547 318.116Z" fill="#E6E6E6"/>
<path d="M533.157 290.685L530.656 296.105L526.07 295.688L523.152 286.099L527.737 283.598L533.157 290.685Z" fill="#FFB8B8"/>
<path d="M548.901 303.168L549 306.945L541.912 307.362V302.776L548.901 303.168Z" fill="#FFB8B8"/>
<path d="M546.498 234.402L544.831 267.755L549 304.027L536.492 305.694L528.571 259.834L526.069 228.565L546.498 234.402Z" fill="#2F2E41"/>
<path d="M566.093 222.311C566.093 222.311 571.096 255.248 560.673 266.087C550.25 276.927 536.075 296.105 536.075 296.105L526.069 283.598L551.501 256.498L546.498 238.154L526.069 228.565L529.405 205.635L559.423 205.218L566.093 222.311Z" fill="#2F2E41"/>
<path d="M541.495 146.016C546.561 146.016 550.667 141.909 550.667 136.843C550.667 131.778 546.561 127.671 541.495 127.671C536.43 127.671 532.323 131.778 532.323 136.843C532.323 141.909 536.43 146.016 541.495 146.016Z" fill="#FFB8B8"/>
<path d="M549.416 138.928C549.416 138.928 549.833 151.853 551.918 153.52C554.002 155.188 544.413 162.276 544.413 162.276L538.16 152.27V143.097L549.416 138.928Z" fill="#FFB8B8"/>
<path d="M545.248 156.439L550.31 148.796L553.169 152.687L557.339 164.36L554.003 209.804L534.408 210.221L531.907 158.106L538.16 150.602L545.248 156.439Z" fill="#D0CDE1"/>
<path d="M523.985 159.357L520.65 158.94C520.65 158.94 519.816 159.357 519.399 162.275C518.982 165.193 513.979 191.042 513.979 191.042L520.65 222.728L528.154 212.722L523.568 195.211L528.154 177.701L523.985 159.357Z" fill="#2F2E41"/>
<path d="M566.51 158.94H569.011L575.265 192.71L569.429 218.976L563.592 209.387L565.259 198.964L564.426 189.792L561.507 184.372L566.51 158.94Z" fill="#2F2E41"/>
<path d="M529.405 294.438C529.405 294.438 531.906 293.604 531.906 295.271C531.906 296.939 530.239 301.942 530.239 301.942C530.239 301.942 532.74 317.368 528.988 316.534C525.236 315.7 522.317 308.613 521.901 306.528C521.484 304.443 519.399 293.604 519.399 293.604C519.399 293.604 516.064 285.682 518.148 285.265C520.233 284.849 526.07 283.181 526.07 283.181C526.07 283.181 522.734 293.604 529.405 294.438Z" fill="#2F2E41"/>
<path d="M541.496 307.362C541.496 307.362 548.166 303.193 549.417 306.528C550.247 308.961 550.806 311.478 551.085 314.033C551.085 314.033 552.752 319.453 546.082 318.619C539.411 317.785 540.245 317.785 539.828 315.283C539.411 312.782 541.496 307.362 541.496 307.362Z" fill="#2F2E41"/>
<path d="M546.915 136.843L545.248 136.427C545.248 136.427 543.997 129.339 541.079 130.173C538.16 131.007 530.656 131.841 530.656 128.505C530.656 125.17 537.743 122.251 541.912 122.668C546.082 123.085 553.169 124.336 552.752 130.59C552.335 136.843 549.645 142.927 549.645 142.927L549.428 139.219L546.915 136.843Z" fill="#2F2E41"/>
<path d="M538.16 161.442L545.248 156.439L538.16 150.602L535.7 153.555L538.16 161.442Z" fill="#D0CDE1"/>
<path d="M551.501 161.025L545.248 156.439L550.251 148.934L553.169 152.687L551.501 161.025Z" fill="#D0CDE1"/>
<path d="M521.066 158.94L534.408 153.52L537.535 151.227L546.915 192.71L553.169 173.949L551.293 149.976L568.595 158.94L562.758 187.29L561.924 198.13L564.426 206.885C564.426 206.885 573.181 213.139 570.262 219.81C567.344 226.48 564.009 226.897 564.009 226.897C564.009 226.897 549.834 213.556 549 210.221C548.166 206.885 546.915 201.049 546.915 201.049C546.915 201.049 539.828 227.731 531.489 227.314C523.151 226.897 523.151 218.142 523.151 218.142L525.236 208.97L528.571 199.381L526.903 183.538L521.066 158.94Z" fill="#2F2E41"/>
<path d="M179.606 301.95C179.608 302.704 179.531 303.456 179.375 304.194C179.346 304.333 179.314 304.483 179.282 304.602C178.461 307.896 176.144 310.305 173.379 310.459C173.287 310.459 173.194 310.459 173.09 310.459C170.166 310.459 167.693 307.937 166.877 304.463C166.854 304.37 166.834 304.278 166.814 304.174C166.658 303.436 166.58 302.684 166.582 301.929C166.582 297.224 169.495 293.412 173.09 293.412C176.685 293.412 179.606 297.253 179.606 301.95Z" fill="#8C8C8C"/>
<path opacity="0.1" d="M179.606 301.95C179.609 302.704 179.531 303.456 179.375 304.194C179.346 304.333 179.314 304.483 179.282 304.602C179.184 304.602 179.089 304.602 178.993 304.602C178.277 304.563 177.565 304.467 176.864 304.313C176.244 304.505 175.61 304.65 174.967 304.747C174.475 304.821 173.978 304.867 173.481 304.885H172.977C172.381 304.885 171.786 304.846 171.196 304.767C170.241 304.639 169.303 304.406 168.399 304.073C167.904 304.237 167.4 304.373 166.889 304.478C166.866 304.385 166.846 304.292 166.825 304.188C166.669 303.45 166.592 302.698 166.594 301.944C166.594 297.238 169.507 293.426 173.102 293.426C176.697 293.426 179.606 297.253 179.606 301.95Z" fill="black"/>
<path d="M193.49 286.083C193.493 284.012 193.007 281.97 192.073 280.122L184.42 282.502L191.138 278.551C190.011 276.924 188.533 275.57 186.813 274.59C185.093 273.61 183.175 273.028 181.201 272.888C180.886 272.411 180.541 271.955 180.168 271.523L169.177 274.945L178.193 269.643C176.468 268.319 174.444 267.441 172.299 267.087C170.154 266.732 167.955 266.911 165.896 267.608C163.837 268.306 161.982 269.5 160.495 271.085C159.007 272.671 157.933 274.598 157.368 276.697L166.783 287.535L156.57 280.148C153.983 281.983 152.141 284.686 151.38 287.765C150.62 290.844 150.99 294.094 152.425 296.922C153.86 299.751 156.263 301.97 159.196 303.175C162.13 304.38 165.399 304.492 168.408 303.488C171.13 304.489 174.104 304.571 176.877 303.723C178.81 304.148 180.813 304.135 182.741 303.684C184.668 303.232 186.469 302.355 188.013 301.116C189.556 299.877 190.802 298.307 191.659 296.523C192.515 294.739 192.961 292.785 192.963 290.806C192.963 290.516 192.963 290.227 192.934 289.938C193.309 288.687 193.496 287.388 193.49 286.083Z" fill="#FFA500"/>
<path opacity="0.1" d="M193.261 288.535C189.219 287.769 185.075 287.717 181.015 288.379C176.419 289.14 171.722 290.812 167.227 289.591C164.59 288.874 162.311 287.214 159.734 286.291C157.247 285.424 154.569 285.263 151.997 285.828C151.017 288.173 150.732 290.75 151.178 293.252C151.623 295.754 152.78 298.075 154.509 299.938C156.238 301.8 158.467 303.125 160.929 303.755C163.391 304.385 165.982 304.292 168.393 303.488C171.115 304.489 174.089 304.571 176.862 303.723C178.795 304.148 180.798 304.135 182.726 303.684C184.653 303.233 186.454 302.355 187.998 301.116C189.541 299.877 190.787 298.307 191.644 296.523C192.5 294.739 192.946 292.785 192.948 290.806C192.948 290.517 192.948 290.227 192.919 289.938C193.059 289.477 193.173 289.009 193.261 288.535Z" fill="black"/>
<path d="M140.344 311.985C139.017 324.032 69.3775 323.021 69.483 311.984C70.8095 299.937 140.449 300.948 140.344 311.985Z" fill="#E6E6E6"/>
<path d="M124.937 304.241C125.461 305.243 125.851 306.327 126.533 307.23C128.523 309.891 132.301 310.307 135.135 312.043C135.277 312.115 135.394 312.228 135.47 312.367C135.599 312.673 135.312 312.994 135.036 313.186C132.887 314.693 130.068 314.726 127.44 314.708C126.557 314.739 125.673 314.655 124.812 314.457C123.423 314.089 122.232 313.119 120.861 312.725C120.15 312.547 119.423 312.445 118.691 312.419L115.812 312.224C115.046 312.213 114.287 312.072 113.568 311.807C113.21 311.67 112.892 311.444 112.644 311.151C112.397 310.858 112.228 310.507 112.153 310.13C112.072 309.519 112.333 308.925 112.488 308.328C112.857 306.913 112.742 305.203 113.844 304.237C114.298 303.89 114.819 303.639 115.374 303.5C117.377 302.825 119.422 302.281 121.495 301.871C123.202 301.536 124.182 302.789 124.937 304.241Z" fill="#8C8C8C"/>
<path d="M92.3806 312.213C92.4543 312.998 92.4764 313.897 91.9088 314.446C91.5554 314.739 91.1285 314.931 90.6742 314.999C87.9507 315.633 84.9139 315.677 82.5441 314.195C82.2976 314.054 82.0799 313.868 81.9029 313.646C81.7053 313.344 81.5932 312.994 81.5785 312.633C81.4938 311.59 81.8144 310.561 82.1056 309.555C82.7945 307.168 83.3179 304.736 83.6719 302.277C83.7014 302.074 90.6263 303.382 91.087 304.068C91.6656 304.915 91.6693 306.95 91.8241 307.96C92.0575 309.37 92.243 310.787 92.3806 312.213Z" fill="#8C8C8C"/>
<path d="M118.156 216.31L119.999 233.444C120.367 236.945 120.754 240.464 120.5 243.977C120.205 248.031 119.07 252.085 119.549 256.102C119.737 257.664 120.165 259.197 120.227 260.771C120.239 261.818 120.186 262.864 120.069 263.904C119.236 274.3 121.871 284.616 123.345 294.939C123.582 296.212 123.635 297.513 123.5 298.801C123.308 300.11 122.925 301.827 124.09 302.446L113.151 306.412C111.755 304.661 112.68 301.938 112.414 299.715C112.171 297.714 111.073 295.93 110.487 294.003C109.956 292.271 109.846 290.446 109.672 288.648C108.718 278.856 105.788 269.318 105.102 259.503C105.08 258.556 104.957 257.613 104.734 256.691C104.365 255.471 103.628 254.406 103.09 253.26C102.265 251.539 101.859 249.652 101.461 247.787L99.1209 236.823C96.7549 240.346 96.8507 244.931 96.3826 249.155C95.7266 255.051 94.2598 260.849 93.0657 266.672C92.7883 267.924 92.5804 269.192 92.4429 270.468C92.1333 273.884 92.7488 277.334 92.4208 280.746C92.0522 284.701 90.3901 288.559 90.7918 292.514C91.0129 294.703 91.8532 296.774 92.4208 298.897C92.9883 301.02 93.2684 303.349 92.4023 305.372C89.3754 304.261 86.1236 303.902 82.9271 304.326C79.4148 300.732 78.792 295.72 78.5524 290.69C78.3129 285.659 78.8915 280.621 78.265 275.638C78.0807 274.164 77.7932 272.727 77.7453 271.256C77.5905 266.543 79.8571 262.131 80.9848 257.55C81.9997 253.426 82.0966 249.13 81.2686 244.964C80.7158 242.211 79.765 239.539 79.4259 236.749C78.9652 232.839 79.7465 228.899 80.5315 225.037C81.0585 222.431 81.5819 219.826 82.1789 217.235C82.8202 214.453 83.5831 211.611 85.2968 209.333C88.0388 205.689 92.9072 204.071 97.4588 204.424C102.01 204.778 106.26 206.849 110.019 209.429C112.982 211.409 115.711 213.717 118.156 216.31Z" fill="#192534"/>
<path d="M105.928 150.702C105.721 151.034 105.578 151.401 105.504 151.785C105.412 152.541 105.873 153.233 106.241 153.893C106.714 154.741 107.076 155.645 107.321 156.584C107.497 157.165 107.551 157.776 107.48 158.378C107.39 158.831 107.228 159.267 107.001 159.668C106.289 161.039 105.235 162.307 103.802 162.878C102.691 163.287 101.481 163.336 100.341 163.018C99.2091 162.698 98.1389 162.19 97.1753 161.515C96.3631 161 95.6326 160.366 95.0082 159.635C94.4121 158.835 93.91 157.97 93.5119 157.055C92.7454 155.452 91.9677 153.738 92.1078 151.98C92.1151 151.821 92.1449 151.663 92.1962 151.512C92.3159 151.239 92.4831 150.99 92.6901 150.775C94.2625 148.912 95.0686 146.521 94.9456 144.086L100.315 145.306C101.498 145.575 102.681 145.844 103.85 146.18C104.808 146.456 106.282 146.839 106.905 147.694C107.528 148.549 106.352 149.92 105.928 150.702Z" fill="#FBBEBE"/>
<path d="M103.053 149.788C108.443 149.788 112.813 145.418 112.813 140.029C112.813 134.639 108.443 130.27 103.053 130.27C97.6637 130.27 93.2944 134.639 93.2944 140.029C93.2944 145.418 97.6637 149.788 103.053 149.788Z" fill="#FBBEBE"/>
<path d="M101.483 159.716C101.896 158.813 102.788 158.242 103.603 157.675C104.417 157.107 105.243 156.381 105.401 155.397C105.411 155.174 105.466 154.956 105.563 154.756C105.876 154.284 106.621 154.52 107.067 154.866C108.15 155.71 108.887 156.908 109.606 158.076C110.536 159.497 111.332 161.001 111.983 162.569C113.019 165.3 113.144 168.281 113.258 171.196C113.362 173.85 113.461 176.544 112.816 179.116C112.411 180.745 111.711 182.326 111.67 184.003C111.548 190.095 109.433 195.918 109.285 202.01C109.274 203.772 109.363 205.533 109.551 207.284L109.897 211.239C104.539 210.932 99.1947 210.461 93.8656 209.827C93.7108 208.007 93.1911 206.241 92.7157 204.48C90.769 197.278 89.5212 189.904 88.9897 182.463C88.706 178.512 88.4148 174.576 87.9762 170.64C87.5819 167.061 86.808 163.461 87.2723 159.89C87.5154 158.266 88.026 156.695 88.7834 155.238C89.0228 154.658 89.4344 154.166 89.9627 153.827C90.2266 153.699 90.5069 153.609 90.7956 153.558C91.6311 153.389 92.4792 153.289 93.3312 153.259C93.5395 153.242 93.7492 153.262 93.9504 153.318C94.3094 153.497 94.6043 153.783 94.7943 154.137C96.4364 156.605 98.7602 158.544 101.483 159.716Z" fill="#F2F2F2"/>
<path d="M96.9575 158.935C97.643 159.915 99.0951 160.148 99.729 161.146C99.9425 161.564 100.105 162.005 100.212 162.462C100.599 163.697 101.38 164.769 101.855 165.974C102.541 167.706 102.559 169.623 102.567 171.484C102.634 172.966 102.52 174.452 102.228 175.906C102.007 176.817 101.645 177.683 101.38 178.582C100.929 180.111 100.762 181.71 100.886 183.299C100.886 183.643 100.978 183.98 101.152 184.276C101.402 184.572 101.728 184.794 102.095 184.917C103.175 185.393 104.306 185.879 105.486 185.769C105.728 185.761 105.962 185.683 106.16 185.544C106.297 185.419 106.409 185.271 106.492 185.105L107.229 183.86C107.896 182.721 108.592 181.446 108.334 180.145C108.147 179.473 107.865 178.832 107.498 178.239C107.027 177.278 106.625 176.284 106.296 175.265C105.121 171.886 103.93 168.458 103.665 164.891C103.509 163.533 103.66 162.158 104.107 160.866C104.453 160.071 104.889 159.318 105.405 158.622C105.288 158.465 105.126 158.348 104.941 158.285C104.756 158.223 104.557 158.218 104.369 158.272C103.998 158.386 103.639 158.535 103.296 158.718C102.213 159.175 101.012 159.009 99.9169 158.695C99.4894 158.57 98.8113 158.143 98.369 158.172C98.2179 158.191 96.9833 158.979 96.9575 158.935Z" fill="#FFA500"/>
<path d="M105.585 158.894C105.364 158.717 105.021 158.555 104.826 158.762C104.761 158.851 104.713 158.953 104.686 159.06C104.494 159.576 103.931 159.83 103.418 160.029C102.906 160.228 102.353 160.339 102.044 159.959C101.946 159.812 101.898 159.637 101.907 159.46C101.915 159.283 101.98 159.113 102.092 158.975C102.318 158.702 102.591 158.472 102.899 158.294C104.594 157.097 105.749 155.28 106.112 153.237C106.588 153.615 106.902 154.159 106.993 154.759C107.115 155.345 107.13 155.95 107.251 156.536C107.432 157.376 107.833 158.161 107.926 159.012C107.974 159.466 107.926 159.923 107.926 160.376C107.942 160.819 107.994 161.26 108.08 161.695C107.218 160.781 106.61 159.709 105.585 158.894Z" fill="#F2F2F2"/>
<path d="M98.126 156.392C97.7575 156.042 97.3889 155.71 97.0204 155.353C95.4032 153.774 94.182 151.836 93.4565 149.696C92.9848 150.064 92.4652 150.551 92.4541 151.17C92.4961 151.608 92.6652 152.024 92.9406 152.368C94.3342 154.562 95.2543 157.024 95.642 159.595C95.8411 159.284 96.1169 159.029 96.4429 158.855C96.7688 158.682 97.134 158.595 97.5032 158.603C98.0855 158.603 100.698 160.151 100.886 159.761C101.163 159.149 98.5683 156.808 98.126 156.392Z" fill="#F2F2F2"/>
<path d="M106.356 153.458C109.823 156.91 114.066 159.479 118.731 160.951C119.195 161.052 119.625 161.27 119.981 161.585C120.246 161.917 120.425 162.309 120.5 162.727C121.4 166.243 121.702 169.881 122 173.496C122.079 174.094 122.066 174.7 121.964 175.295C121.746 176.26 121.061 177.042 120.386 177.768C118.271 180.034 115.857 182.404 115.499 185.485C115.472 186.079 115.402 186.67 115.289 187.254C115.105 187.939 114.696 188.544 114.445 189.211C113.214 192.495 115.997 196.471 114.302 199.53C115.219 201.293 115.849 203.192 116.166 205.154C116.223 205.898 116.394 206.629 116.671 207.321C117.176 208.375 118.215 209.046 119.034 209.901C121.529 212.459 121.835 216.373 121.982 219.944C122.074 221.956 122.045 224.267 120.508 225.586C119.62 226.357 118.407 226.607 117.246 226.799C115.702 227.057 114.021 227.241 112.654 226.478C111.674 225.933 111.007 224.978 110.369 224.057C109.16 222.299 107.948 220.545 106.802 218.742C104.988 215.901 103.278 212.654 103.802 209.322C103.654 212.731 102.936 216.166 101.262 219.137C99.5892 222.107 96.8952 224.588 93.6262 225.568C90.3572 226.548 86.5354 225.855 84.0993 223.467C83.3041 222.648 82.6212 221.728 82.0687 220.729C80.682 218.354 79.6701 215.78 79.0687 213.096C78.9102 212.4 78.7923 211.622 79.1424 210.999C79.3083 210.704 79.5625 210.472 79.7358 210.181C80.3181 209.19 79.7579 207.94 79.194 206.931C78.3353 207.012 77.7198 206.002 77.7972 205.139C77.8746 204.277 78.3906 203.529 78.7554 202.744C79.8242 200.429 79.5883 197.735 79.0724 195.24C78.5564 192.745 77.7862 190.265 77.8451 187.718C77.9078 185.024 75.9692 182.599 74.4914 180.347C73.6658 179.08 72.7039 177.9 71.9853 176.57C70.4869 173.77 70.1405 170.496 71.0197 167.445C71.5358 165.878 72.2126 164.369 73.0393 162.941L74.2555 160.66C74.4819 160.115 74.8335 159.631 75.2816 159.246C75.7298 158.862 76.262 158.589 76.8353 158.449L85.2492 155.132C86.325 154.764 87.3465 154.253 88.286 153.613C89.3142 152.839 90.0808 151.77 91.0611 150.945C91.204 150.795 91.3754 150.675 91.5652 150.592C91.7551 150.509 91.9596 150.465 92.1668 150.462C92.9555 150.532 93.2355 151.527 93.3166 152.305C93.5009 154.044 94.7908 155.519 95.2294 157.21C97.6028 166.553 102.626 175.169 104.004 184.707C105.552 180.989 107.1 177.263 109.083 173.762C109.396 173.259 109.659 172.727 109.868 172.173C110.106 171.374 110.195 170.539 110.13 169.708C110.03 167.308 109.393 164.964 108.762 162.646C107.944 159.491 107.207 156.584 106.356 153.458Z" fill="#8C8C8C"/>
<path d="M122.391 182.006C122.553 183.576 122.712 185.15 123.003 186.701C123.342 188.496 123.858 190.25 124.37 192.005C124.62 192.991 124.979 193.946 125.439 194.853C125.606 195.117 125.738 195.4 125.833 195.697C126.014 196.434 125.601 197.172 125.424 197.909C124.893 200.12 126.486 202.578 125.483 204.616C125.181 205.235 124.654 205.748 124.455 206.411C124.223 207.174 124.455 207.988 124.576 208.777C124.89 210.988 124.134 213.236 123.39 215.363L122.122 218.952C120.965 216.8 119.796 214.626 118.197 212.779C117.626 212.116 117.003 211.501 116.476 210.8C115.69 209.7 115.069 208.491 114.633 207.211C113.508 204.17 112.865 200.971 112.728 197.732C112.636 196.811 112.743 195.881 113.041 195.004C113.285 194.498 113.558 194.005 113.859 193.53C114.847 191.75 115.05 189.642 115.031 187.608C115.013 185.573 114.795 183.532 115.031 181.508C115.224 179.819 115.723 178.179 116.505 176.669C116.967 175.692 117.652 174.837 118.507 174.174C119.144 173.697 119.922 173.444 120.718 173.456C121.923 173.526 121.647 174.561 121.75 175.56L122.391 182.006Z" fill="#8C8C8C"/>
<path d="M68.1819 176.99C67.4301 179.201 66.752 181.432 66.1475 183.683C65.5579 185.894 65.0308 188.118 64.5665 190.353C64.328 191.336 64.1945 192.342 64.1685 193.353C64.2156 194.531 64.4176 195.697 64.7692 196.821C67.1426 205.375 71.4693 213.266 76.3415 220.685C77.7337 218.948 79.3873 217.439 81.2431 216.21C81.395 216.121 81.5217 215.994 81.6117 215.842C81.6584 215.699 81.672 215.547 81.6516 215.397C81.6312 215.248 81.5772 215.105 81.4937 214.98C80.1485 212.223 78.0184 209.794 77.3476 206.798C77.0675 205.552 77.0565 204.255 76.7395 203.017C76.3304 201.413 75.4164 199.947 75.2064 198.303C74.9816 196.512 75.5749 194.558 74.7346 192.97C76.4484 192.303 77.4397 190.538 78.1658 188.846C78.9415 187.115 79.4963 185.294 79.8169 183.425C80.3215 179.841 79.6201 176.191 77.823 173.05C76.9453 171.483 75.8188 170.069 74.4877 168.864C74.0491 168.469 73.0135 167.338 72.3759 167.349C71.5246 167.367 71.2519 168.746 71.0086 169.365C70.0246 171.893 69.0517 174.425 68.1819 176.99Z" fill="#8C8C8C"/>
<path d="M83.4469 218.241C83.5574 218.322 83.6827 218.433 83.6533 218.565C83.6238 218.698 83.5169 218.731 83.4211 218.786C82.9229 219.14 82.5509 219.644 82.3597 220.224C81.7472 221.604 81.2132 223.018 80.7602 224.458C79.9355 223.223 78.9654 222.091 77.8708 221.086C77.0305 220.312 76.0907 219.579 75.6411 218.532C75.6411 218.503 77.5723 217.076 77.7492 216.922C78.2909 216.439 78.9728 215.101 79.5329 214.806C80.1668 214.475 80.7712 215.775 81.254 216.299C81.9182 217.018 82.6528 217.669 83.4469 218.241Z" fill="#FBBEBE"/>
<path d="M113.417 138.503C113.391 138.02 113.328 137.486 112.96 137.172C112.636 136.949 112.247 136.841 111.854 136.867C109.705 136.797 107.483 137.158 105.456 136.435C104.122 135.96 102.983 135.046 101.682 134.478C100.381 133.911 98.7155 133.76 97.6651 134.714C96.8691 135.451 96.6516 136.583 96.3752 137.626C95.7667 139.928 94.6833 142.077 93.1947 143.935C92.1959 143.626 91.481 142.734 91.0203 141.798C89.454 138.606 90.2242 134.795 91.3372 131.412C91.7058 130.277 92.1149 129.153 92.5239 128.033L93.4232 125.556C94.6035 125.44 95.7 124.894 96.5042 124.023L96.8912 124.963C97.8906 124.927 98.8551 124.586 99.6553 123.986C99.9649 124.568 100.761 124.723 101.406 124.535C102.051 124.347 102.607 123.986 103.249 123.798C104.962 123.245 106.79 124.097 108.589 124.192C109.35 124.174 110.111 124.196 110.87 124.259C112.993 124.601 114.493 126.599 115.142 128.648C115.573 130.012 115.93 131.689 117.275 132.171C117.305 132.687 116.391 132.787 116.313 133.277C116.304 133.44 116.343 133.603 116.424 133.745L117.659 136.395C117.068 136.543 116.448 136.512 115.875 136.306C115.318 137.615 113.472 139.502 113.417 138.503Z" fill="#192534"/>
<path d="M395.049 325.37C392.761 346.18 272.632 344.433 272.814 325.368C275.102 304.56 395.231 306.307 395.049 325.37Z" fill="#E6E6E6"/>
<path d="M342.449 149.348C338.817 143.212 331.633 142.926 331.633 142.926C331.633 142.926 324.632 142.031 320.141 151.376C315.955 160.086 310.178 168.497 319.211 170.536L320.842 165.457L321.853 170.914C323.139 171.006 324.429 171.028 325.718 170.98C335.392 170.668 344.605 171.071 344.308 167.6C343.914 162.985 345.943 155.252 342.449 149.348Z" fill="#2F2E41"/>
<path d="M329.052 170.254C329.069 170.945 329.064 171.673 328.721 172.273C328.041 173.461 326.38 173.639 325.381 174.576C324.33 175.562 324.211 177.161 324.161 178.6C324.109 180.105 324.064 181.659 324.613 183.061C324.95 183.834 325.375 184.564 325.88 185.238C326.49 186.118 327.106 186.993 327.727 187.864C328.059 188.355 328.429 188.819 328.833 189.252C329.946 190.385 331.472 191.013 332.996 191.46C333.98 191.75 335.043 191.975 336.02 191.661C336.666 191.408 337.262 191.042 337.779 190.579C338.534 190.038 339.205 189.387 339.77 188.65C340.59 187.46 340.817 185.97 340.987 184.535C341.49 180.291 341.685 176.016 341.572 171.744C341.593 171.279 341.509 170.815 341.328 170.385C340.822 169.398 339.467 169.187 338.753 168.337C338.143 167.61 338.118 166.574 338.123 165.625L338.136 163.209C338.158 163.006 338.117 162.8 338.019 162.621C337.93 162.524 337.824 162.445 337.705 162.39C337.586 162.334 337.457 162.303 337.326 162.297C335.825 162.048 334.303 161.946 332.781 161.993C331.548 162.031 329.182 161.928 328.115 162.615C327.148 163.238 328.359 164.96 328.584 165.927C328.885 167.35 329.042 168.8 329.052 170.254Z" fill="#FFB8B8"/>
<path d="M308.996 331.992C308.682 333.058 308.537 334.302 309.188 335.203C309.548 335.654 310.022 336.001 310.56 336.208C311.919 336.8 313.441 336.917 314.921 336.848C315.206 336.861 315.489 336.816 315.755 336.714C316.02 336.612 316.262 336.456 316.464 336.256C319.906 333.407 322.234 329.436 323.039 325.041C323.104 324.814 323.091 324.572 323.004 324.353C322.89 324.183 322.732 324.048 322.546 323.964C321.78 323.484 320.954 323.107 320.09 322.843C315.362 321.622 310.167 328.006 308.996 331.992Z" fill="#2F2E41"/>
<path d="M358.583 317.047C359.218 317.785 360.001 318.381 360.881 318.798C361.323 319.002 361.805 319.104 362.291 319.096C362.778 319.087 363.256 318.969 363.69 318.75C364.991 318.009 365.359 316.289 365.256 314.795C365.064 312.033 363.744 309.545 362.228 307.289C361.749 306.575 360.687 304.45 359.755 304.424C359.312 304.411 357.656 306.017 357.207 306.322C355.563 307.438 354.425 308.237 354.767 310.379C355.148 312.769 356.974 315.327 358.583 317.047Z" fill="#2F2E41"/>
<path d="M331.883 166.106C337.275 166.106 341.646 161.735 341.646 156.342C341.646 150.95 337.275 146.578 331.883 146.578C326.49 146.578 322.119 150.95 322.119 156.342C322.119 161.735 326.49 166.106 331.883 166.106Z" fill="#FFB8B8"/>
<path d="M327.863 180.526C327.242 179.603 326.731 178.611 326.34 177.569C325.95 176.517 325.94 175.361 326.313 174.303C325.258 173.691 323.826 174.186 323.058 175.134C322.289 176.081 322.054 177.351 321.986 178.569C321.919 179.787 321.99 181.023 321.725 182.214C321.139 184.848 318.963 187.014 318.801 189.708C318.642 192.358 320.459 194.667 321.353 197.166C321.895 198.725 322.122 200.375 322.02 202.022C321.991 202.553 321.957 203.159 322.332 203.537C322.527 203.707 322.758 203.832 323.008 203.901C327.322 205.419 331.982 205.55 336.554 205.666L344.106 205.857C344.562 205.911 345.025 205.834 345.439 205.634C346.117 205.218 346.207 204.287 346.219 203.493C346.318 196.649 346.027 189.806 345.736 182.968C345.63 180.49 345.523 177.997 344.998 175.572C344.864 174.955 344.644 174.268 344.074 173.996C343.592 173.765 343.02 173.915 342.518 174.1C340.177 174.97 338.154 176.527 336.714 178.567C335.165 180.773 334.403 183.418 332.886 185.64C331.786 187.252 331.149 185.847 330.416 184.66C329.565 183.282 328.714 181.904 327.863 180.526Z" fill="#FFA500"/>
<path d="M325.36 171.654C324.779 171.94 324.123 172.064 323.57 172.401C322.908 172.804 322.458 173.47 322.029 174.115L319.715 177.597C319.171 178.344 318.725 179.158 318.388 180.019C318.027 181.075 318.002 182.211 317.969 183.327C317.875 186.43 317.682 189.528 317.39 192.62C317.275 194.112 317.061 195.593 316.747 197.056C316.471 198.242 316.082 199.398 315.692 200.552L311.404 213.264C311.139 213.897 311.013 214.579 311.035 215.265C311.106 215.946 311.556 216.637 312.229 216.759C312.675 216.796 313.121 216.706 313.517 216.498C315.154 215.815 316.779 215.005 318.04 213.757C320.112 211.705 320.945 208.747 321.699 205.93C322.099 204.436 322.502 202.92 322.5 201.373C322.496 197.861 320.422 194.608 320.367 191.097C320.377 190.143 320.463 189.191 320.624 188.25C320.994 185.693 321.378 183.116 322.263 180.688C323.149 178.261 324.584 175.964 326.693 174.472C327.705 173.757 330.421 172.324 329.36 170.68C328.303 169.04 326.394 171.146 325.36 171.654Z" fill="#FFAA71"/>
<path d="M344.173 203.124C337.176 202.581 330.173 202.13 323.163 201.77C322.574 201.74 321.904 201.741 321.5 202.171C321.327 202.382 321.197 202.626 321.119 202.888L319.622 206.926C318.959 208.714 318.656 210.403 317.332 211.776C316.008 213.15 314.432 214.264 313.125 215.653C311.175 217.735 309.892 220.353 309.441 223.17C309.077 225.482 309.284 227.877 308.687 230.14C307.95 232.929 309.132 235.833 309.113 238.717C309.086 243.013 308.496 247.283 307.908 251.538C306.203 263.875 304.498 276.212 302.645 288.528C301.125 298.64 299.627 309.555 304.376 318.611C305.511 320.775 307.057 322.831 309.228 323.953C310.43 324.518 311.703 324.918 313.013 325.142C316.376 325.845 319.777 326.349 323.2 326.65C324.588 326.773 326.206 326.771 327.096 325.698C327.694 324.979 327.777 323.977 327.834 323.044L328.209 316.949C328.693 309.063 328.515 300.887 326.756 293.185C326.162 290.588 325.416 288.025 324.92 285.407C324.448 282.921 324.204 280.397 324.19 277.867C324.152 276.053 324.318 274.241 324.688 272.464C325.975 266.737 330.239 261.572 329.619 255.735C333.549 261.498 334.852 268.097 336.081 274.963C336.978 279.972 337.948 284.991 339.646 289.787C341.493 295.002 344.234 300.179 343.844 305.697C343.748 306.847 343.557 307.987 343.273 309.106C342.157 313.737 346.874 317.698 351.225 315.756C351.254 315.743 351.284 315.729 351.314 315.715C355.334 313.863 357.365 308.987 361.466 307.321C363.37 306.547 365.742 306.438 366.513 304.1C366.684 303.56 366.742 302.99 366.682 302.426C366.502 300.535 365.424 299.006 364.585 297.38C362.756 293.834 362.062 289.829 361.404 285.894C360.751 281.984 360.109 278.073 359.479 274.159C359.067 271.601 358.657 269.026 357.816 266.575C357.448 265.502 356.998 264.455 356.703 263.36C355.601 259.267 356.741 254.907 356.28 250.694C355.761 245.954 354.809 241.248 353.767 236.595C352.417 230.569 352.141 224.36 351.924 218.188C351.838 215.736 351.748 213.224 350.824 210.952C349.521 207.747 346.95 205.187 344.173 203.124Z" fill="#2F2E41"/>
<path d="M340.843 148.756L333.745 145.038L323.943 146.559L321.915 155.517L326.964 155.322L328.374 152.032V155.268L330.703 155.178L332.056 149.939L332.9 155.517L341.182 155.348L340.843 148.756Z" fill="#2F2E41"/>
<path d="M337.11 175.974C337.684 175.431 338.408 175.071 339.189 174.943C339.462 174.941 339.725 174.836 339.923 174.647C340.02 174.483 340.063 174.293 340.047 174.102C340.072 172.382 339.93 170.662 339.621 168.969C340.291 168.732 341.003 168.635 341.712 168.685L348.285 168.704C349.606 168.707 350.974 168.721 352.177 169.269C353.409 169.889 354.398 170.902 354.989 172.148C355.571 173.387 355.998 174.692 356.26 176.035C357.041 179.408 354.237 182.803 353.987 186.256C353.914 187.252 353.998 188.255 353.906 189.25C353.81 190.297 353.52 191.324 353.496 192.375C353.467 193.674 353.846 194.947 354.282 196.172C355.616 199.913 357.515 203.425 359.057 207.086C359.451 207.921 359.716 208.81 359.843 209.725C359.904 210.183 359.871 210.649 359.746 211.093C359.622 211.538 359.408 211.953 359.118 212.313C358.476 213.034 357.497 213.329 356.595 213.673C355.461 214.105 354.379 214.661 353.367 215.331C352.959 215.633 352.517 215.889 352.052 216.093C351.596 216.236 351.128 216.339 350.653 216.402C349.436 216.634 348.286 217.125 347.109 217.515C346.721 217.644 346.274 217.756 345.923 217.546C345.726 217.406 345.569 217.218 345.464 217C343.209 213.095 342.413 208.531 341.896 204.051C341.379 199.571 341.094 195.019 339.722 190.723C339.305 189.416 338.788 188.134 338.551 186.783C338.208 184.831 338.465 182.81 338.112 180.859C337.8 179.13 336.99 177.728 337.11 175.974Z" fill="#FFAA71"/>
<path d="M352.096 213.243C350.139 214.179 348.591 215.667 347.281 217.396C347.004 217.762 347.376 218.445 348.207 218.433C348.98 218.423 349.442 217.432 350.215 217.421C350.451 219.488 350.879 221.528 351.493 223.515C353.036 222.161 353.959 220.254 354.843 218.401L356.59 214.738C357.231 213.394 357.873 212.048 358.451 210.675C358.608 210.354 358.705 210.007 358.737 209.651C358.813 207.288 356.484 207.274 355.479 208.753C354.38 210.37 354.038 212.314 352.096 213.243Z" fill="#FFB8B8"/>
<path d="M352.497 172.62C353.991 174.172 355.495 175.737 356.654 177.552C357.814 179.368 358.619 181.472 358.565 183.626C358.508 184.171 358.527 184.721 358.624 185.261C358.793 185.758 359.045 186.224 359.368 186.637C360.832 188.785 361.967 191.139 362.738 193.621C362.864 194.111 363.049 194.583 363.29 195.028C363.51 195.389 363.811 195.694 364.054 196.04C364.478 196.665 364.71 197.4 364.722 198.156C364.734 198.911 364.525 199.653 364.121 200.291C363.998 200.444 363.909 200.621 363.858 200.81C363.758 201.403 364.502 201.76 364.776 202.296C365.053 202.839 364.788 203.533 364.327 203.933C363.836 204.299 363.271 204.552 362.671 204.674C363.441 205.777 362.506 207.327 362.193 208.635C361.974 209.55 361.976 210.503 361.833 211.433C361.689 212.364 361.366 213.32 360.65 213.931C360.558 214.018 360.446 214.081 360.324 214.113C359.926 214.191 359.656 213.731 359.516 213.35C359.083 212.166 358.646 210.959 357.882 209.956C357.118 208.953 355.961 208.167 354.7 208.171C354.596 207.922 354.553 207.651 354.574 207.382C354.596 207.112 354.681 206.852 354.823 206.622C355.076 206.145 355.446 205.742 355.725 205.28C356.078 204.651 356.318 203.965 356.434 203.253C357.057 199.982 356.43 196.596 354.678 193.765C354.271 193.093 353.778 192.478 353.213 191.933C352.597 191.356 351.877 190.892 351.308 190.268C350.432 189.231 349.902 187.946 349.793 186.592C349.688 185.247 349.724 183.895 349.9 182.558C350.156 179.905 350.484 177.247 350.863 174.608C350.892 174.265 350.981 173.929 351.126 173.616C351.424 173.061 351.927 172.888 352.497 172.62Z" fill="#FFAA71"/>
</svg>
