<svg width="61" height="61" viewBox="0 0 61 61" fill="none" xmlns="http://www.w3.org/2000/svg">
<path d="M30.4051 20.1908C37.0439 20.1908 42.4257 15.671 42.4257 10.0954C42.4257 4.51987 37.0439 0 30.4051 0C23.7663 0 18.3845 4.51987 18.3845 10.0954C18.3845 15.671 23.7663 20.1908 30.4051 20.1908Z" fill="#FFA500"/>
<path d="M39.2379 21.5585C36.6928 22.9465 33.6592 23.7539 30.405 23.7539C27.1509 23.7539 24.1173 22.9465 21.5722 21.5585C18.7587 22.4615 16.15 23.7937 13.8818 25.5035L30.405 30.7074L46.9283 25.5035C44.66 23.7937 42.0514 22.4614 39.2379 21.5585Z" fill="#FFA500"/>
<path d="M55.8604 36.8186H54.4462C53.2747 36.8186 52.325 37.6163 52.325 38.6001V43.3509C52.325 44.3348 53.2747 45.1325 54.4462 45.1325H55.8604C58.594 45.1325 60.8101 43.2714 60.8101 40.9755C60.8101 38.6797 58.594 36.8186 55.8604 36.8186Z" fill="#FFA500"/>
<path d="M6.56974 27.8248C5.99784 28.1577 5.65674 28.7048 5.65674 29.2891V33.2555H6.36383C9.87285 33.2555 12.7277 35.6531 12.7277 38.6001V43.3509C12.7277 46.2979 9.87285 48.6955 6.36383 48.6955H5.65674V52.4492C5.65674 53.1919 6.2053 53.8566 7.03317 54.1173L28.2837 60.81V33.8446L8.52287 27.621C7.87135 27.4157 7.14149 27.4918 6.56974 27.8248Z" fill="#FFA500"/>
<path d="M48.0822 43.3509V38.6001C48.0822 35.6531 50.937 33.2555 54.446 33.2555H55.1531V29.2891C55.1531 28.7048 54.812 28.1577 54.2401 27.8248C53.6682 27.4918 52.9382 27.4157 52.287 27.621L32.5261 33.8446V60.81L53.7767 54.1173C54.6045 53.8566 55.1531 53.1919 55.1531 52.4492V48.6955H54.446C50.937 48.6955 48.0822 46.2979 48.0822 43.3509Z" fill="#FFA500"/>
<path d="M8.48512 43.3509V38.6001C8.48512 37.6163 7.53535 36.8186 6.36384 36.8186H4.94965C2.21603 36.8186 0 38.6797 0 40.9755C0 43.2714 2.21603 45.1325 4.94965 45.1325H6.36384C7.53535 45.1325 8.48512 44.3348 8.48512 43.3509Z" fill="#FFA500"/>
</svg>
