<svg width="61" height="61" viewBox="0 0 61 61" fill="none" xmlns="http://www.w3.org/2000/svg">
<path d="M21.9311 24.1582C21.9311 19.5503 25.6799 15.8015 30.2879 15.8015C34.8958 15.8015 38.6446 19.5503 38.6446 24.1582C38.6446 28.7661 34.8958 32.5149 30.2879 32.5149C28.6275 32.5149 27.0799 32.0261 25.7777 31.1877L22.6858 34.2797C24.8044 35.8749 27.4375 36.8218 30.2877 36.8218C37.2705 36.8218 42.9513 31.141 42.9513 24.1582C42.9513 17.1755 37.2706 11.4946 30.2879 11.4946C23.3051 11.4946 17.6243 17.1755 17.6243 24.1582C17.6243 27.0085 18.5711 29.6416 20.1664 31.7602L23.2582 28.6684C22.42 27.3662 21.9311 25.8186 21.9311 24.1582Z" fill="#FFA500"/>
<path d="M31.5475 25.4178L28.4012 28.5642C28.9805 28.8132 29.6182 28.9517 30.2878 28.9517C32.931 28.9517 35.0815 26.8014 35.0815 24.1582C35.0815 21.5149 32.931 19.3645 30.2878 19.3645C27.6446 19.3645 25.4941 21.5149 25.4941 24.1582C25.4941 24.8278 25.6326 25.4655 25.8817 26.0448L29.0281 22.8984L31.5475 25.4178Z" fill="#FFA500"/>
<path d="M60.2728 31.7307L60.2149 31.6176L54.666 23.7585C54.5396 17.4715 52.0333 11.5785 47.5764 7.11598C43.0013 2.53526 36.9161 0.00807635 30.442 0C30.4313 0 30.4216 0 30.411 0C23.9374 0 17.8499 2.51911 13.2686 7.09472C8.67977 11.6778 6.15259 17.7737 6.15259 24.2592C6.15259 27.1966 6.90381 30.6777 8.38534 34.6059C8.68904 35.4112 8.96589 36.1884 9.22101 36.9499H14.9768L17.6292 34.2975C15.3982 31.5178 14.0613 27.9915 14.0613 24.1583C14.0613 15.2109 21.3406 7.93157 30.288 7.93157C39.2354 7.93157 46.5147 15.2109 46.5147 24.1583C46.5147 33.1057 39.2354 40.385 30.288 40.385C26.4547 40.385 22.9283 39.048 20.1488 36.8171L17.5058 39.4601V47.2273C17.5058 51.3107 15.2002 54.8653 11.8228 56.6593V60.8102H40.2295V52.7562H47.3138C50.0312 52.7562 52.6163 51.5833 54.4059 49.5384C56.1956 47.4936 57.0155 44.7759 56.6554 42.0823L56.2523 39.0678L57.6041 38.5683C58.9189 38.0824 59.9652 37.0549 60.4749 35.7491C60.9842 34.4434 60.9107 32.9787 60.2728 31.7307Z" fill="#FFA500"/>
<path d="M11.5323 40.3943H7.22833C3.24265 40.3943 0 43.6368 0 47.6225V49.5665H2.36007L11.5323 40.3943Z" fill="#FFA500"/>
<path d="M4.88892 52.0765V54.4554H6.83294C10.8186 54.4554 14.0613 51.2127 14.0613 47.227V42.9042L4.88892 52.0765Z" fill="#FFA500"/>
</svg>
