<svg width="61" height="61" viewBox="0 0 61 61" fill="none" xmlns="http://www.w3.org/2000/svg">
<path d="M30.405 0C13.639 0 0 13.639 0 30.405C0 47.171 13.639 60.81 30.405 60.81C47.171 60.81 60.81 47.171 60.81 30.405C60.81 13.639 47.171 0 30.405 0ZM44.8652 46.1318C44.3711 46.6259 43.7225 46.8745 43.0739 46.8745C42.4253 46.8745 41.7763 46.6259 41.2826 46.1318L28.6137 33.4633C28.1372 32.9896 27.8714 32.3457 27.8714 31.672V15.2025C27.8714 13.8014 29.0062 12.6689 30.405 12.6689C31.8038 12.6689 32.9386 13.8014 32.9386 15.2025V30.6231L44.8652 42.5492C45.8557 43.5402 45.8557 45.1412 44.8652 46.1318Z" fill="#FFA500"/>
</svg>
