<svg width="61" height="61" viewBox="0 0 61 61" fill="none" xmlns="http://www.w3.org/2000/svg">
<g clip-path="url(#clip0)">
<path d="M55.4651 28.5042C56.4496 28.5042 57.2466 27.7076 57.2466 26.7232V16.9873L58.04 17.5162C58.8732 18.0688 59.9732 17.8284 60.5105 17.0221C61.0565 16.2028 60.8357 15.0977 60.0164 14.5516L49.3271 7.42543C48.7286 7.02551 47.9492 7.02551 47.3507 7.42543L36.6615 14.5516C35.8421 15.0977 35.6213 16.2028 36.1674 17.0221C36.7102 17.8396 37.8153 18.059 38.6379 17.5162L39.4312 16.9873V26.7232C39.4312 27.7076 40.2283 28.5047 41.2128 28.5047H46.5574V19.597C46.5574 18.612 47.3544 17.8154 48.3389 17.8154C49.3239 17.8154 50.1205 18.612 50.1205 19.597V28.5047H55.4651V28.5042Z" fill="#FFA500"/>
<path d="M1.78154 24.9416H23.1601C24.1575 24.9416 24.9411 24.1575 24.9411 23.1601V17.6016C22.6966 19.9528 19.5255 21.3785 16.0339 21.3785H8.90771C5.41608 21.3785 2.24456 19.9528 0 17.6016V23.1601C0 24.1575 0.783601 24.9416 1.78154 24.9416Z" fill="#FFA500"/>
<path d="M8.90771 17.8154H16.0339C20.9508 17.8154 24.9411 13.8246 24.9411 8.90771C24.9411 7.90977 24.1575 7.12617 23.1601 7.12617H17.8154V5.34463C17.8154 2.39766 15.4178 0 12.4708 0C9.52337 0 7.12617 2.39766 7.12617 5.34463V7.12617H1.78154C0.783601 7.12617 0 7.90977 0 8.90771C0 13.8246 3.99084 17.8154 8.90771 17.8154ZM10.6893 5.34463C10.6893 4.36153 11.4877 3.56309 12.4708 3.56309C13.4534 3.56309 14.2523 4.36153 14.2523 5.34463V7.12617H10.6893V5.34463Z" fill="#FFA500"/>
<path d="M59.028 32.0674H37.6495C36.665 32.0674 35.8679 32.8644 35.8679 33.8489C35.8679 38.7607 39.8643 42.7566 44.7757 42.7566H46.5572V46.1337L35.6981 45.0471C35.1233 42.7158 32.9112 40.9751 30.4045 40.9751C28.2732 40.9751 26.3251 42.2379 25.4677 44.0468L14.2523 42.9255V39.1935H16.0339C20.9452 39.1935 24.9411 35.1976 24.9411 30.2858C24.9411 29.3013 24.1445 28.5043 23.1601 28.5043H1.78154C0.796591 28.5043 0 29.3013 0 30.2858C0 35.1976 3.99641 39.1935 8.90771 39.1935H10.6893V44.5382C10.6893 45.4535 11.3833 46.2204 12.2931 46.3109L25.1114 47.5928C25.5419 49.34 26.9472 50.7383 28.623 51.3363V57.2465H19.597C18.612 57.2465 17.8154 58.0431 17.8154 59.028C17.8154 60.0125 18.612 60.8096 19.597 60.8096H41.2126C42.1975 60.8096 42.9941 60.0125 42.9941 59.028C42.9941 58.0431 42.1975 57.2465 41.2126 57.2465H32.1861V51.3363C33.5278 50.858 34.7368 49.8689 35.3418 48.5926L48.1615 49.874C48.6974 49.9213 49.1766 49.745 49.5339 49.4216C49.9078 49.0839 50.1203 48.6037 50.1203 48.1012V42.7566H51.9018C56.8131 42.7566 60.8095 38.7602 60.8095 33.8489C60.8095 32.8644 60.0125 32.0674 59.028 32.0674Z" fill="#FFA500"/>
</g>
<defs>
<clipPath id="clip0">
<rect width="60.81" height="60.81" fill="white"/>
</clipPath>
</defs>
</svg>
