<svg width="343" height="150" viewBox="0 0 343 150" fill="none" xmlns="http://www.w3.org/2000/svg">
<circle cx="166.178" cy="36.8516" r="18.8428" fill="#FFA500"/>
<path d="M140.08 62.9419L144.677 45.7847L157.237 58.3446L140.08 62.9419Z" fill="#FFA500"/>
<path d="M192.268 62.9419L175.111 58.3447L187.671 45.7847L192.268 62.9419Z" fill="#FFA500"/>
<path d="M202.696 36.9353L187.314 45.8165V28.0541L202.696 36.9353Z" fill="#FFA500"/>
<path d="M192.269 10.7532L187.672 27.9104L175.112 15.3505L192.269 10.7532Z" fill="#FFA500"/>
<path d="M129.326 36.9353L144.709 28.0541V45.8165L129.326 36.9353Z" fill="#FFA500"/>
<path d="M166.261 75.0376L157.38 58.0291H175.143L166.261 75.0376Z" fill="#FFA500"/>
<path d="M166.262 0L175.143 15.3827H157.381L166.262 0Z" fill="#FFA500"/>
<path d="M140.08 10.7532L157.237 15.3504L144.677 27.9104L140.08 10.7532Z" fill="#FFA500"/>
<path d="M83.5247 112.885C81.2657 112.885 79.0781 112.542 76.962 111.855C74.8746 111.14 73.2303 110.225 72.0293 109.11L73.6164 105.764C74.7602 106.794 76.2186 107.637 77.9915 108.295C79.793 108.924 81.6374 109.239 83.5247 109.239C86.0125 109.239 87.8713 108.824 89.1009 107.995C90.3305 107.137 90.9453 106.007 90.9453 104.606C90.9453 103.577 90.6021 102.748 89.9158 102.118C89.2581 101.461 88.4289 100.96 87.428 100.617C86.4558 100.274 85.0689 99.888 83.2674 99.459C81.0083 98.9157 79.1782 98.3724 77.777 97.8291C76.4044 97.2858 75.2177 96.4565 74.2169 95.3413C73.2446 94.1975 72.7585 92.6676 72.7585 90.7517C72.7585 89.1503 73.1731 87.7063 74.0024 86.4195C74.8603 85.1327 76.1471 84.1032 77.8628 83.3312C79.5785 82.5591 81.7089 82.173 84.2539 82.173C86.0268 82.173 87.7712 82.4018 89.4869 82.8593C91.2026 83.3169 92.6753 83.9746 93.9049 84.8324L92.4894 88.2639C91.2312 87.4632 89.8872 86.8627 88.4575 86.4624C87.0277 86.0334 85.6265 85.819 84.2539 85.819C81.8233 85.819 79.9932 86.2622 78.7636 87.1487C77.5626 88.0351 76.962 89.1789 76.962 90.5801C76.962 91.6096 77.3052 92.4531 77.9915 93.1108C78.6778 93.7399 79.5214 94.2404 80.5222 94.6121C81.5516 94.9552 82.9385 95.327 84.6828 95.7273C86.9419 96.2706 88.7577 96.814 90.1303 97.3573C91.5029 97.9006 92.6753 98.7299 93.6476 99.8451C94.6484 100.96 95.1488 102.462 95.1488 104.349C95.1488 105.922 94.7199 107.366 93.862 108.681C93.0042 109.968 91.7031 110.997 89.9587 111.769C88.2144 112.513 86.0697 112.885 83.5247 112.885ZM121.361 89.808V112.542H117.457V109.11C116.628 110.282 115.527 111.198 114.155 111.855C112.811 112.484 111.338 112.799 109.737 112.799C106.705 112.799 104.318 111.97 102.573 110.311C100.829 108.624 99.9569 106.15 99.9569 102.891V89.808H104.075V102.419C104.075 104.621 104.604 106.293 105.662 107.437C106.72 108.552 108.235 109.11 110.208 109.11C112.382 109.11 114.097 108.452 115.356 107.137C116.614 105.822 117.243 103.963 117.243 101.561V89.808H121.361ZM140.695 89.5936C143.583 89.5936 145.871 90.4371 147.558 92.1243C149.274 93.7828 150.132 96.2277 150.132 99.459V112.542H146.014V99.9309C146.014 97.729 145.485 96.0705 144.427 94.9552C143.369 93.84 141.853 93.2824 139.88 93.2824C137.65 93.2824 135.891 93.9401 134.604 95.2555C133.318 96.5423 132.674 98.401 132.674 100.832V112.542H128.556V89.808H132.503V93.2395C133.332 92.0671 134.447 91.1663 135.848 90.5372C137.278 89.9081 138.894 89.5936 140.695 89.5936ZM178.365 99.2017L172.875 104.778V112.542H168.585V82.5162H172.875V99.2875L189.174 82.5162H194.064L181.239 96.0276L194.879 112.542H189.86L178.365 99.2017ZM210.481 82.5162C214.37 82.5162 217.43 83.4455 219.66 85.3042C221.891 87.163 223.006 89.7223 223.006 92.9821C223.006 96.242 221.891 98.8013 219.66 100.66C217.43 102.519 214.37 103.448 210.481 103.448H203.061V112.542H198.771V82.5162H210.481ZM210.353 99.7164C213.069 99.7164 215.142 99.1445 216.572 98.0007C218.002 96.8283 218.717 95.1554 218.717 92.9821C218.717 90.8089 218.002 89.1503 216.572 88.0065C215.142 86.8341 213.069 86.2479 210.353 86.2479H203.061V99.7164H210.353ZM242.637 112.885C239.606 112.885 236.875 112.227 234.445 110.912C232.014 109.568 230.098 107.723 228.697 105.378C227.325 103.033 226.638 100.417 226.638 97.5288C226.638 94.6407 227.325 92.0242 228.697 89.6794C230.098 87.3345 232.014 85.5044 234.445 84.189C236.875 82.845 239.606 82.173 242.637 82.173C245.64 82.173 248.357 82.845 250.787 84.189C253.218 85.5044 255.119 87.3345 256.492 89.6794C257.865 91.9956 258.551 94.6121 258.551 97.5288C258.551 100.446 257.865 103.076 256.492 105.421C255.119 107.737 253.218 109.568 250.787 110.912C248.357 112.227 245.64 112.885 242.637 112.885ZM242.637 109.067C244.839 109.067 246.812 108.567 248.557 107.566C250.33 106.565 251.717 105.192 252.717 103.448C253.747 101.675 254.262 99.7021 254.262 97.5288C254.262 95.3556 253.747 93.3968 252.717 91.6525C251.717 89.8795 250.33 88.4926 248.557 87.4918C246.812 86.491 244.839 85.9905 242.637 85.9905C240.436 85.9905 238.434 86.491 236.632 87.4918C234.86 88.4926 233.458 89.8795 232.429 91.6525C231.428 93.3968 230.928 95.3556 230.928 97.5288C230.928 99.7021 231.428 101.675 232.429 103.448C233.458 105.192 234.86 106.565 236.632 107.566C238.434 108.567 240.436 109.067 242.637 109.067Z" fill="#FFA500"/>
<path d="M12.6517 138.107C11.179 138.107 9.84935 137.778 8.66264 137.121C7.49022 136.463 6.56086 135.555 5.87457 134.397C5.20258 133.239 4.86658 131.938 4.86658 130.494C4.86658 129.05 5.20258 127.748 5.87457 126.59C6.56086 125.432 7.49022 124.524 8.66264 123.867C9.84935 123.209 11.179 122.88 12.6517 122.88C13.7383 122.88 14.7392 123.059 15.6542 123.416C16.5693 123.759 17.3485 124.274 17.9919 124.96L17.3056 125.668C16.1046 124.481 14.5676 123.888 12.6946 123.888C11.4364 123.888 10.2926 124.174 9.26314 124.746C8.2337 125.318 7.42588 126.111 6.83967 127.127C6.25346 128.127 5.96036 129.25 5.96036 130.494C5.96036 131.738 6.25346 132.867 6.83967 133.882C7.42588 134.883 8.2337 135.669 9.26314 136.241C10.2926 136.813 11.4364 137.099 12.6946 137.099C14.5533 137.099 16.0903 136.499 17.3056 135.298L17.9919 136.005C17.3485 136.692 16.5622 137.214 15.6328 137.571C14.7177 137.929 13.724 138.107 12.6517 138.107ZM24.8421 138.086C23.7841 138.086 22.8261 137.843 21.9683 137.357C21.1247 136.87 20.4599 136.198 19.9737 135.341C19.4876 134.468 19.2446 133.489 19.2446 132.402C19.2446 131.316 19.4876 130.344 19.9737 129.486C20.4599 128.614 21.1247 127.934 21.9683 127.448C22.8261 126.962 23.7841 126.719 24.8421 126.719C25.9002 126.719 26.851 126.962 27.6945 127.448C28.5524 127.934 29.2244 128.614 29.7105 129.486C30.1966 130.344 30.4397 131.316 30.4397 132.402C30.4397 133.489 30.1966 134.468 29.7105 135.341C29.2244 136.198 28.5524 136.87 27.6945 137.357C26.851 137.843 25.9002 138.086 24.8421 138.086ZM24.8421 137.121C25.7 137.121 26.4649 136.921 27.1369 136.52C27.8232 136.12 28.3594 135.562 28.7454 134.847C29.1458 134.132 29.3459 133.317 29.3459 132.402C29.3459 131.487 29.1458 130.672 28.7454 129.958C28.3594 129.243 27.8232 128.685 27.1369 128.285C26.4649 127.884 25.7 127.684 24.8421 127.684C23.9843 127.684 23.2122 127.884 22.5259 128.285C21.8539 128.685 21.3177 129.243 20.9174 129.958C20.5314 130.672 20.3383 131.487 20.3383 132.402C20.3383 133.317 20.5314 134.132 20.9174 134.847C21.3177 135.562 21.8539 136.12 22.5259 136.52C23.2122 136.921 23.9843 137.121 24.8421 137.121ZM38.9137 126.719C40.3148 126.719 41.4229 127.127 42.2379 127.942C43.0529 128.756 43.4603 129.929 43.4603 131.459V138H42.388V131.545C42.388 130.286 42.0663 129.328 41.4229 128.671C40.7938 128.013 39.9073 127.684 38.7635 127.684C37.4481 127.684 36.4115 128.077 35.6538 128.864C34.896 129.65 34.5171 130.708 34.5171 132.038V138H33.4448V126.805H34.4742V129.228C34.8602 128.442 35.4321 127.827 36.1899 127.384C36.962 126.941 37.8699 126.719 38.9137 126.719ZM56.3302 126.805L51.2688 138H50.175L45.135 126.805H46.2717L50.7326 136.82L55.2364 126.805H56.3302ZM67.4969 132.66H57.8673C57.8959 133.532 58.1175 134.311 58.5321 134.997C58.9468 135.669 59.5044 136.191 60.205 136.563C60.9199 136.935 61.7206 137.121 62.607 137.121C63.3362 137.121 64.0082 136.992 64.623 136.735C65.2521 136.463 65.774 136.07 66.1886 135.555L66.8106 136.263C66.3244 136.849 65.7096 137.299 64.9661 137.614C64.237 137.929 63.4434 138.086 62.5856 138.086C61.4703 138.086 60.4766 137.843 59.6045 137.357C58.7323 136.87 58.046 136.198 57.5456 135.341C57.0595 134.483 56.8164 133.503 56.8164 132.402C56.8164 131.316 57.0452 130.344 57.5027 129.486C57.9745 128.614 58.6179 127.934 59.4329 127.448C60.2479 126.962 61.1629 126.719 62.1781 126.719C63.1932 126.719 64.1011 126.962 64.9018 127.448C65.7168 127.92 66.353 128.585 66.8106 129.443C67.2824 130.301 67.5183 131.273 67.5183 132.36L67.4969 132.66ZM62.1781 127.663C61.3917 127.663 60.684 127.841 60.0549 128.199C59.4258 128.542 58.9182 129.035 58.5321 129.679C58.1604 130.308 57.9459 131.023 57.8887 131.823H66.4674C66.4245 131.023 66.2101 130.308 65.824 129.679C65.438 129.05 64.9304 128.556 64.3013 128.199C63.6722 127.841 62.9645 127.663 62.1781 127.663ZM71.5434 129.25C71.8865 128.435 72.4227 127.813 73.1519 127.384C73.8811 126.941 74.7675 126.719 75.8113 126.719V127.77L75.5539 127.748C74.31 127.748 73.3378 128.142 72.6372 128.928C71.9366 129.7 71.5863 130.78 71.5863 132.167V138H70.514V126.805H71.5434V129.25ZM84.5015 137.292C84.2299 137.55 83.8867 137.75 83.4721 137.893C83.0718 138.021 82.65 138.086 82.2067 138.086C81.2345 138.086 80.4839 137.821 79.9548 137.292C79.4258 136.749 79.1613 135.998 79.1613 135.04V127.727H77.1024V126.805H79.1613V124.36H80.2337V126.805H83.7938V127.727H80.2337V134.933C80.2337 135.662 80.4052 136.22 80.7484 136.606C81.1058 136.978 81.6277 137.164 82.314 137.164C83.0146 137.164 83.5936 136.956 84.0512 136.542L84.5015 137.292ZM87.1703 126.805H88.2426V138H87.1703V126.805ZM87.7065 124.081C87.4634 124.081 87.2561 124.002 87.0845 123.845C86.913 123.674 86.8272 123.466 86.8272 123.223C86.8272 122.98 86.913 122.773 87.0845 122.601C87.2561 122.43 87.4634 122.344 87.7065 122.344C87.9495 122.344 88.1569 122.43 88.3284 122.601C88.5 122.759 88.5858 122.959 88.5858 123.202C88.5858 123.445 88.5 123.652 88.3284 123.824C88.1569 123.995 87.9495 124.081 87.7065 124.081ZM97.9096 126.719C99.3107 126.719 100.419 127.127 101.234 127.942C102.049 128.756 102.456 129.929 102.456 131.459V138H101.384V131.545C101.384 130.286 101.062 129.328 100.419 128.671C99.7897 128.013 98.9033 127.684 97.7594 127.684C96.444 127.684 95.4074 128.077 94.6497 128.864C93.8919 129.65 93.513 130.708 93.513 132.038V138H92.4407V126.805H93.4701V129.228C93.8561 128.442 94.428 127.827 95.1858 127.384C95.9579 126.941 96.8658 126.719 97.9096 126.719ZM116.65 126.805V136.799C116.65 138.658 116.2 140.03 115.299 140.917C114.398 141.803 113.04 142.246 111.224 142.246C110.195 142.246 109.223 142.089 108.307 141.775C107.392 141.46 106.656 141.024 106.098 140.466L106.678 139.651C107.235 140.166 107.907 140.566 108.694 140.852C109.48 141.138 110.316 141.281 111.203 141.281C112.69 141.281 113.791 140.924 114.506 140.209C115.22 139.508 115.578 138.415 115.578 136.928V135.04C115.12 135.855 114.484 136.484 113.669 136.928C112.854 137.371 111.939 137.593 110.924 137.593C109.88 137.593 108.929 137.364 108.072 136.906C107.228 136.434 106.563 135.784 106.077 134.955C105.591 134.125 105.348 133.189 105.348 132.145C105.348 131.101 105.591 130.165 106.077 129.336C106.563 128.506 107.228 127.863 108.072 127.405C108.929 126.948 109.88 126.719 110.924 126.719C111.953 126.719 112.883 126.948 113.712 127.405C114.541 127.863 115.178 128.506 115.621 129.336V126.805H116.65ZM111.01 136.627C111.882 136.627 112.668 136.442 113.369 136.07C114.07 135.684 114.613 135.155 114.999 134.483C115.399 133.796 115.599 133.017 115.599 132.145C115.599 131.273 115.399 130.501 114.999 129.829C114.613 129.157 114.07 128.635 113.369 128.263C112.668 127.877 111.882 127.684 111.01 127.684C110.138 127.684 109.351 127.877 108.651 128.263C107.964 128.635 107.421 129.157 107.021 129.829C106.635 130.501 106.442 131.273 106.442 132.145C106.442 133.017 106.635 133.796 107.021 134.483C107.421 135.155 107.964 135.684 108.651 136.07C109.351 136.442 110.138 136.627 111.01 136.627ZM130.858 130.601L127.491 134.054V138H126.397V122.987H127.491V132.638L136.863 122.987H138.193L131.587 129.807L138.643 138H137.314L130.858 130.601ZM146.072 126.719C147.473 126.719 148.581 127.127 149.396 127.942C150.211 128.756 150.618 129.929 150.618 131.459V138H149.546V131.545C149.546 130.286 149.224 129.328 148.581 128.671C147.952 128.013 147.065 127.684 145.921 127.684C144.606 127.684 143.569 128.077 142.812 128.864C142.054 129.65 141.675 130.708 141.675 132.038V138H140.603V126.805H141.632V129.228C142.018 128.442 142.59 127.827 143.348 127.384C144.12 126.941 145.028 126.719 146.072 126.719ZM159.107 138.086C158.049 138.086 157.091 137.843 156.234 137.357C155.39 136.87 154.725 136.198 154.239 135.341C153.753 134.468 153.51 133.489 153.51 132.402C153.51 131.316 153.753 130.344 154.239 129.486C154.725 128.614 155.39 127.934 156.234 127.448C157.091 126.962 158.049 126.719 159.107 126.719C160.165 126.719 161.116 126.962 161.96 127.448C162.818 127.934 163.49 128.614 163.976 129.486C164.462 130.344 164.705 131.316 164.705 132.402C164.705 133.489 164.462 134.468 163.976 135.341C163.49 136.198 162.818 136.87 161.96 137.357C161.116 137.843 160.165 138.086 159.107 138.086ZM159.107 137.121C159.965 137.121 160.73 136.921 161.402 136.52C162.089 136.12 162.625 135.562 163.011 134.847C163.411 134.132 163.611 133.317 163.611 132.402C163.611 131.487 163.411 130.672 163.011 129.958C162.625 129.243 162.089 128.685 161.402 128.285C160.73 127.884 159.965 127.684 159.107 127.684C158.25 127.684 157.477 127.884 156.791 128.285C156.119 128.685 155.583 129.243 155.183 129.958C154.797 130.672 154.604 131.487 154.604 132.402C154.604 133.317 154.797 134.132 155.183 134.847C155.583 135.562 156.119 136.12 156.791 136.52C157.477 136.921 158.25 137.121 159.107 137.121ZM183.395 126.805L179.149 138H178.141L174.366 128.285L170.57 138H169.583L165.337 126.805H166.366L170.098 136.799L173.916 126.805H174.838L178.634 136.778L182.409 126.805H183.395ZM185.568 122.087H186.64V138H185.568V122.087ZM200.296 132.66H190.667C190.695 133.532 190.917 134.311 191.331 134.997C191.746 135.669 192.304 136.191 193.004 136.563C193.719 136.935 194.52 137.121 195.406 137.121C196.135 137.121 196.807 136.992 197.422 136.735C198.051 136.463 198.573 136.07 198.988 135.555L199.61 136.263C199.124 136.849 198.509 137.299 197.765 137.614C197.036 137.929 196.243 138.086 195.385 138.086C194.27 138.086 193.276 137.843 192.404 137.357C191.532 136.87 190.845 136.198 190.345 135.341C189.859 134.483 189.616 133.503 189.616 132.402C189.616 131.316 189.844 130.344 190.302 129.486C190.774 128.614 191.417 127.934 192.232 127.448C193.047 126.962 193.962 126.719 194.977 126.719C195.992 126.719 196.9 126.962 197.701 127.448C198.516 127.92 199.152 128.585 199.61 129.443C200.082 130.301 200.318 131.273 200.318 132.36L200.296 132.66ZM194.977 127.663C194.191 127.663 193.483 127.841 192.854 128.199C192.225 128.542 191.717 129.035 191.331 129.679C190.96 130.308 190.745 131.023 190.688 131.823H199.267C199.224 131.023 199.009 130.308 198.623 129.679C198.237 129.05 197.73 128.556 197.101 128.199C196.471 127.841 195.764 127.663 194.977 127.663ZM213.264 122.087V138H212.214V135.362C211.77 136.234 211.148 136.906 210.348 137.378C209.547 137.85 208.639 138.086 207.624 138.086C206.58 138.086 205.637 137.843 204.793 137.357C203.949 136.87 203.285 136.198 202.798 135.341C202.327 134.483 202.091 133.503 202.091 132.402C202.091 131.301 202.327 130.322 202.798 129.464C203.285 128.592 203.949 127.92 204.793 127.448C205.637 126.962 206.58 126.719 207.624 126.719C208.625 126.719 209.518 126.955 210.305 127.427C211.105 127.899 211.735 128.556 212.192 129.4V122.087H213.264ZM207.688 137.121C208.546 137.121 209.311 136.921 209.983 136.52C210.669 136.12 211.206 135.562 211.592 134.847C211.992 134.132 212.192 133.317 212.192 132.402C212.192 131.487 211.992 130.672 211.592 129.958C211.206 129.243 210.669 128.685 209.983 128.285C209.311 127.884 208.546 127.684 207.688 127.684C206.83 127.684 206.058 127.884 205.372 128.285C204.7 128.685 204.164 129.243 203.764 129.958C203.378 130.672 203.185 131.487 203.185 132.402C203.185 133.317 203.378 134.132 203.764 134.847C204.164 135.562 204.7 136.12 205.372 136.52C206.058 136.921 206.83 137.121 207.688 137.121ZM227.544 126.805V136.799C227.544 138.658 227.093 140.03 226.193 140.917C225.292 141.803 223.934 142.246 222.118 142.246C221.088 142.246 220.116 142.089 219.201 141.775C218.286 141.46 217.55 141.024 216.992 140.466L217.571 139.651C218.129 140.166 218.801 140.566 219.587 140.852C220.373 141.138 221.21 141.281 222.096 141.281C223.583 141.281 224.684 140.924 225.399 140.209C226.114 139.508 226.471 138.415 226.471 136.928V135.04C226.014 135.855 225.378 136.484 224.563 136.928C223.748 137.371 222.833 137.593 221.817 137.593C220.774 137.593 219.823 137.364 218.965 136.906C218.121 136.434 217.457 135.784 216.971 134.955C216.484 134.125 216.241 133.189 216.241 132.145C216.241 131.101 216.484 130.165 216.971 129.336C217.457 128.506 218.121 127.863 218.965 127.405C219.823 126.948 220.774 126.719 221.817 126.719C222.847 126.719 223.776 126.948 224.606 127.405C225.435 127.863 226.071 128.506 226.514 129.336V126.805H227.544ZM221.903 136.627C222.775 136.627 223.562 136.442 224.262 136.07C224.963 135.684 225.506 135.155 225.892 134.483C226.293 133.796 226.493 133.017 226.493 132.145C226.493 131.273 226.293 130.501 225.892 129.829C225.506 129.157 224.963 128.635 224.262 128.263C223.562 127.877 222.775 127.684 221.903 127.684C221.031 127.684 220.245 127.877 219.544 128.263C218.858 128.635 218.315 129.157 217.914 129.829C217.528 130.501 217.335 131.273 217.335 132.145C217.335 133.017 217.528 133.796 217.914 134.483C218.315 135.155 218.858 135.684 219.544 136.07C220.245 136.442 221.031 136.627 221.903 136.627ZM241.219 132.66H231.589C231.618 133.532 231.84 134.311 232.254 134.997C232.669 135.669 233.227 136.191 233.927 136.563C234.642 136.935 235.443 137.121 236.329 137.121C237.058 137.121 237.73 136.992 238.345 136.735C238.974 136.463 239.496 136.07 239.911 135.555L240.533 136.263C240.047 136.849 239.432 137.299 238.688 137.614C237.959 137.929 237.166 138.086 236.308 138.086C235.192 138.086 234.199 137.843 233.327 137.357C232.454 136.87 231.768 136.198 231.268 135.341C230.782 134.483 230.539 133.503 230.539 132.402C230.539 131.316 230.767 130.344 231.225 129.486C231.697 128.614 232.34 127.934 233.155 127.448C233.97 126.962 234.885 126.719 235.9 126.719C236.915 126.719 237.823 126.962 238.624 127.448C239.439 127.92 240.075 128.585 240.533 129.443C241.005 130.301 241.24 131.273 241.24 132.36L241.219 132.66ZM235.9 127.663C235.114 127.663 234.406 127.841 233.777 128.199C233.148 128.542 232.64 129.035 232.254 129.679C231.883 130.308 231.668 131.023 231.611 131.823H240.19C240.147 131.023 239.932 130.308 239.546 129.679C239.16 129.05 238.653 128.556 238.023 128.199C237.394 127.841 236.687 127.663 235.9 127.663ZM254.977 137.292C254.706 137.55 254.363 137.75 253.948 137.893C253.548 138.021 253.126 138.086 252.683 138.086C251.71 138.086 250.96 137.821 250.431 137.292C249.902 136.749 249.637 135.998 249.637 135.04V127.727H247.578V126.805H249.637V124.36H250.709V126.805H254.27V127.727H250.709V134.933C250.709 135.662 250.881 136.22 251.224 136.606C251.582 136.978 252.104 137.164 252.79 137.164C253.49 137.164 254.069 136.956 254.527 136.542L254.977 137.292ZM261.623 138.086C260.565 138.086 259.607 137.843 258.749 137.357C257.906 136.87 257.241 136.198 256.755 135.341C256.269 134.468 256.026 133.489 256.026 132.402C256.026 131.316 256.269 130.344 256.755 129.486C257.241 128.614 257.906 127.934 258.749 127.448C259.607 126.962 260.565 126.719 261.623 126.719C262.681 126.719 263.632 126.962 264.476 127.448C265.334 127.934 266.006 128.614 266.492 129.486C266.978 130.344 267.221 131.316 267.221 132.402C267.221 133.489 266.978 134.468 266.492 135.341C266.006 136.198 265.334 136.87 264.476 137.357C263.632 137.843 262.681 138.086 261.623 138.086ZM261.623 137.121C262.481 137.121 263.246 136.921 263.918 136.52C264.604 136.12 265.141 135.562 265.527 134.847C265.927 134.132 266.127 133.317 266.127 132.402C266.127 131.487 265.927 130.672 265.527 129.958C265.141 129.243 264.604 128.685 263.918 128.285C263.246 127.884 262.481 127.684 261.623 127.684C260.765 127.684 259.993 127.884 259.307 128.285C258.635 128.685 258.099 129.243 257.699 129.958C257.313 130.672 257.12 131.487 257.12 132.402C257.12 133.317 257.313 134.132 257.699 134.847C258.099 135.562 258.635 136.12 259.307 136.52C259.993 136.921 260.765 137.121 261.623 137.121ZM281.139 122.987C283.026 122.987 284.506 123.438 285.578 124.338C286.651 125.225 287.187 126.462 287.187 128.049C287.187 129.622 286.651 130.858 285.578 131.759C284.506 132.645 283.026 133.089 281.139 133.089H276.849V138H275.756V122.987H281.139ZM281.139 132.102C282.74 132.102 283.963 131.752 284.806 131.051C285.65 130.351 286.071 129.35 286.071 128.049C286.071 126.748 285.65 125.747 284.806 125.046C283.963 124.331 282.74 123.974 281.139 123.974H276.849V132.102H281.139ZM294.525 138.086C293.467 138.086 292.509 137.843 291.651 137.357C290.807 136.87 290.142 136.198 289.656 135.341C289.17 134.468 288.927 133.489 288.927 132.402C288.927 131.316 289.17 130.344 289.656 129.486C290.142 128.614 290.807 127.934 291.651 127.448C292.509 126.962 293.467 126.719 294.525 126.719C295.583 126.719 296.533 126.962 297.377 127.448C298.235 127.934 298.907 128.614 299.393 129.486C299.879 130.344 300.122 131.316 300.122 132.402C300.122 133.489 299.879 134.468 299.393 135.341C298.907 136.198 298.235 136.87 297.377 137.357C296.533 137.843 295.583 138.086 294.525 138.086ZM294.525 137.121C295.383 137.121 296.147 136.921 296.819 136.52C297.506 136.12 298.042 135.562 298.428 134.847C298.828 134.132 299.028 133.317 299.028 132.402C299.028 131.487 298.828 130.672 298.428 129.958C298.042 129.243 297.506 128.685 296.819 128.285C296.147 127.884 295.383 127.684 294.525 127.684C293.667 127.684 292.895 127.884 292.208 128.285C291.536 128.685 291 129.243 290.6 129.958C290.214 130.672 290.021 131.487 290.021 132.402C290.021 133.317 290.214 134.132 290.6 134.847C291 135.562 291.536 136.12 292.208 136.52C292.895 136.921 293.667 137.121 294.525 137.121ZM318.812 126.805L314.566 138H313.558L309.783 128.285L305.987 138H305.001L300.754 126.805H301.784L305.515 136.799L309.333 126.805H310.255L314.051 136.778L317.826 126.805H318.812ZM330.129 132.66H320.499C320.528 133.532 320.749 134.311 321.164 134.997C321.579 135.669 322.136 136.191 322.837 136.563C323.552 136.935 324.352 137.121 325.239 137.121C325.968 137.121 326.64 136.992 327.255 136.735C327.884 136.463 328.406 136.07 328.821 135.555L329.442 136.263C328.956 136.849 328.342 137.299 327.598 137.614C326.869 137.929 326.075 138.086 325.217 138.086C324.102 138.086 323.109 137.843 322.236 137.357C321.364 136.87 320.678 136.198 320.178 135.341C319.691 134.483 319.448 133.503 319.448 132.402C319.448 131.316 319.677 130.344 320.135 129.486C320.606 128.614 321.25 127.934 322.065 127.448C322.88 126.962 323.795 126.719 324.81 126.719C325.825 126.719 326.733 126.962 327.534 127.448C328.349 127.92 328.985 128.585 329.442 129.443C329.914 130.301 330.15 131.273 330.15 132.36L330.129 132.66ZM324.81 127.663C324.024 127.663 323.316 127.841 322.687 128.199C322.058 128.542 321.55 129.035 321.164 129.679C320.792 130.308 320.578 131.023 320.521 131.823H329.099C329.056 131.023 328.842 130.308 328.456 129.679C328.07 129.05 327.562 128.556 326.933 128.199C326.304 127.841 325.596 127.663 324.81 127.663ZM334.175 129.25C334.518 128.435 335.055 127.813 335.784 127.384C336.513 126.941 337.399 126.719 338.443 126.719V127.77L338.186 127.748C336.942 127.748 335.97 128.142 335.269 128.928C334.569 129.7 334.218 130.78 334.218 132.167V138H333.146V126.805H334.175V129.25Z" fill="#FFA500"/>
</svg>
