<svg width="314" height="149" viewBox="0 0 314 149" fill="none" xmlns="http://www.w3.org/2000/svg">
<ellipse cx="156.822" cy="36.77" rx="17.7821" ry="18.8012" fill="white"/>
<path d="M132.192 62.8023L136.53 45.683L148.383 58.2152L132.192 62.8023Z" fill="white"/>
<path d="M181.444 62.8026L165.252 58.2155L177.105 45.6833L181.444 62.8026Z" fill="white"/>
<path d="M191.286 36.8535L176.769 45.7151V27.9919L191.286 36.8535Z" fill="white"/>
<path d="M181.444 10.7295L177.105 27.8488L165.252 15.3166L181.444 10.7295Z" fill="white"/>
<path d="M122.045 36.8537L136.562 27.9921V45.7153L122.045 36.8537Z" fill="white"/>
<path d="M156.9 74.8718L148.519 57.9009H165.282L156.9 74.8718Z" fill="white"/>
<path d="M156.901 0L165.282 15.3487H148.519L156.901 0Z" fill="white"/>
<path d="M132.193 10.7295L148.384 15.3166L136.531 27.8488L132.193 10.7295Z" fill="white"/>
<path d="M78.8224 111.136C76.6905 111.136 74.6261 110.812 72.6291 110.165C70.6592 109.49 69.1075 108.626 67.9741 107.574L69.4718 104.417C70.5512 105.388 71.9275 106.184 73.6006 106.805C75.3007 107.399 77.0413 107.695 78.8224 107.695C81.1702 107.695 82.9243 107.304 84.0847 106.521C85.245 105.712 85.8252 104.646 85.8252 103.324C85.8252 102.352 85.5014 101.57 84.8538 100.976C84.2331 100.355 83.4505 99.883 82.506 99.5591C81.5885 99.2353 80.2796 98.871 78.5795 98.4662C76.4476 97.9535 74.7205 97.4407 73.3982 96.928C72.1029 96.4153 70.983 95.6327 70.0385 94.5802C69.121 93.5008 68.6622 92.0571 68.6622 90.249C68.6622 88.7378 69.0535 87.375 69.8361 86.1606C70.6457 84.9463 71.86 83.9748 73.4792 83.2462C75.0983 82.5175 77.1088 82.1532 79.5105 82.1532C81.1837 82.1532 82.8298 82.3691 84.449 82.8009C86.0681 83.2327 87.4579 83.8533 88.6183 84.6629L87.2825 87.9012C86.0951 87.1456 84.8268 86.5789 83.4775 86.2011C82.1282 85.7963 80.8059 85.5939 79.5105 85.5939C77.2167 85.5939 75.4896 86.0122 74.3293 86.8488C73.1958 87.6853 72.6291 88.7648 72.6291 90.0871C72.6291 91.0586 72.953 91.8547 73.6006 92.4753C74.2483 93.069 75.0444 93.5413 75.9889 93.8921C76.9604 94.2159 78.2692 94.5667 79.9153 94.9445C82.0472 95.4573 83.7608 95.97 85.0561 96.4827C86.3515 96.9955 87.4579 97.7781 88.3754 98.8305C89.3199 99.883 89.7922 101.3 89.7922 103.081C89.7922 104.565 89.3874 105.928 88.5778 107.169C87.7682 108.384 86.5404 109.355 84.8942 110.084C83.2481 110.785 81.2241 111.136 78.8224 111.136ZM114.529 89.3585V110.812H110.845V107.574C110.062 108.68 109.023 109.544 107.728 110.165C106.46 110.758 105.07 111.055 103.559 111.055C100.698 111.055 98.4449 110.273 96.7988 108.707C95.1527 107.115 94.3296 104.781 94.3296 101.705V89.3585H98.2156V101.259C98.2156 103.337 98.7148 104.916 99.7133 105.995C100.712 107.048 102.142 107.574 104.004 107.574C106.055 107.574 107.674 106.953 108.862 105.712C110.049 104.471 110.643 102.716 110.643 100.45V89.3585H114.529ZM132.775 89.1561C135.5 89.1561 137.659 89.9522 139.251 91.5443C140.87 93.1095 141.68 95.4168 141.68 98.4662V110.812H137.794V98.9115C137.794 96.8336 137.295 95.2684 136.296 94.2159C135.298 93.1635 133.868 92.6373 132.006 92.6373C129.901 92.6373 128.241 93.2579 127.027 94.4993C125.812 95.7136 125.205 97.4677 125.205 99.7615V110.812H121.319V89.3585H125.043V92.5968C125.826 91.4904 126.878 90.6403 128.201 90.0466C129.55 89.4529 131.075 89.1561 132.775 89.1561ZM168.324 98.2233L163.143 103.486V110.812H159.095V82.4771H163.143V98.3043L178.525 82.4771H183.139L171.036 95.2279L183.908 110.812H179.172L168.324 98.2233ZM198.633 82.4771C202.303 82.4771 205.19 83.3541 207.295 85.1082C209.4 86.8623 210.452 89.2775 210.452 92.3539C210.452 95.4303 209.4 97.8455 207.295 99.5996C205.19 101.354 202.303 102.231 198.633 102.231H191.63V110.812H187.582V82.4771H198.633ZM198.511 98.7091C201.075 98.7091 203.031 98.1694 204.381 97.0899C205.73 95.9835 206.404 94.4048 206.404 92.3539C206.404 90.303 205.73 88.7378 204.381 87.6584C203.031 86.5519 201.075 85.9987 198.511 85.9987H191.63V98.7091H198.511ZM228.979 111.136C226.118 111.136 223.541 110.515 221.247 109.274C218.953 108.006 217.145 106.265 215.823 104.052C214.528 101.839 213.88 99.3702 213.88 96.6447C213.88 93.9191 214.528 91.4499 215.823 89.237C217.145 87.0242 218.953 85.2971 221.247 84.0557C223.541 82.7874 226.118 82.1532 228.979 82.1532C231.812 82.1532 234.376 82.7874 236.67 84.0557C238.963 85.2971 240.758 87.0242 242.053 89.237C243.349 91.4229 243.996 93.8921 243.996 96.6447C243.996 99.3972 243.349 101.88 242.053 104.093C240.758 106.279 238.963 108.006 236.67 109.274C234.376 110.515 231.812 111.136 228.979 111.136ZM228.979 107.533C231.057 107.533 232.919 107.061 234.565 106.117C236.238 105.172 237.547 103.877 238.491 102.231C239.463 100.558 239.948 98.6956 239.948 96.6447C239.948 94.5937 239.463 92.7452 238.491 91.0991C237.547 89.4259 236.238 88.1171 234.565 87.1726C232.919 86.2281 231.057 85.7558 228.979 85.7558C226.901 85.7558 225.012 86.2281 223.312 87.1726C221.639 88.1171 220.316 89.4259 219.345 91.0991C218.4 92.7452 217.928 94.5937 217.928 96.6447C217.928 98.6956 218.4 100.558 219.345 102.231C220.316 103.877 221.639 105.172 223.312 106.117C225.012 107.061 226.901 107.533 228.979 107.533Z" fill="white"/>
<path d="M10.7282 136.133C9.33845 136.133 8.0836 135.823 6.96369 135.202C5.85727 134.582 4.98023 133.725 4.33256 132.632C3.6984 131.539 3.38131 130.311 3.38131 128.948C3.38131 127.586 3.6984 126.358 4.33256 125.265C4.98023 124.172 5.85727 123.315 6.96369 122.694C8.0836 122.074 9.33845 121.763 10.7282 121.763C11.7537 121.763 12.6982 121.932 13.5617 122.269C14.4253 122.593 15.1607 123.079 15.7678 123.727L15.1202 124.395C13.9868 123.275 12.5363 122.715 10.7687 122.715C9.58132 122.715 8.50189 122.985 7.53039 123.524C6.5589 124.064 5.79655 124.813 5.24334 125.771C4.69013 126.715 4.41352 127.775 4.41352 128.948C4.41352 130.122 4.69013 131.188 5.24334 132.146C5.79655 133.091 6.5589 133.833 7.53039 134.373C8.50189 134.912 9.58132 135.182 10.7687 135.182C12.5228 135.182 13.9733 134.615 15.1202 133.482L15.7678 134.15C15.1607 134.798 14.4185 135.29 13.5415 135.627C12.678 135.965 11.7402 136.133 10.7282 136.133ZM22.2324 136.113C21.234 136.113 20.3299 135.884 19.5204 135.425C18.7243 134.966 18.0968 134.332 17.6381 133.523C17.1793 132.699 16.9499 131.775 16.9499 130.75C16.9499 129.724 17.1793 128.807 17.6381 127.997C18.0968 127.174 18.7243 126.533 19.5204 126.074C20.3299 125.616 21.234 125.386 22.2324 125.386C23.2309 125.386 24.1282 125.616 24.9243 126.074C25.7339 126.533 26.368 127.174 26.8268 127.997C27.2855 128.807 27.5149 129.724 27.5149 130.75C27.5149 131.775 27.2855 132.699 26.8268 133.523C26.368 134.332 25.7339 134.966 24.9243 135.425C24.1282 135.884 23.2309 136.113 22.2324 136.113ZM22.2324 135.202C23.042 135.202 23.7639 135.014 24.3981 134.636C25.0457 134.258 25.5517 133.732 25.916 133.057C26.2938 132.382 26.4827 131.613 26.4827 130.75C26.4827 129.886 26.2938 129.117 25.916 128.442C25.5517 127.768 25.0457 127.242 24.3981 126.864C23.7639 126.486 23.042 126.297 22.2324 126.297C21.4229 126.297 20.6942 126.486 20.0466 126.864C19.4124 127.242 18.9064 127.768 18.5286 128.442C18.1643 129.117 17.9822 129.886 17.9822 130.75C17.9822 131.613 18.1643 132.382 18.5286 133.057C18.9064 133.732 19.4124 134.258 20.0466 134.636C20.6942 135.014 21.4229 135.202 22.2324 135.202ZM35.5119 125.386C36.8342 125.386 37.8799 125.771 38.649 126.54C39.4181 127.309 39.8026 128.415 39.8026 129.859V136.032H38.7907V129.94C38.7907 128.753 38.4871 127.849 37.8799 127.228C37.2862 126.607 36.4496 126.297 35.3702 126.297C34.1288 126.297 33.1506 126.668 32.4355 127.41C31.7204 128.152 31.3628 129.151 31.3628 130.406V136.032H30.3508V125.467H31.3223V127.754C31.6866 127.012 32.2263 126.432 32.9415 126.014C33.6701 125.595 34.5269 125.386 35.5119 125.386ZM51.948 125.467L47.1715 136.032H46.1393L41.383 125.467H42.4557L46.6655 134.919L50.9158 125.467H51.948ZM62.4861 130.993H53.3986C53.4256 131.816 53.6347 132.551 54.026 133.199C54.4173 133.833 54.9436 134.325 55.6047 134.676C56.2794 135.027 57.035 135.202 57.8715 135.202C58.5597 135.202 59.1938 135.081 59.774 134.838C60.3677 134.582 60.8602 134.211 61.2515 133.725L61.8385 134.393C61.3797 134.946 60.7995 135.371 60.0979 135.668C59.4097 135.965 58.6609 136.113 57.8513 136.113C56.7988 136.113 55.8611 135.884 55.038 135.425C54.2149 134.966 53.5673 134.332 53.095 133.523C52.6363 132.713 52.4069 131.789 52.4069 130.75C52.4069 129.724 52.6228 128.807 53.0545 127.997C53.4998 127.174 54.107 126.533 54.8761 126.074C55.6452 125.616 56.5087 125.386 57.4667 125.386C58.4247 125.386 59.2815 125.616 60.0371 126.074C60.8062 126.52 61.4067 127.147 61.8385 127.957C62.2837 128.766 62.5064 129.684 62.5064 130.709L62.4861 130.993ZM57.4667 126.277C56.7246 126.277 56.0567 126.445 55.463 126.783C54.8693 127.107 54.3903 127.572 54.026 128.179C53.6752 128.773 53.4728 129.448 53.4189 130.203H61.5146C61.4741 129.448 61.2718 128.773 60.9074 128.179C60.5431 127.586 60.0641 127.12 59.4704 126.783C58.8768 126.445 58.2089 126.277 57.4667 126.277ZM70.5754 135.364C70.319 135.607 69.9952 135.796 69.6039 135.931C69.2261 136.052 68.8281 136.113 68.4098 136.113C67.4923 136.113 66.7839 135.864 66.2846 135.364C65.7854 134.852 65.5358 134.143 65.5358 133.239V126.338H63.5928V125.467H65.5358V123.16H66.5478V125.467H69.9075V126.338H66.5478V133.138C66.5478 133.826 66.7097 134.352 67.0335 134.717C67.3708 135.067 67.8633 135.243 68.511 135.243C69.1721 135.243 69.7186 135.047 70.1504 134.656L70.5754 135.364ZM73.0939 125.467H74.1059V136.032H73.0939V125.467ZM73.5999 122.897C73.3706 122.897 73.1749 122.823 73.013 122.674C72.8511 122.512 72.7701 122.317 72.7701 122.087C72.7701 121.858 72.8511 121.662 73.013 121.5C73.1749 121.338 73.3706 121.257 73.5999 121.257C73.8293 121.257 74.025 121.338 74.1869 121.5C74.3488 121.649 74.4298 121.838 74.4298 122.067C74.4298 122.296 74.3488 122.492 74.1869 122.654C74.025 122.816 73.8293 122.897 73.5999 122.897ZM83.2287 125.386C84.551 125.386 85.5967 125.771 86.3658 126.54C87.1349 127.309 87.5194 128.415 87.5194 129.859V136.032H86.5075V129.94C86.5075 128.753 86.2039 127.849 85.5967 127.228C85.003 126.607 84.1664 126.297 83.087 126.297C81.8457 126.297 80.8674 126.668 80.1523 127.41C79.4372 128.152 79.0796 129.151 79.0796 130.406V136.032H78.0676V125.467H79.0391V127.754C79.4034 127.012 79.9431 126.432 80.6583 126.014C81.3869 125.595 82.2437 125.386 83.2287 125.386ZM100.914 125.467V134.899C100.914 136.653 100.489 137.948 99.6394 138.785C98.7893 139.621 97.5075 140.04 95.7939 140.04C94.8224 140.04 93.9049 139.891 93.0413 139.594C92.1778 139.298 91.4829 138.886 90.9567 138.36L91.5031 137.591C92.0294 138.076 92.6635 138.454 93.4056 138.724C94.1477 138.994 94.9371 139.129 95.7736 139.129C97.1769 139.129 98.2159 138.792 98.8905 138.117C99.5652 137.456 99.9025 136.424 99.9025 135.02V133.239C99.4707 134.008 98.8703 134.602 98.1012 135.02C97.3321 135.439 96.4685 135.648 95.5105 135.648C94.5256 135.648 93.6283 135.432 92.8187 135C92.0226 134.555 91.3952 133.941 90.9364 133.158C90.4777 132.376 90.2483 131.492 90.2483 130.507C90.2483 129.522 90.4777 128.638 90.9364 127.855C91.3952 127.073 92.0226 126.466 92.8187 126.034C93.6283 125.602 94.5256 125.386 95.5105 125.386C96.482 125.386 97.3591 125.602 98.1417 126.034C98.9243 126.466 99.5247 127.073 99.943 127.855V125.467H100.914ZM95.5915 134.737C96.4146 134.737 97.1567 134.561 97.8178 134.211C98.479 133.846 98.9917 133.347 99.356 132.713C99.7338 132.065 99.9227 131.33 99.9227 130.507C99.9227 129.684 99.7338 128.955 99.356 128.321C98.9917 127.687 98.479 127.194 97.8178 126.844C97.1567 126.479 96.4146 126.297 95.5915 126.297C94.7684 126.297 94.0263 126.479 93.3652 126.844C92.7175 127.194 92.2048 127.687 91.827 128.321C91.4627 128.955 91.2805 129.684 91.2805 130.507C91.2805 131.33 91.4627 132.065 91.827 132.713C92.2048 133.347 92.7175 133.846 93.3652 134.211C94.0263 134.561 94.7684 134.737 95.5915 134.737ZM114.323 129.05L111.145 132.308V136.032H110.113V121.865H111.145V130.972L119.99 121.865H121.244L115.011 128.301L121.67 136.032H120.415L114.323 129.05ZM128.68 125.386C130.002 125.386 131.048 125.771 131.817 126.54C132.586 127.309 132.97 128.415 132.97 129.859V136.032H131.958V129.94C131.958 128.753 131.655 127.849 131.048 127.228C130.454 126.607 129.617 126.297 128.538 126.297C127.297 126.297 126.318 126.668 125.603 127.41C124.888 128.152 124.531 129.151 124.531 130.406V136.032H123.519V125.467H124.49V127.754C124.854 127.012 125.394 126.432 126.109 126.014C126.838 125.595 127.695 125.386 128.68 125.386ZM140.982 136.113C139.983 136.113 139.079 135.884 138.27 135.425C137.474 134.966 136.846 134.332 136.387 133.523C135.929 132.699 135.699 131.775 135.699 130.75C135.699 129.724 135.929 128.807 136.387 127.997C136.846 127.174 137.474 126.533 138.27 126.074C139.079 125.616 139.983 125.386 140.982 125.386C141.98 125.386 142.877 125.616 143.674 126.074C144.483 126.533 145.117 127.174 145.576 127.997C146.035 128.807 146.264 129.724 146.264 130.75C146.264 131.775 146.035 132.699 145.576 133.523C145.117 134.332 144.483 134.966 143.674 135.425C142.877 135.884 141.98 136.113 140.982 136.113ZM140.982 135.202C141.791 135.202 142.513 135.014 143.147 134.636C143.795 134.258 144.301 133.732 144.665 133.057C145.043 132.382 145.232 131.613 145.232 130.75C145.232 129.886 145.043 129.117 144.665 128.442C144.301 127.768 143.795 127.242 143.147 126.864C142.513 126.486 141.791 126.297 140.982 126.297C140.172 126.297 139.444 126.486 138.796 126.864C138.162 127.242 137.656 127.768 137.278 128.442C136.914 129.117 136.731 129.886 136.731 130.75C136.731 131.613 136.914 132.382 137.278 133.057C137.656 133.732 138.162 134.258 138.796 134.636C139.444 135.014 140.172 135.202 140.982 135.202ZM163.902 125.467L159.895 136.032H158.944L155.381 126.864L151.799 136.032H150.868L146.861 125.467H147.832L151.354 134.899L154.956 125.467H155.827L159.409 134.879L162.971 125.467H163.902ZM165.953 121.015H166.965V136.032H165.953V121.015ZM179.852 130.993H170.764C170.791 131.816 171 132.551 171.392 133.199C171.783 133.833 172.309 134.325 172.97 134.676C173.645 135.027 174.401 135.202 175.237 135.202C175.925 135.202 176.56 135.081 177.14 134.838C177.733 134.582 178.226 134.211 178.617 133.725L179.204 134.393C178.745 134.946 178.165 135.371 177.464 135.668C176.775 135.965 176.027 136.113 175.217 136.113C174.165 136.113 173.227 135.884 172.404 135.425C171.581 134.966 170.933 134.332 170.461 133.523C170.002 132.713 169.773 131.789 169.773 130.75C169.773 129.724 169.989 128.807 170.42 127.997C170.866 127.174 171.473 126.533 172.242 126.074C173.011 125.616 173.874 125.386 174.832 125.386C175.79 125.386 176.647 125.616 177.403 126.074C178.172 126.52 178.772 127.147 179.204 127.957C179.649 128.766 179.872 129.684 179.872 130.709L179.852 130.993ZM174.832 126.277C174.09 126.277 173.422 126.445 172.829 126.783C172.235 127.107 171.756 127.572 171.392 128.179C171.041 128.773 170.839 129.448 170.785 130.203H178.88C178.84 129.448 178.637 128.773 178.273 128.179C177.909 127.586 177.43 127.12 176.836 126.783C176.242 126.445 175.575 126.277 174.832 126.277ZM192.09 121.015V136.032H191.098V133.543C190.68 134.366 190.093 135 189.338 135.445C188.582 135.891 187.725 136.113 186.767 136.113C185.782 136.113 184.892 135.884 184.096 135.425C183.3 134.966 182.672 134.332 182.213 133.523C181.768 132.713 181.545 131.789 181.545 130.75C181.545 129.711 181.768 128.787 182.213 127.977C182.672 127.154 183.3 126.52 184.096 126.074C184.892 125.616 185.782 125.386 186.767 125.386C187.712 125.386 188.555 125.609 189.297 126.054C190.053 126.499 190.646 127.12 191.078 127.916V121.015H192.09ZM186.828 135.202C187.638 135.202 188.359 135.014 188.994 134.636C189.641 134.258 190.147 133.732 190.512 133.057C190.889 132.382 191.078 131.613 191.078 130.75C191.078 129.886 190.889 129.117 190.512 128.442C190.147 127.768 189.641 127.242 188.994 126.864C188.359 126.486 187.638 126.297 186.828 126.297C186.018 126.297 185.29 126.486 184.642 126.864C184.008 127.242 183.502 127.768 183.124 128.442C182.76 129.117 182.578 129.886 182.578 130.75C182.578 131.613 182.76 132.382 183.124 133.057C183.502 133.732 184.008 134.258 184.642 134.636C185.29 135.014 186.018 135.202 186.828 135.202ZM205.566 125.467V134.899C205.566 136.653 205.141 137.948 204.291 138.785C203.441 139.621 202.159 140.04 200.445 140.04C199.474 140.04 198.556 139.891 197.693 139.594C196.829 139.298 196.134 138.886 195.608 138.36L196.154 137.591C196.681 138.076 197.315 138.454 198.057 138.724C198.799 138.994 199.588 139.129 200.425 139.129C201.828 139.129 202.867 138.792 203.542 138.117C204.216 137.456 204.554 136.424 204.554 135.02V133.239C204.122 134.008 203.522 134.602 202.752 135.02C201.983 135.439 201.12 135.648 200.162 135.648C199.177 135.648 198.28 135.432 197.47 135C196.674 134.555 196.046 133.941 195.588 133.158C195.129 132.376 194.9 131.492 194.9 130.507C194.9 129.522 195.129 128.638 195.588 127.855C196.046 127.073 196.674 126.466 197.47 126.034C198.28 125.602 199.177 125.386 200.162 125.386C201.133 125.386 202.01 125.602 202.793 126.034C203.576 126.466 204.176 127.073 204.594 127.855V125.467H205.566ZM200.243 134.737C201.066 134.737 201.808 134.561 202.469 134.211C203.13 133.846 203.643 133.347 204.007 132.713C204.385 132.065 204.574 131.33 204.574 130.507C204.574 129.684 204.385 128.955 204.007 128.321C203.643 127.687 203.13 127.194 202.469 126.844C201.808 126.479 201.066 126.297 200.243 126.297C199.42 126.297 198.678 126.479 198.016 126.844C197.369 127.194 196.856 127.687 196.478 128.321C196.114 128.955 195.932 129.684 195.932 130.507C195.932 131.33 196.114 132.065 196.478 132.713C196.856 133.347 197.369 133.846 198.016 134.211C198.678 134.561 199.42 134.737 200.243 134.737ZM218.471 130.993H209.384C209.411 131.816 209.62 132.551 210.011 133.199C210.402 133.833 210.929 134.325 211.59 134.676C212.264 135.027 213.02 135.202 213.857 135.202C214.545 135.202 215.179 135.081 215.759 134.838C216.353 134.582 216.845 134.211 217.237 133.725L217.824 134.393C217.365 134.946 216.785 135.371 216.083 135.668C215.395 135.965 214.646 136.113 213.836 136.113C212.784 136.113 211.846 135.884 211.023 135.425C210.2 134.966 209.552 134.332 209.08 133.523C208.621 132.713 208.392 131.789 208.392 130.75C208.392 129.724 208.608 128.807 209.04 127.997C209.485 127.174 210.092 126.533 210.861 126.074C211.63 125.616 212.494 125.386 213.452 125.386C214.41 125.386 215.267 125.616 216.022 126.074C216.791 126.52 217.392 127.147 217.824 127.957C218.269 128.766 218.491 129.684 218.491 130.709L218.471 130.993ZM213.452 126.277C212.71 126.277 212.042 126.445 211.448 126.783C210.854 127.107 210.375 127.572 210.011 128.179C209.66 128.773 209.458 129.448 209.404 130.203H217.5C217.459 129.448 217.257 128.773 216.893 128.179C216.528 127.586 216.049 127.12 215.456 126.783C214.862 126.445 214.194 126.277 213.452 126.277ZM231.455 135.364C231.199 135.607 230.875 135.796 230.484 135.931C230.106 136.052 229.708 136.113 229.289 136.113C228.372 136.113 227.664 135.864 227.164 135.364C226.665 134.852 226.415 134.143 226.415 133.239V126.338H224.473V125.467H226.415V123.16H227.427V125.467H230.787V126.338H227.427V133.138C227.427 133.826 227.589 134.352 227.913 134.717C228.251 135.067 228.743 135.243 229.391 135.243C230.052 135.243 230.598 135.047 231.03 134.656L231.455 135.364ZM237.727 136.113C236.728 136.113 235.824 135.884 235.015 135.425C234.219 134.966 233.591 134.332 233.133 133.523C232.674 132.699 232.444 131.775 232.444 130.75C232.444 129.724 232.674 128.807 233.133 127.997C233.591 127.174 234.219 126.533 235.015 126.074C235.824 125.616 236.728 125.386 237.727 125.386C238.725 125.386 239.623 125.616 240.419 126.074C241.228 126.533 241.863 127.174 242.321 127.997C242.78 128.807 243.009 129.724 243.009 130.75C243.009 131.775 242.78 132.699 242.321 133.523C241.863 134.332 241.228 134.966 240.419 135.425C239.623 135.884 238.725 136.113 237.727 136.113ZM237.727 135.202C238.537 135.202 239.258 135.014 239.893 134.636C240.54 134.258 241.046 133.732 241.411 133.057C241.788 132.382 241.977 131.613 241.977 130.75C241.977 129.886 241.788 129.117 241.411 128.442C241.046 127.768 240.54 127.242 239.893 126.864C239.258 126.486 238.537 126.297 237.727 126.297C236.917 126.297 236.189 126.486 235.541 126.864C234.907 127.242 234.401 127.768 234.023 128.442C233.659 129.117 233.477 129.886 233.477 130.75C233.477 131.613 233.659 132.382 234.023 133.057C234.401 133.732 234.907 134.258 235.541 134.636C236.189 135.014 236.917 135.202 237.727 135.202ZM256.144 121.865C257.925 121.865 259.321 122.29 260.333 123.14C261.345 123.976 261.851 125.143 261.851 126.641C261.851 128.125 261.345 129.292 260.333 130.143C259.321 130.979 257.925 131.397 256.144 131.397H252.096V136.032H251.064V121.865H256.144ZM256.144 130.466C257.655 130.466 258.809 130.136 259.605 129.475C260.401 128.813 260.799 127.869 260.799 126.641C260.799 125.413 260.401 124.469 259.605 123.808C258.809 123.133 257.655 122.796 256.144 122.796H252.096V130.466H256.144ZM268.776 136.113C267.778 136.113 266.874 135.884 266.064 135.425C265.268 134.966 264.641 134.332 264.182 133.523C263.723 132.699 263.494 131.775 263.494 130.75C263.494 129.724 263.723 128.807 264.182 127.997C264.641 127.174 265.268 126.533 266.064 126.074C266.874 125.616 267.778 125.386 268.776 125.386C269.775 125.386 270.672 125.616 271.468 126.074C272.278 126.533 272.912 127.174 273.371 127.997C273.829 128.807 274.059 129.724 274.059 130.75C274.059 131.775 273.829 132.699 273.371 133.523C272.912 134.332 272.278 134.966 271.468 135.425C270.672 135.884 269.775 136.113 268.776 136.113ZM268.776 135.202C269.586 135.202 270.308 135.014 270.942 134.636C271.59 134.258 272.096 133.732 272.46 133.057C272.838 132.382 273.027 131.613 273.027 130.75C273.027 129.886 272.838 129.117 272.46 128.442C272.096 127.768 271.59 127.242 270.942 126.864C270.308 126.486 269.586 126.297 268.776 126.297C267.967 126.297 267.238 126.486 266.59 126.864C265.956 127.242 265.45 127.768 265.072 128.442C264.708 129.117 264.526 129.886 264.526 130.75C264.526 131.613 264.708 132.382 265.072 133.057C265.45 133.732 265.956 134.258 266.59 134.636C267.238 135.014 267.967 135.202 268.776 135.202ZM291.697 125.467L287.689 136.032H286.738L283.176 126.864L279.594 136.032H278.663L274.655 125.467H275.627L279.148 134.899L282.751 125.467H283.621L287.204 134.879L290.766 125.467H291.697ZM302.376 130.993H293.289C293.316 131.816 293.525 132.551 293.916 133.199C294.307 133.833 294.834 134.325 295.495 134.676C296.17 135.027 296.925 135.202 297.762 135.202C298.45 135.202 299.084 135.081 299.664 134.838C300.258 134.582 300.75 134.211 301.142 133.725L301.729 134.393C301.27 134.946 300.69 135.371 299.988 135.668C299.3 135.965 298.551 136.113 297.741 136.113C296.689 136.113 295.751 135.884 294.928 135.425C294.105 134.966 293.457 134.332 292.985 133.523C292.526 132.713 292.297 131.789 292.297 130.75C292.297 129.724 292.513 128.807 292.945 127.997C293.39 127.174 293.997 126.533 294.766 126.074C295.535 125.616 296.399 125.386 297.357 125.386C298.315 125.386 299.172 125.616 299.927 126.074C300.696 126.52 301.297 127.147 301.729 127.957C302.174 128.766 302.397 129.684 302.397 130.709L302.376 130.993ZM297.357 126.277C296.615 126.277 295.947 126.445 295.353 126.783C294.759 127.107 294.28 127.572 293.916 128.179C293.565 128.773 293.363 129.448 293.309 130.203H301.405C301.364 129.448 301.162 128.773 300.798 128.179C300.433 127.586 299.954 127.12 299.361 126.783C298.767 126.445 298.099 126.277 297.357 126.277ZM306.195 127.775C306.519 127.005 307.025 126.418 307.713 126.014C308.401 125.595 309.238 125.386 310.223 125.386V126.378L309.98 126.358C308.806 126.358 307.888 126.729 307.227 127.471C306.566 128.2 306.236 129.218 306.236 130.527V136.032H305.224V125.467H306.195V127.775Z" fill="white"/>
</svg>
