<svg width="158" height="72" viewBox="0 0 158 72" fill="none" xmlns="http://www.w3.org/2000/svg">
<circle cx="79.0845" cy="17.5382" r="8.96735" fill="#FFA500"/>
<path d="M66.6642 29.9543L68.8521 21.7891L74.8294 27.7664L66.6642 29.9543Z" fill="#FFA500"/>
<path d="M91.5007 29.9544L83.3355 27.7666L89.3128 21.7893L91.5007 29.9544Z" fill="#FFA500"/>
<path d="M96.4634 17.5777L89.1427 21.8043V13.3511L96.4634 17.5777Z" fill="#FFA500"/>
<path d="M91.5008 5.11751L89.313 13.2827L83.3356 7.30536L91.5008 5.11751Z" fill="#FFA500"/>
<path d="M61.5464 17.578L68.8671 13.3514V21.8046L61.5464 17.578Z" fill="#FFA500"/>
<path d="M79.1244 35.7109L74.8978 27.6165H83.351L79.1244 35.7109Z" fill="#FFA500"/>
<path d="M79.1241 0L83.3507 7.32069H74.8975L79.1241 0Z" fill="#FFA500"/>
<path d="M66.6639 5.11735L74.8291 7.3052L68.8517 13.2825L66.6639 5.11735Z" fill="#FFA500"/>
<path d="M39.7494 53.7341C38.6743 53.7341 37.6332 53.5708 36.6262 53.2442C35.6327 52.904 34.8502 52.4685 34.2787 51.9378L35.0339 50.3455C35.5783 50.8354 36.2723 51.2369 37.1161 51.5499C37.9734 51.8493 38.8512 51.999 39.7494 51.999C40.9333 51.999 41.8179 51.8017 42.4031 51.407C42.9882 50.9988 43.2808 50.4612 43.2808 49.7944C43.2808 49.3045 43.1175 48.9098 42.7909 48.6104C42.4779 48.2974 42.0833 48.0593 41.607 47.896C41.1443 47.7327 40.4842 47.5489 39.6269 47.3448C38.5518 47.0862 37.6808 46.8277 37.014 46.5691C36.3608 46.3105 35.796 45.9159 35.3197 45.3852C34.857 44.8408 34.6257 44.1127 34.6257 43.201C34.6257 42.4389 34.823 41.7516 35.2177 41.1392C35.6259 40.5268 36.2383 40.0369 37.0548 39.6695C37.8714 39.3021 38.8852 39.1183 40.0964 39.1183C40.9401 39.1183 41.7703 39.2272 42.5868 39.4449C43.4033 39.6627 44.1042 39.9757 44.6893 40.3839L44.0157 42.017C43.4169 41.6359 42.7773 41.3502 42.0969 41.1596C41.4164 40.9555 40.7496 40.8534 40.0964 40.8534C38.9397 40.8534 38.0687 41.0644 37.4835 41.4863C36.912 41.9081 36.6262 42.4525 36.6262 43.1193C36.6262 43.6092 36.7895 44.0107 37.1161 44.3237C37.4427 44.6231 37.8441 44.8612 38.3205 45.0381C38.8104 45.2014 39.4704 45.3783 40.3005 45.5689C41.3756 45.8274 42.2398 46.086 42.893 46.3446C43.5462 46.6031 44.1042 46.9978 44.5669 47.5285C45.0432 48.0593 45.2813 48.7737 45.2813 49.6719C45.2813 50.4204 45.0772 51.1076 44.6689 51.7336C44.2607 52.346 43.6415 52.8359 42.8113 53.2034C41.9812 53.5572 40.9605 53.7341 39.7494 53.7341ZM57.7556 42.7519V53.5708H55.898V51.9378C55.5034 52.4957 54.9795 52.9312 54.3262 53.2442C53.6866 53.5436 52.9858 53.6933 52.2237 53.6933C50.7812 53.6933 49.6448 53.2986 48.8147 52.5093C47.9846 51.7064 47.5695 50.5293 47.5695 48.9779V42.7519H49.5292V48.7533C49.5292 49.8012 49.7809 50.5973 50.2844 51.1416C50.788 51.6724 51.5092 51.9378 52.4482 51.9378C53.4825 51.9378 54.299 51.6248 54.8978 50.9988C55.4966 50.3727 55.796 49.4882 55.796 48.345V42.7519H57.7556ZM66.957 42.6498C68.3315 42.6498 69.4202 43.0513 70.2231 43.8542C71.0396 44.6435 71.4479 45.807 71.4479 47.3448V53.5708H69.4882V47.5694C69.4882 46.5215 69.2365 45.7322 68.7329 45.2014C68.2294 44.6707 67.5081 44.4053 66.5691 44.4053C65.5077 44.4053 64.6707 44.7183 64.0583 45.3443C63.4459 45.9567 63.1397 46.8413 63.1397 47.998V53.5708H61.1801V42.7519H63.0581V44.3849C63.4527 43.827 63.9835 43.3983 64.6503 43.0989C65.3307 42.7995 66.0996 42.6498 66.957 42.6498ZM84.8841 47.2223L82.2713 49.876V53.5708H80.23V39.2816H82.2713V47.2632L90.0282 39.2816H92.3553L86.2518 45.7118L92.7432 53.5708H90.3549L84.8841 47.2223ZM100.168 39.2816C102.019 39.2816 103.475 39.7239 104.537 40.6085C105.598 41.4931 106.129 42.711 106.129 44.2624C106.129 45.8138 105.598 47.0318 104.537 47.9164C103.475 48.8009 102.019 49.2432 100.168 49.2432H96.637V53.5708H94.5957V39.2816H100.168ZM100.107 47.4673C101.4 47.4673 102.387 47.1951 103.067 46.6508C103.748 46.0928 104.088 45.2967 104.088 44.2624C104.088 43.2282 103.748 42.4389 103.067 41.8945C102.387 41.3366 101.4 41.0576 100.107 41.0576H96.637V47.4673H100.107ZM115.472 53.7341C114.029 53.7341 112.73 53.4211 111.573 52.7951C110.416 52.1555 109.504 51.2777 108.837 50.1618C108.184 49.0459 107.858 47.8007 107.858 46.4262C107.858 45.0517 108.184 43.8065 108.837 42.6906C109.504 41.5747 110.416 40.7037 111.573 40.0777C112.73 39.4381 114.029 39.1183 115.472 39.1183C116.901 39.1183 118.193 39.4381 119.35 40.0777C120.507 40.7037 121.412 41.5747 122.065 42.6906C122.718 43.7929 123.045 45.0381 123.045 46.4262C123.045 47.8143 122.718 49.0663 122.065 50.1822C121.412 51.2845 120.507 52.1555 119.35 52.7951C118.193 53.4211 116.901 53.7341 115.472 53.7341ZM115.472 51.9173C116.52 51.9173 117.459 51.6792 118.289 51.2029C119.132 50.7266 119.792 50.0734 120.269 49.2432C120.759 48.3995 121.004 47.4605 121.004 46.4262C121.004 45.392 120.759 44.4598 120.269 43.6296C119.792 42.7859 119.132 42.1259 118.289 41.6496C117.459 41.1733 116.52 40.9351 115.472 40.9351C114.424 40.9351 113.471 41.1733 112.614 41.6496C111.77 42.1259 111.103 42.7859 110.613 43.6296C110.137 44.4598 109.899 45.392 109.899 46.4262C109.899 47.4605 110.137 48.3995 110.613 49.2432C111.103 50.0734 111.77 50.7266 112.614 51.2029C113.471 51.6792 114.424 51.9173 115.472 51.9173Z" fill="black"/>
<path d="M5.41013 65.8054C4.70929 65.8054 4.07648 65.6489 3.51172 65.3359C2.95376 65.0229 2.51148 64.5908 2.18487 64.0397C1.86506 63.4885 1.70516 62.8693 1.70516 62.1821C1.70516 61.4949 1.86506 60.8757 2.18487 60.3245C2.51148 59.7734 2.95376 59.3413 3.51172 59.0283C4.07648 58.7153 4.70929 58.5588 5.41013 58.5588C5.92727 58.5588 6.40357 58.6438 6.83905 58.8139C7.27453 58.9772 7.64537 59.2222 7.95156 59.5488L7.62496 59.8856C7.05339 59.3209 6.32192 59.0385 5.43055 59.0385C4.83176 59.0385 4.28741 59.1746 3.7975 59.4467C3.30759 59.7189 2.92314 60.0966 2.64416 60.5797C2.36518 61.056 2.22569 61.5901 2.22569 62.1821C2.22569 62.7741 2.36518 63.3116 2.64416 63.7947C2.92314 64.271 3.30759 64.6453 3.7975 64.9175C4.28741 65.1896 4.83176 65.3257 5.43055 65.3257C6.31512 65.3257 7.04658 65.0399 7.62496 64.4684L7.95156 64.8052C7.64537 65.1318 7.27113 65.3802 6.82884 65.5503C6.39337 65.7204 5.92046 65.8054 5.41013 65.8054ZM11.2116 65.7952C10.7081 65.7952 10.2522 65.6795 9.84392 65.4482C9.44246 65.2168 9.12606 64.897 8.89471 64.4888C8.66336 64.0737 8.54769 63.6076 8.54769 63.0905C8.54769 62.5734 8.66336 62.1107 8.89471 61.7024C9.12606 61.2873 9.44246 60.9641 9.84392 60.7328C10.2522 60.5014 10.7081 60.3858 11.2116 60.3858C11.7151 60.3858 12.1676 60.5014 12.5691 60.7328C12.9773 60.9641 13.2971 61.2873 13.5285 61.7024C13.7598 62.1107 13.8755 62.5734 13.8755 63.0905C13.8755 63.6076 13.7598 64.0737 13.5285 64.4888C13.2971 64.897 12.9773 65.2168 12.5691 65.4482C12.1676 65.6795 11.7151 65.7952 11.2116 65.7952ZM11.2116 65.3359C11.6199 65.3359 11.9839 65.2407 12.3037 65.0501C12.6303 64.8596 12.8855 64.5943 13.0692 64.254C13.2597 63.9138 13.355 63.526 13.355 63.0905C13.355 62.655 13.2597 62.2672 13.0692 61.9269C12.8855 61.5867 12.6303 61.3214 12.3037 61.1308C11.9839 60.9403 11.6199 60.845 11.2116 60.845C10.8033 60.845 10.4359 60.9403 10.1093 61.1308C9.78949 61.3214 9.53432 61.5867 9.3438 61.9269C9.16008 62.2672 9.06822 62.655 9.06822 63.0905C9.06822 63.526 9.16008 63.9138 9.3438 64.254C9.53432 64.5943 9.78949 64.8596 10.1093 65.0501C10.4359 65.2407 10.8033 65.3359 11.2116 65.3359ZM17.9083 60.3858C18.5751 60.3858 19.1025 60.5797 19.4903 60.9675C19.8782 61.3554 20.0721 61.9133 20.0721 62.6414V65.7544H19.5617V62.6822C19.5617 62.0834 19.4087 61.6275 19.1025 61.3145C18.8031 61.0015 18.3812 60.845 17.8368 60.845C17.2108 60.845 16.7175 61.0322 16.3569 61.4064C15.9963 61.7806 15.8159 62.2842 15.8159 62.917V65.7544H15.3056V60.4266H15.7955V61.5799C15.9793 61.2057 16.2514 60.9131 16.6121 60.7022C16.9795 60.4912 17.4116 60.3858 17.9083 60.3858ZM26.1969 60.4266L23.7881 65.7544H23.2676L20.8691 60.4266H21.41L23.533 65.193L25.6763 60.4266H26.1969ZM31.5111 63.213H26.9284C26.942 63.628 27.0475 63.9989 27.2448 64.3255C27.4421 64.6453 27.7075 64.8936 28.0409 65.0706C28.3811 65.2475 28.7622 65.3359 29.184 65.3359C29.5311 65.3359 29.8509 65.2747 30.1435 65.1522C30.4429 65.0229 30.6912 64.8358 30.8885 64.5908L31.1845 64.9277C30.9532 65.2066 30.6606 65.421 30.3068 65.5707C29.9597 65.7204 29.5821 65.7952 29.1738 65.7952C28.6431 65.7952 28.1702 65.6795 27.7551 65.4482C27.3401 65.2168 27.0135 64.897 26.7753 64.4888C26.544 64.0805 26.4283 63.6144 26.4283 63.0905C26.4283 62.5734 26.5372 62.1107 26.7549 61.7024C26.9794 61.2873 27.2856 60.9641 27.6735 60.7328C28.0613 60.5014 28.4968 60.3858 28.9799 60.3858C29.463 60.3858 29.8951 60.5014 30.2761 60.7328C30.664 60.9573 30.9668 61.2737 31.1845 61.682C31.4091 62.0902 31.5213 62.5529 31.5213 63.0701L31.5111 63.213ZM28.9799 60.8348C28.6057 60.8348 28.2689 60.9199 27.9695 61.09C27.6701 61.2533 27.4285 61.4881 27.2448 61.7943C27.0679 62.0936 26.9658 62.4339 26.9386 62.8149H31.0212C31.0008 62.4339 30.8987 62.0936 30.715 61.7943C30.5313 61.4949 30.2898 61.2601 29.9904 61.09C29.691 60.9199 29.3542 60.8348 28.9799 60.8348ZM35.5905 65.4176C35.4612 65.5401 35.2979 65.6353 35.1006 65.7034C34.9101 65.7646 34.7093 65.7952 34.4984 65.7952C34.0357 65.7952 33.6785 65.6693 33.4267 65.4176C33.1749 65.159 33.0491 64.8018 33.0491 64.3459V60.8655H32.0692V60.4266H33.0491V59.263H33.5594V60.4266H35.2537V60.8655H33.5594V64.2949C33.5594 64.6419 33.641 64.9073 33.8043 65.091C33.9745 65.2679 34.2228 65.3563 34.5494 65.3563C34.8828 65.3563 35.1584 65.2577 35.3762 65.0603L35.5905 65.4176ZM36.8606 60.4266H37.3709V65.7544H36.8606V60.4266ZM37.1157 59.1303C37.0001 59.1303 36.9014 59.0929 36.8197 59.0181C36.7381 58.9364 36.6973 58.8378 36.6973 58.7221C36.6973 58.6064 36.7381 58.5077 36.8197 58.4261C36.9014 58.3444 37.0001 58.3036 37.1157 58.3036C37.2314 58.3036 37.3301 58.3444 37.4117 58.4261C37.4934 58.5009 37.5342 58.5962 37.5342 58.7119C37.5342 58.8276 37.4934 58.9262 37.4117 59.0079C37.3301 59.0895 37.2314 59.1303 37.1157 59.1303ZM41.9714 60.3858C42.6382 60.3858 43.1656 60.5797 43.5534 60.9675C43.9413 61.3554 44.1352 61.9133 44.1352 62.6414V65.7544H43.6249V62.6822C43.6249 62.0834 43.4718 61.6275 43.1656 61.3145C42.8662 61.0015 42.4443 60.845 41.9 60.845C41.274 60.845 40.7806 61.0322 40.42 61.4064C40.0594 61.7806 39.8791 62.2842 39.8791 62.917V65.7544H39.3687V60.4266H39.8587V61.5799C40.0424 61.2057 40.3146 60.9131 40.6752 60.7022C41.0426 60.4912 41.4747 60.3858 41.9714 60.3858ZM50.8902 60.4266V65.1828C50.8902 66.0674 50.6758 66.7206 50.2472 67.1425C49.8185 67.5644 49.1721 67.7753 48.3079 67.7753C47.818 67.7753 47.3553 67.7004 46.9198 67.5507C46.4844 67.4011 46.1339 67.1935 45.8686 66.9281L46.1441 66.5403C46.4095 66.7853 46.7293 66.9758 47.1036 67.1119C47.4778 67.248 47.8758 67.316 48.2977 67.316C49.0054 67.316 49.5293 67.1459 49.8695 66.8057C50.2097 66.4723 50.3799 65.9517 50.3799 65.2441V64.3459C50.1621 64.7337 49.8593 65.0331 49.4715 65.2441C49.0836 65.455 48.6481 65.5605 48.165 65.5605C47.6683 65.5605 47.2158 65.4516 46.8076 65.2339C46.4061 65.0093 46.0897 64.6997 45.8584 64.3051C45.627 63.9104 45.5113 63.4647 45.5113 62.968C45.5113 62.4713 45.627 62.0256 45.8584 61.631C46.0897 61.2363 46.4061 60.9301 46.8076 60.7124C47.2158 60.4946 47.6683 60.3858 48.165 60.3858C48.6549 60.3858 49.0972 60.4946 49.4919 60.7124C49.8865 60.9301 50.1893 61.2363 50.4003 61.631V60.4266H50.8902ZM48.2059 65.1012C48.6209 65.1012 48.9952 65.0127 49.3286 64.8358C49.662 64.6521 49.9206 64.4003 50.1043 64.0805C50.2948 63.7539 50.3901 63.3831 50.3901 62.968C50.3901 62.5529 50.2948 62.1855 50.1043 61.8657C49.9206 61.5459 49.662 61.2975 49.3286 61.1206C48.9952 60.9369 48.6209 60.845 48.2059 60.845C47.7908 60.845 47.4166 60.9369 47.0831 61.1206C46.7565 61.2975 46.498 61.5459 46.3074 61.8657C46.1237 62.1855 46.0319 62.5529 46.0319 62.968C46.0319 63.3831 46.1237 63.7539 46.3074 64.0805C46.498 64.4003 46.7565 64.6521 47.0831 64.8358C47.4166 65.0127 47.7908 65.1012 48.2059 65.1012ZM57.6518 62.2331L56.0493 63.8764V65.7544H55.5288V58.6098H56.0493V63.2028L60.5096 58.6098H61.1424L57.9988 61.8555L61.3568 65.7544H60.7239L57.6518 62.2331ZM64.8919 60.3858C65.5587 60.3858 66.086 60.5797 66.4739 60.9675C66.8617 61.3554 67.0557 61.9133 67.0557 62.6414V65.7544H66.5453V62.6822C66.5453 62.0834 66.3922 61.6275 66.086 61.3145C65.7867 61.0015 65.3648 60.845 64.8204 60.845C64.1944 60.845 63.7011 61.0322 63.3405 61.4064C62.9799 61.7806 62.7995 62.2842 62.7995 62.917V65.7544H62.2892V60.4266H62.7791V61.5799C62.9628 61.2057 63.235 60.9131 63.5957 60.7022C63.9631 60.4912 64.3952 60.3858 64.8919 60.3858ZM71.0957 65.7952C70.5922 65.7952 70.1363 65.6795 69.728 65.4482C69.3266 65.2168 69.0102 64.897 68.7788 64.4888C68.5475 64.0737 68.4318 63.6076 68.4318 63.0905C68.4318 62.5734 68.5475 62.1107 68.7788 61.7024C69.0102 61.2873 69.3266 60.9641 69.728 60.7328C70.1363 60.5014 70.5922 60.3858 71.0957 60.3858C71.5992 60.3858 72.0517 60.5014 72.4532 60.7328C72.8614 60.9641 73.1812 61.2873 73.4126 61.7024C73.6439 62.1107 73.7596 62.5734 73.7596 63.0905C73.7596 63.6076 73.6439 64.0737 73.4126 64.4888C73.1812 64.897 72.8614 65.2168 72.4532 65.4482C72.0517 65.6795 71.5992 65.7952 71.0957 65.7952ZM71.0957 65.3359C71.504 65.3359 71.868 65.2407 72.1878 65.0501C72.5144 64.8596 72.7696 64.5943 72.9533 64.254C73.1438 63.9138 73.2391 63.526 73.2391 63.0905C73.2391 62.655 73.1438 62.2672 72.9533 61.9269C72.7696 61.5867 72.5144 61.3214 72.1878 61.1308C71.868 60.9403 71.504 60.845 71.0957 60.845C70.6874 60.845 70.32 60.9403 69.9934 61.1308C69.6736 61.3214 69.4184 61.5867 69.2279 61.9269C69.0442 62.2672 68.9523 62.655 68.9523 63.0905C68.9523 63.526 69.0442 63.9138 69.2279 64.254C69.4184 64.5943 69.6736 64.8596 69.9934 65.0501C70.32 65.2407 70.6874 65.3359 71.0957 65.3359ZM82.6543 60.4266L80.6334 65.7544H80.1537L78.3573 61.1308L76.5508 65.7544H76.0813L74.0604 60.4266H74.5503L76.3262 65.1828L78.143 60.4266H78.5819L80.3885 65.1726L82.1848 60.4266H82.6543ZM83.6883 58.1811H84.1986V65.7544H83.6883V58.1811ZM90.6975 63.213H86.1148C86.1284 63.628 86.2339 63.9989 86.4312 64.3255C86.6285 64.6453 86.8939 64.8936 87.2273 65.0706C87.5675 65.2475 87.9486 65.3359 88.3704 65.3359C88.7175 65.3359 89.0373 65.2747 89.3299 65.1522C89.6293 65.0229 89.8776 64.8358 90.0749 64.5908L90.3709 64.9277C90.1396 65.2066 89.847 65.421 89.4932 65.5707C89.1461 65.7204 88.7685 65.7952 88.3602 65.7952C87.8295 65.7952 87.3566 65.6795 86.9415 65.4482C86.5265 65.2168 86.1999 64.897 85.9617 64.4888C85.7304 64.0805 85.6147 63.6144 85.6147 63.0905C85.6147 62.5734 85.7235 62.1107 85.9413 61.7024C86.1658 61.2873 86.472 60.9641 86.8599 60.7328C87.2477 60.5014 87.6832 60.3858 88.1663 60.3858C88.6494 60.3858 89.0815 60.5014 89.4625 60.7328C89.8504 60.9573 90.1532 61.2737 90.3709 61.682C90.5955 62.0902 90.7077 62.5529 90.7077 63.0701L90.6975 63.213ZM88.1663 60.8348C87.7921 60.8348 87.4553 60.9199 87.1559 61.09C86.8565 61.2533 86.6149 61.4881 86.4312 61.7943C86.2543 62.0936 86.1522 62.4339 86.125 62.8149H90.2076C90.1872 62.4339 90.0851 62.0936 89.9014 61.7943C89.7177 61.4949 89.4762 61.2601 89.1768 61.09C88.8774 60.9199 88.5406 60.8348 88.1663 60.8348ZM96.8692 58.1811V65.7544H96.3691V64.499C96.1582 64.9141 95.8622 65.2339 95.4811 65.4584C95.1001 65.6829 94.668 65.7952 94.1849 65.7952C93.6882 65.7952 93.2391 65.6795 92.8376 65.4482C92.4362 65.2168 92.1198 64.897 91.8884 64.4888C91.6639 64.0805 91.5516 63.6144 91.5516 63.0905C91.5516 62.5666 91.6639 62.1005 91.8884 61.6922C92.1198 61.2771 92.4362 60.9573 92.8376 60.7328C93.2391 60.5014 93.6882 60.3858 94.1849 60.3858C94.6612 60.3858 95.0865 60.498 95.4607 60.7226C95.8418 60.9471 96.1412 61.2601 96.3589 61.6616V58.1811H96.8692ZM94.2155 65.3359C94.6238 65.3359 94.9878 65.2407 95.3076 65.0501C95.6342 64.8596 95.8894 64.5943 96.0731 64.254C96.2636 63.9138 96.3589 63.526 96.3589 63.0905C96.3589 62.655 96.2636 62.2672 96.0731 61.9269C95.8894 61.5867 95.6342 61.3214 95.3076 61.1308C94.9878 60.9403 94.6238 60.845 94.2155 60.845C93.8073 60.845 93.4398 60.9403 93.1132 61.1308C92.7934 61.3214 92.5383 61.5867 92.3477 61.9269C92.164 62.2672 92.0722 62.655 92.0722 63.0905C92.0722 63.526 92.164 63.9138 92.3477 64.254C92.5383 64.5943 92.7934 64.8596 93.1132 65.0501C93.4398 65.2407 93.8073 65.3359 94.2155 65.3359ZM103.665 60.4266V65.1828C103.665 66.0674 103.45 66.7206 103.022 67.1425C102.593 67.5644 101.947 67.7753 101.083 67.7753C100.593 67.7753 100.13 67.7004 99.6945 67.5507C99.259 67.4011 98.9085 67.1935 98.6432 66.9281L98.9188 66.5403C99.1841 66.7853 99.5039 66.9758 99.8782 67.1119C100.252 67.248 100.65 67.316 101.072 67.316C101.78 67.316 102.304 67.1459 102.644 66.8057C102.984 66.4723 103.154 65.9517 103.154 65.2441V64.3459C102.937 64.7337 102.634 65.0331 102.246 65.2441C101.858 65.455 101.423 65.5605 100.94 65.5605C100.443 65.5605 99.9904 65.4516 99.5822 65.2339C99.1807 65.0093 98.8643 64.6997 98.633 64.3051C98.4016 63.9104 98.2859 63.4647 98.2859 62.968C98.2859 62.4713 98.4016 62.0256 98.633 61.631C98.8643 61.2363 99.1807 60.9301 99.5822 60.7124C99.9904 60.4946 100.443 60.3858 100.94 60.3858C101.43 60.3858 101.872 60.4946 102.267 60.7124C102.661 60.9301 102.964 61.2363 103.175 61.631V60.4266H103.665ZM100.98 65.1012C101.396 65.1012 101.77 65.0127 102.103 64.8358C102.437 64.6521 102.695 64.4003 102.879 64.0805C103.069 63.7539 103.165 63.3831 103.165 62.968C103.165 62.5529 103.069 62.1855 102.879 61.8657C102.695 61.5459 102.437 61.2975 102.103 61.1206C101.77 60.9369 101.396 60.845 100.98 60.845C100.565 60.845 100.191 60.9369 99.8578 61.1206C99.5311 61.2975 99.2726 61.5459 99.0821 61.8657C98.8983 62.1855 98.8065 62.5529 98.8065 62.968C98.8065 63.3831 98.8983 63.7539 99.0821 64.0805C99.2726 64.4003 99.5311 64.6521 99.8578 64.8358C100.191 65.0127 100.565 65.1012 100.98 65.1012ZM110.173 63.213H105.59C105.604 63.628 105.709 63.9989 105.907 64.3255C106.104 64.6453 106.369 64.8936 106.703 65.0706C107.043 65.2475 107.424 65.3359 107.846 65.3359C108.193 65.3359 108.513 65.2747 108.805 65.1522C109.105 65.0229 109.353 64.8358 109.55 64.5908L109.846 64.9277C109.615 65.2066 109.322 65.421 108.969 65.5707C108.622 65.7204 108.244 65.7952 107.836 65.7952C107.305 65.7952 106.832 65.6795 106.417 65.4482C106.002 65.2168 105.675 64.897 105.437 64.4888C105.206 64.0805 105.09 63.6144 105.09 63.0905C105.09 62.5734 105.199 62.1107 105.417 61.7024C105.641 61.2873 105.947 60.9641 106.335 60.7328C106.723 60.5014 107.159 60.3858 107.642 60.3858C108.125 60.3858 108.557 60.5014 108.938 60.7328C109.326 60.9573 109.629 61.2737 109.846 61.682C110.071 62.0902 110.183 62.5529 110.183 63.0701L110.173 63.213ZM107.642 60.8348C107.267 60.8348 106.931 60.9199 106.631 61.09C106.332 61.2533 106.09 61.4881 105.907 61.7943C105.73 62.0936 105.628 62.4339 105.6 62.8149H109.683C109.663 62.4339 109.561 62.0936 109.377 61.7943C109.193 61.4949 108.952 61.2601 108.652 61.09C108.353 60.9199 108.016 60.8348 107.642 60.8348ZM116.721 65.4176C116.591 65.5401 116.428 65.6353 116.231 65.7034C116.04 65.7646 115.839 65.7952 115.628 65.7952C115.166 65.7952 114.809 65.6693 114.557 65.4176C114.305 65.159 114.179 64.8018 114.179 64.3459V60.8655H113.199V60.4266H114.179V59.263H114.689V60.4266H116.384V60.8655H114.689V64.2949C114.689 64.6419 114.771 64.9073 114.934 65.091C115.105 65.2679 115.353 65.3563 115.679 65.3563C116.013 65.3563 116.288 65.2577 116.506 65.0603L116.721 65.4176ZM119.883 65.7952C119.38 65.7952 118.924 65.6795 118.516 65.4482C118.114 65.2168 117.798 64.897 117.567 64.4888C117.335 64.0737 117.219 63.6076 117.219 63.0905C117.219 62.5734 117.335 62.1107 117.567 61.7024C117.798 61.2873 118.114 60.9641 118.516 60.7328C118.924 60.5014 119.38 60.3858 119.883 60.3858C120.387 60.3858 120.839 60.5014 121.241 60.7328C121.649 60.9641 121.969 61.2873 122.2 61.7024C122.432 62.1107 122.547 62.5734 122.547 63.0905C122.547 63.6076 122.432 64.0737 122.2 64.4888C121.969 64.897 121.649 65.2168 121.241 65.4482C120.839 65.6795 120.387 65.7952 119.883 65.7952ZM119.883 65.3359C120.292 65.3359 120.656 65.2407 120.975 65.0501C121.302 64.8596 121.557 64.5943 121.741 64.254C121.932 63.9138 122.027 63.526 122.027 63.0905C122.027 62.655 121.932 62.2672 121.741 61.9269C121.557 61.5867 121.302 61.3214 120.975 61.1308C120.656 60.9403 120.292 60.845 119.883 60.845C119.475 60.845 119.108 60.9403 118.781 61.1308C118.461 61.3214 118.206 61.5867 118.016 61.9269C117.832 62.2672 117.74 62.655 117.74 63.0905C117.74 63.526 117.832 63.9138 118.016 64.254C118.206 64.5943 118.461 64.8596 118.781 65.0501C119.108 65.2407 119.475 65.3359 119.883 65.3359ZM129.171 58.6098C130.069 58.6098 130.773 58.8242 131.284 59.2528C131.794 59.6747 132.049 60.2633 132.049 61.0186C132.049 61.767 131.794 62.3556 131.284 62.7843C130.773 63.2062 130.069 63.4171 129.171 63.4171H127.13V65.7544H126.609V58.6098H129.171ZM129.171 62.9476C129.933 62.9476 130.515 62.7809 130.916 62.4475C131.318 62.1141 131.518 61.6378 131.518 61.0186C131.518 60.3994 131.318 59.9231 130.916 59.5896C130.515 59.2494 129.933 59.0793 129.171 59.0793H127.13V62.9476H129.171ZM135.541 65.7952C135.038 65.7952 134.582 65.6795 134.174 65.4482C133.772 65.2168 133.456 64.897 133.224 64.4888C132.993 64.0737 132.877 63.6076 132.877 63.0905C132.877 62.5734 132.993 62.1107 133.224 61.7024C133.456 61.2873 133.772 60.9641 134.174 60.7328C134.582 60.5014 135.038 60.3858 135.541 60.3858C136.045 60.3858 136.497 60.5014 136.899 60.7328C137.307 60.9641 137.627 61.2873 137.858 61.7024C138.09 62.1107 138.205 62.5734 138.205 63.0905C138.205 63.6076 138.09 64.0737 137.858 64.4888C137.627 64.897 137.307 65.2168 136.899 65.4482C136.497 65.6795 136.045 65.7952 135.541 65.7952ZM135.541 65.3359C135.95 65.3359 136.314 65.2407 136.633 65.0501C136.96 64.8596 137.215 64.5943 137.399 64.254C137.589 63.9138 137.685 63.526 137.685 63.0905C137.685 62.655 137.589 62.2672 137.399 61.9269C137.215 61.5867 136.96 61.3214 136.633 61.1308C136.314 60.9403 135.95 60.845 135.541 60.845C135.133 60.845 134.766 60.9403 134.439 61.1308C134.119 61.3214 133.864 61.5867 133.673 61.9269C133.49 62.2672 133.398 62.655 133.398 63.0905C133.398 63.526 133.49 63.9138 133.673 64.254C133.864 64.5943 134.119 64.8596 134.439 65.0501C134.766 65.2407 135.133 65.3359 135.541 65.3359ZM147.1 60.4266L145.079 65.7544H144.599L142.803 61.1308L140.996 65.7544H140.527L138.506 60.4266H138.996L140.772 65.1828L142.589 60.4266H143.027L144.834 65.1726L146.63 60.4266H147.1ZM152.485 63.213H147.903C147.916 63.628 148.022 63.9989 148.219 64.3255C148.416 64.6453 148.682 64.8936 149.015 65.0706C149.355 65.2475 149.736 65.3359 150.158 65.3359C150.505 65.3359 150.825 65.2747 151.118 65.1522C151.417 65.0229 151.665 64.8358 151.863 64.5908L152.159 64.9277C151.927 65.2066 151.635 65.421 151.281 65.5707C150.934 65.7204 150.556 65.7952 150.148 65.7952C149.617 65.7952 149.144 65.6795 148.729 65.4482C148.314 65.2168 147.988 64.897 147.75 64.4888C147.518 64.0805 147.403 63.6144 147.403 63.0905C147.403 62.5734 147.511 62.1107 147.729 61.7024C147.954 61.2873 148.26 60.9641 148.648 60.7328C149.036 60.5014 149.471 60.3858 149.954 60.3858C150.437 60.3858 150.869 60.5014 151.25 60.7328C151.638 60.9573 151.941 61.2737 152.159 61.682C152.383 62.0902 152.496 62.5529 152.496 63.0701L152.485 63.213ZM149.954 60.8348C149.58 60.8348 149.243 60.9199 148.944 61.09C148.644 61.2533 148.403 61.4881 148.219 61.7943C148.042 62.0936 147.94 62.4339 147.913 62.8149H151.996C151.975 62.4339 151.873 62.0936 151.689 61.7943C151.506 61.4949 151.264 61.2601 150.965 61.09C150.665 60.9199 150.328 60.8348 149.954 60.8348ZM154.411 61.5901C154.574 61.2023 154.83 60.9063 155.177 60.7022C155.524 60.4912 155.946 60.3858 156.442 60.3858V60.8859L156.32 60.8757C155.728 60.8757 155.265 61.0628 154.932 61.437C154.598 61.8045 154.432 62.3182 154.432 62.9782V65.7544H153.921V60.4266H154.411V61.5901Z" fill="black"/>
</svg>
