<svg width="200" height="89" viewBox="0 0 200 89" fill="none" xmlns="http://www.w3.org/2000/svg">
<circle cx="98.9415" cy="21.9413" r="11.2189" fill="#FFA500"/>
<path d="M83.4025 37.4752L86.1397 27.2599L93.6178 34.738L83.4025 37.4752Z" fill="#FFA500"/>
<path d="M114.475 37.4752L104.26 34.738L111.738 27.2599L114.475 37.4752Z" fill="#FFA500"/>
<path d="M120.684 21.9911L111.526 27.2789V16.7032L120.684 21.9911Z" fill="#FFA500"/>
<path d="M114.475 6.40243L111.738 16.6177L104.26 9.13961L114.475 6.40243Z" fill="#FFA500"/>
<path d="M77.0001 21.9911L86.1589 16.7032V27.2789L77.0001 21.9911Z" fill="#FFA500"/>
<path d="M98.9911 44.677L93.7032 34.5502H104.279L98.9911 44.677Z" fill="#FFA500"/>
<path d="M98.9911 0L104.279 9.15879H93.7033L98.9911 0Z" fill="#FFA500"/>
<path d="M83.4025 6.40241L93.6178 9.1396L86.1397 16.6177L83.4025 6.40241Z" fill="#FFA500"/>
<path d="M49.7299 67.2043C48.3849 67.2043 47.0824 67 45.8225 66.5914C44.5797 66.1657 43.6007 65.6209 42.8856 64.9569L43.8305 62.9649C44.5116 63.5778 45.3799 64.0801 46.4355 64.4717C47.5081 64.8463 48.6062 65.0335 49.7299 65.0335C51.2111 65.0335 52.3178 64.7867 53.0499 64.2929C53.782 63.7822 54.1481 63.1096 54.1481 62.2754C54.1481 61.6625 53.9438 61.1687 53.5351 60.7942C53.1436 60.4026 52.6498 60.1046 52.0539 59.9003C51.475 59.696 50.6493 59.4662 49.5767 59.2108C48.2317 58.8873 47.142 58.5638 46.3078 58.2403C45.4905 57.9168 44.784 57.4231 44.1881 56.7591C43.6092 56.0781 43.3198 55.1672 43.3198 54.0265C43.3198 53.073 43.5666 52.2132 44.0604 51.4471C44.5711 50.6809 45.3373 50.068 46.3588 49.6083C47.3804 49.1486 48.6488 48.9188 50.1641 48.9188C51.2197 48.9188 52.2582 49.055 53.2798 49.3274C54.3013 49.5998 55.1781 49.9914 55.9102 50.5022L55.0675 52.5452C54.3183 52.0685 53.5181 51.711 52.6668 51.4726C51.8156 51.2172 50.9813 51.0895 50.1641 51.0895C48.7169 51.0895 47.6272 51.3534 46.8951 51.8812C46.1801 52.409 45.8225 53.0901 45.8225 53.9243C45.8225 54.5372 46.0268 55.0395 46.4355 55.4311C46.8441 55.8056 47.3463 56.1036 47.9422 56.3249C48.5551 56.5292 49.3809 56.7506 50.4195 56.9889C51.7645 57.3124 52.8456 57.6359 53.6628 57.9594C54.4801 58.2829 55.1781 58.7766 55.757 59.4406C56.3529 60.1046 56.6508 60.9985 56.6508 62.1222C56.6508 63.0586 56.3955 63.9184 55.8847 64.7015C55.3739 65.4677 54.5993 66.0806 53.5607 66.5403C52.5221 66.983 51.2452 67.2043 49.7299 67.2043ZM72.2572 53.4646V67H69.9332V64.9569C69.4395 65.655 68.784 66.1998 67.9668 66.5914C67.1666 66.9659 66.2897 67.1532 65.3363 67.1532C63.5316 67.1532 62.11 66.6595 61.0714 65.672C60.0328 64.6675 59.5135 63.1948 59.5135 61.2538V53.4646H61.9652V60.9729C61.9652 62.2839 62.2802 63.2799 62.9102 63.9609C63.5401 64.6249 64.4425 64.9569 65.6172 64.9569C66.9112 64.9569 67.9327 64.5653 68.6819 63.7822C69.431 62.999 69.8055 61.8923 69.8055 60.4622V53.4646H72.2572ZM83.7689 53.3369C85.4885 53.3369 86.8505 53.8392 87.855 54.8437C88.8766 55.8312 89.3874 57.2869 89.3874 59.2108V67H86.9357V59.4917C86.9357 58.1807 86.6207 57.1932 85.9907 56.5292C85.3608 55.8652 84.4584 55.5332 83.2837 55.5332C81.9557 55.5332 80.9086 55.9248 80.1424 56.708C79.3763 57.4742 78.9932 58.5808 78.9932 60.028V67H76.5415V53.4646H78.891V55.5077C79.3848 54.8096 80.0488 54.2733 80.883 53.8988C81.7343 53.5242 82.6963 53.3369 83.7689 53.3369ZM106.197 59.0575L102.928 62.3775V67H100.374V49.1231H102.928V59.1086L112.633 49.1231H115.544L107.908 57.1677L116.03 67H113.042L106.197 59.0575ZM125.319 49.1231C127.635 49.1231 129.456 49.6764 130.784 50.7831C132.112 51.8897 132.776 53.4135 132.776 55.3545C132.776 57.2954 132.112 58.8192 130.784 59.9258C129.456 61.0325 127.635 61.5858 125.319 61.5858H120.901V67H118.347V49.1231H125.319ZM125.243 59.364C126.86 59.364 128.094 59.0235 128.946 58.3425C129.797 57.6444 130.223 56.6484 130.223 55.3545C130.223 54.0605 129.797 53.073 128.946 52.392C128.094 51.6939 126.86 51.3449 125.243 51.3449H120.901V59.364H125.243ZM144.465 67.2043C142.66 67.2043 141.034 66.8127 139.587 66.0295C138.14 65.2293 136.999 64.1312 136.165 62.7351C135.348 61.339 134.939 59.7811 134.939 58.0615C134.939 56.3419 135.348 54.7841 136.165 53.388C136.999 51.9919 138.14 50.9023 139.587 50.1191C141.034 49.3189 142.66 48.9188 144.465 48.9188C146.253 48.9188 147.87 49.3189 149.317 50.1191C150.764 50.9023 151.897 51.9919 152.714 53.388C153.531 54.7671 153.94 56.3249 153.94 58.0615C153.94 59.7982 153.531 61.3645 152.714 62.7606C151.897 64.1397 150.764 65.2293 149.317 66.0295C147.87 66.8127 146.253 67.2043 144.465 67.2043ZM144.465 64.9314C145.776 64.9314 146.951 64.6334 147.989 64.0375C149.045 63.4416 149.87 62.6244 150.466 61.5858C151.079 60.5303 151.386 59.3555 151.386 58.0615C151.386 56.7676 151.079 55.6013 150.466 54.5628C149.87 53.5072 149.045 52.6814 147.989 52.0855C146.951 51.4896 145.776 51.1917 144.465 51.1917C143.154 51.1917 141.962 51.4896 140.889 52.0855C139.834 52.6814 139 53.5072 138.387 54.5628C137.791 55.6013 137.493 56.7676 137.493 58.0615C137.493 59.3555 137.791 60.5303 138.387 61.5858C139 62.6244 139.834 63.4416 140.889 64.0375C141.962 64.6334 143.154 64.9314 144.465 64.9314Z" fill="black"/>
<path d="M5.42255 82.0638C4.54572 82.0638 3.75403 81.8681 3.04747 81.4765C2.34942 81.0849 1.79608 80.5443 1.38747 79.8548C0.987366 79.1652 0.787314 78.3906 0.787314 77.5308C0.787314 76.671 0.987366 75.8963 1.38747 75.2068C1.79608 74.5172 2.34942 73.9767 3.04747 73.5851C3.75403 73.1935 4.54572 72.9977 5.42255 72.9977C6.06952 72.9977 6.66542 73.1041 7.21024 73.3169C7.75506 73.5212 8.21901 73.8277 8.60208 74.2363L8.19347 74.6577C7.47839 73.9511 6.56326 73.5978 5.44808 73.5978C4.69896 73.5978 4.01793 73.7681 3.40501 74.1086C2.79208 74.4491 2.31111 74.9216 1.96208 75.526C1.61306 76.1219 1.43855 76.7902 1.43855 77.5308C1.43855 78.2714 1.61306 78.9439 1.96208 79.5483C2.31111 80.1442 2.79208 80.6124 3.40501 80.9529C4.01793 81.2934 4.69896 81.4637 5.44808 81.4637C6.55475 81.4637 7.46988 81.1062 8.19347 80.3911L8.60208 80.8125C8.21901 81.2211 7.7508 81.5318 7.19747 81.7446C6.65265 81.9574 6.06101 82.0638 5.42255 82.0638ZM12.6807 82.0511C12.0507 82.0511 11.4803 81.9064 10.9696 81.6169C10.4673 81.3275 10.0715 80.9274 9.78204 80.4166C9.4926 79.8973 9.34789 79.3142 9.34789 78.6672C9.34789 78.0203 9.4926 77.4414 9.78204 76.9306C10.0715 76.4113 10.4673 76.007 10.9696 75.7175C11.4803 75.4281 12.0507 75.2834 12.6807 75.2834C13.3106 75.2834 13.8767 75.4281 14.379 75.7175C14.8897 76.007 15.2898 76.4113 15.5793 76.9306C15.8687 77.4414 16.0134 78.0203 16.0134 78.6672C16.0134 79.3142 15.8687 79.8973 15.5793 80.4166C15.2898 80.9274 14.8897 81.3275 14.379 81.6169C13.8767 81.9064 13.3106 82.0511 12.6807 82.0511ZM12.6807 81.4765C13.1914 81.4765 13.6469 81.3573 14.047 81.1189C14.4556 80.8806 14.7748 80.5486 15.0047 80.1229C15.243 79.6973 15.3622 79.2121 15.3622 78.6672C15.3622 78.1224 15.243 77.6372 15.0047 77.2115C14.7748 76.7859 14.4556 76.4539 14.047 76.2155C13.6469 75.9772 13.1914 75.858 12.6807 75.858C12.1699 75.858 11.7102 75.9772 11.3016 76.2155C10.9015 76.4539 10.5822 76.7859 10.3439 77.2115C10.114 77.6372 9.99912 78.1224 9.99912 78.6672C9.99912 79.2121 10.114 79.6973 10.3439 80.1229C10.5822 80.5486 10.9015 80.8806 11.3016 81.1189C11.7102 81.3573 12.1699 81.4765 12.6807 81.4765ZM21.0588 75.2834C21.893 75.2834 22.5528 75.526 23.038 76.0112C23.5232 76.4965 23.7658 77.1945 23.7658 78.1054V82H23.1274V78.1565C23.1274 77.4073 22.9358 76.837 22.5528 76.4454C22.1782 76.0538 21.6504 75.858 20.9694 75.858C20.1862 75.858 19.569 76.0921 19.1178 76.5603C18.6667 77.0285 18.4411 77.6585 18.4411 78.4502V82H17.8026V75.3345H18.4155V76.7774C18.6454 76.3092 18.9859 75.9431 19.4371 75.6792C19.8968 75.4153 20.4373 75.2834 21.0588 75.2834ZM31.4285 75.3345L28.4149 82H27.7637L24.7629 75.3345H25.4397L28.0957 81.2977L30.7773 75.3345H31.4285ZM38.0771 78.8205H32.3437C32.3607 79.3397 32.4926 79.8037 32.7395 80.2123C32.9864 80.6124 33.3184 80.9231 33.7355 81.1445C34.1612 81.3658 34.6379 81.4765 35.1657 81.4765C35.5998 81.4765 35.9999 81.3998 36.366 81.2466C36.7405 81.0849 37.0513 80.8508 37.2981 80.5443L37.6684 80.9657C37.379 81.3147 37.013 81.5829 36.5703 81.7702C36.1361 81.9574 35.6637 82.0511 35.1529 82.0511C34.4889 82.0511 33.8973 81.9064 33.378 81.6169C32.8587 81.3275 32.4501 80.9274 32.1521 80.4166C31.8627 79.9058 31.718 79.3227 31.718 78.6672C31.718 78.0203 31.8542 77.4414 32.1266 76.9306C32.4075 76.4113 32.7906 76.007 33.2758 75.7175C33.7611 75.4281 34.3059 75.2834 34.9103 75.2834C35.5147 75.2834 36.0553 75.4281 36.532 75.7175C37.0172 75.9985 37.396 76.3943 37.6684 76.9051C37.9494 77.4158 38.0898 77.9947 38.0898 78.6417L38.0771 78.8205ZM34.9103 75.8452C34.4421 75.8452 34.0207 75.9516 33.6461 76.1645C33.2716 76.3688 32.9694 76.6625 32.7395 77.0455C32.5182 77.4201 32.3905 77.8457 32.3564 78.3225H37.4641C37.4386 77.8457 37.3109 77.4201 37.0811 77.0455C36.8512 76.671 36.549 76.3773 36.1744 76.1645C35.7999 75.9516 35.3785 75.8452 34.9103 75.8452ZM40.4864 76.7902C40.6907 76.3049 41.0099 75.9346 41.444 75.6792C41.8782 75.4153 42.406 75.2834 43.0274 75.2834V75.9091L42.8742 75.8963C42.1336 75.8963 41.5547 76.1304 41.1376 76.5986C40.7205 77.0583 40.5119 77.701 40.5119 78.5268V82H39.8734V75.3345H40.4864V76.7902ZM48.2016 81.5786C48.0398 81.7318 47.8355 81.851 47.5886 81.9362C47.3503 82.0128 47.0992 82.0511 46.8353 82.0511C46.2564 82.0511 45.8095 81.8936 45.4945 81.5786C45.1795 81.2551 45.022 80.8082 45.022 80.2378V75.8835H43.7962V75.3345H45.022V73.8788H45.6605V75.3345H47.7802V75.8835H45.6605V80.174C45.6605 80.6082 45.7626 80.9402 45.9669 81.17C46.1798 81.3913 46.4905 81.502 46.8991 81.502C47.3162 81.502 47.661 81.3786 47.9334 81.1317L48.2016 81.5786ZM49.7905 75.3345H50.429V82H49.7905V75.3345ZM50.1098 73.7128C49.965 73.7128 49.8416 73.6659 49.7395 73.5723C49.6373 73.4702 49.5862 73.3467 49.5862 73.202C49.5862 73.0573 49.6373 72.9338 49.7395 72.8317C49.8416 72.7295 49.965 72.6785 50.1098 72.6785C50.2545 72.6785 50.3779 72.7295 50.4801 72.8317C50.5822 72.9253 50.6333 73.0445 50.6333 73.1892C50.6333 73.3339 50.5822 73.4574 50.4801 73.5595C50.3779 73.6617 50.2545 73.7128 50.1098 73.7128ZM56.1846 75.2834C57.0189 75.2834 57.6786 75.526 58.1639 76.0112C58.6491 76.4965 58.8917 77.1945 58.8917 78.1054V82H58.2532V78.1565C58.2532 77.4073 58.0617 76.837 57.6786 76.4454C57.3041 76.0538 56.7763 75.858 56.0952 75.858C55.3121 75.858 54.6949 76.0921 54.2437 76.5603C53.7925 77.0285 53.5669 77.6585 53.5669 78.4502V82H52.9285V75.3345H53.5414V76.7774C53.7712 76.3092 54.1118 75.9431 54.5629 75.6792C55.0226 75.4153 55.5632 75.2834 56.1846 75.2834ZM67.3427 75.3345V81.2849C67.3427 82.3916 67.0746 83.2088 66.5383 83.7366C66.002 84.2644 65.1933 84.5283 64.1121 84.5283C63.4992 84.5283 62.9203 84.4347 62.3755 84.2474C61.8307 84.0601 61.3923 83.8005 61.0603 83.4685L61.405 82.9832C61.737 83.2897 62.1372 83.5281 62.6054 83.6983C63.0736 83.8686 63.5716 83.9537 64.0994 83.9537C64.9847 83.9537 65.6402 83.7409 66.0658 83.3152C66.4915 82.8981 66.7043 82.2469 66.7043 81.3615V80.2378C66.4319 80.7231 66.053 81.0976 65.5678 81.3615C65.0826 81.6254 64.5378 81.7574 63.9334 81.7574C63.3119 81.7574 62.7458 81.6212 62.235 81.3488C61.7328 81.0678 61.3369 80.6805 61.0475 80.1868C60.7581 79.693 60.6134 79.1354 60.6134 78.514C60.6134 77.8926 60.7581 77.335 61.0475 76.8412C61.3369 76.3475 61.7328 75.9644 62.235 75.692C62.7458 75.4196 63.3119 75.2834 63.9334 75.2834C64.5463 75.2834 65.0996 75.4196 65.5934 75.692C66.0871 75.9644 66.4659 76.3475 66.7298 76.8412V75.3345H67.3427ZM63.9844 81.1828C64.5037 81.1828 64.9719 81.0721 65.389 80.8508C65.8062 80.6209 66.1297 80.3059 66.3595 79.9058C66.5979 79.4972 66.717 79.0333 66.717 78.514C66.717 77.9947 66.5979 77.535 66.3595 77.1349C66.1297 76.7348 65.8062 76.4241 65.389 76.2028C64.9719 75.9729 64.5037 75.858 63.9844 75.858C63.4652 75.858 62.9969 75.9729 62.5798 76.2028C62.1712 76.4241 61.8477 76.7348 61.6094 77.1349C61.3795 77.535 61.2646 77.9947 61.2646 78.514C61.2646 79.0333 61.3795 79.4972 61.6094 79.9058C61.8477 80.3059 62.1712 80.6209 62.5798 80.8508C62.9969 81.0721 63.4652 81.1828 63.9844 81.1828ZM75.8021 77.5946L73.7973 79.6505V82H73.1461V73.0615H73.7973V78.8077L79.3774 73.0615H80.1691L76.2362 77.1222L80.4373 82H79.6456L75.8021 77.5946ZM84.86 75.2834C85.6943 75.2834 86.354 75.526 86.8393 76.0112C87.3245 76.4965 87.5671 77.1945 87.5671 78.1054V82H86.9286V78.1565C86.9286 77.4073 86.7371 76.837 86.354 76.4454C85.9795 76.0538 85.4517 75.858 84.7706 75.858C83.9875 75.858 83.3703 76.0921 82.9191 76.5603C82.4679 77.0285 82.2423 77.6585 82.2423 78.4502V82H81.6039V75.3345H82.2168V76.7774C82.4466 76.3092 82.7872 75.9431 83.2383 75.6792C83.698 75.4153 84.2386 75.2834 84.86 75.2834ZM92.6215 82.0511C91.9916 82.0511 91.4212 81.9064 90.9104 81.6169C90.4082 81.3275 90.0123 80.9274 89.7229 80.4166C89.4335 79.8973 89.2888 79.3142 89.2888 78.6672C89.2888 78.0203 89.4335 77.4414 89.7229 76.9306C90.0123 76.4113 90.4082 76.007 90.9104 75.7175C91.4212 75.4281 91.9916 75.2834 92.6215 75.2834C93.2515 75.2834 93.8176 75.4281 94.3198 75.7175C94.8306 76.007 95.2307 76.4113 95.5201 76.9306C95.8096 77.4414 95.9543 78.0203 95.9543 78.6672C95.9543 79.3142 95.8096 79.8973 95.5201 80.4166C95.2307 80.9274 94.8306 81.3275 94.3198 81.6169C93.8176 81.9064 93.2515 82.0511 92.6215 82.0511ZM92.6215 81.4765C93.1323 81.4765 93.5877 81.3573 93.9878 81.1189C94.3964 80.8806 94.7157 80.5486 94.9455 80.1229C95.1839 79.6973 95.3031 79.2121 95.3031 78.6672C95.3031 78.1224 95.1839 77.6372 94.9455 77.2115C94.7157 76.7859 94.3964 76.4539 93.9878 76.2155C93.5877 75.9772 93.1323 75.858 92.6215 75.858C92.1108 75.858 91.6511 75.9772 91.2424 76.2155C90.8423 76.4539 90.5231 76.7859 90.2848 77.2115C90.0549 77.6372 89.94 78.1224 89.94 78.6672C89.94 79.2121 90.0549 79.6973 90.2848 80.1229C90.5231 80.5486 90.8423 80.8806 91.2424 81.1189C91.6511 81.3573 92.1108 81.4765 92.6215 81.4765ZM107.082 75.3345L104.554 82H103.954L101.706 76.2155L99.4463 82H98.8589L96.3306 75.3345H96.9435L99.1654 81.2849L101.438 75.3345H101.987L104.248 81.2722L106.495 75.3345H107.082ZM108.376 72.5252H109.014V82H108.376V72.5252ZM117.145 78.8205H111.412C111.429 79.3397 111.561 79.8037 111.807 80.2123C112.054 80.6124 112.386 80.9231 112.803 81.1445C113.229 81.3658 113.706 81.4765 114.234 81.4765C114.668 81.4765 115.068 81.3998 115.434 81.2466C115.809 81.0849 116.119 80.8508 116.366 80.5443L116.736 80.9657C116.447 81.3147 116.081 81.5829 115.638 81.7702C115.204 81.9574 114.732 82.0511 114.221 82.0511C113.557 82.0511 112.965 81.9064 112.446 81.6169C111.927 81.3275 111.518 80.9274 111.22 80.4166C110.931 79.9058 110.786 79.3227 110.786 78.6672C110.786 78.0203 110.922 77.4414 111.195 76.9306C111.475 76.4113 111.859 76.007 112.344 75.7175C112.829 75.4281 113.374 75.2834 113.978 75.2834C114.583 75.2834 115.123 75.4281 115.6 75.7175C116.085 75.9985 116.464 76.3943 116.736 76.9051C117.017 77.4158 117.158 77.9947 117.158 78.6417L117.145 78.8205ZM113.978 75.8452C113.51 75.8452 113.089 75.9516 112.714 76.1645C112.34 76.3688 112.037 76.6625 111.807 77.0455C111.586 77.4201 111.458 77.8457 111.424 78.3225H116.532C116.507 77.8457 116.379 77.4201 116.149 77.0455C115.919 76.671 115.617 76.3773 115.242 76.1645C114.868 75.9516 114.446 75.8452 113.978 75.8452ZM124.866 72.5252V82H124.241V80.4294C123.977 80.9487 123.606 81.3488 123.13 81.6297C122.653 81.9106 122.112 82.0511 121.508 82.0511C120.887 82.0511 120.325 81.9064 119.822 81.6169C119.32 81.3275 118.924 80.9274 118.635 80.4166C118.354 79.9058 118.214 79.3227 118.214 78.6672C118.214 78.0117 118.354 77.4286 118.635 76.9178C118.924 76.3986 119.32 75.9985 119.822 75.7175C120.325 75.4281 120.887 75.2834 121.508 75.2834C122.104 75.2834 122.636 75.4238 123.104 75.7048C123.581 75.9857 123.955 76.3773 124.228 76.8795V72.5252H124.866ZM121.546 81.4765C122.057 81.4765 122.513 81.3573 122.913 81.1189C123.321 80.8806 123.64 80.5486 123.87 80.1229C124.109 79.6973 124.228 79.2121 124.228 78.6672C124.228 78.1224 124.109 77.6372 123.87 77.2115C123.64 76.7859 123.321 76.4539 122.913 76.2155C122.513 75.9772 122.057 75.858 121.546 75.858C121.036 75.858 120.576 75.9772 120.167 76.2155C119.767 76.4539 119.448 76.7859 119.21 77.2115C118.98 77.6372 118.865 78.1224 118.865 78.6672C118.865 79.2121 118.98 79.6973 119.21 80.1229C119.448 80.5486 119.767 80.8806 120.167 81.1189C120.576 81.3573 121.036 81.4765 121.546 81.4765ZM133.368 75.3345V81.2849C133.368 82.3916 133.1 83.2088 132.564 83.7366C132.027 84.2644 131.219 84.5283 130.138 84.5283C129.525 84.5283 128.946 84.4347 128.401 84.2474C127.856 84.0601 127.418 83.8005 127.086 83.4685L127.43 82.9832C127.762 83.2897 128.163 83.5281 128.631 83.6983C129.099 83.8686 129.597 83.9537 130.125 83.9537C131.01 83.9537 131.666 83.7409 132.091 83.3152C132.517 82.8981 132.73 82.2469 132.73 81.3615V80.2378C132.457 80.7231 132.078 81.0976 131.593 81.3615C131.108 81.6254 130.563 81.7574 129.959 81.7574C129.337 81.7574 128.771 81.6212 128.26 81.3488C127.758 81.0678 127.362 80.6805 127.073 80.1868C126.783 79.693 126.639 79.1354 126.639 78.514C126.639 77.8926 126.783 77.335 127.073 76.8412C127.362 76.3475 127.758 75.9644 128.26 75.692C128.771 75.4196 129.337 75.2834 129.959 75.2834C130.572 75.2834 131.125 75.4196 131.619 75.692C132.112 75.9644 132.491 76.3475 132.755 76.8412V75.3345H133.368ZM130.01 81.1828C130.529 81.1828 130.997 81.0721 131.414 80.8508C131.832 80.6209 132.155 80.3059 132.385 79.9058C132.623 79.4972 132.742 79.0333 132.742 78.514C132.742 77.9947 132.623 77.535 132.385 77.1349C132.155 76.7348 131.832 76.4241 131.414 76.2028C130.997 75.9729 130.529 75.858 130.01 75.858C129.491 75.858 129.022 75.9729 128.605 76.2028C128.197 76.4241 127.873 76.7348 127.635 77.1349C127.405 77.535 127.29 77.9947 127.29 78.514C127.29 79.0333 127.405 79.4972 127.635 79.9058C127.873 80.3059 128.197 80.6209 128.605 80.8508C129.022 81.0721 129.491 81.1828 130.01 81.1828ZM141.51 78.8205H135.777C135.794 79.3397 135.926 79.8037 136.173 80.2123C136.42 80.6124 136.752 80.9231 137.169 81.1445C137.594 81.3658 138.071 81.4765 138.599 81.4765C139.033 81.4765 139.433 81.3998 139.799 81.2466C140.174 81.0849 140.485 80.8508 140.731 80.5443L141.102 80.9657C140.812 81.3147 140.446 81.5829 140.004 81.7702C139.569 81.9574 139.097 82.0511 138.586 82.0511C137.922 82.0511 137.331 81.9064 136.811 81.6169C136.292 81.3275 135.883 80.9274 135.585 80.4166C135.296 79.9058 135.151 79.3227 135.151 78.6672C135.151 78.0203 135.287 77.4414 135.56 76.9306C135.841 76.4113 136.224 76.007 136.709 75.7175C137.194 75.4281 137.739 75.2834 138.344 75.2834C138.948 75.2834 139.489 75.4281 139.965 75.7175C140.45 75.9985 140.829 76.3943 141.102 76.9051C141.383 77.4158 141.523 77.9947 141.523 78.6417L141.51 78.8205ZM138.344 75.8452C137.875 75.8452 137.454 75.9516 137.079 76.1645C136.705 76.3688 136.403 76.6625 136.173 77.0455C135.951 77.4201 135.824 77.8457 135.79 78.3225H140.897C140.872 77.8457 140.744 77.4201 140.514 77.0455C140.284 76.671 139.982 76.3773 139.608 76.1645C139.233 75.9516 138.812 75.8452 138.344 75.8452ZM149.702 81.5786C149.54 81.7318 149.336 81.851 149.089 81.9362C148.851 82.0128 148.6 82.0511 148.336 82.0511C147.757 82.0511 147.31 81.8936 146.995 81.5786C146.68 81.2551 146.522 80.8082 146.522 80.2378V75.8835H145.297V75.3345H146.522V73.8788H147.161V75.3345H149.281V75.8835H147.161V80.174C147.161 80.6082 147.263 80.9402 147.467 81.17C147.68 81.3913 147.991 81.502 148.4 81.502C148.817 81.502 149.161 81.3786 149.434 81.1317L149.702 81.5786ZM153.659 82.0511C153.029 82.0511 152.459 81.9064 151.948 81.6169C151.446 81.3275 151.05 80.9274 150.76 80.4166C150.471 79.8973 150.326 79.3142 150.326 78.6672C150.326 78.0203 150.471 77.4414 150.76 76.9306C151.05 76.4113 151.446 76.007 151.948 75.7175C152.459 75.4281 153.029 75.2834 153.659 75.2834C154.289 75.2834 154.855 75.4281 155.357 75.7175C155.868 76.007 156.268 76.4113 156.558 76.9306C156.847 77.4414 156.992 78.0203 156.992 78.6672C156.992 79.3142 156.847 79.8973 156.558 80.4166C156.268 80.9274 155.868 81.3275 155.357 81.6169C154.855 81.9064 154.289 82.0511 153.659 82.0511ZM153.659 81.4765C154.17 81.4765 154.625 81.3573 155.025 81.1189C155.434 80.8806 155.753 80.5486 155.983 80.1229C156.221 79.6973 156.34 79.2121 156.34 78.6672C156.34 78.1224 156.221 77.6372 155.983 77.2115C155.753 76.7859 155.434 76.4539 155.025 76.2155C154.625 75.9772 154.17 75.858 153.659 75.858C153.148 75.858 152.688 75.9772 152.28 76.2155C151.88 76.4539 151.561 76.7859 151.322 77.2115C151.092 77.6372 150.977 78.1224 150.977 78.6672C150.977 79.2121 151.092 79.6973 151.322 80.1229C151.561 80.5486 151.88 80.8806 152.28 81.1189C152.688 81.3573 153.148 81.4765 153.659 81.4765ZM165.278 73.0615C166.402 73.0615 167.283 73.3297 167.922 73.866C168.56 74.3938 168.879 75.1302 168.879 76.0751C168.879 77.0115 168.56 77.7478 167.922 78.2842C167.283 78.8119 166.402 79.0758 165.278 79.0758H162.725V82H162.073V73.0615H165.278ZM165.278 78.4885C166.232 78.4885 166.96 78.2799 167.462 77.8628C167.964 77.4456 168.215 76.8497 168.215 76.0751C168.215 75.3004 167.964 74.7045 167.462 74.2874C166.96 73.8617 166.232 73.6489 165.278 73.6489H162.725V78.4885H165.278ZM173.248 82.0511C172.618 82.0511 172.048 81.9064 171.537 81.6169C171.035 81.3275 170.639 80.9274 170.35 80.4166C170.06 79.8973 169.915 79.3142 169.915 78.6672C169.915 78.0203 170.06 77.4414 170.35 76.9306C170.639 76.4113 171.035 76.007 171.537 75.7175C172.048 75.4281 172.618 75.2834 173.248 75.2834C173.878 75.2834 174.444 75.4281 174.947 75.7175C175.457 76.007 175.857 76.4113 176.147 76.9306C176.436 77.4414 176.581 78.0203 176.581 78.6672C176.581 79.3142 176.436 79.8973 176.147 80.4166C175.857 80.9274 175.457 81.3275 174.947 81.6169C174.444 81.9064 173.878 82.0511 173.248 82.0511ZM173.248 81.4765C173.759 81.4765 174.214 81.3573 174.615 81.1189C175.023 80.8806 175.342 80.5486 175.572 80.1229C175.811 79.6973 175.93 79.2121 175.93 78.6672C175.93 78.1224 175.811 77.6372 175.572 77.2115C175.342 76.7859 175.023 76.4539 174.615 76.2155C174.214 75.9772 173.759 75.858 173.248 75.858C172.737 75.858 172.278 75.9772 171.869 76.2155C171.469 76.4539 171.15 76.7859 170.911 77.2115C170.682 77.6372 170.567 78.1224 170.567 78.6672C170.567 79.2121 170.682 79.6973 170.911 80.1229C171.15 80.5486 171.469 80.8806 171.869 81.1189C172.278 81.3573 172.737 81.4765 173.248 81.4765ZM187.709 75.3345L185.181 82H184.581L182.333 76.2155L180.073 82H179.486L176.957 75.3345H177.57L179.792 81.2849L182.065 75.3345H182.614L184.874 81.2722L187.122 75.3345H187.709ZM194.447 78.8205H188.713C188.73 79.3397 188.862 79.8037 189.109 80.2123C189.356 80.6124 189.688 80.9231 190.105 81.1445C190.531 81.3658 191.008 81.4765 191.535 81.4765C191.97 81.4765 192.37 81.3998 192.736 81.2466C193.11 81.0849 193.421 80.8508 193.668 80.5443L194.038 80.9657C193.749 81.3147 193.383 81.5829 192.94 81.7702C192.506 81.9574 192.033 82.0511 191.523 82.0511C190.859 82.0511 190.267 81.9064 189.748 81.6169C189.228 81.3275 188.82 80.9274 188.522 80.4166C188.232 79.9058 188.088 79.3227 188.088 78.6672C188.088 78.0203 188.224 77.4414 188.496 76.9306C188.777 76.4113 189.16 76.007 189.646 75.7175C190.131 75.4281 190.676 75.2834 191.28 75.2834C191.884 75.2834 192.425 75.4281 192.902 75.7175C193.387 75.9985 193.766 76.3943 194.038 76.9051C194.319 77.4158 194.46 77.9947 194.46 78.6417L194.447 78.8205ZM191.28 75.8452C190.812 75.8452 190.39 75.9516 190.016 76.1645C189.641 76.3688 189.339 76.6625 189.109 77.0455C188.888 77.4201 188.76 77.8457 188.726 78.3225H193.834C193.808 77.8457 193.681 77.4201 193.451 77.0455C193.221 76.671 192.919 76.3773 192.544 76.1645C192.17 75.9516 191.748 75.8452 191.28 75.8452ZM196.856 76.7902C197.06 76.3049 197.38 75.9346 197.814 75.6792C198.248 75.4153 198.776 75.2834 199.397 75.2834V75.9091L199.244 75.8963C198.503 75.8963 197.924 76.1304 197.507 76.5986C197.09 77.0583 196.882 77.701 196.882 78.5268V82H196.243V75.3345H196.856V76.7902Z" fill="black"/>
</svg>
