<svg width="152" height="152" viewBox="0 0 152 152" fill="none" xmlns="http://www.w3.org/2000/svg">
<path d="M76 152C76 152 133 97.983 133 57C133 41.8827 126.995 27.3845 116.305 16.6949C105.616 6.00534 91.1173 0 76 0C60.8827 0 46.3845 6.00534 35.6949 16.6949C25.0053 27.3845 19 41.8827 19 57C19 97.983 76 152 76 152ZM76 85.5C68.4413 85.5 61.1922 82.4973 55.8475 77.1525C50.5027 71.8078 47.5 64.5587 47.5 57C47.5 49.4413 50.5027 42.1922 55.8475 36.8475C61.1922 31.5027 68.4413 28.5 76 28.5C83.5587 28.5 90.8078 31.5027 96.1525 36.8475C101.497 42.1922 104.5 49.4413 104.5 57C104.5 64.5587 101.497 71.8078 96.1525 77.1525C90.8078 82.4973 83.5587 85.5 76 85.5Z" fill="#FFA500"/>
</svg>
