<svg width="150" height="100" viewBox="0 0 150 100" fill="none" xmlns="http://www.w3.org/2000/svg">
<path d="M147.158 33.0208C148.301 32.2135 150 32.9688 150 34.2448V87.5C150 94.401 143.701 100 135.938 100H14.0625C6.29883 100 0 94.401 0 87.5V34.2708C0 32.9688 1.66992 32.2396 2.8418 33.0469C9.4043 37.5781 18.1055 43.3333 47.9883 62.6302C54.1699 66.6406 64.5996 75.0781 75 75.026C85.459 75.1042 96.0938 66.4844 102.041 62.6302C131.924 43.3333 140.596 37.5521 147.158 33.0208ZM75 66.6667C81.7969 66.7708 91.582 59.0625 96.5039 55.8854C135.381 30.8073 138.34 28.6198 147.305 22.3698C149.004 21.1979 150 19.375 150 17.4479V12.5C150 5.59896 143.701 0 135.938 0H14.0625C6.29883 0 0 5.59896 0 12.5V17.4479C0 19.375 0.996094 21.1719 2.69531 22.3698C11.6602 28.5937 14.6191 30.8073 53.4961 55.8854C58.418 59.0625 68.2031 66.7708 75 66.6667Z" fill="white"/>
</svg>
