<svg width="67" height="62" viewBox="0 0 67 62" fill="none" xmlns="http://www.w3.org/2000/svg">
<path d="M15.202 61.8438H1.47637V20.5609H15.202V61.8438ZM8.33181 14.9295C3.94279 14.9295 0.382812 11.5341 0.382812 7.4348C0.382813 5.46575 1.22029 3.57735 2.71102 2.18503C4.20175 0.792699 6.22361 0.010498 8.33181 0.010498C10.44 0.010498 12.4619 0.792699 13.9526 2.18503C15.4433 3.57735 16.2808 5.46575 16.2808 7.4348C16.2808 11.5341 12.7194 14.9295 8.33181 14.9295ZM66.5727 61.8438H52.8766V41.7475C52.8766 36.9581 52.7732 30.816 45.7404 30.816C38.6042 30.816 37.5106 36.0195 37.5106 41.4025V61.8438H23.7998V20.5609H36.9639V26.1922H37.156C38.9884 22.9487 43.4646 19.5257 50.1427 19.5257C64.0339 19.5257 66.5875 28.0694 66.5875 39.1665V61.8438H66.5727Z" fill="white"/>
</svg>
