<svg width="150" height="150" viewBox="0 0 150 150" fill="none" xmlns="http://www.w3.org/2000/svg">
<path d="M145.722 105.995L112.909 91.9326C111.507 91.3352 109.95 91.2093 108.47 91.5739C106.991 91.9385 105.67 92.7738 104.706 93.9541L90.1744 111.708C67.3686 100.956 49.0151 82.6021 38.2624 59.7963L56.0166 45.2647C57.1993 44.3029 58.0363 42.9818 58.4011 41.5016C58.7659 40.0215 58.6384 38.4628 58.0381 37.0615L43.9754 4.2484C43.3165 2.73785 42.1512 1.50453 40.6804 0.761123C39.2097 0.0177107 37.5256 -0.189204 35.9186 0.176058L5.44931 7.20743C3.89998 7.56521 2.51766 8.43757 1.52796 9.68214C0.538267 10.9267 -0.000356904 12.47 1.77431e-07 14.0601C1.77431e-07 89.2079 60.9093 150 135.94 150C137.53 150.001 139.074 149.463 140.32 148.473C141.565 147.483 142.438 146.101 142.795 144.551L149.827 114.081C150.19 112.467 149.978 110.776 149.229 109.3C148.48 107.824 147.24 106.656 145.722 105.995Z" fill="white"/>
</svg>
