<svg width="67" height="59" viewBox="0 0 67 59" fill="none" xmlns="http://www.w3.org/2000/svg">
<path d="M59.6005 14.6397C59.6425 15.2813 59.6425 15.923 59.6425 16.5645C59.6425 36.1325 45.99 58.6795 21.0372 58.6795C13.3497 58.6795 6.20834 56.2505 0.201172 52.0346C1.29342 52.172 2.34351 52.2179 3.47779 52.2179C9.8209 52.2179 15.6601 49.8808 20.323 45.8938C14.3579 45.7563 9.35889 41.4944 7.63653 35.6285C8.47676 35.7659 9.31686 35.8576 10.1991 35.8576C11.4173 35.8576 12.6356 35.6742 13.7698 35.3536C7.55261 33.9787 2.88957 28.0212 2.88957 20.8264V20.6432C4.69585 21.743 6.79643 22.4304 9.02269 22.5219C5.36798 19.8639 2.97362 15.3271 2.97362 10.1945C2.97362 7.4449 3.64563 4.92442 4.82192 2.72472C11.5012 11.7068 21.5412 17.5725 32.7992 18.2142C32.5892 17.1144 32.4632 15.9688 32.4632 14.8231C32.4632 6.66582 38.5124 0.0209961 46.0318 0.0209961C49.9385 0.0209961 53.4671 1.80824 55.9457 4.69534C59.0122 4.05379 61.9527 2.81641 64.5573 1.12085C63.549 4.55795 61.4066 7.44505 58.5922 9.27799C61.3227 8.95736 63.9692 8.1323 66.4056 6.98674C64.5576 9.91954 62.247 12.5316 59.6005 14.6397V14.6397Z" fill="white"/>
</svg>
