<svg width="67" height="62" viewBox="0 0 67 62" fill="none" xmlns="http://www.w3.org/2000/svg">
<path d="M57.0798 8.99586C50.8879 3.19885 42.6418 0.010498 33.8786 0.010498C15.7905 0.010498 1.07179 13.7577 1.07179 30.6518C1.07179 36.0486 2.57913 41.3211 5.44603 45.9725L0.791016 61.8453L18.1845 57.5803C22.9725 60.0233 28.3665 61.307 33.8638 61.307H33.8786C51.9519 61.307 66.9957 47.5598 66.9957 30.6656C66.9957 22.4808 63.2717 14.7929 57.0798 8.99586V8.99586ZM33.8786 56.1449C28.9723 56.1449 24.1696 54.9164 19.9874 52.5976L18.9973 52.0455L8.68238 54.5714L11.4311 45.172L10.7808 44.2058C8.04693 40.1479 6.61348 35.4689 6.61348 30.6518C6.61348 16.6148 18.8495 5.1864 33.8934 5.1864C41.1788 5.1864 48.021 7.83646 53.1637 12.6535C58.3064 17.4705 61.4688 23.861 61.454 30.6656C61.454 44.7165 48.9076 56.1449 33.8786 56.1449V56.1449ZM48.8338 37.0699C48.021 36.6835 43.9866 34.834 43.233 34.5855C42.4793 34.3233 41.9325 34.199 41.3857 34.972C40.839 35.7449 39.2725 37.4564 38.7848 37.9809C38.3119 38.4916 37.8243 38.5606 37.0115 38.1741C32.1939 35.9243 29.0315 34.1576 25.8542 29.0646C25.0119 27.7119 26.6966 27.8085 28.263 24.8824C28.529 24.3717 28.396 23.9301 28.1891 23.5436C27.9822 23.1571 26.3419 19.3891 25.6621 17.857C24.9971 16.3663 24.3173 16.5734 23.8149 16.5458C23.342 16.5182 22.7952 16.5182 22.2484 16.5182C21.7017 16.5182 20.815 16.7114 20.0613 17.4705C19.3076 18.2435 17.1944 20.093 17.1944 23.861C17.1944 27.6291 20.1352 31.2729 20.5342 31.7836C20.948 32.2943 26.3123 40.0237 34.5436 43.35C39.7454 45.448 41.7847 45.6274 44.3856 45.2686C45.9669 45.0477 49.2328 43.419 49.9125 41.6247C50.5923 39.8304 50.5923 38.2984 50.3854 37.9809C50.1933 37.6358 49.6465 37.4426 48.8338 37.0699Z" fill="white"/>
</svg>
