<svg width="75" height="75" viewBox="0 0 75 75" fill="none" xmlns="http://www.w3.org/2000/svg">
<path fill-rule="evenodd" clip-rule="evenodd" d="M37.0886 25.4162L28.1913 23.025V34.5192L37.0886 36.9103V25.4162ZM26.3695 29.9104C26.5798 29.9104 26.804 29.7731 26.8724 29.595C27.06 29.2201 26.7763 28.7857 26.3695 28.7857H25.2446C25.0344 28.7857 24.8103 28.9231 24.7419 29.1012C24.5543 29.4762 24.838 29.9104 25.2446 29.9104H26.3695ZM30.8636 29.9104C31.074 29.9104 31.2981 29.7731 31.367 29.595C31.554 29.2201 31.2709 28.7857 30.8636 28.7857H29.7388C29.5265 28.7857 29.3049 28.9231 29.234 29.1012C29.0488 29.4762 29.3321 29.9104 29.7388 29.9104H30.8636ZM35.3557 29.9104C35.5686 29.9104 35.7902 29.7731 35.8611 29.595C36.0483 29.2201 35.763 28.7857 35.3557 28.7857H34.2335C34.0207 28.7857 33.7992 28.9231 33.7281 29.1012C33.5405 29.4762 33.8263 29.9104 34.2335 29.9104H35.3557ZM44.342 29.9104C44.5568 29.9104 44.7763 29.7731 44.8494 29.595C45.037 29.2201 44.749 28.7857 44.342 28.7857H43.2197C43.0069 28.7857 42.7873 28.9231 42.7144 29.1012C42.5267 29.4762 42.8125 29.9104 43.2197 29.9104H44.342ZM53.3308 29.9104C53.5431 29.9104 53.7651 29.7731 53.8355 29.595C54.0212 29.2201 53.7373 28.7857 53.3308 28.7857H52.2058C51.9955 28.7857 51.7715 28.9231 51.7031 29.1012C51.5154 29.4762 51.7986 29.9104 52.2058 29.9104H53.3308ZM20.7505 28.7857C20.5401 28.7857 20.3181 28.9231 20.2476 29.1012C20.06 29.4762 20.3458 29.9104 20.7505 29.9104H21.8754C22.0876 29.9104 22.3097 29.7731 22.3801 29.595C22.5678 29.2201 22.282 28.7857 21.8754 28.7857H20.7505ZM26.3695 33.1291C26.5798 33.1291 26.804 32.9918 26.8724 32.8137C27.06 32.4388 26.7763 32.0045 26.3695 32.0045H25.2446C25.0344 32.0045 24.8103 32.1418 24.7419 32.3199C24.5543 32.695 24.838 33.1291 25.2446 33.1291H26.3695ZM30.8636 33.1291C31.074 33.1291 31.2981 32.9918 31.367 32.8137C31.554 32.4388 31.2709 32.0045 30.8636 32.0045H29.7388C29.5265 32.0045 29.3049 32.1418 29.234 32.3199C29.0488 32.695 29.3321 33.1291 29.7388 33.1291H30.8636ZM35.3557 33.1291C35.5686 33.1291 35.7902 32.9918 35.8611 32.8137C36.0483 32.4388 35.763 32.0045 35.3557 32.0045H34.2335C34.0207 32.0045 33.7992 32.1418 33.7281 32.3199C33.5405 32.695 33.8263 33.1291 34.2335 33.1291H35.3557ZM44.342 33.1291C44.5568 33.1291 44.7763 32.9918 44.8494 32.8137C45.037 32.4388 44.749 32.0045 44.342 32.0045H43.2197C43.0069 32.0045 42.7873 32.1418 42.7144 32.3199C42.5267 32.695 42.8125 33.1291 43.2197 33.1291H44.342ZM53.3308 33.1291C53.5431 33.1291 53.7651 32.9918 53.8355 32.8137C54.0212 32.4388 53.7373 32.0045 53.3308 32.0045H52.2058C51.9955 32.0045 51.7715 32.1418 51.7031 32.3199C51.5154 32.695 51.7986 33.1291 52.2058 33.1291H53.3308ZM20.7505 32.0044C20.5401 32.0044 20.3181 32.1416 20.2476 32.3197C20.06 32.6949 20.3458 33.1289 20.7505 33.1289H21.8754C22.0876 33.1289 22.3097 32.9917 22.3801 32.8135C22.5678 32.4387 22.282 32.0044 21.8754 32.0044H20.7505ZM39.1435 16.3682L35.7285 17.2825V21.8545L39.1435 20.9356V16.3682ZM34.6037 21.8545V17.2825L31.1887 16.3682V20.9356L34.6037 21.8545ZM38.2129 32.7954H38.2109L38.2129 37.6418V32.7954ZM38.211 32.3382H38.213L38.211 29.5767V32.3382ZM38.2129 29.1195L38.2202 29.1012C38.2932 28.9229 38.5126 28.7857 38.7276 28.7857H39.8499C40.2569 28.7857 40.5427 29.2203 40.3551 29.595C40.2821 29.7733 40.0627 29.9104 39.8499 29.9104H38.7276C38.4942 29.9104 38.3025 29.7687 38.2129 29.5767V32.3382L38.2202 32.3199C38.2932 32.1416 38.5126 32.0045 38.7276 32.0045H39.8499C40.2569 32.0045 40.5427 32.439 40.3551 32.8137C40.2821 32.992 40.0627 33.1291 39.8499 33.1291H38.7276C38.4942 33.1291 38.3025 32.9874 38.2129 32.7954V36.9103L47.1102 34.5192V23.025L38.2129 25.4162V29.1195ZM45.508 22.2933L40.2682 20.8853V21.3653C40.2682 21.6167 40.1011 21.8407 39.8499 21.9094L35.3398 23.121H35.3352H35.3305L35.3213 23.1255L35.3099 23.1299H35.3078H35.2986L35.2941 23.1346H35.2894H35.2801H35.2781L35.2668 23.139H35.2576H35.253L35.2438 23.1437H35.2393H35.2346H35.2233H35.212L35.2094 23.1482H35.2006H35.1959H35.1887H35.1799H35.1773H35.166H35.1547H35.1521H35.1433H35.1386H35.1339H35.1247L35.12 23.1437H35.1108H35.1088H35.0976H35.095H35.0884L35.0812 23.139H35.0771H35.0652L35.0565 23.1346H35.0538H35.0446H35.0399L35.0333 23.1299H35.0266H35.0239L35.0127 23.1255L35.0014 23.121H34.9987H34.9922L30.8522 22.01L29.7917 22.2933L37.795 24.4422L37.651 24.4011L45.508 22.2933ZM35.3125 13.8718L39.816 15.0834H39.8181L39.8339 15.0879C39.9162 15.1062 39.9939 15.1474 40.058 15.1978L40.0627 15.2023H40.0648L40.0719 15.2114L40.0807 15.2161L40.1245 15.2619L40.1311 15.2663L40.1358 15.2754L40.1403 15.2801L40.143 15.2845L40.1543 15.2983H40.1565L40.1704 15.3211H40.1724L40.1751 15.3258L40.1796 15.3302V15.3347L40.1863 15.344L40.1909 15.3485L40.2089 15.3851L40.2115 15.3897H40.2136L40.2183 15.408L40.2228 15.4172L40.2367 15.4538L40.2414 15.463C40.2572 15.5178 40.2687 15.5726 40.2687 15.6368V19.7241L47.7852 21.7405L47.7991 21.7449L47.845 21.7587L47.8538 21.7633L47.879 21.7724H47.8861L47.8908 21.7768L47.9113 21.7862H47.9182L47.9228 21.7906H47.9273L47.9361 21.7951L47.9732 21.818H47.9752L47.9866 21.8272L47.9959 21.8316L47.9985 21.8361L48.0051 21.8407H48.0098L48.019 21.8499L48.0278 21.859H48.0304L48.0397 21.8682H48.0417L48.0483 21.8775H48.0509L48.0602 21.8867L48.0782 21.905L48.0874 21.9142H48.0895L48.0966 21.9235V21.928L48.1059 21.9372C48.1882 22.0333 48.2339 22.1567 48.2339 22.2938V28.7859H48.837C49.2441 28.7859 49.5298 29.2206 49.3422 29.5953C49.2713 29.7735 49.0497 29.9107 48.837 29.9107H48.2339V32.0047H48.837C49.2441 32.0047 49.5298 32.4391 49.3422 32.8138C49.2713 32.9921 49.0497 33.1292 48.837 33.1292H48.2339V34.949C48.2339 35.196 48.0688 35.4245 47.8174 35.4886L37.8276 38.1722C37.7705 38.1905 37.7137 38.1998 37.6519 38.1998C37.5903 38.1998 37.5306 38.1905 37.4756 38.1722L27.4859 35.4886C27.2345 35.4245 27.07 35.196 27.07 34.949L27.0673 22.2935C27.0673 22.1564 27.1157 22.0332 27.1979 21.9369L27.2046 21.9277L27.2067 21.9232L27.2138 21.9139H27.2159L27.2231 21.9047H27.2251L27.2436 21.8864L27.2524 21.8772L27.2616 21.8679H27.2642L27.273 21.8587H27.2756L27.2822 21.8496H27.2849L27.2937 21.8404H27.2984L27.3055 21.8359L27.3076 21.8313L27.3168 21.8269L27.326 21.8177H27.3307L27.3672 21.7948L27.3738 21.7903H27.3785L27.3851 21.7859H27.3922L27.4129 21.7765L27.4174 21.7721H27.4242L27.4494 21.7631L27.4586 21.7584L27.5045 21.7446L27.5178 21.7402L30.0666 21.0589V15.6365C30.0666 15.4991 30.115 15.3759 30.1946 15.2798L30.1973 15.2751L30.2039 15.266H30.2065L30.2132 15.2568H30.2153L30.2225 15.2476H30.2245L30.2405 15.2294L30.2431 15.2249L30.2524 15.2202V15.2158L30.2611 15.2111L30.2638 15.2067L30.2704 15.2022H30.2751L30.2818 15.1929H30.2843L30.2935 15.1837H30.2956L30.3022 15.1745H30.3068L30.3161 15.1699L30.3253 15.1607H30.3298L30.3663 15.1379L30.3731 15.1333H30.3777L30.3843 15.1288H30.389L30.4095 15.115H30.4167L30.4233 15.1105L30.4485 15.1014H30.4552L30.5036 15.0875L30.5169 15.0829L35.0229 13.8714C35.1136 13.8489 35.2117 13.8489 35.3125 13.8718ZM37.5436 15.6366L35.166 14.9965L32.7909 15.6366L35.166 16.2721L37.5436 15.6366ZM38.2176 46.772C38.0896 46.6441 37.9091 46.5617 37.7147 46.5617C37.5184 46.5617 37.3421 46.6441 37.214 46.772C37.086 46.9002 37.0037 47.0785 37.0037 47.2704C37.0037 47.467 37.086 47.6452 37.214 47.7734C37.34 47.9058 37.5184 47.9837 37.7147 47.9837C37.8999 47.9837 38.0689 47.9107 38.1949 47.7962L38.2154 47.7735C38.3434 47.6454 38.4257 47.4671 38.4257 47.2705C38.4257 47.0876 38.3528 46.9185 38.2381 46.7905L38.2176 46.772ZM37.7149 45.4371C38.2202 45.4371 38.6819 45.6428 39.011 45.9766L39.048 46.0132C39.3584 46.3424 39.5507 46.7858 39.5507 47.2705C39.5507 47.7781 39.3426 48.2398 39.011 48.5688L38.9698 48.6054C38.6408 48.9164 38.1972 49.1085 37.715 49.1085C37.2123 49.1085 36.7526 48.8981 36.4191 48.5688C36.0874 48.2398 35.8819 47.7781 35.8819 47.2705C35.8819 46.7675 36.0876 46.3058 36.4191 45.9766C36.7479 45.6428 37.2074 45.4371 37.7149 45.4371ZM55.658 63.0529H27.8943H27.8803H19.7721V66.7242H55.6579V63.0529H55.658ZM28.6211 61.9283H46.8086L44.2119 52.062H31.2177L28.6211 61.9283ZM64.1296 40.458V9.77067H11.172V40.458H64.1296ZM65.2545 9.20831V41.0205C65.2545 41.3313 65.0006 41.583 64.6921 41.583H10.6097C10.2985 41.583 10.0473 41.3313 10.0473 41.0205V9.20831C10.0473 8.89747 10.2987 8.64596 10.6097 8.64596H64.6921C65.0005 8.64596 65.2545 8.89747 65.2545 9.20831ZM6.32106 24.831C6.32106 25.1419 6.06706 25.3934 5.75871 25.3934C5.44757 25.3934 5.19635 25.1419 5.19635 24.831V8.12931C5.19635 6.94059 5.68122 5.86173 6.463 5.07994C7.24904 4.29362 8.32804 3.8089 9.5172 3.8089H19.1137C19.4247 3.8089 19.676 4.06041 19.676 4.37125C19.676 4.68209 19.4247 4.93361 19.1137 4.93361H9.5172C8.63712 4.93361 7.83922 5.29015 7.25841 5.87081C6.67804 6.45148 6.32121 7.25157 6.32121 8.12931V24.831H6.32106ZM65.4832 5.20328C65.1722 5.20328 64.9208 4.94723 64.9208 4.64078C64.9208 4.3298 65.1722 4.07843 65.4832 4.07843C66.6717 4.07843 67.7529 4.56315 68.5349 5.34493C69.3189 6.12687 69.8036 7.21027 69.8036 8.39913V15.4582C69.8036 15.7691 69.5522 16.0206 69.2412 16.0206C68.9301 16.0206 68.6787 15.7691 68.6787 15.4582V8.39913C68.6787 7.5214 68.32 6.7213 67.7417 6.14064C67.1611 5.55983 66.3608 5.20328 65.4832 5.20328ZM9.50797 69.0469C9.19699 69.0469 8.94562 68.7908 8.94562 68.4845C8.94562 68.1735 9.19699 67.9222 9.50797 67.9222H51.0467C51.3556 67.9222 51.6071 68.1735 51.6071 68.4845C51.6071 68.7908 51.3556 69.0469 51.0467 69.0469H9.50797ZM33.831 71.1913C33.52 71.1913 33.2686 70.9396 33.2686 70.6288C33.2686 70.3179 33.52 70.0664 33.831 70.0664H62.5752C62.8861 70.0664 63.1375 70.3179 63.1375 70.6288C63.1375 70.9396 62.8861 71.1913 62.5752 71.1913H33.831ZM65.5173 71.1913C65.2088 71.1913 64.9548 70.9396 64.9548 70.6288C64.9548 70.3179 65.2087 70.0664 65.5173 70.0664H69.1133C69.4217 70.0664 69.6731 70.3179 69.6731 70.6288C69.6731 70.9396 69.4217 71.1913 69.1133 71.1913H65.5173ZM7.87101 71.1273C7.56002 71.1273 7.30866 70.8713 7.30866 70.5649C7.30866 70.2539 7.56002 70.0025 7.87101 70.0025H21.4913C21.8018 70.0025 22.0536 70.2539 22.0536 70.5649C22.0536 70.8713 21.8017 71.1273 21.4913 71.1273H7.87101ZM66.768 7.16017C66.256 6.6526 65.5516 6.33722 64.779 6.33722H10.6507C9.87799 6.33722 9.17413 6.6526 8.66422 7.16456C8.15431 7.67213 7.83922 8.37614 7.83922 9.14884V48.1254C7.83922 48.898 8.15431 49.6021 8.66422 50.1097C9.17413 50.6216 9.87799 50.9372 10.6507 50.9372H64.7789C65.5514 50.9372 66.2559 50.6216 66.7653 50.1097C67.2753 49.6021 67.5905 48.8981 67.5905 48.1254V9.14884C67.5905 8.37628 67.2754 7.67213 66.768 7.16017Z" fill="#FFA500"/>
</svg>
