<svg width="50" height="26" viewBox="0 0 50 26" fill="none" xmlns="http://www.w3.org/2000/svg">
<path d="M18.4691 18.884C18.1811 18.812 16.9811 18.752 14.8691 18.704V25.076H10.6931V18.704H0.86511V17.948L14.2931 0.883999H14.8691V14.996H15.1571C15.8051 14.996 16.2851 14.948 16.5971 14.852C16.9331 14.756 17.1611 14.6 17.2811 14.384C17.4011 14.168 17.4971 13.832 17.5691 13.376H18.3251C18.3251 15.92 18.3731 17.756 18.4691 18.884ZM10.6931 14.996V6.608L4.17711 14.996H10.6931ZM23.9166 14.96C24.8526 14.96 25.5966 15.212 26.1486 15.716C26.7006 16.196 26.9766 16.868 26.9766 17.732C26.9766 18.596 26.7006 19.28 26.1486 19.784C25.5966 20.264 24.8526 20.504 23.9166 20.504C22.9806 20.504 22.2366 20.264 21.6846 19.784C21.1326 19.28 20.8566 18.596 20.8566 17.732C20.8566 16.868 21.1326 16.196 21.6846 15.716C22.2366 15.212 22.9806 14.96 23.9166 14.96ZM40.0278 0.883999C41.9238 0.883999 43.6158 1.28 45.1038 2.072C46.5918 2.864 47.7438 3.98 48.5598 5.42C49.3998 6.86 49.8198 8.516 49.8198 10.388C49.8198 12.308 49.3878 14.036 48.5238 15.572C47.6838 17.108 46.4838 18.32 44.9238 19.208C43.3878 20.072 41.6238 20.504 39.6318 20.504C37.7598 20.504 36.0798 20.108 34.5918 19.316C33.1038 18.524 31.9398 17.408 31.0998 15.968C30.2598 14.528 29.8398 12.86 29.8398 10.964C29.8398 9.068 30.2598 7.352 31.0998 5.816C31.9638 4.28 33.1638 3.08 34.6998 2.216C36.2358 1.328 38.0118 0.883999 40.0278 0.883999ZM39.7038 1.532C38.8398 1.532 38.0718 1.904 37.3998 2.648C36.7278 3.392 36.1998 4.472 35.8158 5.888C35.4558 7.28 35.2758 8.936 35.2758 10.856C35.2758 13.904 35.7078 16.172 36.5718 17.66C37.4598 19.124 38.5878 19.856 39.9558 19.856C40.8198 19.856 41.5758 19.484 42.2238 18.74C42.8958 17.972 43.4238 16.892 43.8078 15.5C44.1918 14.084 44.3838 12.416 44.3838 10.496C44.3838 7.448 43.9398 5.192 43.0518 3.728C42.1878 2.264 41.0718 1.532 39.7038 1.532Z" fill="#FFA500"/>
</svg>
