<svg width="60" height="67" viewBox="0 0 60 67" fill="none" xmlns="http://www.w3.org/2000/svg">
<path d="M18.75 27.9166H26.25C26.941 27.9166 27.5001 27.2923 27.5001 26.5208V18.1458C27.5001 17.3742 26.941 16.7499 26.25 16.7499H18.75C18.0591 16.7499 17.5 17.3742 17.5 18.1458V26.5208C17.5 27.2924 18.0591 27.9166 18.75 27.9166Z" fill="#FFA500"/>
<path d="M32.5 26.5209C32.5 27.2924 33.0591 27.9168 33.75 27.9168H41.25C41.941 27.9168 42.5001 27.2924 42.5001 26.5209V18.1459C42.5001 17.3743 41.941 16.75 41.25 16.75H33.75C33.0591 16.75 32.5 17.3743 32.5 18.1459V26.5209Z" fill="#FFA500"/>
<path d="M18.75 44.6666H26.25C26.941 44.6666 27.5001 44.0422 27.5001 43.2707V34.8957C27.5001 34.1241 26.941 33.4998 26.25 33.4998H18.75C18.0591 33.4998 17.5 34.1241 17.5 34.8957V43.2707C17.5 44.0424 18.0591 44.6666 18.75 44.6666Z" fill="#FFA500"/>
<path d="M41.25 33.5H33.75C33.0591 33.5 32.5 34.1243 32.5 34.8959V43.2709C32.5 44.0424 33.0591 44.6668 33.75 44.6668H41.25C41.941 44.6668 42.5001 44.0424 42.5001 43.2709V34.8959C42.5001 34.1243 41.941 33.5 41.25 33.5Z" fill="#FFA500"/>
<path d="M28.75 11.1666H31.25C31.9409 11.1666 32.5001 10.5423 32.5001 9.77075C32.5001 8.99921 31.9409 8.37488 31.25 8.37488H28.75C28.0591 8.37488 27.5 8.99921 27.5 9.77075C27.5001 10.5424 28.0592 11.1666 28.75 11.1666Z" fill="#FFA500"/>
<path d="M45 0H15C12.2425 0 10 2.50399 10 5.58338V61.4168C10 64.496 12.2425 67 15 67H45C47.7576 67 50.0001 64.496 50.0001 61.4166V5.58338C50.0001 2.50399 47.7576 0 45 0ZM33.75 61.4166H26.25C25.5591 61.4166 25 60.7923 25 60.0207C25 59.2492 25.5591 58.625 26.25 58.625H33.75C34.441 58.625 35.0001 59.2493 35.0001 60.0209C35.0001 60.7924 34.441 61.4166 33.75 61.4166ZM45 53.0416H15V5.58338H45V53.0416Z" fill="#FFA500"/>
<path d="M41.25 11.1668C41.9404 11.1668 42.5001 10.5418 42.5001 9.77088C42.5001 8.99996 41.9404 8.375 41.25 8.375C40.5597 8.375 40 8.99996 40 9.77088C40 10.5418 40.5597 11.1668 41.25 11.1668Z" fill="#FFA500"/>
</svg>
