<svg width="50" height="63" viewBox="0 0 50 63" fill="none" xmlns="http://www.w3.org/2000/svg">
<path d="M11.983 54.6765V43.5645H0.796387L11.983 54.6765Z" fill="#FFA500"/>
<path d="M46.5012 44.0249H38.5374V45.0453H46.5012V44.0249Z" fill="#FFA500"/>
<path d="M46.5012 41.4491C46.5012 41.0385 46.1652 40.7025 45.7545 40.7025H39.2715C38.8609 40.7025 38.5249 41.0385 38.5249 41.4491V43.0046H46.4887V41.4491H46.5012Z" fill="#FFA500"/>
<path d="M49.9231 52.4864C49.7987 52.2376 49.5374 52.0758 49.2512 52.0758H46.4887V46.0781H38.5249V52.0758H35.7625C35.4763 52.0758 35.215 52.2376 35.0905 52.4864C34.9661 52.7353 35.0034 53.0464 35.1776 53.2704L41.922 61.9435C42.0589 62.1301 42.2829 62.2297 42.5068 62.2297C42.7308 62.2297 42.9548 62.1301 43.0917 61.9435L49.836 53.2704C50.0227 53.034 50.0476 52.7353 49.9231 52.4864Z" fill="#FFA500"/>
<path d="M33.672 51.7772C34.0577 50.9808 34.8914 50.4706 35.7749 50.4706H36.9446V41.4491C36.9446 40.155 37.9898 39.1097 39.284 39.1097H42.5193V21.9129H14.7206C14.086 21.9129 13.5011 21.552 13.2398 20.9797C12.9287 20.3077 13.1278 19.5238 13.6878 19.0634L21.6018 12.7172L13.6878 6.37104C13.1154 5.91064 12.9287 5.1267 13.2398 4.45475C13.5011 3.88235 14.086 3.5215 14.7206 3.5215H42.5193V0H0V41.9593H12.7048C13.1901 41.9593 13.5882 42.3575 13.5882 42.8428V55.4604H34.879L33.9333 54.241C33.3733 53.5441 33.2738 52.5736 33.672 51.7772Z" fill="#FFA500"/>
<path d="M34.5928 10.9378L33.7217 13.5634H35.4763L34.6177 10.9378H34.5928Z" fill="#FFA500"/>
<path d="M40.7274 10.2907H39.6448V15.1685H40.7274C41.2625 15.1685 41.6856 14.9819 41.9966 14.621C42.3077 14.2602 42.4695 13.7998 42.4695 13.2274V12.207C42.4695 11.647 42.3077 11.1866 41.9966 10.8258C41.6856 10.4649 41.2625 10.2907 40.7274 10.2907Z" fill="#FFA500"/>
<path d="M46.5633 5.12671H14.6957L24.1651 12.7172L14.6957 20.3077H46.5633V5.12671ZM27.4004 14.7206C27.6742 15.0815 28.0351 15.2557 28.4955 15.2557C28.9434 15.2557 29.2918 15.1312 29.5283 14.8948C29.7647 14.6584 29.8767 14.31 29.8767 13.862H30.9468L30.9593 13.8869C30.9717 14.5588 30.7477 15.0939 30.2998 15.517C29.8518 15.9276 29.2421 16.1392 28.483 16.1392C27.7115 16.1392 27.0769 15.8778 26.6041 15.3552C26.1188 14.8326 25.8823 14.1607 25.8823 13.3518V12.0826C25.8823 11.2738 26.1188 10.6018 26.5916 10.0792C27.0645 9.55658 27.6866 9.29526 28.4457 9.29526C29.2296 9.29526 29.8394 9.49436 30.2998 9.89255C30.7477 10.2907 30.9717 10.8383 30.9593 11.5351L30.9468 11.56H29.8767C29.8767 11.112 29.7522 10.776 29.5158 10.5396C29.2794 10.3032 28.9185 10.1912 28.4581 10.1912C28.0102 10.1912 27.6493 10.3654 27.388 10.7263C27.1267 11.0871 26.9898 11.5351 26.9898 12.0826V13.3518C26.9898 13.9118 27.1267 14.3597 27.4004 14.7206ZM36.2851 16.0521L35.7749 14.4966H33.4231L32.9129 16.0521H31.7681L34.0826 9.39481H35.1403L37.4299 16.0521H36.2851ZM43.5769 13.2274C43.5769 14.0611 43.3156 14.7331 42.7805 15.2557C42.2579 15.7783 41.5611 16.0396 40.7274 16.0396H38.5249V9.39481H40.7274C41.5735 9.39481 42.2579 9.65612 42.7805 10.1912C43.3032 10.7138 43.5769 11.3982 43.5769 12.2195V13.2274Z" fill="#FFA500"/>
</svg>
