<svg width="61" height="68" viewBox="0 0 61 68" fill="none" xmlns="http://www.w3.org/2000/svg">
<path fill-rule="evenodd" clip-rule="evenodd" d="M38.4759 7.154C38.601 7.37798 38.5276 7.66128 38.3032 7.78989C38.0826 7.9188 37.7959 7.84526 37.667 7.62085L37.112 6.65772C35.6231 7.60254 34.3585 8.86728 33.4137 10.3562L34.377 10.9112C34.6009 11.0398 34.6745 11.3266 34.5459 11.5472C34.4209 11.7713 34.1341 11.8488 33.91 11.7201L32.9467 11.1612C32.1489 12.6795 31.6674 14.3928 31.5976 16.2123H32.7078C32.965 16.2123 33.1748 16.4222 33.1748 16.6793C33.1748 16.9367 32.965 17.1461 32.7078 17.1461H31.5939C31.6639 18.9661 32.1454 20.6791 32.9467 22.1974L33.9136 21.6423C34.1342 21.5136 34.421 21.5906 34.5459 21.8111C34.6745 22.0355 34.5974 22.3187 34.377 22.4474L33.4137 23.0023C34.3548 24.4913 35.6231 25.7596 37.112 26.7006L37.667 25.7376C37.7959 25.5135 38.0826 25.4399 38.3032 25.5686C38.5274 25.6973 38.6008 25.9803 38.4759 26.2046L37.9172 27.1679C39.4355 27.9653 41.1488 28.4508 42.9684 28.5205V27.4104C42.9684 27.1528 43.178 26.9433 43.4353 26.9433C43.6928 26.9433 43.9022 27.1529 43.9022 27.4104V28.5205C45.722 28.4506 47.4352 27.9691 48.9536 27.1679L48.3983 26.2046C48.2697 25.9803 48.3431 25.6973 48.5673 25.5686C48.7879 25.4399 49.0746 25.5135 49.2035 25.7376L49.7584 26.7006C51.2511 25.7596 52.5158 24.495 53.4568 23.0023L52.4937 22.4474C52.2731 22.3187 52.196 22.0355 52.3247 21.8111C52.4496 21.5906 52.7364 21.5136 52.9569 21.6423L53.924 22.1974C54.7216 20.6791 55.2032 18.9659 55.2768 17.1461H54.1627C53.9055 17.1461 53.6996 16.9367 53.6996 16.6793C53.6996 16.4221 53.9055 16.2123 54.1627 16.2123H55.2768C55.2067 14.3927 54.7251 12.6795 53.924 11.1612L52.9569 11.7201C52.7363 11.8449 52.4495 11.7715 52.3247 11.5472C52.196 11.3229 52.2731 11.0398 52.4937 10.9112L53.4568 10.3562C52.5158 8.86728 51.2511 7.59873 49.7584 6.65772L49.2035 7.62085C49.0746 7.84526 48.7879 7.9188 48.5673 7.78989C48.3431 7.66128 48.2697 7.37798 48.3983 7.154L48.9536 6.19087C47.4352 5.39312 45.7219 4.91162 43.9022 4.8416V5.95181C43.9022 6.20903 43.6928 6.41865 43.4353 6.41865C43.178 6.41865 42.9684 6.20903 42.9684 5.95181V4.8416C41.1486 4.91162 39.4355 5.38931 37.9172 6.19087L38.4759 7.154ZM44.0051 16.1093C43.8617 15.9659 43.6595 15.8742 43.4351 15.8742C43.2145 15.8742 43.0125 15.9661 42.8654 16.1093C42.722 16.2564 42.63 16.4587 42.63 16.6793C42.63 16.9034 42.7185 17.1019 42.8654 17.2493C43.0087 17.3963 43.2145 17.4844 43.4351 17.4844C43.6594 17.4844 43.8617 17.3962 44.0051 17.2493C44.1522 17.1059 44.2403 16.9036 44.2403 16.6793C44.2403 16.4585 44.1522 16.2564 44.0051 16.1093ZM43.2918 18.4143L40.9463 24.7964C40.8582 25.039 40.5898 25.164 40.3472 25.0756C40.1046 24.9875 39.9832 24.7188 40.0714 24.4765L42.4206 18.0907C42.3434 18.0354 42.2698 17.9766 42.2038 17.9106C41.8913 17.5945 41.6965 17.1606 41.6965 16.6792C41.6965 16.5026 41.7221 16.3336 41.7699 16.1717L36.351 10.9625C36.1673 10.7823 36.1598 10.4881 36.34 10.3044C36.5165 10.1206 36.8106 10.1131 36.9945 10.2898L42.2845 15.3738C42.5897 15.1055 42.9942 14.9401 43.4351 14.9401C43.9169 14.9401 44.3506 15.1349 44.6668 15.451L44.7035 15.4879L49.9459 12.7342C50.1737 12.6166 50.4568 12.7049 50.5745 12.9327C50.6921 13.1607 50.6039 13.4399 50.376 13.5577L45.1337 16.3112C45.1632 16.429 45.174 16.5538 45.174 16.679C45.174 17.1605 44.9792 17.5944 44.6668 17.9105C44.3506 18.2231 43.9169 18.4179 43.4351 18.4179C43.3875 18.4181 43.3397 18.4181 43.2918 18.4143ZM26.1788 45.4056H28.8V50.5229H26.1788V45.4056ZM30.5757 42.1887H33.2004V50.5229H30.5757V42.1887ZM17.3815 44.3026H20.0027V50.5228H17.3815V44.3026ZM35.5311 52.4565H16.4477V51.5521H35.5311V52.0044V52.4565ZM21.7783 40.288H24.3995V50.5228H21.7783V40.288ZM23.1127 34.9392L19.7783 36.7553C19.5614 36.8729 19.2857 36.7922 19.1681 36.5752C19.1092 36.4614 19.098 36.3325 19.1348 36.2224L19.4657 35.0237C17.8739 34.476 16.6055 33.3768 15.8262 32.0019C14.977 30.5131 14.6977 28.6967 15.1903 26.914C15.2527 26.675 15.5027 26.5315 15.7417 26.5979C15.9807 26.664 16.1205 26.9104 16.0579 27.1493C15.6315 28.6934 15.8741 30.2666 16.6094 31.557C17.2748 32.7335 18.352 33.6784 19.7049 34.1562L19.8886 33.4874C18.7197 33.0571 17.7895 32.2373 17.2087 31.2152C16.5653 30.0792 16.3521 28.697 16.7234 27.3369C16.7896 27.0977 17.0358 26.9544 17.2784 27.0208C17.5173 27.0869 17.6571 27.3331 17.5909 27.5722C17.2857 28.6934 17.4586 29.8332 17.9915 30.7705C18.4585 31.5902 19.201 32.2557 20.1274 32.6159L20.5355 31.1307C20.6017 30.8918 20.8481 30.7521 21.087 30.8183C21.2046 30.8477 21.3003 30.9248 21.3554 31.0204L23.3038 34.3033C23.4325 34.5167 23.3588 34.796 23.1457 34.921L23.1127 34.9392ZM21.2306 25.2227C22.3958 25.6528 23.326 26.4727 23.907 27.4909C24.554 28.627 24.7671 30.0129 24.3921 31.373C24.3259 31.6121 24.0797 31.7515 23.8408 31.6891C23.6017 31.623 23.4584 31.3768 23.5245 31.1341C23.8332 30.0166 23.6568 28.8732 23.1239 27.9357C22.6569 27.1197 21.9182 26.4542 20.988 26.0938L20.5835 27.5754C20.5173 27.8145 20.2711 27.9577 20.0284 27.8915C19.9107 27.8585 19.8189 27.7849 19.76 27.6857L17.8116 24.4065C17.6865 24.1896 17.7565 23.9137 17.9697 23.7889L18.0064 23.7706L21.3371 21.9543C21.554 21.8369 21.8297 21.9176 21.9473 22.1345C22.0099 22.2483 22.0173 22.3736 21.9806 22.4874L21.6533 23.6821C23.2452 24.2298 24.5098 25.3292 25.2929 26.7042C26.1384 28.193 26.4179 30.0091 25.9289 31.7958C25.8627 32.0348 25.6165 32.1743 25.3774 32.1119C25.1347 32.0458 24.9951 31.7993 25.0613 31.5565C25.484 30.0127 25.2415 28.4392 24.5099 27.1488C23.8409 25.9761 22.7637 25.0314 21.4146 24.5534L21.2306 25.2227ZM0.000146963 38.2109V40.3027L8.06602 41.5159C8.30112 43.038 8.69824 44.5047 9.23862 45.9054L2.8604 50.9823L4.95586 54.6108L12.5474 51.6223C13.5032 52.8023 14.5803 53.883 15.7604 54.8353L12.7753 62.4305L16.4002 64.5223L21.4809 58.144C22.8778 58.6843 24.3483 59.0814 25.8703 59.3202L27.0798 67.3824H31.2669L32.4803 59.3202C34.0022 59.0814 35.469 58.6841 36.8697 58.144L41.9503 64.5223L45.5752 62.4305L42.59 54.8353C43.7701 53.883 44.8474 52.8059 45.7994 51.6223L53.3946 54.6072L55.4864 50.9824L49.108 45.9016C49.6484 44.5049 50.0492 43.038 50.2843 41.516L58.3465 40.3028V38.211V36.1156L50.2843 34.9024C50.2146 34.443 50.1262 33.9907 50.0269 33.5383C47.983 34.3399 45.7626 34.7774 43.4354 34.7774C33.6088 34.7774 25.6129 26.9471 25.3446 17.1864C24.01 17.429 22.7161 17.7968 21.4809 18.271L16.4002 11.8963L12.7753 13.9879L15.7604 21.5832C14.5803 22.5353 13.5032 23.6162 12.5474 24.7964L4.95571 21.8076L2.86025 25.4322L9.23848 30.5131C8.69824 31.9137 8.30112 33.3804 8.06587 34.9024L0 36.1156V38.2109H0.000146963ZM43.4351 0C52.6481 0 60.1144 7.46646 60.1144 16.6792C60.1144 25.8882 52.6479 33.3584 43.4351 33.3584C34.2224 33.3584 26.756 25.8882 26.756 16.6792C26.756 7.46646 34.2226 0 43.4351 0Z" fill="#FFA500"/>
</svg>
