<svg width="60" height="67" viewBox="0 0 60 67" fill="none" xmlns="http://www.w3.org/2000/svg">
<g clip-path="url(#clip0)">
<path d="M31.7738 52.8205V52.8195C27.6715 51.518 23.5557 54.9816 23.5557 59.7621C23.5557 63.7406 26.4542 66.9773 30.017 66.9773C33.5798 66.9773 36.4783 63.7406 36.4783 59.7621C36.4783 56.4638 34.4852 53.6774 31.7738 52.8205V52.8205Z" fill="#FFA500"/>
<path d="M53.5388 52.5471C50.5851 52.5471 48.0898 54.7724 47.3223 57.7999H44.0046V48.2917C44.0046 46.0029 42.3379 44.1418 40.2883 44.1418H35.2871V48.0654H40.2883C40.4007 48.0654 40.4909 48.1674 40.4909 48.2917V58.085C40.4909 60.0913 41.9526 61.7235 43.7493 61.7235H47.3221C48.0894 64.7514 50.5849 66.9772 53.5388 66.9772C57.1015 66.9772 60 63.7405 60 59.7621C60 55.7837 57.1015 52.5471 53.5388 52.5471V52.5471Z" fill="#FFA500"/>
<path d="M12.291 38.7343C12.3314 38.7343 11.8997 38.7353 28.2597 38.6965V48.7965C29.3842 48.5722 30.5895 48.5603 31.7733 48.7965C31.7733 48.2926 31.7733 40.2942 31.7733 38.6881L47.8159 38.6501C54.4122 38.6347 60 32.7576 60 25.0903C60 16.0135 52.8843 9.132 45.1641 10.7552C43.4252 7.95152 40.5697 6.27312 37.4347 6.31877C31.8997 -3.51723 18.4693 -1.41495 15.5693 9.74382C4.85052 7.34819 -3.31026 20.3059 1.33062 31.1145C3.323 35.7459 7.62294 38.7345 12.291 38.7343V38.7343Z" fill="#FFA500"/>
<path d="M24.7462 44.1418H19.745C17.6954 44.1418 16.0287 46.0029 16.0287 48.2917V57.7999H12.7109C11.9434 54.7724 9.44813 52.5471 6.49453 52.5471C2.93176 52.5471 0.0332031 55.7837 0.0332031 59.7621C0.0332031 63.7405 2.93176 66.9772 6.49453 66.9772C9.44837 66.9772 11.9439 64.7514 12.7112 61.7235H16.284C18.0807 61.7235 19.5424 60.0913 19.5424 58.085V48.2917C19.5424 48.1674 19.6326 48.0654 19.745 48.0654H24.7462V44.1418Z" fill="#FFA500"/>
</g>
<defs>
<clipPath id="clip0">
<rect width="60" height="67" fill="white"/>
</clipPath>
</defs>
</svg>
