<svg width="60" height="67" viewBox="0 0 60 67" fill="none" xmlns="http://www.w3.org/2000/svg">
<path d="M50.9685 29.7141C50.1805 24.0823 45.8082 19.7598 40.5469 19.7598C38.5676 19.7598 36.6656 20.3713 35.016 21.5118C32.5063 16.802 27.9881 13.8711 22.9688 13.8711C15.2148 13.8711 8.90625 20.9156 8.90625 29.5742C8.90625 29.6279 8.90625 29.6835 8.90801 29.7371C3.92461 30.6745 0 35.5261 0 41.3516C0 47.846 4.84816 53.1289 10.6641 53.1289H49.3359C55.1518 53.1289 60 47.846 60 41.3516C60 35.4764 56.0119 30.594 50.9685 29.7141V29.7141Z" fill="#FFA500"/>
</svg>
