<svg width="59" height="59" viewBox="0 0 59 59" fill="none" xmlns="http://www.w3.org/2000/svg">
<path d="M29.4995 33.5418C35.1122 33.5418 39.6786 28.9725 39.6786 23.356C39.6786 22.7503 39.6225 22.1578 39.5206 21.581H36.962L31.0977 26.2502C30.9859 26.3394 30.8479 26.3869 30.7067 26.3869C30.6748 26.3869 30.6425 26.3845 30.6104 26.3794C30.4371 26.3525 30.2829 26.2542 30.1852 26.1086L25.7228 19.446L21.4231 22.631C21.3159 22.7103 21.1863 22.7536 21.053 22.7542L19.3397 22.764C19.3284 22.9599 19.3212 23.157 19.3212 23.3557C19.3214 28.9725 23.8873 33.5418 29.4995 33.5418Z" fill="#FFA500"/>
<path d="M36.1151 42.0067H22.8846V44.3564H36.1151V42.0067Z" fill="#FFA500"/>
<path d="M25.5046 18.0456C25.6426 17.9434 25.8166 17.9023 25.9854 17.9315C26.1544 17.9608 26.3042 18.0581 26.3997 18.2007L30.8491 24.8439L36.3519 20.4625C36.4629 20.374 36.6006 20.3257 36.7428 20.3257H39.2186C37.9264 16.1843 34.0581 13.1699 29.4994 13.1699C24.5179 13.1699 20.3637 16.771 19.4921 21.5079L20.8407 21.5003L25.5046 18.0456Z" fill="#FFA500"/>
<path d="M13.2263 23.356C13.2263 29.5753 16.8764 35.3197 22.5252 37.9903C22.7446 38.0942 22.8846 38.3152 22.8846 38.5578V40.7512H36.1152V38.5578C36.1152 38.3151 36.2552 38.0942 36.4747 37.9903C42.1235 35.3196 45.7736 29.5753 45.7736 23.356C45.7736 14.4266 38.4731 7.16217 29.4996 7.16217C20.5264 7.1623 13.2263 14.4268 13.2263 23.356ZM29.4995 11.9148C34.7564 11.9148 39.1954 15.4831 40.526 20.3259H42.7788C43.1256 20.3259 43.4065 20.6069 43.4065 20.9536C43.4065 21.3003 43.1256 21.5813 42.7788 21.5813H40.796C40.8865 22.1599 40.9338 22.7526 40.9338 23.3563C40.9338 29.6651 35.8044 34.7974 29.4994 34.7974C23.1949 34.7974 18.0658 29.6651 18.0658 23.3563C18.0658 23.1603 18.0708 22.9654 18.0806 22.7717L16.2242 22.7823C16.223 22.7823 16.2216 22.7823 16.2206 22.7823C15.8755 22.7823 15.595 22.5037 15.593 22.1582C15.591 21.8115 15.8704 21.529 16.2171 21.527L18.2145 21.5157C19.0972 16.0787 23.8212 11.9148 29.4995 11.9148Z" fill="#FFA500"/>
<path d="M36.1151 47.9607V45.6118H22.8846V47.9607H24.6708H34.3292H36.1151Z" fill="#FFA500"/>
<path d="M33.7016 49.2159H25.2985V52.7666H33.7016V49.2159Z" fill="#FFA500"/>
<path d="M27.1403 57.475C13.9134 56.3899 3.39403 46.4709 1.47025 33.5794L3.74058 36.2385C3.86476 36.384 4.04092 36.4587 4.21828 36.4587C4.36242 36.4587 4.50723 36.4093 4.62551 36.3084C4.88914 36.0832 4.92036 35.687 4.69531 35.4235L1.10535 31.2187C0.880163 30.9552 0.484181 30.9241 0.22055 31.1489C0.0553789 31.2899 -0.0184323 31.498 0.00460861 31.6986C0.000589845 31.737 -0.000883545 31.7761 0.00246542 31.816C0.575407 38.7407 3.61868 45.2691 8.5714 50.1983C13.5234 55.1269 20.0815 58.1555 27.0377 58.7263C27.0552 58.7278 27.0726 58.7283 27.0897 58.7283C27.4131 58.7283 27.6877 58.4799 27.7146 58.152C27.743 57.8063 27.4858 57.5032 27.1403 57.475Z" fill="#FFA500"/>
<path d="M58.4239 31.1384C58.0794 31.1138 57.7752 31.3668 57.7465 31.7122C56.6046 45.5032 45.7177 56.3381 31.8601 57.4748C31.5144 57.5031 31.2574 57.8063 31.2858 58.1517C31.3127 58.4798 31.5872 58.728 31.9106 58.728C31.9278 58.728 31.9451 58.7275 31.9627 58.726C38.9186 58.1552 45.4765 55.1267 50.4285 50.1981C55.381 45.2689 58.4242 38.7407 58.9978 31.8159C59.0262 31.4704 58.7694 31.1672 58.4239 31.1384Z" fill="#FFA500"/>
<path d="M0.57593 27.5897C0.593478 27.5911 0.611027 27.5919 0.628308 27.5919C0.95155 27.5919 1.22603 27.3438 1.25322 27.016C2.39428 13.2249 13.2814 2.39036 27.1401 1.25346C27.4855 1.22519 27.7428 0.922178 27.7144 0.576564C27.6861 0.231085 27.3832 -0.0262499 27.0375 0.00228328C20.0813 0.572947 13.523 3.60148 8.57112 8.52969C3.61827 13.4591 0.575126 19.9874 0.00218468 26.9126C-0.0264825 27.2579 0.230316 27.5611 0.57593 27.5897Z" fill="#FFA500"/>
<path d="M31.8601 1.25322C45.0526 2.33547 55.5521 12.2071 57.515 25.0511L55.2598 22.4096C55.0346 22.1458 54.6385 22.1149 54.375 22.3398C54.1114 22.5648 54.08 22.9611 54.3052 23.2246L57.8949 27.4293C58.0191 27.5748 58.1953 27.6495 58.3725 27.6495C58.5166 27.6495 58.6616 27.6001 58.7797 27.4992C58.935 27.3666 59.0073 27.1746 58.9965 26.9852C58.9973 26.9611 58.9998 26.9372 58.9978 26.9126C58.4243 19.9873 55.3811 13.459 50.4285 8.52985C45.4767 3.60151 38.9187 0.573107 31.9627 0.00230933C31.6158 -0.0272955 31.314 0.231245 31.2858 0.57659C31.2574 0.921935 31.5144 1.22495 31.8601 1.25322Z" fill="#FFA500"/>
</svg>
