<svg width="60" height="67" viewBox="0 0 60 67" fill="none" xmlns="http://www.w3.org/2000/svg">
<path d="M58.2422 0H51.0938C50.1221 0 49.3359 0.877935 49.3359 1.96289V3.92578H34.9496C34.2216 1.64595 32.2887 0 30 0C27.7113 0 25.7784 1.64595 25.0504 3.92578H10.6641V1.96289C10.6641 0.877935 9.87785 0 8.90625 0H1.75781C0.786211 0 0 0.877935 0 1.96289V9.81445C0 10.8994 0.786211 11.7773 1.75781 11.7773H8.90625C9.87785 11.7773 10.6641 10.8994 10.6641 9.81445V7.82539H17.8833C11.7829 12.0811 7.76039 19.5556 7.27957 27.9274C5.17043 28.6982 3.63281 30.8907 3.63281 33.5C3.63281 36.7471 5.99836 39.3887 8.90625 39.3887C11.8141 39.3887 14.1797 36.7471 14.1797 33.5C14.1797 30.9954 12.7663 28.8659 10.7883 28.0161C11.388 18.6825 17.2202 10.8158 25.3328 8.57129C26.2102 10.4657 27.9618 11.7773 30 11.7773C32.0382 11.7773 33.7898 10.4657 34.6672 8.57129C42.7798 10.8157 48.612 18.6824 49.2117 28.0159C47.2337 28.8659 45.8203 30.9954 45.8203 33.5C45.8203 36.7471 48.1859 39.3887 51.0938 39.3887C54.0016 39.3887 56.3672 36.7471 56.3672 33.5C56.3672 30.8907 54.8296 28.6982 52.7204 27.9274C52.2396 19.5556 48.2171 12.1072 42.1167 7.85156H49.3359V9.81445C49.3359 10.8994 50.1221 11.7773 51.0938 11.7773H58.2422C59.2138 11.7773 60 10.8994 60 9.81445V1.96289C60 0.877935 59.2138 0 58.2422 0Z" fill="#FFA500"/>
<path d="M41.9587 64.5654C41.0393 61.4236 38.3904 59.0176 35.2732 59.0176H24.7263C21.6091 59.0176 18.9602 61.4236 18.0408 64.5654C17.6863 65.7767 18.6091 67 19.7505 67H40.249C41.3902 67 42.3132 65.7767 41.9587 64.5654Z" fill="#FFA500"/>
<path d="M45.525 40.2628L31.7578 17.2026V35.8244C33.7995 36.6375 35.2735 38.7959 35.2735 41.3516C35.2735 44.5987 32.9079 47.2402 30 47.2402C27.0921 47.2402 24.7266 44.5987 24.7266 41.3516C24.7266 38.7959 26.2006 36.6375 28.2422 35.8244V17.2026L14.475 40.2628C14.0098 41.041 14.1025 42.0781 14.6947 42.7394C17.9217 46.3429 19.9845 50.9852 20.7805 55.9648C22.0016 55.4116 23.3297 55.0918 24.7266 55.0918H35.2735C36.6703 55.0918 37.9984 55.4115 39.2195 55.9645C40.0156 50.9846 42.0783 46.3429 45.3053 42.7394C45.8976 42.0781 45.9903 41.041 45.525 40.2628Z" fill="#FFA500"/>
<path d="M30 39.3887C29.0302 39.3887 28.2422 40.2686 28.2422 41.3516C28.2422 42.4346 29.0302 43.3145 30 43.3145C30.9698 43.3145 31.7578 42.4346 31.7578 41.3516C31.7578 40.2686 30.9698 39.3887 30 39.3887Z" fill="#FFA500"/>
</svg>
