<svg width="60" height="67" viewBox="0 0 60 67" fill="none" xmlns="http://www.w3.org/2000/svg">
<path d="M30 0C13.4301 0 0 14.9984 0 33.5C0 52.0016 13.4301 67 30 67C46.5699 67 60 52.0002 60 33.5C60 14.9998 46.5686 0 30 0ZM31.816 48.4226V52.3005C31.816 52.9055 31.3943 53.3457 30.8512 53.3457H28.5365C27.9934 53.3457 27.556 52.9055 27.556 52.3005V48.7637C25.4254 48.6558 23.2765 48.1485 21.6498 47.4575C20.7685 47.0843 20.2776 46.0302 20.5113 45.0097L20.8886 43.3682C21.0205 42.7924 21.3652 42.3113 21.8365 42.0416C22.3078 41.7675 22.8613 41.7398 23.3561 41.9512C24.9058 42.6203 26.7362 43.1073 28.6905 43.1073C31.1789 43.1073 32.8826 42.0343 32.8826 40.0837C32.8826 38.2307 31.4857 37.0601 28.2532 35.8399C23.5807 34.0846 20.3808 31.6471 20.3808 26.9163C20.3808 22.6259 23.1002 19.2612 27.7492 18.2363V14.6995C27.7492 14.0945 28.2127 13.5522 28.7558 13.5522H31.0705C31.6136 13.5522 32.0118 14.0945 32.0118 14.6995V17.8937C34.0446 17.9914 35.512 18.3281 36.7392 18.7742C37.6674 19.1125 38.2158 20.1986 37.9716 21.257L37.64 22.7265C37.5108 23.2863 37.1792 23.7615 36.7248 24.0356C36.2705 24.3097 35.7339 24.3593 35.243 24.1712C34.1281 23.744 32.6737 23.3563 30.8303 23.3563C27.9921 23.3563 27.0743 24.7223 27.0743 26.0883C27.0743 27.6977 28.6031 28.7212 32.3147 30.2825C37.5108 32.3308 39.5983 35.0133 39.5983 39.3999C39.597 43.74 36.8515 47.4487 31.816 48.4226Z" fill="#FFA500"/>
</svg>
