<svg width="60" height="67" viewBox="0 0 60 67" fill="none" xmlns="http://www.w3.org/2000/svg">
<path d="M58.2422 0H46.9453C45.9744 0 45.1875 0.878852 45.1875 1.96289V12.6147H60V1.96289C60 0.878852 59.2129 0 58.2422 0Z" fill="#FFA500"/>
<path d="M45.1875 16.5405V58.7298C45.1875 59.2504 45.3727 59.7496 45.7023 60.1177L51.3509 66.425C51.6942 66.8083 52.144 67 52.5939 67C53.0436 67 53.4936 66.8083 53.8366 66.425L59.485 60.1177C59.8147 59.7495 60 59.2504 60 58.7298V16.5405H45.1875Z" fill="#FFA500"/>
<path d="M39.9139 0H1.75781C0.786914 0 0 0.878852 0 1.96289V65.0371C0 66.1211 0.786914 67 1.75781 67H39.9139C40.8846 67 41.6718 66.1211 41.6718 65.0371V1.96289C41.6718 0.878852 40.8847 0 39.9139 0ZM15.0625 12.6147H26.6093C27.58 12.6147 28.3671 13.4936 28.3671 14.5776C28.3671 15.6616 27.58 16.5405 26.6093 16.5405H15.0625C14.0916 16.5405 13.3046 15.6616 13.3046 14.5776C13.3046 13.4936 14.0916 12.6147 15.0625 12.6147ZM30.3749 54.3852H11.297C10.3261 54.3852 9.53918 53.5063 9.53918 52.4223C9.53918 51.3382 10.3261 50.4594 11.297 50.4594H30.3749C31.3455 50.4594 32.1327 51.3382 32.1327 52.4223C32.1327 53.5063 31.3455 54.3852 30.3749 54.3852ZM30.3749 41.7703H11.297C10.3261 41.7703 9.53918 40.8915 9.53918 39.8074C9.53918 38.7234 10.3261 37.8445 11.297 37.8445H30.3749C31.3455 37.8445 32.1327 38.7234 32.1327 39.8074C32.1327 40.8915 31.3455 41.7703 30.3749 41.7703ZM30.3749 29.1555H11.297C10.3261 29.1555 9.53918 28.2766 9.53918 27.1926C9.53918 26.1085 10.3261 25.2297 11.297 25.2297H30.3749C31.3455 25.2297 32.1327 26.1085 32.1327 27.1926C32.1327 28.2766 31.3455 29.1555 30.3749 29.1555Z" fill="#FFA500"/>
</svg>
