<svg width="66" height="72" viewBox="0 0 66 72" fill="none" xmlns="http://www.w3.org/2000/svg">
<path d="M11.8377 35.6373C11.9327 35.7511 12.0462 35.8418 12.1715 35.904C12.2968 35.9663 12.4315 35.9989 12.5678 36C12.704 36.001 12.8391 35.9705 12.9651 35.9102C13.0912 35.85 13.2057 35.7611 13.302 35.6487C13.3983 35.5364 13.4746 35.4029 13.5263 35.2559C13.578 35.109 13.6041 34.9515 13.6032 34.7927C13.6023 34.6338 13.5743 34.4768 13.5208 34.3307C13.4674 34.1845 13.3896 34.0522 13.292 33.9415L2.4864 21.3433L7.49081 15.5735L7.9665 16.1279L14.7931 8.16877L12.6113 5.625L5.78468 13.5841L6.03649 13.8775L0.305261 20.4859C0.208885 20.5971 0.132301 20.7293 0.0799145 20.8751C0.0275275 21.0208 0.000370156 21.1772 3.75776e-06 21.3353C-0.00036264 21.4933 0.0260685 21.6499 0.0777788 21.796C0.129489 21.942 0.205458 22.0748 0.301318 22.1865L11.8377 35.6373Z" fill="#FFA500"/>
<path d="M9.77734 17.6633L16.8654 9.83827L59.0357 56.3934L51.9477 64.2184L9.77734 17.6633Z" fill="#FFA500"/>
<path d="M21.7306 49.1089C21.5909 49.1091 21.4526 49.0792 21.3235 49.0209C21.1945 48.9626 21.0773 48.877 20.9787 48.7691L16.2285 43.587L1.34537 59.8227C1.27953 59.8945 1.2273 59.9798 1.19167 60.0736C1.15604 60.1675 1.1377 60.2681 1.1377 60.3696C1.1377 60.4712 1.15604 60.5718 1.19167 60.6656C1.2273 60.7595 1.27953 60.8447 1.34537 60.9166L11.2978 71.7739C11.431 71.9187 11.6113 72 11.7993 72C11.9873 72 12.1677 71.9187 12.3008 71.7739L34.1377 47.9516L23.1826 36L17.732 41.9459L22.4823 47.128C22.631 47.2903 22.7323 47.497 22.7734 47.7221C22.8144 47.9471 22.7934 48.1804 22.7129 48.3924C22.6324 48.6044 22.4961 48.7856 22.3212 48.9131C22.1463 49.0406 21.9407 49.1086 21.7304 49.1087L21.7306 49.1089Z" fill="#FFA500"/>
<path d="M5.79845 10.125L10.2416 5.00917L8.80977 3.33405C8.51774 2.99003 8.16881 2.71686 7.78356 2.53067C7.39832 2.34448 6.98459 2.24905 6.56678 2.25001H6.56451C5.9414 2.25002 5.33228 2.46277 4.81419 2.86135C4.2961 3.25993 3.8923 3.82645 3.65385 4.48926C3.41541 5.15207 3.35304 5.8814 3.47462 6.58503C3.59619 7.28865 3.89627 7.93497 4.33689 8.44224L5.79845 10.125Z" fill="#FFA500"/>
<path d="M49.8188 5.6525L52.6415 8.73178C52.7429 8.83939 52.8236 8.9679 52.8791 9.10984C52.9345 9.25179 52.9636 9.40434 52.9646 9.55863C52.9655 9.71293 52.9384 9.8659 52.8847 10.0087C52.831 10.1514 52.7519 10.2811 52.6519 10.3902C52.5519 10.4993 52.433 10.5857 52.3021 10.6443C52.1713 10.7028 52.0311 10.7325 51.8896 10.7314C51.7482 10.7304 51.6083 10.6987 51.4782 10.6382C51.3481 10.5777 51.2303 10.4896 51.1316 10.3791L48.309 7.2994L39.0193 17.4336L43.7887 22.6366C43.8892 22.7445 43.9691 22.8729 44.0239 23.0146C44.0786 23.1563 44.1071 23.3084 44.1077 23.4622C44.1083 23.616 44.081 23.7683 44.0273 23.9105C43.9736 24.0527 43.8947 24.1819 43.795 24.2907C43.6954 24.3994 43.577 24.4855 43.4466 24.5441C43.3163 24.6027 43.1766 24.6325 43.0357 24.6319C42.8947 24.6313 42.7553 24.6003 42.6254 24.5406C42.4955 24.4809 42.3777 24.3937 42.2788 24.2841L37.5094 19.0811L33 24.0005L43.9996 36L65.7919 12.2263C65.9252 12.0806 66 11.8831 66 11.6772C66 11.4713 65.9252 11.2739 65.7919 11.1281L55.7991 0.227002C55.6654 0.0816316 55.4844 0 55.2956 0C55.1069 0 54.9259 0.0816316 54.7922 0.227002L49.8188 5.6525Z" fill="#FFA500"/>
<path d="M59.7665 58.5L54.6211 65.2825L61.4487 67.5L59.7665 58.5Z" fill="#FFA500"/>
</svg>
