<svg width="60" height="67" viewBox="0 0 60 67" fill="none" xmlns="http://www.w3.org/2000/svg">
<path d="M42 20.1H18V46.9H42V20.1Z" fill="#FFA500"/>
<path d="M57 36.85C58.8 36.85 60 35.51 60 33.5C60 31.825 58.8 30.15 57 30.15H54V23.45H57C58.8 23.45 60 22.11 60 20.1C60 18.425 58.8 16.75 57 16.75H54V13.4C54 9.715 51.3 6.7 48 6.7H45V3.35C45 1.675 43.8 0 42 0C40.5 0 39 1.34 39 3.35V6.7H33V3.35C33 1.675 31.8 0 30 0C28.2 0 27 1.34 27 3.35V6.7H21V3.35C21 1.675 19.8 0 18 0C16.2 0 15 1.34 15 3.35V6.7H12C8.7 6.7 6 9.715 6 13.4V16.75H3C1.2 16.75 0 18.09 0 20.1C0 21.775 1.2 23.45 3 23.45H6V30.15H3C1.2 30.15 0 31.49 0 33.5C0 35.175 1.2 36.85 3 36.85H6V43.55H3C1.2 43.55 0 44.89 0 46.9C0 48.575 1.2 50.25 3 50.25H6V53.6C6 57.285 8.7 60.3 12 60.3H15V63.65C15 65.325 16.2 67 18 67C19.8 67 21 65.66 21 63.65V60.3H27V63.65C27 65.325 28.2 67 30 67C31.8 67 33 65.66 33 63.65V60.3H39V63.65C39 65.325 40.2 67 42 67C43.5 67 45 65.66 45 63.65V60.3H48C51.3 60.3 54 57.285 54 53.6V50.25H57C58.8 50.25 60 48.91 60 46.9C60 45.225 58.8 43.55 57 43.55H54V36.85H57V36.85ZM48 53.6H12V13.4H48V53.6Z" fill="#FFA500"/>
</svg>
