<svg width="489" height="229" viewBox="0 0 489 229" fill="none" xmlns="http://www.w3.org/2000/svg">
<path opacity="0.28" d="M31.2154 228.269C31.2154 228.269 4.43822 158.817 43.6115 117.349C94.1403 63.8617 159.434 108.57 183.935 107.267C208.437 105.965 209.803 54.6426 283.019 48.5121C339.62 43.7715 432.574 43.3986 412.743 127.247C397.667 190.999 481.554 157.978 465.219 228.403L31.2154 228.269Z" fill="#FFAA71"/>
<path d="M488.323 227.552H0.677205C0.303195 227.552 0 227.856 0 228.231V228.234C0 228.609 0.303195 228.913 0.677205 228.913H488.323C488.697 228.913 489 228.609 489 228.234V228.231C489 227.856 488.697 227.552 488.323 227.552Z" fill="#263252"/>
<path d="M88.4901 138.573L90.1177 139.898C90.1177 139.898 94.5733 138.296 95.576 143.602C95.576 143.602 95.8434 145.863 94.4134 145.866C92.9834 145.868 93.588 145.618 91.5535 145.688C89.5189 145.758 87.8535 144.677 87.5571 143.031L86.5892 141.638L88.4901 138.573Z" fill="#FF8E4B"/>
<path d="M88.3069 141.416C89.6061 140.056 89.5015 139.05 89.5015 139.05C89.5015 139.05 74.4605 126.708 72.9346 125.703C71.897 125.018 60.8205 115.172 55.6441 109.173C53.0748 106.195 49.8922 107.349 46.2534 108.398L43.2568 109.272C39.6383 110.312 38.6966 115.391 41.667 117.853C50.0288 124.785 63.9421 132.596 66.5579 134.237C73.0218 138.316 85.6707 143.156 85.6707 143.156C86.6558 142.757 87.5519 142.166 88.3069 141.416Z" fill="#003B72"/>
<path d="M105.47 217.255C105.47 217.255 109.12 219.997 114.712 218.548C114.712 218.548 119.22 217.52 120.211 219.772C120.211 219.772 113.294 223.295 111.544 224.259C110.224 225.041 108.994 225.965 107.876 227.016C107.694 227.18 107.48 227.306 107.248 227.385C107.015 227.464 106.769 227.495 106.525 227.476C106.28 227.457 106.042 227.388 105.824 227.274C105.607 227.16 105.415 227.003 105.26 226.812C104.955 226.439 104.606 225.99 104.226 225.471C103.159 224.015 100.674 219.353 100.674 219.353L105.47 217.255Z" fill="#0C3563"/>
<path d="M107.612 215.862C107.612 215.862 105.388 220.999 100.258 220.055C100.258 220.055 89.7951 211.389 82.6103 202.386C80.2851 199.472 78.2913 196.503 77.1258 193.793C72.365 182.742 59.5127 166.256 51.3397 157.902L71.7896 150.487C71.7896 150.487 78.3378 163.695 87.0514 179.915C93.3235 191.602 100.726 204.854 107.612 215.862Z" fill="#0D458D"/>
<path d="M108.803 118.319C108.938 117.067 108.978 115.807 108.922 114.549C108.909 114.269 108.979 113.992 109.123 113.752C109.268 113.512 109.48 113.321 109.733 113.203L115.77 110.394C116.083 110.248 116.329 109.99 116.462 109.671C116.594 109.351 116.602 108.994 116.485 108.669L114.401 102.923C114.288 102.612 114.063 102.353 113.772 102.198C113.48 102.042 113.141 101.999 112.82 102.078L106.865 103.535C106.58 103.604 106.28 103.581 106.01 103.468C105.739 103.356 105.511 103.16 105.359 102.908C103.998 100.681 102.292 98.6856 100.305 96.9965C100.069 96.7955 99.9066 96.5211 99.8439 96.217C99.7812 95.9129 99.8217 95.5966 99.9589 95.3182L101.607 91.9587C101.758 91.6492 101.791 91.2946 101.697 90.9628C101.604 90.631 101.392 90.3454 101.101 90.1609L95.9945 86.915C95.7022 86.729 95.3508 86.6599 95.01 86.7215C94.6693 86.783 94.364 86.9706 94.1547 87.2472L90.5711 91.9674C87.9643 91.3071 85.2677 91.0768 82.587 91.2856C82.3093 91.3089 82.0311 91.2462 81.7899 91.1061C81.5488 90.9659 81.3563 90.755 81.2384 90.5018L78.9801 85.6213C78.8311 85.2998 78.5673 85.0459 78.2406 84.9099C77.9139 84.774 77.5483 84.7658 77.2159 84.8871L71.589 86.9267C71.2581 87.0473 70.9833 87.2863 70.8175 87.5977C70.6517 87.9091 70.6066 88.271 70.6909 88.6137L71.9116 93.605C71.9818 93.8842 71.9636 94.1784 71.8594 94.4468C71.7552 94.7152 71.5703 94.9444 71.3303 95.1026C69.743 96.1333 68.2801 97.3448 66.9706 98.7127C66.7648 98.9283 66.4959 99.0728 66.2028 99.1251C65.9097 99.1775 65.6076 99.1351 65.3401 99.0041L59.8731 96.3409C59.5632 96.1889 59.2082 96.1569 58.8763 96.251C58.5443 96.3451 58.2586 96.5587 58.074 96.8509L54.8507 101.947C54.6626 102.245 54.5929 102.603 54.6553 102.95C54.7178 103.296 54.9078 103.607 55.1879 103.82L60.4776 107.859C60.6948 108.025 60.8578 108.253 60.9458 108.512C61.0338 108.771 61.0428 109.051 60.9717 109.316C60.6485 110.543 60.4183 111.792 60.2829 113.054C60.2112 113.734 60.1666 114.408 60.1492 115.076C60.1411 115.345 60.0593 115.606 59.9126 115.83C59.7659 116.055 59.5601 116.235 59.3179 116.349L53.505 119.048C53.1941 119.193 52.9487 119.45 52.8169 119.767C52.6852 120.085 52.6766 120.44 52.7929 120.764L54.8536 126.437C54.9739 126.769 55.2126 127.046 55.5238 127.212C55.835 127.379 56.1967 127.425 56.5394 127.34L61.2594 126.175C61.5631 126.099 61.8834 126.128 62.1687 126.257C62.454 126.386 62.6876 126.607 62.8318 126.886C63.9977 129.144 65.5056 131.208 67.302 133.004C67.512 133.212 67.6516 133.481 67.7012 133.773C67.7507 134.064 67.7076 134.364 67.5781 134.63L65.1686 139.546C65.0127 139.864 64.9795 140.229 65.0755 140.571C65.1715 140.912 65.39 141.206 65.6889 141.396L70.7636 144.618C71.0564 144.805 71.4082 144.874 71.7495 144.812C72.0907 144.751 72.3965 144.563 72.6063 144.286L76.1492 139.662C76.3254 139.432 76.5668 139.261 76.8418 139.172C77.1169 139.082 77.4124 139.079 77.6896 139.161C79.0746 139.567 80.4927 139.849 81.9273 140.003C82.712 140.087 83.4871 140.134 84.2524 140.146C84.5154 140.149 84.772 140.227 84.9927 140.37C85.2133 140.514 85.389 140.717 85.4993 140.956L87.7925 145.909C87.9422 146.235 88.2088 146.491 88.539 146.629C88.8691 146.766 89.2388 146.773 89.5742 146.649L95.2098 144.595C95.5332 144.475 95.8011 144.239 95.962 143.933C96.1229 143.627 96.1655 143.273 96.0817 142.937L95.1081 138.957C95.0321 138.652 95.0608 138.331 95.1895 138.044C95.3181 137.758 95.5393 137.523 95.8172 137.378C98.7012 135.865 101.257 133.793 103.336 131.282C103.535 131.042 103.808 130.876 104.113 130.811C104.417 130.746 104.734 130.786 105.013 130.924L109.411 133.089C109.72 133.241 110.074 133.273 110.406 133.18C110.737 133.086 111.022 132.873 111.207 132.582L114.427 127.489C114.616 127.189 114.686 126.829 114.624 126.48C114.561 126.132 114.371 125.819 114.09 125.603L109.013 121.728C108.806 121.57 108.647 121.358 108.555 121.114C108.462 120.87 108.44 120.606 108.489 120.35C108.631 119.684 108.735 119.007 108.803 118.319ZM89.702 127.964C77.0183 132.509 66.4824 119.295 73.7688 107.859C74.8646 106.143 77.3293 104.156 79.2359 103.45C91.9342 98.7652 102.551 111.915 95.4045 123.36C94.2739 125.175 91.7075 127.244 89.702 127.964Z" fill="#FFAA71"/>
<path d="M87.0455 179.915L82.6103 202.386C80.2851 199.472 78.2913 196.503 77.1258 193.793C72.365 182.742 59.5127 166.256 51.3397 157.902L71.7896 150.487C71.7896 150.487 78.332 163.695 87.0455 179.915Z" fill="#0C3563"/>
<path d="M70.3363 220.238C70.3363 220.238 70.1154 224.335 75.0709 224.883C75.0709 224.883 78.0646 224.944 78.0704 227.552H63.5032C63.5032 227.552 63.0847 226.5 62.983 224.248C62.9045 222.517 64.6571 217.989 64.6571 217.989L70.3363 220.238Z" fill="#0C3563"/>
<path d="M65.0785 150.487C65.0785 150.487 74.1874 160.522 79.9683 178.595C83.1247 188.429 74.2019 213.155 72.4638 221.736C72.4638 221.736 66.4882 222.243 62.3988 220.658C62.3988 220.658 62.0907 202.916 64.4798 189.239C65.8168 181.585 52.4877 172.87 46.6632 159.041C42.7017 149.633 47.5206 149.793 53.4469 149.566L65.0785 150.487Z" fill="#0D458D"/>
<path d="M54.5658 105.726C49.4969 108.596 39.1237 105.95 39.1237 105.95C39.1237 105.95 43.3352 101.122 41.4228 93.3456L45.4017 95.3707L49.6742 97.5472C49.9001 98.8217 50.0563 100.108 50.1421 101.399C50.1915 102.034 50.2351 102.742 50.2671 103.517C51.8221 103.985 53.2789 104.734 54.5658 105.726Z" fill="#FFB079"/>
<path d="M73.1469 149.968C73.1469 150.863 72.1209 151.288 71.9029 151.332C69.8684 151.708 64.1514 153.934 59.0098 154.444C54.6821 154.898 50.6625 154.467 46.2476 153.569C45.6663 153.45 44.2915 153.08 44.1927 152.518C44.0707 151.906 27.1638 117.961 40.3068 103.381C40.6149 103.04 43.2133 103.654 45.582 104.22C47.5832 104.694 49.6826 104.523 51.5809 103.73L53.8044 104.896C56.5365 106.422 61.707 111.848 62.3145 116.102C62.6051 118.267 63.8549 119.869 64.2124 121.772C64.3461 122.477 64.4798 123.165 64.6193 123.835C64.8867 125.152 65.1638 126.404 65.4506 127.591C66.2237 130.81 67.0404 133.581 67.8426 135.976C68.6942 138.517 69.5312 140.638 70.2782 142.387C71.246 144.68 72.0657 146.393 72.5772 147.707C72.9521 148.657 73.1469 149.382 73.1469 149.968Z" fill="#323657"/>
<path d="M72.5772 147.727C48.7094 136.454 40.4434 114.802 40.4434 114.802C40.4434 114.802 59.8353 121.976 64.6193 123.835C64.8867 125.152 65.1638 126.404 65.4506 127.591C66.2237 130.81 67.0404 133.581 67.8426 135.976C68.6942 138.517 69.5313 140.638 70.2782 142.386C71.2461 144.706 72.0802 146.419 72.5772 147.727Z" fill="#323657"/>
<path d="M86.5427 141.201L88.6063 141.958C88.6063 141.958 92.7363 139.03 95.3056 143.791C95.3056 143.791 96.2357 145.871 94.765 146.323C93.2944 146.775 93.8292 146.349 91.7569 147.043C89.6846 147.736 87.65 147.235 86.8682 145.752L85.4673 144.72L86.5427 141.201Z" fill="#FFB079"/>
<path d="M88.24 144.123C89.0015 142.13 89.3503 141.227 89.3503 141.227C89.3503 141.227 73.7658 128.497 72.176 127.398C71.0948 126.653 60.3235 118.581 55.0686 112.291C53.791 110.759 52.1219 109.604 50.2398 108.95C48.3577 108.296 46.3337 108.168 44.3845 108.579L41.1118 109.266C40.223 109.454 39.4044 109.887 38.7484 110.516C38.0924 111.146 37.6254 111.947 37.4 112.829C37.1747 113.711 37.2001 114.639 37.4734 115.507C37.7467 116.375 38.257 117.15 38.9465 117.742C47.5758 125.161 62.1342 133.768 64.8459 135.551C71.586 139.994 86.4874 146.218 86.4874 146.218C87.3084 145.759 87.9322 145.014 88.24 144.123Z" fill="#323657"/>
<path d="M50.1422 101.399C45.1606 101.691 41.9199 97.553 41.9199 97.553C43.1191 96.8905 44.2833 96.1659 45.4076 95.3823L49.6801 97.5589C49.9037 98.8296 50.0579 100.112 50.1422 101.399Z" fill="#FF8E4B"/>
<path d="M52.2668 96.2564C52.2668 96.2564 44.7101 101.691 41.4141 96.9237C38.1182 92.1568 34.9124 89.6393 39.5947 85.9797C44.277 82.3201 46.483 83.471 47.9711 84.7909C49.4592 86.1108 54.1444 94.7209 52.2668 96.2564Z" fill="#FFB079"/>
<path d="M48.7675 80.4874C48.6166 79.4129 48.3233 78.3635 47.8955 77.3668C47.8955 77.3668 47.4218 79.3335 43.8265 79.0626C40.2312 78.7916 34.5549 79.4151 32.6599 83.5147C32.5398 83.7731 32.4322 84.0411 32.3373 84.3189C32.1036 83.5825 31.9601 82.8203 31.91 82.0491C31.2299 83.8119 31.91 86.0176 31.91 86.0176C31.91 86.0817 31.8897 86.1487 31.881 86.2128C31.0904 86.883 30.4277 88.9692 30.4277 88.9692C30.6661 88.3865 31.2474 88.0077 31.7676 87.7746C31.7676 90.9622 33.0406 94.0799 35.3048 95.0065C38.6152 96.3643 38.5891 95.3299 41.9199 97.5414C41.9199 97.5414 42.8122 96.4313 42.2105 95.6854C41.6089 94.9395 39.3041 93.8526 40.5858 92.7716C41.8676 91.6906 42.3297 92.9057 42.818 92.1598C43.3063 91.4138 40.923 89.246 43.9806 87.2064C47.0381 85.1668 49.0378 82.3201 48.7675 80.4874Z" fill="#2E2626"/>
<path d="M400.737 220.862C400.737 220.862 401.144 227.438 402.411 227.531C402.579 227.531 408.849 227.531 408.849 227.531H416.859C416.859 227.531 416.798 225.553 414.461 225.145C412.124 224.737 408.206 223.088 406.788 219.988C405.297 216.748 400.737 220.862 400.737 220.862Z" fill="#003261"/>
<path d="M369.045 166.815C370.184 168.937 371.462 170.981 372.87 172.934C377.078 178.872 381.659 183.77 382.461 188.4C382.641 189.404 382.889 190.394 383.202 191.363C383.533 192.424 383.946 193.54 384.423 194.691C386.207 199.03 388.878 203.89 391.547 208.307C396.15 215.947 400.487 222.319 400.487 222.319L408.439 221.94C408.119 221.049 404.66 210.504 400.01 197.619L394.197 181.457C393.941 180.74 393.683 180.026 393.427 179.321L391.683 174.487L383.859 152.751C383.859 152.751 366.449 145.379 364.641 150.158C363.156 154.097 364.368 157.955 369.045 166.815Z" fill="#323657"/>
<path d="M383.667 213.741C383.667 213.741 380.761 216.448 381.324 218.371C381.888 220.294 384.522 221.576 384.873 223.907C385.225 226.238 386.649 227.537 387.928 227.537H394.031C394.031 227.537 394.973 225.885 392.7 225.387C390.427 224.889 389.57 222.127 389.712 219.56C389.771 217.563 389.7 215.565 389.497 213.578L384.67 212.441L383.667 213.741Z" fill="#0C3563"/>
<path d="M386.242 151.844C386.242 151.844 404.553 181.632 404.553 184C404.553 189.245 390.712 219.423 390.712 219.423C390.712 219.423 383.368 215.533 383.661 212.8C383.661 212.8 388.067 191.614 389.349 188.211C390.631 184.807 366.214 171.973 364.923 156.469L386.242 151.844Z" fill="#333D66"/>
<path d="M395.223 136.527C395.223 136.527 399.001 138.68 400.056 138.68C401.112 138.68 405.265 137.876 406.422 138.47C407.578 139.065 409.674 141.445 410.066 142.226C410.773 143.628 407.221 143.007 405.544 141.815C405.424 141.729 405.287 141.668 405.143 141.638C404.998 141.608 404.848 141.609 404.704 141.641C403.832 141.83 402.03 142.159 401.158 141.836C399.995 141.402 393.808 140.918 393.808 140.918L395.223 136.527Z" fill="#FA9960"/>
<path d="M366.481 107.198C366.481 107.198 370.396 135.102 376.881 137.599C380.078 138.835 394.22 141.629 398.388 141.909C398.388 141.909 399.414 141.075 399.164 137.684C399.164 137.684 384.341 132.232 382.246 129.266C379.113 124.852 384.19 111.236 380.258 107.093C376.325 102.949 369.722 101.166 366.481 107.198Z" fill="#FF7E1C"/>
<path d="M381.789 105.441C376.558 106.795 367.879 101.944 367.879 101.944C367.879 101.944 371.248 99.6742 372.498 94.6859C372.559 94.4354 372.617 94.176 372.669 93.9138L375.357 93.3311L379.354 96.9208C379.241 98.2822 379.047 99.6356 378.773 100.974C378.685 101.422 378.587 101.9 378.482 102.413C379.76 103.211 380.881 104.237 381.789 105.441Z" fill="#FA9960"/>
<path d="M362.337 127.191C363.086 137.302 362.098 152.678 362.95 155.341C363.685 157.637 372.047 156.27 375.387 155.504C376.622 155.213 378.119 154.817 379.665 154.339C383.975 153.001 388.675 151.09 389.178 149.677C389.198 149.623 389.214 149.569 389.227 149.514C389.271 149.322 389.271 149.123 389.227 148.931C389.061 148.205 388.413 147.424 388.338 145.632C388.251 143.634 388.265 141.279 388.19 138.747C388.19 138.456 388.19 138.15 388.149 137.873V137.608C388.076 134.785 387.928 131.816 387.756 128.867C387.649 127.017 387.524 125.187 387.379 123.433C387.004 118.902 386.507 114.875 385.824 112.329C384.728 108.179 382.313 105.473 380.112 103.488L378.52 102.119C376.563 102.496 374.538 102.226 372.748 101.35C370.693 100.371 369.983 99.6684 369.626 99.9336C364.865 103.584 361.45 114.834 362.337 127.191Z" fill="#FF973D"/>
<path d="M379.665 154.336C383.975 152.998 388.675 151.087 389.178 149.674C389.198 149.621 389.214 149.566 389.227 149.511C389.227 149.313 389.227 149.114 389.227 148.928C389.062 148.202 388.413 147.422 388.338 145.63C388.251 143.631 388.265 141.276 388.19 138.744C388.19 138.453 388.19 138.147 388.149 137.87V137.605L370.71 115.341C370.71 115.341 358.986 139.779 379.665 154.336Z" fill="#FF7E1C"/>
<path d="M379.354 96.9236C379.241 98.285 379.047 99.6384 378.773 100.977C374.866 99.7121 373.096 96.1777 372.506 94.6771C372.567 94.4266 372.625 94.1672 372.678 93.905L375.366 93.3223L379.354 96.9236Z" fill="#EB8D5A"/>
<path d="M379.874 99.1847C379.874 99.1847 371.358 97.7599 372.317 92.4569C373.277 87.154 372.835 83.4011 378.313 84.0858C383.792 84.7705 384.475 86.9995 384.58 88.8352C384.684 90.6708 382.118 99.4178 379.874 99.1847Z" fill="#FA9960"/>
<path d="M413.388 144.557L414.139 144.802L420.531 125.093L419.78 124.847L413.388 144.557Z" fill="#2776CE"/>
<path d="M392.448 144.351L414.137 144.814L414.164 143.512L392.476 143.049L392.448 144.351Z" fill="#2776CE"/>
<path d="M392.892 145.367C392.892 145.367 399.868 147.209 402.483 147.016C405.099 146.824 407.27 145.577 407.602 144.927C407.933 144.278 408.619 143.121 406.84 143.333C405.061 143.546 402.632 143.916 402.556 143.584C402.481 143.252 404.009 143.275 404.009 143.275C404.009 143.275 404.471 142.602 403.89 142.579C403.309 142.556 401.617 142.092 400.984 142.407C400.35 142.722 399.775 143.887 399.315 143.838C398.856 143.788 393.482 141.413 393.482 141.413L392.892 145.367Z" fill="#FA9960"/>
<path d="M368.208 108.343C368.208 108.343 369.033 136.51 375.204 139.709C378.247 141.288 391.994 145.63 396.13 146.37C396.13 146.37 397.24 145.656 397.365 142.258C397.365 142.258 383.24 135.201 381.473 132.02C378.857 127.288 385.388 114.316 381.938 109.762C378.488 105.207 372.096 102.707 368.208 108.343Z" fill="#FF973D"/>
<path d="M372.498 94.6772C372.498 94.6772 372.399 92.8591 373.518 91.8159C373.518 91.8159 373.128 89.992 373.849 89.6918C374.57 89.3917 374.721 90.9244 375.047 90.6825C375.372 90.4407 376.849 89.3014 377.476 87.6173C378.104 85.9331 383.871 87.9727 384.542 88.2758C385.213 88.5788 387.373 87.4658 387.794 86.5654C387.16 86.0614 386.576 85.4974 386.05 84.8813C385.51 84.1587 381.731 79.2899 376.459 80.6739C371.187 82.0579 370.463 84.5812 370.762 86.7461C371.062 88.911 370.335 93.9517 372.498 94.6772Z" fill="#2E2626"/>
<path d="M364.066 155.793L347.572 145.831C346.902 145.417 346.36 144.826 346.004 144.124C345.648 143.421 345.493 142.633 345.555 141.848C345.723 139.806 345.807 137.742 345.807 135.656C345.818 131.851 345.527 128.051 344.936 124.292C344.796 123.455 344.912 122.594 345.269 121.824C345.625 121.054 346.205 120.409 346.932 119.974L364.179 109.558C365.074 109.021 365.734 108.165 366.026 107.161C366.318 106.157 366.221 105.079 365.754 104.144L357.643 87.5852C357.197 86.6847 356.438 85.9794 355.508 85.6034C354.579 85.2274 353.544 85.2068 352.6 85.5456L335.181 91.8858C334.349 92.1992 333.438 92.233 332.586 91.9824C331.733 91.7317 330.984 91.2101 330.453 90.496C325.636 84.2585 319.863 78.8267 313.348 74.4035C312.581 73.8702 312.01 73.098 311.726 72.2066C311.441 71.3152 311.457 70.3544 311.773 69.4735L315.641 58.8588C315.99 57.8751 315.969 56.7977 315.583 55.8284C315.196 54.8591 314.469 54.0645 313.54 53.5937L297.13 45.5459C296.805 45.377 296.458 45.2563 296.098 45.1876C295.261 45.0155 294.391 45.1097 293.609 45.457C292.828 45.8043 292.174 46.3875 291.739 47.1252L284.298 59.4706L282.493 62.4834C279.054 61.9915 275.585 61.7452 272.111 61.7463C267.473 61.7421 262.844 62.1723 258.285 63.0312C257.458 63.1936 256.601 63.0967 255.83 62.7537C255.059 62.4107 254.413 61.8382 253.978 61.114L245.596 47.1805C245.046 46.265 244.173 45.5899 243.15 45.2893C242.127 44.9887 241.029 45.0844 240.073 45.5576L227.445 51.7726L223.832 53.5645C222.876 54.0311 222.126 54.8356 221.727 55.8232C221.327 56.8108 221.306 57.9117 221.667 58.9141L226.942 73.5119C227.249 74.323 227.292 75.2107 227.066 76.048C226.839 76.8853 226.354 77.6294 225.681 78.1739C221.582 81.524 217.854 85.3053 214.561 89.4529C214.263 89.7818 213.982 90.1261 213.721 90.4843C213.635 90.6061 213.537 90.7193 213.43 90.8223C212.861 91.4274 212.127 91.8501 211.319 92.0373C210.511 92.2245 209.666 92.1677 208.89 91.8742L191.681 85.6184C191.493 85.5438 191.298 85.4872 191.1 85.4494C190.183 85.2661 189.231 85.3894 188.391 85.8005C187.551 86.2116 186.869 86.8877 186.449 87.7251L178.422 104.115C177.955 105.071 177.862 106.168 178.162 107.189C178.461 108.211 179.132 109.083 180.041 109.633L197.25 120.018C197.964 120.443 198.533 121.075 198.882 121.831C199.231 122.587 199.343 123.431 199.203 124.252C198.624 128.03 198.332 131.847 198.331 135.67C198.331 137.733 198.415 139.773 198.584 141.789C198.65 142.596 198.49 143.405 198.123 144.126C197.755 144.847 197.194 145.45 196.503 145.868L179.936 155.895C179.05 156.43 178.396 157.279 178.105 158.274C177.813 159.268 177.904 160.337 178.361 161.267L186.409 177.634C186.881 178.595 187.692 179.346 188.684 179.742C189.677 180.138 190.781 180.151 191.783 179.778L205.568 174.764C206.459 174.437 207.434 174.419 208.337 174.713C209.24 175.007 210.018 175.597 210.547 176.387C214.777 182.803 219.973 188.524 225.951 193.345C226.65 193.899 227.156 194.661 227.396 195.522C227.635 196.383 227.597 197.298 227.285 198.135L221.655 213.68C221.294 214.688 221.314 215.795 221.714 216.79C222.113 217.784 222.863 218.597 223.821 219.073L240.097 227.1C241.036 227.564 242.115 227.656 243.119 227.36C244.123 227.063 244.979 226.398 245.517 225.498L245.959 224.781L254.606 210.437C255.053 209.689 255.718 209.097 256.511 208.74C257.303 208.382 258.186 208.275 259.041 208.435H259.061C263.361 209.209 267.72 209.599 272.088 209.6C274.463 209.6 276.797 209.475 279.128 209.262C279.916 209.177 280.713 209.318 281.425 209.669C282.137 210.02 282.734 210.568 283.147 211.247L291.637 225.381C292.194 226.313 293.079 227.001 294.118 227.309C295.157 227.617 296.274 227.523 297.246 227.045L313.523 219.02C313.965 218.795 314.37 218.499 314.72 218.146C315.257 217.572 315.627 216.861 315.79 216.09C315.953 215.32 315.903 214.519 315.644 213.776L311.401 202.121C311.154 201.421 311.092 200.67 311.221 199.939C311.35 199.208 311.665 198.524 312.136 197.951C312.392 197.648 312.685 197.379 313.008 197.15C321.196 191.672 328.212 184.611 333.644 176.381C334.091 175.7 334.727 175.166 335.474 174.843C336.221 174.521 337.046 174.426 337.847 174.569C338.082 174.611 338.314 174.675 338.538 174.758L352.472 179.834C353.45 180.188 354.524 180.17 355.489 179.781C356.454 179.392 357.242 178.661 357.704 177.727L357.893 177.348L365.74 161.381C366.207 160.408 366.295 159.295 365.985 158.261C365.675 157.227 364.991 156.346 364.066 155.793ZM233.857 124.301C234.691 121.329 235.799 118.442 237.167 115.676C239.899 110.178 246.645 103.375 252.15 100.656C252.731 100.365 253.327 100.073 253.914 99.8141C289.931 83.5934 324.666 119.045 307.204 155.175C304.914 159.892 299.851 165.431 294.91 168.869C293.84 169.612 292.717 170.273 291.55 170.848C286.872 173.165 281.833 174.662 276.651 175.274C248.874 178.374 226.012 152.78 233.851 124.301H233.857Z" fill="#FFAA71"/>
<path d="M365.711 211.538L362.031 209.312C361.884 209.221 361.764 209.092 361.684 208.938C361.605 208.784 361.569 208.611 361.581 208.438C361.616 207.983 361.636 207.523 361.636 207.057C361.639 206.208 361.575 205.36 361.444 204.522C361.413 204.335 361.438 204.143 361.518 203.972C361.597 203.8 361.727 203.657 361.889 203.56L365.734 201.229C365.934 201.109 366.081 200.918 366.147 200.694C366.212 200.47 366.19 200.229 366.086 200.02L364.275 196.325C364.177 196.124 364.007 195.966 363.8 195.882C363.592 195.798 363.361 195.794 363.15 195.871L359.264 197.284C359.079 197.355 358.876 197.362 358.685 197.307C358.495 197.251 358.328 197.135 358.209 196.975C357.134 195.582 355.845 194.37 354.39 193.383C354.219 193.263 354.092 193.091 354.028 192.892C353.964 192.693 353.968 192.478 354.039 192.281L354.911 189.912C354.986 189.694 354.981 189.456 354.895 189.242C354.808 189.027 354.648 188.852 354.443 188.747L350.778 186.949C350.705 186.912 350.628 186.886 350.548 186.87C350.361 186.832 350.167 186.853 349.992 186.93C349.818 187.007 349.672 187.137 349.574 187.302L347.915 190.058L347.511 190.731C345.71 190.471 343.878 190.512 342.09 190.851C341.905 190.886 341.714 190.864 341.542 190.788C341.37 190.711 341.226 190.584 341.128 190.422L339.262 187.313C339.14 187.109 338.945 186.958 338.716 186.891C338.488 186.825 338.243 186.846 338.03 186.952L335.211 188.339L334.406 188.738C334.192 188.842 334.024 189.022 333.934 189.242C333.845 189.463 333.84 189.709 333.92 189.933L335.083 193.19C335.152 193.372 335.161 193.572 335.109 193.76C335.056 193.947 334.945 194.113 334.792 194.233C333.88 194.981 333.049 195.822 332.313 196.745C332.243 196.821 332.185 196.897 332.124 196.975C332.106 197.003 332.084 197.028 332.06 197.051C331.933 197.186 331.769 197.28 331.588 197.322C331.408 197.364 331.219 197.352 331.046 197.287L327.206 195.888C327.163 195.873 327.12 195.861 327.075 195.851C326.871 195.81 326.658 195.838 326.471 195.93C326.283 196.022 326.131 196.173 326.038 196.36L324.247 200.017C324.143 200.231 324.122 200.476 324.188 200.704C324.255 200.932 324.405 201.127 324.608 201.25L328.447 203.581C328.607 203.675 328.735 203.817 328.812 203.986C328.89 204.155 328.915 204.344 328.883 204.528C328.756 205.37 328.692 206.222 328.691 207.074C328.691 207.535 328.712 207.992 328.75 208.444C328.763 208.623 328.727 208.803 328.645 208.963C328.563 209.123 328.438 209.257 328.285 209.35L324.588 211.588C324.39 211.708 324.245 211.898 324.18 212.12C324.115 212.342 324.135 212.58 324.236 212.788L326.032 216.439C326.136 216.654 326.317 216.823 326.538 216.912C326.759 217.001 327.006 217.005 327.229 216.923L330.304 215.804C330.504 215.731 330.722 215.728 330.924 215.794C331.125 215.86 331.299 215.991 331.418 216.168C332.36 217.601 333.519 218.879 334.853 219.956C335.007 220.081 335.119 220.251 335.171 220.443C335.223 220.635 335.214 220.839 335.144 221.025L333.885 224.495C333.805 224.721 333.81 224.968 333.9 225.19C333.989 225.411 334.157 225.593 334.371 225.699L338.004 227.488C338.213 227.592 338.454 227.613 338.678 227.548C338.902 227.482 339.093 227.333 339.213 227.132L339.312 226.972L341.239 223.767C341.339 223.6 341.487 223.468 341.664 223.388C341.842 223.308 342.039 223.285 342.23 223.321C343.189 223.493 344.162 223.58 345.136 223.58C345.665 223.58 346.185 223.551 346.706 223.505C346.882 223.486 347.059 223.518 347.218 223.597C347.376 223.676 347.509 223.799 347.601 223.95L349.496 227.106C349.621 227.313 349.819 227.466 350.051 227.535C350.282 227.603 350.531 227.582 350.749 227.476L354.379 225.684C354.477 225.633 354.568 225.567 354.646 225.489C354.766 225.36 354.849 225.201 354.885 225.028C354.922 224.856 354.91 224.676 354.852 224.51L353.905 221.911C353.85 221.755 353.836 221.587 353.865 221.423C353.893 221.26 353.963 221.107 354.068 220.979C354.127 220.912 354.193 220.852 354.265 220.801C356.094 219.578 357.66 218.002 358.872 216.165C358.972 216.013 359.114 215.893 359.281 215.821C359.448 215.749 359.632 215.728 359.811 215.76C359.864 215.77 359.915 215.784 359.965 215.804L363.072 216.937C363.29 217.015 363.528 217.01 363.743 216.923C363.957 216.836 364.132 216.673 364.234 216.465L364.278 216.381L366.022 212.817C366.142 212.604 366.177 212.353 366.119 212.116C366.061 211.878 365.915 211.672 365.711 211.538ZM336.646 204.507C336.833 203.845 337.081 203.201 337.388 202.584C338.172 201.178 339.33 200.018 340.733 199.233C340.864 199.166 340.994 199.105 341.125 199.044C349.165 195.425 356.916 203.339 353.018 211.401C352.35 212.618 351.412 213.664 350.275 214.458C350.036 214.622 349.785 214.769 349.525 214.898C348.481 215.414 347.356 215.748 346.2 215.885C344.742 216.052 343.265 215.854 341.901 215.309C340.537 214.765 339.329 213.891 338.384 212.766C337.438 211.64 336.785 210.298 336.483 208.858C336.18 207.418 336.237 205.925 336.649 204.513L336.646 204.507Z" fill="#FF973D"/>
<g opacity="0.28">
<path opacity="0.28" d="M486.463 142.716L480.94 139.385C480.717 139.247 480.535 139.05 480.416 138.815C480.297 138.58 480.245 138.316 480.266 138.054C480.32 137.368 480.348 136.678 480.35 135.982C480.352 134.714 480.255 133.447 480.06 132.194C480.012 131.915 480.05 131.627 480.169 131.369C480.288 131.112 480.482 130.897 480.725 130.752L486.489 127.256C486.788 127.076 487.009 126.789 487.107 126.453C487.205 126.117 487.173 125.757 487.018 125.443L484.303 119.907C484.154 119.606 483.901 119.37 483.59 119.244C483.279 119.119 482.933 119.112 482.617 119.225L476.804 121.347C476.526 121.451 476.222 121.461 475.936 121.377C475.651 121.293 475.401 121.119 475.223 120.88C473.613 118.794 471.682 116.978 469.503 115.499C469.246 115.321 469.055 115.062 468.959 114.764C468.864 114.466 468.869 114.144 468.974 113.85L470.268 110.298C470.381 109.97 470.371 109.613 470.242 109.292C470.113 108.97 469.872 108.707 469.564 108.549L464.077 105.86C463.969 105.803 463.852 105.762 463.731 105.741C463.452 105.685 463.162 105.717 462.902 105.833C462.642 105.948 462.424 106.142 462.278 106.387L459.79 110.516L459.186 111.524C458.036 111.359 456.876 111.276 455.715 111.277C454.164 111.276 452.616 111.42 451.091 111.708C450.812 111.764 450.523 111.733 450.263 111.618C450.003 111.504 449.784 111.311 449.638 111.067L446.839 106.405C446.654 106.099 446.362 105.875 446.02 105.774C445.677 105.674 445.31 105.706 444.99 105.863L440.767 107.943L439.558 108.541C439.241 108.699 438.992 108.968 438.858 109.298C438.725 109.627 438.717 109.994 438.835 110.33L440.599 115.213C440.704 115.485 440.719 115.783 440.644 116.065C440.568 116.346 440.404 116.596 440.177 116.778C438.807 117.894 437.56 119.155 436.46 120.539C436.355 120.653 436.271 120.767 436.169 120.886C436.139 120.926 436.106 120.963 436.07 120.997C435.881 121.2 435.635 121.341 435.365 121.404C435.095 121.467 434.813 121.448 434.553 121.349L428.796 119.257C428.733 119.232 428.668 119.213 428.601 119.202C428.294 119.141 427.976 119.182 427.696 119.32C427.415 119.457 427.187 119.683 427.046 119.962L424.363 125.443C424.206 125.763 424.174 126.13 424.274 126.473C424.374 126.815 424.599 127.107 424.904 127.291L430.659 130.764C430.898 130.906 431.089 131.117 431.205 131.37C431.322 131.623 431.36 131.905 431.313 132.18C431.12 133.444 431.022 134.721 431.022 136C431.022 136.691 431.05 137.371 431.106 138.039C431.128 138.308 431.074 138.578 430.951 138.818C430.829 139.059 430.642 139.26 430.412 139.4L424.872 142.754C424.576 142.933 424.358 143.217 424.26 143.55C424.163 143.883 424.193 144.24 424.346 144.551L427.037 150.026C427.195 150.347 427.465 150.598 427.796 150.732C428.127 150.865 428.495 150.873 428.83 150.752L433.44 149.074C433.738 148.965 434.064 148.959 434.366 149.057C434.668 149.155 434.928 149.352 435.106 149.615C436.52 151.762 438.257 153.675 440.256 155.289C440.49 155.473 440.66 155.727 440.741 156.015C440.822 156.302 440.81 156.608 440.706 156.888L438.823 162.089C438.701 162.426 438.707 162.797 438.841 163.13C438.974 163.462 439.226 163.734 439.547 163.893L444.993 166.576C445.308 166.732 445.669 166.763 446.005 166.663C446.341 166.564 446.627 166.341 446.807 166.04L446.955 165.801L449.844 161.002C449.994 160.753 450.216 160.555 450.481 160.435C450.746 160.315 451.041 160.279 451.326 160.332C452.765 160.59 454.224 160.72 455.686 160.72C456.48 160.72 457.259 160.679 458.04 160.609C458.304 160.581 458.571 160.629 458.808 160.747C459.046 160.865 459.246 161.049 459.383 161.276L462.223 166.005C462.41 166.315 462.706 166.544 463.053 166.647C463.399 166.75 463.772 166.719 464.097 166.562L469.538 163.878C469.686 163.803 469.822 163.704 469.939 163.587C470.117 163.394 470.239 163.157 470.293 162.901C470.347 162.644 470.332 162.378 470.247 162.13L468.844 158.217C468.763 157.983 468.742 157.731 468.785 157.487C468.828 157.243 468.932 157.014 469.088 156.821C469.173 156.72 469.27 156.63 469.378 156.553C472.118 154.722 474.465 152.36 476.281 149.607C476.452 149.343 476.707 149.146 477.004 149.048C477.302 148.949 477.624 148.955 477.918 149.065L482.568 150.763C482.894 150.88 483.252 150.872 483.573 150.742C483.894 150.612 484.157 150.369 484.312 150.058L484.376 149.93L486.992 144.589C487.149 144.267 487.183 143.897 487.085 143.551C486.987 143.205 486.766 142.908 486.463 142.716ZM442.909 132.183C443.189 131.19 443.561 130.225 444.02 129.301C444.932 127.462 447.188 125.187 449.03 124.278C449.228 124.179 449.423 124.088 449.612 123.986C461.659 118.561 473.276 130.42 467.437 142.503C466.67 144.082 464.975 145.935 463.324 147.083C462.966 147.332 462.59 147.553 462.2 147.745C460.635 148.521 458.949 149.021 457.215 149.225C447.935 150.271 440.288 141.711 442.909 132.183Z" fill="black"/>
</g>
<g opacity="0.28">
<path opacity="0.28" d="M225.919 38.8852L220.074 36.1696C219.837 36.056 219.636 35.8793 219.493 35.6589C219.349 35.4385 219.269 35.1827 219.26 34.9196C219.243 34.232 219.196 33.5443 219.124 32.8509C218.991 31.5862 218.757 30.3342 218.426 29.1067C218.351 28.833 218.359 28.5428 218.449 28.2738C218.54 28.0047 218.709 27.7691 218.935 27.5974L224.291 23.5182C224.57 23.3077 224.759 22.9992 224.82 22.6549C224.88 22.3106 224.809 21.9559 224.62 21.6622L221.327 16.4379C221.147 16.1554 220.871 15.9486 220.549 15.8568C220.228 15.765 219.884 15.7945 219.583 15.9396L214.017 18.6785C213.752 18.8121 213.45 18.8559 213.158 18.8034C212.865 18.7508 212.598 18.6048 212.395 18.3871C210.57 16.4861 208.455 14.8879 206.129 13.6523C205.855 13.5026 205.638 13.2665 205.511 12.9804C205.384 12.6944 205.355 12.3744 205.428 12.0702L206.332 8.40179C206.414 8.06182 206.369 7.70366 206.205 7.39497C206.041 7.08628 205.77 6.84845 205.443 6.7264L199.697 4.64309C199.583 4.59878 199.464 4.5713 199.342 4.5615C199.057 4.53303 198.77 4.59505 198.522 4.73881C198.274 4.88257 198.077 5.10082 197.959 5.36278L195.924 9.73337L195.43 10.7998C194.266 10.7619 193.101 10.8057 191.942 10.9309C190.399 11.0987 188.875 11.4089 187.388 11.8575C187.119 11.9418 186.831 11.9409 186.562 11.8549C186.294 11.7688 186.059 11.6018 185.888 11.3767L182.619 7.04982C182.403 6.76385 182.089 6.56946 181.737 6.50523C181.386 6.441 181.023 6.51163 180.721 6.70309L176.748 9.22638L175.608 9.9519C175.31 10.1437 175.092 10.4383 174.995 10.7801C174.898 11.1219 174.929 11.4875 175.082 11.8079L177.361 16.4699C177.494 16.7288 177.541 17.0235 177.496 17.3112C177.45 17.5989 177.314 17.8645 177.108 18.0695C175.862 19.332 174.755 20.725 173.806 22.2245C173.718 22.3445 173.637 22.469 173.562 22.5975C173.539 22.6416 173.511 22.6827 173.478 22.7198C173.311 22.9418 173.082 23.1092 172.82 23.201C172.559 23.2928 172.276 23.3048 172.007 23.2356L166.058 21.7787C165.992 21.7614 165.925 21.7497 165.857 21.7437C165.547 21.7189 165.238 21.7959 164.976 21.9631C164.713 22.1303 164.513 22.3785 164.404 22.6703L162.323 28.4104C162.202 28.7451 162.211 29.1131 162.347 29.4416C162.484 29.7702 162.739 30.0354 163.061 30.1848L169.165 33.017C169.417 33.1325 169.629 33.3221 169.773 33.5609C169.916 33.7996 169.984 34.0763 169.967 34.3544C169.91 35.6279 169.95 36.9038 170.086 38.1713C170.16 38.857 170.256 39.5369 170.377 40.2109C170.427 40.476 170.403 40.7499 170.307 41.002C170.211 41.2541 170.047 41.4745 169.833 41.6387L164.686 45.5722C164.411 45.7819 164.224 46.0876 164.163 46.4287C164.102 46.7698 164.172 47.1214 164.357 47.4137L167.621 52.5651C167.812 52.8669 168.108 53.0877 168.451 53.1855C168.794 53.2833 169.16 53.2512 169.481 53.0954L173.885 50.9305C174.169 50.7887 174.493 50.7469 174.804 50.8119C175.115 50.8769 175.395 51.0449 175.599 51.2889C177.235 53.2709 179.169 54.9853 181.331 56.3705C181.583 56.5296 181.778 56.7641 181.889 57.0408C182 57.3175 182.022 57.6223 181.95 57.9118L180.636 63.2847C180.551 63.6333 180.597 64.0011 180.765 64.3179C180.934 64.6346 181.213 64.8778 181.549 65.0009L187.251 67.0813C187.58 67.2006 187.942 67.1919 188.265 67.0571C188.588 66.9222 188.848 66.671 188.995 66.3529L189.117 66.0994L191.472 61.0149C191.594 60.7505 191.794 60.5298 192.045 60.3824C192.296 60.2351 192.586 60.1681 192.875 60.1904C194.333 60.2904 195.797 60.2612 197.25 60.103C198.04 60.0185 198.81 59.8903 199.575 59.7358C199.835 59.6802 200.105 59.6996 200.354 59.792C200.603 59.8843 200.821 60.0457 200.982 60.2574L204.324 64.6484C204.544 64.9369 204.863 65.1328 205.22 65.1974C205.576 65.2621 205.944 65.191 206.251 64.998L211.369 61.7434C211.508 61.6501 211.631 61.5361 211.735 61.4054C211.893 61.1938 211.991 60.9432 212.017 60.6805C212.044 60.4177 211.999 60.1526 211.887 59.9136L210.056 56.1927C209.949 55.9689 209.901 55.7211 209.918 55.4735C209.935 55.2259 210.015 54.9869 210.151 54.7796C210.226 54.6712 210.315 54.5732 210.416 54.4882C212.938 52.3697 215.012 49.7686 216.52 46.8368C216.643 46.5935 216.836 46.3922 217.073 46.258C217.31 46.1237 217.582 46.0626 217.854 46.0821C217.933 46.0876 218.012 46.1003 218.089 46.12L222.925 47.2971C223.262 47.3803 223.616 47.3374 223.923 47.1764C224.23 47.0154 224.467 46.7474 224.591 46.423L224.64 46.289L226.675 40.6975C226.797 40.3554 226.787 39.9798 226.647 39.6445C226.508 39.3092 226.248 39.0384 225.919 38.8852ZM181.485 33.1189C181.657 32.102 181.923 31.1032 182.279 30.1353C182.991 28.2093 184.987 25.7035 186.722 24.5992C186.906 24.4797 187.092 24.369 187.278 24.2554C198.671 17.5538 211.497 28.0928 206.989 40.7383C206.408 42.3904 204.911 44.4155 203.394 45.7354C203.064 46.0205 202.715 46.2814 202.348 46.5162C200.875 47.4544 199.253 48.1334 197.552 48.5238C188.426 50.5576 179.91 42.8741 181.485 33.1189Z" fill="black"/>
</g>
<path d="M261.433 203.843C261.589 204.016 261.692 204.23 261.731 204.46C261.769 204.689 261.74 204.925 261.648 205.139C261.337 206.014 260.308 206.966 259.111 207.928C258.96 208.05 258.82 208.164 258.704 208.269L258.614 208.35L258.544 208.415C257.428 209.443 257.849 209.679 255.847 211.771C253.562 214.152 251.99 214.195 251.542 213.977C251.164 213.793 251.935 212.52 252.786 211.11L252.908 210.903L253.248 210.32C254.245 208.613 253.99 207.811 253.754 205.268C253.562 203.202 250.557 193.724 250.557 193.724L254.934 192.969C254.934 192.969 256.251 200.515 257.704 201.678C258.48 202.296 259.349 202.304 260.096 202.765L260.25 202.861C260.686 203.135 261.083 203.465 261.433 203.843Z" fill="#FA9960"/>
<path d="M261.433 203.843C261.589 204.016 261.692 204.23 261.731 204.46C261.769 204.689 261.74 204.925 261.648 205.14C261.267 206.014 260.262 206.961 259.108 207.919C258.957 208.045 258.817 208.161 258.704 208.269L258.614 208.35L258.544 208.415C257.428 209.443 257.849 209.679 255.847 211.771C253.562 214.152 251.99 214.195 251.542 213.977C251.165 213.793 251.935 212.52 252.786 211.11C254.383 210.484 255.787 209.447 256.855 208.103C258.23 206.355 259.146 204.085 260.084 202.776L260.239 202.873C260.677 203.142 261.079 203.468 261.433 203.843Z" fill="#E25345"/>
<path d="M226.152 201.104C225.881 202.459 223.957 202.231 221.792 201.707C219.627 201.183 220.153 201.806 217.089 201.465C214.026 201.124 213.102 199.982 213.02 199.525C212.936 199.12 214.45 198.977 216.072 198.79L216.685 198.717C218.516 198.487 219.859 197.301 221.522 196.328C223.1 195.407 225.451 191.666 225.451 191.666L229.648 191.998C229.648 191.998 227.445 195.352 226.593 196.812C226.093 197.669 226.12 198.805 226.181 199.679C226.234 200.153 226.224 200.632 226.152 201.104Z" fill="#FA9960"/>
<path d="M221.806 201.707C219.656 201.18 220.167 201.806 217.104 201.465C214.04 201.124 213.116 199.982 213.035 199.525C212.95 199.12 214.465 198.977 216.086 198.79L216.101 198.823C217.41 199.66 218.92 200.127 220.472 200.174C222.55 200.227 224.751 199.63 226.184 199.653C226.237 200.132 226.226 200.616 226.152 201.092C225.881 202.459 223.957 202.232 221.806 201.707Z" fill="#E25345"/>
<path d="M235.493 139.292C235.493 139.292 234.493 136.836 233.391 136.734C232.29 136.632 228.791 136.084 228.541 136.585C228.291 137.086 228.541 138.89 229.29 139.543C230.04 140.195 234.694 141.247 234.694 141.247L235.493 139.292Z" fill="#FA9960"/>
<path d="M242.239 174.193L251.287 198.604C252.202 198.672 253.122 198.587 254.01 198.353C254.932 198.037 255.811 197.605 256.626 197.068C256.626 197.068 254.382 173.63 250.266 168.756C246.151 163.881 242.239 174.193 242.239 174.193Z" fill="#C33F3B"/>
<path d="M278.026 164.318C278.026 164.318 252.028 155.507 246.229 157.381C240.431 159.254 223.024 193.98 223.024 193.98C223.024 193.98 223.417 194.501 224.477 194.906C225.474 195.279 227.89 195.256 227.89 195.256C227.89 195.256 243.584 181.757 245.471 177.82C247.357 173.884 248.087 170.131 249.958 170.507C251.83 170.883 274.082 179.694 279.136 174.443C284.191 169.193 282.865 162.372 282.865 162.372L278.026 164.318Z" fill="#E25345"/>
<path d="M262.139 123.322C261.724 122.463 261.267 120.936 261.032 118.217C261.067 118.485 261.535 121.918 262.851 123.861C268.257 127.419 278.622 139.304 278.415 141.553C278.415 141.553 282.066 135.347 282.13 135.309C282.13 135.309 288.861 126.725 280.883 121.807C276.814 119.31 276.846 116.102 277.017 113.316C277.189 110.531 275.91 98.535 267.784 101.691C267.784 101.691 266.481 101.108 265.897 101.195C266.162 101.246 266.409 101.364 266.615 101.539C265.673 101.484 264.328 101.539 263.203 102.192C260.227 103.876 257.559 119.097 262.139 123.322Z" fill="#FFD255"/>
<path d="M263.171 124.036C263.145 124.051 265.787 125.423 267.766 124.878C269.632 124.368 270.85 121.944 270.824 121.938C270.036 121.781 269.807 120.691 269.824 116.012L269.467 116.081L263.459 117.276C263.459 117.276 263.596 119.17 263.601 120.956C263.616 122.457 263.514 123.876 263.171 124.036Z" fill="#FA9960"/>
<path d="M263.459 117.276C263.459 117.276 263.595 119.17 263.601 120.956C266.961 120.86 268.74 117.786 269.467 116.081L263.459 117.276Z" fill="#EB8D5A"/>
<path d="M270.088 115.426C270.088 115.426 271.85 112.637 272.271 110.251C272.562 108.547 271.707 102.233 265.377 103.142C264.103 103.32 262.884 103.782 261.811 104.494C260.439 105.423 258.454 107.434 260.672 112.943L261.253 114.805L270.088 115.426Z" fill="#D04339"/>
<path d="M262.337 118.966C262.337 118.966 270.301 119.097 270.301 114.132C270.301 109.167 271.338 105.837 266.258 105.542C261.177 105.248 260.192 107.142 259.788 108.8C259.384 110.458 260.268 118.803 262.337 118.966Z" fill="#FA9960"/>
<path d="M262.631 105.42C262.631 105.42 264.807 111.248 268.153 112.122C271.498 112.996 272.946 112.084 272.946 112.084C271.296 110.632 270.202 108.65 269.85 106.478C269.85 106.478 264.273 102.646 262.631 105.42Z" fill="#FFD255"/>
<path d="M263.171 105.892C263.171 105.892 261.543 107.195 261.136 108.459C260.73 109.724 260.555 112.329 259.805 112.247C259.805 112.247 258.163 108.287 260.009 106.047C261.974 103.663 263.171 105.892 263.171 105.892Z" fill="#FFD255"/>
<path d="M280.883 145.487C281.665 142.191 278.997 135.793 276.212 130.493C273.684 125.691 271.062 121.798 270.824 121.938C264.159 125.904 263.558 122.605 263.558 122.605C263.558 122.605 257.512 123.412 255.786 126.37C253.414 130.464 250.845 142.739 248.296 142.558C247.133 142.477 235.409 138.06 235.409 138.06C235.409 138.06 233.456 139.892 233.83 142.139C233.83 142.139 239.617 146.026 244.512 148.505C247.101 149.817 249.453 150.734 250.54 150.472C252.769 149.948 256.251 144.764 258.134 141.731C258.134 141.724 258.134 141.717 258.134 141.711C260.538 155.338 257.262 158.441 258.925 159.881C260.669 161.396 263.162 159.158 268.65 161.541C272.248 163.106 277.244 165.367 280.604 165.763C282.368 165.97 283.685 165.661 284.112 164.47C285.371 160.988 279.386 151.775 280.883 145.487Z" fill="#469DF0"/>
<path d="M264.104 115.968C264.104 115.968 263.956 116.597 262.389 116.501C262.389 116.501 261.075 116.419 261.116 115.726C261.116 115.714 262.392 115.222 264.104 115.968Z" fill="white"/>
<path d="M284.124 164.458C283.696 165.65 282.38 165.959 280.616 165.752C278.29 164.735 268.237 160.83 268.35 158.176C268.516 154.26 270.283 154.135 269.036 149.301C268.034 145.42 277.323 138.202 278.805 136.635C281.589 141.932 281.665 142.171 280.883 145.478C279.386 151.775 285.371 160.988 284.124 164.458Z" fill="#2776CE"/>
<path d="M258.134 141.719C256.251 144.767 252.769 149.951 250.54 150.46C249.441 150.723 247.101 149.805 244.512 148.494C246.321 148.919 248.19 149.017 250.034 148.785C251.967 148.599 252.528 146.224 255.582 142.666C257.55 140.373 258.035 140.956 258.134 141.719Z" fill="#2776CE"/>
<path d="M267.447 149.216C267.447 149.216 265.764 147.902 264.174 148.217C262.584 148.532 261.802 149.621 261.866 150.122C261.93 150.624 262.77 152.028 263.985 152.162C265.2 152.296 268.661 151.413 268.661 151.413L267.447 149.216Z" fill="#FA9960"/>
<path d="M270.824 121.938C270.824 121.938 277.308 122.337 279.543 125.475C282.703 129.893 288.19 147.926 286.693 152.048L266.97 151.967C266.97 151.967 266.49 149.726 267.156 148.642C267.821 147.558 278.628 145.81 279.128 145.309C279.627 144.808 272.916 135.56 272.916 134.059C272.916 132.559 270.824 121.938 270.824 121.938Z" fill="#469DF0"/>
<path d="M261.413 142.996H237.571L241.878 158.045H265.755L261.413 142.996Z" fill="#00448C"/>
<path d="M273.175 157.456H241.96V158.042H273.175V157.456Z" fill="#003261"/>
<path d="M251.371 150.277C251.287 150.011 251.125 149.777 250.905 149.606C250.686 149.435 250.419 149.334 250.142 149.318C250.024 149.312 249.907 149.335 249.802 149.385C249.696 149.436 249.604 149.513 249.536 149.609C249.468 149.704 249.425 149.816 249.412 149.933C249.398 150.05 249.414 150.168 249.458 150.277C249.543 150.542 249.705 150.776 249.925 150.946C250.145 151.117 250.411 151.217 250.688 151.233C250.805 151.239 250.921 151.216 251.027 151.165C251.132 151.115 251.223 151.038 251.291 150.943C251.359 150.848 251.402 150.737 251.416 150.62C251.43 150.504 251.415 150.386 251.371 150.277Z" fill="#003261"/>
<path d="M170.859 183.155H133.252C131.933 183.155 130.863 184.228 130.863 185.55V191.926C130.863 193.248 131.933 194.321 133.252 194.321H170.859C172.179 194.321 173.248 193.248 173.248 191.926V185.55C173.248 184.228 172.179 183.155 170.859 183.155Z" fill="#FF973D"/>
<path d="M173.248 190.766V191.932C173.246 192.566 172.993 193.174 172.546 193.623C172.098 194.071 171.492 194.324 170.859 194.327H133.25C132.617 194.324 132.011 194.071 131.564 193.622C131.117 193.174 130.865 192.566 130.863 191.932V190.676H172.562C172.794 190.673 173.025 190.703 173.248 190.766Z" fill="#FF7E1C"/>
<path d="M139.917 194.321L138.222 200.757L131.163 227.564H130.422L134.491 205.335C134.491 205.314 134.491 205.291 134.491 205.268L136.511 194.274L139.917 194.321Z" fill="#F3C6A6"/>
<path d="M139.917 194.321L138.222 200.757C138.124 200.804 135.025 202.404 134.514 205.253L136.534 194.26L139.917 194.321Z" fill="#D49D7A"/>
<path d="M173.248 227.564H172.507L166.755 205.74L165.447 200.786L163.753 194.35L167.139 194.292L168.301 200.577L169.173 205.285C169.173 205.308 169.173 205.332 169.173 205.352L173.248 227.564Z" fill="#F3C6A6"/>
<path d="M161.783 212.51C161.783 212.51 161.758 212.478 161.783 212.51V212.51Z" fill="#F3C6A6"/>
<path d="M168.284 200.547C167.281 202.081 166.75 203.877 166.755 205.711L165.447 200.757L163.753 194.321L167.139 194.263L168.284 200.547Z" fill="#D49D7A"/>
<path d="M125.701 57.5913C126.573 56.6793 127.169 57.0086 127.169 57.0086C127.169 57.0086 137.49 64.9776 138.475 65.5604C139.461 66.1431 152.88 66.5131 152.88 66.5131C152.88 66.5131 158.257 66.452 159.565 69.22C160.698 71.6238 159.899 73.6955 158.728 75.2164C158.042 76.1001 157.107 76.7565 156.045 77.1C154.982 77.4435 153.841 77.4583 152.769 77.1424C147.849 75.703 138.06 72.7718 136.229 71.6384C132.16 69.1413 124.792 59.1589 124.792 59.1589C124.97 58.573 125.282 58.0365 125.701 57.5913Z" fill="#039DAE"/>
<path d="M136.827 49.8728L131.663 46.761C131.453 46.6319 131.284 46.4474 131.173 46.2279C131.061 46.0084 131.013 45.7623 131.032 45.5168C131.084 44.8787 131.11 44.2319 131.11 43.5821C131.115 42.3939 131.025 41.2072 130.843 40.0332C130.799 39.7717 130.835 39.503 130.946 39.2623C131.057 39.0216 131.238 38.8201 131.465 38.6841L136.848 35.4266C137.128 35.2589 137.334 34.9913 137.426 34.6773C137.518 34.3634 137.488 34.0263 137.342 33.7337L134.819 28.556C134.68 28.2743 134.443 28.0536 134.153 27.9359C133.862 27.8182 133.539 27.8118 133.244 27.9179L127.8 29.8992C127.54 29.9968 127.256 30.0073 126.989 29.929C126.723 29.8507 126.489 29.6879 126.323 29.4651C124.819 27.5155 123.015 25.818 120.978 24.436C120.739 24.2691 120.561 24.0276 120.472 23.7489C120.383 23.4702 120.388 23.1699 120.487 22.8946L121.696 19.5788C121.804 19.2712 121.797 18.9348 121.676 18.632C121.556 18.3292 121.329 18.0807 121.039 17.9326L115.912 15.418C115.811 15.3665 115.702 15.3292 115.59 15.3073C115.328 15.2529 115.055 15.2821 114.81 15.3908C114.565 15.4995 114.36 15.6822 114.224 15.9134L111.899 19.7711L111.335 20.7123C110.26 20.5577 109.177 20.4798 108.091 20.4792C106.638 20.4802 105.188 20.6168 103.761 20.8871C103.502 20.9382 103.234 20.9082 102.994 20.8013C102.753 20.6945 102.551 20.5158 102.415 20.2898L99.7991 15.9396C99.6257 15.659 99.3546 15.453 99.0383 15.3615C98.7219 15.2699 98.383 15.2994 98.0872 15.4442L94.1402 17.3731L93.0067 17.9326C92.7081 18.0787 92.4739 18.3303 92.3489 18.6389C92.2239 18.9476 92.217 19.2916 92.3295 19.605L93.9774 24.165C94.0788 24.4206 94.0956 24.7021 94.0255 24.968C93.9554 25.2339 93.802 25.4703 93.588 25.6423C92.3093 26.6794 91.1458 27.8517 90.1177 29.1388C90.0248 29.2408 89.9374 29.3478 89.8561 29.4593C89.8274 29.4971 89.7963 29.5331 89.7631 29.5671C89.5854 29.756 89.3559 29.8881 89.1036 29.9467C88.8512 30.0053 88.5872 29.9877 88.3447 29.8963L82.9678 27.9412C82.9088 27.9171 82.8474 27.8995 82.7847 27.8888C82.4981 27.8304 82.2004 27.8685 81.9377 27.997C81.675 28.1255 81.4618 28.3374 81.3314 28.5997L78.8232 33.7191C78.6772 34.018 78.6482 34.3608 78.7418 34.6801C78.8354 34.9993 79.0448 35.2719 79.3289 35.4441L84.7058 38.687C84.9287 38.8202 85.1062 39.0178 85.2151 39.2538C85.324 39.4899 85.3592 39.7534 85.3162 40.0099C85.1359 41.191 85.0455 42.3843 85.0459 43.5792C85.0459 44.2221 85.072 44.8603 85.1244 45.4935C85.1446 45.7447 85.0946 45.9966 84.9802 46.2209C84.8657 46.4453 84.6912 46.6333 84.4762 46.7639L79.3027 49.8961C79.0257 50.063 78.8212 50.3281 78.7297 50.6388C78.6382 50.9496 78.6664 51.2835 78.8086 51.5745L81.3227 56.688C81.4691 56.9883 81.721 57.2236 82.0301 57.3489C82.3391 57.4743 82.6834 57.4807 82.9968 57.3669L87.3042 55.7994C87.5826 55.6968 87.8872 55.6911 88.1692 55.7831C88.4512 55.875 88.6942 56.0593 88.8592 56.3063C90.1809 58.3107 91.8046 60.0976 93.6723 61.6035C93.8908 61.7763 94.0492 62.0139 94.1249 62.2823C94.2005 62.5508 94.1896 62.8364 94.0937 63.0982L92.3324 67.9554C92.2197 68.2702 92.2261 68.6155 92.3504 68.9259C92.4747 69.2363 92.7082 69.4902 93.0067 69.6396L98.0959 72.1483C98.389 72.2934 98.726 72.3225 99.0395 72.2296C99.353 72.1367 99.6201 71.9287 99.7874 71.6471L99.927 71.4228L102.624 66.9414C102.764 66.7078 102.972 66.5228 103.22 66.4113C103.468 66.2998 103.744 66.2672 104.011 66.3179C105.354 66.5583 106.715 66.6792 108.08 66.6792C108.824 66.6792 109.55 66.6384 110.28 66.5743C110.526 66.5482 110.776 66.5929 110.998 66.7033C111.22 66.8137 111.407 66.9852 111.535 67.1979L114.186 71.6151C114.36 71.9041 114.635 72.1175 114.958 72.2135C115.28 72.3095 115.627 72.281 115.93 72.1337L121.01 69.6279C121.149 69.5564 121.276 69.463 121.385 69.3511C121.554 69.171 121.67 68.9483 121.721 68.7069C121.772 68.4656 121.757 68.2148 121.676 67.9816L120.348 64.3424C120.272 64.1238 120.253 63.8892 120.293 63.6611C120.333 63.4331 120.431 63.2192 120.577 63.04C120.658 62.9447 120.751 62.8604 120.853 62.7894C123.412 61.0784 125.604 58.8723 127.3 56.3005C127.439 56.0873 127.638 55.9199 127.872 55.8194C128.106 55.7188 128.364 55.6896 128.614 55.7353C128.688 55.7478 128.761 55.7673 128.832 55.7935L133.191 57.3786C133.497 57.4891 133.833 57.4831 134.135 57.3617C134.436 57.2403 134.683 57.012 134.828 56.7201L134.886 56.6035L137.333 51.6152C137.48 51.3138 137.51 50.9682 137.416 50.6461C137.323 50.3239 137.113 50.0482 136.827 49.8728ZM96.1369 40.0332C96.3998 39.1058 96.7471 38.2046 97.1745 37.3409C98.029 35.6247 100.136 33.4977 101.857 32.6498C102.04 32.5566 102.223 32.4721 102.409 32.3847C113.66 27.3177 124.513 38.3957 119.057 49.6805C118.342 51.1549 116.758 52.8856 115.215 53.9608C114.881 54.1922 114.53 54.3986 114.166 54.5785C112.706 55.3024 111.133 55.7695 109.515 55.9596C100.837 56.927 93.6955 48.9317 96.1427 40.0332H96.1369Z" fill="#FF973D"/>
<path d="M114.294 60.1962C114.294 60.1962 114.311 56.3734 113.712 55.2632C113.114 54.1531 111.73 52.7633 110.945 53.2062C110.161 53.649 109.919 57.3757 110.161 58.04C110.402 58.7043 112.195 61.2101 112.195 61.2101L114.294 60.1962Z" fill="#FFB27B"/>
<path d="M161.544 183.155C162.393 182.427 161.884 178.342 161.884 178.342C161.884 178.342 157.51 174.845 156.908 177.52C156.306 180.195 152.752 181.413 150.726 181.742C149.377 181.961 148.93 182.692 148.779 183.155H161.544Z" fill="#1F3765"/>
<path d="M162.032 178.531C157.981 179.161 156.51 178.196 156.51 178.196C156.562 174.196 155.333 165.178 153.644 154.822C151.426 141.171 148.398 125.196 146.486 115.347C145.39 109.683 144.66 106.044 144.66 106.044L147.971 105.98L164.482 105.65C164.482 105.65 163.247 123.969 163.584 133.016C163.666 135.178 163.837 136.804 164.134 137.538C166.953 144.391 162.032 178.531 162.032 178.531Z" fill="#26468D"/>
<path d="M163.59 133.016C161.346 137.223 155.728 148.062 153.635 154.822C151.426 141.172 148.398 125.196 146.486 115.347C146.581 111.623 147.023 108.372 147.971 105.98L164.482 105.65C164.482 105.65 163.253 123.969 163.59 133.016Z" fill="#1F3765"/>
<path d="M147.648 183.155C148.5 182.427 147.988 178.342 147.988 178.342C147.988 178.342 143.614 174.845 143.012 177.52C142.411 180.195 138.856 181.413 136.833 181.742C135.485 181.961 135.034 182.692 134.886 183.155H147.648Z" fill="#1F3765"/>
<path d="M137.49 105.645C137.49 105.645 143.974 165.807 142.69 177.94C142.69 177.94 144.076 179.03 148.168 178.779C148.168 178.779 155.577 144.106 154.007 138.511C152.917 134.613 157.263 107.072 157.263 107.072L137.49 105.645Z" fill="#26468D"/>
<path d="M153.461 62.6233C153.461 62.6233 145.215 66.752 141.123 64.8698C141.123 64.8698 142.844 62.6378 144.768 61.7113C144.727 60.977 144.704 60.3127 144.689 59.727C144.654 57.769 144.753 56.6676 144.753 56.6676L148.308 54.0744L150.72 52.3262C150.592 53.327 150.56 54.3378 150.624 55.3448C150.938 60.0913 153.461 62.6233 153.461 62.6233Z" fill="#FFB27B"/>
<path d="M150.618 55.3332C150.618 55.3332 148.694 59.1764 144.683 59.7329C144.649 57.7749 144.747 56.6735 144.747 56.6735L148.302 54.0803C149.138 54.3671 149.921 54.7904 150.618 55.3332Z" fill="#FF9759"/>
<path d="M143.826 56.42C143.826 56.42 151.209 59.0423 152.775 54.4212C154.342 49.8 156.35 47.0057 151.703 45.1264C147.055 43.247 145.535 44.7039 144.637 46.1229C143.739 47.5419 141.946 55.6129 143.826 56.42Z" fill="#FFB27B"/>
<path d="M165.008 105.644C163.846 108.06 138.269 107.952 137.005 106.251C136.49 105.56 135.903 98.637 135.551 90.5864C135.365 86.1284 135.261 81.3236 135.278 77.0404C135.316 70.0475 135.705 64.4619 136.688 64.0336C142.172 61.6501 145.561 60.1321 152.723 60.3506C153.807 60.3818 154.862 60.7097 155.773 61.2988C156.684 61.8879 157.418 62.7157 157.893 63.6927C159.614 67.262 162.058 73.5993 162.253 81.0585C162.544 92.5735 166.465 102.605 165.008 105.644Z" fill="#21B7C0"/>
<path d="M143.579 72.2998C143.579 72.2998 142.745 84.3393 135.575 90.5863C135.389 86.1283 135.284 81.3236 135.302 77.0404C137.432 74.1704 140.257 72.1017 143.579 72.2998Z" fill="#039DAE"/>
<path d="M147.093 60.607C147.093 60.607 139.225 60.6566 136.758 62.9555C134.988 64.6047 123.618 73.5877 122.894 73.4653C122.17 73.3429 114.852 58.6956 114.852 58.6956C114.852 58.6956 111.242 59.0016 110.64 60.5691C110.64 60.5691 114.044 78.8586 121.394 82.8358C121.394 82.8358 139.961 79.3044 145.468 73.1506C148.299 69.9805 147.093 60.607 147.093 60.607Z" fill="#21B7C0"/>
<path d="M144.16 42.5069C144.16 42.5069 144.596 46.927 145.904 48.1362C147.212 49.3454 146.881 51.0033 147.026 51.2452C147.171 51.487 148.54 50.7761 148.77 51.184C149.325 52.1193 148.459 52.8011 147.898 53.0255C147.337 53.2498 149.296 57.0464 150.726 57.1863C153.197 57.4281 157.013 50.5809 157.335 48.5733C157.757 45.9509 156.274 41.8542 152.022 42.0553C145.372 42.3729 144.018 40.9189 144.16 42.5069Z" fill="#2E2626"/>
<path d="M343.561 23.1511H335.673V72.4076H343.561V23.1511Z" fill="#FFAA71"/>
<path d="M356.84 9.42157H348.952V72.4076H356.84V9.42157Z" fill="#FFAA71"/>
<path d="M370.94 35.0623H363.051V72.4076H370.94V35.0623Z" fill="#FFAA71"/>
<path d="M356.405 0.00148743H349.72C349.625 -0.00465766 349.531 0.00868019 349.442 0.0406762C349.352 0.0726722 349.271 0.122646 349.202 0.187507C349.133 0.252369 349.078 0.330739 349.04 0.41777C349.003 0.504802 348.983 0.598646 348.983 0.693497C348.983 0.788349 349.003 0.882193 349.04 0.969224C349.078 1.05626 349.133 1.13463 349.202 1.19949C349.271 1.26435 349.352 1.31432 349.442 1.34632C349.531 1.37831 349.625 1.39165 349.72 1.38551H356.405C356.499 1.39165 356.594 1.37831 356.683 1.34632C356.772 1.31432 356.853 1.26435 356.922 1.19949C356.991 1.13463 357.046 1.05626 357.084 0.969224C357.122 0.882193 357.141 0.788349 357.141 0.693497C357.141 0.598646 357.122 0.504802 357.084 0.41777C357.046 0.330739 356.991 0.252369 356.922 0.187507C356.853 0.122646 356.772 0.0726722 356.683 0.0406762C356.594 0.00868019 356.499 -0.00465766 356.405 0.00148743Z" fill="#FFAA71"/>
<path d="M351.245 3.90878C351.429 3.90878 351.605 3.83572 351.735 3.70567C351.864 3.57562 351.937 3.39924 351.937 3.21532C351.937 3.0314 351.864 2.85501 351.735 2.72496C351.605 2.59491 351.429 2.52185 351.245 2.52185H349.725C349.542 2.52185 349.366 2.59491 349.236 2.72496C349.107 2.85501 349.034 3.0314 349.034 3.21532C349.034 3.39924 349.107 3.57562 349.236 3.70567C349.366 3.83572 349.542 3.90878 349.725 3.90878H351.245Z" fill="#FFAA71"/>
<path d="M370.335 27.711H363.65C363.467 27.711 363.292 27.7837 363.162 27.9131C363.032 28.0425 362.959 28.2181 362.958 28.4016C362.959 28.5852 363.032 28.7612 363.162 28.8911C363.291 29.0209 363.467 29.0943 363.65 29.095H370.335C370.518 29.0943 370.694 29.0209 370.823 28.8911C370.953 28.7612 371.026 28.5852 371.027 28.4016C371.026 28.2181 370.953 28.0425 370.823 27.9131C370.694 27.7837 370.518 27.711 370.335 27.711Z" fill="#FFAA71"/>
<path d="M363.656 31.6155H365.176C365.271 31.6216 365.365 31.6083 365.454 31.5763C365.543 31.5443 365.625 31.4943 365.694 31.4294C365.763 31.3646 365.818 31.2862 365.856 31.1992C365.893 31.1121 365.913 31.0183 365.913 30.9235C365.913 30.8286 365.893 30.7348 365.856 30.6477C365.818 30.5607 365.763 30.4823 365.694 30.4175C365.625 30.3526 365.543 30.3026 365.454 30.2706C365.365 30.2386 365.271 30.2253 365.176 30.2314H363.656C363.562 30.2253 363.467 30.2386 363.378 30.2706C363.289 30.3026 363.207 30.3526 363.138 30.4175C363.069 30.4823 363.014 30.5607 362.977 30.6477C362.939 30.7348 362.919 30.8286 362.919 30.9235C362.919 31.0183 362.939 31.1121 362.977 31.1992C363.014 31.2862 363.069 31.3646 363.138 31.4294C363.207 31.4943 363.289 31.5443 363.378 31.5763C363.467 31.6083 363.562 31.6216 363.656 31.6155Z" fill="#FFAA71"/>
</svg>
