<svg width="60" height="67" viewBox="0 0 60 67" fill="none" xmlns="http://www.w3.org/2000/svg">
<path d="M56.8866 59.9468C56.2466 59.9471 55.6225 60.1736 55.1006 60.5948C54.5788 61.016 54.1849 61.6111 53.9736 62.2978H51.2354L49.4774 59.2944C49.3827 59.1329 49.2542 59.0006 49.1036 58.9094C48.9529 58.8181 48.7847 58.7706 48.614 58.7712H45.5117V61.1223H48.0607L49.8187 64.1258C49.9134 64.2872 50.0419 64.4195 50.1925 64.5108C50.3432 64.6021 50.5114 64.6495 50.6821 64.6489H53.9736C54.1634 65.259 54.4971 65.798 54.9383 66.2068C55.3796 66.6157 55.9112 66.8787 56.4752 66.967C57.0391 67.0552 57.6135 66.9654 58.1355 66.7074C58.6575 66.4494 59.107 66.033 59.4348 65.5039C59.7626 64.9749 59.956 64.3535 59.9938 63.7078C60.0316 63.0621 59.9125 62.4171 59.6494 61.8432C59.3862 61.2694 58.9893 60.7889 58.502 60.4544C58.0147 60.1199 57.4558 59.9443 56.8866 59.9468V59.9468Z" fill="#FFA500"/>
<path d="M56.8866 49.367C56.2466 49.3673 55.6225 49.5938 55.1006 50.015C54.5788 50.4362 54.1849 51.0313 53.9736 51.718H45.5117V54.0691H53.9736C54.1634 54.6792 54.4971 55.2182 54.9383 55.627C55.3796 56.0359 55.9112 56.2989 56.4752 56.3871C57.0391 56.4754 57.6135 56.3856 58.1355 56.1276C58.6575 55.8695 59.107 55.4532 59.4348 54.9241C59.7626 54.395 59.956 53.7737 59.9938 53.128C60.0316 52.4823 59.9125 51.8372 59.6494 51.2634C59.3862 50.6896 58.9893 50.2091 58.502 49.8746C58.0147 49.5401 57.4558 49.3645 56.8866 49.367V49.367Z" fill="#FFA500"/>
<path d="M53.9736 41.1383H50.6821C50.5119 41.1383 50.3443 41.186 50.1943 41.2773C50.0442 41.3685 49.9162 41.5005 49.8218 41.6614L48.0607 44.6649H45.5117V47.016H48.614C48.7842 47.016 48.9517 46.9683 49.1018 46.877C49.2519 46.7857 49.3799 46.6538 49.4743 46.4928L51.2354 43.4894H53.9736C54.2175 44.2737 54.6975 44.9347 55.3287 45.3557C55.96 45.7766 56.7018 45.9303 57.423 45.7896C58.1443 45.649 58.7986 45.2229 59.2703 44.5869C59.742 43.9509 60.0007 43.1457 60.0007 42.3138C60.0007 41.4819 59.742 40.6768 59.2703 40.0408C58.7986 39.4047 58.1443 38.9787 57.423 38.838C56.7018 38.6973 55.96 38.8511 55.3287 39.272C54.6975 39.6929 54.2175 40.354 53.9736 41.1383V41.1383Z" fill="#FFA500"/>
<path d="M3.11405 49.367C2.54482 49.3645 1.98596 49.5401 1.49866 49.8746C1.01137 50.2091 0.614432 50.6896 0.351308 51.2634C0.0881848 51.8372 -0.0309791 52.4823 0.00686391 53.128C0.0447069 53.7737 0.238098 54.395 0.565862 54.9241C0.893626 55.4532 1.34313 55.8695 1.86515 56.1276C2.38717 56.3856 2.96159 56.4754 3.5255 56.3871C4.08942 56.2989 4.6211 56.0359 5.06232 55.627C5.50355 55.2182 5.83731 54.6792 6.02706 54.0691H14.4889V51.718H6.02706C5.81572 51.0313 5.42189 50.4362 4.90002 50.015C4.37816 49.5938 3.75406 49.3673 3.11405 49.367V49.367Z" fill="#FFA500"/>
<path d="M16.5576 62.2979H43.4437V31.7341H16.5576V62.2979ZM18.6258 35.2607C18.6258 34.949 18.7347 34.65 18.9287 34.4295C19.1226 34.209 19.3856 34.0852 19.6599 34.0852H40.3415C40.6157 34.0852 40.8788 34.209 41.0727 34.4295C41.2666 34.65 41.3756 34.949 41.3756 35.2607V58.7713C41.3756 59.0831 41.2666 59.3821 41.0727 59.6026C40.8788 59.823 40.6157 59.9469 40.3415 59.9469H19.6599C19.3856 59.9469 19.1226 59.823 18.9287 59.6026C18.7347 59.3821 18.6258 59.0831 18.6258 58.7713V35.2607Z" fill="#FFA500"/>
<path d="M39.3068 36.4362H20.6934V57.5958H39.3068V36.4362ZM23.7956 41.1383C23.5911 41.1383 23.3912 41.0694 23.2211 40.9402C23.051 40.8111 22.9185 40.6275 22.8402 40.4127C22.762 40.1979 22.7415 39.9615 22.7814 39.7335C22.8213 39.5054 22.9198 39.296 23.0644 39.1316C23.209 38.9672 23.3933 38.8552 23.5939 38.8099C23.7945 38.7645 24.0024 38.7878 24.1913 38.8768C24.3803 38.9657 24.5418 39.1164 24.6554 39.3097C24.769 39.503 24.8297 39.7303 24.8297 39.9628C24.8297 40.2746 24.7207 40.5736 24.5268 40.794C24.3329 41.0145 24.0699 41.1383 23.7956 41.1383Z" fill="#FFA500"/>
<path d="M45.5124 35.2606H49.6487C52.117 35.2606 54.4842 34.146 56.2296 32.1619C57.9749 30.1778 58.9555 27.4868 58.9555 24.6809C58.9555 21.8749 57.9749 19.1839 56.2296 17.1998C54.4842 15.2157 52.117 14.1011 49.6487 14.1011C49.2719 14.1022 48.8955 14.1296 48.5216 14.1834C48.2655 14.2194 48.0069 14.1453 47.7964 13.9757C47.586 13.806 47.4389 13.5531 47.3841 13.2665C47.0781 11.6644 46.4083 10.1814 45.4413 8.96514C44.4744 7.74886 43.2441 6.84171 41.8729 6.334C40.5016 5.8263 39.0374 5.73575 37.6258 6.07137C36.2142 6.40699 34.9046 7.15708 33.8273 8.24695C33.7051 8.37241 33.5582 8.46287 33.399 8.51079C33.2398 8.55872 33.0729 8.56272 32.912 8.52247C32.7512 8.48223 32.6011 8.39889 32.4743 8.2794C32.3476 8.15992 32.2477 8.00773 32.1831 7.83552C31.151 5.09894 29.3198 2.85111 26.9987 1.47161C24.6775 0.0921072 22.0087 -0.33453 19.443 0.263743C16.8772 0.862016 14.5716 2.44854 12.9156 4.7554C11.2597 7.06225 10.3547 9.94809 10.3537 12.9256C10.3531 13.2236 10.2591 13.5116 10.0885 13.7378C9.91793 13.964 9.68194 14.1137 9.42298 14.1599C7.05681 14.4442 4.87632 15.7481 3.32956 17.8034C1.7828 19.8587 0.987263 22.5094 1.10641 25.2108C1.22556 27.9122 2.25035 30.4592 3.9702 32.3283C5.69005 34.1974 7.97433 35.2467 10.3537 35.2606H14.49V30.5585C14.49 30.2468 14.5989 29.9478 14.7929 29.7273C14.9868 29.5068 15.2498 29.383 15.5241 29.383H21.7285V26.4912L19.0916 24.481C18.9494 24.3745 18.8325 24.2298 18.7513 24.0595C18.6701 23.8893 18.6272 23.699 18.6263 23.5053V20.9897C17.6515 20.7036 16.802 20.0231 16.237 19.0759C15.6719 18.1287 15.4302 16.9798 15.557 15.8444C15.6839 14.7091 16.1706 13.6653 16.926 12.9087C17.6814 12.1522 18.6536 11.7348 19.6604 11.7348C20.6671 11.7348 21.6393 12.1522 22.3947 12.9087C23.1501 13.6653 23.6369 14.7091 23.7637 15.8444C23.8906 16.9798 23.6489 18.1287 23.0838 19.0759C22.5188 20.0231 21.6693 20.7036 20.6945 20.9897V22.8706L23.3314 24.8807C23.4736 24.9872 23.5905 25.132 23.6717 25.3022C23.7529 25.4724 23.7958 25.6628 23.7967 25.8564V29.383H28.9671V20.9897C27.9923 20.7036 27.1428 20.0231 26.5778 19.0759C26.0127 18.1287 25.771 16.9798 25.8978 15.8444C26.0247 14.7091 26.5114 13.6653 27.2668 12.9087C28.0223 12.1522 28.9944 11.7348 30.0012 11.7348C31.008 11.7348 31.9801 12.1522 32.7356 12.9087C33.491 13.6653 33.9777 14.7091 34.1046 15.8444C34.2314 16.9798 33.9897 18.1287 33.4246 19.0759C32.8596 20.0231 32.0101 20.7036 31.0353 20.9897V29.383H36.2057V25.8564C36.2066 25.6628 36.2495 25.4724 36.3307 25.3022C36.4119 25.132 36.5288 24.9872 36.671 24.8807L39.3079 22.8706V20.9897C38.3331 20.7036 37.4836 20.0231 36.9186 19.0759C36.3535 18.1287 36.1118 16.9798 36.2387 15.8444C36.3655 14.7091 36.8523 13.6653 37.6077 12.9087C38.3631 12.1522 39.3353 11.7348 40.342 11.7348C41.3488 11.7348 42.321 12.1522 43.0764 12.9087C43.8318 13.6653 44.3185 14.7091 44.4454 15.8444C44.5722 16.9798 44.3305 18.1287 43.7654 19.0759C43.2004 20.0231 42.3509 20.7036 41.3761 20.9897V23.5053C41.3752 23.699 41.3323 23.8893 41.2511 24.0595C41.1699 24.2298 41.053 24.3745 40.9108 24.481L38.2738 26.4912V29.383H44.4783C44.7526 29.383 45.0156 29.5068 45.2095 29.7273C45.4035 29.9478 45.5124 30.2468 45.5124 30.5585V35.2606Z" fill="#FFA500"/>
<path d="M40.3406 18.8032C41.4828 18.8032 42.4088 17.7506 42.4088 16.4521C42.4088 15.1537 41.4828 14.1011 40.3406 14.1011C39.1984 14.1011 38.2725 15.1537 38.2725 16.4521C38.2725 17.7506 39.1984 18.8032 40.3406 18.8032Z" fill="#FFA500"/>
<path d="M19.659 18.8032C20.8012 18.8032 21.7271 17.7506 21.7271 16.4521C21.7271 15.1537 20.8012 14.1011 19.659 14.1011C18.5168 14.1011 17.5908 15.1537 17.5908 16.4521C17.5908 17.7506 18.5168 18.8032 19.659 18.8032Z" fill="#FFA500"/>
<path d="M29.9998 18.8032C31.142 18.8032 32.068 17.7506 32.068 16.4521C32.068 15.1537 31.142 14.1011 29.9998 14.1011C28.8576 14.1011 27.9316 15.1537 27.9316 16.4521C27.9316 17.7506 28.8576 18.8032 29.9998 18.8032Z" fill="#FFA500"/>
<path d="M10.1789 41.6614C10.0844 41.5005 9.95649 41.3685 9.80641 41.2773C9.65633 41.186 9.48875 41.1383 9.31855 41.1383H6.02707C5.78313 40.354 5.30314 39.6929 4.67193 39.272C4.04071 38.8511 3.29892 38.6973 2.57765 38.838C1.85638 38.9787 1.20208 39.4047 0.730394 40.0408C0.258706 40.6768 0 41.4819 0 42.3138C0 43.1457 0.258706 43.9509 0.730394 44.5869C1.20208 45.2229 1.85638 45.649 2.57765 45.7896C3.29892 45.9303 4.04071 45.7766 4.67193 45.3557C5.30314 44.9347 5.78313 44.2737 6.02707 43.4894H8.76532L10.5233 46.4928C10.618 46.6543 10.7464 46.7866 10.8971 46.8778C11.0478 46.9691 11.216 47.0166 11.3867 47.016H14.489V44.6649H11.9399L10.1789 41.6614Z" fill="#FFA500"/>
<path d="M10.5264 59.2944L8.76532 62.2979H6.02707C5.78313 61.5136 5.30314 60.8525 4.67193 60.4316C4.04071 60.0107 3.29892 59.8569 2.57765 59.9976C1.85638 60.1383 1.20208 60.5643 0.730394 61.2003C0.258706 61.8364 0 62.6415 0 63.4734C0 64.3053 0.258706 65.1105 0.730394 65.7465C1.20208 66.3825 1.85638 66.8085 2.57765 66.9492C3.29892 67.0899 4.04071 66.9362 4.67193 66.5153C5.30314 66.0943 5.78313 65.4333 6.02707 64.649H9.31855C9.48875 64.649 9.65633 64.6013 9.80641 64.51C9.95649 64.4187 10.0844 64.2868 10.1789 64.1258L11.9399 61.1224H14.489V58.7713H11.3867C11.2165 58.7713 11.0489 58.819 10.8989 58.9103C10.7488 59.0015 10.6208 59.1335 10.5264 59.2944V59.2944Z" fill="#FFA500"/>
</svg>
