<svg width="70" height="70" viewBox="0 0 70 70" fill="none" xmlns="http://www.w3.org/2000/svg">
<path d="M42.6563 4.37307C42.0522 4.37886 41.5673 4.86277 41.5732 5.46682V6.56057C39.0864 7.07393 37.1982 9.29363 37.1982 11.9246C37.1982 12.3544 37.259 12.7683 37.3541 13.1701C37.411 13.4077 37.485 13.6395 37.572 13.8643C37.626 14.0045 37.6887 14.138 37.7536 14.2724C37.82 14.4093 37.8922 14.5414 37.9694 14.6718C38.0857 14.8689 38.2124 15.0555 38.3518 15.2358C38.4298 15.3368 38.5106 15.4354 38.5953 15.5306C38.7445 15.6984 38.9032 15.8542 39.0717 16.0027C39.1615 16.0819 39.2481 16.1644 39.343 16.2377L30.7019 41.0714C30.222 42.4499 32.2898 43.1698 32.7698 41.7913L36.8457 30.0762C38.3267 30.8963 39.9391 31.3817 41.5775 31.5309V33.1993C41.6105 34.6257 43.7333 34.6257 43.765 33.1993V31.5309C45.4053 31.3817 47.0202 30.8961 48.5031 30.074L51.199 37.8221C50.0459 38.6365 48.7623 39.2641 47.3923 39.6743L48.0203 41.7656C51.7046 40.6493 54.8484 38.2979 57.0288 34.5046C60.6343 28.2597 58.8589 20.5036 53.0704 16.2035C52.8652 16.0454 52.6113 15.965 52.3526 15.977C51.3203 16.0269 50.9263 17.3485 51.763 17.9552C56.6742 21.6035 58.178 28.1466 55.119 33.445C54.5237 34.5329 53.6521 35.651 52.9892 36.3011L46.0165 16.2313C46.1765 16.1072 46.3286 15.9745 46.4737 15.8339C46.4759 15.8318 46.4776 15.83 46.4803 15.8273C46.5328 15.7761 46.5794 15.7204 46.6298 15.6671C46.8079 15.4797 46.973 15.2799 47.1233 15.069C47.1564 15.0227 47.1923 14.9796 47.2237 14.9323C47.3867 14.6879 47.5242 14.4265 47.6467 14.1568C47.6773 14.0892 47.7085 14.0229 47.7364 13.9539C47.8497 13.6748 47.9415 13.386 48.0077 13.0866C48.0304 12.9828 48.0486 12.8783 48.0654 12.7725C48.0778 12.6942 48.0927 12.6169 48.1017 12.5375C48.1146 12.425 48.1195 12.3102 48.1253 12.1958C48.1294 12.1172 48.1394 12.0401 48.1402 11.9608H48.1361C48.1361 11.9484 48.1382 11.9368 48.1382 11.9244C48.1382 9.29038 46.2506 7.06824 43.7611 6.5582V5.46654C43.7669 4.85415 43.269 4.36687 42.6566 4.3728L42.6563 4.37307ZM10.9397 4.38795C7.37095 4.38795 4.44347 7.26558 4.37502 10.818C4.37998 21.0602 4.37716 31.3144 4.37716 41.5605C4.37716 45.1713 7.3284 48.1251 10.9397 48.1251H64.5355C65.1362 48.1227 65.6226 47.6364 65.625 47.0357V44.8417H61.25V44.8355L10.9397 44.8333C7.92555 44.833 5.47518 42.4305 5.47518 39.3667C5.47518 36.3115 7.92888 33.9001 10.9397 33.9001C13.6834 33.9001 15.8162 35.8704 16.2952 38.2772H17.4957V10.9442C17.4957 7.33347 14.5509 4.38816 10.9397 4.38816V4.38795ZM43.7607 8.83558C45.039 9.28361 45.9503 10.4851 45.9503 11.9246C45.9503 12.0235 45.9309 12.1164 45.9226 12.2129C45.9102 12.3485 45.9036 12.4866 45.8756 12.6167C45.5568 14.0953 44.2573 15.1866 42.6756 15.1866C40.8679 15.1866 39.4221 13.7605 39.3943 11.9609H39.3901C39.39 11.9485 39.386 11.9373 39.386 11.9245C39.386 10.4878 40.297 9.28779 41.5735 8.83765V10.882C41.6049 12.3084 43.7293 12.3084 43.761 10.882L43.7607 8.83558ZM19.6875 9.85456C19.6835 19.6806 19.734 29.5287 19.6917 39.3623C19.6917 40.0493 19.3117 40.4561 18.5937 40.4561H15.3167C14.7274 40.4561 14.2293 40.1977 14.2293 39.3815C14.2292 39.3761 14.2273 39.3716 14.2272 39.3666V39.3644C14.2272 39.1347 14.2036 38.9108 14.161 38.6958V38.6936C14.1181 38.4788 14.0545 38.2726 13.9729 38.0763V38.0742C13.8912 37.878 13.7903 37.6924 13.6738 37.5188V37.5166C13.5573 37.3431 13.4238 37.1829 13.2765 37.036C12.6858 36.4469 11.8629 36.0875 10.9395 36.0875C9.09154 36.0875 7.66248 37.5226 7.66249 39.3666C7.66249 41.2106 9.13723 42.6436 10.9395 42.6436H28.6851C28.4152 41.9315 28.3865 41.0804 28.6403 40.3514L36.8263 16.8166C35.7 15.4848 35.037 13.8423 35.0105 11.9225C35.0105 11.2063 35.1141 10.5136 35.301 9.85461L19.6875 9.85456ZM50.0156 9.85456C50.2056 10.4759 50.3317 11.1558 50.3317 11.9395C50.3317 13.7077 49.6694 15.548 48.5266 16.7994L53.6557 31.5352C55.5436 27.1832 54.1154 22.434 50.4556 19.7154L50.4792 19.722C49.3176 18.8797 48.9026 17.3329 49.2616 16.1288C49.6205 14.9248 50.815 13.8567 52.248 13.7875C53.0164 13.7516 53.7716 13.9974 54.38 14.4583C60.9999 19.3831 63.077 28.4064 58.9259 35.5963C57.0895 38.7911 54.5575 41.1402 51.6392 42.6459H63.4376V42.6545H65.6251V10.9444C65.6227 10.3437 65.1363 9.85731 64.5356 9.85491L50.0156 9.85456ZM44.0256 17.1989L47.7725 27.9741C46.5285 28.7277 45.1608 29.167 43.765 29.322V27.7904C43.7774 27.1738 43.2772 26.6692 42.6605 26.6752C42.0522 26.6806 41.5656 27.1822 41.5775 27.7904V29.3178C40.1855 29.1613 38.8191 28.7249 37.5784 27.9741L41.3275 17.2011C41.7603 17.312 42.2052 17.389 42.6712 17.389C43.141 17.389 43.5899 17.3116 44.0256 17.1989V17.1989ZM42.6456 19.9119L40.8433 24.945C41.4528 24.5631 41.9713 24.491 42.5643 24.4942C43.2073 24.4975 43.8675 24.6171 44.4251 25.0026L42.6456 19.9119ZM37.9672 32.8233L34.8334 42.5068C34.8169 42.5542 34.7861 42.5968 34.7672 42.6435L46.0294 42.6457C45.9926 42.5631 45.9536 42.4824 45.9268 42.3937L45.2966 40.3022C44.9517 39.1452 45.6096 37.9289 46.7664 37.5828C47.3913 37.3957 47.9257 37.0259 48.501 36.7347L47.215 33.0241C46.828 33.1534 46.407 33.2913 45.961 33.3894C45.9049 34.2048 45.5027 35.0832 44.8523 35.6517C44.2019 36.2202 43.4253 36.4592 42.6733 36.4592C41.9214 36.4592 41.1425 36.2196 40.4922 35.6517C39.842 35.0838 39.482 34.2806 39.3942 33.5005C39.1312 33.4468 38.168 32.8536 37.9672 32.8233L37.9672 32.8233ZM5.4645 52.4959C4.86377 52.4983 4.37742 52.9846 4.37502 53.5853V64.5271C4.37153 65.132 4.8596 65.6249 5.4645 65.6273H64.5355C65.1405 65.6249 65.6285 65.132 65.625 64.5271V53.5853C65.6226 52.9846 65.1363 52.4983 64.5355 52.4959H56.875V55.7771H54.6918V52.4959H50.3125V56.8709H48.1272V52.4959H43.75V55.7771H41.5625V52.4959H37.1875V56.8709H35.0043V52.4959H30.625V55.7814H28.4418V52.4959H24.0625V56.8709H21.8772V52.4959H17.5V55.7771H15.3125V52.4959H10.9375V56.8709H8.74789V52.4959H5.4645ZM61.25 57.9667C61.8541 57.9667 62.3438 58.4564 62.3438 59.0605C62.3438 59.6646 61.8541 60.1542 61.25 60.1542C60.646 60.1542 60.1563 59.6646 60.1563 59.0605C60.1563 58.4564 60.646 57.9667 61.25 57.9667Z" fill="#FFA500"/>
</svg>
