<svg width="60" height="67" viewBox="0 0 60 67" fill="none" xmlns="http://www.w3.org/2000/svg">
<g clip-path="url(#clip0)">
<path d="M29.9994 11.7867C19.2775 11.7867 10.5547 21.5273 10.5547 33.5C10.5547 45.4727 19.2775 55.2132 29.9994 55.2132C40.7212 55.2132 49.4441 45.4727 49.4441 33.5C49.4441 21.5273 40.7212 11.7867 29.9994 11.7867ZM28.2403 40.1055H31.7586V44.0313H28.2403V40.1055ZM25.7484 37.3212L23.2625 34.5453C25.0644 32.5332 27.4569 31.4251 29.9995 31.4251C32.5419 31.4251 34.9344 32.5331 36.7364 34.5452L34.2505 37.3212C33.1126 36.0507 31.6029 35.3509 29.9995 35.3509C28.396 35.3509 26.8863 36.0507 25.7484 37.3212V37.3212ZM29.9995 27.4993C26.5209 27.4993 23.2463 29.0167 20.7789 31.772L18.2929 28.9961C21.4243 25.4992 25.5818 23.5735 29.9995 23.5735C34.4169 23.5735 38.5743 25.4991 41.7058 28.9957L39.2199 31.7717C36.7525 29.0166 33.478 27.4993 29.9995 27.4993Z" fill="#FFA500"/>
<path d="M28.2422 0H31.7578V7.86098H28.2422V0Z" fill="#FFA500"/>
<path d="M13.4775 5.46948L16.5221 3.50659L20.0419 10.3142L16.9974 12.2771L13.4775 5.46948Z" fill="#FFA500"/>
<path d="M3.13965 18.4501L4.89746 15.0503L10.9938 18.9808L9.23601 22.3806L3.13965 18.4501Z" fill="#FFA500"/>
<path d="M0 31.5371H7.03969V35.4629H0V31.5371Z" fill="#FFA500"/>
<path d="M3.13965 48.549L9.23601 44.6185L10.9938 48.0182L4.89746 51.9487L3.13965 48.549Z" fill="#FFA500"/>
<path d="M13.4766 61.5304L16.9964 54.7228L20.0409 56.6857L16.5211 63.4933L13.4766 61.5304Z" fill="#FFA500"/>
<path d="M28.2422 59.139H31.7578V67H28.2422V59.139Z" fill="#FFA500"/>
<path d="M39.957 56.6843L43.0016 54.7214L46.5214 61.529L43.4769 63.4919L39.957 56.6843Z" fill="#FFA500"/>
<path d="M49.0039 48.0204L50.7617 44.6207L56.8581 48.5512L55.1003 51.9509L49.0039 48.0204Z" fill="#FFA500"/>
<path d="M52.9609 31.5371H60.0006V35.4629H52.9609V31.5371Z" fill="#FFA500"/>
<path d="M49.0049 18.9804L55.1013 15.0499L56.8591 18.4496L50.7627 22.3801L49.0049 18.9804Z" fill="#FFA500"/>
<path d="M39.957 10.3154L43.4769 3.50782L46.5214 5.47071L43.0016 12.2783L39.957 10.3154Z" fill="#FFA500"/>
</g>
<defs>
<clipPath id="clip0">
<rect width="60" height="67" fill="white"/>
</clipPath>
</defs>
</svg>
