<svg width="60" height="67" viewBox="0 0 60 67" fill="none" xmlns="http://www.w3.org/2000/svg">
<g clip-path="url(#clip0)">
<path d="M15.5283 17.7241C14.7639 17.0152 13.7793 16.6732 12.7898 16.7728C11.8002 16.8724 10.8863 17.4056 10.2478 18.2557L0.873376 30.8174C0.309191 31.5693 0 32.5189 0 33.4998C0 34.4808 0.309191 35.4304 0.873376 36.1823L10.2478 48.744C10.5623 49.1695 10.949 49.5214 11.3857 49.7794C11.8224 50.0374 12.3004 50.1965 12.7923 50.2476C13.2843 50.2986 13.7804 50.2406 14.2522 50.0768C14.7239 49.913 15.1621 49.6467 15.5414 49.2932C15.9207 48.9397 16.2336 48.5059 16.4623 48.0169C16.691 47.5279 16.8308 46.9932 16.8738 46.4436C16.9168 45.894 16.8621 45.3403 16.7129 44.8144C16.5636 44.2885 16.3227 43.8007 16.0041 43.3791L8.62925 33.5L16.0043 23.6207C16.6411 22.7681 16.9488 21.6681 16.8595 20.5623C16.7702 19.4566 16.2914 18.4357 15.5283 17.7241Z" fill="#FFA500"/>
<path d="M34.4821 8.45819C33.508 8.25225 32.5005 8.48129 31.676 9.09609C30.8516 9.71088 30.2761 10.6623 30.0732 11.7459L22.5737 53.6183C22.4764 54.1575 22.4754 54.7129 22.5709 55.2525C22.6663 55.7921 22.8563 56.3054 23.1299 56.7628C23.4034 57.2202 23.7552 57.6128 24.165 57.918C24.5748 58.2232 25.0345 58.435 25.5178 58.5413C25.7612 58.5972 26.0091 58.6246 26.2575 58.623C27.1236 58.6215 27.9624 58.2851 28.6313 57.6708C29.3003 57.0566 29.758 56.2026 29.9267 55.2541L37.4263 13.3815C37.5236 12.8423 37.5246 12.2869 37.4291 11.7472C37.3337 11.2076 37.1437 10.6943 36.8702 10.2368C36.5966 9.77935 36.2448 9.38674 35.835 9.08151C35.4252 8.77629 34.9654 8.56446 34.4821 8.45819V8.45819Z" fill="#FFA500"/>
<path d="M59.1272 30.8174L49.7528 18.2557C49.4383 17.8302 49.0516 17.4784 48.6149 17.2203C48.1782 16.9623 47.7002 16.8032 47.2082 16.7521C46.7163 16.7011 46.2202 16.7592 45.7484 16.9229C45.2766 17.0867 44.8385 17.353 44.4592 17.7066C44.0799 18.0601 43.7669 18.4938 43.5383 18.9828C43.3096 19.4719 43.1697 20.0066 43.1267 20.5562C43.0837 21.1057 43.1384 21.6594 43.2877 22.1853C43.437 22.7112 43.6778 23.199 43.9965 23.6206L51.3713 33.5L43.9963 43.3793C43.6777 43.8009 43.4368 44.2887 43.2875 44.8146C43.1382 45.3405 43.0835 45.8942 43.1265 46.4438C43.1695 46.9934 43.3094 47.5281 43.5381 48.0171C43.7667 48.5061 44.0797 48.9399 44.459 49.2934C44.8383 49.6469 45.2764 49.9132 45.7482 50.077C46.22 50.2408 46.7161 50.2988 47.208 50.2478C47.7 50.1967 48.178 50.0376 48.6147 49.7796C49.0514 49.5216 49.4381 49.1697 49.7526 48.7442L59.1272 36.1823C59.6914 35.4305 60.0006 34.4808 60.0006 33.4999C60.0006 32.519 59.6914 31.5693 59.1272 30.8174V30.8174Z" fill="#FFA500"/>
</g>
<defs>
<clipPath id="clip0">
<rect width="60" height="67" fill="white"/>
</clipPath>
</defs>
</svg>
