<svg width="149" height="149" viewBox="0 0 149 149" fill="none" xmlns="http://www.w3.org/2000/svg">
<path d="M98.0472 98.187L107.391 92.3917V66.23L98.0472 72.0258V98.187Z" fill="#FFA500"/>
<path d="M23.7536 33.5645C23.7844 33.5337 23.8193 33.5092 23.8531 33.4836L25.6138 31.7192C25.6382 31.6881 25.6606 31.6555 25.6894 31.6267C25.7174 31.5987 25.7491 31.5769 25.7796 31.5533L27.2685 30.0619L26.5645 29.3576L21.5989 34.3328L22.3032 35.0368L23.6704 33.667C23.6965 33.6317 23.7219 33.5965 23.7536 33.5645Z" fill="#FFA500"/>
<path d="M23.3814 26.185C22.8907 25.6993 22.2342 25.4307 21.5346 25.4307C20.8364 25.4307 20.184 25.6982 19.6977 26.1839L18.4166 27.4675C17.9228 27.9567 17.653 28.6075 17.653 29.3027C17.653 29.9982 17.9228 30.6486 18.4128 31.1343L20.2503 32.9808L25.2124 28.0088L23.3814 26.185Z" fill="#FFA500"/>
<path d="M23.6526 36.3869L35.9259 48.6602C35.9285 48.6629 35.9317 48.6649 35.934 48.6672L50.1039 62.8376L50.8771 62.0633L24.4377 35.6L23.6526 36.3869Z" fill="#FFA500"/>
<path d="M25.7863 34.2488L52.226 60.712L52.8246 60.1125L26.3733 33.6609L25.7863 34.2488Z" fill="#FFA500"/>
<path d="M55.0692 57.8635L54.763 57.5574L43.0336 45.8394C43.0066 45.8123 42.9824 45.7826 42.9594 45.7532L28.6182 31.4117L27.7221 32.3098L54.1737 58.7613L55.0692 57.8635Z" fill="#FFA500"/>
<path d="M60.5446 68.3133L56.1689 59.4644L52.9159 62.7229C52.9107 62.7282 52.9075 62.7346 52.9026 62.7398C52.8973 62.7447 52.8912 62.7482 52.886 62.7532L51.7033 63.9382L60.5446 68.3133Z" fill="#FFA500"/>
<path d="M79.9004 65.3767L71.9094 70.5402H96.8206L105.013 65.4582L79.9004 65.3767Z" fill="#FFA500"/>
<path d="M118.815 46.1188H46.0241L57.088 57.1832C57.0894 57.1846 57.0915 57.1855 57.0932 57.1873C57.0947 57.1887 57.0958 57.191 57.0973 57.1925L57.1398 57.2347C57.1401 57.235 57.1403 57.2356 57.1406 57.2359L57.1465 57.2417C57.1694 57.265 57.1889 57.2912 57.2093 57.3168C57.2198 57.3296 57.232 57.3415 57.2416 57.3549C57.2716 57.3965 57.2978 57.4404 57.3205 57.4864L63.4656 69.9125C63.5584 70.0598 63.6122 70.2338 63.6122 70.4209C63.6122 70.785 63.4062 71.0975 63.1062 71.2587C63.0957 71.2646 63.0849 71.271 63.0739 71.2765C63.0419 71.2922 63.009 71.3056 62.9752 71.3175C62.9534 71.3251 62.9316 71.3315 62.9094 71.3379C62.8809 71.3455 62.853 71.3536 62.8236 71.3586C62.7698 71.3685 62.715 71.3749 62.6606 71.3754C62.66 71.3754 62.6597 71.3754 62.6595 71.3754C62.6568 71.3754 62.6542 71.3754 62.6519 71.3754C62.6469 71.3754 62.6417 71.374 62.6365 71.374C62.5788 71.3728 62.5212 71.3658 62.4639 71.3542C62.447 71.3507 62.4307 71.3472 62.4141 71.3428C62.3513 71.3265 62.289 71.3065 62.229 71.2765L49.7276 65.0901C49.6805 65.0665 49.6356 65.0392 49.5929 65.0086C49.5803 64.9996 49.5696 64.9882 49.5574 64.9786C49.5297 64.9565 49.5012 64.9347 49.4759 64.9094L36.2137 51.6475V111.652L118.815 112.178V46.1188H118.815ZM63.4819 64.0718V57.3718C63.4819 56.8447 63.9094 56.4172 64.4364 56.4172H71.1362C71.6635 56.4172 72.0907 56.8447 72.0907 57.3718C72.0907 57.8991 71.6635 58.3263 71.1362 58.3263H65.3909V64.0718C65.3909 64.5988 64.9637 65.0264 64.4364 65.0264C63.9094 65.0264 63.4819 64.5988 63.4819 64.0718ZM71.1362 107.766H64.4364C63.9094 107.766 63.4819 107.339 63.4819 106.812V100.113C63.4819 99.5853 63.9094 99.1584 64.4364 99.1584C64.9637 99.1584 65.3909 99.5856 65.3909 100.113V105.857H71.1362C71.6635 105.857 72.0907 106.285 72.0907 106.811C72.0907 107.339 71.6635 107.766 71.1362 107.766ZM97.471 100.778C97.4608 100.782 97.4504 100.785 97.4399 100.789C97.3974 100.806 97.354 100.819 97.3104 100.83C97.2944 100.834 97.2787 100.836 97.2627 100.84C97.2068 100.85 97.1498 100.857 97.0933 100.857H68.6736C68.1466 100.857 67.7193 100.429 67.7193 99.9022V71.495C67.7193 71.4895 67.7208 71.4849 67.7208 71.4796C67.7217 71.4211 67.7266 71.3629 67.7383 71.3059C67.7403 71.2969 67.7438 71.2881 67.7458 71.2794C67.7569 71.2328 67.7706 71.1872 67.7883 71.1426C67.7959 71.1231 67.8058 71.1048 67.8145 71.0862C67.8302 71.053 67.8474 71.021 67.8669 70.9896C67.8782 70.9715 67.8902 70.9538 67.9027 70.9366C67.9242 70.9066 67.9481 70.8784 67.9737 70.851C67.9871 70.8365 67.9999 70.8211 68.0144 70.8074C68.0438 70.7794 68.0755 70.7541 68.1087 70.7294C68.1218 70.7195 68.1343 70.7084 68.1483 70.6991C68.1509 70.6974 68.1532 70.6948 68.1559 70.693L79.103 63.6199C79.2569 63.5203 79.4371 63.4674 79.6207 63.4674C79.6219 63.4674 79.6231 63.4674 79.6242 63.4674L108.349 63.5605C108.36 63.5605 108.37 63.5628 108.381 63.5631C108.415 63.5643 108.448 63.5669 108.482 63.5716C108.499 63.5742 108.517 63.5774 108.534 63.5809C108.564 63.5867 108.593 63.5946 108.623 63.6036C108.64 63.6085 108.656 63.6132 108.673 63.6193C108.704 63.6306 108.735 63.6446 108.764 63.6592C108.777 63.6653 108.79 63.6702 108.802 63.6769C108.805 63.6784 108.808 63.6792 108.81 63.681C108.849 63.7025 108.886 63.727 108.921 63.7535C108.926 63.7572 108.93 63.7619 108.936 63.766C108.968 63.7913 108.998 63.8178 109.026 63.8466C109.037 63.8576 109.046 63.8696 109.057 63.8809C109.078 63.9048 109.098 63.9292 109.117 63.9548C109.127 63.9685 109.137 63.9831 109.146 63.9976C109.163 64.0241 109.179 64.0512 109.193 64.0791C109.201 64.0936 109.209 64.1082 109.215 64.123C109.232 64.16 109.246 64.1978 109.258 64.2368C109.259 64.2429 109.263 64.2488 109.264 64.2549C109.265 64.2557 109.265 64.2569 109.265 64.2581C109.278 64.3043 109.287 64.3512 109.292 64.3992C109.295 64.4143 109.295 64.4295 109.296 64.4449C109.297 64.4682 109.301 64.4912 109.301 64.515V92.9237C109.301 93.254 109.13 93.5604 108.849 93.7345L97.5968 100.713C97.5557 100.738 97.5135 100.759 97.471 100.778ZM114.842 106.811C114.842 107.339 114.415 107.766 113.888 107.766H107.19C106.662 107.766 106.235 107.338 106.235 106.811C106.235 106.284 106.662 105.857 107.19 105.857H112.933V100.113C112.933 99.5853 113.36 99.1584 113.887 99.1584C114.414 99.1584 114.842 99.5856 114.842 100.113V106.811H114.842ZM114.842 64.0718C114.842 64.5988 114.415 65.0264 113.888 65.0264C113.36 65.0264 112.933 64.5988 112.933 64.0718V58.3263H107.19C106.662 58.3263 106.235 57.8991 106.235 57.3718C106.235 56.8447 106.663 56.4172 107.19 56.4172H113.888C114.415 56.4172 114.842 56.8447 114.842 57.3718V64.0718H114.842Z" fill="#FFA500"/>
<path d="M131.057 70.0265H137.221V67.1498H124.88V122.197H137.221V118.901H131.057C130.53 118.901 130.103 118.473 130.103 117.946C130.103 117.419 130.53 116.992 131.057 116.992H137.221V114.115H133.215C132.688 114.115 132.26 113.688 132.26 113.161C132.26 112.634 132.688 112.207 133.215 112.207H137.221V109.494H131.057C130.53 109.494 130.103 109.066 130.103 108.539C130.103 108.012 130.53 107.585 131.057 107.585H137.221V104.709H133.215C132.688 104.709 132.26 104.281 132.26 103.754C132.26 103.227 132.688 102.8 133.215 102.8H137.221V100.109H131.057C130.53 100.109 130.103 99.6822 130.103 99.1552C130.103 98.6276 130.53 98.2006 131.057 98.2006H137.221V95.3248H133.215C132.688 95.3248 132.26 94.8976 132.26 94.3706C132.26 93.8436 132.688 93.4161 133.215 93.4161H137.221V90.7035H131.057C130.53 90.7035 130.103 90.2763 130.103 89.749C130.103 89.2216 130.53 88.7947 131.057 88.7947H137.221V85.9419H133.215C132.688 85.9419 132.26 85.5144 132.26 84.9874C132.26 84.4603 132.688 84.0331 133.215 84.0331H137.221V81.32H131.057C130.53 81.32 130.103 80.8925 130.103 80.3657C130.103 79.8384 130.53 79.4112 131.057 79.4112H137.221V76.5345H133.215C132.688 76.5345 132.26 76.107 132.26 75.58C132.26 75.053 132.688 74.6255 133.215 74.6255H137.221V71.9365H131.057C130.53 71.9365 130.103 71.5093 130.103 70.9819C130.102 70.454 130.53 70.0265 131.057 70.0265Z" fill="#FFA500"/>
<path d="M96.1384 72.4492H69.6278V98.9477H96.1384V72.4492Z" fill="#FFA500"/>
<path d="M43.8255 117.319C43.2982 117.319 42.8713 117.746 42.8713 118.273C42.8713 118.8 43.2985 119.227 43.8255 119.227H115.349C115.876 119.227 116.303 118.8 116.303 118.273C116.303 117.746 115.876 117.319 115.349 117.319H43.8255Z" fill="#FFA500"/>
<path d="M73.4715 121.661H23.9727C23.4457 121.661 23.0182 122.088 23.0182 122.615C23.0182 123.142 23.4457 123.569 23.9727 123.569H73.4712C73.9983 123.569 74.4258 123.142 74.4258 122.615C74.4261 122.088 73.9986 121.661 73.4715 121.661Z" fill="#FFA500"/>
<path d="M18.9204 121.661H12.7331C12.2061 121.661 11.7789 122.088 11.7789 122.615C11.7789 123.142 12.2064 123.569 12.7331 123.569H18.9204C19.4477 123.569 19.8749 123.142 19.8749 122.615C19.8746 122.088 19.4477 121.661 18.9204 121.661Z" fill="#FFA500"/>
<path d="M118.16 121.521H94.7142C94.1869 121.521 93.7597 121.948 93.7597 122.475C93.7597 123.002 94.1872 123.429 94.7142 123.429H118.16C118.688 123.429 119.115 123.002 119.115 122.475C119.115 121.948 118.688 121.521 118.16 121.521Z" fill="#FFA500"/>
<path d="M125.289 57.349V40.5184C125.289 39.9914 124.862 39.5639 124.335 39.5639H87.8503C87.323 39.5639 86.8961 39.9914 86.8961 40.5184C86.8961 41.0458 87.3233 41.473 87.8503 41.473H123.381V57.3493C123.381 57.8763 123.809 58.3038 124.335 58.3038C124.862 58.3038 125.289 57.8761 125.289 57.349Z" fill="#FFA500"/>
</svg>
