<svg width="46" height="67" viewBox="0 0 46 67" fill="none" xmlns="http://www.w3.org/2000/svg">
<path d="M39.1 0H6.9C3.09062 0 0 2.81348 0 6.28125V60.7188C0 64.1865 3.09062 67 6.9 67H39.1C42.9094 67 46 64.1865 46 60.7188V6.28125C46 2.81348 42.9094 0 39.1 0ZM23 62.8125C20.4556 62.8125 18.4 60.9412 18.4 58.625C18.4 56.3088 20.4556 54.4375 23 54.4375C25.5444 54.4375 27.6 56.3088 27.6 58.625C27.6 60.9412 25.5444 62.8125 23 62.8125Z" fill="#FFA500"/>
<rect x="12" y="7" width="22" height="32" fill="white"/>
</svg>
