<svg width="60" height="67" viewBox="0 0 60 67" fill="none" xmlns="http://www.w3.org/2000/svg">
<path d="M58.0803 0H1.91967C0.859438 0 0 0.95992 0 2.14364V64.8564C0 66.0401 0.859438 67 1.91967 67H58.0803C59.1406 67 60 66.0401 60 64.8564V2.14364C60 0.95992 59.1406 0 58.0803 0ZM23.426 41.4339C21.6059 43.2123 19.281 44.1917 16.8795 44.1917C11.4837 44.1917 7.09377 39.39 7.09377 33.4877C7.09377 27.5991 11.4837 22.8085 16.8795 22.8085C19.2843 22.8085 21.6013 23.7796 23.4039 25.5429C24.1476 26.27 24.2223 27.5329 23.5709 28.3631C22.9196 29.1935 21.7889 29.2769 21.0452 28.5494C19.8957 27.425 18.4162 26.8055 16.8795 26.8055C13.4573 26.8055 10.6732 29.803 10.6732 33.4877C10.6732 37.1857 13.4573 40.1943 16.8795 40.1943C18.4137 40.1943 19.9015 39.566 21.0686 38.4255C21.8125 37.6982 22.9432 37.7829 23.5941 38.6135C24.2451 39.4444 24.1699 40.7072 23.426 41.4339ZM35.6965 35.4986H32.0897V39.5265C32.0897 40.6303 31.2884 41.525 30.2998 41.525C29.3111 41.525 28.5099 40.6303 28.5099 39.5265V35.4986H24.9032C23.9147 35.4986 23.1133 34.6039 23.1133 33.5001C23.1133 32.3963 23.9145 31.5016 24.9032 31.5016H28.5099V27.4739C28.5099 26.3702 29.3111 25.4754 30.2998 25.4754C31.2884 25.4754 32.0897 26.3702 32.0897 27.4739V31.5016H35.6965C36.685 31.5016 37.4864 32.3963 37.4864 33.5001C37.4864 34.6039 36.6852 35.4986 35.6965 35.4986ZM51.1163 35.4986H47.5094V39.5265C47.5094 40.6303 46.7082 41.525 45.7195 41.525C44.7311 41.525 43.9296 40.6303 43.9296 39.5265V35.4986H40.323C39.3345 35.4986 38.533 34.6039 38.533 33.5001C38.533 32.3963 39.3343 31.5016 40.323 31.5016H43.9296V27.4739C43.9296 26.3702 44.7309 25.4754 45.7195 25.4754C46.708 25.4754 47.5094 26.3702 47.5094 27.4739V31.5016H51.1163C52.1048 31.5016 52.9062 32.3963 52.9062 33.5001C52.9062 34.6039 52.105 35.4986 51.1163 35.4986Z" fill="#FFA500"/>
</svg>
