<svg width="67" height="53" viewBox="0 0 67 53" fill="none" xmlns="http://www.w3.org/2000/svg">
<path d="M60.7675 5.5891V3.3689H52.457V12.2593H60.7675V10.0295H67.0004V5.5891H60.7675Z" fill="#FFA500"/>
<path d="M60.7675 22.0622H52.457V30.9478H60.7675V28.7276H67.0004V24.2872H60.7675V22.0622Z" fill="#FFA500"/>
<path d="M60.7675 41.0543H52.457V49.9351H60.7675V47.7197H67.0004V43.2793H60.7675V41.0543Z" fill="#FFA500"/>
<path d="M6.21042 6.34685H0V10.7872H6.21042V13.0074H14.491V4.12183H6.21042V6.34685Z" fill="#FFA500"/>
<path d="M6.21042 25.0303H0V29.4707H6.21042V31.6909H14.491V22.8004H6.21042V25.0303Z" fill="#FFA500"/>
<path d="M6.21042 44.0227H0V48.4631H6.21042V50.6881H14.491V41.8025H6.21042V44.0227Z" fill="#FFA500"/>
<path d="M49.576 0H17.7378C16.9479 0 16.3115 0.820508 16.3115 1.8389V51.1563C16.3115 52.1747 16.9479 53 17.7378 53H49.576C50.3622 53 51.0023 52.1747 51.0023 51.1563V1.8389C51.0023 0.820508 50.3622 0 49.576 0ZM22.6904 12.6986C21.047 12.6986 19.7181 10.9852 19.7181 8.87114C19.7181 6.75713 21.047 5.03888 22.6904 5.03888C24.33 5.03888 25.659 6.7523 25.659 8.87114C25.659 10.9803 24.3338 12.6986 22.6904 12.6986Z" fill="#FFA500"/>
</svg>
