<svg width="60" height="67" viewBox="0 0 60 67" fill="none" xmlns="http://www.w3.org/2000/svg">
<path d="M41.1328 21.0684H18.8672V45.9316H41.1328V21.0684Z" fill="#FFA500"/>
<path d="M60 23.6855V19.7598H51.6797V9.29102H42.3047V0H38.7891V9.29102H35.2734V0H31.7578V9.29102H28.2422V0H24.7266V9.29102H21.2109V0H17.6953V9.29102H8.32031V19.7598H0V23.6855H8.32031V27.6113H0V31.5371H8.32031V35.4629H0V39.3887H8.32031V43.3145H0V47.2402H8.32031V57.709H17.6953V67H21.2109V57.709H24.7266V67H28.2422V57.709H31.7578V67H35.2734V57.709H38.7891V67H42.3047V57.709H51.6797V47.2402H60V43.3145H51.6797V39.3887H60V35.4629H51.6797V31.5371H60V27.6113H51.6797V23.6855H60ZM44.6484 49.8574H15.3516V17.1426H44.6484V49.8574Z" fill="#FFA500"/>
</svg>
