<svg width="60" height="67" viewBox="0 0 60 67" fill="none" xmlns="http://www.w3.org/2000/svg">
<path d="M47.5781 60.9805H41.813L40.6412 57.0547H19.3588L18.187 60.9805H12.4219C11.4505 60.9805 10.6641 61.8587 10.6641 62.9434C10.6641 64.0281 11.4505 64.9062 12.4219 64.9062H47.5781C48.5495 64.9062 49.3359 64.0281 49.3359 62.9434C49.3359 61.8587 48.5495 60.9805 47.5781 60.9805Z" fill="#FFA500"/>
<path d="M47.5781 13.8711C46.6081 13.8711 45.8203 14.7508 45.8203 15.834C45.8203 16.9172 46.6081 17.7969 47.5781 17.7969C48.5481 17.7969 49.3359 16.9172 49.3359 15.834C49.3359 14.7508 48.5481 13.8711 47.5781 13.8711Z" fill="#FFA500"/>
<path d="M54.6094 2.09375H5.27344C2.36572 2.09375 0 4.73547 0 7.98242V41.3516H10.6641V35.4629C10.6641 34.3782 11.4505 33.5 12.4219 33.5H15.1378C15.3195 32.929 15.5273 32.3688 15.7626 31.8188L13.8414 29.6719C13.1548 28.9051 13.1548 27.663 13.8414 26.8962L18.8127 21.3449C19.4994 20.5781 20.6117 20.5781 21.2984 21.3449L23.221 23.4918C23.7135 23.2291 24.2148 22.9955 24.7266 22.792V19.7598C24.7266 18.6751 25.513 17.7969 26.4844 17.7969H33.5156C34.487 17.7969 35.2734 18.6751 35.2734 19.7598V22.7925C35.7848 22.9955 36.2865 23.2296 36.779 23.4918L38.7016 21.3449C39.3883 20.5787 40.5006 20.5787 41.1873 21.3449L46.1586 26.8962C46.8452 27.663 46.8452 28.9056 46.1586 29.6719L44.2374 31.8188C44.4727 32.3693 44.6805 32.929 44.8622 33.5H47.5781C48.5495 33.5 49.3359 34.3782 49.3359 35.4629V41.3516H60V7.98242C60 4.73547 57.5171 2.09375 54.6094 2.09375ZM47.5781 21.7227C44.6704 21.7227 42.3047 19.0809 42.3047 15.834C42.3047 12.587 44.6704 9.94531 47.5781 9.94531C50.4858 9.94531 52.8516 12.587 52.8516 15.834C52.8516 19.0809 50.4858 21.7227 47.5781 21.7227Z" fill="#FFA500"/>
<path d="M24.7266 39.3887C24.7266 40.067 24.8666 40.7213 25.0676 41.3516H34.9324C35.1334 40.7213 35.2734 40.067 35.2734 39.3887C35.2734 36.1417 32.9077 33.5 30 33.5C27.0918 33.5 24.7266 36.1417 24.7266 39.3887V39.3887Z" fill="#FFA500"/>
<path d="M18.138 35.9536C17.9375 36.82 17.2371 37.4258 16.4351 37.4258H14.1797V41.3516H21.4421C21.324 40.7049 21.2109 40.0552 21.2109 39.3887C21.2109 33.9774 25.1541 29.5742 30 29.5742C34.8459 29.5742 38.7891 33.9774 38.7891 39.3887C38.7891 40.0552 38.676 40.7049 38.5579 41.3516H45.8203V37.4258H43.5649C42.7629 37.4258 42.0625 36.82 41.862 35.9536C41.5819 34.7365 41.1443 33.5593 40.5606 32.4552C40.1537 31.6848 40.2654 30.7034 40.8316 30.0706L42.4301 28.284L39.9445 25.5084L38.3446 27.2949C37.7779 27.9298 36.8971 28.056 36.2073 27.596C35.2203 26.9463 34.1679 26.4556 33.0762 26.1427C32.3003 25.9188 31.7578 25.1368 31.7578 24.2412V21.7227H28.2422V24.2412C28.2422 25.1368 27.6997 25.9188 26.9238 26.1427C25.8321 26.4556 24.7797 26.9463 23.7927 27.596C23.1061 28.056 22.2235 27.9298 21.6554 27.2949L20.0555 25.5084L17.5699 28.284L19.1684 30.0706C19.7346 30.7034 19.8463 31.6848 19.4394 32.4552C18.8557 33.5593 18.4181 34.7365 18.138 35.9536Z" fill="#FFA500"/>
<path d="M0 47.2402C0 50.4872 2.36572 53.1289 5.27344 53.1289H54.6094C57.5171 53.1289 60 50.4872 60 47.2402V45.2773H0V47.2402Z" fill="#FFA500"/>
</svg>
