<svg width="60" height="67" viewBox="0 0 60 67" fill="none" xmlns="http://www.w3.org/2000/svg">
<path d="M39.8997 46.1198C38.0247 48.2136 36.1497 52.4011 36.1497 52.4011L30.8164 53.5919L32.5246 54.8636L40.6692 53.0446C41.3095 51.7122 42.8067 48.7801 44.3599 47.0456C44.6474 46.7258 44.9769 46.4566 45.337 46.2474C45.3192 46.1681 45.2848 46.0947 45.2368 46.033C45.1888 45.9713 45.1285 45.9232 45.0607 45.8924C43.9991 45.4132 41.3716 44.4762 39.8997 46.1198V46.1198Z" fill="#FFA500"/>
<path d="M49.9944 47.7124C48.7515 47.2404 46.6233 46.739 45.3538 48.1563C43.4788 50.25 41.6038 54.4375 41.6038 54.4375L32.2288 56.5313L20.9788 48.1563H30.388C34.9555 48.1563 35.8138 44.0148 35.9756 42.4576C35.9831 42.3844 35.9766 42.3102 35.9566 42.2399C35.9366 42.1697 35.9036 42.105 35.8597 42.05C35.8157 41.995 35.7619 41.951 35.7016 41.9208C35.6414 41.8907 35.5762 41.875 35.5102 41.875H0V60.7188H13.4791L29.9221 64.7991C30.2063 64.8694 30.5012 64.8649 30.7836 64.786L44.518 60.9518C44.7804 60.8786 45.0255 60.7428 45.2365 60.5538C45.4475 60.3648 45.6193 60.1271 45.7403 59.8569L50.5259 49.1691C50.5857 49.036 50.6194 48.8901 50.6246 48.7412C50.6298 48.5924 50.6065 48.444 50.5562 48.3061C50.5058 48.1681 50.4297 48.0438 50.3328 47.9414C50.2359 47.839 50.1205 47.7609 49.9944 47.7124V47.7124Z" fill="#FFA500"/>
<path d="M16.1362 21.3744L18.3781 21.6843L19.1547 23.7781L17.7657 25.7671C17.6602 25.9182 17.6078 26.1071 17.6184 26.2982C17.6289 26.4894 17.7017 26.6697 17.823 26.8051L21.6985 31.1329C21.8198 31.2683 21.9812 31.3495 22.1524 31.3613C22.3236 31.373 22.4928 31.3145 22.628 31.1967L24.4093 29.6457L26.2843 30.5127L26.5618 33.0162C26.5828 33.2063 26.6654 33.3812 26.7939 33.508C26.9224 33.6349 27.088 33.7049 27.2595 33.7049H32.7404C32.9119 33.7049 33.0775 33.6349 33.206 33.508C33.3345 33.3812 33.417 33.2063 33.4381 33.0162L33.7156 30.5127L35.5906 29.6457L37.3706 31.1969C37.5058 31.3147 37.6749 31.3732 37.8461 31.3614C38.0173 31.3497 38.1788 31.2684 38.3001 31.133L42.1756 26.8052C42.2969 26.6698 42.3697 26.4895 42.3802 26.2984C42.3908 26.1072 42.3384 25.9183 42.2329 25.7673L40.8439 23.7782L41.6205 21.6844L43.8624 21.3746C44.0326 21.351 44.1892 21.2588 44.3028 21.1153C44.4163 20.9718 44.479 20.7869 44.479 20.5954V14.4751C44.479 14.2836 44.4163 14.0987 44.3028 13.9553C44.1892 13.8118 44.0326 13.7196 43.8624 13.696L41.6205 13.3861L40.8439 11.2924L42.2338 9.3041C42.3393 9.15306 42.3917 8.96417 42.3811 8.773C42.3706 8.58183 42.2978 8.40156 42.1765 8.26613L38.3007 3.93769C38.1794 3.80204 38.0178 3.72063 37.8465 3.70879C37.6752 3.69696 37.5059 3.75552 37.3706 3.87344L35.5893 5.42491L33.7143 4.55784L33.4376 2.0545C33.4166 1.86443 33.334 1.68951 33.2055 1.56266C33.077 1.43582 32.9114 1.3658 32.7399 1.36578H27.259C27.0875 1.3658 26.9219 1.43582 26.7934 1.56266C26.6649 1.68951 26.5824 1.86443 26.5613 2.0545L26.2838 4.55784L24.4088 5.42491L22.6284 3.87344C22.4931 3.75565 22.324 3.69713 22.1528 3.70889C21.9816 3.72065 21.8201 3.80189 21.6988 3.9373L17.8227 8.26547C17.7012 8.40089 17.6283 8.58127 17.6177 8.77259C17.6071 8.96391 17.6595 9.15296 17.7651 9.3041L19.1541 11.2932L18.3775 13.3869L16.1362 13.6959C15.966 13.7194 15.8094 13.8116 15.6958 13.9551C15.5822 14.0986 15.5195 14.2835 15.5195 14.475V20.5953C15.5195 20.7868 15.5822 20.9717 15.6958 21.1152C15.8094 21.2587 15.966 21.3509 16.1362 21.3744V21.3744ZM26.0202 13.0917C26.8073 12.2128 27.81 11.6143 28.9017 11.3718C29.9933 11.1293 31.1248 11.2537 32.1531 11.7294C33.1815 12.205 34.0604 13.0104 34.6788 14.0439C35.2971 15.0773 35.6272 16.2923 35.6272 17.5352C35.6272 18.778 35.2971 19.993 34.6788 21.0265C34.0604 22.0599 33.1815 22.8653 32.1531 23.341C31.1248 23.8166 29.9933 23.941 28.9017 23.6985C27.81 23.456 26.8073 22.8575 26.0202 21.9786C25.4956 21.3964 25.0792 20.7041 24.7951 19.9415C24.511 19.1789 24.3647 18.3612 24.3647 17.5352C24.3647 16.7093 24.5109 15.8915 24.795 15.1289C25.0791 14.3663 25.4954 13.6739 26.02 13.0917H26.0202Z" fill="#FFA500"/>
<path d="M48.9502 13.4673C48.8197 13.6132 48.7161 13.7864 48.6456 13.9769C48.575 14.1675 48.5387 14.3717 48.5388 14.5779C48.5388 14.7842 48.5753 14.9884 48.6461 15.1788C48.7168 15.3693 48.8205 15.5424 48.9511 15.6881C49.1686 15.9306 49.3411 16.2185 49.4588 16.5354C49.5765 16.8524 49.637 17.1921 49.637 17.5352C49.637 17.8783 49.5765 18.2181 49.4588 18.535C49.3411 18.8519 49.1686 19.1399 48.9511 19.3823C48.8199 19.5279 48.7157 19.701 48.6445 19.8916C48.5733 20.0823 48.5365 20.2868 48.5361 20.4933C48.5358 20.6999 48.572 20.9045 48.6426 21.0955C48.7132 21.2864 48.8168 21.4599 48.9476 21.606C49.0783 21.7522 49.2336 21.868 49.4045 21.9471C49.5755 22.0261 49.7587 22.0666 49.9436 22.0664C50.1286 22.0663 50.3118 22.0253 50.4826 21.946C50.6534 21.8666 50.8085 21.7504 50.939 21.604C51.4178 21.0699 51.7977 20.4357 52.0569 19.7375C52.3161 19.0393 52.4495 18.291 52.4495 17.5352C52.4495 16.7794 52.3161 16.0311 52.0569 15.3329C51.7977 14.6348 51.4178 14.0005 50.939 13.4664C50.8083 13.3206 50.6533 13.205 50.4826 13.1262C50.312 13.0473 50.1291 13.0068 49.9444 13.0069C49.7597 13.007 49.5769 13.0477 49.4063 13.1267C49.2357 13.2057 49.0807 13.3214 48.9502 13.4673V13.4673Z" fill="#FFA500"/>
<path d="M54.9169 9.02937C54.7867 8.88169 54.6315 8.76426 54.4604 8.68387C54.2893 8.60348 54.1056 8.56172 53.92 8.56098C53.7344 8.56025 53.5505 8.60057 53.3788 8.67961C53.2072 8.75865 53.0513 8.87484 52.9201 9.0215C52.7889 9.16815 52.6851 9.34236 52.6145 9.53407C52.5439 9.72579 52.508 9.93121 52.5088 10.1385C52.5097 10.3458 52.5473 10.5508 52.6194 10.7418C52.6916 10.9328 52.7969 11.1059 52.9293 11.2512C53.669 12.076 54.2559 13.0556 54.6563 14.1338C55.0567 15.2121 55.2628 16.3679 55.2628 17.5352C55.2628 18.7025 55.0567 19.8584 54.6563 20.9366C54.2559 22.0149 53.669 22.9945 52.9293 23.8192C52.669 24.1144 52.5237 24.5124 52.525 24.9267C52.5263 25.341 52.6741 25.7379 52.9363 26.0309C53.1985 26.324 53.5538 26.4895 53.9248 26.4914C54.2957 26.4933 54.6523 26.3315 54.9169 26.0411C55.9182 24.9247 56.7125 23.5988 57.2544 22.1393C57.7963 20.6797 58.0753 19.1152 58.0753 17.5352C58.0753 15.9552 57.7963 14.3907 57.2544 12.9312C56.7125 11.4717 55.9182 10.1458 54.9169 9.02937V9.02937Z" fill="#FFA500"/>
<path d="M10.0543 22.0629C10.3325 22.0629 10.6044 21.9708 10.8357 21.7981C11.067 21.6255 11.2472 21.3802 11.3536 21.0932C11.46 20.8062 11.4878 20.4904 11.4334 20.1857C11.379 19.8811 11.245 19.6013 11.0482 19.3817C10.8308 19.1393 10.6583 18.8514 10.5406 18.5344C10.4229 18.2175 10.3623 17.8778 10.3623 17.5347C10.3623 17.1915 10.4229 16.8518 10.5406 16.5349C10.6583 16.2179 10.8308 15.93 11.0482 15.6876C11.1794 15.542 11.2836 15.3689 11.3548 15.1782C11.426 14.9876 11.4629 14.7831 11.4632 14.5765C11.4635 14.37 11.4274 14.1653 11.3568 13.9744C11.2861 13.7835 11.1825 13.61 11.0518 13.4638C10.921 13.3177 10.7657 13.2018 10.5948 13.1228C10.4239 13.0438 10.2407 13.0032 10.0557 13.0034C9.87069 13.0036 9.68755 13.0445 9.51676 13.1239C9.34596 13.2032 9.19086 13.3194 9.06035 13.4658C8.58149 13.9999 8.2016 14.6342 7.94241 15.3324C7.68321 16.0305 7.5498 16.7789 7.5498 17.5347C7.5498 18.2904 7.68321 19.0388 7.94241 19.7369C8.2016 20.4351 8.58149 21.0694 9.06035 21.6035C9.19078 21.7494 9.34573 21.8651 9.5163 21.9439C9.68688 22.0227 9.86972 22.0632 10.0543 22.0629V22.0629Z" fill="#FFA500"/>
<path d="M6.07788 26.5003C6.35605 26.5003 6.62798 26.4082 6.85925 26.2355C7.09052 26.0629 7.27075 25.8176 7.37715 25.5306C7.48354 25.2436 7.51131 24.9278 7.45695 24.6231C7.40258 24.3185 7.26853 24.0387 7.07174 23.8191C6.33202 22.9944 5.74518 22.0148 5.34478 20.9365C4.94439 19.8583 4.7383 18.7024 4.7383 17.5351C4.7383 16.3678 4.94439 15.212 5.34478 14.1337C5.74518 13.0555 6.33202 12.0759 7.07174 11.2511C7.33207 10.956 7.4774 10.5579 7.47609 10.1437C7.47478 9.72942 7.32693 9.33252 7.06475 9.03944C6.80256 8.74636 6.44729 8.58084 6.07631 8.57894C5.70533 8.57703 5.34871 8.7389 5.08413 9.02928C4.0829 10.1457 3.28861 11.4716 2.74667 12.9311C2.20473 14.3906 1.92578 15.9551 1.92578 17.5351C1.92578 19.1151 2.20473 20.6797 2.74667 22.1392C3.28861 23.5987 4.0829 24.9246 5.08413 26.041C5.21453 26.1868 5.36945 26.3025 5.53998 26.3813C5.71052 26.4601 5.89331 26.5006 6.07788 26.5003V26.5003Z" fill="#FFA500"/>
</svg>
