<svg width="60" height="67" viewBox="0 0 60 67" fill="none" xmlns="http://www.w3.org/2000/svg">
<path d="M59.5834 35.1321C59.4408 34.7834 58.9353 34.5123 58.5133 34.5123C56.6857 34.5123 54.8584 34.5123 53.0308 34.5123C52.6089 34.5123 52.1032 34.7834 51.9605 35.1321C51.8209 35.4734 51.7166 35.7779 51.6473 36.0642L47.9851 27.5562C47.381 26.1532 45.7813 25.2106 44.005 25.2106H15.9952C14.2187 25.2106 12.6193 26.1532 12.015 27.5564L8.35263 36.0652C8.28315 35.7786 8.17885 35.4737 8.03913 35.1321C7.89652 34.7834 7.39086 34.5123 6.96896 34.5123C5.14151 34.5123 3.31406 34.5123 1.48646 34.5123C1.06456 34.5123 0.558897 34.7834 0.416289 35.1321C-0.13894 36.4896 -0.138636 37.2667 0.416441 38.6244C0.559049 38.973 1.06471 39.2442 1.48661 39.2442C3.31421 39.2442 5.14166 39.2442 6.96912 39.2442C6.97429 39.2442 6.97976 39.2431 6.98508 39.2429L6.90237 39.4353C5.78447 39.7472 4.97732 40.631 4.97732 41.6745V48.7991V49.3863V57.2702C4.97732 57.8969 5.58211 58.4048 6.32844 58.4048H13.1285C13.8747 58.4048 14.4796 57.8969 14.4796 57.2702V51.7469H45.5204V57.2702C45.5204 57.8969 46.1254 58.4048 46.8716 58.4048H53.6716C54.4179 58.4048 55.0227 57.8969 55.0227 57.2702V49.3863V48.7991V41.6745C55.0227 40.6312 54.2159 39.7476 53.0984 39.4355L53.0156 39.2429C53.0206 39.2431 53.0259 39.2441 53.0309 39.2441C54.8585 39.2441 56.6858 39.2441 58.5134 39.2441C58.9355 39.2441 59.441 38.9729 59.5836 38.6242C60.1387 37.2667 60.1384 36.4896 59.5834 35.1321ZM16.5126 29.3859H43.4838L47.7572 39.3138H12.2394L16.5126 29.3859ZM17.2649 46.3077H11.5761C10.3555 46.3077 9.36624 45.4769 9.36624 44.452C9.36624 43.4272 10.3554 42.5963 11.5761 42.5963H17.2649C18.4853 42.5963 19.4747 43.4271 19.4747 44.452C19.4748 45.4769 18.4853 46.3077 17.2649 46.3077ZM48.4235 46.3077H42.7347C41.5143 46.3077 40.5249 45.4769 40.5249 44.452C40.5249 43.4272 41.5143 42.5963 42.7347 42.5963H48.4235C49.6441 42.5963 50.6333 43.4271 50.6333 44.452C50.6333 45.4769 49.6441 46.3077 48.4235 46.3077Z" fill="#FFA500"/>
<g clip-path="url(#clip0)">
<path d="M29.6795 17.6064C28.2316 17.6064 27.0537 18.5956 27.0537 19.8114C27.0537 21.0272 28.2316 22.0164 29.6795 22.0164C31.1273 22.0164 32.3052 21.0272 32.3052 19.8114C32.3052 18.5956 31.1273 17.6064 29.6795 17.6064Z" fill="#FFA500"/>
<path d="M29.6799 12.7065C27.0327 12.7065 24.6659 13.733 23.1133 15.3366L25.9665 17.7326C25.9665 17.7326 27.2973 16.1382 29.6799 16.1382C32.0139 16.1382 33.3933 17.7326 33.3933 17.7326L36.2466 15.3366C34.6938 13.733 32.3271 12.7065 29.6799 12.7065Z" fill="#FFA500"/>
<path d="M29.6796 2.90668C20.2925 2.90668 15.0368 8.20917 14.8398 8.38933L17.7369 10.8221C20.6768 8.07068 24.9414 6.33667 29.6796 6.33667C34.4178 6.33667 38.6824 8.07073 41.6222 10.8221L44.5193 8.38928C44.3224 8.20917 39.0546 2.90668 29.6796 2.90668Z" fill="#FFA500"/>
<path d="M29.6799 7.80664C25.4243 7.80664 21.5977 9.37685 18.9766 11.8629L21.8707 14.2932C23.7453 12.4254 26.5502 11.2366 29.6799 11.2366C32.8096 11.2366 35.6144 12.4254 37.4891 14.2932L40.3832 11.8629C37.7621 9.3768 33.9355 7.80664 29.6799 7.80664Z" fill="#FFA500"/>
</g>
<defs>
<clipPath id="clip0">
<rect width="29.6795" height="24.9231" fill="white" transform="translate(14.8398)"/>
</clipPath>
</defs>
</svg>
