<svg width="60" height="67" viewBox="0 0 60 67" fill="none" xmlns="http://www.w3.org/2000/svg">
<path d="M18.6531 28.9183L14.8131 38.6539C14.7185 38.8961 14.4808 39.0507 14.2201 39.0507H12.2539C11.9931 39.0507 11.7554 38.8935 11.6631 38.6539L9.84005 34.0077C9.66236 33.549 9.50082 33.1109 9.34852 32.6754C9.18005 33.1547 9.00698 33.6005 8.8339 34.0283L6.91159 38.6668C6.81467 38.9013 6.57928 39.0507 6.32313 39.0507H4.35698C4.08698 39.0507 3.85159 38.8884 3.75928 38.6436L0.166207 28.9054C0.0969764 28.7147 0.124669 28.5034 0.244669 28.3359C0.364669 28.1684 0.556207 28.0704 0.763899 28.0704H2.97698C3.25621 28.0704 3.50082 28.2483 3.5839 28.5059L5.16236 33.4536C5.2939 33.8711 5.41621 34.2654 5.52928 34.6416C5.66775 34.2654 5.81775 33.8685 5.97698 33.4485L7.92005 28.4699C8.01467 28.2302 8.25005 28.0704 8.51082 28.0704H10.3385C10.6039 28.0704 10.8393 28.2328 10.9339 28.475L12.7754 33.3454C12.9416 33.7835 13.0893 34.1932 13.2254 34.5798C13.3385 34.2138 13.4701 33.817 13.6201 33.3815L15.3208 28.4905C15.4085 28.2379 15.6508 28.0679 15.9208 28.0679H18.0577C18.2677 28.0679 18.4616 28.1684 18.5816 28.3359C18.7039 28.5111 18.727 28.725 18.6531 28.9183ZM39.2424 28.9183L35.4024 38.6539C35.3077 38.8961 35.0701 39.0507 34.8116 39.0507H32.8408C32.5801 39.0507 32.3447 38.8935 32.2501 38.6539L30.4293 34.0077C30.2493 33.549 30.0877 33.1109 29.9354 32.6754C29.767 33.1547 29.5939 33.6005 29.4208 34.0283L27.4985 38.6668C27.4016 38.9013 27.1685 39.0507 26.9101 39.0507H24.9416C24.6739 39.0507 24.4362 38.8884 24.3439 38.6436L20.7508 28.9054C20.6816 28.7147 20.7093 28.5034 20.8293 28.3359C20.9493 28.1709 21.1431 28.0704 21.3485 28.0704H23.5616C23.8408 28.0704 24.0854 28.2483 24.1685 28.5059L25.7447 33.4536C25.8762 33.8711 25.9985 34.2654 26.1162 34.6416C26.2524 34.2654 26.4001 33.8685 26.5593 33.4485L28.5047 28.4699C28.597 28.2302 28.8324 28.0704 29.0954 28.0704H30.9231C31.1885 28.0704 31.4262 28.2328 31.5185 28.475L33.3624 33.3454C33.5262 33.7835 33.6739 34.1932 33.8077 34.5798C33.9254 34.2138 34.0524 33.817 34.2047 33.3815L35.9054 28.4905C35.9931 28.2379 36.2377 28.0679 36.5077 28.0679H38.6447C38.857 28.0679 39.0531 28.1684 39.1685 28.3359C39.2908 28.5111 39.3185 28.725 39.2424 28.9183ZM59.8293 28.9183L55.9916 38.6539C55.8947 38.8961 55.6593 39.0507 55.3985 39.0507H53.4301C53.1693 39.0507 52.9316 38.8935 52.8393 38.6539L51.0185 34.0077C50.8385 33.549 50.677 33.1109 50.5247 32.6754C50.3562 33.1547 50.1808 33.6005 50.0077 34.0283L48.0854 38.6668C47.9885 38.9013 47.7531 39.0507 47.497 39.0507H45.5308C45.2608 39.0507 45.0231 38.8884 44.9308 38.6436L41.3377 28.9054C41.2708 28.7147 41.2939 28.5034 41.4139 28.3359C41.5339 28.1684 41.7277 28.0704 41.9354 28.0704H44.1508C44.4301 28.0704 44.6747 28.2483 44.7554 28.5059L46.3339 33.4536C46.4654 33.8711 46.5877 34.2654 46.7031 34.6416C46.8393 34.2654 46.987 33.8685 47.1462 33.4485L49.0916 28.4699C49.1862 28.2302 49.4216 28.0704 49.6847 28.0704H51.5101C51.7754 28.0704 52.0131 28.2328 52.1054 28.475L53.947 33.3454C54.1131 33.7835 54.2631 34.1932 54.3993 34.5798C54.5124 34.2138 54.6439 33.817 54.7939 33.3815L56.497 28.4905C56.5824 28.2379 56.8247 28.0679 57.097 28.0679H59.2339C59.4462 28.0679 59.6401 28.1684 59.7577 28.3359C59.8754 28.5111 59.9031 28.725 59.8293 28.9183Z" fill="#FFA500"/>
<path d="M6.25434 23.1923C6.90742 21.3421 7.72434 19.582 8.69358 17.9431C8.83665 17.974 8.9705 18.0385 9.1205 18.0385H13.459C12.9997 19.6722 12.6397 21.4117 12.3282 23.1923H17.0705C17.4282 21.391 17.8436 19.6465 18.3674 18.0385H41.412C41.9359 19.6465 42.3513 21.391 42.709 23.1923H47.4513C47.1397 21.4117 46.7797 19.6722 46.3205 18.0385H50.659C50.809 18.0385 50.9428 17.974 51.0882 17.9431C52.0528 19.582 52.872 21.3421 53.5251 23.1923H58.4197C54.5174 9.75108 43.2097 0 29.8897 0C16.5697 0 5.26204 9.75108 1.35742 23.1923H6.25434ZM47.2574 12.8846H44.5159C43.9205 11.4853 43.2651 10.1788 42.552 8.97027C44.2597 10.0732 45.8336 11.3874 47.2574 12.8846ZM29.8897 5.15385C33.469 5.15385 36.7736 8.12762 39.2636 12.8846H20.5159C23.0059 8.12762 26.3105 5.15385 29.8897 5.15385ZM17.2228 8.97027C16.512 10.1788 15.8567 11.4853 15.2613 12.8846H12.522C13.9459 11.3874 15.5197 10.0732 17.2228 8.97027Z" fill="#FFA500"/>
<path d="M53.5251 43.8077C52.872 45.6605 52.0528 47.4154 51.0859 49.0569C50.9428 49.0259 50.809 48.9615 50.659 48.9615H46.3182C46.7774 47.3278 47.1374 45.5883 47.449 43.8077H42.7067C42.3513 45.6089 41.9336 47.3561 41.4097 48.9615H18.3674C17.8436 47.3561 17.4282 45.6089 17.0705 43.8077H12.3305C12.642 45.5883 13.002 47.3278 13.4613 48.9615H9.1205C8.9705 48.9615 8.83665 49.0259 8.69358 49.0569C7.72665 47.4154 6.90742 45.6605 6.25434 43.8077H1.35742C5.26204 57.2489 16.5697 67 29.8897 67C43.2097 67 54.5174 57.2489 58.4197 43.8077H53.5251ZM12.522 54.1154H15.2636C15.859 55.5146 16.5143 56.8237 17.2251 58.0297C15.5197 56.9268 13.9459 55.6126 12.522 54.1154ZM29.8897 61.8461C26.3105 61.8461 23.0059 58.8724 20.5159 54.1154H39.2613C36.7736 58.8724 33.469 61.8461 29.8897 61.8461ZM42.5543 58.0297C43.2674 56.8237 43.9228 55.5146 44.5182 54.1154H47.2597C45.8336 55.6126 44.2597 56.9268 42.5543 58.0297Z" fill="#FFA500"/>
</svg>
