<svg width="57" height="28" viewBox="0 0 57 28" fill="none" xmlns="http://www.w3.org/2000/svg">
<ellipse cx="28.5706" cy="7.03282" rx="3.22543" ry="3.40685" fill="#FFA500"/>
<path d="M24.1034 11.7495L24.8904 8.64737L27.0403 10.9183L24.1034 11.7495Z" fill="#FFA500"/>
<path d="M33.037 11.7486L30.1001 10.9174L32.2501 8.64651L33.037 11.7486Z" fill="#FFA500"/>
<path d="M34.8218 7.04655L32.1886 8.65231V5.44079L34.8218 7.04655Z" fill="#FFA500"/>
<path d="M33.0367 2.31305L32.2498 5.41513L30.0998 3.14425L33.0367 2.31305Z" fill="#FFA500"/>
<path d="M22.2627 7.0472L24.8958 5.44144V8.65296L22.2627 7.0472Z" fill="#FFA500"/>
<path d="M28.5849 13.9355L27.0646 10.8603H30.1051L28.5849 13.9355Z" fill="#FFA500"/>
<path d="M28.585 0.369141L30.1053 3.15039H27.0648L28.585 0.369141Z" fill="#FFA500"/>
<path d="M24.1036 2.31391L27.0405 3.14511L24.8905 5.41599L24.1036 2.31391Z" fill="#FFA500"/>
<path d="M14.4224 20.1818C14.0358 20.1818 13.6613 20.123 13.2991 20.0056C12.9417 19.8832 12.6603 19.7266 12.4547 19.5357L12.7264 18.963C12.9222 19.1392 13.1718 19.2836 13.4753 19.3962C13.7837 19.5038 14.0994 19.5577 14.4224 19.5577C14.8483 19.5577 15.1665 19.4867 15.3769 19.3448C15.5874 19.1979 15.6927 19.0046 15.6927 18.7647C15.6927 18.5885 15.6339 18.4466 15.5165 18.3389C15.4039 18.2263 15.2619 18.1406 15.0906 18.0819C14.9242 18.0231 14.6868 17.9571 14.3784 17.8836C13.9917 17.7906 13.6784 17.6976 13.4386 17.6046C13.2036 17.5116 13.0005 17.3697 12.8292 17.1788C12.6627 16.983 12.5795 16.7211 12.5795 16.3932C12.5795 16.119 12.6505 15.8719 12.7925 15.6516C12.9393 15.4313 13.1596 15.2551 13.4533 15.1229C13.747 14.9908 14.1116 14.9247 14.5473 14.9247C14.8507 14.9247 15.1493 14.9639 15.443 15.0422C15.7367 15.1205 15.9888 15.2331 16.1993 15.3799L15.957 15.9673C15.7416 15.8302 15.5116 15.7275 15.2668 15.6589C15.0221 15.5855 14.7822 15.5488 14.5473 15.5488C14.1312 15.5488 13.8179 15.6247 13.6075 15.7764C13.4019 15.9281 13.2991 16.1239 13.2991 16.3638C13.2991 16.54 13.3578 16.6844 13.4753 16.797C13.5928 16.9047 13.7372 16.9903 13.9085 17.054C14.0847 17.1127 14.3221 17.1763 14.6207 17.2449C15.0074 17.3379 15.3182 17.4309 15.5532 17.5239C15.7881 17.6169 15.9888 17.7588 16.1552 17.9497C16.3266 18.1406 16.4122 18.3976 16.4122 18.7207C16.4122 18.9899 16.3388 19.2371 16.1919 19.4622C16.0451 19.6825 15.8224 19.8587 15.5238 19.9909C15.2252 20.1182 14.8581 20.1818 14.4224 20.1818ZM20.8991 16.2316V20.123H20.2309V19.5357C20.089 19.7364 19.9005 19.893 19.6655 20.0056C19.4355 20.1133 19.1834 20.1671 18.9093 20.1671C18.3904 20.1671 17.9817 20.0251 17.6831 19.7412C17.3845 19.4524 17.2352 19.029 17.2352 18.471V16.2316H17.9401V18.3903C17.9401 18.7672 18.0307 19.0535 18.2118 19.2493C18.3929 19.4402 18.6523 19.5357 18.9901 19.5357C19.3621 19.5357 19.6558 19.4231 19.8711 19.1979C20.0865 18.9728 20.1942 18.6546 20.1942 18.2434V16.2316H20.8991ZM24.2087 16.1949C24.703 16.1949 25.0946 16.3393 25.3834 16.6281C25.6771 16.912 25.824 17.3305 25.824 17.8836V20.123H25.1191V17.9644C25.1191 17.5875 25.0285 17.3036 24.8474 17.1127C24.6663 16.9218 24.4069 16.8264 24.0692 16.8264C23.6874 16.8264 23.3863 16.9389 23.166 17.1641C22.9458 17.3844 22.8356 17.7025 22.8356 18.1186V20.123H22.1308V16.2316H22.8063V16.819C22.9482 16.6183 23.1391 16.4641 23.379 16.3564C23.6237 16.2488 23.9003 16.1949 24.2087 16.1949ZM30.6568 17.8396L29.717 18.7941V20.123H28.9828V14.9834H29.717V17.8543L32.5071 14.9834H33.3441L31.1487 17.2963L33.4836 20.123H32.6245L30.6568 17.8396ZM36.1544 14.9834C36.8201 14.9834 37.3438 15.1425 37.7256 15.4607C38.1074 15.7788 38.2983 16.2169 38.2983 16.775C38.2983 17.333 38.1074 17.7711 37.7256 18.0892C37.3438 18.4074 36.8201 18.5665 36.1544 18.5665H34.8841V20.123H34.1499V14.9834H36.1544ZM36.1323 17.9277C36.5973 17.9277 36.9522 17.8298 37.197 17.634C37.4417 17.4333 37.5641 17.147 37.5641 16.775C37.5641 16.4029 37.4417 16.119 37.197 15.9232C36.9522 15.7226 36.5973 15.6222 36.1323 15.6222H34.8841V17.9277H36.1323ZM41.6587 20.1818C41.1399 20.1818 40.6724 20.0692 40.2564 19.844C39.8403 19.614 39.5123 19.2983 39.2725 18.8969C39.0375 18.4955 38.9201 18.0476 38.9201 17.5532C38.9201 17.0589 39.0375 16.611 39.2725 16.2096C39.5123 15.8082 39.8403 15.4949 40.2564 15.2698C40.6724 15.0397 41.1399 14.9247 41.6587 14.9247C42.1727 14.9247 42.6377 15.0397 43.0538 15.2698C43.4698 15.4949 43.7954 15.8082 44.0303 16.2096C44.2653 16.6061 44.3827 17.054 44.3827 17.5532C44.3827 18.0525 44.2653 18.5028 44.0303 18.9042C43.7954 19.3007 43.4698 19.614 43.0538 19.844C42.6377 20.0692 42.1727 20.1818 41.6587 20.1818ZM41.6587 19.5283C42.0356 19.5283 42.3734 19.4427 42.672 19.2713C42.9755 19.1 43.2129 18.8651 43.3842 18.5665C43.5604 18.263 43.6485 17.9252 43.6485 17.5532C43.6485 17.1812 43.5604 16.8459 43.3842 16.5473C43.2129 16.2439 42.9755 16.0065 42.672 15.8351C42.3734 15.6638 42.0356 15.5782 41.6587 15.5782C41.2818 15.5782 40.9392 15.6638 40.6308 15.8351C40.3273 16.0065 40.0875 16.2439 39.9113 16.5473C39.74 16.8459 39.6543 17.1812 39.6543 17.5532C39.6543 17.9252 39.74 18.263 39.9113 18.5665C40.0875 18.8651 40.3273 19.1 40.6308 19.2713C40.9392 19.4427 41.2818 19.5283 41.6587 19.5283Z" fill="white"/>
<path d="M2.07095 25.4295C1.81886 25.4295 1.59125 25.3732 1.38811 25.2606C1.18742 25.148 1.02834 24.9926 0.910863 24.7944C0.795834 24.5961 0.738319 24.3734 0.738319 24.1262C0.738319 23.879 0.795834 23.6563 0.910863 23.4581C1.02834 23.2598 1.18742 23.1044 1.38811 22.9918C1.59125 22.8793 1.81886 22.823 2.07095 22.823C2.25695 22.823 2.42827 22.8536 2.58491 22.9147C2.74155 22.9735 2.87493 23.0616 2.98507 23.1791L2.86759 23.3002C2.662 23.0971 2.3989 22.9955 2.07829 22.9955C1.86292 22.9955 1.66712 23.0445 1.49091 23.1424C1.31469 23.2403 1.17641 23.3761 1.07607 23.5499C0.97572 23.7212 0.925548 23.9133 0.925548 24.1262C0.925548 24.3392 0.97572 24.5325 1.07607 24.7063C1.17641 24.8776 1.31469 25.0122 1.49091 25.1101C1.66712 25.208 1.86292 25.2569 2.07829 25.2569C2.39646 25.2569 2.65956 25.1542 2.86759 24.9486L2.98507 25.0697C2.87493 25.1872 2.74032 25.2765 2.58124 25.3377C2.4246 25.3989 2.25451 25.4295 2.07095 25.4295ZM4.15766 25.4258C3.97654 25.4258 3.81257 25.3842 3.66572 25.301C3.52132 25.2178 3.40752 25.1028 3.3243 24.9559C3.24109 24.8066 3.19948 24.639 3.19948 24.453C3.19948 24.267 3.24109 24.1005 3.3243 23.9537C3.40752 23.8044 3.52132 23.6881 3.66572 23.6049C3.81257 23.5217 3.97654 23.4801 4.15766 23.4801C4.33877 23.4801 4.50152 23.5217 4.64592 23.6049C4.79276 23.6881 4.90779 23.8044 4.99101 23.9537C5.07422 24.1005 5.11583 24.267 5.11583 24.453C5.11583 24.639 5.07422 24.8066 4.99101 24.9559C4.90779 25.1028 4.79276 25.2178 4.64592 25.301C4.50152 25.3842 4.33877 25.4258 4.15766 25.4258ZM4.15766 25.2606C4.3045 25.2606 4.43544 25.2264 4.55047 25.1578C4.66795 25.0893 4.75972 24.9938 4.82581 24.8715C4.89433 24.7491 4.9286 24.6096 4.9286 24.453C4.9286 24.2963 4.89433 24.1568 4.82581 24.0344C4.75972 23.9121 4.66795 23.8166 4.55047 23.7481C4.43544 23.6796 4.3045 23.6453 4.15766 23.6453C4.01081 23.6453 3.87865 23.6796 3.76117 23.7481C3.64614 23.8166 3.55436 23.9121 3.48583 24.0344C3.41975 24.1568 3.38671 24.2963 3.38671 24.453C3.38671 24.6096 3.41975 24.7491 3.48583 24.8715C3.55436 24.9938 3.64614 25.0893 3.76117 25.1578C3.87865 25.2264 4.01081 25.2606 4.15766 25.2606ZM6.56636 23.4801C6.80621 23.4801 6.99589 23.5499 7.13539 23.6894C7.2749 23.8289 7.34465 24.0296 7.34465 24.2914V25.4111H7.16109V24.3061C7.16109 24.0907 7.10602 23.9268 6.99589 23.8142C6.8882 23.7016 6.73646 23.6453 6.54066 23.6453C6.3155 23.6453 6.13806 23.7126 6.00835 23.8472C5.87863 23.9818 5.81378 24.1629 5.81378 24.3906V25.4111H5.63022V23.4948H5.80643V23.9096C5.87251 23.775 5.97041 23.6698 6.10013 23.5939C6.23229 23.518 6.3877 23.4801 6.56636 23.4801ZM9.54765 23.4948L8.68126 25.4111H8.49403L7.63131 23.4948H7.82588L8.58948 25.2092L9.36043 23.4948H9.54765ZM11.4591 24.497H9.81077C9.81567 24.6463 9.8536 24.7797 9.92458 24.8972C9.99555 25.0122 10.091 25.1015 10.2109 25.1652C10.3333 25.2288 10.4704 25.2606 10.6221 25.2606C10.7469 25.2606 10.8619 25.2386 10.9672 25.1945C11.0749 25.148 11.1642 25.0807 11.2352 24.9926L11.3416 25.1138C11.2584 25.2141 11.1532 25.2912 11.0259 25.3451C10.9011 25.3989 10.7653 25.4258 10.6184 25.4258C10.4275 25.4258 10.2574 25.3842 10.1081 25.301C9.95884 25.2178 9.84137 25.1028 9.75571 24.9559C9.67249 24.8091 9.63089 24.6414 9.63089 24.453C9.63089 24.267 9.67005 24.1005 9.74836 23.9537C9.82913 23.8044 9.93926 23.6881 10.0788 23.6049C10.2183 23.5217 10.3749 23.4801 10.5487 23.4801C10.7224 23.4801 10.8779 23.5217 11.0149 23.6049C11.1544 23.6857 11.2633 23.7995 11.3416 23.9463C11.4224 24.0932 11.4628 24.2596 11.4628 24.4456L11.4591 24.497ZM10.5487 23.6416C10.4141 23.6416 10.2929 23.6722 10.1852 23.7334C10.0775 23.7922 9.99066 23.8766 9.92458 23.9867C9.86095 24.0944 9.82423 24.2168 9.81444 24.3538H11.2829C11.2756 24.2168 11.2389 24.0944 11.1728 23.9867C11.1067 23.879 11.0198 23.7946 10.9121 23.7334C10.8044 23.6722 10.6833 23.6416 10.5487 23.6416ZM12.9264 25.29C12.8799 25.334 12.8212 25.3683 12.7502 25.3928C12.6817 25.4148 12.6095 25.4258 12.5336 25.4258C12.3672 25.4258 12.2387 25.3805 12.1481 25.29C12.0576 25.197 12.0123 25.0685 12.0123 24.9045V23.6526H11.6599V23.4948H12.0123V23.0763H12.1958V23.4948H12.8053V23.6526H12.1958V24.8862C12.1958 25.011 12.2252 25.1064 12.284 25.1725C12.3451 25.2361 12.4345 25.268 12.5519 25.268C12.6719 25.268 12.771 25.2325 12.8493 25.1615L12.9264 25.29ZM13.3832 23.4948H13.5668V25.4111H13.3832V23.4948ZM13.475 23.0286C13.4334 23.0286 13.3979 23.0151 13.3686 22.9882C13.3392 22.9588 13.3245 22.9233 13.3245 22.8817C13.3245 22.8401 13.3392 22.8046 13.3686 22.7752C13.3979 22.7459 13.4334 22.7312 13.475 22.7312C13.5166 22.7312 13.5521 22.7459 13.5815 22.7752C13.6108 22.8022 13.6255 22.8364 13.6255 22.878C13.6255 22.9196 13.6108 22.9551 13.5815 22.9845C13.5521 23.0139 13.5166 23.0286 13.475 23.0286ZM15.2215 23.4801C15.4614 23.4801 15.6511 23.5499 15.7906 23.6894C15.9301 23.8289 15.9998 24.0296 15.9998 24.2914V25.4111H15.8163V24.3061C15.8163 24.0907 15.7612 23.9268 15.6511 23.8142C15.5434 23.7016 15.3916 23.6453 15.1958 23.6453C14.9707 23.6453 14.7932 23.7126 14.6635 23.8472C14.5338 23.9818 14.469 24.1629 14.469 24.3906V25.4111H14.2854V23.4948H14.4616V23.9096C14.5277 23.775 14.6256 23.6698 14.7553 23.5939C14.8875 23.518 15.0429 23.4801 15.2215 23.4801ZM18.4295 23.4948V25.2055C18.4295 25.5237 18.3524 25.7587 18.1982 25.9104C18.044 26.0622 17.8115 26.138 17.5007 26.138C17.3245 26.138 17.1581 26.1111 17.0014 26.0573C16.8448 26.0034 16.7187 25.9288 16.6233 25.8333L16.7224 25.6938C16.8179 25.7819 16.9329 25.8504 17.0675 25.8994C17.2021 25.9483 17.3453 25.9728 17.497 25.9728C17.7516 25.9728 17.94 25.9116 18.0624 25.7893C18.1848 25.6693 18.2459 25.4821 18.2459 25.2276V24.9045C18.1676 25.044 18.0587 25.1517 17.9192 25.2276C17.7797 25.3034 17.6231 25.3414 17.4493 25.3414C17.2706 25.3414 17.1079 25.3022 16.961 25.2239C16.8166 25.1431 16.7028 25.0318 16.6196 24.8898C16.5364 24.7479 16.4948 24.5876 16.4948 24.4089C16.4948 24.2302 16.5364 24.0699 16.6196 23.928C16.7028 23.786 16.8166 23.6759 16.961 23.5976C17.1079 23.5193 17.2706 23.4801 17.4493 23.4801C17.6255 23.4801 17.7846 23.5193 17.9265 23.5976C18.0685 23.6759 18.1774 23.786 18.2533 23.928V23.4948H18.4295ZM17.464 25.1762C17.6133 25.1762 17.7479 25.1444 17.8678 25.0807C17.9877 25.0146 18.0807 24.9241 18.1468 24.8091C18.2153 24.6916 18.2496 24.5582 18.2496 24.4089C18.2496 24.2596 18.2153 24.1275 18.1468 24.0124C18.0807 23.8974 17.9877 23.8081 17.8678 23.7444C17.7479 23.6783 17.6133 23.6453 17.464 23.6453C17.3147 23.6453 17.1801 23.6783 17.0602 23.7444C16.9427 23.8081 16.8497 23.8974 16.7811 24.0124C16.7151 24.1275 16.682 24.2596 16.682 24.4089C16.682 24.5582 16.7151 24.6916 16.7811 24.8091C16.8497 24.9241 16.9427 25.0146 17.0602 25.0807C17.1801 25.1444 17.3147 25.1762 17.464 25.1762ZM20.8615 24.1446L20.2852 24.7356V25.4111H20.0979V22.8413H20.2852V24.4933L21.8895 22.8413H22.1171L20.9864 24.0088L22.1942 25.4111H21.9666L20.8615 24.1446ZM23.4657 23.4801C23.7056 23.4801 23.8952 23.5499 24.0347 23.6894C24.1742 23.8289 24.244 24.0296 24.244 24.2914V25.4111H24.0604V24.3061C24.0604 24.0907 24.0054 23.9268 23.8952 23.8142C23.7876 23.7016 23.6358 23.6453 23.44 23.6453C23.2149 23.6453 23.0374 23.7126 22.9077 23.8472C22.778 23.9818 22.7131 24.1629 22.7131 24.3906V25.4111H22.5296V23.4948H22.7058V23.9096C22.7719 23.775 22.8698 23.6698 22.9995 23.5939C23.1316 23.518 23.2871 23.4801 23.4657 23.4801ZM25.6971 25.4258C25.516 25.4258 25.3521 25.3842 25.2052 25.301C25.0608 25.2178 24.947 25.1028 24.8638 24.9559C24.7806 24.8066 24.739 24.639 24.739 24.453C24.739 24.267 24.7806 24.1005 24.8638 23.9537C24.947 23.8044 25.0608 23.6881 25.2052 23.6049C25.3521 23.5217 25.516 23.4801 25.6971 23.4801C25.8783 23.4801 26.041 23.5217 26.1854 23.6049C26.3323 23.6881 26.4473 23.8044 26.5305 23.9537C26.6137 24.1005 26.6553 24.267 26.6553 24.453C26.6553 24.639 26.6137 24.8066 26.5305 24.9559C26.4473 25.1028 26.3323 25.2178 26.1854 25.301C26.041 25.3842 25.8783 25.4258 25.6971 25.4258ZM25.6971 25.2606C25.844 25.2606 25.9749 25.2264 26.09 25.1578C26.2074 25.0893 26.2992 24.9938 26.3653 24.8715C26.4338 24.7491 26.4681 24.6096 26.4681 24.453C26.4681 24.2963 26.4338 24.1568 26.3653 24.0344C26.2992 23.9121 26.2074 23.8166 26.09 23.7481C25.9749 23.6796 25.844 23.6453 25.6971 23.6453C25.5503 23.6453 25.4181 23.6796 25.3007 23.7481C25.1856 23.8166 25.0939 23.9121 25.0253 24.0344C24.9592 24.1568 24.9262 24.2963 24.9262 24.453C24.9262 24.6096 24.9592 24.7491 25.0253 24.8715C25.0939 24.9938 25.1856 25.0893 25.3007 25.1578C25.4181 25.2264 25.5503 25.2606 25.6971 25.2606ZM29.8546 23.4948L29.1277 25.4111H28.9552L28.3091 23.7481L27.6593 25.4111H27.4904L26.7635 23.4948H26.9397L27.5785 25.2055L28.232 23.4948H28.3898L29.0396 25.2019L29.6857 23.4948H29.8546ZM30.2265 22.6871H30.4101V25.4111H30.2265V22.6871ZM32.7477 24.497H31.0993C31.1042 24.6463 31.1421 24.7797 31.2131 24.8972C31.2841 25.0122 31.3795 25.1015 31.4995 25.1652C31.6218 25.2288 31.7589 25.2606 31.9106 25.2606C32.0355 25.2606 32.1505 25.2386 32.2557 25.1945C32.3634 25.148 32.4527 25.0807 32.5237 24.9926L32.6302 25.1138C32.547 25.2141 32.4417 25.2912 32.3145 25.3451C32.1896 25.3989 32.0538 25.4258 31.907 25.4258C31.7161 25.4258 31.546 25.3842 31.3967 25.301C31.2474 25.2178 31.1299 25.1028 31.0442 24.9559C30.961 24.8091 30.9194 24.6414 30.9194 24.453C30.9194 24.267 30.9586 24.1005 31.0369 23.9537C31.1177 23.8044 31.2278 23.6881 31.3673 23.6049C31.5068 23.5217 31.6634 23.4801 31.8372 23.4801C32.011 23.4801 32.1664 23.5217 32.3034 23.6049C32.443 23.6857 32.5519 23.7995 32.6302 23.9463C32.7109 24.0932 32.7513 24.2596 32.7513 24.4456L32.7477 24.497ZM31.8372 23.6416C31.7026 23.6416 31.5815 23.6722 31.4738 23.7334C31.3661 23.7922 31.2792 23.8766 31.2131 23.9867C31.1495 24.0944 31.1128 24.2168 31.103 24.3538H32.5714C32.5641 24.2168 32.5274 24.0944 32.4613 23.9867C32.3952 23.879 32.3083 23.7946 32.2007 23.7334C32.093 23.6722 31.9718 23.6416 31.8372 23.6416ZM34.9675 22.6871V25.4111H34.7876V24.9596C34.7118 25.1089 34.6053 25.2239 34.4683 25.3047C34.3312 25.3854 34.1758 25.4258 34.002 25.4258C33.8234 25.4258 33.6618 25.3842 33.5174 25.301C33.373 25.2178 33.2592 25.1028 33.176 24.9559C33.0952 24.8091 33.0549 24.6414 33.0549 24.453C33.0549 24.2645 33.0952 24.0969 33.176 23.95C33.2592 23.8007 33.373 23.6857 33.5174 23.6049C33.6618 23.5217 33.8234 23.4801 34.002 23.4801C34.1733 23.4801 34.3263 23.5205 34.4609 23.6013C34.598 23.682 34.7057 23.7946 34.784 23.939V22.6871H34.9675ZM34.013 25.2606C34.1599 25.2606 34.2908 25.2264 34.4058 25.1578C34.5233 25.0893 34.6151 24.9938 34.6812 24.8715C34.7497 24.7491 34.784 24.6096 34.784 24.453C34.784 24.2963 34.7497 24.1568 34.6812 24.0344C34.6151 23.9121 34.5233 23.8166 34.4058 23.7481C34.2908 23.6796 34.1599 23.6453 34.013 23.6453C33.8662 23.6453 33.734 23.6796 33.6165 23.7481C33.5015 23.8166 33.4097 23.9121 33.3412 24.0344C33.2751 24.1568 33.2421 24.2963 33.2421 24.453C33.2421 24.6096 33.2751 24.7491 33.3412 24.8715C33.4097 24.9938 33.5015 25.0893 33.6165 25.1578C33.734 25.2264 33.8662 25.2606 34.013 25.2606ZM37.4118 23.4948V25.2055C37.4118 25.5237 37.3347 25.7587 37.1805 25.9104C37.0263 26.0622 36.7938 26.138 36.483 26.138C36.3068 26.138 36.1404 26.1111 35.9837 26.0573C35.8271 26.0034 35.701 25.9288 35.6056 25.8333L35.7047 25.6938C35.8002 25.7819 35.9152 25.8504 36.0498 25.8994C36.1844 25.9483 36.3276 25.9728 36.4793 25.9728C36.7339 25.9728 36.9223 25.9116 37.0447 25.7893C37.1671 25.6693 37.2282 25.4821 37.2282 25.2276V24.9045C37.1499 25.044 37.041 25.1517 36.9015 25.2276C36.762 25.3034 36.6054 25.3414 36.4316 25.3414C36.2529 25.3414 36.0902 25.3022 35.9433 25.2239C35.7989 25.1431 35.6851 25.0318 35.6019 24.8898C35.5187 24.7479 35.4771 24.5876 35.4771 24.4089C35.4771 24.2302 35.5187 24.0699 35.6019 23.928C35.6851 23.786 35.7989 23.6759 35.9433 23.5976C36.0902 23.5193 36.2529 23.4801 36.4316 23.4801C36.6078 23.4801 36.7669 23.5193 36.9089 23.5976C37.0508 23.6759 37.1597 23.786 37.2356 23.928V23.4948H37.4118ZM36.4463 25.1762C36.5956 25.1762 36.7302 25.1444 36.8501 25.0807C36.97 25.0146 37.063 24.9241 37.1291 24.8091C37.1977 24.6916 37.2319 24.5582 37.2319 24.4089C37.2319 24.2596 37.1977 24.1275 37.1291 24.0124C37.063 23.8974 36.97 23.8081 36.8501 23.7444C36.7302 23.6783 36.5956 23.6453 36.4463 23.6453C36.297 23.6453 36.1624 23.6783 36.0425 23.7444C35.925 23.8081 35.832 23.8974 35.7635 24.0124C35.6974 24.1275 35.6643 24.2596 35.6643 24.4089C35.6643 24.5582 35.6974 24.6916 35.7635 24.8091C35.832 24.9241 35.925 25.0146 36.0425 25.0807C36.1624 25.1444 36.297 25.1762 36.4463 25.1762ZM39.7527 24.497H38.1043C38.1092 24.6463 38.1472 24.7797 38.2181 24.8972C38.2891 25.0122 38.3846 25.1015 38.5045 25.1652C38.6269 25.2288 38.7639 25.2606 38.9157 25.2606C39.0405 25.2606 39.1555 25.2386 39.2607 25.1945C39.3684 25.148 39.4578 25.0807 39.5287 24.9926L39.6352 25.1138C39.552 25.2141 39.4468 25.2912 39.3195 25.3451C39.1947 25.3989 39.0588 25.4258 38.912 25.4258C38.7211 25.4258 38.551 25.3842 38.4017 25.301C38.2524 25.2178 38.1349 25.1028 38.0493 24.9559C37.9661 24.8091 37.9244 24.6414 37.9244 24.453C37.9244 24.267 37.9636 24.1005 38.0419 23.9537C38.1227 23.8044 38.2328 23.6881 38.3723 23.6049C38.5118 23.5217 38.6685 23.4801 38.8422 23.4801C39.016 23.4801 39.1714 23.5217 39.3085 23.6049C39.448 23.6857 39.5569 23.7995 39.6352 23.9463C39.716 24.0932 39.7564 24.2596 39.7564 24.4456L39.7527 24.497ZM38.8422 23.6416C38.7076 23.6416 38.5865 23.6722 38.4788 23.7334C38.3711 23.7922 38.2842 23.8766 38.2181 23.9867C38.1545 24.0944 38.1178 24.2168 38.108 24.3538H39.5765C39.5691 24.2168 39.5324 24.0944 39.4663 23.9867C39.4003 23.879 39.3134 23.7946 39.2057 23.7334C39.098 23.6722 38.9768 23.6416 38.8422 23.6416ZM42.1078 25.29C42.0613 25.334 42.0025 25.3683 41.9316 25.3928C41.863 25.4148 41.7908 25.4258 41.715 25.4258C41.5485 25.4258 41.42 25.3805 41.3295 25.29C41.2389 25.197 41.1937 25.0685 41.1937 24.9045V23.6526H40.8412V23.4948H41.1937V23.0763H41.3772V23.4948H41.9866V23.6526H41.3772V24.8862C41.3772 25.011 41.4066 25.1064 41.4653 25.1725C41.5265 25.2361 41.6158 25.268 41.7333 25.268C41.8532 25.268 41.9524 25.2325 42.0307 25.1615L42.1078 25.29ZM43.2454 25.4258C43.0643 25.4258 42.9003 25.3842 42.7535 25.301C42.6091 25.2178 42.4953 25.1028 42.4121 24.9559C42.3288 24.8066 42.2872 24.639 42.2872 24.453C42.2872 24.267 42.3288 24.1005 42.4121 23.9537C42.4953 23.8044 42.6091 23.6881 42.7535 23.6049C42.9003 23.5217 43.0643 23.4801 43.2454 23.4801C43.4265 23.4801 43.5893 23.5217 43.7337 23.6049C43.8805 23.6881 43.9956 23.8044 44.0788 23.9537C44.162 24.1005 44.2036 24.267 44.2036 24.453C44.2036 24.639 44.162 24.8066 44.0788 24.9559C43.9956 25.1028 43.8805 25.2178 43.7337 25.301C43.5893 25.3842 43.4265 25.4258 43.2454 25.4258ZM43.2454 25.2606C43.3923 25.2606 43.5232 25.2264 43.6382 25.1578C43.7557 25.0893 43.8475 24.9938 43.9136 24.8715C43.9821 24.7491 44.0164 24.6096 44.0164 24.453C44.0164 24.2963 43.9821 24.1568 43.9136 24.0344C43.8475 23.9121 43.7557 23.8166 43.6382 23.7481C43.5232 23.6796 43.3923 23.6453 43.2454 23.6453C43.0986 23.6453 42.9664 23.6796 42.8489 23.7481C42.7339 23.8166 42.6421 23.9121 42.5736 24.0344C42.5075 24.1568 42.4745 24.2963 42.4745 24.453C42.4745 24.6096 42.5075 24.7491 42.5736 24.8715C42.6421 24.9938 42.7339 25.0893 42.8489 25.1578C42.9664 25.2264 43.0986 25.2606 43.2454 25.2606ZM46.586 22.8413C46.909 22.8413 47.1624 22.9184 47.3459 23.0726C47.5295 23.2243 47.6213 23.4361 47.6213 23.7077C47.6213 23.9769 47.5295 24.1886 47.3459 24.3428C47.1624 24.4946 46.909 24.5704 46.586 24.5704H45.8518V25.4111H45.6645V22.8413H46.586ZM46.586 24.4016C46.8601 24.4016 47.0694 24.3416 47.2138 24.2217C47.3582 24.1018 47.4304 23.9304 47.4304 23.7077C47.4304 23.485 47.3582 23.3137 47.2138 23.1938C47.0694 23.0714 46.8601 23.0102 46.586 23.0102H45.8518V24.4016H46.586ZM48.8773 25.4258C48.6962 25.4258 48.5322 25.3842 48.3854 25.301C48.241 25.2178 48.1272 25.1028 48.044 24.9559C47.9608 24.8066 47.9192 24.639 47.9192 24.453C47.9192 24.267 47.9608 24.1005 48.044 23.9537C48.1272 23.8044 48.241 23.6881 48.3854 23.6049C48.5322 23.5217 48.6962 23.4801 48.8773 23.4801C49.0584 23.4801 49.2212 23.5217 49.3656 23.6049C49.5124 23.6881 49.6275 23.8044 49.7107 23.9537C49.7939 24.1005 49.8355 24.267 49.8355 24.453C49.8355 24.639 49.7939 24.8066 49.7107 24.9559C49.6275 25.1028 49.5124 25.2178 49.3656 25.301C49.2212 25.3842 49.0584 25.4258 48.8773 25.4258ZM48.8773 25.2606C49.0242 25.2606 49.1551 25.2264 49.2701 25.1578C49.3876 25.0893 49.4794 24.9938 49.5455 24.8715C49.614 24.7491 49.6483 24.6096 49.6483 24.453C49.6483 24.2963 49.614 24.1568 49.5455 24.0344C49.4794 23.9121 49.3876 23.8166 49.2701 23.7481C49.1551 23.6796 49.0242 23.6453 48.8773 23.6453C48.7305 23.6453 48.5983 23.6796 48.4808 23.7481C48.3658 23.8166 48.274 23.9121 48.2055 24.0344C48.1394 24.1568 48.1064 24.2963 48.1064 24.453C48.1064 24.6096 48.1394 24.7491 48.2055 24.8715C48.274 24.9938 48.3658 25.0893 48.4808 25.1578C48.5983 25.2264 48.7305 25.2606 48.8773 25.2606ZM53.0348 23.4948L52.3079 25.4111H52.1354L51.4892 23.7481L50.8394 25.4111H50.6706L49.9437 23.4948H50.1199L50.7587 25.2055L51.4121 23.4948H51.57L52.2198 25.2019L52.8659 23.4948H53.0348ZM54.9719 24.497H53.3236C53.3285 24.6463 53.3664 24.7797 53.4374 24.8972C53.5083 25.0122 53.6038 25.1015 53.7237 25.1652C53.8461 25.2288 53.9831 25.2606 54.1349 25.2606C54.2597 25.2606 54.3747 25.2386 54.48 25.1945C54.5877 25.148 54.677 25.0807 54.748 24.9926L54.8544 25.1138C54.7712 25.2141 54.666 25.2912 54.5387 25.3451C54.4139 25.3989 54.2781 25.4258 54.1312 25.4258C53.9403 25.4258 53.7702 25.3842 53.6209 25.301C53.4716 25.2178 53.3541 25.1028 53.2685 24.9559C53.1853 24.8091 53.1437 24.6414 53.1437 24.453C53.1437 24.267 53.1828 24.1005 53.2611 23.9537C53.3419 23.8044 53.452 23.6881 53.5916 23.6049C53.7311 23.5217 53.8877 23.4801 54.0615 23.4801C54.2352 23.4801 54.3906 23.5217 54.5277 23.6049C54.6672 23.6857 54.7761 23.7995 54.8544 23.9463C54.9352 24.0932 54.9756 24.2596 54.9756 24.4456L54.9719 24.497ZM54.0615 23.6416C53.9268 23.6416 53.8057 23.6722 53.698 23.7334C53.5903 23.7922 53.5034 23.8766 53.4374 23.9867C53.3737 24.0944 53.337 24.2168 53.3272 24.3538H54.7957C54.7883 24.2168 54.7516 24.0944 54.6856 23.9867C54.6195 23.879 54.5326 23.7946 54.4249 23.7334C54.3172 23.6722 54.1961 23.6416 54.0615 23.6416ZM55.6646 23.9133C55.7233 23.7738 55.8151 23.6673 55.9399 23.5939C56.0647 23.518 56.2165 23.4801 56.3951 23.4801V23.66L56.3511 23.6563C56.1382 23.6563 55.9717 23.7236 55.8518 23.8582C55.7319 23.9904 55.6719 24.1752 55.6719 24.4126V25.4111H55.4884V23.4948H55.6646V23.9133Z" fill="white"/>
</svg>
