<svg width="325" height="151" viewBox="0 0 325 151" fill="none" xmlns="http://www.w3.org/2000/svg">
<ellipse cx="167.148" cy="37.9633" rx="17.7821" ry="18.8012" transform="rotate(-0.421957 167.148 37.9633)" fill="white"/>
<path d="M142.71 64.1761L146.922 47.0253L158.867 59.4699L142.71 64.1761Z" fill="white"/>
<path d="M191.96 63.8137L175.735 59.346L187.496 46.7269L191.96 63.8137Z" fill="white"/>
<path d="M201.611 37.7929L187.16 46.7611L187.03 29.0384L201.611 37.7929Z" fill="white"/>
<path d="M191.577 11.7421L187.365 28.8929L175.42 16.4483L191.577 11.7421Z" fill="white"/>
<path d="M132.372 38.3031L146.823 29.3348L146.954 47.0575L132.372 38.3031Z" fill="white"/>
<path d="M167.507 76.0635L159.001 59.1547L175.763 59.0312L167.507 76.0635Z" fill="white"/>
<path d="M166.956 1.19362L175.45 16.4802L158.688 16.6037L166.956 1.19362Z" fill="white"/>
<path d="M142.327 12.1048L158.552 16.5726L146.791 29.1917L142.327 12.1048Z" fill="white"/>
<path d="M89.6976 112.902C87.5658 112.917 85.4991 112.609 83.4974 111.976C81.5225 111.316 79.9645 110.464 78.8234 109.42L80.2978 106.251C81.3844 107.215 82.7665 108.001 84.4441 108.609C86.1486 109.19 87.8913 109.474 89.6723 109.461C92.02 109.444 93.7712 109.04 94.9258 108.248C96.0802 107.43 96.6525 106.36 96.6428 105.038C96.6356 104.066 96.306 103.286 95.654 102.697C95.0288 102.081 94.2427 101.615 93.2959 101.298C92.376 100.981 91.0645 100.626 89.3615 100.234C87.2259 99.737 85.495 99.237 84.169 98.734C82.8699 98.2308 81.7443 97.4565 80.792 96.411C79.8666 95.3384 79.3972 93.898 79.3839 92.09C79.3728 90.5789 79.754 89.2132 80.5277 87.9931C81.3283 86.7728 82.5354 85.7924 84.1492 85.0519C85.7629 84.3114 87.7706 83.9323 90.1723 83.9146C91.8454 83.9023 93.4931 84.106 95.1154 84.5259C96.7377 84.9457 98.132 85.5561 99.2983 86.3571L97.9864 89.6052C96.7935 88.8583 95.521 88.301 94.169 87.9331C92.8167 87.5383 91.4929 87.3456 90.1977 87.3552C87.9039 87.3721 86.18 87.8031 85.0258 88.6482C83.8985 89.493 83.3398 90.5766 83.3495 91.8989C83.3567 92.8704 83.6864 93.664 84.3386 94.2799C84.9906 94.8688 85.7901 95.3352 86.7372 95.6791C87.7111 95.9957 89.0224 96.3369 90.6713 96.7026C92.8069 97.1996 94.5242 97.6997 95.8233 98.2029C97.1224 98.706 98.2345 99.4805 99.1598 100.526C100.112 101.572 100.595 102.985 100.608 104.766C100.619 106.25 100.224 107.616 99.4236 108.863C98.623 110.083 97.4023 111.064 95.7616 111.805C94.1206 112.518 92.0993 112.884 89.6976 112.902ZM125.242 90.8617L125.4 112.315L121.717 112.342L121.693 109.104C120.919 110.216 119.886 111.087 118.595 111.717C117.331 112.32 115.944 112.627 114.433 112.639C111.572 112.66 109.313 111.894 107.656 110.341C105.998 108.761 105.158 106.433 105.135 103.356L105.044 91.0105L108.93 90.9819L109.018 102.882C109.033 104.96 109.544 106.535 110.55 107.607C111.556 108.652 112.99 109.168 114.852 109.154C116.903 109.139 118.518 108.507 119.696 107.256C120.874 106.006 121.455 104.248 121.438 101.981L121.357 90.8903L125.242 90.8617ZM143.487 90.525C146.212 90.5049 148.377 91.2851 149.981 92.8655C151.611 94.4187 152.438 96.7199 152.46 99.7693L152.551 112.115L148.665 112.144L148.578 100.243C148.562 98.1653 148.052 96.6038 147.045 95.5587C146.039 94.5137 144.605 93.998 142.743 94.0117C140.638 94.0272 138.983 94.6601 137.778 95.9104C136.573 97.1336 135.978 98.8921 135.995 101.186L136.077 112.236L132.191 112.265L132.033 90.8117L135.757 90.7843L135.781 94.0225C136.555 92.9104 137.601 92.0526 138.919 91.4492C140.264 90.8456 141.787 90.5375 143.487 90.525ZM179.102 99.3302L173.959 104.63L174.013 111.957L169.965 111.987L169.757 83.6523L173.805 83.6225L173.921 99.4493L189.186 83.5092L193.801 83.4752L181.792 96.3149L194.778 111.804L190.042 111.839L179.102 99.3302ZM209.293 83.3611C212.963 83.3341 215.857 84.1899 217.975 85.9284C220.093 87.6669 221.163 90.0743 221.186 93.1507C221.208 96.227 220.174 98.6499 218.082 100.419C215.99 102.189 213.109 103.087 209.439 103.114L202.436 103.166L202.499 111.747L198.452 111.777L198.243 83.4425L209.293 83.3611ZM209.292 99.5936C211.855 99.5747 213.808 99.0206 215.149 97.9313C216.49 96.8149 217.153 95.2313 217.138 93.1805C217.123 91.1296 216.437 89.5694 215.079 88.5C213.722 87.4035 211.762 86.8647 209.198 86.8836L202.317 86.9343L202.41 99.6443L209.292 99.5936ZM239.85 111.796C236.989 111.817 234.408 111.215 232.105 109.991C229.802 108.739 227.981 107.012 226.642 104.809C225.331 102.606 224.665 100.142 224.645 97.4161C224.625 94.6905 225.254 92.2166 226.533 89.9943C227.839 87.7718 229.635 86.0314 231.919 84.7732C234.204 83.488 236.776 82.8349 239.636 82.8138C242.47 82.793 245.038 83.4082 247.341 84.6596C249.644 85.8841 251.451 87.5979 252.763 89.8011C254.074 91.9774 254.74 94.4418 254.76 97.1943C254.781 99.9467 254.151 102.434 252.872 104.656C251.593 106.852 249.811 108.592 247.527 109.877C245.242 111.135 242.683 111.775 239.85 111.796ZM239.823 108.193C241.901 108.178 243.76 107.692 245.399 106.736C247.065 105.779 248.364 104.474 249.297 102.821C250.256 101.14 250.728 99.2749 250.713 97.2241C250.697 95.1732 250.198 93.3283 249.215 91.6894C248.258 90.0232 246.939 88.7241 245.259 87.7919C243.606 86.8596 241.741 86.401 239.663 86.4163C237.585 86.4316 235.7 86.9178 234.006 87.8748C232.34 88.8316 231.028 90.1501 230.069 91.8304C229.136 93.4834 228.678 95.3354 228.693 97.3862C228.708 99.4371 229.194 101.296 230.151 102.962C231.134 104.601 232.466 105.886 234.146 106.818C235.853 107.75 237.745 108.209 239.823 108.193Z" fill="white"/>
<path d="M13.2778 138.463C11.888 138.473 10.6309 138.172 9.50649 137.559C8.39553 136.947 7.5122 136.096 6.85651 135.008C6.21431 133.92 5.88819 132.695 5.87816 131.332C5.86812 129.969 6.17615 128.739 6.80226 127.641C7.44185 126.544 8.31256 125.68 9.41438 125.052C10.5297 124.423 11.7822 124.103 13.172 124.093C14.1974 124.085 15.1431 124.247 16.0091 124.578C16.875 124.895 17.614 125.376 18.2259 126.019L17.5832 126.692C16.4415 125.58 14.987 125.031 13.2194 125.044C12.0321 125.053 10.9547 125.33 9.98718 125.877C9.01969 126.424 8.26287 127.179 7.71673 128.141C7.17049 129.089 6.90169 130.15 6.91034 131.324C6.91898 132.498 7.20343 133.562 7.76368 134.516C8.32383 135.456 9.09163 136.193 10.0671 136.725C11.0425 137.258 12.1239 137.52 13.3113 137.511C15.0653 137.498 16.5116 136.921 17.6501 135.779L18.3027 136.442C17.7003 137.094 16.9618 137.592 16.0873 137.936C15.2262 138.279 14.2897 138.455 13.2778 138.463ZM24.7815 138.358C23.7831 138.365 22.8774 138.142 22.0645 137.689C21.265 137.237 20.6329 136.607 20.1682 135.801C19.7034 134.981 19.4672 134.059 19.4597 133.033C19.4521 132.008 19.6748 131.089 20.1275 130.276C20.5802 129.449 21.2029 128.804 21.9956 128.339C22.8018 127.874 23.7041 127.638 24.7025 127.631C25.701 127.624 26.5999 127.846 27.3994 128.299C28.2123 128.752 28.8512 129.388 29.316 130.208C29.7807 131.014 30.0168 131.93 30.0244 132.955C30.0319 133.981 29.8094 134.907 29.3567 135.733C28.9039 136.546 28.2744 137.185 27.4682 137.65C26.6756 138.114 25.78 138.35 24.7815 138.358ZM24.7748 137.447C25.5844 137.441 26.3048 137.247 26.9362 136.864C27.5811 136.482 28.0832 135.952 28.4425 135.274C28.8153 134.597 28.9986 133.826 28.9922 132.963C28.9858 132.099 28.7913 131.332 28.4085 130.66C28.0392 129.988 27.5294 129.465 26.879 129.092C26.242 128.719 25.5188 128.536 24.7092 128.542C23.8997 128.548 23.1725 128.742 22.5276 129.124C21.8962 129.507 21.3942 130.037 21.0213 130.714C20.662 131.392 20.4855 132.162 20.4919 133.026C20.4982 133.889 20.686 134.657 21.0553 135.329C21.4381 136.001 21.9479 136.523 22.5849 136.896C23.2353 137.269 23.9653 137.453 24.7748 137.447ZM37.9816 127.533C39.3039 127.523 40.3524 127.9 41.1271 128.664C41.9019 129.427 42.2946 130.531 42.3052 131.974L42.3507 138.147L41.3387 138.155L41.2938 132.063C41.2851 130.875 40.9749 129.974 40.3631 129.357C39.7649 128.741 38.9261 128.437 37.8466 128.445C36.6053 128.454 35.6298 128.832 34.9202 129.58C34.2106 130.327 33.8604 131.328 33.8696 132.583L33.911 138.209L32.8991 138.217L32.8213 127.652L33.7928 127.645L33.8096 129.932C34.1684 129.187 34.7039 128.603 35.4159 128.179C36.1414 127.756 36.9967 127.54 37.9816 127.533ZM54.4179 127.493L49.7193 138.093L48.6872 138.101L43.8532 127.571L44.9259 127.563L49.2052 136.984L53.3857 127.501L54.4179 127.493ZM57.3153 129.779C57.6335 129.008 58.1351 128.417 58.8203 128.007C59.5053 127.584 60.3403 127.368 61.3253 127.361L61.3326 128.353L61.0895 128.334C59.9157 128.343 59.0009 128.721 58.3453 129.468C57.6895 130.201 57.3664 131.222 57.3761 132.531L57.4166 138.036L56.4047 138.044L56.3268 127.479L57.2983 127.472L57.3153 129.779ZM72.6777 132.884L63.5904 132.951C63.6235 133.774 63.838 134.508 64.2341 135.152C64.6301 135.784 65.1599 136.272 65.8236 136.618C66.5008 136.964 67.2577 137.134 68.0942 137.128C68.7824 137.123 69.4156 136.997 69.994 136.749C70.5858 136.489 71.0755 136.114 71.4633 135.625L72.0551 136.289C71.6004 136.846 71.0234 137.275 70.3239 137.577C69.638 137.879 68.8903 138.033 68.0807 138.039C67.0283 138.046 66.0889 137.824 65.2624 137.371C64.436 136.919 63.7837 136.289 63.3055 135.483C62.8408 134.677 62.6046 133.754 62.597 132.715C62.5894 131.69 62.7985 130.771 63.2243 129.958C63.6635 129.132 64.266 128.487 65.0317 128.022C65.7974 127.558 66.6592 127.322 67.6172 127.315C68.5751 127.308 69.4336 127.531 70.1926 127.984C70.9649 128.424 71.57 129.047 72.0077 129.853C72.4589 130.659 72.6883 131.575 72.6959 132.601L72.6777 132.884ZM67.6237 128.205C66.8816 128.211 66.215 128.384 65.6238 128.726C65.0325 129.054 64.557 129.523 64.1971 130.133C63.8507 130.729 63.6533 131.406 63.6049 132.162L71.7004 132.102C71.6544 131.347 71.447 130.674 71.0784 130.083C70.7097 129.492 70.2273 129.03 69.6311 128.697C69.0349 128.364 68.3658 128.2 67.6237 128.205ZM80.799 137.196C80.5444 137.441 80.222 137.632 79.8317 137.77C79.4548 137.894 79.0572 137.958 78.6389 137.961C77.7214 137.968 77.0112 137.723 76.5083 137.228C76.0053 136.719 75.7505 136.012 75.7438 135.108L75.693 128.207L73.7501 128.221L73.7437 127.351L75.6866 127.336L75.6696 125.029L76.6816 125.022L76.6985 127.329L80.0582 127.304L80.0646 128.174L76.705 128.199L76.755 135C76.7601 135.688 76.9259 136.213 77.2524 136.575C77.5923 136.923 78.0861 137.095 78.7337 137.09C79.3948 137.085 79.9399 136.885 80.3687 136.491L80.799 137.196ZM83.2446 127.281L84.2565 127.273L84.3343 137.838L83.3224 137.845L83.2446 127.281ZM83.7316 124.707C83.5022 124.708 83.306 124.636 83.143 124.488C82.9799 124.328 82.8975 124.133 82.8958 123.903C82.8942 123.674 82.9737 123.478 83.1344 123.315C83.2951 123.151 83.4901 123.069 83.7195 123.067C83.9489 123.066 84.1451 123.145 84.3082 123.306C84.4712 123.453 84.5536 123.641 84.5553 123.871C84.557 124.1 84.4775 124.296 84.3167 124.46C84.156 124.623 83.961 124.705 83.7316 124.707ZM93.3784 127.125C94.7007 127.115 95.7492 127.492 96.5239 128.256C97.2987 129.019 97.6914 130.123 97.702 131.566L97.7475 137.739L96.7355 137.747L96.6906 131.655C96.6819 130.467 96.3717 129.566 95.7599 128.949C95.1617 128.333 94.3229 128.029 93.2434 128.037C92.0021 128.046 91.0267 128.424 90.317 129.172C89.6074 129.919 89.2572 130.92 89.2664 132.175L89.3078 137.801L88.2959 137.809L88.2181 127.244L89.1896 127.237L89.2064 129.524C89.5652 128.779 90.1007 128.195 90.8127 127.772C91.5382 127.348 92.3935 127.132 93.3784 127.125ZM111.064 127.076L111.134 136.507C111.147 138.261 110.731 139.56 109.887 140.402C109.043 141.245 107.765 141.673 106.051 141.686C105.08 141.693 104.161 141.551 103.295 141.261C102.43 140.97 101.732 140.564 101.202 140.041L101.743 139.268C102.272 139.75 102.909 140.123 103.653 140.388C104.397 140.652 105.188 140.781 106.024 140.775C107.427 140.765 108.464 140.42 109.134 139.74C109.803 139.074 110.133 138.039 110.123 136.636L110.11 134.855C109.684 135.627 109.087 136.225 108.321 136.649C107.555 137.073 106.693 137.289 105.736 137.296C104.751 137.303 103.852 137.094 103.039 136.668C102.24 136.229 101.608 135.619 101.143 134.84C100.679 134.061 100.443 133.179 100.436 132.194C100.428 131.209 100.651 130.323 101.104 129.538C101.557 128.752 102.18 128.14 102.973 127.702C103.779 127.264 104.675 127.042 105.66 127.035C106.631 127.028 107.51 127.237 108.296 127.663C109.082 128.089 109.686 128.692 110.11 129.471L110.093 127.083L111.064 127.076ZM105.81 136.384C106.633 136.378 107.374 136.198 108.032 135.842C108.691 135.473 109.2 134.97 109.559 134.333C109.932 133.682 110.116 132.946 110.11 132.123C110.104 131.3 109.909 130.572 109.527 129.941C109.158 129.31 108.642 128.821 107.978 128.475C107.314 128.115 106.571 127.939 105.748 127.945C104.925 127.951 104.184 128.139 103.525 128.508C102.88 128.863 102.371 129.36 101.998 129.996C101.638 130.633 101.462 131.363 101.468 132.186C101.474 133.009 101.661 133.743 102.03 134.388C102.413 135.02 102.929 135.515 103.58 135.875C104.243 136.221 104.987 136.391 105.81 136.384ZM124.498 130.559L121.345 133.841L121.372 137.565L120.34 137.573L120.236 123.406L121.268 123.398L121.335 132.506L130.112 123.333L131.367 123.324L125.181 129.806L131.897 137.488L130.642 137.497L124.498 130.559ZM138.828 126.79C140.15 126.781 141.199 127.158 141.974 127.921C142.748 128.684 143.141 129.788 143.152 131.232L143.197 137.404L142.185 137.412L142.14 131.32C142.132 130.133 141.821 129.231 141.21 128.615C140.611 127.998 139.773 127.694 138.693 127.702C137.452 127.711 136.476 128.09 135.767 128.837C135.057 129.584 134.707 130.585 134.716 131.84L134.758 137.467L133.746 137.474L133.668 126.909L134.639 126.902L134.656 129.189C135.015 128.444 135.55 127.86 136.262 127.437C136.988 127.013 137.843 126.798 138.828 126.79ZM151.209 137.426C150.21 137.434 149.305 137.211 148.492 136.758C147.692 136.305 147.06 135.676 146.596 134.87C146.131 134.05 145.895 133.127 145.887 132.102C145.879 131.077 146.102 130.157 146.555 129.344C147.008 128.518 147.63 127.873 148.423 127.408C149.229 126.943 150.131 126.707 151.13 126.7C152.128 126.692 153.027 126.915 153.827 127.368C154.64 127.821 155.279 128.457 155.743 129.277C156.208 130.083 156.444 130.999 156.452 132.024C156.459 133.05 156.237 133.976 155.784 134.802C155.331 135.615 154.702 136.254 153.896 136.719C153.103 137.183 152.207 137.419 151.209 137.426ZM151.202 136.516C152.012 136.51 152.732 136.316 153.364 135.933C154.008 135.551 154.511 135.021 154.87 134.343C155.243 133.666 155.426 132.895 155.42 132.032C155.413 131.168 155.219 130.401 154.836 129.729C154.467 129.057 153.957 128.534 153.306 128.161C152.669 127.788 151.946 127.605 151.137 127.611C150.327 127.617 149.6 127.811 148.955 128.193C148.324 128.576 147.822 129.106 147.449 129.783C147.089 130.461 146.913 131.231 146.919 132.094C146.926 132.958 147.113 133.726 147.483 134.398C147.865 135.07 148.375 135.592 149.012 135.965C149.663 136.338 150.393 136.522 151.202 136.516ZM174.05 126.612L170.121 137.206L169.17 137.213L165.54 128.071L162.025 137.266L161.094 137.273L157.009 126.738L157.981 126.73L161.572 136.136L165.105 126.678L165.975 126.671L169.627 136.056L173.119 126.619L174.05 126.612ZM176.068 122.144L177.08 122.137L177.19 137.154L176.178 137.162L176.068 122.144ZM190.04 132.02L180.953 132.087C180.986 132.91 181.201 133.643 181.597 134.288C181.993 134.919 182.522 135.408 183.186 135.754C183.863 136.1 184.62 136.27 185.457 136.263C186.145 136.258 186.778 136.132 187.357 135.885C187.948 135.624 188.438 135.25 188.826 134.761L189.418 135.425C188.963 135.981 188.386 136.411 187.687 136.713C187.001 137.014 186.253 137.168 185.443 137.174C184.391 137.182 183.451 136.96 182.625 136.507C181.799 136.054 181.146 135.425 180.668 134.619C180.203 133.813 179.967 132.89 179.96 131.851C179.952 130.826 180.161 129.907 180.587 129.094C181.026 128.268 181.629 127.622 182.394 127.158C183.16 126.693 184.022 126.458 184.98 126.451C185.938 126.444 186.796 126.667 187.555 127.12C188.327 127.559 188.933 128.182 189.37 128.989C189.821 129.795 190.051 130.711 190.058 131.736L190.04 132.02ZM184.986 127.341C184.244 127.347 183.578 127.52 182.986 127.862C182.395 128.19 181.92 128.659 181.56 129.269C181.213 129.865 181.016 130.541 180.967 131.297L189.063 131.238C189.017 130.482 188.81 129.809 188.441 129.218C188.072 128.627 187.59 128.165 186.994 127.832C186.398 127.499 185.728 127.336 184.986 127.341ZM202.205 121.952L202.315 136.969L201.324 136.976L201.305 134.487C200.893 135.313 200.311 135.952 199.559 136.402C198.806 136.853 197.951 137.082 196.993 137.089C196.008 137.097 195.116 136.874 194.317 136.421C193.517 135.968 192.885 135.338 192.42 134.532C191.969 133.726 191.74 132.803 191.732 131.764C191.724 130.725 191.94 129.8 192.38 128.987C192.832 128.16 193.455 127.522 194.248 127.07C195.04 126.606 195.929 126.37 196.914 126.363C197.859 126.356 198.704 126.572 199.449 127.012C200.208 127.452 200.806 128.068 201.244 128.861L201.193 121.959L202.205 121.952ZM197.047 136.178C197.857 136.172 198.577 135.978 199.209 135.595C199.853 135.213 200.356 134.683 200.715 134.006C201.088 133.328 201.271 132.558 201.265 131.694C201.258 130.831 201.064 130.063 200.681 129.391C200.312 128.719 199.802 128.197 199.151 127.824C198.514 127.451 197.791 127.267 196.982 127.273C196.172 127.279 195.445 127.473 194.8 127.856C194.169 128.238 193.667 128.768 193.294 129.446C192.934 130.123 192.758 130.893 192.764 131.757C192.771 132.62 192.958 133.388 193.328 134.06C193.71 134.732 194.22 135.254 194.857 135.627C195.508 136.001 196.238 136.184 197.047 136.178ZM215.713 126.305L215.782 135.736C215.795 137.491 215.38 138.789 214.536 139.632C213.692 140.475 212.413 140.902 210.7 140.915C209.728 140.922 208.81 140.78 207.944 140.49C207.078 140.199 206.38 139.793 205.85 139.271L206.391 138.498C206.921 138.979 207.558 139.353 208.302 139.617C209.046 139.881 209.836 140.01 210.673 140.004C212.076 139.994 213.112 139.649 213.782 138.969C214.452 138.303 214.781 137.269 214.771 135.865L214.758 134.084C214.332 134.857 213.736 135.455 212.97 135.879C212.204 136.303 211.342 136.518 210.384 136.525C209.399 136.532 208.5 136.323 207.687 135.897C206.888 135.458 206.256 134.849 205.792 134.069C205.327 133.29 205.091 132.408 205.084 131.423C205.077 130.438 205.3 129.553 205.753 128.767C206.206 127.981 206.828 127.369 207.621 126.931C208.428 126.494 209.323 126.271 210.308 126.264C211.28 126.257 212.158 126.466 212.944 126.892C213.73 127.318 214.335 127.921 214.759 128.701L214.741 126.312L215.713 126.305ZM210.458 135.614C211.281 135.608 212.022 135.427 212.681 135.071C213.339 134.702 213.848 134.199 214.208 133.562C214.581 132.912 214.764 132.175 214.758 131.352C214.752 130.529 214.558 129.802 214.175 129.17C213.806 128.539 213.29 128.05 212.626 127.704C211.963 127.345 211.219 127.168 210.396 127.174C209.573 127.18 208.832 127.368 208.174 127.737C207.529 128.093 207.02 128.589 206.646 129.226C206.287 129.863 206.11 130.593 206.116 131.416C206.122 132.239 206.31 132.973 206.679 133.618C207.061 134.249 207.578 134.744 208.228 135.104C208.892 135.45 209.635 135.62 210.458 135.614ZM228.659 131.735L219.571 131.802C219.604 132.625 219.819 133.359 220.215 134.004C220.611 134.635 221.141 135.124 221.804 135.47C222.482 135.815 223.239 135.985 224.075 135.979C224.763 135.974 225.396 135.848 225.975 135.601C226.567 135.34 227.056 134.965 227.444 134.477L228.036 135.14C227.581 135.697 227.004 136.126 226.305 136.428C225.619 136.73 224.871 136.884 224.062 136.89C223.009 136.898 222.07 136.675 221.243 136.223C220.417 135.77 219.765 135.14 219.286 134.334C218.822 133.528 218.585 132.606 218.578 131.567C218.57 130.541 218.779 129.622 219.205 128.809C219.644 127.983 220.247 127.338 221.013 126.873C221.778 126.409 222.64 126.173 223.598 126.166C224.556 126.159 225.414 126.382 226.173 126.835C226.946 127.275 227.551 127.898 227.989 128.704C228.44 129.511 228.669 130.426 228.677 131.452L228.659 131.735ZM223.605 127.057C222.862 127.062 222.196 127.236 221.605 127.577C221.013 127.906 220.538 128.375 220.178 128.984C219.832 129.581 219.634 130.257 219.586 131.013L227.681 130.953C227.635 130.198 227.428 129.525 227.059 128.934C226.691 128.343 226.208 127.881 225.612 127.548C225.016 127.215 224.347 127.051 223.605 127.057ZM241.674 136.011C241.42 136.256 241.097 136.447 240.707 136.585C240.33 136.709 239.933 136.773 239.514 136.776C238.597 136.783 237.887 136.538 237.384 136.043C236.881 135.534 236.626 134.827 236.619 133.923L236.568 127.022L234.625 127.036L234.619 126.166L236.562 126.152L236.545 123.844L237.557 123.837L237.574 126.144L240.934 126.119L240.94 126.99L237.58 127.014L237.63 133.815C237.635 134.503 237.801 135.028 238.128 135.39C238.468 135.738 238.961 135.91 239.609 135.905C240.27 135.9 240.815 135.701 241.244 135.306L241.674 136.011ZM247.951 136.714C246.953 136.721 246.047 136.499 245.234 136.046C244.435 135.593 243.803 134.963 243.338 134.157C242.873 133.338 242.637 132.415 242.63 131.39C242.622 130.364 242.845 129.445 243.298 128.632C243.75 127.806 244.373 127.16 245.166 126.695C245.972 126.231 246.874 125.995 247.873 125.987C248.871 125.98 249.77 126.203 250.569 126.656C251.382 127.108 252.021 127.745 252.486 128.564C252.951 129.371 253.187 130.286 253.194 131.312C253.202 132.337 252.979 133.263 252.527 134.09C252.074 134.902 251.444 135.541 250.638 136.006C249.846 136.471 248.95 136.707 247.951 136.714ZM247.945 135.803C248.754 135.797 249.475 135.603 250.106 135.221C250.751 134.838 251.253 134.308 251.612 133.631C251.985 132.953 252.169 132.183 252.162 131.319C252.156 130.456 251.961 129.688 251.578 129.016C251.209 128.344 250.699 127.822 250.049 127.449C249.412 127.076 248.689 126.892 247.879 126.898C247.07 126.904 246.342 127.098 245.698 127.481C245.066 127.863 244.564 128.393 244.191 129.071C243.832 129.748 243.655 130.518 243.662 131.382C243.668 132.245 243.856 133.013 244.225 133.685C244.608 134.357 245.118 134.88 245.755 135.253C246.405 135.626 247.135 135.809 247.945 135.803ZM266.263 122.33C268.044 122.317 269.444 122.732 270.462 123.574C271.48 124.403 271.995 125.567 272.006 127.065C272.016 128.549 271.519 129.72 270.513 130.577C269.508 131.421 268.114 131.85 266.333 131.863L262.285 131.892L262.32 136.527L261.287 136.535L261.183 122.368L266.263 122.33ZM266.326 130.932C267.838 130.921 268.989 130.582 269.78 129.915C270.571 129.248 270.962 128.3 270.953 127.072C270.944 125.844 270.539 124.903 269.738 124.248C268.937 123.579 267.781 123.25 266.27 123.261L262.222 123.291L262.279 130.962L266.326 130.932ZM279 136.485C278.002 136.493 277.096 136.27 276.283 135.817C275.483 135.364 274.851 134.735 274.387 133.929C273.922 133.109 273.686 132.186 273.678 131.161C273.671 130.135 273.893 129.216 274.346 128.403C274.799 127.577 275.421 126.931 276.214 126.467C277.02 126.002 277.923 125.766 278.921 125.759C279.919 125.751 280.818 125.974 281.618 126.427C282.431 126.88 283.07 127.516 283.534 128.336C283.999 129.142 284.235 130.058 284.243 131.083C284.25 132.109 284.028 133.034 283.575 133.861C283.122 134.674 282.493 135.313 281.687 135.777C280.894 136.242 279.998 136.478 279 136.485ZM278.993 135.575C279.803 135.569 280.523 135.374 281.155 134.992C281.8 134.609 282.302 134.079 282.661 133.402C283.034 132.725 283.217 131.954 283.211 131.091C283.204 130.227 283.01 129.459 282.627 128.788C282.258 128.116 281.748 127.593 281.097 127.22C280.46 126.847 279.737 126.663 278.928 126.669C278.118 126.675 277.391 126.87 276.746 127.252C276.115 127.635 275.613 128.165 275.24 128.842C274.88 129.519 274.704 130.29 274.71 131.153C274.717 132.017 274.904 132.785 275.274 133.457C275.657 134.128 276.166 134.651 276.803 135.024C277.454 135.397 278.184 135.581 278.993 135.575ZM301.841 125.671L297.912 136.265L296.961 136.272L293.331 127.13L289.816 136.325L288.885 136.332L284.8 125.796L285.772 125.789L289.363 135.195L292.896 125.737L293.766 125.73L297.418 135.115L300.911 125.678L301.841 125.671ZM312.561 131.117L303.474 131.184C303.507 132.007 303.722 132.741 304.118 133.386C304.514 134.017 305.044 134.506 305.707 134.852C306.384 135.197 307.141 135.367 307.978 135.361C308.666 135.356 309.299 135.23 309.878 134.983C310.469 134.722 310.959 134.347 311.347 133.859L311.939 134.522C311.484 135.079 310.907 135.508 310.208 135.81C309.522 136.112 308.774 136.266 307.964 136.272C306.912 136.28 305.973 136.057 305.146 135.605C304.32 135.152 303.667 134.523 303.189 133.716C302.724 132.91 302.488 131.988 302.481 130.949C302.473 129.923 302.682 129.004 303.108 128.192C303.547 127.365 304.15 126.72 304.915 126.255C305.681 125.791 306.543 125.555 307.501 125.548C308.459 125.541 309.317 125.764 310.076 126.217C310.849 126.657 311.454 127.28 311.891 128.086C312.343 128.893 312.572 129.809 312.58 130.834L312.561 131.117ZM307.507 126.439C306.765 126.444 306.099 126.618 305.507 126.959C304.916 127.288 304.441 127.757 304.081 128.367C303.734 128.963 303.537 129.639 303.489 130.395L311.584 130.335C311.538 129.58 311.331 128.907 310.962 128.316C310.593 127.725 310.111 127.263 309.515 126.93C308.919 126.597 308.249 126.433 307.507 126.439ZM316.356 127.871C316.674 127.1 317.176 126.509 317.861 126.099C318.546 125.676 319.381 125.461 320.366 125.453L320.374 126.445L320.131 126.427C318.957 126.435 318.042 126.813 317.386 127.56C316.73 128.294 316.407 129.315 316.417 130.624L316.458 136.128L315.446 136.136L315.368 125.571L316.339 125.564L316.356 127.871Z" fill="white"/>
</svg>
