<svg width="80" height="70" viewBox="0 0 80 70" fill="none" xmlns="http://www.w3.org/2000/svg">
<path d="M0 19.6491C0 8.79723 8.79724 0 19.6491 0H59.4749C70.3268 0 79.124 8.79721 79.124 19.6491V49.9915C79.124 60.8434 70.3268 69.6407 59.4749 69.6407H19.6491C8.79724 69.6407 0 60.8434 0 49.9915V19.6491Z" fill="#FFA500"/>
<path d="M20.9395 19.7422C22.5629 19.7422 23.8789 18.4568 23.8789 16.8711C23.8789 15.2854 22.5629 14 20.9395 14C19.316 14 18 15.2854 18 16.8711C18 18.4568 19.316 19.7422 20.9395 19.7422Z" fill="black"/>
<path d="M58.0605 19.7422C59.684 19.7422 61 18.4568 61 16.8711C61 15.2854 59.684 14 58.0605 14C56.4371 14 55.1211 15.2854 55.1211 16.8711C55.1211 18.4568 56.4371 19.7422 58.0605 19.7422Z" fill="black"/>
<path d="M20.9395 56C22.5629 56 23.8789 54.7146 23.8789 53.1289C23.8789 51.5432 22.5629 50.2578 20.9395 50.2578C19.316 50.2578 18 51.5432 18 53.1289C18 54.7146 19.316 56 20.9395 56Z" fill="black"/>
<path d="M58.0605 56C59.684 56 61 54.7146 61 53.1289C61 51.5432 59.684 50.2578 58.0605 50.2578C56.4371 50.2578 55.1211 51.5432 55.1211 53.1289C55.1211 54.7146 56.4371 56 58.0605 56Z" fill="black"/>
<path d="M33.2196 36.2305H26.9648C27.4577 41.0555 30.8165 45.0683 35.3495 46.6177C34.9858 45.9171 34.662 45.1041 34.3817 44.1798C33.7124 41.9738 33.3078 39.188 33.2196 36.2305Z" fill="black"/>
<path d="M26.9648 33.7695H33.2196C33.3078 30.812 33.7124 28.0262 34.3816 25.8203C34.6619 24.8959 34.9857 24.0829 35.3494 23.3822C30.8164 24.9317 27.4576 28.9444 26.9648 33.7695V33.7695Z" fill="black"/>
<path d="M39.4995 47.3047C40.2452 47.3047 41.3466 46.3001 42.202 43.4806C42.806 41.4892 43.1737 38.9505 43.2593 36.2305H35.7397C35.8252 38.9506 36.1928 41.4892 36.7969 43.4807C37.6522 46.3001 38.7538 47.3047 39.4995 47.3047V47.3047Z" fill="black"/>
<path d="M39.4995 22.6953C38.7538 22.6953 37.6522 23.6999 36.7969 26.5194C36.1928 28.5108 35.8252 31.0495 35.7397 33.7695H43.2593C43.1737 31.0495 42.806 28.5109 42.202 26.5194C41.3466 23.6999 40.2452 22.6953 39.4995 22.6953V22.6953Z" fill="black"/>
<path d="M45.7803 33.7695H52.0351C51.5423 28.9444 48.1834 24.9316 43.6504 23.3822C44.0141 24.0828 44.3378 24.8959 44.6182 25.8203C45.2874 28.0263 45.692 30.8121 45.7803 33.7695Z" fill="black"/>
<path d="M52.0351 36.2305H45.7803C45.692 39.1879 45.2874 41.9737 44.6182 44.1797C44.3378 45.104 44.0142 45.9171 43.6504 46.6178C48.1834 45.0683 51.5423 41.0555 52.0351 36.2305Z" fill="black"/>
<path d="M51.9656 45.4356C51.4737 44.9551 50.6761 44.9551 50.1841 45.4356C47.3253 48.2279 43.5309 49.7656 39.5 49.7656C38.8043 49.7656 38.2402 50.3165 38.2402 50.9961C38.2402 51.6756 38.8043 52.2266 39.5 52.2266C43.7824 52.2266 47.8357 50.7396 51.0438 48.0155L53.4155 50.332C53.8628 49.6258 54.4739 49.0287 55.197 48.5918L51.9656 45.4356Z" fill="black"/>
<path d="M54.6171 35.0001C54.6171 35.6796 55.1812 36.2305 55.8769 36.2305C56.5726 36.2305 57.1367 35.6796 57.1367 35.0001C57.1367 30.8172 55.6143 26.8582 52.8253 23.7247L55.197 21.4082C54.4739 20.9713 53.8627 20.3743 53.4154 19.6681L50.1839 22.8244C49.6919 23.3049 49.6919 24.084 50.1839 24.5645C53.0428 27.3567 54.6171 31.0629 54.6171 35.0001Z" fill="black"/>
<path d="M27.0346 24.5644C27.2806 24.8047 27.6029 24.9248 27.9253 24.9248C28.2478 24.9248 28.5702 24.8046 28.8161 24.5644C31.6749 21.7721 35.4692 20.2344 39.5002 20.2344C40.196 20.2344 40.76 19.6835 40.76 19.0039C40.76 18.3244 40.196 17.7734 39.5002 17.7734C35.2178 17.7734 31.1645 19.2604 27.9564 21.9845L25.5848 19.668C25.1374 20.3742 24.5262 20.9713 23.8032 21.4082L27.0346 24.5644Z" fill="black"/>
<path d="M24.3828 35C24.3828 34.3205 23.8188 33.7695 23.123 33.7695C22.4273 33.7695 21.8633 34.3205 21.8633 35C21.8633 39.1829 23.3857 43.1418 26.1746 46.2754L23.803 48.5918C24.526 49.0287 25.1372 49.6257 25.5845 50.332L28.8159 47.1757C29.3079 46.6952 29.3079 45.9161 28.8159 45.4355C25.9572 42.6433 24.3828 38.9372 24.3828 35Z" fill="black"/>
</svg>
