<svg width="80" height="70" viewBox="0 0 80 70" fill="none" xmlns="http://www.w3.org/2000/svg">
<path d="M0 19.6491C0 8.79723 8.79724 0 19.6491 0H59.4749C70.3268 0 79.124 8.79721 79.124 19.6491V49.9915C79.124 60.8434 70.3268 69.6407 59.4749 69.6407H19.6491C8.79724 69.6407 0 60.8434 0 49.9915V19.6491Z" fill="#FFA500"/>
<path d="M33.2783 50.2306C33.4253 53.4362 36.1404 56 39.4581 56C42.7754 56 45.4908 53.4362 45.6378 50.2306H33.2783Z" fill="black"/>
<path d="M39.458 24.1581C36.695 24.1581 34.4468 26.354 34.4468 29.0527C34.4468 31.7514 36.695 33.9474 39.458 33.9474C42.2209 33.9474 44.4688 31.7517 44.4688 29.0527C44.4688 26.3537 42.2212 24.1581 39.458 24.1581ZM40.7177 30.2832H38.1982V27.8223H40.7177V30.2832Z" fill="black"/>
<path d="M39.458 14C30.9602 14 24.0469 20.7525 24.0469 29.0527C24.0469 31.722 24.7722 34.3447 26.1442 36.6374C27.3518 38.6552 29.0321 40.3782 31.0317 41.6564V47.7696H47.8847V41.6564C49.8839 40.3782 51.5642 38.6552 52.7718 36.6374C54.1438 34.3447 54.8691 31.722 54.8691 29.0527C54.8691 20.7525 47.9558 14 39.458 14V14ZM46.9999 34.6792L45.2185 36.4192L43.8154 35.0487C42.9102 35.678 41.8568 36.1164 40.7178 36.3048V38.2402H38.1982V36.3048C37.0592 36.1164 36.0058 35.678 35.1007 35.0487L33.6975 36.4195L31.9158 34.6792L33.3193 33.3087C32.675 32.4247 32.2262 31.3961 32.0333 30.2832H30.0518V27.8223H32.0333C32.2262 26.7097 32.675 25.6808 33.3193 24.7967L31.9158 23.4262L33.6975 21.6859L35.1007 23.0568C36.0058 22.4274 37.0592 21.9891 38.1982 21.8007V19.8652H40.7178V21.8007C41.8568 21.9888 42.9102 22.4274 43.8154 23.0564L45.2185 21.6859L46.9999 23.4262L45.5967 24.7967C46.2411 25.6808 46.6898 26.7097 46.8824 27.8223H48.8643V30.2832H46.8828C46.6898 31.3958 46.2411 32.4247 45.5967 33.3087L46.9999 34.6792Z" fill="black"/>
</svg>
