<svg width="80" height="70" viewBox="0 0 80 70" fill="none" xmlns="http://www.w3.org/2000/svg">
<path d="M0 19.6491C0 8.79723 8.79724 0 19.6491 0H59.4749C70.3268 0 79.124 8.79721 79.124 19.6491V49.9915C79.124 60.8434 70.3268 69.6407 59.4749 69.6407H19.6491C8.79724 69.6407 0 60.8434 0 49.9915V19.6491Z" fill="#FFA500"/>
<g clip-path="url(#clip0)">
<path d="M39.4998 21.3887C31.8158 21.3887 25.5645 27.4947 25.5645 35C25.5645 42.5052 31.8158 48.6112 39.4998 48.6112C47.1838 48.6112 53.4352 42.5052 53.4352 35C53.4352 27.4947 47.1838 21.3887 39.4998 21.3887ZM38.2391 39.1407H40.7606V41.6017H38.2391V39.1407ZM36.4533 37.3953L34.6717 35.6552C35.9631 34.3939 37.6777 33.6993 39.4999 33.6993C41.3219 33.6993 43.0366 34.3938 44.328 35.6551L42.5464 37.3953C41.7309 36.5989 40.649 36.1602 39.4999 36.1602C38.3507 36.1602 37.2688 36.5989 36.4533 37.3953V37.3953ZM39.4999 31.2383C37.0069 31.2383 34.6601 32.1896 32.8918 33.9167L31.1102 32.1766C33.3543 29.9846 36.3339 28.7774 39.4999 28.7774C42.6657 28.7774 45.6452 29.9845 47.8894 32.1764L46.1079 33.9166C44.3396 32.1895 41.9928 31.2383 39.4999 31.2383Z" fill="black"/>
<path d="M38.2402 14H40.7598V18.9278H38.2402V14Z" fill="black"/>
<path d="M27.6587 17.4286L29.8406 16.1982L32.3632 20.4656L30.1812 21.6961L27.6587 17.4286Z" fill="black"/>
<path d="M20.25 25.5657L21.5098 23.4346L25.8788 25.8985L24.6191 28.0296L20.25 25.5657Z" fill="black"/>
<path d="M18 33.7695H23.0451V36.2305H18V33.7695Z" fill="black"/>
<path d="M20.2505 44.4337L24.6196 41.9698L25.8793 44.101L21.5103 46.5649L20.2505 44.4337Z" fill="black"/>
<path d="M27.6587 52.5713L30.1812 48.3038L32.3632 49.5343L29.8406 53.8018L27.6587 52.5713Z" fill="black"/>
<path d="M38.2402 51.0723H40.7598V56H38.2402V51.0723Z" fill="black"/>
<path d="M46.6357 49.5334L48.8177 48.303L51.3402 52.5704L49.1583 53.8009L46.6357 49.5334Z" fill="black"/>
<path d="M53.1191 44.1024L54.3789 41.9712L58.748 44.4351L57.4882 46.5662L53.1191 44.1024Z" fill="black"/>
<path d="M55.9551 33.7695H61.0002V36.2305H55.9551V33.7695Z" fill="black"/>
<path d="M53.1201 25.8982L57.4892 23.4343L58.749 25.5655L54.3799 28.0294L53.1201 25.8982Z" fill="black"/>
<path d="M46.6357 20.4664L49.1583 16.1989L51.3402 17.4294L48.8177 21.6968L46.6357 20.4664Z" fill="black"/>
</g>
<defs>
<clipPath id="clip0">
<rect width="43" height="42" fill="white" transform="translate(18 14)"/>
</clipPath>
</defs>
</svg>
