<svg width="80" height="70" viewBox="0 0 80 70" fill="none" xmlns="http://www.w3.org/2000/svg">
<path d="M0 19.6491C0 8.79723 8.79724 0 19.6491 0H59.4749C70.3268 0 79.124 8.79721 79.124 19.6491V49.9915C79.124 60.8434 70.3268 69.6407 59.4749 69.6407H19.6491C8.79724 69.6407 0 60.8434 0 49.9915V19.6491Z" fill="#FFA500"/>
<path d="M48.9172 29.5205C50.5301 29.5205 51.8422 28.1635 51.8422 26.4955C51.8422 24.8276 50.53 23.4705 48.9172 23.4705C47.3044 23.4705 45.9922 24.8276 45.9922 26.4955C45.9922 28.1635 47.3043 29.5205 48.9172 29.5205Z" fill="black"/>
<path d="M37.355 22.8685C36.5489 25.6242 36.6861 28.5581 37.7666 31.2527C39.0031 34.3362 41.3267 36.7374 44.3093 38.0135C47.2919 39.2896 50.5766 39.2882 53.5584 38.0097C54.7028 37.5189 55.7494 36.8619 56.6752 36.065C56.7395 36.009 56.8042 35.9536 56.8674 35.8963C56.8755 35.8891 56.8834 35.8816 56.8915 35.8743C59.4087 33.583 60.9999 30.2281 60.9999 26.4955C60.9999 19.6054 55.5798 14 48.9174 14C43.5627 14 39.0116 17.6214 37.431 22.62C37.4064 22.6982 37.382 22.7766 37.359 22.8551C37.3575 22.8596 37.3563 22.8641 37.355 22.8685V22.8685ZM41.9737 25.1909H43.6182C43.754 24.6007 43.9791 24.0461 44.2791 23.5438L43.1154 22.3403L44.8994 20.4953L46.0631 21.6988C46.5488 21.3886 47.0851 21.1558 47.6557 21.0154V19.3145H50.1787V21.0153C50.7494 21.1557 51.2857 21.3885 51.7714 21.6987L52.9351 20.4952L54.7191 22.3402L53.5554 23.5437C53.8554 24.046 54.0804 24.6007 54.2163 25.1908H55.8608V27.8H54.2163C54.0804 28.3902 53.8554 28.9448 53.5554 29.4471L54.7191 30.6506L52.9351 32.4956L51.7714 31.2921C51.2857 31.6023 50.7494 31.8351 50.1787 31.9756V33.6763H47.6557V31.9756C47.0851 31.8351 46.5488 31.6023 46.0631 31.2921L44.8994 32.4956L43.1154 30.6506L44.2791 29.4471C43.9791 28.9448 43.754 28.3902 43.6182 27.8H41.9737V25.1909Z" fill="black"/>
<path d="M20.6368 46.9589H20.0311C19.3227 46.9589 18.6773 47.331 18.3049 47.9543C17.9325 48.5775 17.8993 49.3408 18.2161 49.9963L19.5253 52.7042C20.5082 54.7371 22.4839 56 24.6817 56H50.5062C52.704 56 54.6797 54.7371 55.6625 52.7043L56.9718 49.9962C57.2887 49.3409 57.2555 48.5775 56.883 47.9543C56.5105 47.331 55.8651 46.9589 55.1568 46.9589H54.5511H20.6368Z" fill="black"/>
<path d="M54.5247 40.42C52.7209 41.1937 50.825 41.5804 48.9294 41.5804C47.0375 41.5804 45.1456 41.1952 43.3448 40.4246C39.7394 38.882 36.9307 35.9797 35.436 32.2522C34.3938 29.6532 34.0786 26.8701 34.4883 24.1592H20.6367V44.3497H54.551V40.4084C54.5422 40.4121 54.5335 40.4162 54.5247 40.42Z" fill="black"/>
</svg>
