<svg width="90" height="80" viewBox="0 0 90 80" fill="none" xmlns="http://www.w3.org/2000/svg">
<g filter="url(#filter0_d)">
<path d="M3.40356 19.8337C3.40356 8.9818 12.2008 0.18457 23.0527 0.18457H62.8785C73.7304 0.18457 82.5276 8.98178 82.5276 19.8337V50.1761C82.5276 61.028 73.7304 69.8253 62.8785 69.8253H23.0527C12.2008 69.8253 3.40356 61.028 3.40356 50.1761V19.8337Z" fill="#FFA500"/>
</g>
<g clip-path="url(#clip0)">
<path d="M23.9256 28.7943C24.1529 29.5734 24.4682 30.3246 24.867 31.0295L23.7309 32.4624C23.3599 32.9308 23.4016 33.5986 23.819 34.0206L25.7759 35.9775C26.1979 36.3995 26.8657 36.4365 27.3341 36.0656L28.7577 34.9387C29.4904 35.3607 30.2695 35.6899 31.081 35.9218L31.2943 37.7535C31.3639 38.3471 31.8647 38.7923 32.4583 38.7923H35.2268C35.8203 38.7923 36.3212 38.3471 36.3907 37.7535L36.5948 35.9867C37.4666 35.7595 38.3013 35.421 39.085 34.9804L40.4623 36.0702C40.9307 36.4412 41.5984 36.3994 42.0204 35.9821L43.9774 34.0251C44.3994 33.6031 44.4365 32.9354 44.0655 32.467L42.9943 31.1083C43.4395 30.3384 43.7873 29.5177 44.0191 28.6598L45.67 28.4696C46.2636 28.4001 46.7088 27.8993 46.7088 27.3057V24.5372C46.7088 23.9436 46.2636 23.4428 45.67 23.3732L44.0423 23.1831C43.8197 22.3345 43.4858 21.5229 43.0592 20.7624L44.0609 19.4964C44.4319 19.0281 44.3902 18.3603 43.9728 17.9383L42.0205 15.986C41.5985 15.564 40.9307 15.5269 40.4623 15.8979L39.2335 16.8717C38.4358 16.4034 37.5825 16.0463 36.6876 15.8051L36.5021 14.2145C36.4325 13.621 35.9317 13.1758 35.3381 13.1758H32.5696C31.9761 13.1758 31.4752 13.621 31.4057 14.2145L31.2202 15.8051C30.302 16.0509 29.4255 16.4219 28.6094 16.9088L27.3341 15.8979C26.8657 15.5269 26.198 15.5686 25.776 15.986L23.819 17.9429C23.397 18.3649 23.3599 19.0327 23.7309 19.5011L24.7975 20.8505C24.3709 21.6203 24.0463 22.4411 23.8329 23.2944L22.1264 23.4892C21.5328 23.5587 21.0876 24.0596 21.0876 24.6531V27.4216C21.0876 28.0152 21.5328 28.516 22.1264 28.5856L23.9256 28.7943ZM33.9561 21.305C36.4788 21.305 38.5332 23.3594 38.5332 25.8821C38.5332 28.4048 36.4788 30.4591 33.9561 30.4591C31.4335 30.4591 29.3791 28.4048 29.3791 25.8821C29.3791 23.3594 31.4334 21.305 33.9561 21.305Z" fill="black"/>
<path d="M61.3255 29.4759L59.8647 28.2424C59.415 27.8621 58.7518 27.8806 58.3252 28.2841L57.5183 29.04C56.8367 28.7107 56.1132 28.4789 55.3666 28.3444L55.1395 27.2314C55.0235 26.6564 54.4902 26.2576 53.9058 26.304L51.9999 26.4663C51.4156 26.5173 50.9565 26.9949 50.9379 27.5839L50.9009 28.7154C50.1681 28.9797 49.4772 29.3414 48.8465 29.7959L47.882 29.1559C47.3903 28.8313 46.7365 28.924 46.3563 29.3739L45.1228 30.8439C44.7425 31.2937 44.761 31.9568 45.1644 32.3835L46.0085 33.2831C45.7163 33.9416 45.5076 34.6326 45.3871 35.342L44.1814 35.5878C43.6063 35.7037 43.2075 36.237 43.2539 36.8214L43.4162 38.7273C43.4672 39.3116 43.9449 39.7707 44.5338 39.7893L45.8369 39.8309C46.0735 40.4523 46.3841 41.0413 46.7597 41.5931L46.0317 42.6922C45.7071 43.1837 45.7998 43.8376 46.2496 44.2178L47.7104 45.4514C48.1602 45.8316 48.8233 45.8131 49.25 45.4096L50.2053 44.5146C50.8313 44.8068 51.4898 45.0247 52.1668 45.1546L52.4312 46.4623C52.5471 47.0373 53.0804 47.4361 53.6647 47.3898L55.5707 47.2275C56.155 47.1765 56.6141 46.6989 56.6326 46.1099L56.6744 44.8299C57.37 44.5841 58.0284 44.2503 58.6359 43.8376L59.6886 44.5332C60.1802 44.8578 60.834 44.765 61.2143 44.3152L62.4478 42.8545C62.828 42.4047 62.8095 41.7415 62.4061 41.3149L61.5574 40.4153C61.8682 39.7568 62.0954 39.0612 62.2252 38.347L63.3845 38.1105C63.9595 37.9946 64.3583 37.4613 64.312 36.8769L64.1497 34.971C64.0987 34.3867 63.621 33.9276 63.0321 33.9091L61.8681 33.872C61.6269 33.1949 61.3023 32.555 60.8989 31.9614L61.5342 31.0061C61.8681 30.5146 61.7754 29.8561 61.3255 29.4759ZM54.1424 40.4941C52.0834 40.6703 50.2655 39.1354 50.094 37.0764C49.9177 35.0175 51.4527 33.1996 53.5116 33.028C55.5706 32.8518 57.3885 34.3868 57.56 36.4457C57.7363 38.5047 56.2013 40.3225 54.1424 40.4941Z" fill="black"/>
<path d="M30.5942 45.623C30.0099 45.6832 29.5601 46.1748 29.5554 46.7637L29.5415 47.937C29.5323 48.5259 29.9682 49.0268 30.5525 49.101L31.415 49.2122C31.5588 49.7363 31.7628 50.2371 32.0271 50.7101L31.4707 51.3965C31.0997 51.8555 31.1275 52.5141 31.5402 52.9361L32.361 53.7754C32.7737 54.1974 33.4322 54.2438 33.9006 53.8821L34.5915 53.3488C35.0784 53.6363 35.5932 53.8636 36.1311 54.0212L36.2239 54.9115C36.2841 55.4958 36.7757 55.9457 37.3646 55.9503L38.5379 55.9642C39.1268 55.9735 39.6277 55.5376 39.7019 54.9533L39.8085 54.1093C40.3929 53.9655 40.9494 53.7476 41.478 53.4601L42.1272 53.9841C42.5863 54.3551 43.2448 54.3272 43.6668 53.9145L44.5062 53.0937C44.9282 52.681 44.9746 52.0225 44.6129 51.5541L44.1166 50.9095C44.4227 50.3994 44.6592 49.8568 44.8215 49.2864L45.5913 49.2076C46.1756 49.1473 46.6254 48.6558 46.6301 48.0668L46.6439 46.8935C46.6533 46.3046 46.2174 45.8038 45.6331 45.7296L44.8818 45.6322C44.738 45.0664 44.5247 44.5192 44.2465 44.0091L44.7149 43.4341C45.0859 42.975 45.058 42.3165 44.6453 41.8945L43.8246 41.0552C43.4118 40.6331 42.7532 40.5868 42.2849 40.9485L41.7238 41.3798C41.1951 41.0598 40.6294 40.814 40.0358 40.6471L39.9616 39.919C39.9013 39.3347 39.4098 38.8849 38.8208 38.8803L37.6476 38.8664C37.0586 38.8571 36.5578 39.293 36.4835 39.8773L36.3908 40.6008C35.7787 40.7584 35.1898 40.9996 34.6426 41.3149L34.0629 40.8418C33.6038 40.4709 32.9453 40.4987 32.5233 40.9114L31.6793 41.7369C31.2573 42.1496 31.2109 42.8081 31.5726 43.2764L32.0688 43.9164C31.7813 44.4265 31.5541 44.9691 31.4057 45.5395L30.5942 45.623ZM38.1669 44.2966C39.8503 44.3152 41.1997 45.7018 41.1812 47.3851C41.1626 49.0685 39.776 50.4179 38.0927 50.3994C36.4093 50.3808 35.0599 48.9943 35.0784 47.3109C35.097 45.6276 36.4836 44.2781 38.1669 44.2966Z" fill="black"/>
</g>
<defs>
<filter id="filter0_d" x="0.456196" y="0.18457" width="88.9486" height="79.4652" filterUnits="userSpaceOnUse" color-interpolation-filters="sRGB">
<feFlood flood-opacity="0" result="BackgroundImageFix"/>
<feColorMatrix in="SourceAlpha" type="matrix" values="0 0 0 0 0 0 0 0 0 0 0 0 0 0 0 0 0 0 127 0"/>
<feOffset dx="1.96491" dy="4.91228"/>
<feGaussianBlur stdDeviation="2.45614"/>
<feColorMatrix type="matrix" values="0 0 0 0 0 0 0 0 0 0 0 0 0 0 0 0 0 0 0.25 0"/>
<feBlend mode="normal" in2="BackgroundImageFix" result="effect1_dropShadow"/>
<feBlend mode="normal" in="SourceGraphic" in2="effect1_dropShadow" result="shape"/>
</filter>
<clipPath id="clip0">
<rect width="43.2281" height="43.2281" fill="white" transform="translate(21.0876 12.9561)"/>
</clipPath>
</defs>
</svg>
