<svg width="80" height="70" viewBox="0 0 80 70" fill="none" xmlns="http://www.w3.org/2000/svg">
<path d="M0 19.6491C0 8.79723 8.79724 0 19.6491 0H59.4749C70.3268 0 79.124 8.79721 79.124 19.6491V49.9915C79.124 60.8434 70.3268 69.6407 59.4749 69.6407H19.6491C8.79724 69.6407 0 60.8434 0 49.9915V19.6491Z" fill="#FFA500"/>
<path fill-rule="evenodd" clip-rule="evenodd" d="M58.7759 56H20.2241C20.0788 55.9822 20.0366 55.9903 19.9024 55.92C19.7007 55.8142 19.5502 55.6058 19.5013 55.3716C19.4887 55.3135 19.4887 55.2521 19.4828 55.1923V46.3077H18.7414C18.5746 46.2867 18.4078 46.2431 18.2795 46.1316C18.192 46.0557 18.1216 45.9596 18.0734 45.8505C18.0089 45.7035 18.0163 45.6583 18 45.5V14.8077C18.0059 14.7479 18.0059 14.6865 18.0185 14.6276C18.0682 14.3901 18.2209 14.1842 18.4196 14.08C18.5538 14.0097 18.5961 14.0178 18.7414 14H60.2586C60.3135 14.0065 60.3683 14.0129 60.4239 14.0202C60.5819 14.0808 60.7361 14.164 60.8384 14.3037C60.9073 14.399 60.9563 14.5097 60.9815 14.6276C60.9941 14.6865 60.9941 14.7479 61 14.8077V45.5C60.9874 45.6203 60.9741 45.7423 60.9266 45.8505C60.8539 46.0145 60.7294 46.1494 60.5804 46.2277C60.4462 46.298 60.4039 46.2899 60.2586 46.3077H59.5172V55.1923C59.5009 55.3506 59.5083 55.3958 59.4438 55.5428C59.3482 55.7585 59.1577 55.9257 58.9412 55.9798C58.8871 55.9927 58.8307 55.9927 58.7759 56ZM25.4138 46.3077H23.931V48.0636H23.9303C23.1771 48.3657 22.5825 49.1338 22.4698 50.0077C22.3727 50.7637 22.6255 51.5609 23.1281 52.09C23.5344 52.5164 24.086 52.7628 24.6583 52.7692C24.6628 52.7692 24.668 52.7692 24.6724 52.7692H24.6865C25.5094 52.7603 26.3012 52.22 26.6645 51.4236C26.9648 50.7662 26.9699 49.9577 26.6764 49.2953C26.4258 48.7283 25.9587 48.2906 25.4138 48.0741V46.3077ZM37.2759 46.3077V48.0741C37.8208 48.2906 38.2878 48.7283 38.5384 49.2953C38.832 49.9577 38.8276 50.7653 38.5266 51.4236C38.1626 52.2216 37.37 52.7603 36.5486 52.7692H36.5345C36.53 52.7692 36.5248 52.7692 36.5204 52.7692C35.9577 52.7628 35.4046 52.5205 34.9998 52.0997C34.4927 51.573 34.2377 50.7767 34.3304 50.0231C34.4379 49.1435 35.0347 48.3673 35.7931 48.0636V46.3077H37.2759ZM49.1379 46.3077V48.0741C49.6828 48.2906 50.1499 48.7283 50.4005 49.2953C50.6919 49.952 50.6896 50.7548 50.3946 51.4099C50.0335 52.2152 49.2373 52.7603 48.4106 52.7692C48.401 52.7692 48.3921 52.7692 48.3825 52.7692C47.8101 52.7628 47.2496 52.5116 46.8434 52.0795C46.3459 51.5512 46.0975 50.7589 46.1939 50.0077C46.3066 49.133 46.9012 48.3649 47.6552 48.0636V46.3077H49.1379ZM43.2069 46.3077V48.0741C43.7518 48.2906 44.2189 48.7283 44.4695 49.2953C44.7608 49.952 44.7586 50.7548 44.4635 51.4099C44.1025 52.2152 43.3062 52.7603 42.4796 52.7692C42.47 52.7692 42.4611 52.7692 42.4514 52.7692C41.8791 52.7628 41.3186 52.5116 40.9123 52.0795C40.4149 51.5512 40.1665 50.7589 40.2629 50.0077C40.3756 49.133 40.9702 48.3649 41.7241 48.0636V46.3077H43.2069ZM55.069 46.3077V48.0741C55.6139 48.2906 56.0809 48.7283 56.3315 49.2953C56.6229 49.952 56.6207 50.7548 56.3256 51.4099C55.9646 52.2152 55.1683 52.7603 54.3417 52.7692C54.332 52.7692 54.3231 52.7692 54.3135 52.7692C53.7412 52.7628 53.1807 52.5116 52.7744 52.0795C52.2769 51.5512 52.0286 50.7589 52.1249 50.0077C52.2376 49.133 52.8322 48.3649 53.5862 48.0636V46.3077H55.069ZM30.6175 52.7692C31.439 52.7603 32.2315 52.2216 32.5955 51.4236C32.8965 50.7653 32.901 49.9577 32.6074 49.2953C32.3568 48.7283 31.8897 48.2906 31.3448 48.0741V46.3077H29.8621V48.0636C29.1036 48.3673 28.5068 49.1435 28.3993 50.0231C28.3067 50.7767 28.5617 51.573 29.0688 52.0997C29.4736 52.5205 30.0267 52.7628 30.5894 52.7692H30.6175ZM24.6724 51.1538C24.6709 51.1538 24.6694 51.1538 24.6672 51.1538C24.3395 51.1506 24.0282 50.8857 23.9511 50.5335C23.871 50.166 24.063 49.7493 24.3848 49.6015C24.4678 49.5635 24.556 49.5449 24.6442 49.5449H24.6494C24.9957 49.5473 25.3463 49.8212 25.4042 50.2169C25.4701 50.6652 25.1365 51.1425 24.6872 51.1538C24.6835 51.1538 24.6806 51.1538 24.6776 51.1538H24.6724ZM30.6034 51.1538C30.602 51.1538 30.6005 51.1538 30.5983 51.1538C30.2683 51.1506 29.9562 50.8833 29.8813 50.5287C29.8035 50.162 29.9963 49.7485 30.3158 49.6015C30.3988 49.5635 30.4871 49.5449 30.5753 49.5449H30.5805C30.9267 49.5473 31.2774 49.8203 31.3352 50.2169C31.4012 50.666 31.0676 51.1425 30.6183 51.1538C30.6146 51.1538 30.6116 51.1538 30.6086 51.1538H30.6034ZM36.5345 51.1538C36.533 51.1538 36.5315 51.1538 36.5293 51.1538C36.1994 51.1506 35.8873 50.8833 35.8124 50.5287C35.7345 50.162 35.9273 49.7485 36.2468 49.6015C36.3299 49.5635 36.4181 49.5449 36.5063 49.5449H36.5115C36.8577 49.5473 37.2084 49.8203 37.2662 50.2169C37.3322 50.666 36.9986 51.1425 36.5493 51.1538C36.5456 51.1538 36.5426 51.1538 36.5397 51.1538H36.5345ZM54.3276 51.1538C54.3261 51.1538 54.3246 51.1538 54.3224 51.1538C53.994 51.1506 53.6826 50.8849 53.6062 50.5335C53.5262 50.166 53.7182 49.7493 54.0399 49.6015C54.123 49.5635 54.2112 49.5449 54.2994 49.5449H54.3046C54.6508 49.5473 55.0015 49.8203 55.0593 50.2169C55.1253 50.6668 54.7917 51.1425 54.3424 51.1538C54.3387 51.1538 54.3357 51.1538 54.3328 51.1538H54.3276ZM48.3966 51.1538C48.3951 51.1538 48.3936 51.1538 48.3914 51.1538C48.0629 51.1506 47.7516 50.8849 47.6752 50.5335C47.5951 50.166 47.7871 49.7493 48.1089 49.6015C48.1919 49.5635 48.2802 49.5449 48.3684 49.5449H48.3736C48.7198 49.5473 49.0705 49.8203 49.1283 50.2169C49.1943 50.6668 48.8607 51.1425 48.4114 51.1538C48.4077 51.1538 48.4047 51.1538 48.4017 51.1538H48.3966ZM42.4655 51.1538C42.464 51.1538 42.4626 51.1538 42.4603 51.1538C42.1319 51.1506 41.8205 50.8849 41.7442 50.5335C41.6641 50.166 41.8561 49.7493 42.1779 49.6015C42.2609 49.5635 42.3491 49.5449 42.4373 49.5449H42.4425C42.7888 49.5473 43.1394 49.8203 43.1973 50.2169C43.2632 50.6668 42.9296 51.1425 42.4803 51.1538C42.4766 51.1538 42.4737 51.1538 42.4707 51.1538H42.4655ZM39.5 36.6154H33.569C33.5319 36.6162 33.523 36.6154 33.4859 36.6202C33.1501 36.6614 32.8691 36.9732 32.832 37.3326C32.8283 37.3722 32.8283 37.3827 32.8276 37.4231V40.6538C32.8283 40.6942 32.8283 40.7039 32.832 40.7443C32.8698 41.1102 33.156 41.4155 33.4859 41.4559C33.523 41.4607 33.5319 41.4599 33.569 41.4615H39.5C39.5371 41.4599 39.546 41.4607 39.583 41.4559C39.9189 41.4147 40.1999 41.1037 40.2369 40.7443C40.2406 40.7039 40.2406 40.6942 40.2414 40.6538V37.4231C40.2406 37.3827 40.2406 37.3722 40.2369 37.3326C40.2006 36.9813 39.9374 36.6848 39.6246 36.6267C39.5875 36.6202 39.5786 36.6202 39.5415 36.6162L39.5 36.6154ZM29.1207 36.6154H23.1897C23.1526 36.6162 23.1437 36.6154 23.1066 36.6202C22.7708 36.6614 22.4898 36.9732 22.4527 37.3326C22.449 37.3722 22.449 37.3827 22.4483 37.4231V40.6538C22.449 40.6942 22.449 40.7039 22.4527 40.7443C22.4905 41.1102 22.7767 41.4155 23.1066 41.4559C23.1437 41.4607 23.1526 41.4599 23.1897 41.4615H29.1207C29.1578 41.4599 29.1667 41.4607 29.2037 41.4559C29.5396 41.4147 29.8206 41.1037 29.8576 40.7443C29.8613 40.7039 29.8613 40.6942 29.8621 40.6538V37.4231C29.8613 37.3827 29.8613 37.3722 29.8576 37.3326C29.8213 36.9813 29.5581 36.6848 29.2452 36.6267C29.2082 36.6202 29.1993 36.6202 29.1622 36.6162L29.1207 36.6154ZM39.5 18.8462H23.1897C23.0443 18.8639 23.0021 18.8558 22.8679 18.9261C22.6692 19.0303 22.5165 19.2363 22.4668 19.4737C22.4542 19.5327 22.4542 19.5941 22.4483 19.6538V32.5769C22.4542 32.6367 22.4542 32.6981 22.4668 32.7562C22.5165 32.9929 22.6699 33.2005 22.8679 33.3047C23.0021 33.3749 23.0443 33.3668 23.1897 33.3846H39.5C39.6453 33.3668 39.6876 33.3749 39.8218 33.3047C39.9218 33.2522 40.0101 33.1754 40.0798 33.0801C40.1821 32.9404 40.2228 32.7578 40.2414 32.5769V19.6538C40.2354 19.5941 40.2354 19.5327 40.2228 19.4737C40.1858 19.2985 40.0931 19.1361 39.9619 19.0222C39.8759 18.9471 39.7699 18.9059 39.6653 18.8663L39.5 18.8462ZM49.9008 18.8462C51.9463 18.8567 53.9547 19.939 55.2009 21.7312C56.6614 23.8328 56.9721 26.8084 55.9015 29.246C55.0082 31.2814 53.2044 32.816 51.1619 33.2497C49.0742 33.6932 46.8085 32.9767 45.262 31.3613C44.1937 30.2451 43.4775 28.7323 43.2714 27.1307C42.98 24.8602 43.7303 22.4606 45.2768 20.8541C46.4957 19.5876 48.1497 18.855 49.8578 18.8462C49.8719 18.8462 49.8867 18.8462 49.9008 18.8462Z" fill="black"/>
</svg>
