<svg width="660" height="402" viewBox="0 0 660 402" fill="none" xmlns="http://www.w3.org/2000/svg">
<g opacity="0.1" filter="url(#filter0_d)">
<path d="M372.369 73.5015C336.309 80.1334 300.307 77.2891 265.671 73.1585C231.034 69.0207 196.483 63.6251 160.409 65.2474C137.208 66.2908 77.1407 118.717 77.105 135.761C77.0621 148.582 78.0842 161.846 86.4325 172.058C92.2291 179.14 101.156 184.221 107.882 190.76C131.276 213.472 124.164 249.239 108.811 279.647C101.607 293.912 92.7938 307.947 87.8906 322.548C82.9874 337.148 82.3298 352.798 91.1141 364.704C99.8126 376.51 116.645 383.164 134.185 386.615C169.822 393.619 209.527 389.274 247.938 383.378C332.957 370.286 417.098 349.868 501.059 329.501C532.122 321.962 563.328 314.386 593.255 303.517C609.873 297.464 626.798 289.938 637.534 278.218C651.171 263.368 651.514 243.058 638.37 230.923C616.313 210.577 566.388 215.087 549.327 191.825C539.942 179.019 544.03 161.617 551.499 146.252C567.517 113.3 598.48 80.7409 594.47 47.8816C591.704 25.3346 570.576 6.66809 542.265 1.80852C512.61 -3.28689 474.492 6.37509 457.41 29.065C439.841 52.441 404.204 67.6272 372.369 73.5015Z" fill="#FFA500"/>
</g>
<g filter="url(#filter1_d)">
<path d="M511.623 102.273C554.11 102.273 588.552 100.165 588.552 97.564C588.552 94.963 554.11 92.8545 511.623 92.8545C469.137 92.8545 434.695 94.963 434.695 97.564C434.695 100.165 469.137 102.273 511.623 102.273Z" fill="#3F3D56"/>
<path opacity="0.1" d="M511.623 100.601C547.814 100.601 577.152 99.2058 577.152 97.485C577.152 95.7641 547.814 94.3691 511.623 94.3691C475.433 94.3691 446.095 95.7641 446.095 97.485C446.095 99.2058 475.433 100.601 511.623 100.601Z" fill="black"/>
<path d="M569.847 7.26855H455.523V96.9563H569.847V7.26855Z" fill="#3F3D56"/>
<path d="M511.388 19.5244H483.183C482.998 19.5244 482.84 19.3744 482.84 19.1814C482.84 18.9885 482.99 18.8384 483.183 18.8384H511.388C511.573 18.8384 511.731 18.9956 511.731 19.1814C511.731 19.3744 511.58 19.5244 511.388 19.5244Z" fill="#F2F2F2"/>
<path d="M542.265 23.292H497.907C497.721 23.292 497.564 23.1419 497.564 22.949C497.564 22.756 497.714 22.606 497.907 22.606H542.265C542.451 22.606 542.608 22.756 542.608 22.949C542.608 23.1419 542.451 23.292 542.265 23.292Z" fill="#F2F2F2"/>
<path d="M511.523 27.0567H483.319C483.133 27.0567 482.976 26.9066 482.976 26.7136C482.976 26.5278 483.126 26.3706 483.319 26.3706H511.523C511.709 26.3706 511.866 26.5207 511.866 26.7136C511.866 26.8994 511.716 27.0567 511.523 27.0567Z" fill="#F2F2F2"/>
<path d="M542.265 27.1216H514.061C513.875 27.1216 513.718 26.9715 513.718 26.7786C513.718 26.5856 513.868 26.4355 514.061 26.4355H542.265C542.451 26.4355 542.608 26.5856 542.608 26.7786C542.608 26.9715 542.451 27.1216 542.265 27.1216Z" fill="#F2F2F2"/>
<path d="M511.595 30.8164H483.391C483.205 30.8164 483.048 30.6664 483.048 30.4734C483.048 30.2804 483.198 30.1304 483.391 30.1304H511.595C511.781 30.1304 511.938 30.2804 511.938 30.4734C511.938 30.6664 511.781 30.8164 511.595 30.8164Z" fill="#F2F2F2"/>
<path d="M511.666 34.5825H483.462C483.276 34.5825 483.119 34.4325 483.119 34.2395C483.119 34.0466 483.269 33.8965 483.462 33.8965H511.666C511.852 33.8965 512.009 34.0466 512.009 34.2395C512.009 34.4325 511.852 34.5825 511.666 34.5825Z" fill="#F2F2F2"/>
<path d="M524.467 19.5962H516.391C516.205 19.5962 516.048 19.4461 516.048 19.2532C516.048 19.0602 516.198 18.9102 516.391 18.9102H524.467C524.653 18.9102 524.811 19.0602 524.811 19.2532C524.811 19.4461 524.653 19.5962 524.467 19.5962Z" fill="#F2F2F2"/>
<path d="M524.467 30.8164H516.391C516.205 30.8164 516.048 30.6664 516.048 30.4734C516.048 30.2804 516.198 30.1304 516.391 30.1304H524.467C524.653 30.1304 524.811 30.2804 524.811 30.4734C524.811 30.6664 524.653 30.8164 524.467 30.8164Z" fill="#F2F2F2"/>
<path d="M524.467 34.5181H516.391C516.205 34.5181 516.048 34.368 516.048 34.1751C516.048 33.9821 516.198 33.832 516.391 33.832H524.467C524.653 33.832 524.811 33.9821 524.811 34.1751C524.811 34.3609 524.653 34.5109 524.467 34.5181Z" fill="#F2F2F2"/>
<path d="M538.019 34.5181H529.942C529.757 34.5181 529.599 34.3609 529.599 34.1751C529.599 33.9893 529.75 33.832 529.942 33.832H538.019C538.205 33.832 538.362 33.9821 538.362 34.1751C538.362 34.3609 538.212 34.5109 538.019 34.5181Z" fill="#F2F2F2"/>
<path d="M491.196 23.292H483.119C482.933 23.292 482.776 23.1419 482.776 22.949C482.776 22.756 482.926 22.606 483.119 22.606H491.196C491.382 22.606 491.539 22.756 491.539 22.949C491.539 23.1419 491.382 23.292 491.196 23.292Z" fill="#F2F2F2"/>
<path d="M511.423 74.9673H483.219C483.033 74.9673 482.876 74.8172 482.876 74.6243C482.876 74.4385 483.026 74.2812 483.219 74.2812H511.423C511.609 74.2812 511.767 74.4313 511.767 74.6243C511.767 74.8172 511.609 74.9673 511.423 74.9673Z" fill="#F2F2F2"/>
<path d="M511.287 82.4986H483.083C482.898 82.4986 482.74 82.3485 482.74 82.1555C482.74 81.9697 482.89 81.8125 483.083 81.8125H511.287C511.473 81.8125 511.631 81.9626 511.631 82.1555C511.631 82.3413 511.473 82.4986 511.287 82.4986Z" fill="#F2F2F2"/>
<path d="M511.352 86.2573H483.148C482.962 86.2573 482.805 86.1073 482.805 85.9143C482.805 85.7214 482.955 85.5713 483.148 85.5713H511.352C511.538 85.5713 511.695 85.7214 511.695 85.9143C511.695 86.1073 511.545 86.2573 511.352 86.2573Z" fill="#F2F2F2"/>
<path d="M523.403 82.5635H515.326C515.14 82.5635 514.983 82.4134 514.983 82.2205C514.983 82.0347 515.133 81.8774 515.326 81.8774H523.403C523.588 81.8774 523.746 82.0275 523.746 82.2205C523.746 82.4134 523.595 82.5635 523.403 82.5635Z" fill="#F2F2F2"/>
<path d="M523.403 86.2573H515.326C515.14 86.2573 514.983 86.1073 514.983 85.9143C514.983 85.7214 515.133 85.5713 515.326 85.5713H523.403C523.588 85.5713 523.746 85.7214 523.746 85.9143C523.746 86.1073 523.595 86.2573 523.403 86.2573Z" fill="#F2F2F2"/>
<path d="M536.961 82.5635H528.885C528.699 82.5635 528.542 82.4134 528.542 82.2205C528.542 82.0347 528.692 81.8774 528.885 81.8774H536.961C537.147 81.8774 537.305 82.0275 537.305 82.2205C537.297 82.4134 537.147 82.5635 536.961 82.5635Z" fill="#F2F2F2"/>
<path d="M534.867 82.2202H490.51C490.324 82.2202 490.167 82.0702 490.167 81.8772C490.167 81.6914 490.317 81.5342 490.51 81.5342H534.867C535.053 81.5342 535.21 81.6843 535.21 81.8772C535.21 82.0702 535.06 82.2202 534.867 82.2202Z" fill="#F2F2F2"/>
<path d="M491.232 78.7319H483.155C482.969 78.7319 482.812 78.5819 482.812 78.3889C482.812 78.2031 482.962 78.0459 483.155 78.0459H491.232C491.417 78.0459 491.575 78.196 491.575 78.3889C491.568 78.5747 491.417 78.7319 491.232 78.7319Z" fill="#F2F2F2"/>
<path d="M542.3 90.0962H497.943C497.757 90.0962 497.6 89.9461 497.6 89.7532C497.6 89.5674 497.75 89.4102 497.943 89.4102H542.3C542.486 89.4102 542.644 89.5602 542.644 89.7532C542.636 89.939 542.486 90.0962 542.3 90.0962Z" fill="#F2F2F2"/>
<path d="M491.232 90.0962H483.155C482.969 90.0962 482.812 89.9461 482.812 89.7532C482.812 89.5674 482.962 89.4102 483.155 89.4102H491.232C491.417 89.4102 491.575 89.5602 491.575 89.7532C491.568 89.939 491.417 90.0962 491.232 90.0962Z" fill="#F2F2F2"/>
<path d="M504.612 43.6157L493.662 54.4354L504.612 65.248L507.078 62.7824L498.794 54.4997L507.142 46.1527L504.612 43.6157Z" fill="#FFA500"/>
<path d="M520.765 43.6157L531.722 54.4354L520.765 65.248L518.306 62.7824L526.583 54.4997L518.235 46.1527L520.765 43.6157Z" fill="#FFA500"/>
<path d="M458.567 10.913C459.321 10.913 459.933 10.3019 459.933 9.54807C459.933 8.79422 459.321 8.18311 458.567 8.18311C457.814 8.18311 457.202 8.79422 457.202 9.54807C457.202 10.3019 457.814 10.913 458.567 10.913Z" fill="#FFA500"/>
<path d="M462.213 10.913C462.967 10.913 463.578 10.3019 463.578 9.54807C463.578 8.79422 462.967 8.18311 462.213 8.18311C461.459 8.18311 460.848 8.79422 460.848 9.54807C460.848 10.3019 461.459 10.913 462.213 10.913Z" fill="#FFA500"/>
<path d="M465.865 10.913C466.619 10.913 467.23 10.3019 467.23 9.54807C467.23 8.79422 466.619 8.18311 465.865 8.18311C465.111 8.18311 464.5 8.79422 464.5 9.54807C464.5 10.3019 465.111 10.913 465.865 10.913Z" fill="#FFA500"/>
<path opacity="0.1" d="M569.847 11.8281H455.523V12.2855H569.847V11.8281Z" fill="black"/>
<path d="M596.915 74.9813C596.915 84.6719 591.154 88.0593 584.042 88.0593C576.93 88.0593 571.169 84.6719 571.169 74.9813C571.169 65.2908 584.042 52.9561 584.042 52.9561C584.042 52.9561 596.915 65.2908 596.915 74.9813Z" fill="#FFA500"/>
<path d="M583.57 86.58L583.706 78.4617L589.188 68.4281L583.727 77.1896L583.785 73.5449L587.566 66.2842L583.799 72.5802L583.906 66.0197L587.959 60.2383L583.92 64.9835L583.992 52.9561L583.57 68.8783L583.606 68.228L579.489 61.9248L583.542 69.4858L583.156 76.8108L583.141 76.6179L578.395 69.986L583.127 77.3039L583.084 78.2187L583.077 78.233V78.3116L582.105 96.8995H583.406L583.563 87.3018L588.28 79.9982L583.57 86.58Z" fill="#3F3D56"/>
</g>
<g filter="url(#filter2_d)">
<path d="M354.929 148.07C354.557 149.692 353.285 153.108 349.196 153.023C346.073 152.958 343.664 150.814 343.75 148.356L344.929 114.882L345.315 103.962C345.315 103.962 347.338 100.939 349.361 114.482V114.532L354.965 146.641C355.043 147.112 355.036 147.598 354.929 148.07Z" fill="#8C8C8C"/>
<path d="M352.198 151.322H346.187V161.442H352.198V151.322Z" fill="white"/>
<path d="M351.555 159.033H346.931V163.478H351.555V159.033Z" fill="white"/>
<path d="M349.361 114.532C347.252 114.053 345.823 114.418 344.915 114.882L345.301 103.962C345.301 103.962 347.324 100.939 349.347 114.482L349.361 114.532Z" fill="#FFA500"/>
<path d="M352.206 154.344V161.441H346.195V154.487C348.096 153.837 350.247 153.787 352.206 154.344Z" fill="#FFA500"/>
<path d="M366.365 176.898C364.678 175.926 361.333 173.532 363.22 170.674C364.664 168.494 368.166 167.729 370.939 168.865L408.664 184.373L420.972 189.433C420.972 189.433 423.531 192.184 407.177 187.682L407.12 187.668L367.98 177.548C367.401 177.398 366.858 177.184 366.365 176.898Z" fill="#8C8C8C"/>
<path d="M352.284 169.117L354.922 164.857L366.486 169.295L363.849 173.547L352.284 169.117Z" fill="white"/>
<path d="M357.345 166.437L355.315 169.71L350.24 167.759L352.27 164.493L357.345 166.437Z" fill="white"/>
<path d="M407.113 187.669C408.585 186.39 408.792 185.217 408.664 184.381L420.972 189.441C420.972 189.441 423.53 192.192 407.177 187.69L407.113 187.669Z" fill="#FFA500"/>
<path d="M360.389 172.218L352.284 169.109L354.922 164.864L362.862 167.909C362.77 169.545 361.883 171.089 360.389 172.218Z" fill="#FFA500"/>
<path d="M332.028 176.898C333.715 175.926 337.06 173.532 335.173 170.674C333.729 168.494 330.227 167.729 327.454 168.865L289.729 184.373L277.421 189.433C277.421 189.433 274.862 192.184 291.216 187.682L291.273 187.668L330.413 177.556C330.992 177.405 331.535 177.184 332.028 176.898Z" fill="#8C8C8C"/>
<path d="M331.907 169.295L343.471 164.857L346.109 169.11L334.544 173.547L331.907 169.295Z" fill="white"/>
<path d="M346.123 164.485L348.153 167.758L343.078 169.709L341.048 166.436L346.123 164.485Z" fill="white"/>
<path d="M291.28 187.669C289.808 186.39 289.6 185.217 289.729 184.381L277.421 189.441C277.421 189.441 274.862 192.192 291.216 187.69L291.28 187.669Z" fill="#FFA500"/>
<path d="M338.003 172.218L346.109 169.109L343.471 164.864L335.53 167.909C335.623 169.545 336.51 171.089 338.003 172.218Z" fill="#FFA500"/>
<path d="M354.607 275.948H342.814L346.559 166.644H350.862L354.607 275.948Z" fill="#8C8C8C"/>
<path d="M349.196 168.387C351.368 168.387 353.128 167.002 353.128 165.293C353.128 163.584 351.368 162.198 349.196 162.198C347.025 162.198 345.265 163.584 345.265 165.293C345.265 167.002 347.025 168.387 349.196 168.387Z" fill="#FFA500"/>
<path d="M442.278 142.311C442.028 143.404 441.17 145.712 438.404 145.655C436.282 145.576 434.638 144.169 434.716 142.496L435.517 119.849L435.774 112.467C435.774 112.467 437.146 110.423 438.512 119.585V119.621L442.3 141.353C442.35 141.667 442.35 141.989 442.278 142.311Z" fill="#8C8C8C"/>
<path d="M440.434 144.503H436.367V151.35H440.434V144.503Z" fill="white"/>
<path d="M439.999 149.729H436.868V152.737H439.999V149.729Z" fill="white"/>
<path d="M438.512 119.621C437.089 119.299 436.117 119.542 435.51 119.857L435.767 112.474C435.767 112.474 437.139 110.43 438.504 119.592L438.512 119.621Z" fill="#FFA500"/>
<path d="M440.434 146.548V151.343H436.367V146.641C437.654 146.205 439.112 146.169 440.434 146.548Z" fill="#FFA500"/>
<path d="M450.005 161.813C448.868 161.155 446.596 159.54 447.875 157.603C448.89 156.138 451.227 155.588 453.1 156.381L478.624 166.872L486.943 170.295C486.943 170.295 488.68 172.161 477.616 169.109H477.573L451.091 162.27C450.705 162.156 450.334 162.005 450.005 161.813Z" fill="#8C8C8C"/>
<path d="M440.492 156.546L442.271 153.666L450.098 156.667L448.311 159.547L440.492 156.546Z" fill="white"/>
<path d="M443.915 154.737L442.543 156.945L439.112 155.63L440.484 153.415L443.915 154.737Z" fill="white"/>
<path d="M477.587 169.094C478.588 168.229 478.724 167.436 478.638 166.872L486.958 170.295C486.958 170.295 488.694 172.16 477.63 169.108L477.587 169.094Z" fill="#FFA500"/>
<path d="M445.974 158.647L440.477 156.538L442.257 153.666L447.632 155.724C447.575 156.831 446.982 157.875 445.974 158.647Z" fill="#FFA500"/>
<path d="M426.79 161.813C427.926 161.155 430.199 159.54 428.92 157.603C427.905 156.138 425.568 155.588 423.695 156.381L398.171 166.872L389.851 170.295C389.851 170.295 388.115 172.161 399.179 169.109H399.222L425.703 162.27C426.089 162.156 426.454 162.005 426.79 161.813Z" fill="#8C8C8C"/>
<path d="M426.704 156.667L434.531 153.666L436.31 156.546L428.491 159.547L426.704 156.667Z" fill="white"/>
<path d="M436.317 153.415L437.697 155.63L434.259 156.945L432.887 154.73L436.317 153.415Z" fill="white"/>
<path d="M399.215 169.094C398.221 168.229 398.078 167.436 398.164 166.872L389.844 170.295C389.844 170.295 388.108 172.16 399.172 169.108L399.215 169.094Z" fill="#FFA500"/>
<path d="M430.828 158.647L436.31 156.538L434.531 153.666L429.156 155.724C429.213 156.831 429.813 157.882 430.828 158.647Z" fill="#FFA500"/>
<path d="M442.064 228.825L434.044 229.933L436.618 154.874H439.527L442.064 228.825Z" fill="#8C8C8C"/>
<path d="M438.405 156.053C439.873 156.053 441.063 155.115 441.063 153.959C441.063 152.802 439.873 151.865 438.405 151.865C436.936 151.865 435.746 152.802 435.746 153.959C435.746 155.115 436.936 156.053 438.405 156.053Z" fill="#FFA500"/>
<path d="M260.282 142.311C260.031 143.404 259.174 145.712 256.408 145.655C254.285 145.576 252.641 144.169 252.72 142.496L253.52 119.849L253.777 112.467C253.777 112.467 255.15 110.423 256.515 119.585V119.621L260.303 141.353C260.353 141.667 260.346 141.989 260.282 142.311Z" fill="#8C8C8C"/>
<path d="M258.437 144.503H254.37V151.35H258.437V144.503Z" fill="white"/>
<path d="M257.994 149.729H254.864V152.737H257.994V149.729Z" fill="white"/>
<path d="M256.515 119.621C255.092 119.299 254.12 119.542 253.513 119.857L253.77 112.474C253.77 112.474 255.143 110.43 256.508 119.592L256.515 119.621Z" fill="#FFA500"/>
<path d="M258.437 146.548V151.343H254.37V146.641C255.657 146.205 257.115 146.169 258.437 146.548Z" fill="#FFA500"/>
<path d="M268.015 161.813C266.879 161.155 264.613 159.54 265.892 157.603C266.907 156.138 269.237 155.588 271.11 156.381L296.634 166.872L304.96 170.295C304.96 170.295 306.69 172.161 295.626 169.109H295.583L269.109 162.27C268.716 162.156 268.351 162.005 268.015 161.813Z" fill="#8C8C8C"/>
<path d="M258.495 156.546L260.274 153.666L268.101 156.667L266.314 159.547L258.495 156.546Z" fill="white"/>
<path d="M261.911 154.73L260.539 156.945L257.108 155.63L258.48 153.415L261.911 154.73Z" fill="white"/>
<path d="M295.59 169.094C296.591 168.229 296.727 167.436 296.641 166.872L304.968 170.295C304.968 170.295 306.697 172.16 295.633 169.108L295.59 169.094Z" fill="#FFA500"/>
<path d="M263.977 158.647L258.495 156.538L260.282 153.666L265.656 155.724C265.585 156.831 264.992 157.882 263.977 158.647Z" fill="#FFA500"/>
<path d="M244.786 161.813C245.929 161.155 248.195 159.54 246.916 157.603C245.901 156.138 243.564 155.588 241.691 156.381L216.167 166.872L207.847 170.295C207.847 170.295 206.111 172.161 217.175 169.109H217.218L243.699 162.27C244.085 162.156 244.457 162.005 244.786 161.813Z" fill="#8C8C8C"/>
<path d="M244.707 156.667L252.526 153.666L254.313 156.546L246.487 159.547L244.707 156.667Z" fill="white"/>
<path d="M254.321 153.415L255.7 155.63L252.262 156.945L250.89 154.737L254.321 153.415Z" fill="white"/>
<path d="M217.218 169.094C216.224 168.229 216.081 167.436 216.167 166.872L207.847 170.295C207.847 170.295 206.111 172.16 217.175 169.108L217.218 169.094Z" fill="#FFA500"/>
<path d="M248.824 158.647L254.306 156.538L252.527 153.666L247.152 155.724C247.216 156.831 247.816 157.875 248.824 158.647Z" fill="#FFA500"/>
<path d="M260.067 228.825H252.083L254.621 154.874H257.53L260.067 228.825Z" fill="#8C8C8C"/>
<path d="M256.4 156.053C257.869 156.053 259.059 155.115 259.059 153.959C259.059 152.802 257.869 151.865 256.4 151.865C254.932 151.865 253.742 152.802 253.742 153.959C253.742 155.115 254.932 156.053 256.4 156.053Z" fill="#FFA500"/>
<path opacity="0.1" d="M244.028 200.124L243.285 199.688C243.363 199.709 243.442 199.738 243.521 199.774C243.678 199.845 243.821 199.931 243.949 200.038C244.035 200.095 244.114 200.152 244.192 200.21L244.028 200.124Z" fill="black"/>
<path d="M267.815 219.835C270.022 219.835 271.811 218.427 271.811 216.69C271.811 214.954 270.022 213.546 267.815 213.546C265.608 213.546 263.82 214.954 263.82 216.69C263.82 218.427 265.608 219.835 267.815 219.835Z" fill="#3F3D56"/>
<path d="M259.953 229.125C254.185 236.086 255.764 244.933 255.764 244.933C255.764 244.933 266.693 242.503 272.461 235.543C278.229 228.582 276.649 219.735 276.649 219.735C276.649 219.735 265.721 222.172 259.953 229.125Z" fill="#3F3D56"/>
<path d="M256.358 245.033C256.358 245.033 256.215 245.019 255.957 244.976C255.75 244.94 255.464 244.897 255.121 244.833C252.026 244.261 243.785 242.317 238.403 237.208C231.663 230.811 231.949 221.878 231.949 221.878C231.949 221.878 242.256 223.193 249.046 228.939C249.339 229.189 249.625 229.439 249.903 229.704C255.764 235.271 256.315 242.753 256.358 244.604C256.365 244.883 256.358 245.033 256.358 245.033Z" fill="#FFA500"/>
<path d="M252.205 229.303C257.973 236.264 256.393 245.111 256.393 245.111C256.393 245.111 245.465 242.682 239.697 235.721C233.929 228.76 235.508 219.913 235.508 219.913C235.508 219.913 246.437 222.35 252.205 229.303Z" stroke="#3F3D56" stroke-width="0.283348" stroke-miterlimit="10"/>
<path opacity="0.1" d="M256.358 244.604C256.207 244.747 256.072 244.868 255.957 244.976C255.714 245.197 255.571 245.311 255.571 245.311C255.571 245.311 255.4 245.147 255.121 244.833C253.563 243.125 248.553 237.05 248.938 230.032C248.96 229.668 248.996 229.303 249.039 228.939C249.332 229.189 249.617 229.439 249.896 229.704C255.764 235.271 256.315 242.753 256.358 244.604Z" fill="black"/>
<path d="M264.906 230.533C264.449 238.83 256.622 245.305 256.622 245.305C256.622 245.305 249.532 238.323 249.989 230.026C250.447 221.729 258.273 215.254 258.273 215.254C258.273 215.254 265.363 222.236 264.906 230.533Z" fill="#FFA500"/>
<path d="M255.993 244.898L257.716 215.418" stroke="#3F3D56" stroke-width="0.283348" stroke-miterlimit="10"/>
<path d="M288.093 225.666C289.901 225.666 291.366 224.515 291.366 223.094C291.366 221.673 289.901 220.521 288.093 220.521C286.285 220.521 284.819 221.673 284.819 223.094C284.819 224.515 286.285 225.666 288.093 225.666Z" fill="#3F3D56"/>
<path d="M281.653 233.285C276.928 238.988 278.222 246.234 278.222 246.234C278.222 246.234 287.178 244.24 291.902 238.545C296.627 232.842 295.333 225.595 295.333 225.595C295.333 225.595 286.377 227.582 281.653 233.285Z" fill="#3F3D56"/>
<path d="M278.2 246.162C278.2 246.162 278.086 246.148 277.872 246.112C277.7 246.084 277.471 246.048 277.185 245.991C274.648 245.519 267.901 243.925 263.491 239.745C257.973 234.506 258.202 227.188 258.202 227.188C258.202 227.188 266.643 228.268 272.204 232.97C272.447 233.17 272.682 233.384 272.904 233.599C277.707 238.158 278.157 244.29 278.193 245.805C278.2 246.041 278.2 246.162 278.2 246.162Z" fill="#FFA500"/>
<path d="M274.791 233.285C279.515 238.988 278.222 246.234 278.222 246.234C278.222 246.234 269.266 244.24 264.541 238.545C259.817 232.842 261.111 225.595 261.111 225.595C261.111 225.595 270.066 227.582 274.791 233.285Z" stroke="#3F3D56" stroke-width="0.283348" stroke-miterlimit="10"/>
<path opacity="0.1" d="M278.193 245.812C278.072 245.933 277.957 246.033 277.864 246.112C277.664 246.291 277.55 246.384 277.55 246.384C277.55 246.384 277.414 246.248 277.178 245.991C275.899 244.59 271.796 239.616 272.118 233.863C272.132 233.563 272.161 233.263 272.204 232.97C272.447 233.17 272.682 233.384 272.904 233.599C277.714 238.165 278.157 244.297 278.193 245.812Z" fill="black"/>
<path d="M285.198 234.292C284.826 241.088 278.408 246.391 278.408 246.391C278.408 246.391 272.597 240.674 272.976 233.87C273.347 227.074 279.766 221.771 279.766 221.771C279.766 221.771 285.577 227.489 285.198 234.292Z" fill="#FFA500"/>
<path d="M278.415 246.198L279.823 222.05" stroke="#3F3D56" stroke-width="0.283348" stroke-miterlimit="10"/>
<path d="M328.14 227.367C334.57 227.367 339.783 223.266 339.783 218.206C339.783 213.146 334.57 209.044 328.14 209.044C321.71 209.044 316.497 213.146 316.497 218.206C316.497 223.266 321.71 227.367 328.14 227.367Z" fill="#FFA500"/>
<path d="M308.348 248.928C314.779 248.928 319.992 244.826 319.992 239.766C319.992 234.706 314.779 230.604 308.348 230.604C301.918 230.604 296.705 234.706 296.705 239.766C296.705 244.826 301.918 248.928 308.348 248.928Z" fill="#FFA500"/>
<path d="M283.99 266.144C290.42 266.144 295.633 262.042 295.633 256.983C295.633 251.923 290.42 247.821 283.99 247.821C277.559 247.821 272.346 251.923 272.346 256.983C272.346 262.042 277.559 266.144 283.99 266.144Z" fill="#FFA500"/>
<path d="M283.983 273.548V256.932" stroke="#3F3D56" stroke-width="0.283348" stroke-miterlimit="10"/>
<path d="M283.983 259.283C285.633 259.283 286.97 258.231 286.97 256.932C286.97 255.634 285.633 254.581 283.983 254.581C282.333 254.581 280.995 255.634 280.995 256.932C280.995 258.231 282.333 259.283 283.983 259.283Z" fill="#3F3D56"/>
<path d="M283.983 267.174C283.983 267.174 283.554 259.956 274.812 260.792L283.983 267.174Z" fill="#3F3D56"/>
<path d="M328.147 273.662V218.241" stroke="#3F3D56" stroke-width="0.283348" stroke-miterlimit="10"/>
<path d="M328.147 220.564C329.797 220.564 331.135 219.511 331.135 218.212C331.135 216.914 329.797 215.861 328.147 215.861C326.497 215.861 325.159 216.914 325.159 218.212C325.159 219.511 326.497 220.564 328.147 220.564Z" fill="#3F3D56"/>
<path d="M318.97 260.663C320.62 260.663 321.957 259.61 321.957 258.312C321.957 257.013 320.62 255.96 318.97 255.96C317.32 255.96 315.982 257.013 315.982 258.312C315.982 259.61 317.32 260.663 318.97 260.663Z" fill="#3F3D56"/>
<path d="M328.147 230.212C328.147 230.212 327.718 222.994 318.977 223.831L328.147 230.212Z" fill="#3F3D56"/>
<path d="M328.147 250.679C328.147 250.679 327.718 243.461 318.977 244.297L328.147 250.679Z" fill="#3F3D56"/>
<path d="M328.147 273.019C328.147 273.019 330.07 258.983 318.977 258.312" stroke="#3F3D56" stroke-width="0.283348" stroke-miterlimit="10"/>
<path d="M337.317 260.663C338.967 260.663 340.305 259.61 340.305 258.312C340.305 257.013 338.967 255.96 337.317 255.96C335.667 255.96 334.33 257.013 334.33 258.312C334.33 259.61 335.667 260.663 337.317 260.663Z" fill="#3F3D56"/>
<path d="M328.147 273.019C328.147 273.019 326.224 258.983 337.317 258.312" stroke="#3F3D56" stroke-width="0.283348" stroke-miterlimit="10"/>
<path d="M337.503 238.623C339.153 238.623 340.491 237.571 340.491 236.272C340.491 234.974 339.153 233.921 337.503 233.921C335.853 233.921 334.516 234.974 334.516 236.272C334.516 237.571 335.853 238.623 337.503 238.623Z" fill="#3F3D56"/>
<path d="M328.326 250.229C328.326 250.229 326.403 236.944 337.496 236.272" stroke="#3F3D56" stroke-width="0.283348" stroke-miterlimit="10"/>
<path d="M308.356 273.583V239.751" stroke="#3F3D56" stroke-width="0.283348" stroke-miterlimit="10"/>
<path d="M308.355 242.103C310.006 242.103 311.343 241.051 311.343 239.752C311.343 238.454 310.006 237.401 308.355 237.401C306.705 237.401 305.368 238.454 305.368 239.752C305.368 241.051 306.705 242.103 308.355 242.103Z" fill="#3F3D56"/>
<path d="M308.356 249.321C308.356 249.321 307.927 242.103 299.185 242.939L308.356 249.321Z" fill="#3F3D56"/>
<path d="M308.356 272.941C308.356 272.941 310.278 259.055 299.185 258.383" stroke="#3F3D56" stroke-width="0.283348" stroke-miterlimit="10"/>
<path d="M299.185 260.734C300.835 260.734 302.173 259.681 302.173 258.383C302.173 257.084 300.835 256.032 299.185 256.032C297.535 256.032 296.198 257.084 296.198 258.383C296.198 259.681 297.535 260.734 299.185 260.734Z" fill="#3F3D56"/>
</g>
<g filter="url(#filter3_d)">
<path d="M45.1031 320.231C45.1031 320.231 26.2026 331.642 61.0587 349.213C61.0587 349.213 68.7373 334.954 60.2494 323.332C56.842 318.647 50.4625 317.246 45.4024 320.082L45.1031 320.231Z" fill="#FFA500"/>
<path d="M45.3346 319.994C45.3346 319.994 61.5215 332.364 61.0658 349.208" stroke="#535461" stroke-width="0.141674" stroke-miterlimit="10"/>
<path d="M284.268 310.731C288.097 324.733 271.76 364.623 271.76 364.623C271.76 364.623 237.387 338.605 233.551 324.604C229.395 310.691 237.305 296.043 251.221 291.888C265.136 287.733 279.786 295.642 283.941 309.555C284.064 309.943 284.172 310.33 284.268 310.731Z" fill="#FFA500"/>
<path opacity="0.1" d="M284.268 310.731C288.097 324.733 271.76 364.623 271.76 364.623C271.76 364.623 237.387 338.605 233.551 324.604C229.395 310.691 237.305 296.043 251.221 291.888C265.136 287.733 279.786 295.642 283.941 309.555C284.064 309.943 284.172 310.33 284.268 310.731Z" fill="black"/>
<path d="M252.118 292.392C252.118 292.392 273.515 324.686 271.917 364.698" stroke="#535461" stroke-width="0.141674" stroke-miterlimit="10"/>
<path d="M289.729 336.321C289.729 336.321 270.325 325.767 272.78 364.725C272.78 364.725 288.967 364.147 294.707 350.948C297.033 345.637 295.013 339.422 290.008 336.491L289.729 336.321Z" fill="#FFA500"/>
<path d="M290.049 336.389C290.049 336.389 287.546 356.613 272.787 364.725" stroke="#535461" stroke-width="0.141674" stroke-miterlimit="10"/>
<path d="M5.68347 331.975C5.68347 331.975 -13.2307 343.379 21.6323 360.944C21.6323 360.944 29.3109 346.684 20.823 335.062C17.4155 330.377 11.036 328.976 5.97592 331.812L5.68347 331.975Z" fill="#FFA500"/>
<path d="M5.901 331.738C5.901 331.738 22.0879 344.108 21.6322 360.952" stroke="#535461" stroke-width="0.141674" stroke-miterlimit="10"/>
<path d="M241.672 346.827H221.799C222.254 345.909 222.492 344.896 222.492 343.869V253.379C222.492 249.707 219.513 246.729 215.841 246.729H61.9975C58.3249 246.729 55.3459 249.707 55.3459 253.379V343.869C55.3459 344.896 55.584 345.909 56.0397 346.827H35.4524C34.4799 346.827 33.6909 347.616 33.6909 348.588V348.595V350.016C33.6909 355.45 38.0981 359.856 43.5323 359.856H233.585C239.019 359.856 243.426 355.45 243.426 350.016V348.595C243.433 347.623 242.651 346.827 241.679 346.82C241.679 346.827 241.672 346.827 241.672 346.827ZM119.202 352.458L117.489 350.526H159.799L157.915 352.465L119.202 352.458Z" fill="url(#paint0_linear)"/>
<path d="M64.412 248.007H213.392C217.364 248.007 220.588 251.23 220.588 255.201V342.257C220.588 346.229 217.364 349.452 213.392 349.452H64.412C60.4401 349.452 57.2163 346.229 57.2163 342.257V255.201C57.2231 251.23 60.4401 248.007 64.412 248.007Z" fill="#535461"/>
<path d="M216.8 262.797H60.6577V345.671H216.8V262.797Z" fill="white"/>
<path d="M138.735 256.95C139.494 256.95 140.109 256.335 140.109 255.576C140.109 254.818 139.494 254.203 138.735 254.203C137.977 254.203 137.362 254.818 137.362 255.576C137.362 256.335 137.977 256.95 138.735 256.95Z" fill="white"/>
<path d="M162.839 345.841L157.473 351.342H119.651L114.802 345.841H37.7852C36.833 345.841 36.0645 346.609 36.0645 347.561V348.948C36.0645 354.259 40.3696 358.571 45.6882 358.571H231.436C236.748 358.571 241.06 354.266 241.06 348.948V347.561C241.06 346.609 240.291 345.841 239.339 345.841H162.839Z" fill="#535461"/>
<path d="M80.6055 267.952V338.45H197.199" stroke="#535461" stroke-width="0.283348" stroke-miterlimit="10"/>
<path opacity="0.5" d="M102.961 317.131H90.9229V335.703H102.961V317.131Z" fill="#FFA500"/>
<path opacity="0.7" d="M123.596 300.621H111.558V335.696H123.596V300.621Z" fill="#FFA500"/>
<path opacity="0.5" d="M144.238 310.596H132.2V335.695H144.238V310.596Z" fill="#FFA500"/>
<path opacity="0.8" d="M164.873 295.118H152.834V335.695H164.873V295.118Z" fill="#FFA500"/>
<path d="M185.507 280.675H173.469V335.695H185.507V280.675Z" fill="#FFA500"/>
<path d="M96.7721 305.782L117.754 286.87L138.389 304.748L158.677 283.083L179.318 274.487" stroke="#535461" stroke-width="0.283348" stroke-miterlimit="10"/>
<path d="M96.772 308.188C98.1017 308.188 99.1796 307.11 99.1796 305.781C99.1796 304.451 98.1017 303.374 96.772 303.374C95.4423 303.374 94.3644 304.451 94.3644 305.781C94.3644 307.11 95.4423 308.188 96.772 308.188Z" fill="#FFA500"/>
<path d="M138.042 306.808C139.372 306.808 140.449 305.73 140.449 304.401C140.449 303.071 139.372 301.994 138.042 301.994C136.712 301.994 135.634 303.071 135.634 304.401C135.634 305.73 136.712 306.808 138.042 306.808Z" fill="#FFA500"/>
<path d="M161.404 283.471C161.617 282.159 160.726 280.922 159.413 280.709C158.101 280.496 156.864 281.388 156.651 282.7C156.438 284.012 157.329 285.249 158.642 285.462C159.954 285.675 161.191 284.784 161.404 283.471Z" fill="#FFA500"/>
<path d="M117.754 288.93C119.083 288.93 120.161 287.852 120.161 286.523C120.161 285.193 119.083 284.116 117.754 284.116C116.424 284.116 115.346 285.193 115.346 286.523C115.346 287.852 116.424 288.93 117.754 288.93Z" fill="#FFA500"/>
<path d="M179.318 276.893C180.648 276.893 181.726 275.815 181.726 274.486C181.726 273.156 180.648 272.079 179.318 272.079C177.989 272.079 176.911 273.156 176.911 274.486C176.911 275.815 177.989 276.893 179.318 276.893Z" fill="#FFA500"/>
<path d="M26.1416 273.365C26.1416 273.365 18.0278 290.141 23.36 309.998C28.6853 329.854 26.9918 353.607 21.6801 359.483" stroke="#535461" stroke-width="0.283348" stroke-miterlimit="10"/>
<path d="M26.1415 275.609C27.3773 275.609 28.3791 274.608 28.3791 273.372C28.3791 272.136 27.3773 271.135 26.1415 271.135C24.9057 271.135 23.9039 272.136 23.9039 273.372C23.9039 274.608 24.9057 275.609 26.1415 275.609Z" fill="#FFA500"/>
<path d="M22.7682 284.156C22.7682 284.156 31.1745 285.673 33.4121 282.613" stroke="#535461" stroke-width="0.283348" stroke-miterlimit="10"/>
<path d="M21.9724 289.025C21.9724 289.025 16.9123 283.428 17.1912 280.076" stroke="#535461" stroke-width="0.283348" stroke-miterlimit="10"/>
<path d="M21.5437 299.281C21.5437 299.281 26.1413 300.491 30.3445 291.549" stroke="#535461" stroke-width="0.283348" stroke-miterlimit="10"/>
<path d="M22.7681 306.733C22.7681 306.733 11.3217 299.369 12.7159 294.615" stroke="#535461" stroke-width="0.283348" stroke-miterlimit="10"/>
<path d="M24.5569 315.159C24.5569 315.159 32.5755 308.046 31.739 301.048" stroke="#535461" stroke-width="0.283348" stroke-miterlimit="10"/>
<path d="M25.4275 320.115C25.4275 320.115 15.2188 317.266 15.5317 312.791" stroke="#535461" stroke-width="0.283348" stroke-miterlimit="10"/>
<path d="M26.1415 326.018C26.1415 326.018 32.5754 320.061 33.412 316.43" stroke="#535461" stroke-width="0.283348" stroke-miterlimit="10"/>
<path d="M26.5905 336.151C26.5905 336.151 19.9933 328.446 19.7076 324.536" stroke="#535461" stroke-width="0.283348" stroke-miterlimit="10"/>
<path d="M26.5905 342.523C26.5905 342.523 33.9766 334.322 34.5343 330.405" stroke="#535461" stroke-width="0.283348" stroke-miterlimit="10"/>
<path d="M33.4122 284.83C34.648 284.83 35.6498 283.828 35.6498 282.593C35.6498 281.357 34.648 280.355 33.4122 280.355C32.1764 280.355 31.1746 281.357 31.1746 282.593C31.1746 283.828 32.1764 284.83 33.4122 284.83Z" fill="#FFA500"/>
<path d="M33.4122 319.224C34.648 319.224 35.6498 318.223 35.6498 316.987C35.6498 315.752 34.648 314.75 33.4122 314.75C32.1764 314.75 31.1746 315.752 31.1746 316.987C31.1746 318.223 32.1764 319.224 33.4122 319.224Z" fill="#FFA500"/>
<path d="M29.7803 293.779C31.0161 293.779 32.0179 292.778 32.0179 291.542C32.0179 290.306 31.0161 289.305 29.7803 289.305C28.5445 289.305 27.5427 290.306 27.5427 291.542C27.5427 292.778 28.5445 293.779 29.7803 293.779Z" fill="#FFA500"/>
<path d="M34.2486 334.042C35.4844 334.042 36.4862 333.041 36.4862 331.805C36.4862 330.57 35.4844 329.568 34.2486 329.568C33.0128 329.568 32.011 330.57 32.011 331.805C32.011 333.041 33.0128 334.042 34.2486 334.042Z" fill="#FFA500"/>
<path d="M19.1498 328.167C20.3856 328.167 21.3874 327.165 21.3874 325.93C21.3874 324.694 20.3856 323.692 19.1498 323.692C17.914 323.692 16.9122 324.694 16.9122 325.93C16.9122 327.165 17.914 328.167 19.1498 328.167Z" fill="#FFA500"/>
<path d="M32.0177 303.286C33.2535 303.286 34.2553 302.284 34.2553 301.048C34.2553 299.813 33.2535 298.811 32.0177 298.811C30.782 298.811 29.7802 299.813 29.7802 301.048C29.7802 302.284 30.782 303.286 32.0177 303.286Z" fill="#FFA500"/>
</g>
<g filter="url(#filter4_d)">
<path d="M381.246 204.466H369.309V200.843C373.083 198.22 376.421 198.449 380.817 201.057L381.246 204.466Z" fill="#FFA500"/>
<path d="M366.55 268.82H363.934L363.541 258.743H366.55V268.82Z" fill="#FFB8B8"/>
<path d="M367.215 271.357H358.788V271.25C358.788 269.442 360.253 267.97 362.069 267.97H367.215V271.357Z" fill="#2F2E41"/>
<path d="M381.267 268.82H383.883L384.269 258.743H381.267V268.82Z" fill="#FFB8B8"/>
<path d="M380.602 267.97H385.749C387.557 267.97 389.029 269.435 389.029 271.25V271.357H380.602V267.97Z" fill="#2F2E41"/>
<path d="M381.339 267.526C380.888 267.526 380.502 267.212 380.402 266.776L373.927 238.526C373.898 238.376 373.762 238.269 373.612 238.276C373.462 238.276 373.326 238.383 373.298 238.526L367.351 266.583C367.258 267.026 366.865 267.34 366.415 267.34H363.584C363.055 267.34 362.626 266.911 362.626 266.383C362.626 266.361 362.626 266.347 362.626 266.325L364.735 230.765L365.586 230.515H365.6L382.282 230.658L385.834 266.182C385.884 266.711 385.498 267.176 384.977 267.233C384.97 267.233 384.962 267.233 384.962 267.233L381.424 267.519C381.389 267.526 381.36 267.526 381.339 267.526Z" fill="#2F2E41"/>
<path d="M374.448 197.97C377.338 197.97 379.68 195.628 379.68 192.739C379.68 189.85 377.338 187.508 374.448 187.508C371.559 187.508 369.216 189.85 369.216 192.739C369.216 195.628 371.559 197.97 374.448 197.97Z" fill="#FFB8B8"/>
<path d="M371.239 234.674C370.324 234.688 369.409 234.56 368.523 234.295C366.944 233.816 365.628 232.709 364.892 231.229C364.778 231.008 364.749 230.751 364.821 230.515C365.4 228.542 368.187 218.302 366.407 210.162C365.9 207.875 366.343 205.481 367.637 203.53C368.902 201.593 370.896 200.25 373.162 199.814C373.455 199.757 373.755 199.707 374.041 199.671C376.557 199.364 379.08 200.192 380.917 201.936C382.811 203.716 383.812 206.238 383.647 208.833L382.282 230.786C382.261 231.122 382.068 231.422 381.767 231.572C380.202 232.394 375.463 234.674 371.239 234.674Z" fill="#3F3D56"/>
<path d="M380.359 188.887C379.237 186.071 376.3 184.42 373.312 184.928L374.963 186.264C372.912 186.335 370.753 186.185 369.288 187.622C369.752 187.607 370.367 188.608 370.832 188.594C369.96 188.608 369.166 189.223 368.788 190.009C368.43 190.809 368.344 191.71 368.552 192.567C368.723 193.425 370.038 195.426 370.389 196.219C370.324 194.139 374.427 189.173 376.428 189.687C375.413 190.066 374.527 190.738 373.891 191.609C375.256 190.923 376.793 190.673 378.301 190.888C378.644 190.966 379.001 190.988 379.352 190.945C380.045 190.809 380.502 190.13 380.359 189.437C380.324 189.237 380.238 189.051 380.109 188.894L380.359 188.887Z" fill="#2F2E41"/>
<path d="M370.882 233.359C370.746 233.359 370.617 233.331 370.496 233.281L360.561 228.943C360.125 228.757 359.889 228.278 360.018 227.821L366.593 202.987C367.101 201.064 369.066 199.921 370.989 200.428C371.011 200.436 371.032 200.443 371.061 200.45L373.691 201.2L371.84 232.459C371.818 232.773 371.647 233.059 371.382 233.216C371.225 233.309 371.053 233.359 370.882 233.359Z" fill="#FFA500"/>
<path d="M389.265 227.814L388.829 226.163L388.193 223.769L387.886 222.619L387.25 220.232L382.682 202.973C382.175 201.058 380.209 199.907 378.294 200.415C378.265 200.422 378.244 200.429 378.215 200.436L375.585 201.187L376.886 223.176L377.021 225.47L377.107 226.914L377.243 229.193L377.436 232.438C377.472 232.945 377.886 233.338 378.394 233.338C378.522 233.338 378.658 233.31 378.78 233.26L388.715 228.922C389.158 228.758 389.387 228.272 389.265 227.814Z" fill="#FFA500"/>
<path d="M387.886 222.625L377.029 225.477L376.9 223.183L387.257 220.231L387.886 222.625Z" fill="#CCCCCC"/>
<path d="M388.829 226.17L377.25 229.208L377.115 226.928V226.921L388.193 223.776L388.829 226.17Z" fill="#CCCCCC"/>
<path d="M372.247 223.676L372.111 225.927L361.469 222.754L362.09 220.396L372.247 223.676Z" fill="#CCCCCC"/>
<path d="M372.025 227.414L361.161 223.905L360.539 226.27L371.897 229.651L372.025 227.414Z" fill="#CCCCCC"/>
<path d="M361.354 229.765C362.576 229.443 363.313 228.192 362.991 226.97C362.955 226.842 362.912 226.713 362.855 226.592L367.966 210.562L364.342 209.805L359.653 225.52C358.538 226.127 358.124 227.528 358.731 228.643C359.239 229.579 360.325 230.043 361.354 229.765Z" fill="#FFB8B8"/>
<path d="M368.101 202.68C369.145 202.787 369.724 203.952 369.466 205.41L368.223 212.399C368.13 212.921 367.701 213.335 367.344 213.249L363.148 212.199C362.826 212.12 362.705 211.663 362.891 211.198L365.414 204.881C365.957 203.502 367.093 202.573 368.101 202.68Z" fill="#3F3D56"/>
<path d="M374.427 182.941C378.108 182.941 381.131 185.864 381.246 189.545H382.532C382.768 189.545 382.961 189.738 382.961 189.974V191.681C382.961 191.917 382.768 192.11 382.532 192.11H368.037C367.801 192.11 367.608 191.917 367.608 191.681V189.766C367.608 185.993 370.66 182.941 374.427 182.941Z" fill="#FFA500"/>
<path d="M375.242 225.098H372.233C372.032 225.098 371.861 224.948 371.847 224.748L371.246 218.566H376.242L375.642 224.748C375.613 224.948 375.442 225.098 375.242 225.098Z" fill="#E6E6E6"/>
<path d="M376.221 219.346H371.246C371.032 219.346 370.86 219.174 370.86 218.96V218.024C370.86 217.809 371.032 217.638 371.246 217.638H376.221C376.436 217.638 376.607 217.809 376.607 218.024V218.96C376.614 219.174 376.443 219.346 376.221 219.346Z" fill="#CCCCCC"/>
<path d="M373.798 221.782C373.912 221.796 374.034 221.817 374.148 221.853L382.175 214.971L381.703 212.448L385.42 211.241L386.685 215.629C386.892 216.358 386.599 217.137 385.956 217.544L375.792 223.976C375.814 225.212 374.827 226.227 373.591 226.248C372.354 226.27 371.339 225.283 371.318 224.047C371.297 222.811 372.283 221.796 373.519 221.775C373.619 221.767 373.705 221.775 373.798 221.782Z" fill="#FFB8B8"/>
<path d="M382.189 203.259C383.297 202.945 384.412 203.795 384.784 205.231L386.571 212.142C386.706 212.657 386.442 213.214 386.042 213.271L381.289 213.957C380.924 214.007 380.602 213.636 380.588 213.143L380.402 206.339C380.359 204.86 381.117 203.559 382.189 203.259Z" fill="#3F3D56"/>
<path d="M446.102 247.402C443.915 244.494 442.185 241.264 440.97 237.826C440.827 237.404 441.006 236.933 441.406 236.726L448.897 232.709C449.14 232.574 449.433 232.566 449.69 232.674C449.948 232.788 450.14 233.017 450.212 233.288C451.084 236.597 452.721 239.656 454.994 242.214C455.187 242.428 455.265 242.714 455.215 242.993C455.165 243.265 454.994 243.508 454.751 243.636L447.26 247.652C446.867 247.867 446.374 247.76 446.102 247.402Z" fill="#CCCCCC"/>
<path d="M446.617 247.022C446.703 247.13 446.845 247.158 446.96 247.094L454.45 243.078C454.522 243.042 454.579 242.97 454.586 242.885C454.601 242.799 454.579 242.706 454.515 242.642C452.178 240.005 450.484 236.86 449.59 233.451C449.569 233.366 449.512 233.294 449.426 233.258C449.347 233.223 449.261 233.23 449.19 233.265L441.699 237.282C441.585 237.346 441.528 237.482 441.571 237.611C442.764 240.991 444.465 244.164 446.617 247.022Z" fill="white"/>
<path d="M449.39 238.44L445.309 240.241C444.987 240.384 444.608 240.234 444.465 239.912L444.365 239.684C444.222 239.362 444.372 238.983 444.694 238.84L448.775 237.04C449.097 236.897 449.476 237.047 449.619 237.368L449.719 237.597C449.855 237.919 449.712 238.297 449.39 238.44Z" fill="#CCCCCC"/>
<path d="M450.877 241.213L446.796 243.014C446.474 243.157 446.095 243.007 445.952 242.685L445.852 242.457C445.709 242.135 445.859 241.756 446.181 241.613L450.262 239.813C450.584 239.67 450.963 239.82 451.105 240.141L451.206 240.37C451.348 240.692 451.206 241.07 450.877 241.213Z" fill="#CCCCCC"/>
<path d="M441.313 238.905C440.248 238.219 439.941 236.804 440.627 235.739C440.699 235.625 440.784 235.518 440.877 235.418L439.155 211.005L444.108 211.484L444.244 235.396C445.116 236.318 445.073 237.776 444.151 238.648C443.372 239.377 442.2 239.484 441.313 238.905Z" fill="#A0616A"/>
<path d="M440.27 219.209C440.034 219.038 439.891 218.773 439.877 218.488L439.512 211.906C439.434 210.448 440.549 209.204 442.007 209.119C443.25 209.047 444.38 209.862 444.701 211.062L446.295 216.944C446.431 217.459 446.131 217.98 445.623 218.123L441.085 219.352C440.806 219.431 440.506 219.381 440.27 219.209Z" fill="#3F3D56"/>
<path d="M431.821 268.92H429.213L427.969 258.836H431.821V268.92Z" fill="#A0616A"/>
<path d="M427.347 268.169H432.386V271.342H424.174C424.174 269.592 425.589 268.169 427.347 268.169Z" fill="#2F2E41"/>
<path d="M441.628 268.92H439.019L437.775 258.836H441.628V268.92Z" fill="#A0616A"/>
<path d="M437.146 268.169H442.185V271.342H433.973C433.98 269.592 435.395 268.169 437.146 268.169Z" fill="#2F2E41"/>
<path d="M431.7 263.839L428.827 263.703C428.319 263.682 427.919 263.26 427.912 262.753C427.154 251.047 426.103 238.498 427.712 233.652C427.704 233.123 428.133 232.688 428.662 232.688C428.712 232.688 428.755 232.687 428.805 232.695L440.313 234.367C440.784 234.431 441.135 234.831 441.135 235.31C442.607 241.049 442.671 251.461 442.614 262.281C442.621 262.81 442.192 263.246 441.664 263.246H441.656H438.554C438.083 263.246 437.675 262.903 437.604 262.438L435.688 250.275C435.624 249.868 435.245 249.589 434.838 249.653C434.509 249.703 434.252 249.968 434.216 250.303L432.693 263.003C432.636 263.481 432.229 263.846 431.743 263.846C431.729 263.839 431.714 263.839 431.7 263.839Z" fill="#2F2E41"/>
<path d="M433.723 235.303C431.185 233.895 429.205 233.524 428.248 233.431C427.99 233.409 427.755 233.281 427.597 233.073C427.433 232.866 427.361 232.609 427.397 232.352L430.156 211.884C430.478 209.447 432.043 207.353 434.28 206.353C436.453 205.352 438.983 205.552 440.97 206.874C441.063 206.939 441.156 207.003 441.249 207.067C443.551 208.754 444.616 211.663 443.944 214.435C442.25 221.353 441.671 232.695 441.571 234.896C441.556 235.282 441.306 235.617 440.949 235.746C439.905 236.125 438.812 236.318 437.704 236.325C436.317 236.332 434.945 235.982 433.723 235.303Z" fill="#3F3D56"/>
<path d="M436.031 203.566C438.921 203.566 441.263 201.224 441.263 198.335C441.263 195.446 438.921 193.104 436.031 193.104C433.142 193.104 430.799 195.446 430.799 198.335C430.799 201.224 433.142 203.566 436.031 203.566Z" fill="#A0616A"/>
<path d="M439.741 202.472C438.762 203.516 436.953 202.951 436.825 201.536C436.818 201.429 436.818 201.315 436.825 201.207C436.889 200.578 437.254 200.007 437.168 199.342C437.146 199.178 437.089 199.021 436.989 198.885C436.21 197.841 434.387 199.349 433.651 198.406C433.201 197.827 433.73 196.919 433.387 196.269C432.929 195.419 431.578 195.84 430.735 195.369C429.792 194.847 429.849 193.403 430.471 192.524C431.228 191.452 432.558 190.881 433.866 190.795C435.174 190.709 436.475 191.067 437.704 191.545C439.091 192.088 440.47 192.839 441.328 194.061C442.371 195.547 442.471 197.548 441.95 199.285C441.614 200.335 440.534 201.629 439.741 202.472Z" fill="#2F2E41"/>
<path d="M443.886 207.569C443.793 207.14 443.007 206.547 441.885 206.068C438.218 204.582 434.059 204.939 430.692 207.026C430.456 207.04 430.256 207.211 430.206 207.44L426.418 224.184L425.925 226.364L425.596 227.807L425.103 229.98L424.838 231.145C424.774 231.431 424.953 231.717 425.239 231.781C425.26 231.788 425.282 231.788 425.31 231.795L441.656 233.203C441.671 233.203 441.685 233.203 441.706 233.203C441.985 233.203 442.214 232.981 442.235 232.703L442.393 230.337L442.557 227.807L442.628 226.707L442.793 224.184L443.879 207.597V207.583L443.886 207.569Z" fill="#FFA500"/>
<path d="M417.062 208.619C417.091 208.733 417.105 208.848 417.112 208.969L426.268 214.25L428.491 212.971L430.864 216.08L426.104 219.474L415.661 211.227C414.503 211.656 413.217 211.063 412.788 209.905C412.359 208.748 412.952 207.461 414.11 207.033C415.268 206.604 416.554 207.197 416.983 208.355C417.012 208.44 417.04 208.526 417.062 208.619Z" fill="#A0616A"/>
<path d="M426.597 213.8C426.568 213.514 426.668 213.228 426.875 213.021L431.536 208.362C432.565 207.333 434.245 207.333 435.274 208.362C436.153 209.241 436.303 210.62 435.624 211.67L432.308 216.78C432.022 217.223 431.428 217.352 430.978 217.066L427.033 214.508C426.782 214.35 426.625 214.086 426.597 213.8Z" fill="#3F3D56"/>
<path d="M442.793 224.184L442.636 226.706L425.925 226.363L426.418 224.184H442.793Z" fill="#CCCCCC"/>
<path d="M442.557 227.807L442.393 230.336L425.103 229.979L425.596 227.807H442.557Z" fill="#CCCCCC"/>
<path d="M436.139 188.165C432.458 188.165 429.434 191.088 429.32 194.768H428.033C427.797 194.768 427.604 194.961 427.604 195.197V196.905C427.604 197.141 427.797 197.334 428.033 197.334H442.528C442.764 197.334 442.957 197.141 442.957 196.905V194.99C442.957 191.217 439.905 188.165 436.139 188.165Z" fill="#FFA500"/>
<path d="M464.872 271.707H313.101C312.987 271.707 312.887 271.614 312.887 271.493C312.887 271.378 312.98 271.278 313.101 271.278H464.864C464.979 271.278 465.079 271.371 465.079 271.493C465.079 271.614 464.986 271.707 464.872 271.707Z" fill="#CCCCCC"/>
</g>
<g clip-path="url(#clip0)" filter="url(#filter5_d)">
<path d="M534.734 294.761C535.02 294.761 535.305 294.761 535.59 294.761C549.145 295.225 559.74 306.605 559.276 320.161C558.812 333.36 547.968 343.849 534.734 343.849C534.449 343.849 534.163 343.849 533.878 343.849C520.323 343.385 509.729 332.005 510.192 318.449C510.692 305.249 521.536 294.797 534.734 294.761ZM534.77 288.697V294.761V288.697C517.862 288.697 504.164 302.431 504.164 319.341C504.164 335.822 517.255 349.342 533.735 349.913C534.092 349.913 534.449 349.949 534.806 349.949C551.714 349.949 565.412 336.214 565.412 319.305C565.412 302.824 552.32 289.303 535.84 288.732C535.483 288.732 535.091 288.697 534.77 288.697Z" fill="#CCCCCC"/>
<path d="M531.557 281.399L531.294 288.957L538.46 289.206L538.722 281.647L531.557 281.399Z" fill="#CCCCCC"/>
<path d="M551.402 285.168L547.284 291.512L553.299 295.417L557.416 289.073L551.402 285.168Z" fill="#CCCCCC"/>
<path d="M566.26 298.071L559.523 301.506L562.78 307.894L569.517 304.459L566.26 298.071Z" fill="#CCCCCC"/>
<path d="M562.363 332.331L558.355 338.276L564.625 342.504L568.633 336.558L562.363 332.331Z" fill="#CCCCCC"/>
<path d="M504.829 295.945L501.137 302.092L507.62 305.986L511.312 299.839L504.829 295.945Z" fill="#CCCCCC"/>
<path d="M506.332 330.419L499.784 334.202L503.37 340.411L509.918 336.628L506.332 330.419Z" fill="#CCCCCC"/>
<path d="M520.543 284.109L514.273 287.586L517.94 294.2L524.21 290.722L520.543 284.109Z" fill="#CCCCCC"/>
<path d="M529.191 349.393L528.929 356.952L536.094 357.2L536.357 349.642L529.191 349.393Z" fill="#CCCCCC"/>
<path d="M551.604 344.474L545.334 347.951L549.001 354.565L555.271 351.087L551.604 344.474Z" fill="#CCCCCC"/>
<path d="M516.222 343.235L512.104 349.579L518.118 353.483L522.236 347.14L516.222 343.235Z" fill="#CCCCCC"/>
<path d="M496.358 314.972L496.135 321.389L504.834 321.691L505.057 315.274L496.358 314.972Z" fill="#CCCCCC"/>
<path d="M564.713 317.335L564.49 323.752L573.189 324.054L573.412 317.637L564.713 317.335Z" fill="#CCCCCC"/>
</g>
<g clip-path="url(#clip1)" filter="url(#filter6_d)">
<path d="M599.928 301.367C600.034 301.367 600.139 301.367 600.245 301.367C605.25 301.539 609.162 305.744 608.991 310.753C608.82 315.63 604.815 319.505 599.928 319.505C599.823 319.505 599.718 319.505 599.612 319.505C594.607 319.334 590.694 315.129 590.866 310.12C591.05 305.243 595.055 301.381 599.928 301.367ZM599.942 299.126V301.367V299.126C593.698 299.126 588.64 304.201 588.64 310.45C588.64 316.539 593.474 321.535 599.56 321.746C599.691 321.746 599.823 321.759 599.955 321.759C606.198 321.759 611.257 316.684 611.257 310.436C611.257 304.346 606.422 299.351 600.337 299.14C600.205 299.14 600.06 299.126 599.942 299.126Z" fill="#CCCCCC"/>
<path d="M598.755 296.43L598.658 299.223L601.304 299.315L601.401 296.522L598.755 296.43Z" fill="#CCCCCC"/>
<path d="M606.083 297.823L604.563 300.167L606.784 301.61L608.304 299.266L606.083 297.823Z" fill="#CCCCCC"/>
<path d="M611.57 302.589L609.082 303.858L610.285 306.219L612.773 304.95L611.57 302.589Z" fill="#CCCCCC"/>
<path d="M610.131 315.249L608.651 317.446L610.966 319.008L612.446 316.811L610.131 315.249Z" fill="#CCCCCC"/>
<path d="M588.885 301.804L587.522 304.076L589.916 305.515L591.279 303.243L588.885 301.804Z" fill="#CCCCCC"/>
<path d="M589.44 314.543L587.022 315.94L588.347 318.235L590.765 316.837L589.44 314.543Z" fill="#CCCCCC"/>
<path d="M594.688 297.431L592.372 298.716L593.727 301.16L596.042 299.875L594.688 297.431Z" fill="#CCCCCC"/>
<path d="M597.881 321.554L597.785 324.347L600.431 324.439L600.528 321.646L597.881 321.554Z" fill="#CCCCCC"/>
<path d="M606.158 319.735L603.843 321.021L605.197 323.464L607.512 322.179L606.158 319.735Z" fill="#CCCCCC"/>
<path d="M593.092 319.279L591.572 321.624L593.793 323.066L595.313 320.722L593.092 319.279Z" fill="#CCCCCC"/>
<path d="M585.757 308.835L585.675 311.207L588.887 311.318L588.969 308.947L585.757 308.835Z" fill="#CCCCCC"/>
<path d="M610.999 309.709L610.916 312.08L614.129 312.192L614.211 309.82L610.999 309.709Z" fill="#CCCCCC"/>
</g>
<g clip-path="url(#clip2)" filter="url(#filter7_d)">
<path d="M576.275 249.427C576.415 249.427 576.555 249.427 576.695 249.427C583.345 249.654 588.542 255.235 588.314 261.882C588.087 268.355 582.767 273.498 576.275 273.498C576.135 273.498 575.995 273.498 575.855 273.498C569.205 273.271 564.008 267.69 564.236 261.043C564.481 254.57 569.8 249.444 576.275 249.427ZM576.292 246.453V249.427V246.453C567.998 246.453 561.278 253.188 561.278 261.48C561.278 269.562 567.7 276.192 575.785 276.472C575.96 276.472 576.135 276.49 576.31 276.49C584.605 276.49 591.324 269.755 591.324 261.462C591.324 253.38 584.902 246.75 576.817 246.47C576.642 246.47 576.45 246.453 576.292 246.453Z" fill="#CCCCCC"/>
<path d="M574.716 242.874L574.588 246.58L578.103 246.702L578.232 242.996L574.716 242.874Z" fill="#CCCCCC"/>
<path d="M584.452 244.723L582.432 247.833L585.382 249.748L587.402 246.637L584.452 244.723Z" fill="#CCCCCC"/>
<path d="M591.741 251.049L588.436 252.733L590.033 255.866L593.338 254.182L591.741 251.049Z" fill="#CCCCCC"/>
<path d="M589.828 267.85L587.862 270.766L590.938 272.839L592.905 269.923L589.828 267.85Z" fill="#CCCCCC"/>
<path d="M561.604 250.007L559.793 253.022L562.974 254.932L564.785 251.917L561.604 250.007Z" fill="#CCCCCC"/>
<path d="M562.342 266.912L559.13 268.767L560.889 271.812L564.101 269.957L562.342 266.912Z" fill="#CCCCCC"/>
<path d="M569.313 244.203L566.237 245.909L568.036 249.152L571.112 247.447L569.313 244.203Z" fill="#CCCCCC"/>
<path d="M573.556 276.218L573.427 279.924L576.942 280.046L577.071 276.34L573.556 276.218Z" fill="#CCCCCC"/>
<path d="M584.551 273.805L581.475 275.51L583.274 278.754L586.35 277.048L584.551 273.805Z" fill="#CCCCCC"/>
<path d="M567.193 273.198L565.173 276.309L568.124 278.223L570.144 275.112L567.193 273.198Z" fill="#CCCCCC"/>
<path d="M557.449 259.337L557.34 262.484L561.607 262.632L561.716 259.485L557.449 259.337Z" fill="#CCCCCC"/>
<path d="M590.982 260.496L590.872 263.643L595.14 263.791L595.249 260.644L590.982 260.496Z" fill="#CCCCCC"/>
</g>
<g clip-path="url(#clip3)">
<path opacity="0.1" d="M552.737 103.095C544.834 106.689 534.652 106.434 534.652 106.434H523.627V104.33C528.114 103.075 534.326 102.297 541.19 102.297C545.05 102.291 548.91 102.552 552.737 103.095Z" fill="black"/>
<path opacity="0.1" d="M565.983 109.191C565.983 113.001 554.88 116.079 541.19 116.079C527.5 116.079 516.397 113.001 516.397 109.191C516.397 107.296 519.16 105.571 523.627 104.329V106.434H534.646C534.646 106.434 544.828 106.688 552.731 103.094C560.608 104.244 565.983 106.545 565.983 109.191Z" fill="black"/>
<path d="M544.358 66.2905H533.81V76.8638H544.358V66.2905Z" fill="#2F2E41"/>
<path d="M537.728 73.7666C537.728 73.7666 538.604 76.8248 537.075 77.0405C536.128 77.1908 535.227 77.5633 534.456 78.1318L537.291 81.8436H542.529L545.801 78.5696C545.801 78.5696 541.438 75.2957 542.307 73.3287C543.176 71.3617 537.728 73.7666 537.728 73.7666Z" fill="#FFB9B9"/>
<path opacity="0.1" d="M537.728 73.7666C537.728 73.7666 538.604 76.8248 537.075 77.0405C536.128 77.1908 535.227 77.5633 534.456 78.1318L537.291 81.8436H542.529L545.801 78.5696C545.801 78.5696 541.438 75.2957 542.307 73.3287C543.176 71.3617 537.728 73.7666 537.728 73.7666Z" fill="black"/>
<path d="M539.041 111.773L544.057 113.517L547.552 113.733L547.336 110.681L540.132 108.544L539.041 111.773Z" fill="#FFB9B9"/>
<path d="M545.481 111.112C545.481 111.112 545.481 114.171 545.919 114.171C546.356 114.171 552.247 113.517 553.998 114.171C555.748 114.824 558.361 112.426 557.055 111.112C555.742 109.799 553.606 107.839 552.274 108.276C550.941 108.714 545.481 109.806 545.481 109.806V111.112Z" fill="#2F2E41"/>
<path d="M529.434 108.276C529.434 108.276 526.814 113.517 528.558 113.955C530.302 114.393 532.268 113.739 532.49 113.517C532.706 113.302 535.762 112.426 536.2 112.864C536.638 113.302 536.638 111.119 536.638 111.119L529.434 108.276Z" fill="#2F2E41"/>
<path d="M531.615 101.068C531.615 101.068 527.468 106.747 530.524 108.276C533.581 109.805 548.205 109.805 549.295 108.276C550.386 106.747 550.824 101.944 549.295 101.506C547.774 101.068 531.615 101.068 531.615 101.068Z" fill="#2F2E41"/>
<path opacity="0.2" d="M531.615 101.068C531.615 101.068 527.468 106.747 530.524 108.276C533.581 109.805 548.205 109.805 549.295 108.276C550.386 106.747 550.824 101.944 549.295 101.506C547.774 101.068 531.615 101.068 531.615 101.068Z" fill="black"/>
<path d="M539.479 75.3005C542.253 75.3005 544.501 73.0506 544.501 70.2753C544.501 67.4999 542.253 65.25 539.479 65.25C536.705 65.25 534.456 67.4999 534.456 70.2753C534.456 73.0506 536.705 75.3005 539.479 75.3005Z" fill="#FFB9B9"/>
<path d="M531.615 78.1374L535.978 77.2617C535.978 77.2617 537.069 80.7578 540.563 80.0978C544.057 79.4378 544.926 77.2617 544.926 77.2617C544.926 77.2617 547.545 78.353 547.761 78.353C547.976 78.353 550.817 79.4443 550.817 80.0978C550.817 80.7513 547.551 87.3057 547.551 87.3057L547.989 99.101L531.837 98.6632L532.928 87.0901L531.615 78.1374Z" fill="#FFA500"/>
<path d="M529.218 83.8174C529.218 83.8174 527.905 95.3905 528.781 96.2662C529.656 97.1419 533.144 99.5401 533.144 99.5401V96.9197L531.4 93.6457L533.144 86L529.218 83.8174Z" fill="#FFB9B9"/>
<path d="M551.81 83.4902C551.81 83.4902 551.046 95.3901 551.046 95.8279C551.046 96.2658 549.08 97.7949 548.427 97.7949C547.774 97.7949 547.336 96.7036 547.336 96.7036L548.864 94.9588L547.774 86.0061L551.81 83.4902Z" fill="#FFB9B9"/>
<path d="M549.733 100.193C549.733 100.193 559.556 94.7296 559.772 100.193C559.987 105.656 554.749 107.838 554.749 107.838C554.749 107.838 541.216 111.897 540.668 110.413C540.119 108.93 539.028 106.525 539.903 106.309C540.779 106.094 541.869 105.656 542.307 106.094C542.745 106.531 548.198 102.82 548.198 102.82L549.733 100.193Z" fill="#2F2E41"/>
<path opacity="0.2" d="M554.318 99.5396C554.318 99.5396 552.352 100.415 551.699 101.069C551.046 101.722 548.205 102.813 548.205 102.813" stroke="black" stroke-width="0.283348" stroke-miterlimit="10"/>
<path d="M532.928 78.5755L531.615 78.1377C531.615 78.1377 526.815 83.163 528.343 84.4699C529.871 85.7834 530.746 86.2147 531.178 86.6525C531.615 87.0904 533.797 87.306 533.797 87.306L532.928 78.5755Z" fill="#FFA500"/>
<path d="M548.864 79.6665L550.83 80.1043C550.83 80.1043 552.359 83.3783 552.796 83.8161C553.234 84.2539 552.143 84.0318 551.483 84.9074C550.824 85.7831 550.171 87.3122 548.864 87.3122C547.552 87.3122 545.808 85.1296 545.808 85.1296L548.864 79.6665Z" fill="#FFA500"/>
<path d="M532.053 102.16C532.053 102.16 523.758 96.2653 520.923 100.631C518.089 104.996 533.15 110.897 535.331 111.766C537.513 112.635 539.479 113.511 539.479 113.511C539.479 113.511 541.445 108.708 541.445 107.832C541.445 106.956 539.916 106.956 539.479 106.956C539.041 106.956 537.075 106.518 536.644 105.865C536.2 105.218 532.053 102.16 532.053 102.16Z" fill="#2F2E41"/>
<path opacity="0.2" d="M527.468 100.63C527.468 100.63 529.649 102.375 531.615 102.813C533.581 103.25 534.234 104.342 534.234 104.342" stroke="black" stroke-width="0.283348" stroke-miterlimit="10"/>
<path d="M530.551 92.4233L530.727 101.67C530.74 102.304 531.262 102.814 531.896 102.807L549.093 102.611C549.7 102.605 550.203 102.128 550.236 101.52L550.758 92.4691C550.798 91.8287 550.308 91.2863 549.668 91.2471C549.648 91.2471 549.622 91.2471 549.602 91.2471H531.707C531.067 91.2471 530.551 91.7633 530.551 92.4037C530.551 92.4037 530.551 92.4103 530.551 92.4233Z" fill="#575A89"/>
<path d="M528.558 78.1901C529.029 77.1576 529.656 76.1839 529.956 75.0926C530.315 73.7791 530.178 72.3937 530.133 71.0279C530.067 69.8255 530.165 68.6166 530.439 67.4468C530.714 66.264 531.328 65.1923 532.209 64.3624C534.495 62.317 538.682 62.1732 541.477 63.0228C542.581 63.356 543.75 63.9965 544.025 65.1139C544.064 65.2838 544.083 65.4537 544.129 65.6236C544.358 66.4535 545.207 66.9829 545.514 67.7932C545.912 68.8387 545.298 69.9758 545.22 71.0867C545.128 72.3871 545.769 73.6157 546.396 74.7593C546.768 75.4389 547.16 76.1643 547.12 76.9354C547.088 77.3601 546.964 77.7718 546.742 78.1378C545.925 79.4839 544.475 80.3204 542.901 80.34C542.398 80.3792 541.895 80.2616 541.464 80.0002C540.785 79.5297 540.583 78.5821 540.726 77.7718C540.87 76.9615 541.281 76.2165 541.608 75.4585C541.706 75.2232 541.797 74.988 541.882 74.7462C544.24 73.4327 545.083 70.4528 543.763 68.0938C542.451 65.7347 539.472 64.8917 537.114 66.2118C534.757 67.5252 533.914 70.5051 535.233 72.8642C535.952 74.1515 537.206 75.0403 538.656 75.2951C538.898 76.5302 538.787 77.8045 538.336 78.9742C537.924 79.9283 537.402 80.8301 536.788 81.6666C536.54 82.0979 536.2 82.4704 535.802 82.771C535.54 82.9278 535.26 83.0454 534.966 83.1304C533.731 83.529 532.432 83.8492 531.151 83.6662C529.871 83.4898 528.598 82.7121 528.16 81.4967C527.781 80.4184 528.088 79.2226 528.558 78.1901Z" fill="#2F2E41"/>
<path d="M539.231 70.4722C542.174 70.4722 544.56 69.1206 544.56 67.4532C544.56 65.7858 542.174 64.4341 539.231 64.4341C536.287 64.4341 533.901 65.7858 533.901 67.4532C533.901 69.1206 536.287 70.4722 539.231 70.4722Z" fill="#2F2E41"/>
</g>
<defs>
<filter id="filter0_d" x="77.1038" y="0.47998" width="582.23" height="401.079" filterUnits="userSpaceOnUse" color-interpolation-filters="sRGB">
<feFlood flood-opacity="0" result="BackgroundImageFix"/>
<feColorMatrix in="SourceAlpha" type="matrix" values="0 0 0 0 0 0 0 0 0 0 0 0 0 0 0 0 0 0 127 0"/>
<feOffset dx="5.66696" dy="5.66696"/>
<feGaussianBlur stdDeviation="2.83348"/>
<feColorMatrix type="matrix" values="0 0 0 0 0 0 0 0 0 0 0 0 0 0 0 0 0 0 1 0"/>
<feBlend mode="normal" in2="BackgroundImageFix" result="effect1_dropShadow"/>
<feBlend mode="normal" in="SourceGraphic" in2="effect1_dropShadow" result="shape"/>
</filter>
<filter id="filter1_d" x="434.695" y="7.26855" width="167.037" height="96.1383" filterUnits="userSpaceOnUse" color-interpolation-filters="sRGB">
<feFlood flood-opacity="0" result="BackgroundImageFix"/>
<feColorMatrix in="SourceAlpha" type="matrix" values="0 0 0 0 0 0 0 0 0 0 0 0 0 0 0 0 0 0 127 0"/>
<feOffset dx="4.25022" dy="0.566696"/>
<feGaussianBlur stdDeviation="0.283348"/>
<feColorMatrix type="matrix" values="0 0 0 0 0 0 0 0 0 0 0 0 0 0 0 0 0 0 0.25 0"/>
<feBlend mode="normal" in2="BackgroundImageFix" result="effect1_dropShadow"/>
<feBlend mode="normal" in="SourceGraphic" in2="effect1_dropShadow" result="shape"/>
</filter>
<filter id="filter2_d" x="207.748" y="103.674" width="282" height="173.407" filterUnits="userSpaceOnUse" color-interpolation-filters="sRGB">
<feFlood flood-opacity="0" result="BackgroundImageFix"/>
<feColorMatrix in="SourceAlpha" type="matrix" values="0 0 0 0 0 0 0 0 0 0 0 0 0 0 0 0 0 0 127 0"/>
<feOffset dx="2.12511" dy="0.566696"/>
<feGaussianBlur stdDeviation="0.283348"/>
<feColorMatrix type="matrix" values="0 0 0 0 0 0 0 0 0 0 0 0 0 0 0 0 0 0 0.25 0"/>
<feBlend mode="normal" in2="BackgroundImageFix" result="effect1_dropShadow"/>
<feBlend mode="normal" in="SourceGraphic" in2="effect1_dropShadow" result="shape"/>
</filter>
<filter id="filter3_d" x="0.561279" y="246.729" width="296.383" height="119.193" filterUnits="userSpaceOnUse" color-interpolation-filters="sRGB">
<feFlood flood-opacity="0" result="BackgroundImageFix"/>
<feColorMatrix in="SourceAlpha" type="matrix" values="0 0 0 0 0 0 0 0 0 0 0 0 0 0 0 0 0 0 127 0"/>
<feOffset dx="0.70837" dy="0.566696"/>
<feGaussianBlur stdDeviation="0.283348"/>
<feColorMatrix type="matrix" values="0 0 0 0 0 0 0 0 0 0 0 0 0 0 0 0 0 0 0.25 0"/>
<feBlend mode="normal" in2="BackgroundImageFix" result="effect1_dropShadow"/>
<feBlend mode="normal" in="SourceGraphic" in2="effect1_dropShadow" result="shape"/>
</filter>
<filter id="filter4_d" x="312.887" y="182.941" width="154.884" height="89.8991" filterUnits="userSpaceOnUse" color-interpolation-filters="sRGB">
<feFlood flood-opacity="0" result="BackgroundImageFix"/>
<feColorMatrix in="SourceAlpha" type="matrix" values="0 0 0 0 0 0 0 0 0 0 0 0 0 0 0 0 0 0 127 0"/>
<feOffset dx="2.12511" dy="0.566696"/>
<feGaussianBlur stdDeviation="0.283348"/>
<feColorMatrix type="matrix" values="0 0 0 0 0 0 0 0 0 0 0 0 0 0 0 0 0 0 0.25 0"/>
<feBlend mode="normal" in2="BackgroundImageFix" result="effect1_dropShadow"/>
<feBlend mode="normal" in="SourceGraphic" in2="effect1_dropShadow" result="shape"/>
</filter>
<filter id="filter5_d" x="496.138" y="281.419" width="80.6287" height="76.9047" filterUnits="userSpaceOnUse" color-interpolation-filters="sRGB">
<feFlood flood-opacity="0" result="BackgroundImageFix"/>
<feColorMatrix in="SourceAlpha" type="matrix" values="0 0 0 0 0 0 0 0 0 0 0 0 0 0 0 0 0 0 127 0"/>
<feOffset dx="2.83348" dy="0.566696"/>
<feGaussianBlur stdDeviation="0.283348"/>
<feColorMatrix type="matrix" values="0 0 0 0 0 0 0 0 0 0 0 0 0 0 0 0 0 0 0.25 0"/>
<feBlend mode="normal" in2="BackgroundImageFix" result="effect1_dropShadow"/>
<feBlend mode="normal" in="SourceGraphic" in2="effect1_dropShadow" result="shape"/>
</filter>
<filter id="filter6_d" x="585.676" y="296.436" width="31.9185" height="29.1313" filterUnits="userSpaceOnUse" color-interpolation-filters="sRGB">
<feFlood flood-opacity="0" result="BackgroundImageFix"/>
<feColorMatrix in="SourceAlpha" type="matrix" values="0 0 0 0 0 0 0 0 0 0 0 0 0 0 0 0 0 0 127 0"/>
<feOffset dx="2.83348" dy="0.566696"/>
<feGaussianBlur stdDeviation="0.283348"/>
<feColorMatrix type="matrix" values="0 0 0 0 0 0 0 0 0 0 0 0 0 0 0 0 0 0 0.25 0"/>
<feBlend mode="normal" in2="BackgroundImageFix" result="effect1_dropShadow"/>
<feBlend mode="normal" in="SourceGraphic" in2="effect1_dropShadow" result="shape"/>
</filter>
<filter id="filter7_d" x="557.341" y="242.884" width="41.2858" height="38.2905" filterUnits="userSpaceOnUse" color-interpolation-filters="sRGB">
<feFlood flood-opacity="0" result="BackgroundImageFix"/>
<feColorMatrix in="SourceAlpha" type="matrix" values="0 0 0 0 0 0 0 0 0 0 0 0 0 0 0 0 0 0 127 0"/>
<feOffset dx="2.83348" dy="0.566696"/>
<feGaussianBlur stdDeviation="0.283348"/>
<feColorMatrix type="matrix" values="0 0 0 0 0 0 0 0 0 0 0 0 0 0 0 0 0 0 0.25 0"/>
<feBlend mode="normal" in2="BackgroundImageFix" result="effect1_dropShadow"/>
<feBlend mode="normal" in="SourceGraphic" in2="effect1_dropShadow" result="shape"/>
</filter>
<linearGradient id="paint0_linear" x1="138.56" y1="359.86" x2="138.56" y2="246.727" gradientUnits="userSpaceOnUse">
<stop stop-color="#808080" stop-opacity="0.25"/>
<stop offset="0.54" stop-color="#808080" stop-opacity="0.12"/>
<stop offset="1" stop-color="#808080" stop-opacity="0.1"/>
</linearGradient>
<clipPath id="clip0">
<rect width="77.2285" height="75.7713" fill="white" transform="translate(496.138 281.419)"/>
</clipPath>
<clipPath id="clip1">
<rect width="28.5183" height="27.9979" fill="white" transform="translate(585.676 296.436)"/>
</clipPath>
<clipPath id="clip2">
<rect width="37.8857" height="37.1571" fill="white" transform="translate(557.341 242.884)"/>
</clipPath>
<clipPath id="clip3">
<rect width="49.5859" height="53.5527" fill="white" transform="translate(516.397 62.5327)"/>
</clipPath>
</defs>
</svg>
