<svg width="379" height="232" viewBox="0 0 379 232" fill="none" xmlns="http://www.w3.org/2000/svg">
<g opacity="0.1" filter="url(#filter0_d)">
<path d="M213.63 42.5855C192.911 46.396 172.226 44.7618 152.324 42.3884C132.423 40.011 112.571 36.9108 91.844 37.8429C78.5134 38.4424 44.0003 68.5651 43.9797 78.3582C43.9551 85.7246 44.5423 93.3456 49.339 99.2133C52.6696 103.282 57.799 106.202 61.6634 109.959C75.1048 123.008 71.0186 143.56 62.1973 161.031C58.0577 169.227 52.9941 177.292 50.1768 185.68C47.3596 194.069 46.9818 203.062 52.029 209.902C57.0269 216.686 66.6983 220.509 76.7763 222.492C97.2526 226.516 120.066 224.019 142.135 220.632C190.985 213.109 239.33 201.378 287.572 189.676C305.42 185.344 323.35 180.991 340.545 174.746C350.093 171.268 359.818 166.944 365.986 160.21C373.822 151.677 374.019 140.008 366.467 133.036C353.794 121.345 325.108 123.936 315.305 110.571C309.913 103.213 312.262 93.2142 316.553 84.386C325.757 65.4526 343.547 46.745 341.243 27.865C339.654 14.9101 327.514 4.18491 311.247 1.39273C294.209 -1.53494 272.307 4.01656 262.492 17.0535C252.398 30.4847 231.921 39.2103 213.63 42.5855Z" fill="#FFA500"/>
</g>
<g filter="url(#filter1_d)">
<path d="M293.642 59.117C318.054 59.117 337.843 57.9055 337.843 56.411C337.843 54.9166 318.054 53.7051 293.642 53.7051C269.23 53.7051 249.441 54.9166 249.441 56.411C249.441 57.9055 269.23 59.117 293.642 59.117Z" fill="#3F3D56"/>
<path opacity="0.1" d="M293.642 58.1562C314.436 58.1562 331.293 57.3547 331.293 56.366C331.293 55.3772 314.436 54.5757 293.642 54.5757C272.848 54.5757 255.991 55.3772 255.991 56.366C255.991 57.3547 272.848 58.1562 293.642 58.1562Z" fill="black"/>
<path d="M327.095 4.53027H261.408V56.0623H327.095V4.53027Z" fill="#3F3D56"/>
<path d="M293.506 11.5724H277.301C277.194 11.5724 277.104 11.4862 277.104 11.3753C277.104 11.2645 277.19 11.1782 277.301 11.1782H293.506C293.613 11.1782 293.703 11.2686 293.703 11.3753C293.703 11.4862 293.617 11.5724 293.506 11.5724Z" fill="#F2F2F2"/>
<path d="M311.248 13.7365H285.761C285.654 13.7365 285.564 13.6502 285.564 13.5394C285.564 13.4285 285.65 13.3423 285.761 13.3423H311.248C311.354 13.3423 311.445 13.4285 311.445 13.5394C311.445 13.6502 311.354 13.7365 311.248 13.7365Z" fill="#F2F2F2"/>
<path d="M293.584 15.8996H277.379C277.272 15.8996 277.182 15.8133 277.182 15.7025C277.182 15.5957 277.268 15.5054 277.379 15.5054H293.584C293.691 15.5054 293.782 15.5916 293.782 15.7025C293.782 15.8092 293.695 15.8996 293.584 15.8996Z" fill="#F2F2F2"/>
<path d="M311.247 15.9376H295.042C294.935 15.9376 294.845 15.8514 294.845 15.7406C294.845 15.6297 294.931 15.5435 295.042 15.5435H311.247C311.354 15.5435 311.444 15.6297 311.444 15.7406C311.444 15.8514 311.354 15.9376 311.247 15.9376Z" fill="#F2F2F2"/>
<path d="M293.625 18.0602H277.42C277.313 18.0602 277.223 17.974 277.223 17.8631C277.223 17.7522 277.309 17.666 277.42 17.666H293.625C293.732 17.666 293.822 17.7522 293.822 17.8631C293.822 17.974 293.732 18.0602 293.625 18.0602Z" fill="#F2F2F2"/>
<path d="M293.667 20.2243H277.461C277.355 20.2243 277.264 20.138 277.264 20.0272C277.264 19.9163 277.35 19.8301 277.461 19.8301H293.667C293.773 19.8301 293.864 19.9163 293.864 20.0272C293.864 20.138 293.773 20.2243 293.667 20.2243Z" fill="#F2F2F2"/>
<path d="M301.021 11.6139H296.381C296.274 11.6139 296.184 11.5277 296.184 11.4168C296.184 11.306 296.27 11.2197 296.381 11.2197H301.021C301.128 11.2197 301.218 11.306 301.218 11.4168C301.218 11.5277 301.128 11.6139 301.021 11.6139Z" fill="#F2F2F2"/>
<path d="M301.021 18.0602H296.381C296.274 18.0602 296.184 17.974 296.184 17.8631C296.184 17.7522 296.27 17.666 296.381 17.666H301.021C301.128 17.666 301.218 17.7522 301.218 17.8631C301.218 17.974 301.128 18.0602 301.021 18.0602Z" fill="#F2F2F2"/>
<path d="M301.021 20.1862H296.381C296.274 20.1862 296.184 20.1 296.184 19.9891C296.184 19.8782 296.27 19.792 296.381 19.792H301.021C301.128 19.792 301.218 19.8782 301.218 19.9891C301.218 20.0958 301.128 20.1821 301.021 20.1862Z" fill="#F2F2F2"/>
<path d="M308.808 20.1862H304.168C304.061 20.1862 303.971 20.0958 303.971 19.9891C303.971 19.8823 304.057 19.792 304.168 19.792H308.808C308.915 19.792 309.006 19.8782 309.006 19.9891C309.006 20.0958 308.919 20.1821 308.808 20.1862Z" fill="#F2F2F2"/>
<path d="M281.905 13.7365H277.264C277.157 13.7365 277.067 13.6502 277.067 13.5394C277.067 13.4285 277.153 13.3423 277.264 13.3423H281.905C282.011 13.3423 282.102 13.4285 282.102 13.5394C282.102 13.6502 282.011 13.7365 281.905 13.7365Z" fill="#F2F2F2"/>
<path d="M293.527 43.4279H277.322C277.215 43.4279 277.125 43.3417 277.125 43.2308C277.125 43.124 277.211 43.0337 277.322 43.0337H293.527C293.634 43.0337 293.724 43.1199 293.724 43.2308C293.724 43.3417 293.634 43.4279 293.527 43.4279Z" fill="#F2F2F2"/>
<path d="M293.449 47.755H277.244C277.137 47.755 277.047 47.6688 277.047 47.5579C277.047 47.4512 277.133 47.3608 277.244 47.3608H293.449C293.556 47.3608 293.646 47.4471 293.646 47.5579C293.646 47.6647 293.556 47.755 293.449 47.755Z" fill="#F2F2F2"/>
<path d="M293.486 49.9157H277.281C277.174 49.9157 277.084 49.8294 277.084 49.7186C277.084 49.6077 277.17 49.5215 277.281 49.5215H293.486C293.593 49.5215 293.683 49.6077 293.683 49.7186C293.683 49.8294 293.597 49.9157 293.486 49.9157Z" fill="#F2F2F2"/>
<path d="M300.41 47.7926H295.769C295.663 47.7926 295.572 47.7064 295.572 47.5955C295.572 47.4888 295.658 47.3984 295.769 47.3984H300.41C300.517 47.3984 300.607 47.4847 300.607 47.5955C300.607 47.7064 300.521 47.7926 300.41 47.7926Z" fill="#F2F2F2"/>
<path d="M300.41 49.9157H295.769C295.663 49.9157 295.572 49.8294 295.572 49.7186C295.572 49.6077 295.658 49.5215 295.769 49.5215H300.41C300.517 49.5215 300.607 49.6077 300.607 49.7186C300.607 49.8294 300.521 49.9157 300.41 49.9157Z" fill="#F2F2F2"/>
<path d="M308.201 47.7926H303.56C303.453 47.7926 303.363 47.7064 303.363 47.5955C303.363 47.4888 303.449 47.3984 303.56 47.3984H308.201C308.307 47.3984 308.398 47.4847 308.398 47.5955C308.394 47.7064 308.307 47.7926 308.201 47.7926Z" fill="#F2F2F2"/>
<path d="M306.997 47.5959H281.51C281.403 47.5959 281.313 47.5096 281.313 47.3988C281.313 47.292 281.399 47.2017 281.51 47.2017H306.997C307.103 47.2017 307.194 47.2879 307.194 47.3988C307.194 47.5096 307.108 47.5959 306.997 47.5959Z" fill="#F2F2F2"/>
<path d="M281.926 45.5905H277.285C277.178 45.5905 277.088 45.5042 277.088 45.3934C277.088 45.2866 277.174 45.1963 277.285 45.1963H281.926C282.032 45.1963 282.123 45.2825 282.123 45.3934C282.119 45.5001 282.032 45.5905 281.926 45.5905Z" fill="#F2F2F2"/>
<path d="M311.269 52.1212H285.782C285.675 52.1212 285.585 52.035 285.585 51.9241C285.585 51.8174 285.671 51.7271 285.782 51.7271H311.269C311.375 51.7271 311.466 51.8133 311.466 51.9241C311.462 52.0309 311.375 52.1212 311.269 52.1212Z" fill="#F2F2F2"/>
<path d="M281.926 52.1212H277.285C277.178 52.1212 277.088 52.035 277.088 51.9241C277.088 51.8174 277.174 51.7271 277.285 51.7271H281.926C282.032 51.7271 282.123 51.8133 282.123 51.9241C282.119 52.0309 282.032 52.1212 281.926 52.1212Z" fill="#F2F2F2"/>
<path d="M289.613 25.4146L283.322 31.6312L289.613 37.8438L291.03 36.4272L286.27 31.6682L291.067 26.8722L289.613 25.4146Z" fill="#FFA500"/>
<path d="M298.894 25.4146L305.19 31.6312L298.894 37.8438L297.481 36.4272L302.237 31.6682L297.44 26.8722L298.894 25.4146Z" fill="#FFA500"/>
<path d="M263.157 6.6247C263.591 6.6247 263.942 6.27357 263.942 5.84043C263.942 5.40728 263.591 5.05615 263.157 5.05615C262.724 5.05615 262.373 5.40728 262.373 5.84043C262.373 6.27357 262.724 6.6247 263.157 6.6247Z" fill="#FFA500"/>
<path d="M265.252 6.6247C265.685 6.6247 266.037 6.27357 266.037 5.84043C266.037 5.40728 265.685 5.05615 265.252 5.05615C264.819 5.05615 264.468 5.40728 264.468 5.84043C264.468 6.27357 264.819 6.6247 265.252 6.6247Z" fill="#FFA500"/>
<path d="M267.35 6.6247C267.783 6.6247 268.135 6.27357 268.135 5.84043C268.135 5.40728 267.783 5.05615 267.35 5.05615C266.917 5.05615 266.566 5.40728 266.566 5.84043C266.566 6.27357 266.917 6.6247 267.35 6.6247Z" fill="#FFA500"/>
<path opacity="0.1" d="M327.095 7.1499H261.408V7.41269H327.095V7.1499Z" fill="black"/>
<path d="M342.649 43.4364C342.649 49.0043 339.338 50.9506 335.252 50.9506C331.166 50.9506 327.856 49.0043 327.856 43.4364C327.856 37.8684 335.252 30.7812 335.252 30.7812C335.252 30.7812 342.649 37.8684 342.649 43.4364Z" fill="#FFA500"/>
<path d="M334.981 50.1006L335.059 45.4361L338.209 39.671L335.071 44.7052L335.104 42.611L337.276 38.4392L335.112 42.0567L335.174 38.2873L337.502 34.9654L335.182 37.6919L335.223 30.7812L334.981 39.9297L335.001 39.5561L332.636 35.9345L334.964 40.2788L334.742 44.4875L334.734 44.3767L332.007 40.5662L334.726 44.7709L334.701 45.2965L334.697 45.3047V45.3498L334.139 56.0299H334.886L334.977 50.5154L337.687 46.3189L334.981 50.1006Z" fill="#3F3D56"/>
</g>
<g filter="url(#filter2_d)">
<path d="M203.609 85.4309C203.396 86.363 202.665 88.3257 200.316 88.2765C198.521 88.2395 197.137 87.0077 197.186 85.5951L197.864 66.362L198.086 60.0878C198.086 60.0878 199.248 58.3509 200.41 66.1321V66.1608L203.63 84.6097C203.675 84.8807 203.671 85.1599 203.609 85.4309Z" fill="#8C8C8C"/>
<path d="M202.041 87.2993H198.587V93.1136H202.041V87.2993Z" fill="white"/>
<path d="M201.671 91.73H199.014V94.284H201.671V91.73Z" fill="white"/>
<path d="M200.41 66.1608C199.198 65.8857 198.377 66.0951 197.855 66.362L198.077 60.0878C198.077 60.0878 199.239 58.3509 200.402 66.1321L200.41 66.1608Z" fill="#FFA500"/>
<path d="M202.045 89.0358V93.1132H198.591V89.1179C199.683 88.7442 200.919 88.7155 202.045 89.0358Z" fill="#FFA500"/>
<path d="M210.18 101.995C209.211 101.437 207.289 100.061 208.373 98.4186C209.202 97.1662 211.215 96.7268 212.808 97.3797L234.484 106.29L241.555 109.197C241.555 109.197 243.026 110.778 233.629 108.191L233.596 108.183L211.108 102.369C210.775 102.282 210.463 102.159 210.18 101.995Z" fill="#8C8C8C"/>
<path d="M202.09 97.5239L203.605 95.0767L210.25 97.6266L208.735 100.07L202.09 97.5239Z" fill="white"/>
<path d="M204.997 95.9836L203.831 97.8642L200.915 96.7432L202.081 94.8667L204.997 95.9836Z" fill="white"/>
<path d="M233.593 108.183C234.439 107.448 234.558 106.774 234.484 106.294L241.556 109.201C241.556 109.201 243.026 110.782 233.63 108.195L233.593 108.183Z" fill="#FFA500"/>
<path d="M206.747 99.3048L202.09 97.5186L203.605 95.0796L208.168 96.8288C208.114 97.7691 207.605 98.656 206.747 99.3048Z" fill="#FFA500"/>
<path d="M190.451 101.995C191.421 101.437 193.342 100.061 192.258 98.4186C191.429 97.1662 189.416 96.7268 187.823 97.3797L166.148 106.29L159.076 109.197C159.076 109.197 157.605 110.778 167.002 108.191L167.035 108.183L189.523 102.373C189.856 102.287 190.168 102.159 190.451 101.995Z" fill="#8C8C8C"/>
<path d="M190.381 97.6266L197.026 95.0767L198.541 97.5198L191.897 100.07L190.381 97.6266Z" fill="white"/>
<path d="M198.55 94.8623L199.716 96.7429L196.801 97.8639L195.634 95.9833L198.55 94.8623Z" fill="white"/>
<path d="M167.039 108.183C166.193 107.448 166.074 106.774 166.148 106.294L159.076 109.201C159.076 109.201 157.605 110.782 167.002 108.195L167.039 108.183Z" fill="#FFA500"/>
<path d="M193.884 99.3048L198.541 97.5186L197.026 95.0796L192.463 96.8288C192.517 97.7691 193.026 98.656 193.884 99.3048Z" fill="#FFA500"/>
<path d="M203.425 158.906H196.648L198.8 96.1025H201.273L203.425 158.906Z" fill="#8C8C8C"/>
<path d="M200.315 97.1042C201.563 97.1042 202.574 96.3082 202.574 95.3263C202.574 94.3444 201.563 93.5483 200.315 93.5483C199.068 93.5483 198.057 94.3444 198.057 95.3263C198.057 96.3082 199.068 97.1042 200.315 97.1042Z" fill="#FFA500"/>
<path d="M253.798 82.1213C253.654 82.7496 253.162 84.0758 251.572 84.043C250.353 83.9978 249.408 83.1889 249.453 82.2281L249.913 69.2157L250.061 64.9741C250.061 64.9741 250.849 63.7997 251.634 69.0638V69.0843L253.81 81.5711C253.839 81.7518 253.839 81.9366 253.798 82.1213Z" fill="#8C8C8C"/>
<path d="M252.739 83.3813H250.402V87.315H252.739V83.3813Z" fill="white"/>
<path d="M252.488 86.3838H250.689V88.1125H252.488V86.3838Z" fill="white"/>
<path d="M251.634 69.0846C250.816 68.8998 250.258 69.0394 249.909 69.2201L250.057 64.9785C250.057 64.9785 250.845 63.8041 251.629 69.0682L251.634 69.0846Z" fill="#FFA500"/>
<path d="M252.739 84.5567V87.3119H250.402V84.6101C251.141 84.3596 251.979 84.3391 252.739 84.5567Z" fill="#FFA500"/>
<path d="M258.237 93.3274C257.584 92.9496 256.278 92.0216 257.013 90.9089C257.597 90.0671 258.94 89.7509 260.015 90.2067L274.681 96.2345L279.461 98.2014C279.461 98.2014 280.459 99.2731 274.102 97.5197H274.077L258.861 93.5902C258.64 93.5245 258.426 93.4382 258.237 93.3274Z" fill="#8C8C8C"/>
<path d="M252.771 90.3003L253.794 88.6455L258.29 90.3701L257.264 92.0249L252.771 90.3003Z" fill="white"/>
<path d="M254.739 89.2616L253.95 90.5304L251.979 89.7749L252.767 88.502L254.739 89.2616Z" fill="white"/>
<path d="M274.085 97.5109C274.66 97.014 274.738 96.5583 274.689 96.2339L279.469 98.2007C279.469 98.2007 280.467 99.2724 274.11 97.5191L274.085 97.5109Z" fill="#FFA500"/>
<path d="M255.921 91.5075L252.763 90.2962L253.786 88.6455L256.874 89.8281C256.841 90.4645 256.5 91.064 255.921 91.5075Z" fill="#FFA500"/>
<path d="M244.899 93.3274C245.552 92.9496 246.858 92.0216 246.123 90.9089C245.54 90.0671 244.197 89.7509 243.121 90.2067L228.455 96.2345L223.675 98.2014C223.675 98.2014 222.677 99.2731 229.034 97.5197H229.059L244.275 93.5902C244.496 93.5245 244.706 93.4382 244.899 93.3274Z" fill="#8C8C8C"/>
<path d="M244.849 90.3701L249.346 88.6455L250.369 90.3003L245.876 92.0249L244.849 90.3701Z" fill="white"/>
<path d="M250.372 88.502L251.165 89.7749L249.189 90.5304L248.401 89.2575L250.372 88.502Z" fill="white"/>
<path d="M229.055 97.5109C228.484 97.014 228.402 96.5583 228.451 96.2339L223.671 98.2007C223.671 98.2007 222.673 99.2724 229.031 97.5191L229.055 97.5109Z" fill="#FFA500"/>
<path d="M247.218 91.5075L250.368 90.2962L249.346 88.6455L246.257 89.8281C246.29 90.4645 246.635 91.0681 247.218 91.5075Z" fill="#FFA500"/>
<path d="M253.675 131.831L249.067 132.467L250.545 89.3403H252.217L253.675 131.831Z" fill="#8C8C8C"/>
<path d="M251.572 90.017C252.415 90.017 253.099 89.4784 253.099 88.8139C253.099 88.1495 252.415 87.6108 251.572 87.6108C250.728 87.6108 250.044 88.1495 250.044 88.8139C250.044 89.4784 250.728 90.017 251.572 90.017Z" fill="#FFA500"/>
<path d="M149.228 82.1213C149.084 82.7496 148.591 84.0759 147.002 84.043C145.782 83.9978 144.838 83.1889 144.883 82.2281L145.343 69.2157L145.491 64.9741C145.491 64.9741 146.279 63.7997 147.064 69.0638V69.0843L149.24 81.5711C149.269 81.7518 149.265 81.9366 149.228 82.1213Z" fill="#8C8C8C"/>
<path d="M148.168 83.3813H145.831V87.315H148.168V83.3813Z" fill="white"/>
<path d="M147.914 86.3838H146.115V88.1125H147.914V86.3838Z" fill="white"/>
<path d="M147.063 69.0846C146.246 68.8998 145.687 69.0394 145.338 69.2201L145.486 64.9785C145.486 64.9785 146.275 63.8041 147.059 69.0682L147.063 69.0846Z" fill="#FFA500"/>
<path d="M148.168 84.5567V87.3119H145.831V84.6101C146.57 84.3596 147.408 84.3391 148.168 84.5567Z" fill="#FFA500"/>
<path d="M153.671 93.3274C153.018 92.9496 151.716 92.0216 152.451 90.9089C153.035 90.0671 154.373 89.7509 155.449 90.2067L170.115 96.2345L174.899 98.2014C174.899 98.2014 175.893 99.2731 169.536 97.5197H169.511L154.299 93.5902C154.074 93.5245 153.864 93.4382 153.671 93.3274Z" fill="#8C8C8C"/>
<path d="M148.201 90.3003L149.224 88.6455L153.721 90.3701L152.694 92.0249L148.201 90.3003Z" fill="white"/>
<path d="M150.164 89.2575L149.376 90.5304L147.404 89.7749L148.193 88.502L150.164 89.2575Z" fill="white"/>
<path d="M169.515 97.5109C170.09 97.014 170.168 96.5583 170.119 96.2339L174.903 98.2007C174.903 98.2007 175.897 99.2724 169.54 97.5191L169.515 97.5109Z" fill="#FFA500"/>
<path d="M151.351 91.5075L148.201 90.2962L149.228 88.6455L152.316 89.8281C152.275 90.4645 151.934 91.0681 151.351 91.5075Z" fill="#FFA500"/>
<path d="M140.324 93.3274C140.981 92.9496 142.283 92.0216 141.548 90.9089C140.965 90.0671 139.622 89.7509 138.546 90.2067L123.881 96.2345L119.1 98.2013C119.1 98.2013 118.102 99.273 124.46 97.5197H124.484L139.7 93.5902C139.922 93.5245 140.135 93.4382 140.324 93.3274Z" fill="#8C8C8C"/>
<path d="M140.279 90.3701L144.772 88.6455L145.799 90.3003L141.302 92.0249L140.279 90.3701Z" fill="white"/>
<path d="M145.802 88.502L146.595 89.7749L144.62 90.5304L143.831 89.2616L145.802 88.502Z" fill="white"/>
<path d="M124.484 97.5109C123.914 97.014 123.831 96.5583 123.881 96.2339L119.1 98.2007C119.1 98.2007 118.102 99.2724 124.46 97.5191L124.484 97.5109Z" fill="#FFA500"/>
<path d="M142.645 91.5075L145.794 90.2962L144.772 88.6455L141.684 89.8281C141.721 90.4645 142.066 91.064 142.645 91.5075Z" fill="#FFA500"/>
<path d="M149.104 131.831H144.517L145.975 89.3403H147.646L149.104 131.831Z" fill="#8C8C8C"/>
<path d="M146.997 90.017C147.841 90.017 148.525 89.4784 148.525 88.8139C148.525 88.1495 147.841 87.6108 146.997 87.6108C146.154 87.6108 145.47 88.1495 145.47 88.8139C145.47 89.4784 146.154 90.017 146.997 90.017Z" fill="#FFA500"/>
<path opacity="0.1" d="M139.889 115.34L139.461 115.09C139.507 115.102 139.552 115.119 139.597 115.139C139.687 115.18 139.769 115.229 139.843 115.291C139.893 115.324 139.938 115.357 139.983 115.39L139.889 115.34Z" fill="black"/>
<path d="M153.556 126.664C154.824 126.664 155.852 125.855 155.852 124.857C155.852 123.86 154.824 123.051 153.556 123.051C152.288 123.051 151.26 123.86 151.26 124.857C151.26 125.855 152.288 126.664 153.556 126.664Z" fill="#3F3D56"/>
<path d="M149.039 132.002C145.725 136.002 146.632 141.085 146.632 141.085C146.632 141.085 152.911 139.689 156.226 135.69C159.54 131.69 158.632 126.607 158.632 126.607C158.632 126.607 152.353 128.007 149.039 132.002Z" fill="#3F3D56"/>
<path d="M146.973 141.142C146.973 141.142 146.891 141.134 146.743 141.109C146.624 141.089 146.459 141.064 146.262 141.027C144.484 140.699 139.749 139.582 136.657 136.646C132.784 132.971 132.948 127.838 132.948 127.838C132.948 127.838 138.87 128.594 142.772 131.895C142.94 132.039 143.104 132.183 143.264 132.335C146.632 135.533 146.948 139.832 146.973 140.896C146.977 141.056 146.973 141.142 146.973 141.142Z" fill="#FFA500"/>
<path d="M144.587 132.105C147.902 136.104 146.994 141.188 146.994 141.188C146.994 141.188 140.715 139.792 137.401 135.792C134.086 131.793 134.994 126.709 134.994 126.709C134.994 126.709 141.273 128.11 144.587 132.105Z" stroke="#3F3D56" stroke-width="0.162804" stroke-miterlimit="10"/>
<path opacity="0.1" d="M146.973 140.896C146.887 140.978 146.809 141.048 146.743 141.109C146.604 141.236 146.521 141.302 146.521 141.302C146.521 141.302 146.423 141.208 146.263 141.027C145.367 140.046 142.489 136.555 142.71 132.523C142.723 132.314 142.743 132.104 142.768 131.895C142.936 132.039 143.101 132.182 143.261 132.334C146.632 135.533 146.949 139.832 146.973 140.896Z" fill="black"/>
<path d="M151.885 132.811C151.622 137.578 147.125 141.299 147.125 141.299C147.125 141.299 143.051 137.287 143.314 132.52C143.577 127.752 148.074 124.032 148.074 124.032C148.074 124.032 152.148 128.044 151.885 132.811Z" fill="#FFA500"/>
<path d="M146.763 141.065L147.753 124.127" stroke="#3F3D56" stroke-width="0.162804" stroke-miterlimit="10"/>
<path d="M165.207 130.015C166.246 130.015 167.088 129.353 167.088 128.537C167.088 127.72 166.246 127.059 165.207 127.059C164.168 127.059 163.326 127.72 163.326 128.537C163.326 129.353 164.168 130.015 165.207 130.015Z" fill="#3F3D56"/>
<path d="M161.507 134.392C158.792 137.669 159.535 141.832 159.535 141.832C159.535 141.832 164.681 140.687 167.396 137.414C170.11 134.137 169.367 129.974 169.367 129.974C169.367 129.974 164.221 131.115 161.507 134.392Z" fill="#3F3D56"/>
<path d="M159.523 141.791C159.523 141.791 159.458 141.783 159.334 141.762C159.236 141.746 159.104 141.725 158.94 141.692C157.482 141.421 153.605 140.506 151.072 138.104C147.901 135.094 148.033 130.889 148.033 130.889C148.033 130.889 152.883 131.509 156.078 134.211C156.217 134.326 156.353 134.449 156.48 134.572C159.24 137.192 159.499 140.715 159.519 141.586C159.523 141.721 159.523 141.791 159.523 141.791Z" fill="#FFA500"/>
<path d="M157.564 134.392C160.279 137.669 159.536 141.832 159.536 141.832C159.536 141.832 154.39 140.687 151.675 137.414C148.961 134.137 149.704 129.974 149.704 129.974C149.704 129.974 154.85 131.115 157.564 134.392Z" stroke="#3F3D56" stroke-width="0.162804" stroke-miterlimit="10"/>
<path opacity="0.1" d="M159.519 141.591C159.449 141.66 159.383 141.718 159.33 141.763C159.215 141.866 159.149 141.919 159.149 141.919C159.149 141.919 159.071 141.841 158.935 141.693C158.2 140.888 155.843 138.031 156.028 134.725C156.036 134.553 156.053 134.38 156.077 134.212C156.217 134.327 156.352 134.45 156.48 134.573C159.243 137.197 159.498 140.72 159.519 141.591Z" fill="black"/>
<path d="M163.544 134.97C163.33 138.875 159.643 141.922 159.643 141.922C159.643 141.922 156.304 138.637 156.521 134.728C156.735 130.823 160.423 127.776 160.423 127.776C160.423 127.776 163.762 131.061 163.544 134.97Z" fill="#FFA500"/>
<path d="M159.646 141.812L160.456 127.938" stroke="#3F3D56" stroke-width="0.162804" stroke-miterlimit="10"/>
<path d="M188.217 130.995C191.912 130.995 194.907 128.638 194.907 125.731C194.907 122.824 191.912 120.467 188.217 120.467C184.522 120.467 181.527 122.824 181.527 125.731C181.527 128.638 184.522 130.995 188.217 130.995Z" fill="#FFA500"/>
<path d="M176.845 143.383C180.54 143.383 183.535 141.026 183.535 138.119C183.535 135.212 180.54 132.855 176.845 132.855C173.15 132.855 170.155 135.212 170.155 138.119C170.155 141.026 173.15 143.383 176.845 143.383Z" fill="#FFA500"/>
<path d="M162.849 153.275C166.544 153.275 169.539 150.918 169.539 148.011C169.539 145.104 166.544 142.747 162.849 142.747C159.154 142.747 156.159 145.104 156.159 148.011C156.159 150.918 159.154 153.275 162.849 153.275Z" fill="#FFA500"/>
<path d="M162.845 157.529V147.982" stroke="#3F3D56" stroke-width="0.162804" stroke-miterlimit="10"/>
<path d="M162.845 149.334C163.793 149.334 164.561 148.729 164.561 147.983C164.561 147.237 163.793 146.632 162.845 146.632C161.896 146.632 161.128 147.237 161.128 147.983C161.128 148.729 161.896 149.334 162.845 149.334Z" fill="#3F3D56"/>
<path d="M162.845 153.866C162.845 153.866 162.599 149.718 157.576 150.199L162.845 153.866Z" fill="#3F3D56"/>
<path d="M188.221 157.595V125.751" stroke="#3F3D56" stroke-width="0.162804" stroke-miterlimit="10"/>
<path d="M188.221 127.086C189.169 127.086 189.937 126.481 189.937 125.735C189.937 124.989 189.169 124.384 188.221 124.384C187.272 124.384 186.504 124.989 186.504 125.735C186.504 126.481 187.272 127.086 188.221 127.086Z" fill="#3F3D56"/>
<path d="M182.948 150.125C183.896 150.125 184.664 149.52 184.664 148.774C184.664 148.028 183.896 147.423 182.948 147.423C182 147.423 181.231 148.028 181.231 148.774C181.231 149.52 182 150.125 182.948 150.125Z" fill="#3F3D56"/>
<path d="M188.221 132.63C188.221 132.63 187.975 128.483 182.952 128.963L188.221 132.63Z" fill="#3F3D56"/>
<path d="M188.221 144.389C188.221 144.389 187.975 140.241 182.952 140.722L188.221 144.389Z" fill="#3F3D56"/>
<path d="M188.221 157.225C188.221 157.225 189.326 149.16 182.952 148.774" stroke="#3F3D56" stroke-width="0.162804" stroke-miterlimit="10"/>
<path d="M193.49 150.125C194.438 150.125 195.206 149.52 195.206 148.774C195.206 148.028 194.438 147.423 193.49 147.423C192.542 147.423 191.773 148.028 191.773 148.774C191.773 149.52 192.542 150.125 193.49 150.125Z" fill="#3F3D56"/>
<path d="M188.221 157.225C188.221 157.225 187.116 149.16 193.49 148.774" stroke="#3F3D56" stroke-width="0.162804" stroke-miterlimit="10"/>
<path d="M193.597 137.462C194.545 137.462 195.313 136.857 195.313 136.111C195.313 135.365 194.545 134.76 193.597 134.76C192.648 134.76 191.88 135.365 191.88 136.111C191.88 136.857 192.648 137.462 193.597 137.462Z" fill="#3F3D56"/>
<path d="M188.323 144.131C188.323 144.131 187.218 136.498 193.592 136.112" stroke="#3F3D56" stroke-width="0.162804" stroke-miterlimit="10"/>
<path d="M176.849 157.55V138.111" stroke="#3F3D56" stroke-width="0.162804" stroke-miterlimit="10"/>
<path d="M176.849 139.462C177.797 139.462 178.566 138.857 178.566 138.111C178.566 137.365 177.797 136.76 176.849 136.76C175.901 136.76 175.132 137.365 175.132 138.111C175.132 138.857 175.901 139.462 176.849 139.462Z" fill="#3F3D56"/>
<path d="M176.849 143.609C176.849 143.609 176.603 139.462 171.58 139.942L176.849 143.609Z" fill="#3F3D56"/>
<path d="M176.849 157.18C176.849 157.18 177.954 149.202 171.58 148.816" stroke="#3F3D56" stroke-width="0.162804" stroke-miterlimit="10"/>
<path d="M171.58 150.167C172.528 150.167 173.297 149.562 173.297 148.816C173.297 148.07 172.528 147.465 171.58 147.465C170.632 147.465 169.863 148.07 169.863 148.816C169.863 149.562 170.632 150.167 171.58 150.167Z" fill="#3F3D56"/>
</g>
<g filter="url(#filter3_d)">
<path d="M25.5928 184.35C25.5928 184.35 14.7331 190.906 34.7604 201.002C34.7604 201.002 39.1723 192.809 34.2954 186.132C32.3376 183.44 28.6721 182.635 25.7647 184.264L25.5928 184.35Z" fill="#FFA500"/>
<path d="M25.7251 184.214C25.7251 184.214 35.0256 191.322 34.7638 201" stroke="#535461" stroke-width="0.0814018" stroke-miterlimit="10"/>
<path d="M163.01 178.892C165.21 186.937 155.824 209.856 155.824 209.856C155.824 209.856 136.074 194.907 133.87 186.862C131.482 178.868 136.027 170.452 144.022 168.065C152.017 165.678 160.435 170.222 162.822 178.216C162.893 178.439 162.955 178.661 163.01 178.892Z" fill="#FFA500"/>
<path opacity="0.1" d="M163.01 178.892C165.21 186.937 155.824 209.856 155.824 209.856C155.824 209.856 136.074 194.907 133.87 186.862C131.482 178.868 136.027 170.452 144.022 168.065C152.017 165.678 160.435 170.222 162.822 178.216C162.893 178.439 162.955 178.661 163.01 178.892Z" fill="black"/>
<path d="M144.538 168.354C144.538 168.354 156.831 186.91 155.913 209.9" stroke="#535461" stroke-width="0.0814018" stroke-miterlimit="10"/>
<path d="M166.147 193.595C166.147 193.595 154.998 187.531 156.409 209.915C156.409 209.915 165.71 209.583 169.008 201.999C170.344 198.947 169.184 195.376 166.307 193.692L166.147 193.595Z" fill="#FFA500"/>
<path d="M166.332 193.635C166.332 193.635 164.893 205.255 156.414 209.917" stroke="#535461" stroke-width="0.0814018" stroke-miterlimit="10"/>
<path d="M2.94307 191.098C2.94307 191.098 -7.92447 197.65 12.1068 207.743C12.1068 207.743 16.5187 199.549 11.6418 192.872C9.68399 190.18 6.01849 189.375 3.1111 191.004L2.94307 191.098Z" fill="#FFA500"/>
<path d="M3.06787 190.962C3.06787 190.962 12.3684 198.069 12.1066 207.747" stroke="#535461" stroke-width="0.0814018" stroke-miterlimit="10"/>
<path d="M138.535 199.632H127.117C127.378 199.104 127.515 198.522 127.515 197.932V145.939C127.515 143.829 125.804 142.118 123.693 142.118H35.2993C33.1891 142.118 31.4775 143.829 31.4775 145.939V197.932C31.4775 198.522 31.6143 199.104 31.8761 199.632H20.0473C19.4885 199.632 19.0352 200.085 19.0352 200.644V200.647V201.464C19.0352 204.586 21.5674 207.118 24.6897 207.118H133.889C137.011 207.118 139.543 204.586 139.543 201.464V200.647C139.547 200.089 139.098 199.632 138.539 199.628C138.539 199.632 138.535 199.632 138.535 199.632ZM68.1677 202.867L67.1829 201.757H91.4932L90.4108 202.871L68.1677 202.867Z" fill="url(#paint0_linear)"/>
<path d="M36.6867 142.852H122.287C124.569 142.852 126.421 144.704 126.421 146.986V197.006C126.421 199.288 124.569 201.14 122.287 201.14H36.6867C34.4045 201.14 32.5522 199.288 32.5522 197.006V146.986C32.5562 144.704 34.4045 142.852 36.6867 142.852Z" fill="#535461"/>
<path d="M124.244 151.351H34.5293V198.968H124.244V151.351Z" fill="white"/>
<path d="M79.3909 147.991C79.8269 147.991 80.1803 147.638 80.1803 147.202C80.1803 146.766 79.8269 146.413 79.3909 146.413C78.955 146.413 78.6016 146.766 78.6016 147.202C78.6016 147.638 78.955 147.991 79.3909 147.991Z" fill="white"/>
<path d="M93.24 199.065L90.1568 202.226H68.4256L65.6393 199.065H21.3876C20.8405 199.065 20.3989 199.506 20.3989 200.053V200.851C20.3989 203.902 22.8726 206.379 25.9284 206.379H132.654C135.706 206.379 138.183 203.906 138.183 200.851V200.053C138.183 199.506 137.742 199.065 137.195 199.065H93.24Z" fill="#535461"/>
<path d="M45.9912 154.312V194.818H112.982" stroke="#535461" stroke-width="0.162804" stroke-miterlimit="10"/>
<path opacity="0.5" d="M58.8367 182.57H51.9199V193.24H58.8367V182.57Z" fill="#FFA500"/>
<path opacity="0.7" d="M70.6922 173.082H63.7754V193.235H70.6922V173.082Z" fill="#FFA500"/>
<path opacity="0.5" d="M82.552 178.814H75.6353V193.236H82.552V178.814Z" fill="#FFA500"/>
<path opacity="0.8" d="M94.409 169.922H87.4922V193.236H94.409V169.922Z" fill="#FFA500"/>
<path d="M106.264 161.622H99.3477V193.235H106.264V161.622Z" fill="#FFA500"/>
<path d="M55.2798 176.048L67.3353 165.182L79.1915 175.454L90.8484 163.006L102.709 158.067" stroke="#535461" stroke-width="0.162804" stroke-miterlimit="10"/>
<path d="M55.2803 177.431C56.0443 177.431 56.6637 176.812 56.6637 176.048C56.6637 175.284 56.0443 174.665 55.2803 174.665C54.5163 174.665 53.897 175.284 53.897 176.048C53.897 176.812 54.5163 177.431 55.2803 177.431Z" fill="#FFA500"/>
<path d="M78.9922 176.638C79.7562 176.638 80.3756 176.019 80.3756 175.255C80.3756 174.491 79.7562 173.872 78.9922 173.872C78.2282 173.872 77.6089 174.491 77.6089 175.255C77.6089 176.019 78.2282 176.638 78.9922 176.638Z" fill="#FFA500"/>
<path d="M92.416 163.229C92.5384 162.475 92.0263 161.765 91.2721 161.642C90.518 161.52 89.8074 162.032 89.685 162.786C89.5626 163.54 90.0747 164.251 90.8289 164.373C91.5831 164.495 92.2936 163.983 92.416 163.229Z" fill="#FFA500"/>
<path d="M67.335 166.366C68.099 166.366 68.7184 165.747 68.7184 164.983C68.7184 164.219 68.099 163.6 67.335 163.6C66.571 163.6 65.9517 164.219 65.9517 164.983C65.9517 165.747 66.571 166.366 67.335 166.366Z" fill="#FFA500"/>
<path d="M102.709 159.449C103.473 159.449 104.092 158.83 104.092 158.066C104.092 157.302 103.473 156.683 102.709 156.683C101.945 156.683 101.326 157.302 101.326 158.066C101.326 158.83 101.945 159.449 102.709 159.449Z" fill="#FFA500"/>
<path d="M14.6978 157.422C14.6978 157.422 10.0358 167.061 13.0995 178.47C16.1593 189.879 15.1863 203.527 12.1343 206.903" stroke="#535461" stroke-width="0.162804" stroke-miterlimit="10"/>
<path d="M14.6978 158.711C15.4078 158.711 15.9834 158.136 15.9834 157.426C15.9834 156.716 15.4078 156.14 14.6978 156.14C13.9877 156.14 13.4121 156.716 13.4121 157.426C13.4121 158.136 13.9877 158.711 14.6978 158.711Z" fill="#FFA500"/>
<path d="M12.7598 163.623C12.7598 163.623 17.5898 164.495 18.8754 162.736" stroke="#535461" stroke-width="0.162804" stroke-miterlimit="10"/>
<path d="M12.3029 166.42C12.3029 166.42 9.39548 163.204 9.5557 161.278" stroke="#535461" stroke-width="0.162804" stroke-miterlimit="10"/>
<path d="M12.0562 172.313C12.0562 172.313 14.6978 173.008 17.1128 167.87" stroke="#535461" stroke-width="0.162804" stroke-miterlimit="10"/>
<path d="M12.7594 176.594C12.7594 176.594 6.18258 172.363 6.98368 169.632" stroke="#535461" stroke-width="0.162804" stroke-miterlimit="10"/>
<path d="M13.7871 181.436C13.7871 181.436 18.3944 177.349 17.9137 173.329" stroke="#535461" stroke-width="0.162804" stroke-miterlimit="10"/>
<path d="M14.2875 184.284C14.2875 184.284 8.42195 182.647 8.60171 180.076" stroke="#535461" stroke-width="0.162804" stroke-miterlimit="10"/>
<path d="M14.6978 187.676C14.6978 187.676 18.3945 184.253 18.8752 182.167" stroke="#535461" stroke-width="0.162804" stroke-miterlimit="10"/>
<path d="M14.9557 193.498C14.9557 193.498 11.1651 189.071 11.001 186.824" stroke="#535461" stroke-width="0.162804" stroke-miterlimit="10"/>
<path d="M14.9556 197.159C14.9556 197.159 19.1994 192.447 19.5199 190.196" stroke="#535461" stroke-width="0.162804" stroke-miterlimit="10"/>
<path d="M18.8755 164.01C19.5856 164.01 20.1612 163.434 20.1612 162.724C20.1612 162.014 19.5856 161.439 18.8755 161.439C18.1655 161.439 17.5898 162.014 17.5898 162.724C17.5898 163.434 18.1655 164.01 18.8755 164.01Z" fill="#FFA500"/>
<path d="M18.8755 183.772C19.5856 183.772 20.1612 183.197 20.1612 182.487C20.1612 181.777 19.5856 181.201 18.8755 181.201C18.1655 181.201 17.5898 181.777 17.5898 182.487C17.5898 183.197 18.1655 183.772 18.8755 183.772Z" fill="#FFA500"/>
<path d="M16.7881 169.152C17.4982 169.152 18.0738 168.577 18.0738 167.867C18.0738 167.157 17.4982 166.582 16.7881 166.582C16.0781 166.582 15.5024 167.157 15.5024 167.867C15.5024 168.577 16.0781 169.152 16.7881 169.152Z" fill="#FFA500"/>
<path d="M19.3555 192.286C20.0655 192.286 20.6411 191.711 20.6411 191.001C20.6411 190.291 20.0655 189.715 19.3555 189.715C18.6454 189.715 18.0698 190.291 18.0698 191.001C18.0698 191.711 18.6454 192.286 19.3555 192.286Z" fill="#FFA500"/>
<path d="M10.6807 188.91C11.3907 188.91 11.9663 188.334 11.9663 187.624C11.9663 186.914 11.3907 186.339 10.6807 186.339C9.97063 186.339 9.39502 186.914 9.39502 187.624C9.39502 188.334 9.97063 188.91 10.6807 188.91Z" fill="#FFA500"/>
<path d="M18.0733 174.614C18.7833 174.614 19.3589 174.038 19.3589 173.328C19.3589 172.618 18.7833 172.043 18.0733 172.043C17.3632 172.043 16.7876 172.618 16.7876 173.328C16.7876 174.038 17.3632 174.614 18.0733 174.614Z" fill="#FFA500"/>
</g>
<g filter="url(#filter4_d)">
<path d="M218.73 117.834H211.872V115.753C214.04 114.246 215.958 114.377 218.484 115.876L218.73 117.834Z" fill="#FFA500"/>
<path d="M210.287 154.811H208.783L208.558 149.021H210.287V154.811Z" fill="#FFB8B8"/>
<path d="M210.669 156.269H205.827V156.207C205.827 155.168 206.669 154.322 207.712 154.322H210.669V156.269Z" fill="#2F2E41"/>
<path d="M218.743 154.811H220.246L220.468 149.021H218.743V154.811Z" fill="#FFB8B8"/>
<path d="M218.361 154.322H221.318C222.357 154.322 223.203 155.164 223.203 156.207V156.269H218.361V154.322Z" fill="#2F2E41"/>
<path d="M218.784 154.067C218.525 154.067 218.303 153.886 218.246 153.636L214.525 137.404C214.509 137.318 214.431 137.256 214.344 137.261C214.258 137.261 214.18 137.322 214.164 137.404L210.747 153.525C210.693 153.78 210.468 153.96 210.209 153.96H208.583C208.279 153.96 208.032 153.714 208.032 153.41C208.032 153.398 208.032 153.389 208.032 153.377L209.244 132.945L209.732 132.801H209.741L219.326 132.883L221.367 153.295C221.396 153.599 221.174 153.866 220.874 153.899C220.87 153.899 220.866 153.899 220.866 153.899L218.833 154.063C218.812 154.067 218.796 154.067 218.784 154.067Z" fill="#2F2E41"/>
<path d="M214.825 114.102C216.486 114.102 217.832 112.756 217.832 111.096C217.832 109.436 216.486 108.09 214.825 108.09C213.165 108.09 211.819 109.436 211.819 111.096C211.819 112.756 213.165 114.102 214.825 114.102Z" fill="#FFB8B8"/>
<path d="M212.981 135.191C212.455 135.199 211.929 135.125 211.42 134.973C210.513 134.698 209.757 134.062 209.334 133.212C209.268 133.085 209.252 132.937 209.293 132.801C209.626 131.668 211.227 125.784 210.205 121.107C209.913 119.793 210.168 118.417 210.911 117.296C211.638 116.184 212.784 115.412 214.085 115.161C214.254 115.128 214.426 115.1 214.591 115.079C216.036 114.903 217.486 115.379 218.541 116.381C219.63 117.403 220.205 118.853 220.11 120.343L219.326 132.957C219.313 133.15 219.202 133.323 219.03 133.409C218.131 133.881 215.408 135.191 212.981 135.191Z" fill="#3F3D56"/>
<path d="M218.222 108.883C217.577 107.265 215.889 106.316 214.172 106.608L215.121 107.376C213.942 107.417 212.702 107.331 211.86 108.156C212.127 108.148 212.48 108.723 212.747 108.714C212.246 108.723 211.79 109.076 211.573 109.528C211.367 109.987 211.318 110.505 211.437 110.998C211.536 111.49 212.291 112.64 212.493 113.096C212.456 111.901 214.813 109.047 215.963 109.343C215.38 109.56 214.871 109.946 214.505 110.447C215.289 110.053 216.172 109.909 217.039 110.033C217.236 110.078 217.441 110.09 217.643 110.065C218.041 109.987 218.304 109.597 218.222 109.199C218.201 109.084 218.152 108.977 218.078 108.887L218.222 108.883Z" fill="#2F2E41"/>
<path d="M212.776 134.436C212.698 134.436 212.624 134.419 212.554 134.39L206.846 131.898C206.595 131.791 206.46 131.516 206.534 131.253L210.312 116.984C210.604 115.88 211.733 115.223 212.838 115.514C212.85 115.519 212.862 115.523 212.879 115.527L214.39 115.958L213.326 133.918C213.314 134.099 213.215 134.263 213.064 134.353C212.973 134.407 212.875 134.436 212.776 134.436Z" fill="#FFA500"/>
<path d="M223.338 131.249L223.088 130.301L222.722 128.925L222.546 128.264L222.18 126.893L219.556 116.976C219.264 115.876 218.135 115.215 217.034 115.506C217.018 115.51 217.006 115.515 216.989 115.519L215.478 115.95L216.225 128.584L216.303 129.903L216.353 130.732L216.431 132.042L216.542 133.906C216.562 134.198 216.8 134.423 217.092 134.423C217.166 134.423 217.244 134.407 217.314 134.378L223.022 131.886C223.277 131.791 223.408 131.512 223.338 131.249Z" fill="#FFA500"/>
<path d="M222.545 128.269L216.307 129.907L216.233 128.589L222.184 126.893L222.545 128.269Z" fill="#CCCCCC"/>
<path d="M223.087 130.305L216.434 132.05L216.356 130.74V130.736L222.722 128.93L223.087 130.305Z" fill="#CCCCCC"/>
<path d="M213.56 128.871L213.482 130.164L207.367 128.341L207.724 126.986L213.56 128.871Z" fill="#CCCCCC"/>
<path d="M213.433 131.02L207.191 129.003L206.833 130.363L213.359 132.305L213.433 131.02Z" fill="#CCCCCC"/>
<path d="M207.302 132.37C208.004 132.186 208.427 131.467 208.242 130.765C208.222 130.691 208.197 130.617 208.164 130.547L211.101 121.337L209.018 120.902L206.324 129.931C205.684 130.28 205.446 131.085 205.795 131.726C206.086 132.264 206.71 132.53 207.302 132.37Z" fill="#FFB8B8"/>
<path d="M211.178 116.808C211.778 116.87 212.111 117.539 211.963 118.377L211.248 122.392C211.195 122.692 210.948 122.93 210.743 122.881L208.332 122.277C208.148 122.232 208.078 121.969 208.185 121.703L209.634 118.073C209.946 117.28 210.599 116.746 211.178 116.808Z" fill="#3F3D56"/>
<path d="M214.812 105.467C216.927 105.467 218.665 107.146 218.73 109.261H219.469C219.605 109.261 219.716 109.372 219.716 109.507V110.489C219.716 110.624 219.605 110.735 219.469 110.735H211.141C211.005 110.735 210.895 110.624 210.895 110.489V109.388C210.895 107.22 212.648 105.467 214.812 105.467Z" fill="#FFA500"/>
<path d="M215.281 129.689H213.552C213.437 129.689 213.339 129.602 213.33 129.487L212.985 125.936H215.856L215.511 129.487C215.495 129.602 215.396 129.689 215.281 129.689Z" fill="#E6E6E6"/>
<path d="M215.843 126.383H212.985C212.862 126.383 212.763 126.285 212.763 126.161V125.624C212.763 125.5 212.862 125.402 212.985 125.402H215.843C215.966 125.402 216.065 125.5 216.065 125.624V126.161C216.069 126.285 215.971 126.383 215.843 126.383Z" fill="#CCCCCC"/>
<path d="M214.451 127.784C214.517 127.792 214.587 127.805 214.652 127.825L219.264 123.871L218.993 122.421L221.129 121.728L221.856 124.249C221.975 124.668 221.806 125.115 221.437 125.349L215.597 129.045C215.609 129.755 215.042 130.338 214.332 130.35C213.622 130.363 213.038 129.796 213.026 129.086C213.014 128.375 213.58 127.792 214.291 127.78C214.348 127.776 214.398 127.78 214.451 127.784Z" fill="#FFB8B8"/>
<path d="M219.272 117.141C219.909 116.96 220.55 117.449 220.763 118.274L221.79 122.245C221.868 122.541 221.716 122.861 221.486 122.894L218.755 123.288C218.545 123.317 218.361 123.103 218.352 122.82L218.246 118.911C218.221 118.061 218.656 117.313 219.272 117.141Z" fill="#3F3D56"/>
<path d="M255.995 142.504C254.739 140.833 253.745 138.977 253.047 137.002C252.964 136.76 253.067 136.489 253.297 136.37L257.601 134.062C257.741 133.984 257.909 133.98 258.057 134.042C258.205 134.107 258.316 134.239 258.357 134.395C258.858 136.296 259.798 138.053 261.104 139.523C261.215 139.646 261.26 139.811 261.231 139.971C261.203 140.127 261.104 140.266 260.964 140.34L256.661 142.648C256.435 142.771 256.151 142.71 255.995 142.504Z" fill="#CCCCCC"/>
<path d="M256.291 142.286C256.34 142.347 256.422 142.364 256.488 142.327L260.792 140.019C260.833 139.999 260.866 139.958 260.87 139.908C260.878 139.859 260.866 139.806 260.829 139.769C259.486 138.253 258.513 136.447 257.999 134.488C257.987 134.439 257.954 134.398 257.905 134.377C257.86 134.357 257.81 134.361 257.769 134.381L253.465 136.689C253.4 136.726 253.367 136.804 253.391 136.878C254.077 138.82 255.055 140.643 256.291 142.286Z" fill="white"/>
<path d="M257.884 137.354L255.54 138.389C255.355 138.471 255.137 138.385 255.055 138.2L254.997 138.069C254.915 137.884 255.002 137.667 255.186 137.584L257.531 136.55C257.716 136.468 257.934 136.554 258.016 136.739L258.073 136.87C258.151 137.055 258.069 137.272 257.884 137.354Z" fill="#CCCCCC"/>
<path d="M258.738 138.949L256.393 139.983C256.208 140.066 255.991 139.979 255.908 139.795L255.851 139.663C255.769 139.478 255.855 139.261 256.04 139.179L258.385 138.144C258.57 138.062 258.787 138.148 258.869 138.333L258.927 138.464C259.009 138.649 258.927 138.867 258.738 138.949Z" fill="#CCCCCC"/>
<path d="M253.244 137.622C252.632 137.228 252.455 136.415 252.849 135.803C252.89 135.737 252.94 135.676 252.993 135.618L252.003 121.592L254.849 121.867L254.927 135.606C255.428 136.136 255.404 136.973 254.874 137.474C254.426 137.893 253.753 137.955 253.244 137.622Z" fill="#A0616A"/>
<path d="M252.645 126.306C252.509 126.207 252.427 126.055 252.419 125.891L252.209 122.109C252.164 121.272 252.805 120.557 253.643 120.508C254.357 120.467 255.006 120.935 255.191 121.625L256.107 125.004C256.185 125.3 256.012 125.599 255.721 125.682L253.113 126.388C252.953 126.433 252.78 126.404 252.645 126.306Z" fill="#3F3D56"/>
<path d="M247.791 154.868H246.292L245.577 149.074H247.791V154.868Z" fill="#A0616A"/>
<path d="M245.219 154.437H248.114V156.26H243.396C243.396 155.254 244.209 154.437 245.219 154.437Z" fill="#2F2E41"/>
<path d="M253.424 154.868H251.926L251.211 149.074H253.424V154.868Z" fill="#A0616A"/>
<path d="M250.849 154.437H253.745V156.26H249.026C249.03 155.254 249.843 154.437 250.849 154.437Z" fill="#2F2E41"/>
<path d="M247.721 151.948L246.07 151.87C245.778 151.858 245.548 151.615 245.544 151.324C245.109 144.598 244.505 137.388 245.429 134.604C245.425 134.3 245.671 134.049 245.975 134.049C246.004 134.049 246.029 134.049 246.057 134.053L252.669 135.014C252.94 135.051 253.142 135.281 253.142 135.556C253.988 138.854 254.024 144.836 253.992 151.053C253.996 151.357 253.749 151.607 253.445 151.607H253.441H251.659C251.388 151.607 251.154 151.41 251.113 151.143L250.012 144.155C249.975 143.92 249.758 143.76 249.523 143.797C249.335 143.826 249.187 143.978 249.166 144.171L248.291 151.468C248.259 151.743 248.025 151.952 247.745 151.952C247.737 151.948 247.729 151.948 247.721 151.948Z" fill="#2F2E41"/>
<path d="M248.882 135.552C247.424 134.743 246.287 134.53 245.737 134.476C245.589 134.464 245.453 134.39 245.363 134.271C245.268 134.152 245.227 134.004 245.248 133.856L246.833 122.096C247.018 120.696 247.917 119.493 249.203 118.918C250.451 118.343 251.905 118.458 253.047 119.218C253.1 119.255 253.153 119.292 253.207 119.329C254.529 120.298 255.141 121.969 254.755 123.562C253.782 127.537 253.449 134.054 253.392 135.318C253.383 135.54 253.24 135.733 253.034 135.807C252.435 136.024 251.806 136.135 251.17 136.139C250.373 136.144 249.585 135.942 248.882 135.552Z" fill="#3F3D56"/>
<path d="M250.209 117.317C251.87 117.317 253.215 115.971 253.215 114.311C253.215 112.651 251.87 111.306 250.209 111.306C248.549 111.306 247.203 112.651 247.203 114.311C247.203 115.971 248.549 117.317 250.209 117.317Z" fill="#A0616A"/>
<path d="M252.34 116.689C251.777 117.289 250.738 116.965 250.664 116.152C250.66 116.09 250.66 116.024 250.664 115.963C250.701 115.601 250.911 115.273 250.861 114.891C250.849 114.796 250.816 114.706 250.759 114.628C250.311 114.029 249.264 114.895 248.841 114.353C248.582 114.02 248.886 113.499 248.689 113.125C248.426 112.637 247.65 112.879 247.165 112.608C246.623 112.308 246.656 111.479 247.013 110.974C247.449 110.358 248.212 110.029 248.964 109.98C249.716 109.931 250.463 110.136 251.169 110.411C251.966 110.723 252.759 111.154 253.251 111.856C253.851 112.711 253.909 113.86 253.609 114.858C253.416 115.462 252.796 116.205 252.34 116.689Z" fill="#2F2E41"/>
<path d="M254.722 119.617C254.669 119.371 254.217 119.03 253.572 118.755C251.465 117.901 249.075 118.106 247.141 119.305C247.005 119.313 246.89 119.412 246.862 119.543L244.685 129.164L244.402 130.416L244.213 131.246L243.93 132.494L243.778 133.163C243.741 133.327 243.843 133.492 244.008 133.529C244.02 133.533 244.032 133.533 244.049 133.537L253.441 134.346C253.449 134.346 253.457 134.346 253.469 134.346C253.63 134.346 253.761 134.218 253.773 134.058L253.864 132.699L253.958 131.246L253.999 130.613L254.094 129.164L254.718 119.633V119.625L254.722 119.617Z" fill="#FFA500"/>
<path d="M239.31 120.221C239.326 120.287 239.335 120.353 239.339 120.422L244.599 123.457L245.877 122.722L247.24 124.508L244.505 126.458L238.505 121.72C237.84 121.966 237.1 121.625 236.854 120.96C236.608 120.295 236.949 119.556 237.614 119.31C238.279 119.063 239.018 119.404 239.265 120.069C239.281 120.119 239.298 120.168 239.31 120.221Z" fill="#A0616A"/>
<path d="M244.788 123.197C244.771 123.032 244.829 122.868 244.948 122.749L247.626 120.072C248.217 119.481 249.182 119.481 249.774 120.072C250.279 120.577 250.365 121.369 249.975 121.973L248.069 124.909C247.905 125.164 247.564 125.237 247.305 125.073L245.038 123.603C244.895 123.513 244.804 123.361 244.788 123.197Z" fill="#3F3D56"/>
<path d="M254.094 129.164L254.003 130.613L244.402 130.416L244.685 129.164H254.094Z" fill="#CCCCCC"/>
<path d="M253.958 131.246L253.864 132.699L243.93 132.494L244.213 131.246H253.958Z" fill="#CCCCCC"/>
<path d="M250.271 108.469C248.156 108.469 246.419 110.149 246.353 112.263H245.614C245.478 112.263 245.367 112.374 245.367 112.51V113.491C245.367 113.627 245.478 113.737 245.614 113.737H253.942C254.078 113.737 254.188 113.627 254.188 113.491V112.391C254.188 110.223 252.435 108.469 250.271 108.469Z" fill="#FFA500"/>
<path d="M266.78 156.469H179.577C179.511 156.469 179.454 156.415 179.454 156.345C179.454 156.28 179.507 156.222 179.577 156.222H266.776C266.841 156.222 266.899 156.276 266.899 156.345C266.899 156.415 266.845 156.469 266.78 156.469Z" fill="#CCCCCC"/>
</g>
<g clip-path="url(#clip0)" filter="url(#filter5_d)">
<path d="M306.92 169.716C307.084 169.716 307.248 169.716 307.412 169.716C315.201 169.982 321.288 176.521 321.021 184.31C320.755 191.894 314.524 197.92 306.92 197.92C306.756 197.92 306.592 197.92 306.428 197.92C298.64 197.654 292.553 191.115 292.819 183.326C293.106 175.742 299.337 169.736 306.92 169.716ZM306.941 166.231V169.716V166.231C297.226 166.231 289.355 174.123 289.355 183.839C289.355 193.308 296.877 201.077 306.346 201.405C306.551 201.405 306.756 201.425 306.961 201.425C316.676 201.425 324.547 193.534 324.547 183.818C324.547 174.348 317.025 166.58 307.556 166.252C307.351 166.252 307.125 166.231 306.941 166.231Z" fill="#CCCCCC"/>
<path d="M305.095 162.038L304.944 166.381L309.061 166.524L309.212 162.181L305.095 162.038Z" fill="#CCCCCC"/>
<path d="M316.497 164.204L314.131 167.849L317.587 170.092L319.953 166.447L316.497 164.204Z" fill="#CCCCCC"/>
<path d="M325.035 171.617L321.164 173.591L323.035 177.261L326.906 175.288L325.035 171.617Z" fill="#CCCCCC"/>
<path d="M322.795 191.302L320.492 194.718L324.095 197.147L326.398 193.731L322.795 191.302Z" fill="#CCCCCC"/>
<path d="M289.738 170.396L287.617 173.928L291.342 176.165L293.463 172.633L289.738 170.396Z" fill="#CCCCCC"/>
<path d="M290.601 190.203L286.839 192.377L288.9 195.944L292.662 193.771L290.601 190.203Z" fill="#CCCCCC"/>
<path d="M298.766 163.595L295.164 165.593L297.271 169.393L300.874 167.395L298.766 163.595Z" fill="#CCCCCC"/>
<path d="M303.735 201.106L303.584 205.449L307.702 205.592L307.852 201.249L303.735 201.106Z" fill="#CCCCCC"/>
<path d="M316.613 198.278L313.011 200.276L315.118 204.076L318.721 202.078L316.613 198.278Z" fill="#CCCCCC"/>
<path d="M296.284 197.567L293.918 201.212L297.374 203.456L299.739 199.811L296.284 197.567Z" fill="#CCCCCC"/>
<path d="M284.871 181.328L284.743 185.016L289.741 185.189L289.869 181.502L284.871 181.328Z" fill="#CCCCCC"/>
<path d="M324.146 182.686L324.018 186.373L329.016 186.547L329.144 182.859L324.146 182.686Z" fill="#CCCCCC"/>
</g>
<g clip-path="url(#clip1)" filter="url(#filter6_d)">
<path d="M344.379 173.513C344.44 173.513 344.5 173.513 344.561 173.513C347.437 173.611 349.685 176.027 349.586 178.905C349.488 181.708 347.187 183.934 344.379 183.934C344.319 183.934 344.258 183.934 344.198 183.934C341.322 183.836 339.074 181.42 339.172 178.542C339.278 175.739 341.579 173.52 344.379 173.513ZM344.387 172.225V173.513V172.225C340.799 172.225 337.893 175.141 337.893 178.731C337.893 182.23 340.671 185.101 344.167 185.222C344.243 185.222 344.319 185.229 344.394 185.229C347.982 185.229 350.888 182.313 350.888 178.723C350.888 175.224 348.111 172.354 344.614 172.233C344.538 172.233 344.455 172.225 344.387 172.225Z" fill="#CCCCCC"/>
<path d="M343.705 170.675L343.649 172.28L345.17 172.333L345.225 170.728L343.705 170.675Z" fill="#CCCCCC"/>
<path d="M347.916 171.475L347.042 172.822L348.318 173.651L349.192 172.304L347.916 171.475Z" fill="#CCCCCC"/>
<path d="M351.068 174.215L349.639 174.944L350.33 176.3L351.759 175.571L351.068 174.215Z" fill="#CCCCCC"/>
<path d="M350.242 181.488L349.391 182.75L350.722 183.648L351.572 182.386L350.242 181.488Z" fill="#CCCCCC"/>
<path d="M338.034 173.763L337.251 175.068L338.627 175.895L339.41 174.59L338.034 173.763Z" fill="#CCCCCC"/>
<path d="M338.353 181.083L336.963 181.886L337.724 183.204L339.114 182.401L338.353 181.083Z" fill="#CCCCCC"/>
<path d="M341.368 171.25L340.038 171.988L340.816 173.392L342.146 172.654L341.368 171.25Z" fill="#CCCCCC"/>
<path d="M343.203 185.11L343.147 186.714L344.668 186.767L344.723 185.162L343.203 185.11Z" fill="#CCCCCC"/>
<path d="M347.958 184.065L346.628 184.804L347.406 186.208L348.736 185.47L347.958 184.065Z" fill="#CCCCCC"/>
<path d="M340.451 183.804L339.578 185.15L340.854 185.979L341.727 184.632L340.451 183.804Z" fill="#CCCCCC"/>
<path d="M336.237 177.803L336.189 179.166L338.035 179.23L338.082 177.867L336.237 177.803Z" fill="#CCCCCC"/>
<path d="M350.74 178.305L350.693 179.667L352.538 179.731L352.586 178.369L350.74 178.305Z" fill="#CCCCCC"/>
</g>
<g clip-path="url(#clip2)" filter="url(#filter7_d)">
<path d="M330.789 143.667C330.87 143.667 330.95 143.667 331.03 143.667C334.851 143.798 337.837 147.004 337.707 150.824C337.576 154.543 334.519 157.498 330.789 157.498C330.709 157.498 330.628 157.498 330.548 157.498C326.727 157.367 323.741 154.161 323.872 150.341C324.012 146.622 327.069 143.677 330.789 143.667ZM330.799 141.958V143.667V141.958C326.033 141.958 322.172 145.828 322.172 150.593C322.172 155.237 325.862 159.046 330.508 159.207C330.608 159.207 330.709 159.217 330.809 159.217C335.575 159.217 339.436 155.347 339.436 150.583C339.436 145.939 335.746 142.129 331.101 141.969C331 141.969 330.89 141.958 330.799 141.958Z" fill="#CCCCCC"/>
<path d="M329.894 139.903L329.82 142.032L331.84 142.102L331.914 139.973L329.894 139.903Z" fill="#CCCCCC"/>
<path d="M335.487 140.965L334.327 142.752L336.022 143.852L337.182 142.065L335.487 140.965Z" fill="#CCCCCC"/>
<path d="M339.675 144.6L337.776 145.567L338.694 147.367L340.593 146.399L339.675 144.6Z" fill="#CCCCCC"/>
<path d="M338.577 154.253L337.447 155.928L339.215 157.119L340.344 155.444L338.577 154.253Z" fill="#CCCCCC"/>
<path d="M322.36 144.001L321.319 145.733L323.147 146.83L324.187 145.098L322.36 144.001Z" fill="#CCCCCC"/>
<path d="M322.784 153.714L320.938 154.78L321.949 156.529L323.795 155.463L322.784 153.714Z" fill="#CCCCCC"/>
<path d="M326.789 140.667L325.021 141.646L326.055 143.51L327.823 142.53L326.789 140.667Z" fill="#CCCCCC"/>
<path d="M329.227 159.062L329.153 161.191L331.173 161.262L331.247 159.132L329.227 159.062Z" fill="#CCCCCC"/>
<path d="M335.544 157.674L333.777 158.654L334.811 160.518L336.578 159.538L335.544 157.674Z" fill="#CCCCCC"/>
<path d="M325.572 157.325L324.411 159.113L326.106 160.213L327.267 158.425L325.572 157.325Z" fill="#CCCCCC"/>
<path d="M319.972 149.362L319.91 151.17L322.361 151.255L322.424 149.447L319.972 149.362Z" fill="#CCCCCC"/>
<path d="M339.24 150.028L339.177 151.836L341.629 151.921L341.691 150.113L339.24 150.028Z" fill="#CCCCCC"/>
</g>
<g clip-path="url(#clip3)">
<path opacity="0.1" d="M317.264 59.5885C312.723 61.6536 306.873 61.5072 306.873 61.5072H300.538V60.2982C303.116 59.5773 306.685 59.1304 310.629 59.1304C312.847 59.1267 315.065 59.2769 317.264 59.5885Z" fill="black"/>
<path opacity="0.1" d="M324.874 63.0906C324.874 65.2795 318.495 67.048 310.629 67.048C302.763 67.048 296.384 65.2795 296.384 63.0906C296.384 62.0017 297.971 61.0104 300.538 60.297V61.5061H306.869C306.869 61.5061 312.719 61.6525 317.26 59.5874C321.786 60.2482 324.874 61.5699 324.874 63.0906Z" fill="black"/>
<path d="M312.449 38.4419H306.388V44.517H312.449V38.4419Z" fill="#2F2E41"/>
<path d="M308.64 42.738C308.64 42.738 309.143 44.4952 308.265 44.6191C307.72 44.7055 307.203 44.9195 306.76 45.2462L308.388 47.3788H311.398L313.278 45.4977C313.278 45.4977 310.771 43.6166 311.271 42.4864C311.77 41.3563 308.64 42.738 308.64 42.738Z" fill="#FFB9B9"/>
<path opacity="0.1" d="M308.64 42.738C308.64 42.738 309.143 44.4952 308.265 44.6191C307.72 44.7055 307.203 44.9195 306.76 45.2462L308.388 47.3788H311.398L313.278 45.4977C313.278 45.4977 310.771 43.6166 311.271 42.4864C311.77 41.3563 308.64 42.738 308.64 42.738Z" fill="black"/>
<path d="M309.394 64.575L312.276 65.5776L314.284 65.7015L314.16 63.948L310.021 62.7202L309.394 64.575Z" fill="#FFB9B9"/>
<path d="M313.095 64.1948C313.095 64.1948 313.095 65.952 313.346 65.952C313.598 65.952 316.983 65.5765 317.988 65.952C318.994 66.3274 320.495 64.9495 319.745 64.1948C318.99 63.4401 317.763 62.3136 316.998 62.5652C316.232 62.8168 313.095 63.4438 313.095 63.4438V64.1948Z" fill="#2F2E41"/>
<path d="M303.875 62.5654C303.875 62.5654 302.37 65.5767 303.372 65.8283C304.374 66.0798 305.504 65.7044 305.631 65.5767C305.755 65.4528 307.511 64.9497 307.763 65.2012C308.014 65.4528 308.014 64.1987 308.014 64.1987L303.875 62.5654Z" fill="#2F2E41"/>
<path d="M305.128 58.4253C305.128 58.4253 302.745 61.6881 304.501 62.5667C306.257 63.4454 314.66 63.4454 315.286 62.5667C315.913 61.6881 316.165 58.9284 315.286 58.6769C314.412 58.4253 305.128 58.4253 305.128 58.4253Z" fill="#2F2E41"/>
<path opacity="0.2" d="M305.128 58.4253C305.128 58.4253 302.745 61.6881 304.501 62.5667C306.257 63.4454 314.66 63.4454 315.286 62.5667C315.913 61.6881 316.165 58.9284 315.286 58.6769C314.412 58.4253 305.128 58.4253 305.128 58.4253Z" fill="black"/>
<path d="M309.646 43.6195C311.239 43.6195 312.531 42.3268 312.531 40.7321C312.531 39.1374 311.239 37.8447 309.646 37.8447C308.052 37.8447 306.76 39.1374 306.76 40.7321C306.76 42.3268 308.052 43.6195 309.646 43.6195Z" fill="#FFB9B9"/>
<path d="M305.127 45.2497L307.634 44.7466C307.634 44.7466 308.261 46.7554 310.269 46.3761C312.276 45.9969 312.775 44.7466 312.775 44.7466C312.775 44.7466 314.28 45.3736 314.404 45.3736C314.528 45.3736 316.16 46.0007 316.16 46.3761C316.16 46.7516 314.284 50.5176 314.284 50.5176L314.536 57.2948L305.255 57.0433L305.882 50.3937L305.127 45.2497Z" fill="#FFA500"/>
<path d="M303.75 48.5122C303.75 48.5122 302.996 55.1618 303.499 55.6649C304.002 56.1681 306.006 57.5461 306.006 57.5461V56.0404L305.004 54.1593L306.006 49.7663L303.75 48.5122Z" fill="#FFB9B9"/>
<path d="M316.731 48.3247C316.731 48.3247 316.292 55.162 316.292 55.4136C316.292 55.6652 315.163 56.5438 314.787 56.5438C314.412 56.5438 314.161 55.9167 314.161 55.9167L315.039 54.9142L314.412 49.7703L316.731 48.3247Z" fill="#FFB9B9"/>
<path d="M315.537 57.9215C315.537 57.9215 321.181 54.7825 321.305 57.9215C321.429 61.0604 318.419 62.3145 318.419 62.3145C318.419 62.3145 310.644 64.6462 310.328 63.7938C310.013 62.9415 309.386 61.5598 309.889 61.4359C310.392 61.312 311.019 61.0604 311.27 61.312C311.522 61.5635 314.655 59.4309 314.655 59.4309L315.537 57.9215Z" fill="#2F2E41"/>
<path opacity="0.2" d="M318.172 57.5459C318.172 57.5459 317.043 58.049 316.667 58.4245C316.292 58.8 314.66 59.427 314.66 59.427" stroke="black" stroke-width="0.162804" stroke-miterlimit="10"/>
<path d="M305.882 45.5001L305.128 45.2485C305.128 45.2485 302.37 48.1359 303.248 48.8869C304.126 49.6416 304.629 49.8894 304.876 50.1409C305.128 50.3925 306.381 50.5164 306.381 50.5164L305.882 45.5001Z" fill="#FFA500"/>
<path d="M315.039 46.1279L316.169 46.3795C316.169 46.3795 317.047 48.2606 317.298 48.5122C317.55 48.7637 316.923 48.6361 316.544 49.1392C316.165 49.6423 315.79 50.5209 315.039 50.5209C314.285 50.5209 313.283 49.2669 313.283 49.2669L315.039 46.1279Z" fill="#FFA500"/>
<path d="M305.379 59.0508C305.379 59.0508 300.613 55.664 298.984 58.1721C297.355 60.6803 306.009 64.0708 307.263 64.5702C308.516 65.0696 309.646 65.5727 309.646 65.5727C309.646 65.5727 310.775 62.813 310.775 62.3098C310.775 61.8067 309.897 61.8067 309.646 61.8067C309.394 61.8067 308.265 61.5551 308.017 61.1797C307.762 60.808 305.379 59.0508 305.379 59.0508Z" fill="#2F2E41"/>
<path opacity="0.2" d="M302.745 58.1733C302.745 58.1733 303.998 59.1758 305.128 59.4274C306.257 59.679 306.632 60.306 306.632 60.306" stroke="black" stroke-width="0.162804" stroke-miterlimit="10"/>
<path d="M304.517 53.4571L304.618 58.77C304.625 59.1342 304.926 59.4271 305.29 59.4233L315.171 59.3107C315.52 59.3069 315.809 59.0329 315.827 58.6837L316.128 53.4834C316.15 53.1154 315.869 52.8038 315.501 52.7812C315.49 52.7812 315.475 52.7812 315.463 52.7812H305.181C304.813 52.7812 304.517 53.0779 304.517 53.4458C304.517 53.4458 304.517 53.4496 304.517 53.4571Z" fill="#575A89"/>
<path d="M303.372 45.2794C303.642 44.6862 304.002 44.1267 304.175 43.4997C304.381 42.745 304.302 41.949 304.276 41.1642C304.238 40.4734 304.295 39.7787 304.452 39.1066C304.61 38.427 304.963 37.8113 305.469 37.3344C306.783 36.1592 309.188 36.0766 310.794 36.5647C311.429 36.7562 312.1 37.1242 312.258 37.7662C312.281 37.8638 312.292 37.9615 312.318 38.0591C312.449 38.5359 312.937 38.8401 313.114 39.3056C313.343 39.9064 312.99 40.5597 312.945 41.198C312.892 41.9452 313.26 42.6511 313.62 43.3082C313.834 43.6987 314.059 44.1154 314.037 44.5585C314.018 44.8025 313.947 45.0391 313.819 45.2494C313.35 46.0228 312.517 46.5034 311.613 46.5147C311.324 46.5372 311.035 46.4696 310.787 46.3195C310.397 46.0491 310.28 45.5047 310.363 45.0391C310.445 44.5735 310.682 44.1455 310.87 43.7099C310.926 43.5748 310.978 43.4396 311.027 43.3007C312.382 42.546 312.866 40.8338 312.108 39.4784C311.354 38.1229 309.642 37.6385 308.288 38.397C306.933 39.1517 306.449 40.8639 307.207 42.2193C307.62 42.959 308.34 43.4696 309.173 43.6161C309.312 44.3257 309.248 45.0579 308.989 45.73C308.753 46.2782 308.453 46.7963 308.1 47.2769C307.957 47.5247 307.762 47.7387 307.533 47.9115C307.383 48.0016 307.222 48.0692 307.053 48.118C306.344 48.347 305.597 48.531 304.861 48.4259C304.126 48.3245 303.394 47.8777 303.143 47.1793C302.925 46.5598 303.101 45.8726 303.372 45.2794Z" fill="#2F2E41"/>
<path d="M309.503 40.8448C311.194 40.8448 312.565 40.0682 312.565 39.1102C312.565 38.1521 311.194 37.3755 309.503 37.3755C307.812 37.3755 306.441 38.1521 306.441 39.1102C306.441 40.0682 307.812 40.8448 309.503 40.8448Z" fill="#2F2E41"/>
</g>
<defs>
<filter id="filter0_d" x="43.979" y="0.629395" width="334.533" height="230.449" filterUnits="userSpaceOnUse" color-interpolation-filters="sRGB">
<feFlood flood-opacity="0" result="BackgroundImageFix"/>
<feColorMatrix in="SourceAlpha" type="matrix" values="0 0 0 0 0 0 0 0 0 0 0 0 0 0 0 0 0 0 127 0"/>
<feOffset dx="3.25607" dy="3.25607"/>
<feGaussianBlur stdDeviation="1.62804"/>
<feColorMatrix type="matrix" values="0 0 0 0 0 0 0 0 0 0 0 0 0 0 0 0 0 0 1 0"/>
<feBlend mode="normal" in2="BackgroundImageFix" result="effect1_dropShadow"/>
<feBlend mode="normal" in="SourceGraphic" in2="effect1_dropShadow" result="shape"/>
</filter>
<filter id="filter1_d" x="249.441" y="4.53027" width="95.9753" height="55.2379" filterUnits="userSpaceOnUse" color-interpolation-filters="sRGB">
<feFlood flood-opacity="0" result="BackgroundImageFix"/>
<feColorMatrix in="SourceAlpha" type="matrix" values="0 0 0 0 0 0 0 0 0 0 0 0 0 0 0 0 0 0 127 0"/>
<feOffset dx="2.44206" dy="0.325607"/>
<feGaussianBlur stdDeviation="0.162804"/>
<feColorMatrix type="matrix" values="0 0 0 0 0 0 0 0 0 0 0 0 0 0 0 0 0 0 0.25 0"/>
<feBlend mode="normal" in2="BackgroundImageFix" result="effect1_dropShadow"/>
<feBlend mode="normal" in="SourceGraphic" in2="effect1_dropShadow" result="shape"/>
</filter>
<filter id="filter2_d" x="119.043" y="59.9224" width="162.029" height="99.6348" filterUnits="userSpaceOnUse" color-interpolation-filters="sRGB">
<feFlood flood-opacity="0" result="BackgroundImageFix"/>
<feColorMatrix in="SourceAlpha" type="matrix" values="0 0 0 0 0 0 0 0 0 0 0 0 0 0 0 0 0 0 127 0"/>
<feOffset dx="1.22103" dy="0.325607"/>
<feGaussianBlur stdDeviation="0.162804"/>
<feColorMatrix type="matrix" values="0 0 0 0 0 0 0 0 0 0 0 0 0 0 0 0 0 0 0.25 0"/>
<feBlend mode="normal" in2="BackgroundImageFix" result="effect1_dropShadow"/>
<feBlend mode="normal" in="SourceGraphic" in2="effect1_dropShadow" result="shape"/>
</filter>
<filter id="filter3_d" x="0" y="142.118" width="170.293" height="68.4857" filterUnits="userSpaceOnUse" color-interpolation-filters="sRGB">
<feFlood flood-opacity="0" result="BackgroundImageFix"/>
<feColorMatrix in="SourceAlpha" type="matrix" values="0 0 0 0 0 0 0 0 0 0 0 0 0 0 0 0 0 0 127 0"/>
<feOffset dx="0.407009" dy="0.325607"/>
<feGaussianBlur stdDeviation="0.162804"/>
<feColorMatrix type="matrix" values="0 0 0 0 0 0 0 0 0 0 0 0 0 0 0 0 0 0 0.25 0"/>
<feBlend mode="normal" in2="BackgroundImageFix" result="effect1_dropShadow"/>
<feBlend mode="normal" in="SourceGraphic" in2="effect1_dropShadow" result="shape"/>
</filter>
<filter id="filter4_d" x="179.454" y="105.467" width="88.9918" height="51.6529" filterUnits="userSpaceOnUse" color-interpolation-filters="sRGB">
<feFlood flood-opacity="0" result="BackgroundImageFix"/>
<feColorMatrix in="SourceAlpha" type="matrix" values="0 0 0 0 0 0 0 0 0 0 0 0 0 0 0 0 0 0 127 0"/>
<feOffset dx="1.22103" dy="0.325607"/>
<feGaussianBlur stdDeviation="0.162804"/>
<feColorMatrix type="matrix" values="0 0 0 0 0 0 0 0 0 0 0 0 0 0 0 0 0 0 0.25 0"/>
<feBlend mode="normal" in2="BackgroundImageFix" result="effect1_dropShadow"/>
<feBlend mode="normal" in="SourceGraphic" in2="effect1_dropShadow" result="shape"/>
</filter>
<filter id="filter5_d" x="284.745" y="162.05" width="46.327" height="44.1873" filterUnits="userSpaceOnUse" color-interpolation-filters="sRGB">
<feFlood flood-opacity="0" result="BackgroundImageFix"/>
<feColorMatrix in="SourceAlpha" type="matrix" values="0 0 0 0 0 0 0 0 0 0 0 0 0 0 0 0 0 0 127 0"/>
<feOffset dx="1.62804" dy="0.325607"/>
<feGaussianBlur stdDeviation="0.162804"/>
<feColorMatrix type="matrix" values="0 0 0 0 0 0 0 0 0 0 0 0 0 0 0 0 0 0 0.25 0"/>
<feBlend mode="normal" in2="BackgroundImageFix" result="effect1_dropShadow"/>
<feBlend mode="normal" in="SourceGraphic" in2="effect1_dropShadow" result="shape"/>
</filter>
<filter id="filter6_d" x="336.19" y="170.678" width="18.3395" height="16.738" filterUnits="userSpaceOnUse" color-interpolation-filters="sRGB">
<feFlood flood-opacity="0" result="BackgroundImageFix"/>
<feColorMatrix in="SourceAlpha" type="matrix" values="0 0 0 0 0 0 0 0 0 0 0 0 0 0 0 0 0 0 127 0"/>
<feOffset dx="1.62804" dy="0.325607"/>
<feGaussianBlur stdDeviation="0.162804"/>
<feColorMatrix type="matrix" values="0 0 0 0 0 0 0 0 0 0 0 0 0 0 0 0 0 0 0.25 0"/>
<feBlend mode="normal" in2="BackgroundImageFix" result="effect1_dropShadow"/>
<feBlend mode="normal" in="SourceGraphic" in2="effect1_dropShadow" result="shape"/>
</filter>
<filter id="filter7_d" x="319.91" y="139.908" width="23.7217" height="22.0006" filterUnits="userSpaceOnUse" color-interpolation-filters="sRGB">
<feFlood flood-opacity="0" result="BackgroundImageFix"/>
<feColorMatrix in="SourceAlpha" type="matrix" values="0 0 0 0 0 0 0 0 0 0 0 0 0 0 0 0 0 0 127 0"/>
<feOffset dx="1.62804" dy="0.325607"/>
<feGaussianBlur stdDeviation="0.162804"/>
<feColorMatrix type="matrix" values="0 0 0 0 0 0 0 0 0 0 0 0 0 0 0 0 0 0 0.25 0"/>
<feBlend mode="normal" in2="BackgroundImageFix" result="effect1_dropShadow"/>
<feBlend mode="normal" in="SourceGraphic" in2="effect1_dropShadow" result="shape"/>
</filter>
<linearGradient id="paint0_linear" x1="79.2901" y1="207.12" x2="79.2901" y2="142.117" gradientUnits="userSpaceOnUse">
<stop stop-color="#808080" stop-opacity="0.25"/>
<stop offset="0.54" stop-color="#808080" stop-opacity="0.12"/>
<stop offset="1" stop-color="#808080" stop-opacity="0.1"/>
</linearGradient>
<clipPath id="clip0">
<rect width="44.3733" height="43.5361" fill="white" transform="translate(284.745 162.05)"/>
</clipPath>
<clipPath id="clip1">
<rect width="16.3858" height="16.0868" fill="white" transform="translate(336.19 170.678)"/>
</clipPath>
<clipPath id="clip2">
<rect width="21.768" height="21.3494" fill="white" transform="translate(319.91 139.908)"/>
</clipPath>
<clipPath id="clip3">
<rect width="28.4907" height="30.7699" fill="white" transform="translate(296.385 36.2832)"/>
</clipPath>
</defs>
</svg>
