<svg width="590" height="359" viewBox="0 0 590 359" fill="none" xmlns="http://www.w3.org/2000/svg">
<g opacity="0.1" filter="url(#filter0_d)">
<path d="M332.901 65.1978C300.705 71.1191 268.56 68.5796 237.634 64.8915C206.709 61.1971 175.86 56.3796 143.651 57.828C122.936 58.7596 69.3043 105.569 69.2724 120.787C69.2341 132.234 70.1466 144.077 77.6005 153.195C82.776 159.518 90.7468 164.055 96.752 169.893C117.639 190.171 111.289 222.107 97.5816 249.257C91.1488 261.993 83.2802 274.524 78.9023 287.56C74.5245 300.596 73.9374 314.57 81.7805 325.2C89.547 335.741 104.576 341.682 120.237 344.764C152.056 351.017 187.506 347.137 221.801 341.873C297.712 330.184 372.837 311.954 447.803 293.769C475.538 287.037 503.4 280.273 530.121 270.568C544.958 265.164 560.07 258.445 569.655 247.981C581.832 234.721 582.138 216.587 570.402 205.753C550.708 187.587 506.132 191.613 490.899 170.844C482.52 159.409 486.17 143.872 492.839 130.154C507.14 100.732 534.786 71.6615 531.206 42.3228C528.736 22.1916 509.872 5.5251 484.594 1.18619C458.116 -3.36328 424.082 5.26349 408.83 25.5223C393.144 46.3938 361.325 59.9528 332.901 65.1978Z" fill="#FFA500"/>
</g>
<g filter="url(#filter1_d)">
<path d="M457.235 90.8878C495.17 90.8878 525.922 89.0052 525.922 86.6829C525.922 84.3606 495.17 82.478 457.235 82.478C419.301 82.478 388.549 84.3606 388.549 86.6829C388.549 89.0052 419.301 90.8878 457.235 90.8878Z" fill="#3F3D56"/>
<path opacity="0.1" d="M457.235 89.3946C489.548 89.3946 515.743 88.149 515.743 86.6126C515.743 85.0761 489.548 83.8306 457.235 83.8306C424.922 83.8306 398.728 85.0761 398.728 86.6126C398.728 88.149 424.922 89.3946 457.235 89.3946Z" fill="black"/>
<path d="M509.221 6.06201H407.145V86.1403H509.221V6.06201Z" fill="#3F3D56"/>
<path d="M457.025 17.0051H431.842C431.676 17.0051 431.536 16.8711 431.536 16.6989C431.536 16.5266 431.67 16.3926 431.842 16.3926H457.025C457.191 16.3926 457.331 16.533 457.331 16.6989C457.331 16.8711 457.197 17.0051 457.025 17.0051Z" fill="#F2F2F2"/>
<path d="M484.594 20.3684H444.989C444.823 20.3684 444.682 20.2344 444.682 20.0621C444.682 19.8899 444.816 19.7559 444.989 19.7559H484.594C484.76 19.7559 484.9 19.8899 484.9 20.0621C484.9 20.2344 484.76 20.3684 484.594 20.3684Z" fill="#F2F2F2"/>
<path d="M457.146 23.7297H431.964C431.798 23.7297 431.657 23.5957 431.657 23.4235C431.657 23.2576 431.791 23.1172 431.964 23.1172H457.146C457.312 23.1172 457.452 23.2512 457.452 23.4235C457.452 23.5894 457.318 23.7297 457.146 23.7297Z" fill="#F2F2F2"/>
<path d="M484.594 23.7878H459.411C459.245 23.7878 459.105 23.6538 459.105 23.4816C459.105 23.3093 459.239 23.1753 459.411 23.1753H484.594C484.76 23.1753 484.9 23.3093 484.9 23.4816C484.9 23.6538 484.76 23.7878 484.594 23.7878Z" fill="#F2F2F2"/>
<path d="M457.21 27.0872H432.027C431.862 27.0872 431.721 26.9532 431.721 26.7809C431.721 26.6086 431.855 26.4746 432.027 26.4746H457.21C457.376 26.4746 457.516 26.6086 457.516 26.7809C457.516 26.9532 457.376 27.0872 457.21 27.0872Z" fill="#F2F2F2"/>
<path d="M457.273 30.45H432.091C431.925 30.45 431.785 30.316 431.785 30.1437C431.785 29.9714 431.919 29.8374 432.091 29.8374H457.273C457.439 29.8374 457.58 29.9714 457.58 30.1437C457.58 30.316 457.439 30.45 457.273 30.45Z" fill="#F2F2F2"/>
<path d="M468.703 17.0691H461.492C461.326 17.0691 461.185 16.9351 461.185 16.7628C461.185 16.5905 461.319 16.4565 461.492 16.4565H468.703C468.869 16.4565 469.009 16.5905 469.009 16.7628C469.009 16.9351 468.869 17.0691 468.703 17.0691Z" fill="#F2F2F2"/>
<path d="M468.703 27.0872H461.492C461.326 27.0872 461.185 26.9532 461.185 26.7809C461.185 26.6086 461.319 26.4746 461.492 26.4746H468.703C468.869 26.4746 469.009 26.6086 469.009 26.7809C469.009 26.9532 468.869 27.0872 468.703 27.0872Z" fill="#F2F2F2"/>
<path d="M468.703 30.3923H461.492C461.326 30.3923 461.185 30.2583 461.185 30.0861C461.185 29.9138 461.319 29.7798 461.492 29.7798H468.703C468.869 29.7798 469.009 29.9138 469.009 30.0861C469.009 30.252 468.869 30.386 468.703 30.3923Z" fill="#F2F2F2"/>
<path d="M480.803 30.3923H473.592C473.426 30.3923 473.285 30.252 473.285 30.0861C473.285 29.9202 473.419 29.7798 473.592 29.7798H480.803C480.969 29.7798 481.109 29.9138 481.109 30.0861C481.109 30.252 480.975 30.386 480.803 30.3923Z" fill="#F2F2F2"/>
<path d="M438.996 20.3684H431.785C431.619 20.3684 431.479 20.2344 431.479 20.0621C431.479 19.8899 431.613 19.7559 431.785 19.7559H438.996C439.162 19.7559 439.303 19.8899 439.303 20.0621C439.303 20.2344 439.162 20.3684 438.996 20.3684Z" fill="#F2F2F2"/>
<path d="M457.057 66.5076H431.874C431.709 66.5076 431.568 66.3736 431.568 66.2013C431.568 66.0354 431.702 65.895 431.874 65.895H457.057C457.223 65.895 457.363 66.029 457.363 66.2013C457.363 66.3736 457.223 66.5076 457.057 66.5076Z" fill="#F2F2F2"/>
<path d="M456.935 73.2317H431.753C431.587 73.2317 431.447 73.0977 431.447 72.9254C431.447 72.7595 431.581 72.6191 431.753 72.6191H456.935C457.101 72.6191 457.242 72.7531 457.242 72.9254C457.242 73.0913 457.101 73.2317 456.935 73.2317Z" fill="#F2F2F2"/>
<path d="M456.993 76.5877H431.81C431.645 76.5877 431.504 76.4537 431.504 76.2814C431.504 76.1091 431.638 75.9751 431.81 75.9751H456.993C457.159 75.9751 457.299 76.1091 457.299 76.2814C457.299 76.4537 457.165 76.5877 456.993 76.5877Z" fill="#F2F2F2"/>
<path d="M467.752 73.2893H460.541C460.375 73.2893 460.235 73.1553 460.235 72.983C460.235 72.8171 460.369 72.6768 460.541 72.6768H467.752C467.918 72.6768 468.059 72.8108 468.059 72.983C468.059 73.1553 467.925 73.2893 467.752 73.2893Z" fill="#F2F2F2"/>
<path d="M467.752 76.5877H460.541C460.375 76.5877 460.235 76.4537 460.235 76.2814C460.235 76.1091 460.369 75.9751 460.541 75.9751H467.752C467.918 75.9751 468.059 76.1091 468.059 76.2814C468.059 76.4537 467.925 76.5877 467.752 76.5877Z" fill="#F2F2F2"/>
<path d="M479.859 73.2893H472.647C472.481 73.2893 472.341 73.1553 472.341 72.983C472.341 72.8171 472.475 72.6768 472.647 72.6768H479.859C480.024 72.6768 480.165 72.8108 480.165 72.983C480.158 73.1553 480.024 73.2893 479.859 73.2893Z" fill="#F2F2F2"/>
<path d="M477.989 72.9832H438.384C438.218 72.9832 438.077 72.8492 438.077 72.6769C438.077 72.511 438.211 72.3706 438.384 72.3706H477.989C478.154 72.3706 478.295 72.5046 478.295 72.6769C478.295 72.8492 478.161 72.9832 477.989 72.9832Z" fill="#F2F2F2"/>
<path d="M439.028 69.8689H431.817C431.651 69.8689 431.511 69.7349 431.511 69.5626C431.511 69.3967 431.645 69.2563 431.817 69.2563H439.028C439.194 69.2563 439.335 69.3903 439.335 69.5626C439.328 69.7285 439.194 69.8689 439.028 69.8689Z" fill="#F2F2F2"/>
<path d="M484.625 80.0154H445.021C444.855 80.0154 444.714 79.8814 444.714 79.7091C444.714 79.5432 444.848 79.4028 445.021 79.4028H484.625C484.791 79.4028 484.932 79.5368 484.932 79.7091C484.925 79.875 484.791 80.0154 484.625 80.0154Z" fill="#F2F2F2"/>
<path d="M439.028 80.0154H431.817C431.651 80.0154 431.511 79.8814 431.511 79.7091C431.511 79.5432 431.645 79.4028 431.817 79.4028H439.028C439.194 79.4028 439.335 79.5368 439.335 79.7091C439.328 79.875 439.194 80.0154 439.028 80.0154Z" fill="#F2F2F2"/>
<path d="M450.975 38.5146L441.198 48.1751L450.975 57.8292L453.176 55.6278L445.78 48.2325L453.234 40.7798L450.975 38.5146Z" fill="#FFA500"/>
<path d="M465.398 38.5146L475.181 48.1751L465.398 57.8292L463.202 55.6278L470.592 48.2325L463.138 40.7798L465.398 38.5146Z" fill="#FFA500"/>
<path d="M409.864 9.31635C410.537 9.31635 411.083 8.77071 411.083 8.09763C411.083 7.42455 410.537 6.87891 409.864 6.87891C409.191 6.87891 408.645 7.42455 408.645 8.09763C408.645 8.77071 409.191 9.31635 409.864 9.31635Z" fill="#FFA500"/>
<path d="M413.119 9.31635C413.792 9.31635 414.337 8.77071 414.337 8.09763C414.337 7.42455 413.792 6.87891 413.119 6.87891C412.445 6.87891 411.9 7.42455 411.9 8.09763C411.9 8.77071 412.445 9.31635 413.119 9.31635Z" fill="#FFA500"/>
<path d="M416.38 9.31635C417.053 9.31635 417.599 8.77071 417.599 8.09763C417.599 7.42455 417.053 6.87891 416.38 6.87891C415.706 6.87891 415.161 7.42455 415.161 8.09763C415.161 8.77071 415.706 9.31635 416.38 9.31635Z" fill="#FFA500"/>
<path opacity="0.1" d="M509.221 10.1333H407.145V10.5417H509.221V10.1333Z" fill="black"/>
<path d="M533.388 66.5194C533.388 75.1717 528.245 78.1962 521.895 78.1962C515.545 78.1962 510.401 75.1717 510.401 66.5194C510.401 57.8672 521.895 46.854 521.895 46.854C521.895 46.854 533.388 57.8672 533.388 66.5194Z" fill="#FFA500"/>
<path d="M521.473 76.8754L521.595 69.6269L526.489 60.6683L521.614 68.4911L521.665 65.2369L525.041 58.7541L521.678 64.3755L521.773 58.518L525.392 53.356L521.786 57.5928L521.85 46.854L521.473 61.0703L521.505 60.4897L517.829 54.8618L521.448 61.6127L521.103 68.1529L521.09 67.9806L516.853 62.0593L521.078 68.5932L521.039 69.4099L521.033 69.4227V69.4929L520.165 86.0892H521.327L521.467 77.5199L525.679 70.9987L521.473 76.8754Z" fill="#3F3D56"/>
</g>
<g filter="url(#filter2_d)">
<path d="M317.329 131.777C316.997 133.226 315.862 136.276 312.211 136.199C309.422 136.142 307.272 134.227 307.348 132.032L308.401 102.145L308.746 92.3953C308.746 92.3953 310.552 89.6962 312.358 101.788V101.832L317.361 130.501C317.431 130.922 317.425 131.356 317.329 131.777Z" fill="#8C8C8C"/>
<path d="M314.892 134.681H309.524V143.716H314.892V134.681Z" fill="white"/>
<path d="M314.317 141.565H310.188V145.534H314.317V141.565Z" fill="white"/>
<path d="M312.358 101.832C310.475 101.405 309.199 101.73 308.389 102.145L308.733 92.3953C308.733 92.3953 310.539 89.6962 312.345 101.788L312.358 101.832Z" fill="#FFA500"/>
<path d="M314.898 137.379V143.715H309.531V137.507C311.229 136.926 313.149 136.882 314.898 137.379Z" fill="#FFA500"/>
<path d="M327.54 157.517C326.034 156.649 323.047 154.511 324.732 151.959C326.021 150.013 329.148 149.33 331.624 150.345L365.307 164.191L376.296 168.708C376.296 168.708 378.581 171.165 363.98 167.145L363.929 167.132L328.982 158.097C328.465 157.963 327.98 157.772 327.54 157.517Z" fill="#8C8C8C"/>
<path d="M314.968 150.569L317.323 146.766L327.649 150.728L325.294 154.525L314.968 150.569Z" fill="white"/>
<path d="M319.486 148.175L317.674 151.098L313.143 149.356L314.955 146.44L319.486 148.175Z" fill="white"/>
<path d="M363.922 167.133C365.237 165.991 365.422 164.944 365.307 164.198L376.296 168.715C376.296 168.715 378.581 171.172 363.98 167.152L363.922 167.133Z" fill="#FFA500"/>
<path d="M322.205 153.338L314.968 150.563L317.323 146.772L324.413 149.491C324.33 150.952 323.539 152.33 322.205 153.338Z" fill="#FFA500"/>
<path d="M296.882 157.517C298.388 156.649 301.375 154.511 299.69 151.959C298.401 150.013 295.274 149.33 292.798 150.345L259.115 164.191L248.126 168.708C248.126 168.708 245.841 171.165 260.443 167.145L260.494 167.132L295.44 158.104C295.957 157.97 296.442 157.772 296.882 157.517Z" fill="#8C8C8C"/>
<path d="M296.774 150.728L307.099 146.766L309.454 150.562L299.129 154.525L296.774 150.728Z" fill="white"/>
<path d="M309.467 146.434L311.28 149.356L306.749 151.098L304.936 148.176L309.467 146.434Z" fill="white"/>
<path d="M260.5 167.133C259.186 165.991 259.001 164.944 259.115 164.198L248.126 168.715C248.126 168.715 245.841 171.172 260.443 167.152L260.5 167.133Z" fill="#FFA500"/>
<path d="M302.217 153.338L309.454 150.563L307.099 146.772L300.009 149.491C300.092 150.952 300.884 152.33 302.217 153.338Z" fill="#FFA500"/>
<path d="M317.042 245.954H306.512L309.856 148.36H313.698L317.042 245.954Z" fill="#8C8C8C"/>
<path d="M312.211 149.917C314.15 149.917 315.721 148.68 315.721 147.154C315.721 145.629 314.15 144.392 312.211 144.392C310.273 144.392 308.701 145.629 308.701 147.154C308.701 148.68 310.273 149.917 312.211 149.917Z" fill="#FFA500"/>
<path d="M395.32 126.635C395.097 127.611 394.331 129.672 391.861 129.621C389.966 129.551 388.498 128.294 388.568 126.801L389.283 106.58L389.513 99.9891C389.513 99.9891 390.738 98.1642 391.957 106.344V106.376L395.339 125.78C395.384 126.061 395.384 126.348 395.32 126.635Z" fill="#8C8C8C"/>
<path d="M393.674 128.592H390.042V134.705H393.674V128.592Z" fill="white"/>
<path d="M393.284 133.258H390.489V135.944H393.284V133.258Z" fill="white"/>
<path d="M391.957 106.376C390.687 106.089 389.819 106.306 389.277 106.587L389.506 99.9955C389.506 99.9955 390.732 98.1706 391.951 106.351L391.957 106.376Z" fill="#FFA500"/>
<path d="M393.674 130.419V134.7H390.042V130.501C391.191 130.112 392.493 130.08 393.674 130.419Z" fill="#FFA500"/>
<path d="M402.219 144.047C401.204 143.46 399.175 142.018 400.317 140.289C401.223 138.981 403.31 138.49 404.982 139.198L427.771 148.565L435.199 151.621C435.199 151.621 436.75 153.286 426.871 150.562H426.833L403.189 144.456C402.844 144.353 402.512 144.219 402.219 144.047Z" fill="#8C8C8C"/>
<path d="M393.725 139.344L395.314 136.773L402.302 139.453L400.706 142.024L393.725 139.344Z" fill="white"/>
<path d="M396.781 137.73L395.556 139.702L392.493 138.528L393.718 136.55L396.781 137.73Z" fill="white"/>
<path d="M426.846 150.548C427.739 149.776 427.861 149.068 427.784 148.564L435.212 151.62C435.212 151.62 436.763 153.286 426.884 150.561L426.846 150.548Z" fill="#FFA500"/>
<path d="M398.619 141.22L393.712 139.338L395.301 136.773L400.1 138.611C400.049 139.6 399.519 140.531 398.619 141.22Z" fill="#FFA500"/>
<path d="M381.491 144.047C382.506 143.46 384.535 142.018 383.393 140.289C382.486 138.981 380.4 138.49 378.728 139.198L355.939 148.565L348.51 151.621C348.51 151.621 346.96 153.286 356.838 150.562H356.877L380.521 144.456C380.866 144.353 381.191 144.219 381.491 144.047Z" fill="#8C8C8C"/>
<path d="M381.414 139.453L388.402 136.773L389.991 139.344L383.01 142.024L381.414 139.453Z" fill="white"/>
<path d="M389.998 136.55L391.229 138.528L388.16 139.702L386.935 137.724L389.998 136.55Z" fill="white"/>
<path d="M356.87 150.548C355.983 149.776 355.856 149.068 355.932 148.564L348.504 151.62C348.504 151.62 346.953 153.286 356.832 150.561L356.87 150.548Z" fill="#FFA500"/>
<path d="M385.097 141.22L389.992 139.338L388.402 136.773L383.603 138.611C383.654 139.6 384.191 140.538 385.097 141.22Z" fill="#FFA500"/>
<path d="M395.129 203.88L387.968 204.869L390.266 137.853H392.863L395.129 203.88Z" fill="#8C8C8C"/>
<path d="M391.861 138.905C393.172 138.905 394.235 138.068 394.235 137.035C394.235 136.003 393.172 135.166 391.861 135.166C390.55 135.166 389.487 136.003 389.487 137.035C389.487 138.068 390.55 138.905 391.861 138.905Z" fill="#FFA500"/>
<path d="M232.823 126.635C232.6 127.611 231.834 129.672 229.364 129.621C227.469 129.551 226.001 128.294 226.071 126.801L226.786 106.58L227.016 99.9891C227.016 99.9891 228.241 98.1642 229.46 106.344V106.376L232.842 125.78C232.887 126.061 232.88 126.348 232.823 126.635Z" fill="#8C8C8C"/>
<path d="M231.176 128.592H227.545V134.705H231.176V128.592Z" fill="white"/>
<path d="M230.781 133.258H227.986V135.944H230.781V133.258Z" fill="white"/>
<path d="M229.46 106.376C228.19 106.089 227.322 106.306 226.779 106.587L227.009 99.9955C227.009 99.9955 228.235 98.1706 229.453 106.351L229.46 106.376Z" fill="#FFA500"/>
<path d="M231.176 130.419V134.7H227.545V130.501C228.694 130.112 229.996 130.08 231.176 130.419Z" fill="#FFA500"/>
<path d="M239.728 144.047C238.713 143.46 236.69 142.018 237.832 140.289C238.739 138.981 240.819 138.49 242.491 139.198L265.28 148.565L272.715 151.621C272.715 151.621 274.259 153.286 264.38 150.562H264.342L240.704 144.456C240.353 144.353 240.028 144.219 239.728 144.047Z" fill="#8C8C8C"/>
<path d="M231.227 139.344L232.817 136.773L239.805 139.453L238.209 142.024L231.227 139.344Z" fill="white"/>
<path d="M234.278 137.724L233.053 139.702L229.989 138.528L231.215 136.55L234.278 137.724Z" fill="white"/>
<path d="M264.349 150.548C265.242 149.776 265.363 149.068 265.287 148.564L272.721 151.62C272.721 151.62 274.266 153.286 264.387 150.561L264.349 150.548Z" fill="#FFA500"/>
<path d="M236.122 141.22L231.227 139.338L232.823 136.773L237.622 138.611C237.558 139.6 237.028 140.538 236.122 141.22Z" fill="#FFA500"/>
<path d="M218.987 144.047C220.008 143.46 222.031 142.018 220.889 140.289C219.983 138.981 217.896 138.49 216.224 139.198L193.435 148.565L186.007 151.621C186.007 151.621 184.456 153.286 194.335 150.562H194.373L218.017 144.455C218.362 144.353 218.694 144.219 218.987 144.047Z" fill="#8C8C8C"/>
<path d="M218.917 139.453L225.899 136.773L227.494 139.344L220.506 142.024L218.917 139.453Z" fill="white"/>
<path d="M227.501 136.55L228.732 138.528L225.663 139.702L224.437 137.73L227.501 136.55Z" fill="white"/>
<path d="M194.373 150.548C193.486 149.776 193.358 149.068 193.435 148.564L186.007 151.62C186.007 151.62 184.456 153.286 194.335 150.561L194.373 150.548Z" fill="#FFA500"/>
<path d="M222.593 141.22L227.488 139.338L225.899 136.773L221.1 138.611C221.157 139.6 221.693 140.531 222.593 141.22Z" fill="#FFA500"/>
<path d="M232.631 203.88H225.503L227.769 137.853H230.366L232.631 203.88Z" fill="#8C8C8C"/>
<path d="M229.358 138.905C230.669 138.905 231.732 138.068 231.732 137.035C231.732 136.003 230.669 135.166 229.358 135.166C228.046 135.166 226.984 136.003 226.984 137.035C226.984 138.068 228.046 138.905 229.358 138.905Z" fill="#FFA500"/>
<path opacity="0.1" d="M218.31 178.254L217.647 177.865C217.717 177.884 217.787 177.909 217.857 177.941C217.998 178.005 218.125 178.081 218.24 178.177C218.316 178.228 218.387 178.279 218.457 178.33L218.31 178.254Z" fill="black"/>
<path d="M239.549 195.853C241.519 195.853 243.117 194.596 243.117 193.046C243.117 191.495 241.519 190.238 239.549 190.238C237.579 190.238 235.982 191.495 235.982 193.046C235.982 194.596 237.579 195.853 239.549 195.853Z" fill="#3F3D56"/>
<path d="M232.529 204.148C227.379 210.363 228.79 218.263 228.79 218.263C228.79 218.263 238.547 216.093 243.697 209.878C248.847 203.664 247.437 195.764 247.437 195.764C247.437 195.764 237.679 197.94 232.529 204.148Z" fill="#3F3D56"/>
<path d="M229.319 218.352C229.319 218.352 229.192 218.339 228.962 218.301C228.777 218.269 228.522 218.231 228.215 218.173C225.452 217.663 218.094 215.927 213.288 211.365C207.271 205.654 207.526 197.678 207.526 197.678C207.526 197.678 216.728 198.852 222.791 203.982C223.052 204.206 223.308 204.429 223.557 204.665C228.79 209.636 229.281 216.316 229.319 217.969C229.326 218.218 229.319 218.352 229.319 218.352Z" fill="#FFA500"/>
<path d="M225.611 204.307C230.761 210.522 229.351 218.421 229.351 218.421C229.351 218.421 219.593 216.252 214.443 210.037C209.293 203.822 210.704 195.923 210.704 195.923C210.704 195.923 220.461 198.099 225.611 204.307Z" stroke="#3F3D56" stroke-width="0.252989" stroke-miterlimit="10"/>
<path opacity="0.1" d="M229.319 217.969C229.185 218.096 229.064 218.205 228.962 218.3C228.745 218.498 228.617 218.6 228.617 218.6C228.617 218.6 228.464 218.453 228.215 218.173C226.824 216.648 222.35 211.224 222.695 204.958C222.714 204.633 222.746 204.307 222.784 203.982C223.046 204.205 223.301 204.429 223.55 204.665C228.79 209.635 229.281 216.316 229.319 217.969Z" fill="black"/>
<path d="M236.952 205.405C236.543 212.813 229.555 218.594 229.555 218.594C229.555 218.594 223.225 212.36 223.633 204.952C224.042 197.544 231.03 191.763 231.03 191.763C231.03 191.763 237.36 197.997 236.952 205.405Z" fill="#FFA500"/>
<path d="M228.994 218.23L230.532 191.91" stroke="#3F3D56" stroke-width="0.252989" stroke-miterlimit="10"/>
<path d="M257.654 201.06C259.268 201.06 260.577 200.032 260.577 198.763C260.577 197.495 259.268 196.466 257.654 196.466C256.04 196.466 254.731 197.495 254.731 198.763C254.731 200.032 256.04 201.06 257.654 201.06Z" fill="#3F3D56"/>
<path d="M251.904 207.862C247.686 212.954 248.841 219.424 248.841 219.424C248.841 219.424 256.837 217.644 261.055 212.558C265.274 207.467 264.119 200.997 264.119 200.997C264.119 200.997 256.122 202.77 251.904 207.862Z" fill="#3F3D56"/>
<path d="M248.822 219.36C248.822 219.36 248.72 219.347 248.528 219.315C248.375 219.29 248.171 219.258 247.916 219.207C245.65 218.786 239.626 217.363 235.688 213.63C230.762 208.953 230.966 202.419 230.966 202.419C230.966 202.419 238.503 203.382 243.467 207.581C243.684 207.76 243.895 207.951 244.093 208.142C248.381 212.213 248.783 217.688 248.815 219.041C248.822 219.251 248.822 219.36 248.822 219.36Z" fill="#FFA500"/>
<path d="M245.778 207.862C249.996 212.954 248.841 219.424 248.841 219.424C248.841 219.424 240.845 217.644 236.626 212.558C232.408 207.467 233.563 200.997 233.563 200.997C233.563 200.997 241.559 202.77 245.778 207.862Z" stroke="#3F3D56" stroke-width="0.252989" stroke-miterlimit="10"/>
<path opacity="0.1" d="M248.815 219.047C248.707 219.156 248.605 219.245 248.522 219.315C248.343 219.475 248.241 219.558 248.241 219.558C248.241 219.558 248.12 219.436 247.909 219.207C246.767 217.956 243.104 213.515 243.391 208.379C243.404 208.111 243.429 207.843 243.467 207.581C243.684 207.76 243.895 207.951 244.093 208.143C248.388 212.22 248.783 217.695 248.815 219.047Z" fill="black"/>
<path d="M255.069 208.761C254.738 214.829 249.007 219.564 249.007 219.564C249.007 219.564 243.819 214.459 244.157 208.385C244.489 202.317 250.219 197.582 250.219 197.582C250.219 197.582 255.408 202.687 255.069 208.761Z" fill="#FFA500"/>
<path d="M249.013 219.392L250.27 197.831" stroke="#3F3D56" stroke-width="0.252989" stroke-miterlimit="10"/>
<path d="M293.411 202.578C299.152 202.578 303.807 198.916 303.807 194.398C303.807 189.88 299.152 186.218 293.411 186.218C287.669 186.218 283.015 189.88 283.015 194.398C283.015 198.916 287.669 202.578 293.411 202.578Z" fill="#FFA500"/>
<path d="M275.74 221.828C281.481 221.828 286.136 218.166 286.136 213.648C286.136 209.13 281.481 205.468 275.74 205.468C269.998 205.468 265.344 209.13 265.344 213.648C265.344 218.166 269.998 221.828 275.74 221.828Z" fill="#FFA500"/>
<path d="M253.991 237.2C259.732 237.2 264.387 233.537 264.387 229.019C264.387 224.502 259.732 220.839 253.991 220.839C248.249 220.839 243.595 224.502 243.595 229.019C243.595 233.537 248.249 237.2 253.991 237.2Z" fill="#FFA500"/>
<path d="M253.985 243.81V228.975" stroke="#3F3D56" stroke-width="0.252989" stroke-miterlimit="10"/>
<path d="M253.985 231.075C255.458 231.075 256.652 230.135 256.652 228.975C256.652 227.816 255.458 226.876 253.985 226.876C252.511 226.876 251.317 227.816 251.317 228.975C251.317 230.135 252.511 231.075 253.985 231.075Z" fill="#3F3D56"/>
<path d="M253.985 238.12C253.985 238.12 253.602 231.675 245.797 232.422L253.985 238.12Z" fill="#3F3D56"/>
<path d="M293.417 243.912V194.43" stroke="#3F3D56" stroke-width="0.252989" stroke-miterlimit="10"/>
<path d="M293.417 196.503C294.89 196.503 296.085 195.563 296.085 194.404C296.085 193.245 294.89 192.305 293.417 192.305C291.944 192.305 290.75 193.245 290.75 194.404C290.75 195.563 291.944 196.503 293.417 196.503Z" fill="#3F3D56"/>
<path d="M285.223 232.305C286.696 232.305 287.891 231.366 287.891 230.206C287.891 229.047 286.696 228.107 285.223 228.107C283.75 228.107 282.555 229.047 282.555 230.206C282.555 231.366 283.75 232.305 285.223 232.305Z" fill="#3F3D56"/>
<path d="M293.417 205.118C293.417 205.118 293.034 198.674 285.229 199.42L293.417 205.118Z" fill="#3F3D56"/>
<path d="M293.417 223.391C293.417 223.391 293.034 216.946 285.229 217.693L293.417 223.391Z" fill="#3F3D56"/>
<path d="M293.417 243.338C293.417 243.338 295.134 230.806 285.229 230.206" stroke="#3F3D56" stroke-width="0.252989" stroke-miterlimit="10"/>
<path d="M301.605 232.305C303.078 232.305 304.272 231.366 304.272 230.206C304.272 229.047 303.078 228.107 301.605 228.107C300.132 228.107 298.937 229.047 298.937 230.206C298.937 231.366 300.132 232.305 301.605 232.305Z" fill="#3F3D56"/>
<path d="M293.417 243.338C293.417 243.338 291.7 230.806 301.605 230.206" stroke="#3F3D56" stroke-width="0.252989" stroke-miterlimit="10"/>
<path d="M301.771 212.627C303.244 212.627 304.438 211.687 304.438 210.528C304.438 209.369 303.244 208.429 301.771 208.429C300.298 208.429 299.103 209.369 299.103 210.528C299.103 211.687 300.298 212.627 301.771 212.627Z" fill="#3F3D56"/>
<path d="M293.577 222.99C293.577 222.99 291.86 211.128 301.764 210.528" stroke="#3F3D56" stroke-width="0.252989" stroke-miterlimit="10"/>
<path d="M275.746 243.842V213.635" stroke="#3F3D56" stroke-width="0.252989" stroke-miterlimit="10"/>
<path d="M275.746 215.735C277.219 215.735 278.414 214.795 278.414 213.636C278.414 212.476 277.219 211.537 275.746 211.537C274.273 211.537 273.078 212.476 273.078 213.636C273.078 214.795 274.273 215.735 275.746 215.735Z" fill="#3F3D56"/>
<path d="M275.746 222.179C275.746 222.179 275.363 215.734 267.558 216.481L275.746 222.179Z" fill="#3F3D56"/>
<path d="M275.746 243.269C275.746 243.269 277.463 230.871 267.558 230.271" stroke="#3F3D56" stroke-width="0.252989" stroke-miterlimit="10"/>
<path d="M267.559 232.37C269.032 232.37 270.226 231.43 270.226 230.271C270.226 229.111 269.032 228.171 267.559 228.171C266.085 228.171 264.891 229.111 264.891 230.271C264.891 231.43 266.085 232.37 267.559 232.37Z" fill="#3F3D56"/>
</g>
<g filter="url(#filter3_d)">
<path d="M40.6993 285.492C40.6993 285.492 23.8238 295.68 54.9454 311.369C54.9454 311.369 61.8013 298.637 54.2228 288.26C51.1805 284.077 45.4845 282.826 40.9665 285.358L40.6993 285.492Z" fill="#FFA500"/>
<path d="M40.9059 285.281C40.9059 285.281 55.3584 296.325 54.9516 311.364" stroke="#535461" stroke-width="0.126495" stroke-miterlimit="10"/>
<path d="M254.239 277.01C257.658 289.512 243.072 325.128 243.072 325.128C243.072 325.128 212.381 301.898 208.956 289.397C205.246 276.974 212.308 263.896 224.733 260.186C237.157 256.476 250.237 263.538 253.947 275.96C254.057 276.306 254.154 276.652 254.239 277.01Z" fill="#FFA500"/>
<path opacity="0.1" d="M254.239 277.01C257.658 289.512 243.072 325.128 243.072 325.128C243.072 325.128 212.381 301.898 208.956 289.397C205.246 276.974 212.308 263.896 224.733 260.186C237.157 256.476 250.237 263.538 253.947 275.96C254.057 276.306 254.154 276.652 254.239 277.01Z" fill="black"/>
<path d="M225.534 260.636C225.534 260.636 244.638 289.47 243.211 325.195" stroke="#535461" stroke-width="0.126495" stroke-miterlimit="10"/>
<path d="M259.115 299.857C259.115 299.857 241.79 290.434 243.982 325.219C243.982 325.219 258.435 324.702 263.56 312.917C265.637 308.176 263.833 302.626 259.364 300.009L259.115 299.857Z" fill="#FFA500"/>
<path d="M259.401 299.919C259.401 299.919 257.166 317.976 243.989 325.219" stroke="#535461" stroke-width="0.126495" stroke-miterlimit="10"/>
<path d="M5.50313 295.977C5.50313 295.977 -11.3845 306.159 19.7432 321.842C19.7432 321.842 26.599 309.11 19.0205 298.734C15.9782 294.551 10.2822 293.3 5.76425 295.832L5.50313 295.977Z" fill="#FFA500"/>
<path d="M5.69739 295.766C5.69739 295.766 20.1499 306.81 19.7431 321.85" stroke="#535461" stroke-width="0.126495" stroke-miterlimit="10"/>
<path d="M216.207 309.239H198.463C198.87 308.419 199.082 307.514 199.082 306.597V225.803C199.082 222.524 196.423 219.865 193.144 219.865H55.7835C52.5044 219.865 49.8446 222.524 49.8446 225.803V306.597C49.8446 307.514 50.0572 308.419 50.464 309.239H32.0825C31.2142 309.239 30.5098 309.943 30.5098 310.811V310.817V312.086C30.5098 316.937 34.4447 320.872 39.2967 320.872H208.987C213.839 320.872 217.774 316.937 217.774 312.086V310.817C217.78 309.949 217.081 309.239 216.213 309.232C216.213 309.239 216.207 309.239 216.207 309.239ZM106.859 314.266L105.329 312.542H143.106L141.424 314.272L106.859 314.266Z" fill="url(#paint0_linear)"/>
<path d="M57.9394 221.006H190.958C194.504 221.006 197.382 223.884 197.382 227.43V305.159C197.382 308.704 194.504 311.582 190.958 311.582H57.9394C54.393 311.582 51.5146 308.704 51.5146 305.159V227.43C51.5207 223.884 54.393 221.006 57.9394 221.006Z" fill="#535461"/>
<path d="M194 234.211H54.5873V308.206H194V234.211Z" fill="white"/>
<path d="M124.3 228.991C124.977 228.991 125.526 228.442 125.526 227.765C125.526 227.087 124.977 226.538 124.3 226.538C123.622 226.538 123.073 227.087 123.073 227.765C123.073 228.442 123.622 228.991 124.3 228.991Z" fill="white"/>
<path d="M145.82 308.358L141.029 313.27H107.26L102.93 308.358H34.1654C33.3152 308.358 32.629 309.044 32.629 309.894V311.133C32.629 315.875 36.4729 319.724 41.2216 319.724H207.068C211.81 319.724 215.66 315.881 215.66 311.133V309.894C215.66 309.044 214.974 308.358 214.124 308.358H145.82Z" fill="#535461"/>
<path d="M72.3978 238.814V301.758H176.499" stroke="#535461" stroke-width="0.252989" stroke-miterlimit="10"/>
<path opacity="0.5" d="M92.358 282.725H81.6097V299.306H92.358V282.725Z" fill="#FFA500"/>
<path opacity="0.7" d="M110.782 267.982H100.034V299.3H110.782V267.982Z" fill="#FFA500"/>
<path opacity="0.5" d="M129.212 276.889H118.464V299.299H129.212V276.889Z" fill="#FFA500"/>
<path opacity="0.8" d="M147.636 263.07H136.888V299.299H147.636V263.07Z" fill="#FFA500"/>
<path d="M166.06 250.174H155.312V299.3H166.06V250.174Z" fill="#FFA500"/>
<path d="M86.8323 272.59L105.566 255.705L123.99 271.667L142.104 252.323L160.534 244.649" stroke="#535461" stroke-width="0.252989" stroke-miterlimit="10"/>
<path d="M86.8322 274.739C88.0194 274.739 88.9818 273.777 88.9818 272.59C88.9818 271.403 88.0194 270.44 86.8322 270.44C85.6449 270.44 84.6825 271.403 84.6825 272.59C84.6825 273.777 85.6449 274.739 86.8322 274.739Z" fill="#FFA500"/>
<path d="M123.68 273.508C124.867 273.508 125.83 272.545 125.83 271.358C125.83 270.171 124.867 269.209 123.68 269.209C122.493 269.209 121.531 270.171 121.531 271.358C121.531 272.545 122.493 273.508 123.68 273.508Z" fill="#FFA500"/>
<path d="M144.539 252.671C144.73 251.499 143.934 250.395 142.762 250.205C141.59 250.015 140.486 250.811 140.295 251.982C140.105 253.154 140.901 254.258 142.073 254.448C143.245 254.638 144.349 253.843 144.539 252.671Z" fill="#FFA500"/>
<path d="M105.566 257.545C106.753 257.545 107.716 256.582 107.716 255.395C107.716 254.208 106.753 253.246 105.566 253.246C104.379 253.246 103.416 254.208 103.416 255.395C103.416 256.582 104.379 257.545 105.566 257.545Z" fill="#FFA500"/>
<path d="M160.534 246.798C161.721 246.798 162.684 245.835 162.684 244.648C162.684 243.461 161.721 242.499 160.534 242.499C159.347 242.499 158.384 243.461 158.384 244.648C158.384 245.835 159.347 246.798 160.534 246.798Z" fill="#FFA500"/>
<path d="M23.7694 243.648C23.7694 243.648 16.5249 258.627 21.2857 276.356C26.0405 294.085 24.5284 315.293 19.7858 320.539" stroke="#535461" stroke-width="0.252989" stroke-miterlimit="10"/>
<path d="M23.7692 245.651C24.8725 245.651 25.767 244.757 25.767 243.653C25.767 242.55 24.8725 241.656 23.7692 241.656C22.6658 241.656 21.7713 242.55 21.7713 243.653C21.7713 244.757 22.6658 245.651 23.7692 245.651Z" fill="#FFA500"/>
<path d="M20.7573 253.283C20.7573 253.283 28.2629 254.637 30.2607 251.904" stroke="#535461" stroke-width="0.252989" stroke-miterlimit="10"/>
<path d="M20.0469 257.629C20.0469 257.629 15.529 252.632 15.7779 249.639" stroke="#535461" stroke-width="0.252989" stroke-miterlimit="10"/>
<path d="M19.6641 266.787C19.6641 266.787 23.7691 267.867 27.5219 259.883" stroke="#535461" stroke-width="0.252989" stroke-miterlimit="10"/>
<path d="M20.7572 273.44C20.7572 273.44 10.5372 266.865 11.7821 262.621" stroke="#535461" stroke-width="0.252989" stroke-miterlimit="10"/>
<path d="M22.3544 280.963C22.3544 280.963 29.5139 274.612 28.7669 268.364" stroke="#535461" stroke-width="0.252989" stroke-miterlimit="10"/>
<path d="M23.1316 285.388C23.1316 285.388 14.0168 282.844 14.2961 278.849" stroke="#535461" stroke-width="0.252989" stroke-miterlimit="10"/>
<path d="M23.7692 290.66C23.7692 290.66 29.5138 285.341 30.2607 282.099" stroke="#535461" stroke-width="0.252989" stroke-miterlimit="10"/>
<path d="M24.17 299.706C24.17 299.706 18.2797 292.827 18.0247 289.335" stroke="#535461" stroke-width="0.252989" stroke-miterlimit="10"/>
<path d="M24.17 305.395C24.17 305.395 30.7648 298.073 31.2627 294.576" stroke="#535461" stroke-width="0.252989" stroke-miterlimit="10"/>
<path d="M30.2609 253.884C31.3643 253.884 32.2588 252.99 32.2588 251.887C32.2588 250.784 31.3643 249.889 30.2609 249.889C29.1575 249.889 28.2631 250.784 28.2631 251.887C28.2631 252.99 29.1575 253.884 30.2609 253.884Z" fill="#FFA500"/>
<path d="M30.2609 284.593C31.3643 284.593 32.2588 283.699 32.2588 282.596C32.2588 281.492 31.3643 280.598 30.2609 280.598C29.1575 280.598 28.2631 281.492 28.2631 282.596C28.2631 283.699 29.1575 284.593 30.2609 284.593Z" fill="#FFA500"/>
<path d="M27.0181 261.874C28.1215 261.874 29.016 260.98 29.016 259.877C29.016 258.774 28.1215 257.879 27.0181 257.879C25.9147 257.879 25.0203 258.774 25.0203 259.877C25.0203 260.98 25.9147 261.874 27.0181 261.874Z" fill="#FFA500"/>
<path d="M31.0077 297.823C32.1111 297.823 33.0055 296.929 33.0055 295.826C33.0055 294.722 32.1111 293.828 31.0077 293.828C29.9043 293.828 29.0098 294.722 29.0098 295.826C29.0098 296.929 29.9043 297.823 31.0077 297.823Z" fill="#FFA500"/>
<path d="M17.5267 292.578C18.63 292.578 19.5245 291.683 19.5245 290.58C19.5245 289.477 18.63 288.583 17.5267 288.583C16.4233 288.583 15.5288 289.477 15.5288 290.58C15.5288 291.683 16.4233 292.578 17.5267 292.578Z" fill="#FFA500"/>
<path d="M29.0159 270.362C30.1193 270.362 31.0138 269.468 31.0138 268.365C31.0138 267.262 30.1193 266.367 29.0159 266.367C27.9125 266.367 27.0181 267.262 27.0181 268.365C27.0181 269.468 27.9125 270.362 29.0159 270.362Z" fill="#FFA500"/>
</g>
<g filter="url(#filter4_d)">
<path d="M340.827 182.13H330.169V178.895C333.539 176.554 336.519 176.758 340.444 179.087L340.827 182.13Z" fill="#FFA500"/>
<path d="M327.706 239.588H325.37L325.019 230.591H327.706V239.588Z" fill="#FFB8B8"/>
<path d="M328.299 241.854H320.775V241.758C320.775 240.144 322.084 238.83 323.704 238.83H328.299V241.854Z" fill="#2F2E41"/>
<path d="M340.846 239.588H343.181L343.526 230.591H340.846V239.588Z" fill="#FFB8B8"/>
<path d="M340.252 238.83H344.847C346.462 238.83 347.776 240.138 347.776 241.758V241.854H340.252V238.83Z" fill="#2F2E41"/>
<path d="M340.91 238.434C340.507 238.434 340.163 238.153 340.074 237.764L334.292 212.541C334.266 212.407 334.145 212.311 334.011 212.318C333.877 212.318 333.756 212.413 333.73 212.541L328.421 237.592C328.338 237.987 327.987 238.268 327.585 238.268H325.057C324.585 238.268 324.202 237.885 324.202 237.413C324.202 237.394 324.202 237.381 324.202 237.362L326.085 205.612L326.844 205.388H326.857L341.752 205.516L344.924 237.234C344.968 237.707 344.624 238.121 344.158 238.172C344.151 238.172 344.145 238.172 344.145 238.172L340.986 238.428C340.954 238.434 340.929 238.434 340.91 238.434Z" fill="#2F2E41"/>
<path d="M334.758 176.33C337.338 176.33 339.429 174.239 339.429 171.659C339.429 169.08 337.338 166.989 334.758 166.989C332.178 166.989 330.086 169.08 330.086 171.659C330.086 174.239 332.178 176.33 334.758 176.33Z" fill="#FFB8B8"/>
<path d="M331.892 209.101C331.075 209.114 330.258 208.999 329.467 208.763C328.057 208.335 326.883 207.346 326.225 206.026C326.123 205.828 326.098 205.598 326.161 205.387C326.678 203.626 329.167 194.483 327.578 187.215C327.125 185.173 327.521 183.036 328.676 181.294C329.805 179.565 331.586 178.365 333.609 177.976C333.87 177.925 334.138 177.88 334.394 177.848C336.64 177.574 338.893 178.314 340.533 179.871C342.224 181.46 343.118 183.712 342.971 186.028L341.752 205.63C341.733 205.93 341.56 206.198 341.292 206.332C339.895 207.066 335.664 209.101 331.892 209.101Z" fill="#3F3D56"/>
<path d="M340.035 168.22C339.033 165.706 336.41 164.232 333.743 164.685L335.217 165.878C333.386 165.942 331.458 165.808 330.15 167.09C330.565 167.078 331.114 167.971 331.528 167.958C330.75 167.971 330.042 168.52 329.703 169.222C329.384 169.936 329.308 170.74 329.493 171.506C329.646 172.272 330.82 174.058 331.133 174.766C331.075 172.91 334.738 168.475 336.525 168.934C335.619 169.273 334.828 169.872 334.26 170.651C335.479 170.038 336.851 169.815 338.197 170.006C338.504 170.077 338.823 170.096 339.135 170.057C339.754 169.936 340.163 169.33 340.035 168.711C340.003 168.532 339.927 168.367 339.812 168.226L340.035 168.22Z" fill="#2F2E41"/>
<path d="M331.573 207.928C331.452 207.928 331.337 207.902 331.229 207.858L322.358 203.985C321.969 203.819 321.758 203.391 321.873 202.983L327.744 180.81C328.197 179.093 329.952 178.072 331.669 178.525C331.688 178.532 331.707 178.538 331.733 178.545L334.081 179.215L332.428 207.124C332.409 207.405 332.256 207.66 332.02 207.8C331.879 207.883 331.726 207.928 331.573 207.928Z" fill="#FFA500"/>
<path d="M347.987 202.977L347.598 201.503L347.03 199.365L346.755 198.338L346.187 196.207L342.109 180.797C341.656 179.087 339.901 178.06 338.191 178.513C338.165 178.519 338.146 178.526 338.121 178.532L335.772 179.202L336.934 198.835L337.055 200.884L337.132 202.173L337.253 204.208L337.425 207.105C337.457 207.558 337.827 207.909 338.28 207.909C338.395 207.909 338.516 207.883 338.625 207.839L347.495 203.966C347.891 203.819 348.095 203.385 347.987 202.977Z" fill="#FFA500"/>
<path d="M346.755 198.344L337.061 200.89L336.947 198.842L346.194 196.207L346.755 198.344Z" fill="#CCCCCC"/>
<path d="M347.598 201.509L337.259 204.221L337.138 202.185V202.179L347.03 199.372L347.598 201.509Z" fill="#CCCCCC"/>
<path d="M332.792 199.282L332.671 201.292L323.168 198.459L323.724 196.354L332.792 199.282Z" fill="#CCCCCC"/>
<path d="M332.594 202.619L322.894 199.486L322.339 201.598L332.479 204.616L332.594 202.619Z" fill="#CCCCCC"/>
<path d="M323.066 204.718C324.158 204.431 324.815 203.315 324.528 202.224C324.496 202.109 324.458 201.994 324.407 201.885L328.969 187.573L325.734 186.897L321.548 200.928C320.552 201.471 320.182 202.721 320.724 203.717C321.177 204.552 322.147 204.967 323.066 204.718Z" fill="#FFB8B8"/>
<path d="M329.091 180.535C330.022 180.631 330.539 181.671 330.309 182.972L329.199 189.213C329.116 189.678 328.733 190.049 328.414 189.972L324.668 189.034C324.381 188.964 324.272 188.555 324.438 188.141L326.691 182.5C327.176 181.269 328.191 180.439 329.091 180.535Z" fill="#3F3D56"/>
<path d="M334.738 162.912C338.025 162.912 340.724 165.521 340.827 168.807H341.975C342.186 168.807 342.358 168.98 342.358 169.19V170.715C342.358 170.926 342.186 171.098 341.975 171.098H329.033C328.823 171.098 328.65 170.926 328.65 170.715V169.005C328.65 165.636 331.375 162.912 334.738 162.912Z" fill="#FFA500"/>
<path d="M335.466 200.551H332.779C332.6 200.551 332.447 200.417 332.435 200.239L331.898 194.719H336.359L335.823 200.239C335.798 200.417 335.645 200.551 335.466 200.551Z" fill="#E6E6E6"/>
<path d="M336.34 195.415H331.899C331.707 195.415 331.554 195.262 331.554 195.071V194.235C331.554 194.043 331.707 193.89 331.899 193.89H336.34C336.532 193.89 336.685 194.043 336.685 194.235V195.071C336.691 195.262 336.538 195.415 336.34 195.415Z" fill="#CCCCCC"/>
<path d="M334.177 197.59C334.279 197.603 334.388 197.622 334.49 197.654L341.656 191.509L341.235 189.257L344.554 188.179L345.683 192.096C345.868 192.747 345.607 193.443 345.032 193.807L335.958 199.549C335.977 200.653 335.096 201.559 333.992 201.578C332.888 201.597 331.982 200.717 331.963 199.613C331.943 198.509 332.824 197.603 333.928 197.584C334.017 197.578 334.094 197.584 334.177 197.59Z" fill="#FFB8B8"/>
<path d="M341.669 181.052C342.658 180.772 343.654 181.531 343.985 182.813L345.581 188.984C345.702 189.443 345.466 189.941 345.109 189.992L340.865 190.604C340.539 190.649 340.252 190.317 340.239 189.877L340.074 183.802C340.035 182.482 340.712 181.32 341.669 181.052Z" fill="#3F3D56"/>
<path d="M398.734 220.466C396.781 217.869 395.237 214.985 394.152 211.916C394.024 211.54 394.184 211.118 394.541 210.933L401.229 207.347C401.446 207.226 401.708 207.22 401.938 207.316C402.167 207.418 402.34 207.622 402.404 207.864C403.182 210.819 404.644 213.55 406.673 215.834C406.845 216.025 406.915 216.28 406.871 216.529C406.826 216.772 406.673 216.989 406.456 217.104L399.768 220.69C399.417 220.881 398.977 220.785 398.734 220.466Z" fill="#CCCCCC"/>
<path d="M399.194 220.127C399.27 220.222 399.398 220.248 399.5 220.191L406.188 216.605C406.252 216.573 406.303 216.509 406.309 216.432C406.322 216.356 406.303 216.273 406.245 216.215C404.159 213.861 402.646 211.053 401.848 208.01C401.829 207.933 401.778 207.869 401.702 207.837C401.631 207.805 401.555 207.812 401.491 207.844L394.803 211.43C394.701 211.487 394.65 211.608 394.688 211.723C395.754 214.741 397.273 217.574 399.194 220.127Z" fill="white"/>
<path d="M401.67 212.465L398.026 214.072C397.739 214.2 397.4 214.066 397.273 213.779L397.183 213.575C397.056 213.288 397.19 212.949 397.477 212.822L401.121 211.214C401.408 211.086 401.746 211.22 401.874 211.507L401.963 211.712C402.084 211.999 401.957 212.337 401.67 212.465Z" fill="#CCCCCC"/>
<path d="M402.997 214.94L399.353 216.548C399.066 216.675 398.728 216.541 398.6 216.254L398.511 216.05C398.383 215.763 398.517 215.425 398.804 215.297L402.448 213.689C402.736 213.561 403.074 213.695 403.201 213.983L403.291 214.187C403.418 214.474 403.291 214.812 402.997 214.94Z" fill="#CCCCCC"/>
<path d="M394.458 212.879C393.508 212.267 393.233 211.003 393.846 210.053C393.91 209.95 393.986 209.855 394.069 209.765L392.531 187.969L396.954 188.396L397.075 209.746C397.854 210.569 397.815 211.871 396.992 212.649C396.296 213.3 395.25 213.396 394.458 212.879Z" fill="#A0616A"/>
<path d="M393.527 195.293C393.316 195.14 393.189 194.904 393.176 194.649L392.85 188.772C392.78 187.47 393.776 186.36 395.078 186.284C396.188 186.22 397.196 186.947 397.483 188.019L398.907 193.271C399.028 193.73 398.76 194.196 398.307 194.323L394.254 195.421C394.005 195.491 393.737 195.446 393.527 195.293Z" fill="#3F3D56"/>
<path d="M385.984 239.678H383.654L382.544 230.674H385.984V239.678Z" fill="#A0616A"/>
<path d="M381.989 239.008H386.488V241.841H379.155C379.155 240.278 380.419 239.008 381.989 239.008Z" fill="#2F2E41"/>
<path d="M394.739 239.678H392.41L391.299 230.674H394.739V239.678Z" fill="#A0616A"/>
<path d="M390.738 239.008H395.237V241.841H387.904C387.911 240.278 389.174 239.008 390.738 239.008Z" fill="#2F2E41"/>
<path d="M385.875 235.141L383.31 235.02C382.856 235.001 382.499 234.624 382.493 234.171C381.816 223.72 380.878 212.515 382.314 208.189C382.308 207.717 382.691 207.328 383.163 207.328C383.207 207.328 383.246 207.328 383.29 207.334L393.565 208.827C393.986 208.885 394.299 209.242 394.299 209.669C395.614 214.793 395.671 224.09 395.62 233.75C395.626 234.222 395.243 234.612 394.771 234.612H394.765H391.995C391.574 234.612 391.21 234.305 391.146 233.891L389.436 223.031C389.379 222.667 389.04 222.418 388.677 222.476C388.383 222.52 388.153 222.756 388.121 223.056L386.762 234.395C386.711 234.822 386.347 235.148 385.913 235.148C385.901 235.141 385.888 235.141 385.875 235.141Z" fill="#2F2E41"/>
<path d="M387.681 209.663C385.416 208.406 383.648 208.075 382.793 207.992C382.563 207.972 382.352 207.858 382.212 207.673C382.065 207.488 382.001 207.258 382.033 207.028L384.497 188.754C384.784 186.578 386.181 184.708 388.179 183.815C390.119 182.922 392.378 183.1 394.152 184.281C394.235 184.338 394.318 184.396 394.401 184.453C396.456 185.959 397.407 188.556 396.807 191.032C395.294 197.208 394.778 207.334 394.688 209.3C394.675 209.644 394.452 209.944 394.133 210.059C393.201 210.397 392.225 210.569 391.236 210.576C389.998 210.582 388.772 210.27 387.681 209.663Z" fill="#3F3D56"/>
<path d="M389.742 181.327C392.322 181.327 394.414 179.236 394.414 176.656C394.414 174.077 392.322 171.985 389.742 171.985C387.163 171.985 385.071 174.077 385.071 176.656C385.071 179.236 387.163 181.327 389.742 181.327Z" fill="#A0616A"/>
<path d="M393.054 180.35C392.18 181.282 390.566 180.778 390.451 179.514C390.444 179.419 390.444 179.316 390.451 179.221C390.508 178.659 390.834 178.149 390.757 177.555C390.738 177.409 390.687 177.268 390.597 177.147C389.902 176.215 388.275 177.562 387.617 176.719C387.215 176.203 387.687 175.392 387.381 174.812C386.973 174.052 385.767 174.429 385.013 174.008C384.171 173.542 384.222 172.253 384.777 171.468C385.454 170.511 386.641 170.001 387.809 169.924C388.977 169.847 390.138 170.166 391.236 170.594C392.474 171.079 393.705 171.749 394.471 172.84C395.403 174.167 395.492 175.954 395.026 177.504C394.726 178.442 393.763 179.597 393.054 180.35Z" fill="#2F2E41"/>
<path d="M396.756 184.9C396.673 184.517 395.971 183.988 394.969 183.56C391.695 182.233 387.981 182.552 384.975 184.415C384.765 184.428 384.586 184.581 384.541 184.785L381.159 199.735L380.719 201.682L380.425 202.97L379.985 204.91L379.749 205.95C379.691 206.206 379.851 206.461 380.106 206.518C380.125 206.525 380.144 206.525 380.17 206.531L394.765 207.788C394.777 207.788 394.79 207.788 394.809 207.788C395.058 207.788 395.262 207.59 395.282 207.341L395.422 205.229L395.569 202.97L395.633 201.988L395.779 199.735L396.749 184.926V184.913L396.756 184.9Z" fill="#FFA500"/>
<path d="M372.805 185.838C372.831 185.94 372.844 186.042 372.85 186.151L381.025 190.866L383.01 189.724L385.128 192.499L380.878 195.53L371.555 188.167C370.521 188.55 369.372 188.02 368.989 186.986C368.606 185.953 369.136 184.804 370.17 184.421C371.204 184.039 372.352 184.568 372.735 185.602C372.761 185.678 372.786 185.755 372.805 185.838Z" fill="#A0616A"/>
<path d="M381.319 190.464C381.293 190.209 381.382 189.954 381.567 189.769L385.728 185.609C386.647 184.69 388.147 184.69 389.066 185.609C389.851 186.393 389.985 187.625 389.379 188.563L386.418 193.125C386.162 193.521 385.633 193.636 385.231 193.38L381.708 191.096C381.484 190.956 381.344 190.72 381.319 190.464Z" fill="#3F3D56"/>
<path d="M395.779 199.735L395.639 201.987L380.719 201.681L381.159 199.735H395.779Z" fill="#CCCCCC"/>
<path d="M395.569 202.97L395.422 205.229L379.985 204.91L380.425 202.97H395.569Z" fill="#CCCCCC"/>
<path d="M389.838 167.576C386.552 167.576 383.852 170.185 383.75 173.471H382.601C382.391 173.471 382.218 173.644 382.218 173.854V175.379C382.218 175.59 382.391 175.762 382.601 175.762H395.543C395.754 175.762 395.926 175.59 395.926 175.379V173.669C395.926 170.3 393.201 167.576 389.838 167.576Z" fill="#FFA500"/>
<path d="M415.493 242.167H279.983C279.881 242.167 279.792 242.084 279.792 241.975C279.792 241.873 279.875 241.784 279.983 241.784H415.486C415.588 241.784 415.678 241.867 415.678 241.975C415.678 242.084 415.595 242.167 415.493 242.167Z" fill="#CCCCCC"/>
</g>
<g clip-path="url(#clip0)" filter="url(#filter5_d)">
<path d="M477.87 262.751C478.125 262.751 478.379 262.751 478.634 262.751C490.737 263.165 500.196 273.326 499.782 285.43C499.368 297.215 489.686 306.579 477.87 306.579C477.615 306.579 477.36 306.579 477.105 306.579C465.003 306.165 455.543 296.004 455.957 283.901C456.403 272.116 466.085 262.783 477.87 262.751ZM477.902 257.336V262.751V257.336C462.805 257.336 450.575 269.599 450.575 284.697C450.575 299.413 462.264 311.484 476.978 311.994C477.296 311.994 477.615 312.026 477.933 312.026C493.03 312.026 505.26 299.763 505.26 284.665C505.26 269.95 493.571 257.878 478.857 257.368C478.539 257.368 478.188 257.336 477.902 257.336Z" fill="#CCCCCC"/>
<path d="M475.033 250.82L474.799 257.569L481.196 257.791L481.431 251.042L475.033 250.82Z" fill="#CCCCCC"/>
<path d="M492.752 254.187L489.075 259.851L494.445 263.337L498.122 257.673L492.752 254.187Z" fill="#CCCCCC"/>
<path d="M506.018 265.706L500.003 268.773L502.91 274.477L508.926 271.41L506.018 265.706Z" fill="#CCCCCC"/>
<path d="M502.538 296.295L498.959 301.604L504.558 305.379L508.137 300.07L502.538 296.295Z" fill="#CCCCCC"/>
<path d="M451.169 263.808L447.872 269.297L453.661 272.774L456.957 267.285L451.169 263.808Z" fill="#CCCCCC"/>
<path d="M452.511 294.588L446.664 297.966L449.866 303.509L455.713 300.132L452.511 294.588Z" fill="#CCCCCC"/>
<path d="M465.199 253.24L459.6 256.345L462.875 262.25L468.473 259.145L465.199 253.24Z" fill="#CCCCCC"/>
<path d="M472.921 311.53L472.686 318.278L479.084 318.5L479.318 311.752L472.921 311.53Z" fill="#CCCCCC"/>
<path d="M492.932 307.137L487.333 310.242L490.608 316.147L496.207 313.042L492.932 307.137Z" fill="#CCCCCC"/>
<path d="M461.341 306.032L457.664 311.696L463.034 315.182L466.711 309.518L461.341 306.032Z" fill="#CCCCCC"/>
<path d="M443.605 280.797L443.407 286.526L451.173 286.796L451.372 281.066L443.605 280.797Z" fill="#CCCCCC"/>
<path d="M504.637 282.906L504.438 288.636L512.204 288.906L512.403 283.176L504.637 282.906Z" fill="#CCCCCC"/>
</g>
<g clip-path="url(#clip1)" filter="url(#filter6_d)">
<path d="M536.079 268.649C536.173 268.649 536.267 268.649 536.361 268.649C540.83 268.802 544.323 272.557 544.171 277.029C544.018 281.384 540.442 284.844 536.079 284.844C535.985 284.844 535.891 284.844 535.797 284.844C531.327 284.691 527.834 280.936 527.987 276.464C528.152 272.109 531.727 268.661 536.079 268.649ZM536.091 266.648V268.649V266.648C530.516 266.648 526 271.18 526 276.758C526 282.196 530.316 286.656 535.75 286.845C535.867 286.845 535.985 286.856 536.102 286.856C541.677 286.856 546.193 282.325 546.193 276.747C546.193 271.309 541.877 266.849 536.443 266.66C536.326 266.66 536.197 266.648 536.091 266.648Z" fill="#CCCCCC"/>
<path d="M535.031 264.241L534.945 266.734L537.307 266.816L537.394 264.323L535.031 264.241Z" fill="#CCCCCC"/>
<path d="M541.575 265.484L540.217 267.577L542.2 268.865L543.557 266.772L541.575 265.484Z" fill="#CCCCCC"/>
<path d="M546.473 269.74L544.252 270.873L545.326 272.981L547.547 271.847L546.473 269.74Z" fill="#CCCCCC"/>
<path d="M545.188 281.043L543.867 283.005L545.934 284.4L547.256 282.438L545.188 281.043Z" fill="#CCCCCC"/>
<path d="M526.219 269.039L525.002 271.067L527.139 272.352L528.356 270.324L526.219 269.039Z" fill="#CCCCCC"/>
<path d="M526.715 280.413L524.556 281.661L525.738 283.709L527.897 282.461L526.715 280.413Z" fill="#CCCCCC"/>
<path d="M531.4 265.134L529.333 266.282L530.542 268.464L532.609 267.316L531.4 265.134Z" fill="#CCCCCC"/>
<path d="M534.251 286.673L534.165 289.167L536.527 289.249L536.614 286.755L534.251 286.673Z" fill="#CCCCCC"/>
<path d="M541.641 285.049L539.574 286.196L540.783 288.378L542.85 287.231L541.641 285.049Z" fill="#CCCCCC"/>
<path d="M529.975 284.642L528.618 286.735L530.601 288.023L531.958 285.93L529.975 284.642Z" fill="#CCCCCC"/>
<path d="M523.426 275.317L523.353 277.434L526.221 277.534L526.294 275.416L523.426 275.317Z" fill="#CCCCCC"/>
<path d="M545.963 276.097L545.89 278.214L548.758 278.313L548.831 276.196L545.963 276.097Z" fill="#CCCCCC"/>
</g>
<g clip-path="url(#clip2)" filter="url(#filter7_d)">
<path d="M514.96 222.274C515.085 222.274 515.21 222.274 515.335 222.274C521.272 222.477 525.912 227.46 525.709 233.395C525.506 239.174 520.756 243.767 514.96 243.767C514.835 243.767 514.71 243.767 514.585 243.767C508.648 243.563 504.007 238.581 504.21 232.645C504.429 226.866 509.179 222.29 514.96 222.274ZM514.975 219.619V222.274V219.619C507.57 219.619 501.57 225.632 501.57 233.036C501.57 240.252 507.304 246.172 514.522 246.422C514.679 246.422 514.835 246.437 514.991 246.437C522.397 246.437 528.397 240.424 528.397 233.02C528.397 225.804 522.663 219.884 515.444 219.634C515.288 219.634 515.116 219.619 514.975 219.619Z" fill="#CCCCCC"/>
<path d="M513.568 216.423L513.453 219.732L516.592 219.841L516.707 216.532L513.568 216.423Z" fill="#CCCCCC"/>
<path d="M522.26 218.074L520.457 220.852L523.091 222.561L524.895 219.783L522.26 218.074Z" fill="#CCCCCC"/>
<path d="M528.768 223.723L525.817 225.227L527.244 228.024L530.195 226.52L528.768 223.723Z" fill="#CCCCCC"/>
<path d="M527.061 238.723L525.306 241.327L528.052 243.178L529.808 240.574L527.061 238.723Z" fill="#CCCCCC"/>
<path d="M501.861 222.792L500.244 225.484L503.084 227.189L504.701 224.497L501.861 222.792Z" fill="#CCCCCC"/>
<path d="M502.52 237.886L499.651 239.542L501.222 242.261L504.09 240.604L502.52 237.886Z" fill="#CCCCCC"/>
<path d="M508.744 217.61L505.997 219.133L507.604 222.029L510.35 220.506L508.744 217.61Z" fill="#CCCCCC"/>
<path d="M512.532 246.195L512.417 249.504L515.556 249.613L515.671 246.303L512.532 246.195Z" fill="#CCCCCC"/>
<path d="M522.349 244.04L519.602 245.563L521.209 248.459L523.955 246.936L522.349 244.04Z" fill="#CCCCCC"/>
<path d="M506.851 243.498L505.048 246.276L507.682 247.985L509.485 245.208L506.851 243.498Z" fill="#CCCCCC"/>
<path d="M498.151 231.123L498.053 233.933L501.863 234.065L501.961 231.255L498.151 231.123Z" fill="#CCCCCC"/>
<path d="M528.091 232.157L527.993 234.967L531.803 235.1L531.901 232.29L528.091 232.157Z" fill="#CCCCCC"/>
</g>
<g clip-path="url(#clip3)">
<path opacity="0.1" d="M493.944 91.6201C486.888 94.8292 477.797 94.6016 477.797 94.6016H467.953V92.7229C471.959 91.6026 477.505 90.9083 483.634 90.9083C487.081 90.9025 490.527 91.1359 493.944 91.6201Z" fill="black"/>
<path opacity="0.1" d="M505.771 97.0638C505.771 100.465 495.857 103.214 483.634 103.214C471.411 103.214 461.497 100.465 461.497 97.0638C461.497 95.3718 463.964 93.8314 467.953 92.7229V94.6016H477.791C477.791 94.6016 486.882 94.8292 493.938 91.6201C500.971 92.647 505.771 94.7008 505.771 97.0638Z" fill="black"/>
<path d="M486.462 58.7598H477.044V68.2002H486.462V58.7598Z" fill="#2F2E41"/>
<path d="M480.543 65.4351C480.543 65.4351 481.325 68.1657 479.96 68.3583C479.115 68.4925 478.31 68.825 477.622 69.3326L480.153 72.6467H484.829L487.751 69.7236C487.751 69.7236 483.856 66.8004 484.631 65.0442C485.407 63.288 480.543 65.4351 480.543 65.4351Z" fill="#FFB9B9"/>
<path opacity="0.1" d="M480.543 65.4351C480.543 65.4351 481.325 68.1657 479.96 68.3583C479.115 68.4925 478.31 68.825 477.622 69.3326L480.153 72.6467H484.829L487.751 69.7236C487.751 69.7236 483.856 66.8004 484.631 65.0442C485.407 63.288 480.543 65.4351 480.543 65.4351Z" fill="black"/>
<path d="M481.715 99.3686L486.194 100.926L489.314 101.119L489.122 98.3943L482.689 96.4863L481.715 99.3686Z" fill="#FFB9B9"/>
<path d="M487.465 98.779C487.465 98.779 487.465 101.51 487.856 101.51C488.247 101.51 493.507 100.926 495.07 101.51C496.633 102.093 498.965 99.9517 497.799 98.779C496.627 97.6062 494.72 95.8558 493.53 96.2467C492.341 96.6376 487.465 97.612 487.465 97.612V98.779Z" fill="#2F2E41"/>
<path d="M473.137 96.2471C473.137 96.2471 470.799 100.926 472.356 101.317C473.913 101.708 475.668 101.125 475.866 100.926C476.059 100.734 478.788 99.9521 479.179 100.343C479.569 100.734 479.569 98.7851 479.569 98.7851L473.137 96.2471Z" fill="#2F2E41"/>
<path d="M475.085 89.811C475.085 89.811 471.382 94.8813 474.111 96.2467C476.84 97.612 489.897 97.612 490.871 96.2467C491.845 94.8813 492.236 90.5929 490.871 90.202C489.512 89.811 475.085 89.811 475.085 89.811Z" fill="#2F2E41"/>
<path opacity="0.2" d="M475.085 89.811C475.085 89.811 471.382 94.8813 474.111 96.2467C476.84 97.612 489.897 97.612 490.871 96.2467C491.845 94.8813 492.236 90.5929 490.871 90.202C489.512 89.811 475.085 89.811 475.085 89.811Z" fill="black"/>
<path d="M482.106 66.8043C484.583 66.8043 486.591 64.7954 486.591 62.3174C486.591 59.8394 484.583 57.8306 482.106 57.8306C479.629 57.8306 477.622 59.8394 477.622 62.3174C477.622 64.7954 479.629 66.8043 482.106 66.8043Z" fill="#FFB9B9"/>
<path d="M475.085 69.337L478.98 68.5552C478.98 68.5552 479.954 71.6767 483.074 71.0874C486.194 70.4981 486.97 68.5552 486.97 68.5552C486.97 68.5552 489.308 69.5296 489.5 69.5296C489.693 69.5296 492.23 70.5039 492.23 71.0874C492.23 71.6709 489.314 77.523 489.314 77.523L489.705 88.0546L475.283 87.6637L476.257 77.3305L475.085 69.337Z" fill="#FFA500"/>
<path d="M472.945 74.4087C472.945 74.4087 471.773 84.7419 472.554 85.5237C473.336 86.3055 476.45 88.4469 476.45 88.4469V86.1072L474.893 83.184L476.45 76.3575L472.945 74.4087Z" fill="#FFB9B9"/>
<path d="M493.116 74.1167C493.116 74.1167 492.434 84.7416 492.434 85.1325C492.434 85.5234 490.679 86.8887 490.095 86.8887C489.512 86.8887 489.122 85.9144 489.122 85.9144L490.486 84.3565L489.512 76.363L493.116 74.1167Z" fill="#FFB9B9"/>
<path d="M491.262 89.0297C491.262 89.0297 500.032 84.1519 500.225 89.0297C500.417 93.9075 495.74 95.8563 495.74 95.8563C495.74 95.8563 483.657 99.4796 483.168 98.1551C482.678 96.8306 481.704 94.6835 482.485 94.4909C483.267 94.2984 484.241 93.9075 484.631 94.2984C485.022 94.6893 489.891 91.3752 489.891 91.3752L491.262 89.0297Z" fill="#2F2E41"/>
<path opacity="0.2" d="M495.355 88.4463C495.355 88.4463 493.6 89.2281 493.017 89.8116C492.434 90.3951 489.897 91.3694 489.897 91.3694" stroke="black" stroke-width="0.252989" stroke-miterlimit="10"/>
<path d="M476.257 69.7283L475.085 69.3374C475.085 69.3374 470.799 73.8242 472.163 74.9912C473.528 76.1639 474.309 76.549 474.694 76.94C475.085 77.3309 477.033 77.5234 477.033 77.5234L476.257 69.7283Z" fill="#FFA500"/>
<path d="M490.486 70.7021L492.241 71.0931C492.241 71.0931 493.606 74.0162 493.997 74.4072C494.387 74.7981 493.413 74.5997 492.824 75.3815C492.235 76.1634 491.652 77.5287 490.486 77.5287C489.314 77.5287 487.757 75.5799 487.757 75.5799L490.486 70.7021Z" fill="#FFA500"/>
<path d="M475.476 90.7857C475.476 90.7857 468.07 85.5229 465.539 89.4204C463.008 93.318 476.455 98.5867 478.403 99.3627C480.351 100.139 482.106 100.921 482.106 100.921C482.106 100.921 483.861 96.6321 483.861 95.8502C483.861 95.0684 482.497 95.0684 482.106 95.0684C481.715 95.0684 479.96 94.6775 479.575 94.094C479.179 93.5164 475.476 90.7857 475.476 90.7857Z" fill="#2F2E41"/>
<path opacity="0.2" d="M471.382 89.4194C471.382 89.4194 473.33 90.9773 475.085 91.3682C476.84 91.7591 477.424 92.7335 477.424 92.7335" stroke="black" stroke-width="0.252989" stroke-miterlimit="10"/>
<path d="M474.134 82.0927L474.292 90.3487C474.304 90.9147 474.77 91.3698 475.336 91.364L490.69 91.1889C491.233 91.1831 491.682 90.7572 491.711 90.2145L492.177 82.1336C492.212 81.5618 491.775 81.0775 491.203 81.0425C491.186 81.0425 491.163 81.0425 491.145 81.0425H475.167C474.595 81.0425 474.134 81.5034 474.134 82.0752C474.134 82.0752 474.134 82.081 474.134 82.0927Z" fill="#575A89"/>
<path d="M472.356 69.3842C472.776 68.4623 473.336 67.5929 473.604 66.6185C473.924 65.4458 473.802 64.2088 473.761 62.9894C473.703 61.9158 473.79 60.8364 474.035 59.792C474.28 58.7359 474.828 57.779 475.616 57.038C477.657 55.2118 481.395 55.0834 483.891 55.8419C484.876 56.1395 485.92 56.7113 486.165 57.709C486.2 57.8607 486.217 58.0124 486.258 58.1641C486.462 58.9051 487.22 59.3777 487.495 60.1012C487.85 61.0348 487.302 62.05 487.232 63.0419C487.15 64.203 487.722 65.2999 488.282 66.321C488.614 66.9278 488.964 67.5754 488.929 68.2639C488.9 68.6432 488.789 69.0107 488.591 69.3375C487.862 70.5394 486.567 71.2863 485.162 71.3038C484.713 71.3388 484.264 71.2338 483.879 71.0004C483.272 70.5803 483.092 69.7342 483.22 69.0107C483.348 68.2873 483.716 67.6221 484.007 66.9453C484.095 66.7352 484.176 66.5252 484.252 66.3093C486.357 65.1365 487.11 62.4759 485.932 60.3696C484.76 58.2633 482.1 57.5107 479.995 58.6893C477.89 59.862 477.138 62.5226 478.316 64.6289C478.957 65.7784 480.077 66.5719 481.371 66.7994C481.587 67.9022 481.488 69.0399 481.086 70.0843C480.718 70.9362 480.252 71.7414 479.704 72.4882C479.482 72.8733 479.179 73.2059 478.823 73.4743C478.59 73.6143 478.339 73.7193 478.077 73.7952C476.974 74.1511 475.814 74.437 474.671 74.2736C473.528 74.1161 472.391 73.4217 472 72.3365C471.662 71.3738 471.936 70.306 472.356 69.3842Z" fill="#2F2E41"/>
<path d="M481.885 62.4933C484.513 62.4933 486.643 61.2864 486.643 59.7977C486.643 58.3089 484.513 57.1021 481.885 57.1021C479.257 57.1021 477.126 58.3089 477.126 59.7977C477.126 61.2864 479.257 62.4933 481.885 62.4933Z" fill="#2F2E41"/>
</g>
<defs>
<filter id="filter0_d" x="69.2712" y="0" width="519.848" height="358.106" filterUnits="userSpaceOnUse" color-interpolation-filters="sRGB">
<feFlood flood-opacity="0" result="BackgroundImageFix"/>
<feColorMatrix in="SourceAlpha" type="matrix" values="0 0 0 0 0 0 0 0 0 0 0 0 0 0 0 0 0 0 127 0"/>
<feOffset dx="5.05978" dy="5.05978"/>
<feGaussianBlur stdDeviation="2.52989"/>
<feColorMatrix type="matrix" values="0 0 0 0 0 0 0 0 0 0 0 0 0 0 0 0 0 0 1 0"/>
<feBlend mode="normal" in2="BackgroundImageFix" result="effect1_dropShadow"/>
<feBlend mode="normal" in="SourceGraphic" in2="effect1_dropShadow" result="shape"/>
</filter>
<filter id="filter1_d" x="388.549" y="6.06201" width="149.14" height="85.8378" filterUnits="userSpaceOnUse" color-interpolation-filters="sRGB">
<feFlood flood-opacity="0" result="BackgroundImageFix"/>
<feColorMatrix in="SourceAlpha" type="matrix" values="0 0 0 0 0 0 0 0 0 0 0 0 0 0 0 0 0 0 127 0"/>
<feOffset dx="3.79484" dy="0.505978"/>
<feGaussianBlur stdDeviation="0.252989"/>
<feColorMatrix type="matrix" values="0 0 0 0 0 0 0 0 0 0 0 0 0 0 0 0 0 0 0.25 0"/>
<feBlend mode="normal" in2="BackgroundImageFix" result="effect1_dropShadow"/>
<feBlend mode="normal" in="SourceGraphic" in2="effect1_dropShadow" result="shape"/>
</filter>
<filter id="filter2_d" x="185.918" y="92.1382" width="251.786" height="154.828" filterUnits="userSpaceOnUse" color-interpolation-filters="sRGB">
<feFlood flood-opacity="0" result="BackgroundImageFix"/>
<feColorMatrix in="SourceAlpha" type="matrix" values="0 0 0 0 0 0 0 0 0 0 0 0 0 0 0 0 0 0 127 0"/>
<feOffset dx="1.89742" dy="0.505978"/>
<feGaussianBlur stdDeviation="0.252989"/>
<feColorMatrix type="matrix" values="0 0 0 0 0 0 0 0 0 0 0 0 0 0 0 0 0 0 0.25 0"/>
<feBlend mode="normal" in2="BackgroundImageFix" result="effect1_dropShadow"/>
<feBlend mode="normal" in="SourceGraphic" in2="effect1_dropShadow" result="shape"/>
</filter>
<filter id="filter3_d" x="0.929749" y="219.865" width="264.627" height="106.422" filterUnits="userSpaceOnUse" color-interpolation-filters="sRGB">
<feFlood flood-opacity="0" result="BackgroundImageFix"/>
<feColorMatrix in="SourceAlpha" type="matrix" values="0 0 0 0 0 0 0 0 0 0 0 0 0 0 0 0 0 0 127 0"/>
<feOffset dx="0.632473" dy="0.505978"/>
<feGaussianBlur stdDeviation="0.252989"/>
<feColorMatrix type="matrix" values="0 0 0 0 0 0 0 0 0 0 0 0 0 0 0 0 0 0 0.25 0"/>
<feBlend mode="normal" in2="BackgroundImageFix" result="effect1_dropShadow"/>
<feBlend mode="normal" in="SourceGraphic" in2="effect1_dropShadow" result="shape"/>
</filter>
<filter id="filter4_d" x="279.792" y="162.912" width="138.289" height="80.2668" filterUnits="userSpaceOnUse" color-interpolation-filters="sRGB">
<feFlood flood-opacity="0" result="BackgroundImageFix"/>
<feColorMatrix in="SourceAlpha" type="matrix" values="0 0 0 0 0 0 0 0 0 0 0 0 0 0 0 0 0 0 127 0"/>
<feOffset dx="1.89742" dy="0.505978"/>
<feGaussianBlur stdDeviation="0.252989"/>
<feColorMatrix type="matrix" values="0 0 0 0 0 0 0 0 0 0 0 0 0 0 0 0 0 0 0.25 0"/>
<feBlend mode="normal" in2="BackgroundImageFix" result="effect1_dropShadow"/>
<feBlend mode="normal" in="SourceGraphic" in2="effect1_dropShadow" result="shape"/>
</filter>
<filter id="filter5_d" x="443.409" y="250.838" width="71.9899" height="68.6649" filterUnits="userSpaceOnUse" color-interpolation-filters="sRGB">
<feFlood flood-opacity="0" result="BackgroundImageFix"/>
<feColorMatrix in="SourceAlpha" type="matrix" values="0 0 0 0 0 0 0 0 0 0 0 0 0 0 0 0 0 0 127 0"/>
<feOffset dx="2.52989" dy="0.505978"/>
<feGaussianBlur stdDeviation="0.252989"/>
<feColorMatrix type="matrix" values="0 0 0 0 0 0 0 0 0 0 0 0 0 0 0 0 0 0 0.25 0"/>
<feBlend mode="normal" in2="BackgroundImageFix" result="effect1_dropShadow"/>
<feBlend mode="normal" in="SourceGraphic" in2="effect1_dropShadow" result="shape"/>
</filter>
<filter id="filter6_d" x="523.353" y="264.247" width="28.4987" height="26.0101" filterUnits="userSpaceOnUse" color-interpolation-filters="sRGB">
<feFlood flood-opacity="0" result="BackgroundImageFix"/>
<feColorMatrix in="SourceAlpha" type="matrix" values="0 0 0 0 0 0 0 0 0 0 0 0 0 0 0 0 0 0 127 0"/>
<feOffset dx="2.52989" dy="0.505978"/>
<feGaussianBlur stdDeviation="0.252989"/>
<feColorMatrix type="matrix" values="0 0 0 0 0 0 0 0 0 0 0 0 0 0 0 0 0 0 0.25 0"/>
<feBlend mode="normal" in2="BackgroundImageFix" result="effect1_dropShadow"/>
<feBlend mode="normal" in="SourceGraphic" in2="effect1_dropShadow" result="shape"/>
</filter>
<filter id="filter7_d" x="498.054" y="216.432" width="36.8624" height="34.1879" filterUnits="userSpaceOnUse" color-interpolation-filters="sRGB">
<feFlood flood-opacity="0" result="BackgroundImageFix"/>
<feColorMatrix in="SourceAlpha" type="matrix" values="0 0 0 0 0 0 0 0 0 0 0 0 0 0 0 0 0 0 127 0"/>
<feOffset dx="2.52989" dy="0.505978"/>
<feGaussianBlur stdDeviation="0.252989"/>
<feColorMatrix type="matrix" values="0 0 0 0 0 0 0 0 0 0 0 0 0 0 0 0 0 0 0.25 0"/>
<feBlend mode="normal" in2="BackgroundImageFix" result="effect1_dropShadow"/>
<feBlend mode="normal" in="SourceGraphic" in2="effect1_dropShadow" result="shape"/>
</filter>
<linearGradient id="paint0_linear" x1="124.143" y1="320.875" x2="124.143" y2="219.863" gradientUnits="userSpaceOnUse">
<stop stop-color="#808080" stop-opacity="0.25"/>
<stop offset="0.54" stop-color="#808080" stop-opacity="0.12"/>
<stop offset="1" stop-color="#808080" stop-opacity="0.1"/>
</linearGradient>
<clipPath id="clip0">
<rect width="68.954" height="67.653" fill="white" transform="translate(443.409 250.838)"/>
</clipPath>
<clipPath id="clip1">
<rect width="25.4628" height="24.9981" fill="white" transform="translate(523.353 264.247)"/>
</clipPath>
<clipPath id="clip2">
<rect width="33.8265" height="33.176" fill="white" transform="translate(498.054 216.432)"/>
</clipPath>
<clipPath id="clip3">
<rect width="44.2731" height="47.8149" fill="white" transform="translate(461.497 55.4043)"/>
</clipPath>
</defs>
</svg>
