<svg width="737" height="449" viewBox="0 0 737 449" fill="none" xmlns="http://www.w3.org/2000/svg">
<g opacity="0.1" filter="url(#filter0_d)">
<path d="M415.774 81.6565C375.451 89.0727 335.192 85.892 296.459 81.2729C257.726 76.6459 219.089 70.6123 178.75 72.4263C152.806 73.5931 85.635 132.219 85.595 151.279C85.5471 165.615 86.69 180.448 96.0255 191.868C102.508 199.787 112.491 205.469 120.012 212.781C146.172 238.178 138.219 278.176 121.051 312.18C112.994 328.131 103.139 343.826 97.656 360.153C92.173 376.48 91.4377 393.981 101.261 407.295C110.988 420.497 129.811 427.937 149.425 431.797C189.277 439.629 233.676 434.77 276.629 428.177C371.702 413.536 465.793 390.704 559.683 367.929C594.42 359.498 629.316 351.027 662.781 338.872C681.364 332.103 700.291 323.688 712.296 310.582C727.546 293.975 727.93 271.263 713.231 257.694C688.566 234.942 632.737 239.984 613.658 213.972C603.164 199.651 607.736 180.192 616.088 163.01C634 126.161 668.624 89.7519 664.14 53.007C661.047 27.7937 637.42 6.91987 605.761 1.48564C572.599 -4.21231 529.974 6.59222 510.872 31.9653C491.226 58.1055 451.374 75.0875 415.774 81.6565Z" fill="#FFA500"/>
</g>
<g filter="url(#filter1_d)">
<path d="M571.497 113.831C619.007 113.831 657.522 111.473 657.522 108.564C657.522 105.656 619.007 103.298 571.497 103.298C523.986 103.298 485.471 105.656 485.471 108.564C485.471 111.473 523.986 113.831 571.497 113.831Z" fill="#3F3D56"/>
<path opacity="0.1" d="M571.497 111.961C611.966 111.961 644.774 110.401 644.774 108.476C644.774 106.552 611.966 104.992 571.497 104.992C531.027 104.992 498.219 106.552 498.219 108.476C498.219 110.401 531.027 111.961 571.497 111.961Z" fill="black"/>
<path d="M636.605 7.59131H508.762V107.885H636.605V7.59131Z" fill="#3F3D56"/>
<path d="M571.233 21.297H539.693C539.486 21.297 539.31 21.1291 539.31 20.9134C539.31 20.6976 539.478 20.5298 539.693 20.5298H571.233C571.441 20.5298 571.616 20.7056 571.616 20.9134C571.616 21.1291 571.449 21.297 571.233 21.297Z" fill="#F2F2F2"/>
<path d="M605.761 25.5089H556.159C555.951 25.5089 555.775 25.3411 555.775 25.1253C555.775 24.9095 555.943 24.7417 556.159 24.7417H605.761C605.969 24.7417 606.145 24.9095 606.145 25.1253C606.145 25.3411 605.969 25.5089 605.761 25.5089Z" fill="#F2F2F2"/>
<path d="M571.385 29.7198H539.846C539.638 29.7198 539.462 29.552 539.462 29.3362C539.462 29.1285 539.63 28.9526 539.846 28.9526H571.385C571.593 28.9526 571.768 29.1205 571.768 29.3362C571.768 29.544 571.601 29.7198 571.385 29.7198Z" fill="#F2F2F2"/>
<path d="M605.762 29.7921H574.222C574.014 29.7921 573.839 29.6243 573.839 29.4085C573.839 29.1927 574.006 29.0249 574.222 29.0249H605.762C605.969 29.0249 606.145 29.1927 606.145 29.4085C606.145 29.6243 605.969 29.7921 605.762 29.7921Z" fill="#F2F2F2"/>
<path d="M571.465 33.9239H539.925C539.718 33.9239 539.542 33.7561 539.542 33.5403C539.542 33.3246 539.71 33.1567 539.925 33.1567H571.465C571.673 33.1567 571.848 33.3246 571.848 33.5403C571.848 33.7561 571.673 33.9239 571.465 33.9239Z" fill="#F2F2F2"/>
<path d="M571.545 38.1354H540.005C539.797 38.1354 539.622 37.9675 539.622 37.7518C539.622 37.536 539.789 37.3682 540.005 37.3682H571.545C571.752 37.3682 571.928 37.536 571.928 37.7518C571.928 37.9675 571.752 38.1354 571.545 38.1354Z" fill="#F2F2F2"/>
<path d="M585.86 21.377H576.828C576.62 21.377 576.444 21.2092 576.444 20.9935C576.444 20.7777 576.612 20.6099 576.828 20.6099H585.86C586.067 20.6099 586.243 20.7777 586.243 20.9935C586.243 21.2092 586.067 21.377 585.86 21.377Z" fill="#F2F2F2"/>
<path d="M585.86 33.9239H576.828C576.62 33.9239 576.444 33.7561 576.444 33.5403C576.444 33.3246 576.612 33.1567 576.828 33.1567H585.86C586.067 33.1567 586.243 33.3246 586.243 33.5403C586.243 33.7561 586.067 33.9239 585.86 33.9239Z" fill="#F2F2F2"/>
<path d="M585.86 38.0626H576.828C576.62 38.0626 576.444 37.8948 576.444 37.679C576.444 37.4632 576.612 37.2954 576.828 37.2954H585.86C586.067 37.2954 586.243 37.4632 586.243 37.679C586.243 37.8868 586.067 38.0546 585.86 38.0626Z" fill="#F2F2F2"/>
<path d="M601.014 38.0626H591.982C591.774 38.0626 591.598 37.8868 591.598 37.679C591.598 37.4712 591.766 37.2954 591.982 37.2954H601.014C601.222 37.2954 601.397 37.4632 601.397 37.679C601.397 37.8868 601.23 38.0546 601.014 38.0626Z" fill="#F2F2F2"/>
<path d="M548.653 25.5089H539.622C539.414 25.5089 539.238 25.3411 539.238 25.1253C539.238 24.9095 539.406 24.7417 539.622 24.7417H548.653C548.861 24.7417 549.037 24.9095 549.037 25.1253C549.037 25.3411 548.861 25.5089 548.653 25.5089Z" fill="#F2F2F2"/>
<path d="M571.273 83.2955H539.733C539.526 83.2955 539.35 83.1277 539.35 82.9119C539.35 82.7041 539.518 82.5283 539.733 82.5283H571.273C571.481 82.5283 571.657 82.6961 571.657 82.9119C571.657 83.1277 571.481 83.2955 571.273 83.2955Z" fill="#F2F2F2"/>
<path d="M571.121 91.7174H539.582C539.374 91.7174 539.198 91.5496 539.198 91.3338C539.198 91.126 539.366 90.9502 539.582 90.9502H571.121C571.329 90.9502 571.505 91.118 571.505 91.3338C571.505 91.5416 571.329 91.7174 571.121 91.7174Z" fill="#F2F2F2"/>
<path d="M571.193 95.921H539.654C539.446 95.921 539.27 95.7532 539.27 95.5374C539.27 95.3216 539.438 95.1538 539.654 95.1538H571.193C571.401 95.1538 571.577 95.3216 571.577 95.5374C571.577 95.7532 571.409 95.921 571.193 95.921Z" fill="#F2F2F2"/>
<path d="M584.669 91.7906H575.637C575.429 91.7906 575.253 91.6228 575.253 91.407C575.253 91.1993 575.421 91.0234 575.637 91.0234H584.669C584.877 91.0234 585.052 91.1913 585.052 91.407C585.052 91.6228 584.885 91.7906 584.669 91.7906Z" fill="#F2F2F2"/>
<path d="M584.669 95.921H575.637C575.429 95.921 575.253 95.7532 575.253 95.5374C575.253 95.3216 575.421 95.1538 575.637 95.1538H584.669C584.877 95.1538 585.052 95.3216 585.052 95.5374C585.052 95.7532 584.885 95.921 584.669 95.921Z" fill="#F2F2F2"/>
<path d="M599.831 91.7906H590.799C590.591 91.7906 590.416 91.6228 590.416 91.407C590.416 91.1993 590.583 91.0234 590.799 91.0234H599.831C600.039 91.0234 600.215 91.1913 600.215 91.407C600.207 91.6228 600.039 91.7906 599.831 91.7906Z" fill="#F2F2F2"/>
<path d="M597.489 91.4063H547.886C547.678 91.4063 547.502 91.2385 547.502 91.0228C547.502 90.815 547.67 90.6392 547.886 90.6392H597.489C597.697 90.6392 597.873 90.807 597.873 91.0228C597.873 91.2385 597.705 91.4063 597.489 91.4063Z" fill="#F2F2F2"/>
<path d="M548.693 87.5055H539.662C539.454 87.5055 539.278 87.3376 539.278 87.1219C539.278 86.9141 539.446 86.7383 539.662 86.7383H548.693C548.901 86.7383 549.077 86.9061 549.077 87.1219C549.069 87.3296 548.901 87.5055 548.693 87.5055Z" fill="#F2F2F2"/>
<path d="M605.801 100.214H556.199C555.991 100.214 555.815 100.046 555.815 99.8304C555.815 99.6226 555.983 99.4468 556.199 99.4468H605.801C606.009 99.4468 606.185 99.6146 606.185 99.8304C606.177 100.038 606.009 100.214 605.801 100.214Z" fill="#F2F2F2"/>
<path d="M548.693 100.214H539.662C539.454 100.214 539.278 100.046 539.278 99.8304C539.278 99.6226 539.446 99.4468 539.662 99.4468H548.693C548.901 99.4468 549.077 99.6146 549.077 99.8304C549.069 100.038 548.901 100.214 548.693 100.214Z" fill="#F2F2F2"/>
<path d="M563.656 48.2368L551.411 60.336L563.656 72.4271L566.413 69.6701L557.15 60.4079L566.485 51.0738L563.656 48.2368Z" fill="#FFA500"/>
<path d="M581.719 48.2368L593.972 60.336L581.719 72.4271L578.97 69.6701L588.225 60.4079L578.89 51.0738L581.719 48.2368Z" fill="#FFA500"/>
<path d="M512.167 11.667C513.01 11.667 513.693 10.9836 513.693 10.1406C513.693 9.29764 513.01 8.61426 512.167 8.61426C511.324 8.61426 510.64 9.29764 510.64 10.1406C510.64 10.9836 511.324 11.667 512.167 11.667Z" fill="#FFA500"/>
<path d="M516.243 11.667C517.086 11.667 517.77 10.9836 517.77 10.1406C517.77 9.29764 517.086 8.61426 516.243 8.61426C515.4 8.61426 514.716 9.29764 514.716 10.1406C514.716 10.9836 515.4 11.667 516.243 11.667Z" fill="#FFA500"/>
<path d="M520.327 11.667C521.17 11.667 521.854 10.9836 521.854 10.1406C521.854 9.29764 521.17 8.61426 520.327 8.61426C519.484 8.61426 518.801 9.29764 518.801 10.1406C518.801 10.9836 519.484 11.667 520.327 11.667Z" fill="#FFA500"/>
<path opacity="0.1" d="M636.605 12.6899H508.762V13.2014H636.605V12.6899Z" fill="black"/>
<path d="M666.874 83.311C666.874 94.1475 660.432 97.9355 652.479 97.9355C644.526 97.9355 638.084 94.1475 638.084 83.311C638.084 72.4745 652.479 58.6812 652.479 58.6812C652.479 58.6812 666.874 72.4745 666.874 83.311Z" fill="#FFA500"/>
<path d="M651.951 96.2813L652.103 87.2029L658.234 75.9828L652.127 85.7804L652.191 81.7047L656.419 73.5853L652.207 80.6259L652.327 73.2896L656.859 66.8245L652.343 72.1309L652.423 58.6812L651.951 76.4863L651.991 75.759L647.387 68.7105L651.919 77.1655L651.488 85.3568L651.472 85.1411L646.165 77.7249L651.456 85.9083L651.408 86.9312L651.4 86.9472V87.0351L650.313 107.821H651.767L651.943 97.0884L657.218 88.9211L651.951 96.2813Z" fill="#3F3D56"/>
</g>
<g filter="url(#filter2_d)">
<path d="M396.272 165.043C395.857 166.857 394.434 170.677 389.862 170.581C386.369 170.509 383.676 168.112 383.772 165.363L385.091 127.931L385.522 115.719C385.522 115.719 387.784 112.339 390.046 127.483V127.539L396.312 163.445C396.4 163.972 396.392 164.516 396.272 165.043Z" fill="#8C8C8C"/>
<path d="M393.219 168.68H386.497V179.996H393.219V168.68Z" fill="white"/>
<path d="M392.5 177.302H387.328V182.273H392.5V177.302Z" fill="white"/>
<path d="M390.046 127.539C387.688 127.004 386.09 127.411 385.074 127.931L385.506 115.719C385.506 115.719 387.768 112.339 390.03 127.483L390.046 127.539Z" fill="#FFA500"/>
<path d="M393.227 172.059V179.995H386.505V172.219C388.631 171.492 391.037 171.436 393.227 172.059Z" fill="#FFA500"/>
<path d="M409.061 197.28C407.174 196.194 403.434 193.516 405.544 190.32C407.158 187.882 411.075 187.027 414.176 188.298L456.362 205.64L470.125 211.298C470.125 211.298 472.987 214.374 454.699 209.34L454.635 209.324L410.867 198.008C410.22 197.84 409.612 197.6 409.061 197.28Z" fill="#8C8C8C"/>
<path d="M393.315 188.579L396.264 183.816L409.196 188.779L406.247 193.534L393.315 188.579Z" fill="white"/>
<path d="M398.974 185.581L396.704 189.241L391.029 187.059L393.299 183.407L398.974 185.581Z" fill="white"/>
<path d="M454.627 209.324C456.274 207.894 456.505 206.583 456.362 205.648L470.125 211.306C470.125 211.306 472.986 214.383 454.699 209.348L454.627 209.324Z" fill="#FFA500"/>
<path d="M402.379 192.046L393.315 188.57L396.264 183.823L405.144 187.227C405.04 189.057 404.049 190.783 402.379 192.046Z" fill="#FFA500"/>
<path d="M370.664 197.28C372.55 196.194 376.29 193.516 374.18 190.32C372.566 187.882 368.649 187.027 365.548 188.298L323.363 205.64L309.599 211.298C309.599 211.298 306.738 214.374 325.025 209.34L325.089 209.324L368.857 198.016C369.505 197.848 370.112 197.6 370.664 197.28Z" fill="#8C8C8C"/>
<path d="M370.528 188.779L383.46 183.816L386.409 188.571L373.477 193.534L370.528 188.779Z" fill="white"/>
<path d="M386.425 183.4L388.695 187.06L383.02 189.242L380.75 185.582L386.425 183.4Z" fill="white"/>
<path d="M325.097 209.324C323.451 207.894 323.219 206.583 323.363 205.648L309.599 211.306C309.599 211.306 306.738 214.383 325.025 209.348L325.097 209.324Z" fill="#FFA500"/>
<path d="M377.346 192.046L386.409 188.57L383.46 183.823L374.58 187.227C374.684 189.057 375.675 190.783 377.346 192.046Z" fill="#FFA500"/>
<path d="M395.913 308.043H382.725L386.913 185.813H391.724L395.913 308.043Z" fill="#8C8C8C"/>
<path d="M389.862 187.762C392.29 187.762 394.258 186.213 394.258 184.302C394.258 182.391 392.29 180.842 389.862 180.842C387.434 180.842 385.466 182.391 385.466 184.302C385.466 186.213 387.434 187.762 389.862 187.762Z" fill="#FFA500"/>
<path d="M493.951 158.602C493.671 159.825 492.712 162.406 489.619 162.342C487.245 162.254 485.407 160.68 485.495 158.81L486.39 133.485L486.678 125.23C486.678 125.23 488.212 122.944 489.739 133.189V133.229L493.975 157.531C494.031 157.883 494.031 158.243 493.951 158.602Z" fill="#8C8C8C"/>
<path d="M491.889 161.055H487.341V168.711H491.889V161.055Z" fill="white"/>
<path d="M491.402 166.898H487.901V170.262H491.402V166.898Z" fill="white"/>
<path d="M489.739 133.23C488.148 132.87 487.061 133.142 486.382 133.494L486.67 125.239C486.67 125.239 488.204 122.953 489.731 133.198L489.739 133.23Z" fill="#FFA500"/>
<path d="M491.889 163.341V168.703H487.341V163.445C488.78 162.958 490.411 162.918 491.889 163.341Z" fill="#FFA500"/>
<path d="M502.591 180.41C501.321 179.675 498.779 177.869 500.21 175.703C501.344 174.065 503.958 173.45 506.052 174.337L534.594 186.068L543.898 189.896C543.898 189.896 545.84 191.982 533.467 188.57H533.419L503.806 180.922C503.375 180.794 502.959 180.626 502.591 180.41Z" fill="#8C8C8C"/>
<path d="M491.953 174.52L493.943 171.3L502.695 174.656L500.697 177.877L491.953 174.52Z" fill="white"/>
<path d="M495.781 172.499L494.247 174.968L490.41 173.498L491.945 171.021L495.781 172.499Z" fill="white"/>
<path d="M533.435 188.554C534.554 187.587 534.706 186.7 534.61 186.068L543.914 189.896C543.914 189.896 545.856 191.982 533.483 188.57L533.435 188.554Z" fill="#FFA500"/>
<path d="M498.084 176.87L491.937 174.512L493.927 171.3L499.938 173.601C499.874 174.84 499.211 176.007 498.084 176.87Z" fill="#FFA500"/>
<path d="M476.631 180.41C477.902 179.675 480.444 177.869 479.013 175.703C477.878 174.065 475.264 173.45 473.17 174.337L444.628 186.068L435.325 189.896C435.325 189.896 433.383 191.982 445.755 188.57H445.803L475.416 180.922C475.848 180.794 476.255 180.626 476.631 180.41Z" fill="#8C8C8C"/>
<path d="M476.535 174.656L485.287 171.3L487.277 174.52L478.533 177.877L476.535 174.656Z" fill="white"/>
<path d="M487.285 171.021L488.828 173.498L484.984 174.968L483.449 172.491L487.285 171.021Z" fill="white"/>
<path d="M445.795 188.554C444.684 187.587 444.524 186.7 444.62 186.068L435.317 189.896C435.317 189.896 433.374 191.982 445.747 188.57L445.795 188.554Z" fill="#FFA500"/>
<path d="M481.147 176.87L487.278 174.512L485.287 171.3L479.277 173.601C479.341 174.84 480.012 176.015 481.147 176.87Z" fill="#FFA500"/>
<path d="M493.711 255.348L484.744 256.586L487.621 172.651H490.874L493.711 255.348Z" fill="#8C8C8C"/>
<path d="M489.619 173.97C491.261 173.97 492.593 172.921 492.593 171.628C492.593 170.335 491.261 169.287 489.619 169.287C487.977 169.287 486.646 170.335 486.646 171.628C486.646 172.921 487.977 173.97 489.619 173.97Z" fill="#FFA500"/>
<path d="M290.433 158.602C290.153 159.825 289.194 162.406 286.101 162.342C283.727 162.254 281.888 160.68 281.976 158.81L282.872 133.485L283.159 125.23C283.159 125.23 284.694 122.944 286.221 133.189V133.229L290.457 157.531C290.513 157.883 290.505 158.243 290.433 158.602Z" fill="#8C8C8C"/>
<path d="M288.371 161.055H283.823V168.711H288.371V161.055Z" fill="white"/>
<path d="M287.875 166.898H284.374V170.262H287.875V166.898Z" fill="white"/>
<path d="M286.221 133.23C284.63 132.87 283.543 133.142 282.864 133.494L283.151 125.239C283.151 125.239 284.686 122.953 286.213 133.198L286.221 133.23Z" fill="#FFA500"/>
<path d="M288.371 163.341V168.703H283.823V163.445C285.261 162.958 286.892 162.918 288.371 163.341Z" fill="#FFA500"/>
<path d="M299.081 180.41C297.81 179.675 295.276 177.869 296.707 175.703C297.842 174.065 300.448 173.45 302.542 174.337L331.084 186.068L340.395 189.896C340.395 189.896 342.329 191.982 329.957 188.57H329.909L300.304 180.922C299.864 180.794 299.456 180.626 299.081 180.41Z" fill="#8C8C8C"/>
<path d="M288.435 174.52L290.425 171.3L299.177 174.656L297.179 177.877L288.435 174.52Z" fill="white"/>
<path d="M292.255 172.491L290.72 174.968L286.884 173.498L288.419 171.021L292.255 172.491Z" fill="white"/>
<path d="M329.917 188.554C331.036 187.587 331.188 186.7 331.092 186.068L340.403 189.896C340.403 189.896 342.337 191.982 329.965 188.57L329.917 188.554Z" fill="#FFA500"/>
<path d="M294.565 176.87L288.435 174.512L290.433 171.3L296.443 173.601C296.363 174.84 295.7 176.015 294.565 176.87Z" fill="#FFA500"/>
<path d="M273.105 180.41C274.383 179.675 276.917 177.869 275.486 175.703C274.351 174.065 271.738 173.45 269.644 174.337L241.102 186.068L231.798 189.896C231.798 189.896 229.856 191.982 242.229 188.57H242.277L271.89 180.922C272.321 180.794 272.737 180.626 273.105 180.41Z" fill="#8C8C8C"/>
<path d="M273.017 174.656L281.761 171.3L283.759 174.52L275.007 177.877L273.017 174.656Z" fill="white"/>
<path d="M283.767 171.021L285.309 173.498L281.465 174.968L279.93 172.499L283.767 171.021Z" fill="white"/>
<path d="M242.277 188.554C241.166 187.587 241.006 186.7 241.102 186.068L231.798 189.896C231.798 189.896 229.856 191.982 242.229 188.57L242.277 188.554Z" fill="#FFA500"/>
<path d="M277.62 176.87L283.751 174.512L281.761 171.3L275.75 173.601C275.822 174.84 276.493 176.007 277.62 176.87Z" fill="#FFA500"/>
<path d="M290.193 255.348H281.265L284.103 172.651H287.356L290.193 255.348Z" fill="#8C8C8C"/>
<path d="M286.093 173.97C287.735 173.97 289.066 172.921 289.066 171.628C289.066 170.335 287.735 169.287 286.093 169.287C284.451 169.287 283.119 170.335 283.119 171.628C283.119 172.921 284.451 173.97 286.093 173.97Z" fill="#FFA500"/>
<path opacity="0.1" d="M272.257 223.253L271.426 222.766C271.514 222.79 271.602 222.822 271.69 222.862C271.866 222.941 272.025 223.037 272.169 223.157C272.265 223.221 272.353 223.285 272.441 223.349L272.257 223.253Z" fill="black"/>
<path d="M298.857 245.294C301.325 245.294 303.325 243.719 303.325 241.777C303.325 239.836 301.325 238.261 298.857 238.261C296.389 238.261 294.389 239.836 294.389 241.777C294.389 243.719 296.389 245.294 298.857 245.294Z" fill="#3F3D56"/>
<path d="M290.065 255.682C283.615 263.466 285.381 273.36 285.381 273.36C285.381 273.36 297.602 270.643 304.052 262.859C310.502 255.075 308.736 245.182 308.736 245.182C308.736 245.182 296.515 247.907 290.065 255.682Z" fill="#3F3D56"/>
<path d="M286.045 273.472C286.045 273.472 285.885 273.456 285.597 273.408C285.365 273.368 285.046 273.32 284.662 273.248C281.201 272.609 271.985 270.435 265.967 264.721C258.43 257.569 258.75 247.58 258.75 247.58C258.75 247.58 270.275 249.05 277.868 255.475C278.196 255.755 278.515 256.035 278.827 256.33C285.381 262.556 285.997 270.923 286.045 272.993C286.053 273.304 286.045 273.472 286.045 273.472Z" fill="#FFA500"/>
<path d="M281.401 255.883C287.851 263.666 286.085 273.56 286.085 273.56C286.085 273.56 273.864 270.843 267.414 263.059C260.963 255.275 262.73 245.382 262.73 245.382C262.73 245.382 274.951 248.107 281.401 255.883Z" stroke="#3F3D56" stroke-width="0.316854" stroke-miterlimit="10"/>
<path opacity="0.1" d="M286.045 272.992C285.877 273.152 285.725 273.288 285.597 273.408C285.325 273.655 285.165 273.783 285.165 273.783C285.165 273.783 284.974 273.599 284.662 273.248C282.92 271.338 277.317 264.545 277.748 256.697C277.772 256.29 277.812 255.882 277.86 255.475C278.188 255.754 278.508 256.034 278.819 256.33C285.381 262.555 285.997 270.922 286.045 272.992Z" fill="black"/>
<path d="M295.604 257.257C295.092 266.535 286.34 273.776 286.34 273.776C286.34 273.776 278.412 265.968 278.923 256.69C279.435 247.412 288.187 240.171 288.187 240.171C288.187 240.171 296.116 247.979 295.604 257.257Z" fill="#FFA500"/>
<path d="M285.637 273.321L287.563 240.355" stroke="#3F3D56" stroke-width="0.316854" stroke-miterlimit="10"/>
<path d="M321.532 251.815C323.554 251.815 325.193 250.527 325.193 248.938C325.193 247.349 323.554 246.061 321.532 246.061C319.511 246.061 317.872 247.349 317.872 248.938C317.872 250.527 319.511 251.815 321.532 251.815Z" fill="#3F3D56"/>
<path d="M314.331 260.334C309.048 266.711 310.494 274.814 310.494 274.814C310.494 274.814 320.509 272.585 325.792 266.215C331.076 259.838 329.629 251.735 329.629 251.735C329.629 251.735 319.614 253.957 314.331 260.334Z" fill="#3F3D56"/>
<path d="M310.47 274.734C310.47 274.734 310.342 274.718 310.103 274.678C309.911 274.646 309.655 274.606 309.335 274.542C306.498 274.015 298.953 272.233 294.021 267.558C287.851 261.7 288.107 253.517 288.107 253.517C288.107 253.517 297.546 254.723 303.764 259.982C304.036 260.205 304.3 260.445 304.548 260.685C309.919 265.784 310.422 272.64 310.462 274.335C310.47 274.598 310.47 274.734 310.47 274.734Z" fill="#FFA500"/>
<path d="M306.658 260.334C311.941 266.711 310.494 274.814 310.494 274.814C310.494 274.814 300.479 272.585 295.196 266.215C289.913 259.838 291.36 251.735 291.36 251.735C291.36 251.735 301.375 253.957 306.658 260.334Z" stroke="#3F3D56" stroke-width="0.316854" stroke-miterlimit="10"/>
<path opacity="0.1" d="M310.462 274.343C310.327 274.479 310.199 274.591 310.095 274.679C309.871 274.879 309.743 274.982 309.743 274.982C309.743 274.982 309.591 274.831 309.327 274.543C307.897 272.977 303.309 267.415 303.669 260.981C303.685 260.646 303.717 260.31 303.764 259.982C304.036 260.206 304.3 260.446 304.548 260.686C309.927 265.792 310.422 272.649 310.462 274.343Z" fill="black"/>
<path d="M318.295 261.46C317.88 269.06 310.702 274.99 310.702 274.99C310.702 274.99 304.204 268.597 304.628 260.989C305.043 253.389 312.221 247.459 312.221 247.459C312.221 247.459 318.719 253.852 318.295 261.46Z" fill="#FFA500"/>
<path d="M310.71 274.775L312.285 247.771" stroke="#3F3D56" stroke-width="0.316854" stroke-miterlimit="10"/>
<path d="M366.316 253.718C373.506 253.718 379.336 249.131 379.336 243.473C379.336 237.815 373.506 233.228 366.316 233.228C359.125 233.228 353.295 237.815 353.295 243.473C353.295 249.131 359.125 253.718 366.316 253.718Z" fill="#FFA500"/>
<path d="M344.184 277.829C351.374 277.829 357.204 273.242 357.204 267.583C357.204 261.925 351.374 257.338 344.184 257.338C336.993 257.338 331.163 261.925 331.163 267.583C331.163 273.242 336.993 277.829 344.184 277.829Z" fill="#FFA500"/>
<path d="M316.944 297.081C324.135 297.081 329.965 292.494 329.965 286.835C329.965 281.177 324.135 276.59 316.944 276.59C309.754 276.59 303.924 281.177 303.924 286.835C303.924 292.494 309.754 297.081 316.944 297.081Z" fill="#FFA500"/>
<path d="M316.937 305.36V286.779" stroke="#3F3D56" stroke-width="0.316854" stroke-miterlimit="10"/>
<path d="M316.936 289.409C318.782 289.409 320.277 288.232 320.277 286.78C320.277 285.328 318.782 284.15 316.936 284.15C315.091 284.15 313.595 285.328 313.595 286.78C313.595 288.232 315.091 289.409 316.936 289.409Z" fill="#3F3D56"/>
<path d="M316.936 298.232C316.936 298.232 316.457 290.16 306.682 291.095L316.936 298.232Z" fill="#3F3D56"/>
<path d="M366.323 305.487V243.513" stroke="#3F3D56" stroke-width="0.316854" stroke-miterlimit="10"/>
<path d="M366.323 246.11C368.169 246.11 369.664 244.933 369.664 243.481C369.664 242.029 368.169 240.852 366.323 240.852C364.478 240.852 362.982 242.029 362.982 243.481C362.982 244.933 364.478 246.11 366.323 246.11Z" fill="#3F3D56"/>
<path d="M356.061 290.951C357.906 290.951 359.402 289.774 359.402 288.322C359.402 286.87 357.906 285.693 356.061 285.693C354.216 285.693 352.72 286.87 352.72 288.322C352.72 289.774 354.216 290.951 356.061 290.951Z" fill="#3F3D56"/>
<path d="M366.323 256.9C366.323 256.9 365.844 248.828 356.069 249.763L366.323 256.9Z" fill="#3F3D56"/>
<path d="M366.323 279.787C366.323 279.787 365.844 271.715 356.069 272.65L366.323 279.787Z" fill="#3F3D56"/>
<path d="M366.323 304.768C366.323 304.768 368.473 289.073 356.069 288.322" stroke="#3F3D56" stroke-width="0.316854" stroke-miterlimit="10"/>
<path d="M376.578 290.951C378.423 290.951 379.919 289.774 379.919 288.322C379.919 286.87 378.423 285.693 376.578 285.693C374.733 285.693 373.237 286.87 373.237 288.322C373.237 289.774 374.733 290.951 376.578 290.951Z" fill="#3F3D56"/>
<path d="M366.323 304.768C366.323 304.768 364.173 289.073 376.578 288.322" stroke="#3F3D56" stroke-width="0.316854" stroke-miterlimit="10"/>
<path d="M376.786 266.305C378.631 266.305 380.127 265.128 380.127 263.676C380.127 262.224 378.631 261.047 376.786 261.047C374.941 261.047 373.445 262.224 373.445 263.676C373.445 265.128 374.941 266.305 376.786 266.305Z" fill="#3F3D56"/>
<path d="M366.523 279.284C366.523 279.284 364.373 264.427 376.778 263.676" stroke="#3F3D56" stroke-width="0.316854" stroke-miterlimit="10"/>
<path d="M344.192 305.399V267.567" stroke="#3F3D56" stroke-width="0.316854" stroke-miterlimit="10"/>
<path d="M344.192 270.196C346.037 270.196 347.533 269.019 347.533 267.567C347.533 266.115 346.037 264.938 344.192 264.938C342.346 264.938 340.851 266.115 340.851 267.567C340.851 269.019 342.346 270.196 344.192 270.196Z" fill="#3F3D56"/>
<path d="M344.192 278.268C344.192 278.268 343.712 270.197 333.937 271.132L344.192 278.268Z" fill="#3F3D56"/>
<path d="M344.192 304.681C344.192 304.681 346.342 289.153 333.937 288.402" stroke="#3F3D56" stroke-width="0.316854" stroke-miterlimit="10"/>
<path d="M333.937 291.031C335.782 291.031 337.278 289.854 337.278 288.402C337.278 286.95 335.782 285.772 333.937 285.772C332.092 285.772 330.596 286.95 330.596 288.402C330.596 289.854 332.092 291.031 333.937 291.031Z" fill="#3F3D56"/>
</g>
<g filter="url(#filter3_d)">
<path d="M49.8092 357.564C49.8092 357.564 28.6736 370.324 67.6516 389.973C67.6516 389.973 76.2382 374.027 66.7465 361.031C62.9362 355.792 55.8023 354.225 50.1438 357.396L49.8092 357.564Z" fill="#FFA500"/>
<path d="M50.0679 357.298C50.0679 357.298 68.1689 371.131 67.6593 389.967" stroke="#535461" stroke-width="0.158427" stroke-miterlimit="10"/>
<path d="M317.255 346.941C321.537 362.598 303.269 407.205 303.269 407.205C303.269 407.205 264.831 378.111 260.541 362.453C255.894 346.895 264.74 330.515 280.3 325.869C295.861 321.223 312.243 330.067 316.89 345.625C317.027 346.059 317.149 346.492 317.255 346.941Z" fill="#FFA500"/>
<path opacity="0.1" d="M317.255 346.941C321.537 362.598 303.269 407.205 303.269 407.205C303.269 407.205 264.831 378.111 260.541 362.453C255.894 346.895 264.74 330.515 280.3 325.869C295.861 321.223 312.243 330.067 316.89 345.625C317.027 346.059 317.149 346.492 317.255 346.941Z" fill="black"/>
<path d="M281.304 326.432C281.304 326.432 305.231 362.545 303.444 407.289" stroke="#535461" stroke-width="0.158427" stroke-miterlimit="10"/>
<path d="M323.363 375.555C323.363 375.555 301.664 363.753 304.41 407.318C304.41 407.318 322.511 406.672 328.93 391.912C331.531 385.973 329.272 379.023 323.675 375.745L323.363 375.555Z" fill="#FFA500"/>
<path d="M323.72 375.632C323.72 375.632 320.921 398.247 304.417 407.319" stroke="#535461" stroke-width="0.158427" stroke-miterlimit="10"/>
<path d="M5.72791 370.696C5.72791 370.696 -15.4229 383.448 23.5627 403.09C23.5627 403.09 32.1493 387.144 22.6577 374.148C18.8473 368.909 11.7134 367.342 6.05494 370.513L5.72791 370.696Z" fill="#FFA500"/>
<path d="M5.97119 370.431C5.97119 370.431 24.0722 384.263 23.5626 403.099" stroke="#535461" stroke-width="0.158427" stroke-miterlimit="10"/>
<path d="M269.622 387.304H247.399C247.909 386.278 248.175 385.145 248.175 383.996V282.806C248.175 278.699 244.844 275.369 240.737 275.369H68.7012C64.5942 275.369 61.263 278.699 61.263 282.806V383.996C61.263 385.145 61.5292 386.278 62.0388 387.304H39.0171C37.9295 387.304 37.0472 388.186 37.0472 389.274V389.281V390.871C37.0472 396.947 41.9756 401.874 48.0523 401.874H260.579C266.656 401.874 271.585 396.947 271.585 390.871V389.281C271.592 388.194 270.718 387.304 269.63 387.297C269.63 387.304 269.622 387.304 269.622 387.304ZM132.671 393.601L130.754 391.441H178.068L175.961 393.608L132.671 393.601Z" fill="url(#paint0_linear)"/>
<path d="M71.4012 276.798H237.999C242.441 276.798 246.046 280.403 246.046 284.844V382.194C246.046 386.635 242.441 390.24 237.999 390.24H71.4012C66.9596 390.24 63.3546 386.635 63.3546 382.194V284.844C63.3622 280.403 66.9596 276.798 71.4012 276.798Z" fill="#535461"/>
<path d="M241.809 293.337H67.203V386.011H241.809V293.337Z" fill="white"/>
<path d="M154.514 286.798C155.362 286.798 156.05 286.11 156.05 285.262C156.05 284.414 155.362 283.726 154.514 283.726C153.665 283.726 152.977 284.414 152.977 285.262C152.977 286.11 153.665 286.798 154.514 286.798Z" fill="white"/>
<path d="M181.467 386.202L175.467 392.354H133.173L127.75 386.202H41.6257C40.561 386.202 39.7015 387.061 39.7015 388.126V389.677C39.7015 395.616 44.5158 400.437 50.4633 400.437H258.176C264.116 400.437 268.938 395.623 268.938 389.677V388.126C268.938 387.061 268.078 386.202 267.014 386.202H181.467Z" fill="#535461"/>
<path d="M89.5098 299.102V377.936H219.89" stroke="#535461" stroke-width="0.316854" stroke-miterlimit="10"/>
<path opacity="0.5" d="M114.509 354.097H101.047V374.865H114.509V354.097Z" fill="#FFA500"/>
<path opacity="0.7" d="M137.584 335.633H124.122V374.856H137.584V335.633Z" fill="#FFA500"/>
<path opacity="0.5" d="M160.667 346.789H147.205V374.856H160.667V346.789Z" fill="#FFA500"/>
<path opacity="0.8" d="M183.741 329.481H170.28V374.856H183.741V329.481Z" fill="#FFA500"/>
<path d="M206.816 313.33H193.355V374.856H206.816V313.33Z" fill="#FFA500"/>
<path d="M107.588 341.405L131.051 320.257L154.126 340.249L176.813 316.022L199.896 306.41" stroke="#535461" stroke-width="0.316854" stroke-miterlimit="10"/>
<path d="M107.588 344.096C109.075 344.096 110.28 342.891 110.28 341.404C110.28 339.918 109.075 338.712 107.588 338.712C106.101 338.712 104.896 339.918 104.896 341.404C104.896 342.891 106.101 344.096 107.588 344.096Z" fill="#FFA500"/>
<path d="M153.738 342.553C155.225 342.553 156.43 341.348 156.43 339.861C156.43 338.375 155.225 337.169 153.738 337.169C152.251 337.169 151.046 338.375 151.046 339.861C151.046 341.348 152.251 342.553 153.738 342.553Z" fill="#FFA500"/>
<path d="M179.863 316.456C180.101 314.989 179.104 313.606 177.636 313.368C176.169 313.13 174.786 314.126 174.548 315.594C174.309 317.061 175.306 318.444 176.774 318.682C178.242 318.92 179.625 317.924 179.863 316.456Z" fill="#FFA500"/>
<path d="M131.051 322.562C132.538 322.562 133.743 321.356 133.743 319.87C133.743 318.383 132.538 317.178 131.051 317.178C129.564 317.178 128.359 318.383 128.359 319.87C128.359 321.356 129.564 322.562 131.051 322.562Z" fill="#FFA500"/>
<path d="M199.895 309.1C201.382 309.1 202.588 307.895 202.588 306.408C202.588 304.922 201.382 303.716 199.895 303.716C198.408 303.716 197.203 304.922 197.203 306.408C197.203 307.895 198.408 309.1 199.895 309.1Z" fill="#FFA500"/>
<path d="M28.6051 305.155C28.6051 305.155 19.5318 323.915 25.4945 346.12C31.4496 368.324 29.5558 394.886 23.616 401.456" stroke="#535461" stroke-width="0.316854" stroke-miterlimit="10"/>
<path d="M28.6052 307.664C29.9872 307.664 31.1074 306.544 31.1074 305.162C31.1074 303.781 29.9872 302.661 28.6052 302.661C27.2233 302.661 26.103 303.781 26.103 305.162C26.103 306.544 27.2233 307.664 28.6052 307.664Z" fill="#FFA500"/>
<path d="M24.833 317.223C24.833 317.223 34.2334 318.919 36.7356 315.497" stroke="#535461" stroke-width="0.316854" stroke-miterlimit="10"/>
<path d="M23.9432 322.667C23.9432 322.667 18.2847 316.409 18.5965 312.66" stroke="#535461" stroke-width="0.316854" stroke-miterlimit="10"/>
<path d="M23.4637 334.136C23.4637 334.136 28.605 335.489 33.3052 325.49" stroke="#535461" stroke-width="0.316854" stroke-miterlimit="10"/>
<path d="M24.8326 342.469C24.8326 342.469 12.0327 334.234 13.5918 328.918" stroke="#535461" stroke-width="0.316854" stroke-miterlimit="10"/>
<path d="M26.8333 351.891C26.8333 351.891 35.8001 343.937 34.8646 336.112" stroke="#535461" stroke-width="0.316854" stroke-miterlimit="10"/>
<path d="M27.8065 357.434C27.8065 357.434 16.3907 354.248 16.7405 349.244" stroke="#535461" stroke-width="0.316854" stroke-miterlimit="10"/>
<path d="M28.6052 364.036C28.6052 364.036 35.8 357.374 36.7355 353.313" stroke="#535461" stroke-width="0.316854" stroke-miterlimit="10"/>
<path d="M29.1071 375.366C29.1071 375.366 21.7298 366.75 21.4104 362.378" stroke="#535461" stroke-width="0.316854" stroke-miterlimit="10"/>
<path d="M29.1072 382.491C29.1072 382.491 37.3667 373.321 37.9904 368.94" stroke="#535461" stroke-width="0.316854" stroke-miterlimit="10"/>
<path d="M36.7355 317.976C38.1174 317.976 39.2377 316.856 39.2377 315.474C39.2377 314.092 38.1174 312.972 36.7355 312.972C35.3536 312.972 34.2333 314.092 34.2333 315.474C34.2333 316.856 35.3536 317.976 36.7355 317.976Z" fill="#FFA500"/>
<path d="M36.7355 356.438C38.1174 356.438 39.2377 355.318 39.2377 353.936C39.2377 352.554 38.1174 351.434 36.7355 351.434C35.3536 351.434 34.2333 352.554 34.2333 353.936C34.2333 355.318 35.3536 356.438 36.7355 356.438Z" fill="#FFA500"/>
<path d="M32.6741 327.983C34.056 327.983 35.1763 326.863 35.1763 325.481C35.1763 324.1 34.056 322.979 32.6741 322.979C31.2921 322.979 30.1719 324.1 30.1719 325.481C30.1719 326.863 31.2921 327.983 32.6741 327.983Z" fill="#FFA500"/>
<path d="M37.6709 373.008C39.0528 373.008 40.1731 371.887 40.1731 370.506C40.1731 369.124 39.0528 368.004 37.6709 368.004C36.289 368.004 35.1687 369.124 35.1687 370.506C35.1687 371.887 36.289 373.008 37.6709 373.008Z" fill="#FFA500"/>
<path d="M20.7866 366.438C22.1685 366.438 23.2888 365.318 23.2888 363.936C23.2888 362.554 22.1685 361.434 20.7866 361.434C19.4047 361.434 18.2844 362.554 18.2844 363.936C18.2844 365.318 19.4047 366.438 20.7866 366.438Z" fill="#FFA500"/>
<path d="M35.1761 338.614C36.5581 338.614 37.6783 337.494 37.6783 336.112C37.6783 334.73 36.5581 333.61 35.1761 333.61C33.7942 333.61 32.674 334.73 32.674 336.112C32.674 337.494 33.7942 338.614 35.1761 338.614Z" fill="#FFA500"/>
</g>
<g filter="url(#filter4_d)">
<path d="M425.701 228.108H412.354V224.057C416.574 221.124 420.306 221.38 425.222 224.296L425.701 228.108Z" fill="#FFA500"/>
<path d="M409.268 300.071H406.343L405.903 288.803H409.268V300.071Z" fill="#FFB8B8"/>
<path d="M410.012 302.909H400.588V302.789C400.588 300.767 402.227 299.121 404.257 299.121H410.012V302.909Z" fill="#2F2E41"/>
<path d="M425.725 300.071H428.651L429.082 288.803H425.725V300.071Z" fill="#FFB8B8"/>
<path d="M424.982 299.121H430.737C432.759 299.121 434.406 300.759 434.406 302.789V302.909H424.982V299.121Z" fill="#2F2E41"/>
<path d="M425.805 298.625C425.302 298.625 424.87 298.273 424.758 297.786L417.517 266.195C417.485 266.027 417.333 265.908 417.165 265.916C416.997 265.916 416.845 266.035 416.813 266.195L410.164 297.57C410.06 298.065 409.62 298.417 409.117 298.417H405.951C405.36 298.417 404.88 297.938 404.88 297.346C404.88 297.322 404.88 297.306 404.88 297.282L407.238 257.517L408.189 257.237H408.205L426.86 257.397L430.833 297.122C430.889 297.714 430.457 298.233 429.874 298.297C429.866 298.297 429.858 298.297 429.858 298.297L425.901 298.617C425.861 298.625 425.829 298.625 425.805 298.625Z" fill="#2F2E41"/>
<path d="M418.1 220.844C421.332 220.844 423.951 218.225 423.951 214.994C423.951 211.764 421.332 209.145 418.1 209.145C414.869 209.145 412.25 211.764 412.25 214.994C412.25 218.225 414.869 220.844 418.1 220.844Z" fill="#FFB8B8"/>
<path d="M414.512 261.889C413.489 261.905 412.465 261.761 411.474 261.465C409.708 260.93 408.237 259.691 407.414 258.037C407.286 257.789 407.254 257.501 407.334 257.237C407.982 255.032 411.099 243.58 409.108 234.478C408.541 231.92 409.037 229.243 410.483 227.062C411.898 224.896 414.128 223.393 416.662 222.906C416.989 222.842 417.325 222.786 417.645 222.746C420.458 222.402 423.28 223.329 425.334 225.279C427.452 227.269 428.571 230.09 428.387 232.991L426.86 257.541C426.836 257.917 426.62 258.252 426.285 258.42C424.534 259.339 419.235 261.889 414.512 261.889Z" fill="#3F3D56"/>
<path d="M424.71 210.687C423.455 207.538 420.17 205.692 416.83 206.26L418.676 207.754C416.382 207.834 413.968 207.666 412.33 209.272C412.849 209.256 413.537 210.375 414.056 210.359C413.081 210.375 412.194 211.063 411.77 211.942C411.37 212.837 411.275 213.844 411.506 214.803C411.698 215.762 413.169 217.999 413.561 218.886C413.489 216.561 418.076 211.007 420.314 211.582C419.179 212.006 418.188 212.757 417.477 213.732C419.004 212.965 420.722 212.685 422.408 212.925C422.792 213.012 423.192 213.036 423.583 212.989C424.359 212.837 424.87 212.077 424.71 211.302C424.67 211.079 424.574 210.871 424.431 210.695L424.71 210.687Z" fill="#2F2E41"/>
<path d="M414.112 260.418C413.96 260.418 413.816 260.386 413.681 260.33L402.571 255.479C402.083 255.271 401.819 254.736 401.963 254.225L409.317 226.454C409.884 224.304 412.082 223.026 414.232 223.593C414.256 223.601 414.28 223.609 414.312 223.617L417.253 224.456L415.183 259.411C415.159 259.763 414.967 260.082 414.672 260.258C414.496 260.362 414.304 260.418 414.112 260.418Z" fill="#FFA500"/>
<path d="M434.669 254.217L434.182 252.371L433.47 249.694L433.127 248.407L432.415 245.738L427.308 226.438C426.74 224.297 424.542 223.01 422.4 223.577C422.368 223.585 422.344 223.593 422.312 223.601L419.371 224.441L420.826 249.03L420.978 251.596L421.074 253.21L421.225 255.759L421.441 259.387C421.481 259.955 421.945 260.394 422.512 260.394C422.656 260.394 422.808 260.362 422.944 260.306L434.054 255.456C434.549 255.272 434.805 254.728 434.669 254.217Z" fill="#FFA500"/>
<path d="M433.127 248.415L420.986 251.604L420.842 249.039L432.423 245.738L433.127 248.415Z" fill="#CCCCCC"/>
<path d="M434.182 252.379L421.234 255.775L421.082 253.226V253.218L433.471 249.702L434.182 252.379Z" fill="#CCCCCC"/>
<path d="M415.639 249.59L415.487 252.107L403.586 248.559L404.281 245.922L415.639 249.59Z" fill="#CCCCCC"/>
<path d="M415.391 253.769L403.242 249.845L402.547 252.49L415.247 256.27L415.391 253.769Z" fill="#CCCCCC"/>
<path d="M403.458 256.398C404.825 256.038 405.648 254.64 405.288 253.273C405.248 253.129 405.2 252.986 405.136 252.85L410.851 234.925L406.799 234.078L401.556 251.651C400.309 252.33 399.845 253.897 400.524 255.143C401.092 256.19 402.307 256.71 403.458 256.398Z" fill="#FFB8B8"/>
<path d="M411.003 226.111C412.17 226.231 412.817 227.533 412.529 229.164L411.139 236.979C411.035 237.563 410.555 238.026 410.155 237.93L405.464 236.756C405.104 236.668 404.968 236.156 405.176 235.637L407.997 228.572C408.605 227.03 409.876 225.991 411.003 226.111Z" fill="#3F3D56"/>
<path d="M418.076 204.038C422.193 204.038 425.573 207.307 425.701 211.422H427.14C427.404 211.422 427.62 211.638 427.62 211.902V213.812C427.62 214.075 427.404 214.291 427.14 214.291H410.931C410.667 214.291 410.451 214.075 410.451 213.812V211.67C410.451 207.45 413.864 204.038 418.076 204.038Z" fill="#FFA500"/>
<path d="M418.987 251.18H415.623C415.399 251.18 415.207 251.012 415.191 250.788L414.52 243.875H420.106L419.435 250.788C419.403 251.012 419.211 251.18 418.987 251.18Z" fill="#E6E6E6"/>
<path d="M420.082 244.746H414.52C414.28 244.746 414.088 244.555 414.088 244.315V243.268C414.088 243.028 414.28 242.836 414.52 242.836H420.082C420.322 242.836 420.514 243.028 420.514 243.268V244.315C420.522 244.555 420.33 244.746 420.082 244.746Z" fill="#CCCCCC"/>
<path d="M417.373 247.472C417.501 247.488 417.637 247.512 417.765 247.551L426.74 239.856L426.213 237.035L430.369 235.684L431.784 240.591C432.016 241.406 431.688 242.277 430.969 242.733L419.603 249.925C419.627 251.307 418.524 252.442 417.141 252.466C415.758 252.49 414.623 251.387 414.6 250.005C414.576 248.622 415.679 247.488 417.061 247.464C417.173 247.456 417.269 247.464 417.373 247.472Z" fill="#FFB8B8"/>
<path d="M426.756 226.758C427.995 226.406 429.242 227.357 429.658 228.964L431.656 236.691C431.808 237.267 431.512 237.89 431.065 237.954L425.749 238.721C425.342 238.777 424.982 238.362 424.966 237.81L424.758 230.202C424.71 228.548 425.558 227.094 426.756 226.758Z" fill="#3F3D56"/>
<path d="M498.227 276.122C495.782 272.869 493.847 269.257 492.489 265.413C492.329 264.941 492.529 264.414 492.976 264.182L501.353 259.691C501.624 259.539 501.952 259.531 502.24 259.651C502.528 259.779 502.743 260.035 502.823 260.338C503.798 264.038 505.629 267.459 508.17 270.32C508.386 270.559 508.474 270.879 508.418 271.191C508.362 271.494 508.17 271.766 507.899 271.91L499.522 276.401C499.083 276.641 498.531 276.521 498.227 276.122Z" fill="#CCCCCC"/>
<path d="M498.803 275.697C498.899 275.817 499.059 275.849 499.186 275.777L507.563 271.286C507.643 271.246 507.707 271.166 507.715 271.07C507.731 270.974 507.707 270.87 507.635 270.798C505.021 267.85 503.127 264.333 502.128 260.521C502.104 260.425 502.04 260.346 501.944 260.306C501.856 260.266 501.76 260.274 501.68 260.314L493.304 264.805C493.176 264.877 493.112 265.029 493.16 265.172C494.495 268.952 496.397 272.501 498.803 275.697Z" fill="white"/>
<path d="M501.904 266.1L497.34 268.113C496.981 268.273 496.557 268.105 496.397 267.746L496.285 267.49C496.125 267.13 496.293 266.707 496.653 266.547L501.217 264.533C501.576 264.373 502 264.541 502.16 264.901L502.272 265.157C502.424 265.516 502.264 265.94 501.904 266.1Z" fill="#CCCCCC"/>
<path d="M503.566 269.201L499.003 271.215C498.643 271.374 498.219 271.207 498.059 270.847L497.948 270.591C497.788 270.232 497.956 269.808 498.315 269.648L502.879 267.634C503.239 267.475 503.662 267.642 503.822 268.002L503.934 268.258C504.094 268.617 503.934 269.041 503.566 269.201Z" fill="#CCCCCC"/>
<path d="M492.872 266.62C491.681 265.853 491.338 264.27 492.105 263.08C492.185 262.952 492.281 262.832 492.385 262.72L490.458 235.421L495.997 235.956L496.149 262.696C497.124 263.727 497.076 265.357 496.045 266.332C495.174 267.147 493.863 267.267 492.872 266.62Z" fill="#A0616A"/>
<path d="M491.705 244.595C491.442 244.403 491.282 244.107 491.266 243.787L490.858 236.427C490.77 234.797 492.017 233.406 493.648 233.311C495.038 233.231 496.301 234.142 496.661 235.484L498.443 242.061C498.595 242.637 498.259 243.22 497.692 243.38L492.617 244.754C492.305 244.842 491.969 244.786 491.705 244.595Z" fill="#3F3D56"/>
<path d="M482.258 300.183H479.34L477.95 288.907H482.258V300.183Z" fill="#A0616A"/>
<path d="M477.254 299.345H482.889V302.893H473.706C473.706 300.935 475.288 299.345 477.254 299.345Z" fill="#2F2E41"/>
<path d="M493.224 300.183H490.306L488.916 288.907H493.224V300.183Z" fill="#A0616A"/>
<path d="M488.213 299.345H493.847V302.893H484.664C484.672 300.935 486.254 299.345 488.213 299.345Z" fill="#2F2E41"/>
<path d="M482.122 294.502L478.909 294.35C478.341 294.326 477.894 293.855 477.886 293.287C477.039 280.197 475.864 266.164 477.662 260.746C477.654 260.154 478.134 259.667 478.725 259.667C478.781 259.667 478.829 259.667 478.885 259.675L491.753 261.545C492.281 261.617 492.672 262.064 492.672 262.6C494.319 269.017 494.391 280.661 494.327 292.76C494.335 293.351 493.855 293.839 493.264 293.839H493.256H489.787C489.26 293.839 488.804 293.455 488.724 292.936L486.582 279.334C486.51 278.879 486.086 278.567 485.631 278.639C485.263 278.695 484.975 278.99 484.935 279.366L483.233 293.567C483.169 294.102 482.713 294.51 482.17 294.51C482.154 294.502 482.138 294.502 482.122 294.502Z" fill="#2F2E41"/>
<path d="M484.384 262.592C481.547 261.018 479.333 260.602 478.262 260.498C477.974 260.474 477.71 260.33 477.534 260.099C477.35 259.867 477.27 259.579 477.31 259.292L480.396 236.404C480.755 233.679 482.506 231.337 485.007 230.218C487.437 229.1 490.267 229.323 492.489 230.802C492.593 230.874 492.696 230.946 492.8 231.018C495.374 232.904 496.565 236.156 495.814 239.257C493.919 246.993 493.272 259.675 493.16 262.137C493.144 262.568 492.864 262.944 492.465 263.088C491.298 263.511 490.075 263.727 488.836 263.735C487.285 263.743 485.751 263.351 484.384 262.592Z" fill="#3F3D56"/>
<path d="M486.966 227.102C490.197 227.102 492.816 224.483 492.816 221.252C492.816 218.021 490.197 215.402 486.966 215.402C483.734 215.402 481.115 218.021 481.115 221.252C481.115 224.483 483.734 227.102 486.966 227.102Z" fill="#A0616A"/>
<path d="M491.114 225.879C490.019 227.045 487.997 226.414 487.853 224.832C487.845 224.712 487.845 224.584 487.853 224.464C487.925 223.761 488.332 223.121 488.236 222.378C488.212 222.194 488.149 222.019 488.037 221.867C487.165 220.7 485.127 222.386 484.304 221.331C483.8 220.684 484.392 219.669 484.008 218.942C483.497 217.991 481.986 218.462 481.043 217.935C479.988 217.352 480.052 215.737 480.747 214.754C481.594 213.556 483.081 212.916 484.544 212.82C486.006 212.725 487.461 213.124 488.836 213.66C490.387 214.267 491.929 215.106 492.888 216.473C494.055 218.135 494.167 220.372 493.584 222.314C493.208 223.489 492.001 224.936 491.114 225.879Z" fill="#2F2E41"/>
<path d="M495.75 231.578C495.646 231.098 494.766 230.435 493.512 229.899C489.411 228.237 484.76 228.637 480.995 230.97C480.731 230.986 480.507 231.178 480.452 231.434L476.215 250.158L475.664 252.595L475.296 254.21L474.745 256.639L474.449 257.942C474.377 258.261 474.577 258.581 474.897 258.653C474.921 258.661 474.945 258.661 474.977 258.669L493.256 260.243C493.272 260.243 493.288 260.243 493.312 260.243C493.623 260.243 493.879 259.995 493.903 259.684L494.079 257.039L494.263 254.21L494.343 252.979L494.527 250.158L495.742 231.61V231.594L495.75 231.578Z" fill="#FFA500"/>
<path d="M465.753 232.752C465.785 232.88 465.801 233.008 465.809 233.143L476.048 239.049L478.533 237.619L481.187 241.095L475.864 244.891L464.186 235.669C462.892 236.148 461.453 235.485 460.973 234.19C460.494 232.896 461.157 231.457 462.452 230.978C463.747 230.498 465.186 231.162 465.665 232.456C465.697 232.552 465.729 232.648 465.753 232.752Z" fill="#A0616A"/>
<path d="M476.415 238.546C476.383 238.226 476.495 237.906 476.727 237.675L481.938 232.464C483.089 231.313 484.968 231.313 486.118 232.464C487.102 233.447 487.269 234.99 486.51 236.164L482.801 241.878C482.482 242.374 481.818 242.518 481.315 242.198L476.903 239.337C476.623 239.161 476.447 238.865 476.415 238.546Z" fill="#3F3D56"/>
<path d="M494.527 250.157L494.351 252.978L475.664 252.595L476.215 250.157H494.527Z" fill="#CCCCCC"/>
<path d="M494.263 254.208L494.079 257.038L474.745 256.638L475.296 254.208H494.263Z" fill="#CCCCCC"/>
<path d="M487.085 209.88C482.969 209.88 479.588 213.148 479.46 217.264H478.022C477.758 217.264 477.542 217.48 477.542 217.744V219.653C477.542 219.917 477.758 220.133 478.022 220.133H494.231C494.495 220.133 494.711 219.917 494.711 219.653V217.512C494.711 213.292 491.298 209.88 487.085 209.88Z" fill="#FFA500"/>
<path d="M519.216 303.3H349.499C349.371 303.3 349.259 303.196 349.259 303.061C349.259 302.933 349.363 302.821 349.499 302.821H519.208C519.336 302.821 519.448 302.925 519.448 303.061C519.448 303.196 519.344 303.3 519.216 303.3Z" fill="#CCCCCC"/>
</g>
<g clip-path="url(#clip0)" filter="url(#filter5_d)">
<path d="M597.34 329.082C597.66 329.082 597.979 329.082 598.298 329.082C613.456 329.601 625.303 342.326 624.784 357.485C624.266 372.246 612.139 383.974 597.34 383.974C597.021 383.974 596.702 383.974 596.383 383.974C581.225 383.455 569.378 370.73 569.896 355.571C570.455 340.81 582.581 329.122 597.34 329.082ZM597.38 322.3V329.082V322.3C578.473 322.3 563.155 337.659 563.155 356.568C563.155 374.998 577.795 390.117 596.223 390.756C596.622 390.756 597.021 390.796 597.42 390.796C616.328 390.796 631.645 375.437 631.645 356.528C631.645 338.098 617.006 322.978 598.577 322.34C598.178 322.34 597.739 322.3 597.38 322.3Z" fill="#CCCCCC"/>
<path d="M593.787 314.139L593.494 322.591L601.507 322.869L601.8 314.417L593.787 314.139Z" fill="#CCCCCC"/>
<path d="M615.979 318.355L611.375 325.449L618.1 329.815L622.704 322.721L615.979 318.355Z" fill="#CCCCCC"/>
<path d="M632.595 332.783L625.061 336.624L628.702 343.768L636.236 339.926L632.595 332.783Z" fill="#CCCCCC"/>
<path d="M628.236 371.093L623.754 377.742L630.766 382.47L635.248 375.821L628.236 371.093Z" fill="#CCCCCC"/>
<path d="M563.899 330.406L559.77 337.28L567.02 341.634L571.148 334.76L563.899 330.406Z" fill="#CCCCCC"/>
<path d="M565.58 368.956L558.257 373.186L562.268 380.129L569.59 375.899L565.58 368.956Z" fill="#CCCCCC"/>
<path d="M581.471 317.17L574.459 321.059L578.56 328.454L585.572 324.565L581.471 317.17Z" fill="#CCCCCC"/>
<path d="M591.142 390.174L590.848 398.626L598.861 398.905L599.155 390.453L591.142 390.174Z" fill="#CCCCCC"/>
<path d="M616.205 384.672L609.193 388.561L613.295 395.957L620.306 392.068L616.205 384.672Z" fill="#CCCCCC"/>
<path d="M576.639 383.288L572.034 390.382L578.759 394.748L583.364 387.654L576.639 383.288Z" fill="#CCCCCC"/>
<path d="M554.426 351.683L554.177 358.859L563.904 359.197L564.153 352.02L554.426 351.683Z" fill="#CCCCCC"/>
<path d="M630.864 354.325L630.615 361.501L640.342 361.839L640.592 354.663L630.864 354.325Z" fill="#CCCCCC"/>
</g>
<g clip-path="url(#clip1)" filter="url(#filter6_d)">
<path d="M670.244 336.468C670.361 336.468 670.479 336.468 670.597 336.468C676.195 336.659 680.569 341.362 680.378 346.963C680.186 352.417 675.708 356.751 670.244 356.751C670.126 356.751 670.008 356.751 669.89 356.751C664.293 356.559 659.918 351.857 660.109 346.255C660.315 340.801 664.793 336.483 670.244 336.468ZM670.258 333.962V336.468V333.962C663.276 333.962 657.62 339.637 657.62 346.624C657.62 353.434 663.026 359.021 669.831 359.257C669.978 359.257 670.126 359.271 670.273 359.271C677.255 359.271 682.911 353.596 682.911 346.609C682.911 339.799 677.506 334.213 670.7 333.977C670.553 333.977 670.391 333.962 670.258 333.962Z" fill="#CCCCCC"/>
<path d="M668.932 330.947L668.823 334.07L671.782 334.173L671.891 331.05L668.932 330.947Z" fill="#CCCCCC"/>
<path d="M677.127 332.504L675.426 335.125L677.91 336.739L679.61 334.118L677.127 332.504Z" fill="#CCCCCC"/>
<path d="M683.262 337.835L680.48 339.254L681.825 341.893L684.607 340.474L683.262 337.835Z" fill="#CCCCCC"/>
<path d="M681.653 351.991L679.998 354.448L682.587 356.195L684.242 353.738L681.653 351.991Z" fill="#CCCCCC"/>
<path d="M657.895 336.956L656.37 339.496L659.047 341.105L660.572 338.565L657.895 336.956Z" fill="#CCCCCC"/>
<path d="M658.515 351.202L655.811 352.765L657.292 355.33L659.996 353.767L658.515 351.202Z" fill="#CCCCCC"/>
<path d="M664.383 332.066L661.794 333.503L663.309 336.236L665.898 334.799L664.383 332.066Z" fill="#CCCCCC"/>
<path d="M667.955 359.041L667.846 362.165L670.805 362.267L670.914 359.144L667.955 359.041Z" fill="#CCCCCC"/>
<path d="M677.21 357.008L674.621 358.445L676.135 361.178L678.724 359.741L677.21 357.008Z" fill="#CCCCCC"/>
<path d="M662.599 356.498L660.899 359.119L663.382 360.732L665.083 358.111L662.599 356.498Z" fill="#CCCCCC"/>
<path d="M654.397 344.819L654.305 347.471L657.897 347.595L657.989 344.944L654.397 344.819Z" fill="#CCCCCC"/>
<path d="M682.623 345.796L682.531 348.447L686.123 348.572L686.215 345.92L682.623 345.796Z" fill="#CCCCCC"/>
</g>
<g clip-path="url(#clip2)" filter="url(#filter7_d)">
<path d="M643.793 278.386C643.95 278.386 644.106 278.386 644.263 278.386C651.699 278.64 657.511 284.88 657.256 292.314C657.002 299.552 651.053 305.304 643.793 305.304C643.637 305.304 643.48 305.304 643.323 305.304C635.887 305.05 630.076 298.809 630.33 291.375C630.604 284.137 636.553 278.405 643.793 278.386ZM643.813 275.06V278.386V275.06C634.537 275.06 627.023 282.592 627.023 291.864C627.023 300.902 634.205 308.317 643.245 308.63C643.441 308.63 643.637 308.649 643.832 308.649C653.108 308.649 660.622 301.117 660.622 291.845C660.622 282.807 653.44 275.393 644.4 275.08C644.204 275.08 643.989 275.06 643.813 275.06Z" fill="#CCCCCC"/>
<path d="M642.05 271.058L641.906 275.203L645.837 275.339L645.981 271.194L642.05 271.058Z" fill="#CCCCCC"/>
<path d="M652.937 273.126L650.678 276.604L653.977 278.746L656.236 275.267L652.937 273.126Z" fill="#CCCCCC"/>
<path d="M661.088 280.201L657.392 282.084L659.178 285.588L662.874 283.704L661.088 280.201Z" fill="#CCCCCC"/>
<path d="M658.949 298.988L656.751 302.248L660.191 304.566L662.389 301.306L658.949 298.988Z" fill="#CCCCCC"/>
<path d="M627.388 279.035L625.363 282.406L628.919 284.541L630.944 281.17L627.388 279.035Z" fill="#CCCCCC"/>
<path d="M628.212 297.94L624.62 300.014L626.588 303.419L630.18 301.344L628.212 297.94Z" fill="#CCCCCC"/>
<path d="M636.008 272.545L632.568 274.452L634.58 278.078L638.02 276.171L636.008 272.545Z" fill="#CCCCCC"/>
<path d="M640.752 308.345L640.608 312.49L644.539 312.627L644.683 308.482L640.752 308.345Z" fill="#CCCCCC"/>
<path d="M653.048 305.646L649.608 307.553L651.62 311.18L655.06 309.273L653.048 305.646Z" fill="#CCCCCC"/>
<path d="M633.638 304.968L631.379 308.447L634.678 310.588L636.937 307.109L633.638 304.968Z" fill="#CCCCCC"/>
<path d="M622.741 289.468L622.619 292.987L627.39 293.153L627.513 289.634L622.741 289.468Z" fill="#CCCCCC"/>
<path d="M660.239 290.765L660.117 294.284L664.889 294.449L665.011 290.93L660.239 290.765Z" fill="#CCCCCC"/>
</g>
<g clip-path="url(#clip3)">
<path opacity="0.1" d="M617.472 114.75C608.635 118.769 597.249 118.484 597.249 118.484H584.92V116.131C589.938 114.728 596.883 113.858 604.56 113.858C608.876 113.851 613.192 114.143 617.472 114.75Z" fill="black"/>
<path opacity="0.1" d="M632.284 121.567C632.284 125.828 619.868 129.27 604.559 129.27C589.251 129.27 576.835 125.828 576.835 121.567C576.835 119.448 579.924 117.519 584.92 116.131V118.484H597.241C597.241 118.484 608.628 118.769 617.465 114.75C626.273 116.036 632.284 118.608 632.284 121.567Z" fill="black"/>
<path d="M608.102 73.5942H596.306V85.4179H608.102V73.5942Z" fill="#2F2E41"/>
<path d="M600.688 81.9537C600.688 81.9537 601.667 85.3737 599.958 85.6148C598.899 85.7829 597.891 86.1994 597.029 86.8352L600.199 90.9859H606.057L609.716 87.3248C609.716 87.3248 604.837 83.6637 605.808 81.4641C606.78 79.2646 600.688 81.9537 600.688 81.9537Z" fill="#FFB9B9"/>
<path opacity="0.1" d="M600.688 81.9537C600.688 81.9537 601.667 85.3737 599.958 85.6148C598.899 85.7829 597.891 86.1994 597.029 86.8352L600.199 90.9859H606.057L609.716 87.3248C609.716 87.3248 604.837 83.6637 605.808 81.4641C606.78 79.2646 600.688 81.9537 600.688 81.9537Z" fill="black"/>
<path d="M602.156 124.454L607.766 126.405L611.673 126.646L611.432 123.234L603.376 120.844L602.156 124.454Z" fill="#FFB9B9"/>
<path d="M609.358 123.715C609.358 123.715 609.358 127.135 609.847 127.135C610.337 127.135 616.925 126.405 618.882 127.135C620.839 127.866 623.761 125.184 622.3 123.715C620.832 122.247 618.444 120.054 616.954 120.544C615.464 121.034 609.358 122.254 609.358 122.254V123.715Z" fill="#2F2E41"/>
<path d="M591.413 120.544C591.413 120.544 588.484 126.405 590.434 126.895C592.384 127.384 594.582 126.654 594.831 126.405C595.072 126.164 598.49 125.185 598.979 125.674C599.469 126.164 599.469 123.723 599.469 123.723L591.413 120.544Z" fill="#2F2E41"/>
<path d="M593.852 112.484C593.852 112.484 589.214 118.835 592.632 120.545C596.051 122.255 612.404 122.255 613.623 120.545C614.843 118.835 615.332 113.464 613.623 112.974C611.921 112.484 593.852 112.484 593.852 112.484Z" fill="#2F2E41"/>
<path opacity="0.2" d="M593.852 112.484C593.852 112.484 589.214 118.835 592.632 120.545C596.051 122.255 612.404 122.255 613.623 120.545C614.843 118.835 615.332 113.464 613.623 112.974C611.921 112.484 593.852 112.484 593.852 112.484Z" fill="black"/>
<path d="M602.646 83.6697C605.748 83.6697 608.262 81.1538 608.262 78.0502C608.262 74.9466 605.748 72.4307 602.646 72.4307C599.544 72.4307 597.029 74.9466 597.029 78.0502C597.029 81.1538 599.544 83.6697 602.646 83.6697Z" fill="#FFB9B9"/>
<path d="M593.852 86.842L598.731 85.8628C598.731 85.8628 599.951 89.7723 603.858 89.0343C607.766 88.2962 608.737 85.8628 608.737 85.8628C608.737 85.8628 611.666 87.0832 611.907 87.0832C612.148 87.0832 615.325 88.3035 615.325 89.0343C615.325 89.765 611.673 97.0945 611.673 97.0945L612.162 110.285L594.1 109.795L595.32 96.8534L593.852 86.842Z" fill="#FFA500"/>
<path d="M591.172 93.1929C591.172 93.1929 589.704 106.135 590.683 107.114C591.661 108.093 595.561 110.775 595.561 110.775V107.845L593.611 104.183L595.561 95.6336L591.172 93.1929Z" fill="#FFB9B9"/>
<path d="M616.435 92.8271C616.435 92.8271 615.581 106.134 615.581 106.624C615.581 107.113 613.382 108.823 612.652 108.823C611.922 108.823 611.432 107.603 611.432 107.603L613.141 105.652L611.922 95.6406L616.435 92.8271Z" fill="#FFB9B9"/>
<path d="M614.113 111.505C614.113 111.505 625.097 105.396 625.338 111.505C625.579 117.614 619.722 120.055 619.722 120.055C619.722 120.055 604.589 124.593 603.975 122.934C603.362 121.275 602.142 118.586 603.121 118.345C604.099 118.103 605.319 117.614 605.808 118.103C606.298 118.593 612.396 114.442 612.396 114.442L614.113 111.505Z" fill="#2F2E41"/>
<path opacity="0.2" d="M619.24 110.774C619.24 110.774 617.041 111.754 616.311 112.484C615.581 113.215 612.404 114.436 612.404 114.436" stroke="black" stroke-width="0.316854" stroke-miterlimit="10"/>
<path d="M595.32 87.3309L593.852 86.8413C593.852 86.8413 588.484 92.4608 590.193 93.9223C591.902 95.3912 592.881 95.8735 593.363 96.3631C593.852 96.8527 596.292 97.0938 596.292 97.0938L595.32 87.3309Z" fill="#FFA500"/>
<path d="M613.141 88.5518L615.34 89.0414C615.34 89.0414 617.049 92.7025 617.538 93.1921C618.027 93.6817 616.808 93.4332 616.07 94.4124C615.332 95.3916 614.602 97.1016 613.141 97.1016C611.673 97.1016 609.723 94.6609 609.723 94.6609L613.141 88.5518Z" fill="#FFA500"/>
<path d="M594.342 113.704C594.342 113.704 585.066 107.113 581.896 111.994C578.726 116.876 595.569 123.474 598.008 124.446C600.448 125.418 602.646 126.397 602.646 126.397C602.646 126.397 604.844 121.026 604.844 120.047C604.844 119.068 603.135 119.068 602.646 119.068C602.157 119.068 599.958 118.578 599.476 117.848C598.979 117.124 594.342 113.704 594.342 113.704Z" fill="#2F2E41"/>
<path opacity="0.2" d="M589.214 111.994C589.214 111.994 591.654 113.945 593.852 114.435C596.051 114.924 596.781 116.145 596.781 116.145" stroke="black" stroke-width="0.316854" stroke-miterlimit="10"/>
<path d="M592.662 102.816L592.859 113.157C592.874 113.865 593.458 114.435 594.166 114.428L613.397 114.209C614.076 114.202 614.639 113.668 614.675 112.988L615.259 102.867C615.303 102.151 614.756 101.545 614.04 101.501C614.018 101.501 613.989 101.501 613.967 101.501H593.955C593.239 101.501 592.662 102.078 592.662 102.794C592.662 102.794 592.662 102.802 592.662 102.816Z" fill="#575A89"/>
<path d="M590.434 86.9003C590.96 85.7458 591.661 84.6569 591.997 83.4366C592.399 81.9677 592.245 80.4185 592.194 78.8913C592.121 77.5467 592.231 76.1948 592.538 74.8867C592.844 73.564 593.531 72.3656 594.517 71.4375C597.073 69.1503 601.755 68.9895 604.881 69.9395C606.115 70.3122 607.423 71.0283 607.729 72.2779C607.773 72.4679 607.795 72.6579 607.846 72.8479C608.102 73.776 609.051 74.3679 609.395 75.274C609.84 76.4432 609.153 77.7147 609.066 78.957C608.964 80.4112 609.679 81.7851 610.381 83.0639C610.797 83.8239 611.235 84.635 611.191 85.4973C611.155 85.9723 611.016 86.4327 610.768 86.8419C609.855 88.3472 608.233 89.2826 606.473 89.3045C605.911 89.3484 605.348 89.2168 604.866 88.9245C604.107 88.3984 603.88 87.3388 604.041 86.4327C604.202 85.5265 604.662 84.6935 605.027 83.8458C605.136 83.5827 605.239 83.3196 605.334 83.0493C607.97 81.5804 608.912 78.2482 607.437 75.6102C605.969 72.9721 602.639 72.0294 600.002 73.5056C597.365 74.9744 596.423 78.3067 597.899 80.9447C598.702 82.3843 600.104 83.3781 601.726 83.6631C601.996 85.0442 601.872 86.4692 601.368 87.7773C600.908 88.8442 600.323 89.8526 599.637 90.788C599.359 91.2703 598.979 91.6868 598.534 92.023C598.242 92.1983 597.928 92.3299 597.599 92.4249C596.219 92.8706 594.765 93.2287 593.334 93.0241C591.902 92.8268 590.478 91.9572 589.989 90.598C589.565 89.3922 589.908 88.0549 590.434 86.9003Z" fill="#2F2E41"/>
<path d="M602.368 78.2698C605.66 78.2698 608.328 76.7582 608.328 74.8937C608.328 73.0291 605.66 71.5176 602.368 71.5176C599.077 71.5176 596.408 73.0291 596.408 74.8937C596.408 76.7582 599.077 78.2698 602.368 78.2698Z" fill="#2F2E41"/>
</g>
<defs>
<filter id="filter0_d" x="85.5936" y="0" width="651.081" height="448.508" filterUnits="userSpaceOnUse" color-interpolation-filters="sRGB">
<feFlood flood-opacity="0" result="BackgroundImageFix"/>
<feColorMatrix in="SourceAlpha" type="matrix" values="0 0 0 0 0 0 0 0 0 0 0 0 0 0 0 0 0 0 127 0"/>
<feOffset dx="6.33709" dy="6.33709"/>
<feGaussianBlur stdDeviation="3.16854"/>
<feColorMatrix type="matrix" values="0 0 0 0 0 0 0 0 0 0 0 0 0 0 0 0 0 0 1 0"/>
<feBlend mode="normal" in2="BackgroundImageFix" result="effect1_dropShadow"/>
<feBlend mode="normal" in="SourceGraphic" in2="effect1_dropShadow" result="shape"/>
</filter>
<filter id="filter1_d" x="485.471" y="7.59131" width="186.789" height="107.507" filterUnits="userSpaceOnUse" color-interpolation-filters="sRGB">
<feFlood flood-opacity="0" result="BackgroundImageFix"/>
<feColorMatrix in="SourceAlpha" type="matrix" values="0 0 0 0 0 0 0 0 0 0 0 0 0 0 0 0 0 0 127 0"/>
<feOffset dx="4.75282" dy="0.633709"/>
<feGaussianBlur stdDeviation="0.316854"/>
<feColorMatrix type="matrix" values="0 0 0 0 0 0 0 0 0 0 0 0 0 0 0 0 0 0 0.25 0"/>
<feBlend mode="normal" in2="BackgroundImageFix" result="effect1_dropShadow"/>
<feBlend mode="normal" in="SourceGraphic" in2="effect1_dropShadow" result="shape"/>
</filter>
<filter id="filter2_d" x="231.687" y="115.397" width="315.347" height="193.913" filterUnits="userSpaceOnUse" color-interpolation-filters="sRGB">
<feFlood flood-opacity="0" result="BackgroundImageFix"/>
<feColorMatrix in="SourceAlpha" type="matrix" values="0 0 0 0 0 0 0 0 0 0 0 0 0 0 0 0 0 0 127 0"/>
<feOffset dx="2.37641" dy="0.633709"/>
<feGaussianBlur stdDeviation="0.316854"/>
<feColorMatrix type="matrix" values="0 0 0 0 0 0 0 0 0 0 0 0 0 0 0 0 0 0 0.25 0"/>
<feBlend mode="normal" in2="BackgroundImageFix" result="effect1_dropShadow"/>
<feBlend mode="normal" in="SourceGraphic" in2="effect1_dropShadow" result="shape"/>
</filter>
<filter id="filter3_d" x="0" y="275.369" width="331.431" height="133.287" filterUnits="userSpaceOnUse" color-interpolation-filters="sRGB">
<feFlood flood-opacity="0" result="BackgroundImageFix"/>
<feColorMatrix in="SourceAlpha" type="matrix" values="0 0 0 0 0 0 0 0 0 0 0 0 0 0 0 0 0 0 127 0"/>
<feOffset dx="0.792136" dy="0.633709"/>
<feGaussianBlur stdDeviation="0.316854"/>
<feColorMatrix type="matrix" values="0 0 0 0 0 0 0 0 0 0 0 0 0 0 0 0 0 0 0.25 0"/>
<feBlend mode="normal" in2="BackgroundImageFix" result="effect1_dropShadow"/>
<feBlend mode="normal" in="SourceGraphic" in2="effect1_dropShadow" result="shape"/>
</filter>
<filter id="filter4_d" x="349.259" y="204.038" width="173.199" height="100.53" filterUnits="userSpaceOnUse" color-interpolation-filters="sRGB">
<feFlood flood-opacity="0" result="BackgroundImageFix"/>
<feColorMatrix in="SourceAlpha" type="matrix" values="0 0 0 0 0 0 0 0 0 0 0 0 0 0 0 0 0 0 127 0"/>
<feOffset dx="2.37641" dy="0.633709"/>
<feGaussianBlur stdDeviation="0.316854"/>
<feColorMatrix type="matrix" values="0 0 0 0 0 0 0 0 0 0 0 0 0 0 0 0 0 0 0.25 0"/>
<feBlend mode="normal" in2="BackgroundImageFix" result="effect1_dropShadow"/>
<feBlend mode="normal" in="SourceGraphic" in2="effect1_dropShadow" result="shape"/>
</filter>
<filter id="filter5_d" x="554.18" y="314.161" width="90.1632" height="85.9989" filterUnits="userSpaceOnUse" color-interpolation-filters="sRGB">
<feFlood flood-opacity="0" result="BackgroundImageFix"/>
<feColorMatrix in="SourceAlpha" type="matrix" values="0 0 0 0 0 0 0 0 0 0 0 0 0 0 0 0 0 0 127 0"/>
<feOffset dx="3.16854" dy="0.633709"/>
<feGaussianBlur stdDeviation="0.316854"/>
<feColorMatrix type="matrix" values="0 0 0 0 0 0 0 0 0 0 0 0 0 0 0 0 0 0 0.25 0"/>
<feBlend mode="normal" in2="BackgroundImageFix" result="effect1_dropShadow"/>
<feBlend mode="normal" in="SourceGraphic" in2="effect1_dropShadow" result="shape"/>
</filter>
<filter id="filter6_d" x="654.306" y="330.954" width="35.693" height="32.5762" filterUnits="userSpaceOnUse" color-interpolation-filters="sRGB">
<feFlood flood-opacity="0" result="BackgroundImageFix"/>
<feColorMatrix in="SourceAlpha" type="matrix" values="0 0 0 0 0 0 0 0 0 0 0 0 0 0 0 0 0 0 127 0"/>
<feOffset dx="3.16854" dy="0.633709"/>
<feGaussianBlur stdDeviation="0.316854"/>
<feColorMatrix type="matrix" values="0 0 0 0 0 0 0 0 0 0 0 0 0 0 0 0 0 0 0.25 0"/>
<feBlend mode="normal" in2="BackgroundImageFix" result="effect1_dropShadow"/>
<feBlend mode="normal" in="SourceGraphic" in2="effect1_dropShadow" result="shape"/>
</filter>
<filter id="filter7_d" x="622.62" y="271.069" width="46.168" height="42.8184" filterUnits="userSpaceOnUse" color-interpolation-filters="sRGB">
<feFlood flood-opacity="0" result="BackgroundImageFix"/>
<feColorMatrix in="SourceAlpha" type="matrix" values="0 0 0 0 0 0 0 0 0 0 0 0 0 0 0 0 0 0 127 0"/>
<feOffset dx="3.16854" dy="0.633709"/>
<feGaussianBlur stdDeviation="0.316854"/>
<feColorMatrix type="matrix" values="0 0 0 0 0 0 0 0 0 0 0 0 0 0 0 0 0 0 0.25 0"/>
<feBlend mode="normal" in2="BackgroundImageFix" result="effect1_dropShadow"/>
<feBlend mode="normal" in="SourceGraphic" in2="effect1_dropShadow" result="shape"/>
</filter>
<linearGradient id="paint0_linear" x1="154.318" y1="401.878" x2="154.318" y2="275.367" gradientUnits="userSpaceOnUse">
<stop stop-color="#808080" stop-opacity="0.25"/>
<stop offset="0.54" stop-color="#808080" stop-opacity="0.12"/>
<stop offset="1" stop-color="#808080" stop-opacity="0.1"/>
</linearGradient>
<clipPath id="clip0">
<rect width="86.361" height="84.7315" fill="white" transform="translate(554.18 314.161)"/>
</clipPath>
<clipPath id="clip1">
<rect width="31.8907" height="31.3088" fill="white" transform="translate(654.306 330.954)"/>
</clipPath>
<clipPath id="clip2">
<rect width="42.3658" height="41.551" fill="white" transform="translate(622.62 271.069)"/>
</clipPath>
<clipPath id="clip3">
<rect width="55.4495" height="59.8855" fill="white" transform="translate(576.835 69.3906)"/>
</clipPath>
</defs>
</svg>
