<svg width="608" height="371" viewBox="0 0 608 371" fill="none" xmlns="http://www.w3.org/2000/svg">
<g opacity="0.1" filter="url(#filter0_d)">
<path d="M342.871 67.8348C309.625 73.9493 276.431 71.3269 244.497 67.5185C212.562 63.7035 180.706 58.7289 147.447 60.2245C126.056 61.1865 70.6745 109.523 70.6415 125.237C70.602 137.058 71.5443 149.287 79.2414 158.703C84.5858 165.232 92.8166 169.917 99.0177 175.946C120.587 196.885 114.03 229.863 99.8744 257.899C93.2318 271.05 85.1064 283.991 80.5857 297.452C76.065 310.913 75.4588 325.343 83.5578 336.32C91.5777 347.205 107.097 353.339 123.269 356.522C156.126 362.979 192.733 358.973 228.147 353.537C306.534 341.466 384.111 322.642 461.522 303.863C490.162 296.912 518.934 289.928 546.526 279.906C561.847 274.325 577.452 267.387 587.35 256.581C599.924 242.889 600.24 224.164 588.121 212.976C567.785 194.217 521.754 198.375 506.024 176.928C497.372 165.12 501.141 149.076 508.027 134.91C522.795 104.528 551.343 74.5093 547.646 44.2135C545.096 23.4254 525.616 6.21513 499.513 1.73466C472.172 -2.96324 437.028 5.94498 421.278 26.8648C405.08 48.4172 372.222 62.4187 342.871 67.8348Z" fill="#FFA500"/>
</g>
<g filter="url(#filter1_d)">
<path d="M471.263 94.3614C510.435 94.3614 542.19 92.4174 542.19 90.0193C542.19 87.6213 510.435 85.6772 471.263 85.6772C432.09 85.6772 400.335 87.6213 400.335 90.0193C400.335 92.4174 432.09 94.3614 471.263 94.3614Z" fill="#3F3D56"/>
<path opacity="0.1" d="M471.263 92.8198C504.63 92.8198 531.679 91.5336 531.679 89.947C531.679 88.3604 504.63 87.0742 471.263 87.0742C437.896 87.0742 410.846 88.3604 410.846 89.947C410.846 91.5336 437.896 92.8198 471.263 92.8198Z" fill="black"/>
<path d="M524.944 6.76904H419.538V89.46H524.944V6.76904Z" fill="#3F3D56"/>
<path d="M471.045 18.0691H445.041C444.87 18.0691 444.725 17.9307 444.725 17.7528C444.725 17.5749 444.863 17.4365 445.041 17.4365H471.045C471.216 17.4365 471.361 17.5815 471.361 17.7528C471.361 17.9307 471.223 18.0691 471.045 18.0691Z" fill="#F2F2F2"/>
<path d="M499.513 21.5417H458.616C458.445 21.5417 458.3 21.4033 458.3 21.2254C458.3 21.0475 458.438 20.9092 458.616 20.9092H499.513C499.685 20.9092 499.83 21.0475 499.83 21.2254C499.83 21.4033 499.685 21.5417 499.513 21.5417Z" fill="#F2F2F2"/>
<path d="M471.17 25.0139H445.166C444.995 25.0139 444.85 24.8755 444.85 24.6976C444.85 24.5263 444.989 24.3813 445.166 24.3813H471.17C471.342 24.3813 471.487 24.5197 471.487 24.6976C471.487 24.8689 471.348 25.0139 471.17 25.0139Z" fill="#F2F2F2"/>
<path d="M499.513 25.073H473.51C473.338 25.073 473.193 24.9346 473.193 24.7567C473.193 24.5788 473.332 24.4404 473.51 24.4404H499.513C499.685 24.4404 499.83 24.5788 499.83 24.7567C499.83 24.9346 499.685 25.073 499.513 25.073Z" fill="#F2F2F2"/>
<path d="M471.236 28.4802H445.232C445.061 28.4802 444.916 28.3418 444.916 28.1639C444.916 27.986 445.054 27.8477 445.232 27.8477H471.236C471.408 27.8477 471.553 27.986 471.553 28.1639C471.553 28.3418 471.408 28.4802 471.236 28.4802Z" fill="#F2F2F2"/>
<path d="M471.302 31.9524H445.298C445.127 31.9524 444.982 31.814 444.982 31.6361C444.982 31.4582 445.12 31.3198 445.298 31.3198H471.302C471.473 31.3198 471.618 31.4582 471.618 31.6361C471.618 31.814 471.473 31.9524 471.302 31.9524Z" fill="#F2F2F2"/>
<path d="M483.105 18.1355H475.658C475.487 18.1355 475.342 17.9971 475.342 17.8192C475.342 17.6413 475.48 17.5029 475.658 17.5029H483.105C483.276 17.5029 483.421 17.6413 483.421 17.8192C483.421 17.9971 483.276 18.1355 483.105 18.1355Z" fill="#F2F2F2"/>
<path d="M483.105 28.4802H475.658C475.487 28.4802 475.342 28.3418 475.342 28.1639C475.342 27.986 475.48 27.8477 475.658 27.8477H483.105C483.276 27.8477 483.421 27.986 483.421 28.1639C483.421 28.3418 483.276 28.4802 483.105 28.4802Z" fill="#F2F2F2"/>
<path d="M483.105 31.8918H475.658C475.487 31.8918 475.342 31.7534 475.342 31.5755C475.342 31.3976 475.48 31.2593 475.658 31.2593H483.105C483.276 31.2593 483.421 31.3976 483.421 31.5755C483.421 31.7469 483.276 31.8852 483.105 31.8918Z" fill="#F2F2F2"/>
<path d="M495.599 31.8918H488.152C487.981 31.8918 487.836 31.7469 487.836 31.5755C487.836 31.4042 487.975 31.2593 488.152 31.2593H495.599C495.77 31.2593 495.915 31.3976 495.915 31.5755C495.915 31.7469 495.777 31.8852 495.599 31.8918Z" fill="#F2F2F2"/>
<path d="M452.428 21.5417H444.982C444.81 21.5417 444.666 21.4033 444.666 21.2254C444.666 21.0475 444.804 20.9092 444.982 20.9092H452.428C452.6 20.9092 452.745 21.0475 452.745 21.2254C452.745 21.4033 452.6 21.5417 452.428 21.5417Z" fill="#F2F2F2"/>
<path d="M471.078 69.1858H445.074C444.903 69.1858 444.758 69.0474 444.758 68.8695C444.758 68.6982 444.896 68.5532 445.074 68.5532H471.078C471.249 68.5532 471.394 68.6916 471.394 68.8695C471.394 69.0474 471.249 69.1858 471.078 69.1858Z" fill="#F2F2F2"/>
<path d="M470.953 76.1296H444.949C444.778 76.1296 444.633 75.9912 444.633 75.8133C444.633 75.642 444.771 75.4971 444.949 75.4971H470.953C471.124 75.4971 471.269 75.6354 471.269 75.8133C471.269 75.9847 471.124 76.1296 470.953 76.1296Z" fill="#F2F2F2"/>
<path d="M471.012 79.5964H445.008C444.837 79.5964 444.692 79.458 444.692 79.2801C444.692 79.1022 444.83 78.9639 445.008 78.9639H471.012C471.183 78.9639 471.328 79.1022 471.328 79.2801C471.328 79.458 471.19 79.5964 471.012 79.5964Z" fill="#F2F2F2"/>
<path d="M482.123 76.1902H474.676C474.505 76.1902 474.36 76.0518 474.36 75.8739C474.36 75.7026 474.498 75.5576 474.676 75.5576H482.123C482.294 75.5576 482.439 75.696 482.439 75.8739C482.439 76.0518 482.301 76.1902 482.123 76.1902Z" fill="#F2F2F2"/>
<path d="M482.123 79.5964H474.676C474.505 79.5964 474.36 79.458 474.36 79.2801C474.36 79.1022 474.498 78.9639 474.676 78.9639H482.123C482.294 78.9639 482.439 79.1022 482.439 79.2801C482.439 79.458 482.301 79.5964 482.123 79.5964Z" fill="#F2F2F2"/>
<path d="M494.624 76.1902H487.177C487.006 76.1902 486.861 76.0518 486.861 75.8739C486.861 75.7026 486.999 75.5576 487.177 75.5576H494.624C494.795 75.5576 494.94 75.696 494.94 75.8739C494.934 76.0518 494.795 76.1902 494.624 76.1902Z" fill="#F2F2F2"/>
<path d="M492.693 75.8738H451.796C451.624 75.8738 451.479 75.7354 451.479 75.5575C451.479 75.3862 451.618 75.2412 451.796 75.2412H492.693C492.864 75.2412 493.009 75.3796 493.009 75.5575C493.009 75.7354 492.871 75.8738 492.693 75.8738Z" fill="#F2F2F2"/>
<path d="M452.461 72.6569H445.015C444.843 72.6569 444.698 72.5186 444.698 72.3407C444.698 72.1694 444.837 72.0244 445.015 72.0244H452.461C452.633 72.0244 452.778 72.1628 452.778 72.3407C452.771 72.512 452.633 72.6569 452.461 72.6569Z" fill="#F2F2F2"/>
<path d="M499.547 83.1355H458.65C458.478 83.1355 458.333 82.9971 458.333 82.8192C458.333 82.6479 458.472 82.5029 458.65 82.5029H499.547C499.718 82.5029 499.863 82.6413 499.863 82.8192C499.856 82.9905 499.718 83.1355 499.547 83.1355Z" fill="#F2F2F2"/>
<path d="M452.461 83.1355H445.015C444.843 83.1355 444.698 82.9971 444.698 82.8192C444.698 82.6479 444.837 82.5029 445.015 82.5029H452.461C452.633 82.5029 452.778 82.6413 452.778 82.8192C452.771 82.9905 452.633 83.1355 452.461 83.1355Z" fill="#F2F2F2"/>
<path d="M464.798 40.2808L454.702 50.2564L464.798 60.2254L467.071 57.9523L459.433 50.3157L467.13 42.6198L464.798 40.2808Z" fill="#FFA500"/>
<path d="M479.691 40.2808L489.793 50.2564L479.691 60.2254L477.424 57.9523L485.055 50.3157L477.358 42.6198L479.691 40.2808Z" fill="#FFA500"/>
<path d="M422.346 10.1293C423.041 10.1293 423.604 9.56583 423.604 8.87079C423.604 8.17575 423.041 7.6123 422.346 7.6123C421.65 7.6123 421.087 8.17575 421.087 8.87079C421.087 9.56583 421.65 10.1293 422.346 10.1293Z" fill="#FFA500"/>
<path d="M425.706 10.1293C426.402 10.1293 426.965 9.56583 426.965 8.87079C426.965 8.17575 426.402 7.6123 425.706 7.6123C425.011 7.6123 424.448 8.17575 424.448 8.87079C424.448 9.56583 425.011 10.1293 425.706 10.1293Z" fill="#FFA500"/>
<path d="M429.074 10.1293C429.769 10.1293 430.333 9.56583 430.333 8.87079C430.333 8.17575 429.769 7.6123 429.074 7.6123C428.379 7.6123 427.815 8.17575 427.815 8.87079C427.815 9.56583 428.379 10.1293 429.074 10.1293Z" fill="#FFA500"/>
<path opacity="0.1" d="M524.944 10.9727H419.538V11.3943H524.944V10.9727Z" fill="black"/>
<path d="M549.9 69.1991C549.9 78.1337 544.589 81.2569 538.032 81.2569C531.475 81.2569 526.163 78.1337 526.163 69.1991C526.163 60.2646 538.032 48.8921 538.032 48.8921C538.032 48.8921 549.9 60.2646 549.9 69.1991Z" fill="#FFA500"/>
<path d="M537.597 79.893L537.722 72.408L542.776 63.1571L537.741 71.2351L537.794 67.8748L541.28 61.1804L537.807 66.9853L537.906 60.9366L541.643 55.6062L537.919 59.9813L537.985 48.8921L537.597 63.5722L537.629 62.9726L533.834 57.1612L537.57 64.1323L537.214 70.8859L537.201 70.708L532.825 64.5935L537.188 71.3406L537.148 72.1839L537.142 72.1971V72.2696L536.246 89.4074H537.445L537.59 80.5585L541.939 73.8246L537.597 79.893Z" fill="#3F3D56"/>
</g>
<g filter="url(#filter2_d)">
<path d="M326.792 136.587C326.449 138.082 325.276 141.232 321.507 141.153C318.627 141.093 316.406 139.117 316.485 136.85L317.573 105.988L317.928 95.9198C317.928 95.9198 319.793 93.1327 321.658 105.619V105.665L326.825 135.269C326.897 135.704 326.891 136.152 326.792 136.587Z" fill="#8C8C8C"/>
<path d="M324.274 139.584H318.732V148.914H324.274V139.584Z" fill="white"/>
<path d="M323.681 146.694H319.417V150.793H323.681V146.694Z" fill="white"/>
<path d="M321.658 105.665C319.714 105.223 318.396 105.559 317.559 105.988L317.915 95.9198C317.915 95.9198 319.78 93.1327 321.645 105.619L321.658 105.665Z" fill="#FFA500"/>
<path d="M324.281 142.371V148.914H318.739V142.503C320.492 141.903 322.475 141.857 324.281 142.371Z" fill="#FFA500"/>
<path d="M337.336 163.166C335.78 162.27 332.696 160.063 334.436 157.427C335.767 155.418 338.996 154.713 341.553 155.76L376.335 170.058L387.683 174.723C387.683 174.723 390.042 177.26 374.964 173.109L374.911 173.096L338.825 163.766C338.291 163.627 337.79 163.43 337.336 163.166Z" fill="#8C8C8C"/>
<path d="M324.354 155.991L326.785 152.064L337.448 156.156L335.016 160.077L324.354 155.991Z" fill="white"/>
<path d="M329.019 153.52L327.148 156.538L322.469 154.739L324.34 151.728L329.019 153.52Z" fill="white"/>
<path d="M374.905 173.096C376.262 171.917 376.453 170.836 376.335 170.065L387.682 174.73C387.682 174.73 390.042 177.267 374.964 173.116L374.905 173.096Z" fill="#FFA500"/>
<path d="M331.826 158.85L324.354 155.984L326.785 152.07L334.107 154.877C334.021 156.386 333.204 157.809 331.826 158.85Z" fill="#FFA500"/>
<path d="M305.677 163.166C307.233 162.27 310.317 160.063 308.577 157.427C307.246 155.418 304.017 154.713 301.46 155.76L266.678 170.058L255.331 174.723C255.331 174.723 252.971 177.26 268.049 173.109L268.102 173.096L304.188 163.772C304.722 163.634 305.223 163.43 305.677 163.166Z" fill="#8C8C8C"/>
<path d="M305.566 156.156L316.228 152.064L318.66 155.985L307.997 160.077L305.566 156.156Z" fill="white"/>
<path d="M318.673 151.722L320.545 154.739L315.866 156.538L313.994 153.52L318.673 151.722Z" fill="white"/>
<path d="M268.108 173.096C266.751 171.917 266.56 170.836 266.678 170.065L255.331 174.73C255.331 174.73 252.971 177.267 268.049 173.116L268.108 173.096Z" fill="#FFA500"/>
<path d="M311.187 158.85L318.66 155.984L316.228 152.07L308.907 154.877C308.992 156.386 309.81 157.809 311.187 158.85Z" fill="#FFA500"/>
<path d="M326.495 254.488H315.622L319.075 153.71H323.042L326.495 254.488Z" fill="#8C8C8C"/>
<path d="M321.507 155.318C323.508 155.318 325.131 154.041 325.131 152.465C325.131 150.89 323.508 149.612 321.507 149.612C319.505 149.612 317.882 150.89 317.882 152.465C317.882 154.041 319.505 155.318 321.507 155.318Z" fill="#FFA500"/>
<path d="M407.327 131.276C407.096 132.284 406.306 134.413 403.755 134.36C401.798 134.287 400.283 132.989 400.355 131.448L401.093 110.567L401.33 103.761C401.33 103.761 402.596 101.876 403.854 110.323V110.356L407.347 130.393C407.393 130.683 407.393 130.98 407.327 131.276Z" fill="#8C8C8C"/>
<path d="M405.627 133.298H401.877V139.61H405.627V133.298Z" fill="white"/>
<path d="M405.225 138.116H402.338V140.89H405.225V138.116Z" fill="white"/>
<path d="M403.854 110.357C402.543 110.061 401.647 110.285 401.086 110.575L401.324 103.768C401.324 103.768 402.589 101.884 403.848 110.331L403.854 110.357Z" fill="#FFA500"/>
<path d="M405.627 135.183V139.604H401.877V135.269C403.063 134.867 404.408 134.834 405.627 135.183Z" fill="#FFA500"/>
<path d="M414.451 149.256C413.403 148.65 411.307 147.161 412.487 145.376C413.423 144.025 415.578 143.518 417.304 144.249L440.837 153.921L448.507 157.078C448.507 157.078 450.109 158.797 439.907 155.984H439.868L415.452 149.678C415.096 149.573 414.754 149.434 414.451 149.256Z" fill="#8C8C8C"/>
<path d="M405.68 144.4L407.321 141.745L414.537 144.512L412.889 147.168L405.68 144.4Z" fill="white"/>
<path d="M408.836 142.734L407.571 144.77L404.408 143.558L405.673 141.515L408.836 142.734Z" fill="white"/>
<path d="M439.881 155.971C440.804 155.173 440.929 154.442 440.85 153.921L448.52 157.077C448.52 157.077 450.122 158.797 439.921 155.984L439.881 155.971Z" fill="#FFA500"/>
<path d="M410.734 146.338L405.666 144.394L407.307 141.745L412.263 143.643C412.21 144.664 411.663 145.626 410.734 146.338Z" fill="#FFA500"/>
<path d="M393.047 149.256C394.094 148.65 396.19 147.161 395.01 145.376C394.075 144.025 391.92 143.518 390.193 144.249L366.661 153.921L358.99 157.078C358.99 157.078 357.389 158.797 367.59 155.984H367.629L392.045 149.678C392.401 149.573 392.737 149.434 393.047 149.256Z" fill="#8C8C8C"/>
<path d="M392.968 144.512L400.184 141.745L401.825 144.4L394.615 147.168L392.968 144.512Z" fill="white"/>
<path d="M401.831 141.515L403.103 143.558L399.933 144.77L398.668 142.727L401.831 141.515Z" fill="white"/>
<path d="M367.623 155.971C366.707 155.173 366.575 154.442 366.654 153.921L358.984 157.077C358.984 157.077 357.382 158.797 367.583 155.984L367.623 155.971Z" fill="#FFA500"/>
<path d="M396.77 146.338L401.825 144.394L400.184 141.745L395.228 143.643C395.281 144.664 395.834 145.633 396.77 146.338Z" fill="#FFA500"/>
<path d="M407.129 211.042L399.735 212.063L402.108 142.86H404.79L407.129 211.042Z" fill="#8C8C8C"/>
<path d="M403.755 143.946C405.109 143.946 406.207 143.082 406.207 142.016C406.207 140.949 405.109 140.085 403.755 140.085C402.401 140.085 401.304 140.949 401.304 142.016C401.304 143.082 402.401 143.946 403.755 143.946Z" fill="#FFA500"/>
<path d="M239.528 131.276C239.297 132.284 238.507 134.413 235.956 134.36C233.999 134.287 232.483 132.989 232.556 131.448L233.294 110.567L233.531 103.761C233.531 103.761 234.797 101.876 236.055 110.323V110.356L239.548 130.393C239.594 130.683 239.587 130.98 239.528 131.276Z" fill="#8C8C8C"/>
<path d="M237.828 133.298H234.078V139.61H237.828V133.298Z" fill="white"/>
<path d="M237.419 138.116H234.533V140.89H237.419V138.116Z" fill="white"/>
<path d="M236.055 110.357C234.744 110.061 233.848 110.285 233.287 110.575L233.525 103.768C233.525 103.768 234.79 101.884 236.049 110.331L236.055 110.357Z" fill="#FFA500"/>
<path d="M237.828 135.183V139.604H234.078V135.269C235.264 134.867 236.609 134.834 237.828 135.183Z" fill="#FFA500"/>
<path d="M246.658 149.256C245.611 148.65 243.522 147.161 244.701 145.376C245.637 144.025 247.785 143.518 249.512 144.249L273.044 153.921L280.722 157.078C280.722 157.078 282.316 158.797 272.115 155.984H272.076L247.667 149.678C247.304 149.573 246.968 149.434 246.658 149.256Z" fill="#8C8C8C"/>
<path d="M237.881 144.4L239.522 141.745L246.738 144.512L245.09 147.168L237.881 144.4Z" fill="white"/>
<path d="M241.03 142.727L239.765 144.77L236.602 143.558L237.867 141.515L241.03 142.727Z" fill="white"/>
<path d="M272.082 155.971C273.005 155.173 273.13 154.442 273.051 153.921L280.728 157.077C280.728 157.077 282.323 158.797 272.122 155.984L272.082 155.971Z" fill="#FFA500"/>
<path d="M242.935 146.338L237.881 144.394L239.528 141.745L244.484 143.643C244.418 144.664 243.871 145.633 242.935 146.338Z" fill="#FFA500"/>
<path d="M225.241 149.256C226.296 148.65 228.385 147.161 227.205 145.376C226.269 144.025 224.114 143.518 222.388 144.249L198.855 153.921L191.184 157.077C191.184 157.077 189.583 158.797 199.784 155.984H199.824L224.239 149.678C224.595 149.573 224.938 149.434 225.241 149.256Z" fill="#8C8C8C"/>
<path d="M225.169 144.512L232.378 141.745L234.026 144.4L226.81 147.168L225.169 144.512Z" fill="white"/>
<path d="M234.032 141.515L235.304 143.558L232.134 144.77L230.869 142.734L234.032 141.515Z" fill="white"/>
<path d="M199.824 155.971C198.908 155.173 198.776 154.442 198.855 153.921L191.184 157.077C191.184 157.077 189.583 158.797 199.784 155.984L199.824 155.971Z" fill="#FFA500"/>
<path d="M228.964 146.338L234.019 144.394L232.378 141.745L227.422 143.643C227.482 144.664 228.035 145.626 228.964 146.338Z" fill="#FFA500"/>
<path d="M239.33 211.042H231.969L234.309 142.86H236.991L239.33 211.042Z" fill="#8C8C8C"/>
<path d="M235.95 143.946C237.304 143.946 238.401 143.082 238.401 142.016C238.401 140.949 237.304 140.085 235.95 140.085C234.596 140.085 233.498 140.949 233.498 142.016C233.498 143.082 234.596 143.946 235.95 143.946Z" fill="#FFA500"/>
<path opacity="0.1" d="M224.543 184.58L223.857 184.178C223.93 184.198 224.002 184.224 224.075 184.257C224.22 184.323 224.351 184.402 224.47 184.501C224.549 184.554 224.622 184.606 224.694 184.659L224.543 184.58Z" fill="black"/>
<path d="M246.474 202.752C248.508 202.752 250.158 201.454 250.158 199.853C250.158 198.252 248.508 196.954 246.474 196.954C244.439 196.954 242.79 198.252 242.79 199.853C242.79 201.454 244.439 202.752 246.474 202.752Z" fill="#3F3D56"/>
<path d="M239.225 211.318C233.907 217.736 235.363 225.893 235.363 225.893C235.363 225.893 245.439 223.652 250.757 217.235C256.075 210.817 254.619 202.66 254.619 202.66C254.619 202.66 244.543 204.907 239.225 211.318Z" fill="#3F3D56"/>
<path d="M235.91 225.985C235.91 225.985 235.778 225.972 235.541 225.932C235.35 225.899 235.086 225.86 234.77 225.8C231.917 225.273 224.319 223.481 219.356 218.77C213.142 212.873 213.406 204.637 213.406 204.637C213.406 204.637 222.908 205.849 229.169 211.147C229.439 211.377 229.703 211.608 229.96 211.852C235.363 216.984 235.871 223.883 235.91 225.59C235.917 225.846 235.91 225.985 235.91 225.985Z" fill="#FFA500"/>
<path d="M232.082 211.483C237.4 217.901 235.943 226.058 235.943 226.058C235.943 226.058 225.867 223.818 220.549 217.4C215.231 210.982 216.688 202.825 216.688 202.825C216.688 202.825 226.763 205.072 232.082 211.483Z" stroke="#3F3D56" stroke-width="0.261243" stroke-miterlimit="10"/>
<path opacity="0.1" d="M235.91 225.589C235.772 225.721 235.646 225.833 235.541 225.932C235.317 226.136 235.185 226.242 235.185 226.242C235.185 226.242 235.027 226.09 234.77 225.8C233.333 224.225 228.714 218.625 229.07 212.155C229.09 211.819 229.122 211.483 229.162 211.146C229.432 211.377 229.696 211.608 229.953 211.851C235.363 216.984 235.871 223.883 235.91 225.589Z" fill="black"/>
<path d="M243.792 212.616C243.37 220.266 236.154 226.236 236.154 226.236C236.154 226.236 229.617 219.798 230.039 212.149C230.46 204.499 237.676 198.529 237.676 198.529C237.676 198.529 244.213 204.967 243.792 212.616Z" fill="#FFA500"/>
<path d="M235.574 225.86L237.162 198.681" stroke="#3F3D56" stroke-width="0.261243" stroke-miterlimit="10"/>
<path d="M265.17 208.129C266.836 208.129 268.188 207.067 268.188 205.757C268.188 204.447 266.836 203.385 265.17 203.385C263.503 203.385 262.151 204.447 262.151 205.757C262.151 207.067 263.503 208.129 265.17 208.129Z" fill="#3F3D56"/>
<path d="M259.232 215.152C254.876 220.41 256.069 227.091 256.069 227.091C256.069 227.091 264.326 225.253 268.682 220.002C273.038 214.744 271.845 208.062 271.845 208.062C271.845 208.062 263.588 209.894 259.232 215.152Z" fill="#3F3D56"/>
<path d="M256.049 227.026C256.049 227.026 255.944 227.013 255.746 226.98C255.588 226.953 255.377 226.92 255.113 226.868C252.774 226.433 246.553 224.963 242.487 221.109C237.399 216.279 237.61 209.532 237.61 209.532C237.61 209.532 245.393 210.527 250.52 214.863C250.744 215.047 250.962 215.245 251.166 215.442C255.594 219.646 256.009 225.3 256.042 226.696C256.049 226.914 256.049 227.026 256.049 227.026Z" fill="#FFA500"/>
<path d="M252.906 215.152C257.261 220.41 256.069 227.091 256.069 227.091C256.069 227.091 247.812 225.253 243.456 220.002C239.1 214.744 240.292 208.062 240.292 208.062C240.292 208.062 248.55 209.894 252.906 215.152Z" stroke="#3F3D56" stroke-width="0.261243" stroke-miterlimit="10"/>
<path opacity="0.1" d="M256.043 226.704C255.93 226.816 255.825 226.908 255.739 226.98C255.555 227.145 255.449 227.231 255.449 227.231C255.449 227.231 255.324 227.106 255.107 226.868C253.927 225.577 250.145 220.991 250.441 215.687C250.454 215.41 250.481 215.133 250.52 214.863C250.744 215.048 250.962 215.245 251.166 215.443C255.601 219.653 256.01 225.307 256.043 226.704Z" fill="black"/>
<path d="M262.5 216.081C262.158 222.347 256.24 227.236 256.24 227.236C256.24 227.236 250.882 221.965 251.232 215.693C251.574 209.427 257.492 204.538 257.492 204.538C257.492 204.538 262.85 209.809 262.5 216.081Z" fill="#FFA500"/>
<path d="M256.247 227.059L257.545 204.795" stroke="#3F3D56" stroke-width="0.261243" stroke-miterlimit="10"/>
<path d="M302.093 209.7C308.021 209.7 312.828 205.918 312.828 201.253C312.828 196.588 308.021 192.806 302.093 192.806C296.164 192.806 291.358 196.588 291.358 201.253C291.358 205.918 296.164 209.7 302.093 209.7Z" fill="#FFA500"/>
<path d="M283.845 229.578C289.774 229.578 294.58 225.796 294.58 221.131C294.58 216.466 289.774 212.684 283.845 212.684C277.916 212.684 273.11 216.466 273.11 221.131C273.11 225.796 277.916 229.578 283.845 229.578Z" fill="#FFA500"/>
<path d="M261.387 245.451C267.316 245.451 272.122 241.669 272.122 237.004C272.122 232.339 267.316 228.557 261.387 228.557C255.458 228.557 250.652 232.339 250.652 237.004C250.652 241.669 255.458 245.451 261.387 245.451Z" fill="#FFA500"/>
<path d="M261.38 252.278V236.958" stroke="#3F3D56" stroke-width="0.261243" stroke-miterlimit="10"/>
<path d="M261.38 239.127C262.902 239.127 264.135 238.156 264.135 236.959C264.135 235.762 262.902 234.792 261.38 234.792C259.859 234.792 258.626 235.762 258.626 236.959C258.626 238.156 259.859 239.127 261.38 239.127Z" fill="#3F3D56"/>
<path d="M261.38 246.4C261.38 246.4 260.985 239.745 252.925 240.516L261.38 246.4Z" fill="#3F3D56"/>
<path d="M302.099 252.383V201.286" stroke="#3F3D56" stroke-width="0.261243" stroke-miterlimit="10"/>
<path d="M302.099 203.427C303.621 203.427 304.854 202.456 304.854 201.259C304.854 200.062 303.621 199.091 302.099 199.091C300.578 199.091 299.345 200.062 299.345 201.259C299.345 202.456 300.578 203.427 302.099 203.427Z" fill="#3F3D56"/>
<path d="M293.638 240.398C295.159 240.398 296.392 239.427 296.392 238.23C296.392 237.033 295.159 236.062 293.638 236.062C292.117 236.062 290.883 237.033 290.883 238.23C290.883 239.427 292.117 240.398 293.638 240.398Z" fill="#3F3D56"/>
<path d="M302.099 212.323C302.099 212.323 301.704 205.668 293.645 206.439L302.099 212.323Z" fill="#3F3D56"/>
<path d="M302.099 231.193C302.099 231.193 301.704 224.538 293.645 225.309L302.099 231.193Z" fill="#3F3D56"/>
<path d="M302.099 251.79C302.099 251.79 303.872 238.849 293.645 238.229" stroke="#3F3D56" stroke-width="0.261243" stroke-miterlimit="10"/>
<path d="M310.554 240.398C312.075 240.398 313.309 239.427 313.309 238.23C313.309 237.033 312.075 236.062 310.554 236.062C309.033 236.062 307.8 237.033 307.8 238.23C307.8 239.427 309.033 240.398 310.554 240.398Z" fill="#3F3D56"/>
<path d="M302.099 251.79C302.099 251.79 300.327 238.849 310.554 238.229" stroke="#3F3D56" stroke-width="0.261243" stroke-miterlimit="10"/>
<path d="M310.726 220.078C312.247 220.078 313.48 219.107 313.48 217.91C313.48 216.713 312.247 215.742 310.726 215.742C309.204 215.742 307.971 216.713 307.971 217.91C307.971 219.107 309.204 220.078 310.726 220.078Z" fill="#3F3D56"/>
<path d="M302.264 230.778C302.264 230.778 300.491 218.53 310.719 217.91" stroke="#3F3D56" stroke-width="0.261243" stroke-miterlimit="10"/>
<path d="M283.852 252.311V221.119" stroke="#3F3D56" stroke-width="0.261243" stroke-miterlimit="10"/>
<path d="M283.852 223.286C285.373 223.286 286.606 222.315 286.606 221.118C286.606 219.921 285.373 218.95 283.852 218.95C282.33 218.95 281.097 219.921 281.097 221.118C281.097 222.315 282.33 223.286 283.852 223.286Z" fill="#3F3D56"/>
<path d="M283.852 229.941C283.852 229.941 283.456 223.286 275.397 224.057L283.852 229.941Z" fill="#3F3D56"/>
<path d="M283.852 251.718C283.852 251.718 285.625 238.915 275.397 238.296" stroke="#3F3D56" stroke-width="0.261243" stroke-miterlimit="10"/>
<path d="M275.397 240.464C276.918 240.464 278.152 239.493 278.152 238.296C278.152 237.099 276.918 236.128 275.397 236.128C273.876 236.128 272.643 237.099 272.643 238.296C272.643 239.493 273.876 240.464 275.397 240.464Z" fill="#3F3D56"/>
</g>
<g filter="url(#filter3_d)">
<path d="M41.1365 295.318C41.1365 295.318 23.7104 305.838 55.8474 322.039C55.8474 322.039 62.9269 308.892 55.1012 298.177C51.9596 293.857 46.0778 292.565 41.4124 295.18L41.1365 295.318Z" fill="#FFA500"/>
<path d="M41.3499 295.099C41.3499 295.099 56.274 306.503 55.8538 322.033" stroke="#535461" stroke-width="0.130622" stroke-miterlimit="10"/>
<path d="M261.643 286.559C265.174 299.468 250.111 336.246 250.111 336.246C250.111 336.246 218.42 312.258 214.883 299.349C211.052 286.521 218.344 273.016 231.174 269.186C244.004 265.355 257.511 272.647 261.342 285.474C261.455 285.832 261.555 286.189 261.643 286.559Z" fill="#FFA500"/>
<path opacity="0.1" d="M261.643 286.559C265.174 299.468 250.111 336.246 250.111 336.246C250.111 336.246 218.42 312.258 214.883 299.349C211.052 286.521 218.344 273.016 231.174 269.186C244.004 265.355 257.511 272.647 261.342 285.474C261.455 285.832 261.555 286.189 261.643 286.559Z" fill="black"/>
<path d="M232.002 269.65C232.002 269.65 251.729 299.425 250.256 336.315" stroke="#535461" stroke-width="0.130622" stroke-miterlimit="10"/>
<path d="M266.678 310.152C266.678 310.152 248.788 300.421 251.052 336.34C251.052 336.34 265.976 335.807 271.269 323.638C273.413 318.741 271.551 313.011 266.936 310.309L266.678 310.152Z" fill="#FFA500"/>
<path d="M266.973 310.215C266.973 310.215 264.666 328.861 251.058 336.341" stroke="#535461" stroke-width="0.130622" stroke-miterlimit="10"/>
<path d="M4.79194 306.145C4.79194 306.145 -12.6467 316.659 19.4966 332.854C19.4966 332.854 26.5761 319.706 18.7504 308.991C15.6088 304.671 9.72692 303.38 5.06157 305.994L4.79194 306.145Z" fill="#FFA500"/>
<path d="M4.99268 305.926C4.99268 305.926 19.9168 317.331 19.4966 332.861" stroke="#535461" stroke-width="0.130622" stroke-miterlimit="10"/>
<path d="M222.37 319.839H204.048C204.468 318.992 204.687 318.058 204.687 317.111V233.681C204.687 230.295 201.941 227.549 198.554 227.549H56.7129C53.3267 227.549 50.5802 230.295 50.5802 233.681V317.111C50.5802 318.058 50.7997 318.992 51.2198 319.839H32.2386C31.3419 319.839 30.6145 320.566 30.6145 321.462V321.469V322.779C30.6145 327.789 34.6779 331.851 39.6881 331.851H214.915C219.925 331.851 223.988 327.789 223.988 322.779V321.469C223.994 320.572 223.273 319.839 222.377 319.832C222.377 319.839 222.37 319.839 222.37 319.839ZM109.455 325.03L107.875 323.249H146.885L145.148 325.036L109.455 325.03Z" fill="url(#paint0_linear)"/>
<path d="M58.9388 228.727H196.297C199.959 228.727 202.931 231.699 202.931 235.36V315.625C202.931 319.286 199.959 322.258 196.297 322.258H58.9388C55.2767 322.258 52.3044 319.286 52.3044 315.625V235.36C52.3107 231.699 55.2767 228.727 58.9388 228.727Z" fill="#535461"/>
<path d="M199.439 242.364H55.4775V318.773H199.439V242.364Z" fill="white"/>
<path d="M127.464 236.972C128.164 236.972 128.731 236.405 128.731 235.706C128.731 235.006 128.164 234.439 127.464 234.439C126.765 234.439 126.198 235.006 126.198 235.706C126.198 236.405 126.765 236.972 127.464 236.972Z" fill="white"/>
<path d="M149.687 318.929L144.74 324.001H109.869L105.398 318.929H34.3892C33.5113 318.929 32.8027 319.638 32.8027 320.515V321.794C32.8027 326.691 36.772 330.666 41.6757 330.666H212.933C217.83 330.666 221.806 326.697 221.806 321.794V320.515C221.806 319.638 221.097 318.929 220.219 318.929H149.687Z" fill="#535461"/>
<path d="M73.8691 247.117V312.115H181.367" stroke="#535461" stroke-width="0.261243" stroke-miterlimit="10"/>
<path opacity="0.5" d="M94.4806 292.459H83.3816V309.582H94.4806V292.459Z" fill="#FFA500"/>
<path opacity="0.7" d="M113.506 277.237H102.407V309.576H113.506V277.237Z" fill="#FFA500"/>
<path opacity="0.5" d="M132.537 286.434H121.438V309.575H132.537V286.434Z" fill="#FFA500"/>
<path opacity="0.8" d="M151.562 272.165H140.463V309.576H151.562V272.165Z" fill="#FFA500"/>
<path d="M170.587 258.847H159.488V309.575H170.587V258.847Z" fill="#FFA500"/>
<path d="M88.7744 281.995L108.119 264.559L127.144 281.042L145.85 261.066L164.881 253.142" stroke="#535461" stroke-width="0.261243" stroke-miterlimit="10"/>
<path d="M88.7745 284.214C90.0005 284.214 90.9943 283.22 90.9943 281.994C90.9943 280.769 90.0005 279.775 88.7745 279.775C87.5485 279.775 86.5547 280.769 86.5547 281.994C86.5547 283.22 87.5485 284.214 88.7745 284.214Z" fill="#FFA500"/>
<path d="M126.825 282.942C128.051 282.942 129.045 281.948 129.045 280.722C129.045 279.497 128.051 278.503 126.825 278.503C125.599 278.503 124.605 279.497 124.605 280.722C124.605 281.948 125.599 282.942 126.825 282.942Z" fill="#FFA500"/>
<path d="M148.364 261.426C148.561 260.216 147.739 259.076 146.529 258.879C145.319 258.683 144.178 259.504 143.982 260.714C143.786 261.924 144.607 263.064 145.818 263.261C147.028 263.457 148.168 262.636 148.364 261.426Z" fill="#FFA500"/>
<path d="M108.119 266.459C109.345 266.459 110.339 265.465 110.339 264.239C110.339 263.014 109.345 262.02 108.119 262.02C106.893 262.02 105.9 263.014 105.9 264.239C105.9 265.465 106.893 266.459 108.119 266.459Z" fill="#FFA500"/>
<path d="M164.881 255.36C166.107 255.36 167.101 254.367 167.101 253.141C167.101 251.915 166.107 250.921 164.881 250.921C163.655 250.921 162.661 251.915 162.661 253.141C162.661 254.367 163.655 255.36 164.881 255.36Z" fill="#FFA500"/>
<path d="M23.6541 252.107C23.6541 252.107 16.1733 267.575 21.0895 285.882C25.9994 304.19 24.438 326.09 19.5406 331.507" stroke="#535461" stroke-width="0.261243" stroke-miterlimit="10"/>
<path d="M23.6541 254.176C24.7935 254.176 25.7171 253.252 25.7171 252.113C25.7171 250.974 24.7935 250.05 23.6541 250.05C22.5147 250.05 21.5911 250.974 21.5911 252.113C21.5911 253.252 22.5147 254.176 23.6541 254.176Z" fill="#FFA500"/>
<path d="M20.5439 262.057C20.5439 262.057 28.2944 263.455 30.3575 260.634" stroke="#535461" stroke-width="0.261243" stroke-miterlimit="10"/>
<path d="M19.8101 266.546C19.8101 266.546 15.1448 261.386 15.4019 258.295" stroke="#535461" stroke-width="0.261243" stroke-miterlimit="10"/>
<path d="M19.415 276.001C19.415 276.001 23.654 277.117 27.5292 268.873" stroke="#535461" stroke-width="0.261243" stroke-miterlimit="10"/>
<path d="M20.5436 282.872C20.5436 282.872 9.99009 276.082 11.2756 271.7" stroke="#535461" stroke-width="0.261243" stroke-miterlimit="10"/>
<path d="M22.1931 290.64C22.1931 290.64 29.5862 284.082 28.8149 277.631" stroke="#535461" stroke-width="0.261243" stroke-miterlimit="10"/>
<path d="M22.9955 295.211C22.9955 295.211 13.5833 292.584 13.8717 288.458" stroke="#535461" stroke-width="0.261243" stroke-miterlimit="10"/>
<path d="M23.6541 300.654C23.6541 300.654 29.5861 295.161 30.3574 291.813" stroke="#535461" stroke-width="0.261243" stroke-miterlimit="10"/>
<path d="M24.0678 309.996C24.0678 309.996 17.9853 302.893 17.7219 299.288" stroke="#535461" stroke-width="0.261243" stroke-miterlimit="10"/>
<path d="M24.0679 315.87C24.0679 315.87 30.8778 308.309 31.392 304.698" stroke="#535461" stroke-width="0.261243" stroke-miterlimit="10"/>
<path d="M30.3575 262.678C31.4969 262.678 32.4205 261.755 32.4205 260.615C32.4205 259.476 31.4969 258.553 30.3575 258.553C29.2181 258.553 28.2944 259.476 28.2944 260.615C28.2944 261.755 29.2181 262.678 30.3575 262.678Z" fill="#FFA500"/>
<path d="M30.3575 294.39C31.4969 294.39 32.4205 293.466 32.4205 292.327C32.4205 291.188 31.4969 290.264 30.3575 290.264C29.2181 290.264 28.2944 291.188 28.2944 292.327C28.2944 293.466 29.2181 294.39 30.3575 294.39Z" fill="#FFA500"/>
<path d="M27.0088 270.93C28.1482 270.93 29.0719 270.006 29.0719 268.867C29.0719 267.728 28.1482 266.804 27.0088 266.804C25.8695 266.804 24.9458 267.728 24.9458 268.867C24.9458 270.006 25.8695 270.93 27.0088 270.93Z" fill="#FFA500"/>
<path d="M31.1285 308.052C32.2679 308.052 33.1915 307.128 33.1915 305.989C33.1915 304.85 32.2679 303.926 31.1285 303.926C29.9891 303.926 29.0654 304.85 29.0654 305.989C29.0654 307.128 29.9891 308.052 31.1285 308.052Z" fill="#FFA500"/>
<path d="M17.2078 302.634C18.3472 302.634 19.2708 301.711 19.2708 300.572C19.2708 299.432 18.3472 298.509 17.2078 298.509C16.0684 298.509 15.1448 299.432 15.1448 300.572C15.1448 301.711 16.0684 302.634 17.2078 302.634Z" fill="#FFA500"/>
<path d="M29.0718 279.694C30.2112 279.694 31.1349 278.77 31.1349 277.631C31.1349 276.492 30.2112 275.568 29.0718 275.568C27.9324 275.568 27.0088 276.492 27.0088 277.631C27.0088 278.77 27.9324 279.694 29.0718 279.694Z" fill="#FFA500"/>
</g>
<g filter="url(#filter4_d)">
<path d="M351.056 188.583H340.051V185.242C343.53 182.824 346.608 183.035 350.66 185.44L351.056 188.583Z" fill="#FFA500"/>
<path d="M337.507 247.917H335.095L334.732 238.626H337.507V247.917Z" fill="#FFB8B8"/>
<path d="M338.12 250.256H330.35V250.158C330.35 248.491 331.701 247.133 333.375 247.133H338.12V250.256Z" fill="#2F2E41"/>
<path d="M351.075 247.917H353.487L353.843 238.626H351.075V247.917Z" fill="#FFB8B8"/>
<path d="M350.463 247.133H355.207C356.875 247.133 358.232 248.484 358.232 250.158V250.256H350.463V247.133Z" fill="#2F2E41"/>
<path d="M351.141 246.724C350.726 246.724 350.37 246.434 350.278 246.032L344.308 219.986C344.281 219.848 344.156 219.749 344.018 219.756C343.879 219.756 343.754 219.855 343.728 219.986L338.245 245.854C338.159 246.263 337.797 246.553 337.382 246.553H334.772C334.284 246.553 333.889 246.158 333.889 245.67C333.889 245.65 333.889 245.637 333.889 245.617L335.833 212.831L336.617 212.6H336.63L352.011 212.732L355.286 245.485C355.332 245.973 354.977 246.401 354.496 246.454C354.489 246.454 354.482 246.454 354.482 246.454L351.22 246.718C351.187 246.724 351.161 246.724 351.141 246.724Z" fill="#2F2E41"/>
<path d="M344.789 182.594C347.453 182.594 349.613 180.435 349.613 177.771C349.613 175.107 347.453 172.948 344.789 172.948C342.125 172.948 339.965 175.107 339.965 177.771C339.965 180.435 342.125 182.594 344.789 182.594Z" fill="#FFB8B8"/>
<path d="M341.83 216.435C340.986 216.448 340.143 216.329 339.326 216.085C337.869 215.644 336.657 214.623 335.978 213.259C335.873 213.054 335.846 212.817 335.912 212.6C336.446 210.781 339.016 201.339 337.375 193.835C336.907 191.726 337.316 189.519 338.509 187.72C339.675 185.934 341.514 184.696 343.603 184.294C343.873 184.241 344.15 184.195 344.413 184.162C346.733 183.879 349.059 184.643 350.753 186.251C352.499 187.891 353.422 190.217 353.27 192.609L352.011 212.85C351.992 213.16 351.814 213.437 351.537 213.575C350.094 214.333 345.725 216.435 341.83 216.435Z" fill="#3F3D56"/>
<path d="M350.239 174.219C349.204 171.623 346.495 170.101 343.741 170.569L345.263 171.801C343.372 171.867 341.382 171.729 340.031 173.053C340.459 173.04 341.026 173.962 341.454 173.949C340.65 173.962 339.919 174.529 339.569 175.254C339.24 175.992 339.161 176.822 339.352 177.612C339.51 178.403 340.723 180.248 341.046 180.979C340.986 179.062 344.769 174.483 346.614 174.957C345.678 175.306 344.861 175.926 344.275 176.73C345.533 176.097 346.95 175.866 348.341 176.064C348.657 176.137 348.986 176.156 349.309 176.117C349.949 175.992 350.37 175.366 350.239 174.727C350.206 174.542 350.127 174.371 350.008 174.226L350.239 174.219Z" fill="#2F2E41"/>
<path d="M341.5 215.223C341.375 215.223 341.257 215.196 341.145 215.15L331.985 211.151C331.583 210.979 331.365 210.538 331.484 210.116L337.546 187.22C338.014 185.447 339.827 184.393 341.599 184.861C341.619 184.868 341.639 184.874 341.665 184.881L344.09 185.573L342.383 214.392C342.364 214.682 342.205 214.946 341.962 215.091C341.817 215.177 341.659 215.223 341.5 215.223Z" fill="#FFA500"/>
<path d="M358.449 210.11L358.048 208.588L357.461 206.381L357.178 205.32L356.591 203.119L352.38 187.207C351.912 185.441 350.1 184.381 348.334 184.848C348.308 184.855 348.288 184.861 348.262 184.868L345.836 185.56L347.036 205.834L347.161 207.949L347.24 209.28L347.365 211.382L347.543 214.373C347.576 214.841 347.958 215.204 348.426 215.204C348.545 215.204 348.67 215.177 348.782 215.131L357.942 211.132C358.351 210.98 358.562 210.532 358.449 210.11Z" fill="#FFA500"/>
<path d="M357.178 205.327L347.168 207.956L347.049 205.841L356.598 203.12L357.178 205.327Z" fill="#CCCCCC"/>
<path d="M358.048 208.595L347.372 211.395L347.247 209.293V209.287L357.461 206.388L358.048 208.595Z" fill="#CCCCCC"/>
<path d="M342.759 206.294L342.634 208.37L332.822 205.444L333.395 203.27L342.759 206.294Z" fill="#CCCCCC"/>
<path d="M342.555 209.741L332.538 206.505L331.965 208.686L342.436 211.803L342.555 209.741Z" fill="#CCCCCC"/>
<path d="M332.716 211.908C333.843 211.612 334.522 210.459 334.225 209.332C334.192 209.213 334.152 209.095 334.1 208.983L338.812 194.204L335.47 193.505L331.148 207.994C330.119 208.554 329.737 209.846 330.297 210.874C330.765 211.737 331.767 212.165 332.716 211.908Z" fill="#FFB8B8"/>
<path d="M338.937 186.937C339.899 187.036 340.433 188.11 340.195 189.454L339.049 195.898C338.963 196.379 338.568 196.761 338.238 196.682L334.37 195.713C334.073 195.641 333.961 195.219 334.133 194.791L336.459 188.966C336.96 187.695 338.008 186.838 338.937 186.937Z" fill="#3F3D56"/>
<path d="M344.769 168.738C348.163 168.738 350.95 171.433 351.056 174.826H352.242C352.459 174.826 352.637 175.004 352.637 175.221V176.796C352.637 177.013 352.459 177.191 352.242 177.191H338.878C338.66 177.191 338.482 177.013 338.482 176.796V175.03C338.482 171.551 341.296 168.738 344.769 168.738Z" fill="#FFA500"/>
<path d="M345.52 207.606H342.746C342.561 207.606 342.403 207.467 342.39 207.283L341.836 201.583H346.443L345.889 207.283C345.863 207.467 345.705 207.606 345.52 207.606Z" fill="#E6E6E6"/>
<path d="M346.423 202.301H341.836C341.639 202.301 341.48 202.143 341.48 201.946V201.082C341.48 200.885 341.639 200.727 341.836 200.727H346.423C346.621 200.727 346.779 200.885 346.779 201.082V201.946C346.785 202.143 346.627 202.301 346.423 202.301Z" fill="#CCCCCC"/>
<path d="M344.189 204.549C344.295 204.562 344.407 204.582 344.512 204.615L351.912 198.269L351.478 195.944L354.904 194.83L356.071 198.876C356.262 199.548 355.992 200.266 355.399 200.642L346.028 206.572C346.047 207.711 345.138 208.647 343.998 208.667C342.858 208.687 341.922 207.777 341.902 206.637C341.883 205.498 342.792 204.562 343.932 204.542C344.024 204.536 344.103 204.542 344.189 204.549Z" fill="#FFB8B8"/>
<path d="M351.926 187.471C352.947 187.181 353.975 187.965 354.318 189.289L355.965 195.661C356.09 196.135 355.847 196.649 355.478 196.702L351.095 197.334C350.759 197.381 350.463 197.038 350.45 196.583L350.278 190.311C350.239 188.947 350.937 187.747 351.926 187.471Z" fill="#3F3D56"/>
<path d="M410.853 228.17C408.836 225.489 407.241 222.511 406.121 219.341C405.989 218.953 406.154 218.518 406.523 218.327L413.429 214.624C413.653 214.498 413.924 214.492 414.161 214.591C414.398 214.696 414.576 214.907 414.642 215.157C415.446 218.208 416.955 221.028 419.051 223.387C419.228 223.585 419.301 223.848 419.255 224.105C419.209 224.355 419.051 224.579 418.827 224.698L411.92 228.401C411.558 228.599 411.103 228.5 410.853 228.17Z" fill="#CCCCCC"/>
<path d="M411.327 227.82C411.406 227.919 411.538 227.945 411.643 227.886L418.55 224.183C418.615 224.15 418.668 224.084 418.675 224.005C418.688 223.926 418.668 223.84 418.609 223.781C416.454 221.35 414.892 218.45 414.068 215.307C414.049 215.228 413.996 215.163 413.917 215.13C413.844 215.097 413.765 215.103 413.699 215.136L406.793 218.839C406.688 218.898 406.635 219.024 406.675 219.142C407.775 222.259 409.343 225.184 411.327 227.82Z" fill="white"/>
<path d="M413.884 219.907L410.121 221.567C409.825 221.699 409.475 221.561 409.344 221.264L409.251 221.053C409.12 220.757 409.258 220.408 409.555 220.276L413.317 218.615C413.614 218.484 413.963 218.622 414.095 218.918L414.187 219.129C414.312 219.426 414.181 219.775 413.884 219.907Z" fill="#CCCCCC"/>
<path d="M415.255 222.464L411.492 224.124C411.195 224.256 410.846 224.118 410.714 223.821L410.622 223.61C410.49 223.314 410.629 222.965 410.925 222.833L414.688 221.173C414.984 221.041 415.334 221.179 415.466 221.476L415.558 221.686C415.69 221.983 415.558 222.332 415.255 222.464Z" fill="#CCCCCC"/>
<path d="M406.437 220.336C405.456 219.703 405.172 218.399 405.805 217.417C405.871 217.312 405.95 217.213 406.035 217.121L404.447 194.613L409.014 195.054L409.139 217.101C409.943 217.951 409.904 219.295 409.054 220.099C408.335 220.771 407.255 220.87 406.437 220.336Z" fill="#A0616A"/>
<path d="M405.475 202.176C405.258 202.018 405.126 201.774 405.113 201.511L404.777 195.442C404.704 194.098 405.732 192.952 407.077 192.873C408.223 192.807 409.265 193.558 409.561 194.665L411.031 200.088C411.156 200.562 410.879 201.043 410.411 201.175L406.227 202.308C405.97 202.381 405.693 202.334 405.475 202.176Z" fill="#3F3D56"/>
<path d="M397.686 248.008H395.281L394.134 238.711H397.686V248.008Z" fill="#A0616A"/>
<path d="M393.561 247.317H398.207V250.243H390.635C390.635 248.629 391.94 247.317 393.561 247.317Z" fill="#2F2E41"/>
<path d="M406.727 248.008H404.322L403.175 238.711H406.727V248.008Z" fill="#A0616A"/>
<path d="M402.596 247.317H407.242V250.243H399.67C399.676 248.629 400.981 247.317 402.596 247.317Z" fill="#2F2E41"/>
<path d="M397.574 243.324L394.925 243.199C394.457 243.179 394.088 242.79 394.081 242.323C393.383 231.53 392.414 219.96 393.897 215.493C393.89 215.005 394.286 214.603 394.773 214.603C394.819 214.603 394.859 214.603 394.905 214.61L405.515 216.151C405.95 216.211 406.273 216.58 406.273 217.021C407.63 222.312 407.69 231.912 407.637 241.888C407.643 242.375 407.248 242.777 406.76 242.777H406.754H403.894C403.459 242.777 403.083 242.461 403.017 242.033L401.251 230.818C401.192 230.443 400.843 230.186 400.467 230.245C400.164 230.291 399.927 230.535 399.894 230.845L398.49 242.553C398.437 242.995 398.062 243.331 397.614 243.331C397.6 243.324 397.587 243.324 397.574 243.324Z" fill="#2F2E41"/>
<path d="M399.439 217.015C397.099 215.717 395.274 215.374 394.391 215.289C394.154 215.269 393.936 215.15 393.791 214.959C393.64 214.768 393.574 214.531 393.607 214.294L396.15 195.423C396.447 193.176 397.89 191.246 399.953 190.323C401.956 189.401 404.289 189.585 406.121 190.804C406.207 190.863 406.292 190.923 406.378 190.982C408.5 192.537 409.482 195.219 408.862 197.775C407.301 204.153 406.767 214.61 406.675 216.639C406.661 216.995 406.431 217.305 406.101 217.423C405.139 217.773 404.131 217.95 403.109 217.957C401.831 217.964 400.566 217.641 399.439 217.015Z" fill="#3F3D56"/>
<path d="M401.567 187.754C404.232 187.754 406.391 185.594 406.391 182.931C406.391 180.267 404.232 178.107 401.567 178.107C398.903 178.107 396.744 180.267 396.744 182.931C396.744 185.594 398.903 187.754 401.567 187.754Z" fill="#A0616A"/>
<path d="M404.988 186.746C404.085 187.708 402.418 187.187 402.299 185.883C402.292 185.784 402.292 185.678 402.299 185.58C402.358 185 402.694 184.473 402.615 183.86C402.595 183.708 402.543 183.563 402.45 183.438C401.732 182.476 400.052 183.866 399.373 182.997C398.958 182.463 399.445 181.626 399.129 181.027C398.707 180.243 397.462 180.631 396.684 180.196C395.814 179.715 395.867 178.384 396.44 177.574C397.139 176.586 398.365 176.059 399.571 175.98C400.777 175.9 401.976 176.23 403.109 176.671C404.388 177.172 405.66 177.864 406.451 178.991C407.413 180.361 407.505 182.206 407.024 183.807C406.714 184.776 405.719 185.968 404.988 186.746Z" fill="#2F2E41"/>
<path d="M408.81 191.444C408.724 191.049 407.999 190.502 406.965 190.06C403.584 188.69 399.749 189.019 396.645 190.943C396.427 190.956 396.243 191.115 396.197 191.325L392.704 206.763L392.249 208.773L391.946 210.104L391.492 212.107L391.248 213.181C391.188 213.444 391.353 213.708 391.617 213.767C391.636 213.774 391.656 213.774 391.683 213.78L406.754 215.078C406.767 215.078 406.78 215.078 406.8 215.078C407.057 215.078 407.268 214.874 407.287 214.617L407.432 212.436L407.584 210.104L407.65 209.089L407.802 206.763L408.803 191.47V191.457L408.81 191.444Z" fill="#FFA500"/>
<path d="M384.078 192.413C384.104 192.518 384.117 192.623 384.124 192.735L392.566 197.605L394.615 196.425L396.803 199.291L392.414 202.421L382.786 194.818C381.719 195.213 380.533 194.666 380.137 193.599C379.742 192.531 380.289 191.345 381.356 190.95C382.424 190.555 383.61 191.101 384.005 192.169C384.032 192.248 384.058 192.327 384.078 192.413Z" fill="#A0616A"/>
<path d="M392.869 197.189C392.842 196.926 392.935 196.662 393.126 196.471L397.422 192.175C398.371 191.226 399.92 191.226 400.869 192.175C401.679 192.985 401.818 194.257 401.192 195.226L398.134 199.937C397.87 200.345 397.323 200.464 396.908 200.2L393.271 197.841C393.04 197.697 392.895 197.453 392.869 197.189Z" fill="#3F3D56"/>
<path d="M407.802 206.763L407.657 209.089L392.249 208.772L392.704 206.763H407.802Z" fill="#CCCCCC"/>
<path d="M407.584 210.104L407.432 212.436L391.491 212.107L391.946 210.104H407.584Z" fill="#CCCCCC"/>
<path d="M401.666 173.555C398.272 173.555 395.485 176.25 395.379 179.643H394.193C393.976 179.643 393.798 179.821 393.798 180.038V181.613C393.798 181.83 393.976 182.008 394.193 182.008H407.558C407.775 182.008 407.953 181.83 407.953 181.613V179.847C407.953 176.368 405.139 173.555 401.666 173.555Z" fill="#FFA500"/>
<path d="M428.158 250.579H288.227C288.122 250.579 288.03 250.493 288.03 250.381C288.03 250.276 288.115 250.184 288.227 250.184H428.151C428.257 250.184 428.349 250.269 428.349 250.381C428.349 250.493 428.263 250.579 428.158 250.579Z" fill="#CCCCCC"/>
</g>
<g clip-path="url(#clip0)" filter="url(#filter5_d)">
<path d="M492.57 271.834C492.833 271.834 493.096 271.834 493.36 271.834C505.857 272.262 515.625 282.754 515.198 295.252C514.77 307.422 504.772 317.092 492.57 317.092C492.307 317.092 492.044 317.092 491.781 317.092C479.283 316.664 469.515 306.172 469.943 293.674C470.403 281.504 480.401 271.867 492.57 271.834ZM492.603 266.243V271.834V266.243C477.014 266.243 464.385 278.906 464.385 294.496C464.385 309.692 476.455 322.157 491.649 322.683C491.978 322.683 492.307 322.716 492.636 322.716C508.225 322.716 520.854 310.053 520.854 294.463C520.854 279.267 508.784 266.802 493.59 266.276C493.261 266.276 492.899 266.243 492.603 266.243Z" fill="#CCCCCC"/>
<path d="M489.641 259.514L489.399 266.483L496.005 266.712L496.247 259.744L489.641 259.514Z" fill="#CCCCCC"/>
<path d="M507.938 262.99L504.141 268.838L509.686 272.438L513.483 266.589L507.938 262.99Z" fill="#CCCCCC"/>
<path d="M521.637 274.886L515.425 278.053L518.428 283.943L524.64 280.775L521.637 274.886Z" fill="#CCCCCC"/>
<path d="M518.043 306.473L514.348 311.955L520.129 315.852L523.825 310.371L518.043 306.473Z" fill="#CCCCCC"/>
<path d="M464.998 272.926L461.594 278.593L467.571 282.184L470.975 276.516L464.998 272.926Z" fill="#CCCCCC"/>
<path d="M466.384 304.709L460.346 308.197L463.653 313.922L469.69 310.434L466.384 304.709Z" fill="#CCCCCC"/>
<path d="M479.486 262.013L473.705 265.219L477.086 271.317L482.867 268.111L479.486 262.013Z" fill="#CCCCCC"/>
<path d="M487.459 322.205L487.218 329.173L493.824 329.403L494.066 322.434L487.459 322.205Z" fill="#CCCCCC"/>
<path d="M508.123 317.668L502.343 320.874L505.724 326.972L511.505 323.765L508.123 317.668Z" fill="#CCCCCC"/>
<path d="M475.502 316.527L471.705 322.375L477.25 325.975L481.047 320.126L475.502 316.527Z" fill="#CCCCCC"/>
<path d="M457.188 290.468L456.982 296.385L465.002 296.664L465.208 290.747L457.188 290.468Z" fill="#CCCCCC"/>
<path d="M520.21 292.647L520.005 298.564L528.025 298.842L528.23 292.926L520.21 292.647Z" fill="#CCCCCC"/>
</g>
<g clip-path="url(#clip1)" filter="url(#filter6_d)">
<path d="M552.678 277.925C552.776 277.925 552.873 277.925 552.97 277.925C557.585 278.083 561.192 281.96 561.034 286.579C560.876 291.075 557.184 294.648 552.678 294.648C552.581 294.648 552.484 294.648 552.387 294.648C547.772 294.49 544.165 290.614 544.323 285.995C544.493 281.499 548.185 277.938 552.678 277.925ZM552.691 275.859V277.925V275.859C546.934 275.859 542.27 280.538 542.27 286.299C542.27 291.914 546.727 296.52 552.338 296.715C552.46 296.715 552.581 296.727 552.703 296.727C558.459 296.727 563.123 292.048 563.123 286.287C563.123 280.672 558.666 276.066 553.055 275.872C552.933 275.872 552.8 275.859 552.691 275.859Z" fill="#CCCCCC"/>
<path d="M551.597 273.373L551.507 275.948L553.947 276.033L554.036 273.458L551.597 273.373Z" fill="#CCCCCC"/>
<path d="M558.353 274.657L556.951 276.818L558.999 278.148L560.401 275.987L558.353 274.657Z" fill="#CCCCCC"/>
<path d="M563.412 279.052L561.118 280.223L562.227 282.399L564.521 281.229L563.412 279.052Z" fill="#CCCCCC"/>
<path d="M562.085 290.723L560.72 292.749L562.855 294.189L564.22 292.163L562.085 290.723Z" fill="#CCCCCC"/>
<path d="M542.497 278.328L541.24 280.422L543.447 281.749L544.704 279.654L542.497 278.328Z" fill="#CCCCCC"/>
<path d="M543.008 290.073L540.779 291.361L542 293.477L544.23 292.188L543.008 290.073Z" fill="#CCCCCC"/>
<path d="M547.847 274.296L545.712 275.48L546.961 277.734L549.095 276.549L547.847 274.296Z" fill="#CCCCCC"/>
<path d="M550.791 296.536L550.702 299.111L553.142 299.196L553.231 296.621L550.791 296.536Z" fill="#CCCCCC"/>
<path d="M558.422 294.86L556.287 296.044L557.536 298.298L559.671 297.113L558.422 294.86Z" fill="#CCCCCC"/>
<path d="M546.376 294.439L544.974 296.601L547.021 297.931L548.423 295.77L546.376 294.439Z" fill="#CCCCCC"/>
<path d="M539.613 284.811L539.537 286.997L542.498 287.1L542.574 284.914L539.613 284.811Z" fill="#CCCCCC"/>
<path d="M562.885 285.615L562.809 287.802L565.771 287.905L565.847 285.718L562.885 285.615Z" fill="#CCCCCC"/>
</g>
<g clip-path="url(#clip2)" filter="url(#filter7_d)">
<path d="M530.87 230.037C530.999 230.037 531.128 230.037 531.258 230.037C537.388 230.247 542.18 235.392 541.971 241.521C541.761 247.489 536.856 252.231 530.87 252.231C530.741 252.231 530.612 252.231 530.483 252.231C524.352 252.021 519.56 246.876 519.77 240.747C519.996 234.779 524.901 230.053 530.87 230.037ZM530.886 227.295V230.037V227.295C523.239 227.295 517.043 233.505 517.043 241.15C517.043 248.602 522.965 254.715 530.419 254.973C530.58 254.973 530.741 254.989 530.903 254.989C538.55 254.989 544.746 248.779 544.746 241.134C544.746 233.682 538.824 227.569 531.37 227.311C531.209 227.311 531.032 227.295 530.886 227.295Z" fill="#CCCCCC"/>
<path d="M529.433 223.995L529.314 227.412L532.555 227.525L532.674 224.107L529.433 223.995Z" fill="#CCCCCC"/>
<path d="M538.409 225.7L536.547 228.568L539.267 230.333L541.129 227.465L538.409 225.7Z" fill="#CCCCCC"/>
<path d="M545.129 231.533L542.082 233.086L543.555 235.975L546.602 234.422L545.129 231.533Z" fill="#CCCCCC"/>
<path d="M543.366 247.023L541.553 249.711L544.39 251.623L546.202 248.935L543.366 247.023Z" fill="#CCCCCC"/>
<path d="M517.344 230.572L515.674 233.351L518.607 235.112L520.276 232.332L517.344 230.572Z" fill="#CCCCCC"/>
<path d="M518.024 246.158L515.062 247.869L516.684 250.676L519.646 248.965L518.024 246.158Z" fill="#CCCCCC"/>
<path d="M524.451 225.22L521.615 226.792L523.274 229.783L526.11 228.21L524.451 225.22Z" fill="#CCCCCC"/>
<path d="M528.363 254.739L528.244 258.156L531.485 258.269L531.604 254.851L528.363 254.739Z" fill="#CCCCCC"/>
<path d="M538.5 252.513L535.664 254.085L537.323 257.076L540.159 255.503L538.5 252.513Z" fill="#CCCCCC"/>
<path d="M522.497 251.953L520.635 254.821L523.355 256.587L525.217 253.718L522.497 251.953Z" fill="#CCCCCC"/>
<path d="M513.513 239.174L513.412 242.076L517.346 242.212L517.447 239.311L513.513 239.174Z" fill="#CCCCCC"/>
<path d="M544.43 240.243L544.329 243.144L548.263 243.281L548.364 240.379L544.43 240.243Z" fill="#CCCCCC"/>
</g>
<g clip-path="url(#clip3)">
<path opacity="0.1" d="M509.169 95.118C501.883 98.4317 492.495 98.1968 492.495 98.1968H482.33V96.2567C486.467 95.0999 492.194 94.3829 498.522 94.3829C502.081 94.3769 505.64 94.6179 509.169 95.118Z" fill="black"/>
<path opacity="0.1" d="M521.381 100.739C521.381 104.252 511.144 107.089 498.522 107.089C485.901 107.089 475.664 104.252 475.664 100.739C475.664 98.9918 478.211 97.4012 482.33 96.2564V98.1965H492.489C492.489 98.1965 501.877 98.4314 509.163 95.1177C516.425 96.1781 521.381 98.2989 521.381 100.739Z" fill="black"/>
<path d="M501.443 61.186H491.718V70.9345H501.443V61.186Z" fill="#2F2E41"/>
<path d="M495.331 68.0783C495.331 68.0783 496.138 70.898 494.729 71.0968C493.856 71.2354 493.025 71.5788 492.314 72.103L494.927 75.5252H499.757L502.774 72.5067C502.774 72.5067 498.751 69.4882 499.552 67.6746C500.353 65.8611 495.331 68.0783 495.331 68.0783Z" fill="#FFB9B9"/>
<path opacity="0.1" d="M495.331 68.0783C495.331 68.0783 496.138 70.898 494.729 71.0968C493.856 71.2354 493.025 71.5788 492.314 72.103L494.927 75.5252H499.757L502.774 72.5067C502.774 72.5067 498.751 69.4882 499.552 67.6746C500.353 65.8611 495.331 68.0783 495.331 68.0783Z" fill="black"/>
<path d="M496.541 103.119L501.166 104.728L504.388 104.927L504.189 102.113L497.547 100.143L496.541 103.119Z" fill="#FFB9B9"/>
<path d="M502.479 102.51C502.479 102.51 502.479 105.33 502.882 105.33C503.286 105.33 508.717 104.728 510.331 105.33C511.945 105.933 514.354 103.721 513.149 102.51C511.939 101.299 509.97 99.4918 508.741 99.8955C507.513 100.299 502.479 101.305 502.479 101.305V102.51Z" fill="#2F2E41"/>
<path d="M487.683 99.8955C487.683 99.8955 485.268 104.728 486.876 105.131C488.484 105.535 490.297 104.932 490.501 104.728C490.7 104.529 493.518 103.721 493.922 104.125C494.325 104.529 494.325 102.516 494.325 102.516L487.683 99.8955Z" fill="#2F2E41"/>
<path d="M489.694 93.2515C489.694 93.2515 485.871 98.4872 488.689 99.8971C491.507 101.307 504.99 101.307 505.995 99.8971C507.001 98.4872 507.405 94.0588 505.995 93.6551C504.592 93.2515 489.694 93.2515 489.694 93.2515Z" fill="#2F2E41"/>
<path opacity="0.2" d="M489.694 93.2515C489.694 93.2515 485.871 98.4872 488.689 99.8971C491.507 101.307 504.99 101.307 505.995 99.8971C507.001 98.4872 507.405 94.0588 505.995 93.6551C504.592 93.2515 489.694 93.2515 489.694 93.2515Z" fill="black"/>
<path d="M496.945 69.493C499.502 69.493 501.576 67.4187 501.576 64.8598C501.576 62.3009 499.502 60.2266 496.945 60.2266C494.387 60.2266 492.314 62.3009 492.314 64.8598C492.314 67.4187 494.387 69.493 496.945 69.493Z" fill="#FFB9B9"/>
<path d="M489.694 72.1091L493.717 71.3018C493.717 71.3018 494.723 74.5251 497.944 73.9166C501.166 73.3081 501.967 71.3018 501.967 71.3018C501.967 71.3018 504.382 72.3079 504.58 72.3079C504.779 72.3079 507.398 73.3141 507.398 73.9166C507.398 74.5191 504.388 80.5622 504.388 80.5622L504.791 91.4374L489.899 91.0337L490.905 80.3634L489.694 72.1091Z" fill="#FFA500"/>
<path d="M487.485 77.3447C487.485 77.3447 486.274 88.015 487.081 88.8224C487.888 89.6297 491.104 91.8409 491.104 91.8409V89.4249L489.496 86.4063L491.104 79.3571L487.485 77.3447Z" fill="#FFB9B9"/>
<path d="M508.314 77.0439C508.314 77.0439 507.609 88.0155 507.609 88.4192C507.609 88.8228 505.797 90.2327 505.195 90.2327C504.592 90.2327 504.189 89.2265 504.189 89.2265L505.598 87.6178L504.592 79.3636L508.314 77.0439Z" fill="#FFB9B9"/>
<path d="M506.399 92.4432C506.399 92.4432 515.456 87.4063 515.655 92.4432C515.853 97.4801 511.024 99.4925 511.024 99.4925C511.024 99.4925 498.547 103.234 498.041 101.866C497.535 100.499 496.529 98.2815 497.336 98.0826C498.143 97.8838 499.149 97.4801 499.552 97.8838C499.956 98.2875 504.984 94.8653 504.984 94.8653L506.399 92.4432Z" fill="#2F2E41"/>
<path opacity="0.2" d="M510.626 91.8408C510.626 91.8408 508.814 92.6482 508.211 93.2507C507.609 93.8532 504.99 94.8594 504.99 94.8594" stroke="black" stroke-width="0.261243" stroke-miterlimit="10"/>
<path d="M490.905 72.5116L489.695 72.1079C489.695 72.1079 485.269 76.7411 486.678 77.9461C488.087 79.1572 488.894 79.5548 489.291 79.9585C489.695 80.3622 491.706 80.561 491.706 80.561L490.905 72.5116Z" fill="#FFA500"/>
<path d="M505.598 73.519L507.411 73.9227C507.411 73.9227 508.82 76.9413 509.223 77.3449C509.627 77.7486 508.621 77.5438 508.013 78.3511C507.405 79.1585 506.802 80.5683 505.598 80.5683C504.388 80.5683 502.78 78.556 502.78 78.556L505.598 73.519Z" fill="#FFA500"/>
<path d="M490.098 94.2556C490.098 94.2556 482.45 88.821 479.837 92.8458C477.223 96.8705 491.11 102.311 493.121 103.112C495.132 103.914 496.945 104.721 496.945 104.721C496.945 104.721 498.757 100.293 498.757 99.4853C498.757 98.678 497.348 98.678 496.945 98.678C496.541 98.678 494.729 98.2743 494.331 97.6718C493.922 97.0753 490.098 94.2556 490.098 94.2556Z" fill="#2F2E41"/>
<path opacity="0.2" d="M485.871 92.8462C485.871 92.8462 487.882 94.4549 489.694 94.8585C491.507 95.2622 492.109 96.2684 492.109 96.2684" stroke="black" stroke-width="0.261243" stroke-miterlimit="10"/>
<path d="M488.713 85.2798L488.875 93.8052C488.888 94.3896 489.369 94.8596 489.953 94.8536L505.809 94.6728C506.369 94.6668 506.833 94.227 506.863 93.6666L507.344 85.322C507.381 84.7315 506.929 84.2315 506.339 84.1953C506.321 84.1953 506.297 84.1953 506.279 84.1953H489.779C489.189 84.1953 488.713 84.6713 488.713 85.2617C488.713 85.2617 488.713 85.2678 488.713 85.2798Z" fill="#575A89"/>
<path d="M486.876 72.1571C487.31 71.2052 487.888 70.3075 488.165 69.3013C488.496 68.0903 488.37 66.813 488.328 65.5537C488.267 64.4451 488.358 63.3305 488.611 62.252C488.863 61.1615 489.43 60.1734 490.242 59.4082C492.35 57.5224 496.21 57.3898 498.787 58.1731C499.805 58.4804 500.883 59.0708 501.136 60.1011C501.172 60.2577 501.19 60.4144 501.232 60.571C501.443 61.3362 502.226 61.8242 502.509 62.5713C502.876 63.5354 502.31 64.5837 502.238 65.608C502.154 66.8069 502.744 67.9396 503.322 68.994C503.665 69.6206 504.026 70.2894 503.99 71.0003C503.96 71.392 503.846 71.7715 503.641 72.1089C502.888 73.3501 501.551 74.1213 500.1 74.1394C499.636 74.1755 499.173 74.0671 498.775 73.8261C498.149 73.3923 497.962 72.5186 498.095 71.7715C498.227 71.0244 498.607 70.3376 498.908 69.6387C498.998 69.4218 499.082 69.2049 499.161 68.982C501.335 67.7709 502.111 65.0235 500.895 62.8485C499.685 60.6735 496.939 59.8962 494.765 61.1133C492.591 62.3243 491.814 65.0717 493.031 67.2468C493.693 68.4337 494.849 69.2531 496.186 69.4881C496.409 70.6268 496.306 71.8017 495.891 72.8801C495.512 73.7598 495.03 74.5913 494.464 75.3625C494.235 75.7601 493.922 76.1035 493.554 76.3807C493.314 76.5253 493.055 76.6337 492.784 76.7121C491.646 77.0796 490.447 77.3748 489.267 77.2061C488.087 77.0434 486.912 76.3265 486.509 75.2058C486.16 74.2117 486.443 73.1091 486.876 72.1571Z" fill="#2F2E41"/>
<path d="M496.716 65.0417C499.43 65.0417 501.63 63.7955 501.63 62.2582C501.63 60.7209 499.43 59.4746 496.716 59.4746C494.002 59.4746 491.802 60.7209 491.802 62.2582C491.802 63.7955 494.002 65.0417 496.716 65.0417Z" fill="#2F2E41"/>
</g>
<defs>
<filter id="filter0_d" x="70.6404" y="0.509766" width="536.809" height="369.79" filterUnits="userSpaceOnUse" color-interpolation-filters="sRGB">
<feFlood flood-opacity="0" result="BackgroundImageFix"/>
<feColorMatrix in="SourceAlpha" type="matrix" values="0 0 0 0 0 0 0 0 0 0 0 0 0 0 0 0 0 0 127 0"/>
<feOffset dx="5.22486" dy="5.22486"/>
<feGaussianBlur stdDeviation="2.61243"/>
<feColorMatrix type="matrix" values="0 0 0 0 0 0 0 0 0 0 0 0 0 0 0 0 0 0 1 0"/>
<feBlend mode="normal" in2="BackgroundImageFix" result="effect1_dropShadow"/>
<feBlend mode="normal" in="SourceGraphic" in2="effect1_dropShadow" result="shape"/>
</filter>
<filter id="filter1_d" x="400.335" y="6.76904" width="154.006" height="88.6374" filterUnits="userSpaceOnUse" color-interpolation-filters="sRGB">
<feFlood flood-opacity="0" result="BackgroundImageFix"/>
<feColorMatrix in="SourceAlpha" type="matrix" values="0 0 0 0 0 0 0 0 0 0 0 0 0 0 0 0 0 0 127 0"/>
<feOffset dx="3.91865" dy="0.522487"/>
<feGaussianBlur stdDeviation="0.261243"/>
<feColorMatrix type="matrix" values="0 0 0 0 0 0 0 0 0 0 0 0 0 0 0 0 0 0 0.25 0"/>
<feBlend mode="normal" in2="BackgroundImageFix" result="effect1_dropShadow"/>
<feBlend mode="normal" in="SourceGraphic" in2="effect1_dropShadow" result="shape"/>
</filter>
<filter id="filter2_d" x="191.093" y="95.6543" width="260.001" height="159.879" filterUnits="userSpaceOnUse" color-interpolation-filters="sRGB">
<feFlood flood-opacity="0" result="BackgroundImageFix"/>
<feColorMatrix in="SourceAlpha" type="matrix" values="0 0 0 0 0 0 0 0 0 0 0 0 0 0 0 0 0 0 127 0"/>
<feOffset dx="1.95933" dy="0.522487"/>
<feGaussianBlur stdDeviation="0.261243"/>
<feColorMatrix type="matrix" values="0 0 0 0 0 0 0 0 0 0 0 0 0 0 0 0 0 0 0.25 0"/>
<feBlend mode="normal" in2="BackgroundImageFix" result="effect1_dropShadow"/>
<feBlend mode="normal" in="SourceGraphic" in2="effect1_dropShadow" result="shape"/>
</filter>
<filter id="filter3_d" x="0.0693359" y="227.549" width="273.261" height="109.895" filterUnits="userSpaceOnUse" color-interpolation-filters="sRGB">
<feFlood flood-opacity="0" result="BackgroundImageFix"/>
<feColorMatrix in="SourceAlpha" type="matrix" values="0 0 0 0 0 0 0 0 0 0 0 0 0 0 0 0 0 0 127 0"/>
<feOffset dx="0.653108" dy="0.522487"/>
<feGaussianBlur stdDeviation="0.261243"/>
<feColorMatrix type="matrix" values="0 0 0 0 0 0 0 0 0 0 0 0 0 0 0 0 0 0 0.25 0"/>
<feBlend mode="normal" in2="BackgroundImageFix" result="effect1_dropShadow"/>
<feBlend mode="normal" in="SourceGraphic" in2="effect1_dropShadow" result="shape"/>
</filter>
<filter id="filter4_d" x="288.03" y="168.738" width="142.801" height="82.8861" filterUnits="userSpaceOnUse" color-interpolation-filters="sRGB">
<feFlood flood-opacity="0" result="BackgroundImageFix"/>
<feColorMatrix in="SourceAlpha" type="matrix" values="0 0 0 0 0 0 0 0 0 0 0 0 0 0 0 0 0 0 127 0"/>
<feOffset dx="1.95933" dy="0.522487"/>
<feGaussianBlur stdDeviation="0.261243"/>
<feColorMatrix type="matrix" values="0 0 0 0 0 0 0 0 0 0 0 0 0 0 0 0 0 0 0.25 0"/>
<feBlend mode="normal" in2="BackgroundImageFix" result="effect1_dropShadow"/>
<feBlend mode="normal" in="SourceGraphic" in2="effect1_dropShadow" result="shape"/>
</filter>
<filter id="filter5_d" x="456.985" y="259.534" width="74.3387" height="70.9052" filterUnits="userSpaceOnUse" color-interpolation-filters="sRGB">
<feFlood flood-opacity="0" result="BackgroundImageFix"/>
<feColorMatrix in="SourceAlpha" type="matrix" values="0 0 0 0 0 0 0 0 0 0 0 0 0 0 0 0 0 0 127 0"/>
<feOffset dx="2.61243" dy="0.522487"/>
<feGaussianBlur stdDeviation="0.261243"/>
<feColorMatrix type="matrix" values="0 0 0 0 0 0 0 0 0 0 0 0 0 0 0 0 0 0 0.25 0"/>
<feBlend mode="normal" in2="BackgroundImageFix" result="effect1_dropShadow"/>
<feBlend mode="normal" in="SourceGraphic" in2="effect1_dropShadow" result="shape"/>
</filter>
<filter id="filter6_d" x="539.538" y="273.379" width="29.4285" height="26.8587" filterUnits="userSpaceOnUse" color-interpolation-filters="sRGB">
<feFlood flood-opacity="0" result="BackgroundImageFix"/>
<feColorMatrix in="SourceAlpha" type="matrix" values="0 0 0 0 0 0 0 0 0 0 0 0 0 0 0 0 0 0 127 0"/>
<feOffset dx="2.61243" dy="0.522487"/>
<feGaussianBlur stdDeviation="0.261243"/>
<feColorMatrix type="matrix" values="0 0 0 0 0 0 0 0 0 0 0 0 0 0 0 0 0 0 0.25 0"/>
<feBlend mode="normal" in2="BackgroundImageFix" result="effect1_dropShadow"/>
<feBlend mode="normal" in="SourceGraphic" in2="effect1_dropShadow" result="shape"/>
</filter>
<filter id="filter7_d" x="513.413" y="224.004" width="38.065" height="35.3034" filterUnits="userSpaceOnUse" color-interpolation-filters="sRGB">
<feFlood flood-opacity="0" result="BackgroundImageFix"/>
<feColorMatrix in="SourceAlpha" type="matrix" values="0 0 0 0 0 0 0 0 0 0 0 0 0 0 0 0 0 0 127 0"/>
<feOffset dx="2.61243" dy="0.522487"/>
<feGaussianBlur stdDeviation="0.261243"/>
<feColorMatrix type="matrix" values="0 0 0 0 0 0 0 0 0 0 0 0 0 0 0 0 0 0 0.25 0"/>
<feBlend mode="normal" in2="BackgroundImageFix" result="effect1_dropShadow"/>
<feBlend mode="normal" in="SourceGraphic" in2="effect1_dropShadow" result="shape"/>
</filter>
<linearGradient id="paint0_linear" x1="127.303" y1="331.854" x2="127.303" y2="227.547" gradientUnits="userSpaceOnUse">
<stop stop-color="#808080" stop-opacity="0.25"/>
<stop offset="0.54" stop-color="#808080" stop-opacity="0.12"/>
<stop offset="1" stop-color="#808080" stop-opacity="0.1"/>
</linearGradient>
<clipPath id="clip0">
<rect width="71.2037" height="69.8603" fill="white" transform="translate(456.985 259.534)"/>
</clipPath>
<clipPath id="clip1">
<rect width="26.2936" height="25.8138" fill="white" transform="translate(539.538 273.379)"/>
</clipPath>
<clipPath id="clip2">
<rect width="34.9301" height="34.2584" fill="white" transform="translate(513.413 224.004)"/>
</clipPath>
<clipPath id="clip3">
<rect width="45.7176" height="49.375" fill="white" transform="translate(475.664 57.7217)"/>
</clipPath>
</defs>
</svg>
