<svg width="22" height="21" viewBox="0 0 22 21" fill="none" xmlns="http://www.w3.org/2000/svg">
<path d="M4.92446 20.2847H0.363393V6.95027H4.92446V20.2847ZM2.64147 5.13134C1.18299 5.13134 0 4.03463 0 2.71055C1.04392e-08 2.07455 0.278297 1.46459 0.77367 1.01487C1.26904 0.565151 1.94091 0.3125 2.64147 0.3125C3.34204 0.3125 4.0139 0.565151 4.50928 1.01487C5.00465 1.46459 5.28295 2.07455 5.28295 2.71055C5.28295 4.03463 4.09946 5.13134 2.64147 5.13134ZM21.9951 20.2847H17.4438V13.7936C17.4438 12.2466 17.4095 10.2627 15.0725 10.2627C12.7011 10.2627 12.3377 11.9434 12.3377 13.6821V20.2847H7.78152V6.95027H12.156V8.76921H12.2198C12.8287 7.72154 14.3162 6.61591 16.5354 6.61591C21.1514 6.61591 22 9.37552 22 12.9599V20.2847H21.9951Z" fill="#FFA500"/>
</svg>
