<svg width="18" height="20" viewBox="0 0 18 20" fill="none" xmlns="http://www.w3.org/2000/svg">
<path d="M17.4867 13.6559L13.5491 11.8726C13.3809 11.7968 13.1939 11.7808 13.0164 11.8271C12.8389 11.8733 12.6804 11.9792 12.5647 12.1289L10.8209 14.3803C8.08423 13.0168 5.88181 10.6894 4.59149 7.79736L6.72199 5.95462C6.86391 5.83264 6.96436 5.66512 7.00813 5.47742C7.0519 5.28972 7.03661 5.09206 6.96457 4.91436L5.27705 0.753338C5.19798 0.561786 5.05815 0.40539 4.88165 0.311118C4.70516 0.216846 4.50307 0.190607 4.31023 0.236925L0.653918 1.12857C0.467997 1.17394 0.302119 1.28457 0.183355 1.44239C0.064592 1.60021 -4.28284e-05 1.79592 2.12917e-08 1.99756C2.12917e-08 11.527 7.30911 19.2361 16.3128 19.2361C16.5037 19.2362 16.6889 19.1679 16.8384 19.0424C16.9878 18.9169 17.0925 18.7416 17.1355 18.5451L17.9792 14.6812C18.0228 14.4765 17.9974 14.2621 17.9075 14.0749C17.8176 13.8878 17.6688 13.7396 17.4867 13.6559Z" fill="#FFA500"/>
</svg>
