<svg width="327" height="351" viewBox="0 0 327 351" fill="none" xmlns="http://www.w3.org/2000/svg">
<g filter="url(#filter0_d)">
<mask id="mask0" mask-type="alpha" maskUnits="userSpaceOnUse" x="20" y="44" width="267" height="267">
<path d="M153.5 311C227.054 311 286.682 251.326 286.682 177.714C286.682 104.103 227.054 44.4285 153.5 44.4285C79.9456 44.4285 20.3181 104.103 20.3181 177.714C20.3181 251.326 79.9456 311 153.5 311Z" fill="white"/>
</mask>
<g mask="url(#mask0)">
<path d="M153.5 311C227.054 311 286.682 251.326 286.682 177.714C286.682 104.103 227.054 44.4285 153.5 44.4285C79.9456 44.4285 20.3181 104.103 20.3181 177.714C20.3181 251.326 79.9456 311 153.5 311Z" fill="#E6E6E6"/>
<path d="M286.682 44.4285H20.3181V311H286.682V44.4285Z" fill="#FFA500" fill-opacity="0.8"/>
</g>
<mask id="mask1" mask-type="alpha" maskUnits="userSpaceOnUse" x="7" y="0" width="293" height="311">
<path d="M20.3182 177.714C20.3182 251.326 79.9457 311 153.5 311C227.054 311 286.682 251.326 286.682 177.714H300V0H7V177.714H20.3182Z" fill="white"/>
</mask>
<g mask="url(#mask1)">
<mask id="mask2" mask-type="alpha" maskUnits="userSpaceOnUse" x="42" y="39" width="223" height="272">
<path d="M180.136 200.607V221.032H184.576C228.708 221.032 264.485 256.836 264.485 301.003V311H42.5151V301.003C42.5151 256.836 78.2917 221.032 122.424 221.032H126.864V200.607C107.733 191.512 93.9813 172.924 91.6871 150.925C85.2224 150.011 80.25 144.451 80.25 137.728V122.178C80.25 115.574 85.0496 110.092 91.3485 109.034V102.186C91.3485 67.8335 119.175 39.9856 153.5 39.9856C187.825 39.9856 215.651 67.8335 215.651 102.186V109.034C221.95 110.092 226.75 115.574 226.75 122.178V137.728C226.75 144.451 221.777 150.011 215.313 150.925C213.019 172.924 199.267 191.512 180.136 200.607Z" fill="white"/>
</mask>
<g mask="url(#mask2)">
<path d="M180.136 200.607V221.032H184.576C228.708 221.032 264.485 256.836 264.485 301.003V311H42.5151V301.003C42.5151 256.836 78.2917 221.032 122.424 221.032H126.864V200.607C107.733 191.512 93.9813 172.924 91.6871 150.925C85.2224 150.011 80.25 144.451 80.25 137.728V122.178C80.25 115.574 85.0496 110.092 91.3485 109.034V102.186C91.3485 67.8335 119.175 39.9856 153.5 39.9856C187.825 39.9856 215.651 67.8335 215.651 102.186V109.034C221.95 110.092 226.75 115.574 226.75 122.178V137.728C226.75 144.451 221.777 150.011 215.313 150.925C213.019 172.924 199.267 191.512 180.136 200.607Z" fill="#D0C6AC"/>
<path d="M300 39.9856H7V311H300V39.9856Z" fill="#D08B5B"/>
<path fill-rule="evenodd" clip-rule="evenodd" d="M215.652 127.732V153.278C215.652 187.63 187.825 215.478 153.5 215.478C119.175 215.478 91.3485 187.63 91.3485 153.278V127.732V144.393C91.3485 178.745 119.175 206.593 153.5 206.593C187.825 206.593 215.652 178.745 215.652 144.393V127.732Z" fill="black" fill-opacity="0.1"/>
</g>
<mask id="mask3" mask-type="alpha" maskUnits="userSpaceOnUse" x="42" y="221" width="223" height="90">
<path fill-rule="evenodd" clip-rule="evenodd" d="M191.191 221.36C232.229 224.725 264.485 259.123 264.485 301.061V311H42.5151V301.061C42.5151 258.744 75.3577 224.103 116.925 221.276C116.892 221.691 116.875 222.109 116.875 222.529C116.875 235.705 133.521 246.387 154.055 246.387C174.589 246.387 191.235 235.705 191.235 222.529C191.235 222.137 191.22 221.747 191.191 221.36Z" fill="white"/>
</mask>
<g mask="url(#mask3)">
<path fill-rule="evenodd" clip-rule="evenodd" d="M191.191 221.36C232.229 224.725 264.485 259.123 264.485 301.061V311H42.5151V301.061C42.5151 258.744 75.3577 224.103 116.925 221.276C116.892 221.691 116.875 222.109 116.875 222.529C116.875 235.705 133.521 246.387 154.055 246.387C174.589 246.387 191.235 235.705 191.235 222.529C191.235 222.137 191.22 221.747 191.191 221.36Z" fill="#E6E6E6"/>
<path d="M300 188.821H7V311H300V188.821Z" fill="#3C4F5C"/>
<g opacity="0.6">
<g opacity="0.6">
<path opacity="0.6" d="M154.055 254.088C178.349 254.088 198.044 240.705 198.044 224.195C198.044 207.685 178.349 194.301 154.055 194.301C129.76 194.301 110.066 207.685 110.066 224.195C110.066 240.705 129.76 254.088 154.055 254.088Z" fill="black" fill-opacity="0.16"/>
</g>
</g>
</g>
<path d="M137.962 166.607C137.962 172.574 144.797 176.604 153.5 176.604C162.203 176.604 169.038 172.574 169.038 166.607C169.038 165.38 167.984 164.386 166.818 164.386C165.384 164.386 164.743 165.391 164.599 166.607C163.22 169.87 159.808 171.846 153.5 172.161C147.192 171.846 143.78 169.87 142.402 166.607C142.257 165.391 141.617 164.386 140.182 164.386C139.016 164.386 137.962 165.38 137.962 166.607Z" fill="black" fill-opacity="0.6"/>
<path fill-rule="evenodd" clip-rule="evenodd" d="M140.182 144.393C140.182 149.301 146.145 153.279 153.5 153.279C160.855 153.279 166.818 149.301 166.818 144.393" fill="black" fill-opacity="0.16"/>
<path fill-rule="evenodd" clip-rule="evenodd" d="M109.284 124.897C111.333 120.678 115.948 117.736 121.312 117.736C126.657 117.736 131.258 120.657 133.318 124.852C133.93 126.099 133.059 127.119 132.181 126.363C129.46 124.022 125.597 122.561 121.312 122.561C117.16 122.561 113.405 123.932 110.702 126.146C109.713 126.955 108.684 126.131 109.284 124.897Z" fill="black" fill-opacity="0.6"/>
<path fill-rule="evenodd" clip-rule="evenodd" d="M173.655 124.897C175.704 120.678 180.319 117.736 185.683 117.736C191.028 117.736 195.629 120.657 197.689 124.852C198.301 126.099 197.43 127.119 196.552 126.363C193.831 124.022 189.968 122.561 185.683 122.561C181.532 122.561 177.777 123.932 175.073 126.146C174.084 126.955 173.056 126.131 173.655 124.897Z" fill="black" fill-opacity="0.6"/>
<path d="M108.653 106.809C113.643 99.7817 124.204 96.2474 135.018 99.7375C136.185 100.114 137.436 99.4727 137.812 98.3051C138.188 97.1374 137.547 95.8856 136.381 95.5091C123.719 91.4228 111.144 95.6313 105.034 104.235C104.324 105.235 104.558 106.622 105.557 107.332C106.557 108.043 107.942 107.809 108.653 106.809Z" fill="black" fill-opacity="0.6"/>
<path d="M198.313 114.579C193.968 108.46 182.056 105.029 171.796 107.551C170.605 107.843 169.403 107.115 169.11 105.923C168.818 104.732 169.546 103.529 170.737 103.236C182.653 100.308 196.446 104.281 201.931 112.005C202.642 113.005 202.407 114.392 201.408 115.103C200.409 115.813 199.023 115.579 198.313 114.579Z" fill="black" fill-opacity="0.6"/>
<mask id="mask4" mask-type="alpha" maskUnits="userSpaceOnUse" x="7" y="0" width="293" height="311">
<path d="M300 0H7V311H300V0Z" fill="white"/>
</mask>
<g mask="url(#mask4)">
<mask id="mask5" mask-type="alpha" maskUnits="userSpaceOnUse" x="117" y="149" width="73" height="19">
<path fill-rule="evenodd" clip-rule="evenodd" d="M153.498 163.097C152.897 163.951 152.125 164.663 151.224 165.151C141.345 170.506 131.166 165.866 125.617 166.196C122.934 166.356 119.473 168.179 118.224 166.251C116.849 164.127 121.39 152.413 132.104 150.462C139.883 149.046 150.722 150.616 153.498 154.321C156.273 150.616 167.112 149.046 174.892 150.462C185.606 152.413 190.146 164.127 188.772 166.251C187.523 168.179 184.061 166.356 181.379 166.196C175.829 165.866 165.651 170.506 155.771 165.151C154.871 164.663 154.098 163.951 153.498 163.097Z" fill="white"/>
</mask>
<g mask="url(#mask5)">
<path fill-rule="evenodd" clip-rule="evenodd" d="M153.498 163.097C152.897 163.951 152.125 164.663 151.224 165.151C141.345 170.506 131.166 165.866 125.617 166.196C122.934 166.356 119.473 168.179 118.224 166.251C116.849 164.127 121.39 152.413 132.104 150.462C139.883 149.046 150.722 150.616 153.498 154.321C156.273 150.616 167.112 149.046 174.892 150.462C185.606 152.413 190.146 164.127 188.772 166.251C187.523 168.179 184.061 166.356 181.379 166.196C175.829 165.866 165.651 170.506 155.771 165.151C154.871 164.663 154.098 163.951 153.498 163.097Z" fill="#28354B"/>
<path d="M317.758 79.9714H24.7576V350.986H317.758V79.9714Z" fill="#2C1B18"/>
</g>
<mask id="mask6" mask-type="alpha" maskUnits="userSpaceOnUse" x="83" y="82" width="141" height="32">
<path fill-rule="evenodd" clip-rule="evenodd" d="M90.2387 113.293C84.6047 113.372 83.5796 112.175 83.5796 107.739C83.5796 101.457 88.0643 89.7214 92.4584 84.4143C93.7637 82.0033 96.4749 80.6025 95.7879 85.525C92.8363 94.9401 96.2511 113.198 90.2387 113.293ZM216.761 113.293C210.749 113.198 214.164 94.9401 211.212 85.525C210.525 80.6025 213.236 82.0033 214.542 84.4143C218.936 89.7214 223.421 101.457 223.421 107.739C223.421 112.175 222.395 113.372 216.761 113.293Z" fill="white"/>
</mask>
<g mask="url(#mask6)">
<path fill-rule="evenodd" clip-rule="evenodd" d="M90.2387 113.293C84.6047 113.372 83.5796 112.175 83.5796 107.739C83.5796 101.457 88.0643 89.7214 92.4584 84.4143C93.7637 82.0033 96.4749 80.6025 95.7879 85.525C92.8363 94.9401 96.2511 113.198 90.2387 113.293ZM216.761 113.293C210.749 113.198 214.164 94.9401 211.212 85.525C210.525 80.6025 213.236 82.0033 214.542 84.4143C218.936 89.7214 223.421 101.457 223.421 107.739C223.421 112.175 222.395 113.372 216.761 113.293Z" fill="#9E7A7A"/>
<path d="M376.58 82.1929H83.5796V393.193H376.58V82.1929Z" fill="#2C1B18"/>
</g>
</g>
</g>
</g>
<defs>
<filter id="filter0_d" x="0.318115" y="19.9856" width="326.364" height="331.014" filterUnits="userSpaceOnUse" color-interpolation-filters="sRGB">
<feFlood flood-opacity="0" result="BackgroundImageFix"/>
<feColorMatrix in="SourceAlpha" type="matrix" values="0 0 0 0 0 0 0 0 0 0 0 0 0 0 0 0 0 0 127 0"/>
<feOffset dx="10" dy="10"/>
<feGaussianBlur stdDeviation="15"/>
<feColorMatrix type="matrix" values="0 0 0 0 0 0 0 0 0 0 0 0 0 0 0 0 0 0 0.25 0"/>
<feBlend mode="normal" in2="BackgroundImageFix" result="effect1_dropShadow"/>
<feBlend mode="normal" in="SourceGraphic" in2="effect1_dropShadow" result="shape"/>
</filter>
</defs>
</svg>
