<svg width="327" height="362" viewBox="0 0 327 362" fill="none" xmlns="http://www.w3.org/2000/svg">
<g filter="url(#filter0_d)">
<mask id="mask0" mask-type="alpha" maskUnits="userSpaceOnUse" x="20" y="55" width="267" height="267">
<path d="M153.5 322C227.054 322 286.682 262.326 286.682 188.714C286.682 115.103 227.054 55.4285 153.5 55.4285C79.9458 55.4285 20.3182 115.103 20.3182 188.714C20.3182 262.326 79.9458 322 153.5 322Z" fill="white"/>
</mask>
<g mask="url(#mask0)">
<path d="M153.5 322C227.054 322 286.682 262.326 286.682 188.714C286.682 115.103 227.054 55.4285 153.5 55.4285C79.9458 55.4285 20.3182 115.103 20.3182 188.714C20.3182 262.326 79.9458 322 153.5 322Z" fill="#E6E6E6"/>
<path d="M286.682 55.4285H20.3182V322H286.682V55.4285Z" fill="#FFA500" fill-opacity="0.8"/>
</g>
<mask id="mask1" mask-type="alpha" maskUnits="userSpaceOnUse" x="7" y="11" width="293" height="311">
<path d="M20.3182 188.714C20.3182 262.326 79.9457 322 153.5 322C227.054 322 286.682 262.326 286.682 188.714H300V11H7V188.714H20.3182Z" fill="white"/>
</mask>
<g mask="url(#mask1)">
<mask id="mask2" mask-type="alpha" maskUnits="userSpaceOnUse" x="42" y="50" width="223" height="272">
<path d="M180.136 211.607V232.032H184.576C228.708 232.032 264.485 267.836 264.485 312.003V322H42.5151V312.003C42.5151 267.836 78.2917 232.032 122.424 232.032H126.864V211.607C107.733 202.512 93.9813 183.924 91.6871 161.925C85.2225 161.011 80.25 155.451 80.25 148.728V133.178C80.25 126.574 85.0496 121.092 91.3485 120.034V113.186C91.3485 78.8335 119.175 50.9856 153.5 50.9856C187.825 50.9856 215.652 78.8335 215.652 113.186V120.034C221.95 121.092 226.75 126.574 226.75 133.178V148.728C226.75 155.451 221.778 161.011 215.313 161.925C213.019 183.924 199.267 202.512 180.136 211.607Z" fill="white"/>
</mask>
<g mask="url(#mask2)">
<path d="M180.136 211.607V232.032H184.576C228.708 232.032 264.485 267.836 264.485 312.003V322H42.5151V312.003C42.5151 267.836 78.2917 232.032 122.424 232.032H126.864V211.607C107.733 202.512 93.9813 183.924 91.6871 161.925C85.2225 161.011 80.25 155.451 80.25 148.728V133.178C80.25 126.574 85.0496 121.092 91.3485 120.034V113.186C91.3485 78.8335 119.175 50.9856 153.5 50.9856C187.825 50.9856 215.652 78.8335 215.652 113.186V120.034C221.95 121.092 226.75 126.574 226.75 133.178V148.728C226.75 155.451 221.778 161.011 215.313 161.925C213.019 183.924 199.267 202.512 180.136 211.607Z" fill="#D0C6AC"/>
<path d="M300 50.9856H7V322H300V50.9856Z" fill="#EDB98A"/>
<path fill-rule="evenodd" clip-rule="evenodd" d="M215.652 138.732V164.278C215.652 198.63 187.825 226.478 153.5 226.478C119.175 226.478 91.3485 198.63 91.3485 164.278V138.732V155.393C91.3485 189.745 119.175 217.593 153.5 217.593C187.825 217.593 215.652 189.745 215.652 155.393V138.732Z" fill="black" fill-opacity="0.1"/>
</g>
<mask id="mask3" mask-type="alpha" maskUnits="userSpaceOnUse" x="42" y="233" width="223" height="89">
<path fill-rule="evenodd" clip-rule="evenodd" d="M197.139 233.072C235.303 239.104 264.485 272.172 264.485 312.061V322H42.5151V312.061C42.5151 272.171 71.6979 239.103 109.863 233.072C110.864 238.702 113.675 244.054 118.247 248.181L150.527 277.313C152.216 278.838 154.784 278.838 156.473 277.313L188.753 248.181C189.225 247.755 189.682 247.311 190.123 246.852C193.914 242.903 196.248 238.088 197.139 233.072Z" fill="white"/>
</mask>
<g mask="url(#mask3)">
<path fill-rule="evenodd" clip-rule="evenodd" d="M197.139 233.072C235.303 239.104 264.485 272.172 264.485 312.061V322H42.5151V312.061C42.5151 272.171 71.6979 239.103 109.863 233.072C110.864 238.702 113.675 244.054 118.247 248.181L150.527 277.313C152.216 278.838 154.784 278.838 156.473 277.313L188.753 248.181C189.225 247.755 189.682 247.311 190.123 246.852C193.914 242.903 196.248 238.088 197.139 233.072Z" fill="#E6E6E6"/>
<path d="M300 199.821H7V322H300V199.821Z" fill="#3C4F5C"/>
</g>
<path d="M137.962 177.607C137.962 183.574 144.797 187.604 153.5 187.604C162.203 187.604 169.038 183.574 169.038 177.607C169.038 176.38 167.984 175.386 166.818 175.386C165.383 175.386 164.743 176.391 164.599 177.607C163.22 180.87 159.808 182.846 153.5 183.161C147.192 182.846 143.78 180.87 142.402 177.607C142.257 176.391 141.617 175.386 140.182 175.386C139.016 175.386 137.962 176.38 137.962 177.607Z" fill="black" fill-opacity="0.6"/>
<path fill-rule="evenodd" clip-rule="evenodd" d="M140.182 155.393C140.182 160.301 146.145 164.279 153.5 164.279C160.855 164.279 166.818 160.301 166.818 155.393" fill="black" fill-opacity="0.16"/>
<path fill-rule="evenodd" clip-rule="evenodd" d="M109.284 135.897C111.333 131.678 115.948 128.736 121.312 128.736C126.657 128.736 131.258 131.657 133.318 135.852C133.93 137.099 133.059 138.119 132.181 137.363C129.46 135.022 125.597 133.561 121.312 133.561C117.16 133.561 113.405 134.932 110.702 137.146C109.713 137.955 108.684 137.131 109.284 135.897Z" fill="black" fill-opacity="0.6"/>
<path fill-rule="evenodd" clip-rule="evenodd" d="M173.655 135.897C175.704 131.678 180.319 128.736 185.683 128.736C191.028 128.736 195.629 131.657 197.689 135.852C198.301 137.099 197.43 138.119 196.552 137.363C193.831 135.022 189.968 133.561 185.683 133.561C181.532 133.561 177.777 134.932 175.073 137.146C174.084 137.955 173.056 137.131 173.655 135.897Z" fill="black" fill-opacity="0.6"/>
<path d="M108.653 117.809C113.643 110.782 124.204 107.247 135.018 110.738C136.185 111.114 137.436 110.473 137.812 109.305C138.188 108.137 137.547 106.886 136.381 106.509C123.719 102.423 111.144 106.631 105.034 115.235C104.324 116.235 104.558 117.622 105.557 118.332C106.557 119.043 107.942 118.809 108.653 117.809Z" fill="black" fill-opacity="0.6"/>
<path d="M198.313 125.579C193.968 119.46 182.056 116.029 171.795 118.551C170.605 118.843 169.403 118.115 169.11 116.923C168.818 115.732 169.546 114.529 170.737 114.236C182.653 111.308 196.446 115.281 201.931 123.005C202.642 124.005 202.407 125.392 201.408 126.103C200.409 126.813 199.023 126.579 198.313 125.579Z" fill="black" fill-opacity="0.6"/>
<mask id="mask4" mask-type="alpha" maskUnits="userSpaceOnUse" x="7" y="11" width="293" height="311">
<path d="M300 11H7V322H300V11Z" fill="white"/>
</mask>
<g mask="url(#mask4)">
<mask id="mask5" mask-type="alpha" maskUnits="userSpaceOnUse" x="86" y="20" width="136" height="103">
<path fill-rule="evenodd" clip-rule="evenodd" d="M110.495 68.7816C110.632 68.7212 110.293 68.698 109.479 68.7121C110.469 68.7101 110.807 68.7332 110.495 68.7816ZM101.467 51.3206C101.465 51.2988 101.486 51.4884 101.467 51.3206V51.3206ZM220.94 89.6003C220.647 85.9162 220.127 82.2543 219.255 78.6547C218.562 75.7938 217.615 73.0639 216.495 70.3343C215.819 68.6853 214.239 66.4202 214.054 64.6413C213.871 62.889 215.237 60.9478 215.529 58.9076C215.812 56.9221 215.763 54.8345 215.356 52.867C214.432 48.3988 211.368 44.2436 206.636 43.0789C205.58 42.8188 203.347 43.1394 202.601 42.5237C201.745 41.8178 201.149 39.4127 200.374 38.4481C198.165 35.698 194.72 33.927 191.086 34.5444C188.41 34.9989 189.947 35.5526 187.941 33.9766C186.825 33.1005 185.992 31.7627 184.909 30.8142C183.28 29.3893 181.412 28.1695 179.479 27.1685C174.422 24.5494 168.654 22.6456 163.005 21.7177C152.7 20.0247 141.701 21.5007 131.712 24.1828C126.742 25.5173 121.738 27.211 117.121 29.4508C115.142 30.4112 113.999 31.2078 111.936 31.4593C108.685 31.8555 105.932 31.8357 102.853 33.2153C93.3793 37.4604 89.112 47.3089 92.7986 56.7336C93.5402 58.6291 94.5443 60.2936 95.9285 61.8246C97.6163 63.6914 98.2268 63.324 96.7731 65.4707C94.5992 68.6806 92.7665 72.1035 91.2744 75.6578C87.3578 84.9897 86.7025 95.4999 86.9575 105.452C87.0467 108.936 87.1961 112.463 87.745 115.914C87.9821 117.407 88.0486 120.216 89.168 121.324C89.736 121.886 90.5452 122.199 91.3525 121.976C93.2497 121.45 92.5974 120.048 92.6414 118.748C92.8632 112.213 92.5638 106.432 94.1168 99.9753C95.2639 95.2052 97.1757 90.873 99.6532 86.6077C102.804 81.1828 106.205 76.4185 110.537 71.7732C111.556 70.6808 111.778 70.2177 113.144 70.1386C114.179 70.0788 115.692 70.7877 116.697 71.0331C118.915 71.5739 121.136 72.1086 123.393 72.4727C127.544 73.1423 131.654 73.1873 135.842 73.056C144.085 72.798 152.362 72.2194 160.353 70.1422C165.661 68.763 170.366 66.2871 175.449 64.4722C175.54 64.4398 176.814 63.5313 177.037 63.5683C177.349 63.6198 179.232 65.5962 179.549 65.8452C182.019 67.7839 184.729 68.5978 187.396 70.099C190.685 71.9499 187.5 69.3013 189.314 71.6081C189.843 72.2798 190.114 73.5255 190.538 74.2865C191.887 76.711 193.765 78.8418 196.01 80.5326C198.18 82.1662 201.441 82.9552 202.548 85.0814C203.401 86.7218 203.688 88.9512 204.377 90.7025C206.183 95.2955 208.568 99.5788 210.954 103.905C212.875 107.391 214.977 110.437 215.191 114.421C215.265 115.807 213.947 124.125 217.158 121.596C217.634 121.221 218.661 116.98 218.872 116.26C219.728 113.336 220.032 110.283 220.419 107.279C221.19 101.303 221.443 95.6183 220.94 89.6003Z" fill="white"/>
</mask>
<g mask="url(#mask5)">
<path fill-rule="evenodd" clip-rule="evenodd" d="M110.495 68.7816C110.632 68.7212 110.293 68.698 109.479 68.7121C110.469 68.7101 110.807 68.7332 110.495 68.7816ZM101.467 51.3206C101.465 51.2988 101.486 51.4884 101.467 51.3206V51.3206ZM220.94 89.6003C220.647 85.9162 220.127 82.2543 219.255 78.6547C218.562 75.7938 217.615 73.0639 216.495 70.3343C215.819 68.6853 214.239 66.4202 214.054 64.6413C213.871 62.889 215.237 60.9478 215.529 58.9076C215.812 56.9221 215.763 54.8345 215.356 52.867C214.432 48.3988 211.368 44.2436 206.636 43.0789C205.58 42.8188 203.347 43.1394 202.601 42.5237C201.745 41.8178 201.149 39.4127 200.374 38.4481C198.165 35.698 194.72 33.927 191.086 34.5444C188.41 34.9989 189.947 35.5526 187.941 33.9766C186.825 33.1005 185.992 31.7627 184.909 30.8142C183.28 29.3893 181.412 28.1695 179.479 27.1685C174.422 24.5494 168.654 22.6456 163.005 21.7177C152.7 20.0247 141.701 21.5007 131.712 24.1828C126.742 25.5173 121.738 27.211 117.121 29.4508C115.142 30.4112 113.999 31.2078 111.936 31.4593C108.685 31.8555 105.932 31.8357 102.853 33.2153C93.3793 37.4604 89.112 47.3089 92.7986 56.7336C93.5402 58.6291 94.5443 60.2936 95.9285 61.8246C97.6163 63.6914 98.2268 63.324 96.7731 65.4707C94.5992 68.6806 92.7665 72.1035 91.2744 75.6578C87.3578 84.9897 86.7025 95.4999 86.9575 105.452C87.0467 108.936 87.1961 112.463 87.745 115.914C87.9821 117.407 88.0486 120.216 89.168 121.324C89.736 121.886 90.5452 122.199 91.3525 121.976C93.2497 121.45 92.5974 120.048 92.6414 118.748C92.8632 112.213 92.5638 106.432 94.1168 99.9753C95.2639 95.2052 97.1757 90.873 99.6532 86.6077C102.804 81.1828 106.205 76.4185 110.537 71.7732C111.556 70.6808 111.778 70.2177 113.144 70.1386C114.179 70.0788 115.692 70.7877 116.697 71.0331C118.915 71.5739 121.136 72.1086 123.393 72.4727C127.544 73.1423 131.654 73.1873 135.842 73.056C144.085 72.798 152.362 72.2194 160.353 70.1422C165.661 68.763 170.366 66.2871 175.449 64.4722C175.54 64.4398 176.814 63.5313 177.037 63.5683C177.349 63.6198 179.232 65.5962 179.549 65.8452C182.019 67.7839 184.729 68.5978 187.396 70.099C190.685 71.9499 187.5 69.3013 189.314 71.6081C189.843 72.2798 190.114 73.5255 190.538 74.2865C191.887 76.711 193.765 78.8418 196.01 80.5326C198.18 82.1662 201.441 82.9552 202.548 85.0814C203.401 86.7218 203.688 88.9512 204.377 90.7025C206.183 95.2955 208.568 99.5788 210.954 103.905C212.875 107.391 214.977 110.437 215.191 114.421C215.265 115.807 213.947 124.125 217.158 121.596C217.634 121.221 218.661 116.98 218.872 116.26C219.728 113.336 220.032 110.283 220.419 107.279C221.19 101.303 221.443 95.6183 220.94 89.6003Z" fill="#28354B"/>
<path d="M298.89 11H5.89014V322H298.89V11Z" fill="#2C1B18"/>
</g>
</g>
</g>
</g>
<defs>
<filter id="filter0_d" x="-13" y="-9" width="353" height="371" filterUnits="userSpaceOnUse" color-interpolation-filters="sRGB">
<feFlood flood-opacity="0" result="BackgroundImageFix"/>
<feColorMatrix in="SourceAlpha" type="matrix" values="0 0 0 0 0 0 0 0 0 0 0 0 0 0 0 0 0 0 127 0"/>
<feOffset dx="10" dy="10"/>
<feGaussianBlur stdDeviation="15"/>
<feColorMatrix type="matrix" values="0 0 0 0 0 0 0 0 0 0 0 0 0 0 0 0 0 0 0.25 0"/>
<feBlend mode="normal" in2="BackgroundImageFix" result="effect1_dropShadow"/>
<feBlend mode="normal" in="SourceGraphic" in2="effect1_dropShadow" result="shape"/>
</filter>
</defs>
</svg>
