<svg width="21" height="20" viewBox="0 0 21 20" fill="none" xmlns="http://www.w3.org/2000/svg">
<path d="M17.8547 2.97866C15.8906 1.19539 13.275 0.2146 10.4953 0.2146C4.75781 0.2146 0.0890625 4.44348 0.0890625 9.64042C0.0890625 11.3006 0.567188 12.9225 1.47656 14.3533L0 19.2361L5.51719 17.9241C7.03594 18.6756 8.74688 19.0705 10.4906 19.0705H10.4953C16.2281 19.0705 21 14.8416 21 9.64467C21 7.12687 19.8187 4.76192 17.8547 2.97866ZM10.4953 17.4825C8.93906 17.4825 7.41562 17.1047 6.08906 16.3914L5.775 16.2215L2.50313 16.9985L3.375 14.1071L3.16875 13.8099C2.30156 12.5616 1.84688 11.1222 1.84688 9.64042C1.84688 5.32238 5.72812 1.8068 10.5 1.8068C12.8109 1.8068 14.9812 2.62201 16.6125 4.10381C18.2437 5.58562 19.2469 7.55146 19.2422 9.64467C19.2422 13.967 15.2625 17.4825 10.4953 17.4825ZM15.2391 11.6148C14.9813 11.4959 13.7016 10.9269 13.4625 10.8505C13.2234 10.7698 13.05 10.7316 12.8766 10.9694C12.7031 11.2071 12.2063 11.7336 12.0516 11.895C11.9016 12.0521 11.7469 12.0733 11.4891 11.9544C9.96094 11.2623 8.95781 10.7189 7.95 9.15215C7.68281 8.73606 8.21719 8.76578 8.71406 7.86565C8.79844 7.70855 8.75625 7.57269 8.69062 7.4538C8.625 7.33492 8.10469 6.1758 7.88906 5.70451C7.67813 5.24595 7.4625 5.30964 7.30313 5.30115C7.15313 5.29266 6.97969 5.29266 6.80625 5.29266C6.63281 5.29266 6.35156 5.3521 6.1125 5.58562C5.87344 5.82339 5.20312 6.39234 5.20312 7.55146C5.20312 8.71058 6.13594 9.83149 6.2625 9.98859C6.39375 10.1457 8.09531 12.5234 10.7062 13.5466C12.3562 14.192 13.0031 14.2472 13.8281 14.1368C14.3297 14.0689 15.3656 13.5679 15.5812 13.0159C15.7969 12.4639 15.7969 11.9926 15.7313 11.895C15.6703 11.7888 15.4969 11.7294 15.2391 11.6148Z" fill="#FFA500"/>
</svg>
