<svg width="377" height="390" viewBox="0 0 377 390" fill="none" xmlns="http://www.w3.org/2000/svg">
<path d="M377 186.773L376.983 193.779L300.602 234.497L300.627 227.491L377 186.773Z" fill="#D3D3DD"/>
<path d="M300.627 227.491L300.602 234.497L223.727 193.779L223.753 186.773L300.627 227.491Z" fill="#E0DEE9"/>
<path d="M377 186.773L300.627 227.491L223.752 186.773L300.125 146.048L377 186.773Z" fill="#EAEAF4"/>
<path d="M365.086 80.575L364.763 185.689L300.483 219.962L300.806 114.848L365.086 80.575Z" fill="#D3D3DD"/>
<path d="M300.806 114.848L300.483 219.962L235.777 185.689L236.1 80.575L300.806 114.848Z" fill="#E0DEE9"/>
<path d="M365.086 80.5751L300.806 114.848L236.1 80.5751L300.389 46.3096L365.086 80.5751Z" fill="#EAEAF4"/>
<path d="M252.776 126.535L252.751 137.434L242.418 131.965L242.452 121.066L252.776 126.535Z" fill="#2A313F"/>
<path d="M252.827 111.384L252.793 122.276L242.461 116.799L242.495 105.907L252.827 111.384Z" fill="#2A313F"/>
<path d="M252.878 96.2176L252.836 107.117L242.512 101.648L242.537 90.7485L252.878 96.2176Z" fill="#2A313F"/>
<path d="M294.53 163.836L294.496 174.735L257.419 155.098L257.453 144.198L294.53 163.836Z" fill="#2A313F"/>
<path d="M294.572 148.677L294.547 159.576L257.47 139.939L257.504 129.04L294.572 148.677Z" fill="#2A313F"/>
<path d="M294.624 133.518L294.59 144.409L257.513 124.772L257.555 113.881L294.624 133.518Z" fill="#2A313F"/>
<path d="M294.666 118.359L294.64 129.258L257.564 109.621L257.598 98.7222L294.666 118.359Z" fill="#2A313F"/>
<path d="M252.683 156.853L252.657 167.752L242.325 162.283L242.359 151.384L252.683 156.853Z" fill="#2A313F"/>
<path d="M252.734 141.702L252.7 152.601L242.367 147.124L242.401 136.225L252.734 141.702Z" fill="#2A313F"/>
<path d="M294.479 178.995L294.445 189.894L257.377 170.257L257.411 159.357L294.479 178.995Z" fill="#2A313F"/>
<path d="M317.125 128.166L317.159 139.065L306.818 144.542L306.784 133.643L317.125 128.166Z" fill="#2A313F"/>
<path d="M317.074 112.999L317.108 123.898L306.775 129.375L306.741 118.476L317.074 112.999Z" fill="#2A313F"/>
<path d="M359.057 151.509L359.091 162.4L322.014 182.037L321.98 171.146L359.057 151.509Z" fill="#2A313F"/>
<path d="M359.006 136.35L359.04 147.249L321.972 166.879L321.938 155.987L359.006 136.35Z" fill="#2A313F"/>
<path d="M358.963 121.191L358.997 132.082L321.921 151.72L321.887 140.828L358.963 121.191Z" fill="#2A313F"/>
<path d="M358.912 106.024L358.946 116.924L321.878 136.561L321.844 125.662L358.912 106.024Z" fill="#2A313F"/>
<path d="M358.87 90.8655L358.904 101.765L321.827 121.402L321.793 110.503L358.87 90.8655Z" fill="#2A313F"/>
<path d="M317.261 173.643L317.303 184.534L306.962 190.011L306.928 179.119L317.261 173.643Z" fill="#2A313F"/>
<path d="M317.218 158.484L317.252 169.383L306.911 174.86L306.886 163.961L317.218 158.484Z" fill="#2A313F"/>
<path d="M317.176 143.325L317.201 154.216L306.869 159.693L306.835 148.802L317.176 143.325Z" fill="#2A313F"/>
<path d="M364.788 177.208L364.763 185.688L300.483 219.962L300.448 211.286L364.788 177.208Z" fill="#FFA500"/>
<path d="M300.508 211.286L300.483 219.962L235.777 185.689L235.803 177.013L300.508 211.286Z" fill="#FFA500"/>
<path d="M300.083 81.9714H300.814L304.488 83.9219C301.86 84.6514 299.055 84.6514 296.426 83.9219L300.083 81.9714Z" fill="#2A313F"/>
<path d="M284.104 69.6134C293.458 65.455 307.218 65.455 316.64 69.6134L313.323 71.3844C305.746 68.1857 294.972 68.1857 287.446 71.3844L284.104 69.6134Z" fill="#2A313F"/>
<path d="M289.793 72.6249C296.59 70.0892 304.197 70.0892 310.994 72.6249L307.651 74.4037C302.974 72.8125 297.83 72.8125 293.152 74.4037L289.793 72.6249Z" fill="#2A313F"/>
<path d="M296.375 76.1122C299.009 75.3786 301.82 75.3786 304.454 76.1122L300.797 78.0626C300.548 78.047 300.298 78.047 300.049 78.0626L296.375 76.1122Z" fill="#2A313F"/>
<path d="M304.156 80.2082C304.173 80.0787 304.173 79.9477 304.156 79.8181L307.813 77.8755C308.138 78.1468 308.398 78.4774 308.576 78.8462C308.754 79.215 308.845 79.6138 308.845 80.0171C308.845 80.4203 308.754 80.8192 308.576 81.188C308.398 81.5568 308.138 81.8874 307.813 82.1587L304.156 80.2082Z" fill="#2A313F"/>
<path d="M311.019 83.8674C313.995 81.5268 313.987 78.4763 310.976 76.167L314.361 74.3804C319.149 77.6961 319.174 82.3382 314.429 85.654L311.019 83.8674Z" fill="#2A313F"/>
<path d="M289.853 76.167C286.868 78.5075 286.894 81.558 289.904 83.8674L286.562 85.654C281.774 82.3382 281.74 77.6961 286.485 74.3804L289.853 76.167Z" fill="#2A313F"/>
<path d="M316.733 86.8945C322.686 82.8844 322.686 77.15 316.648 73.1399L319.965 71.3689C327.805 76.362 327.856 83.6645 320.067 88.6577L316.733 86.8945Z" fill="#2A313F"/>
<path d="M287.548 88.6575C295.117 91.8484 305.908 91.8484 313.434 88.6575L316.767 90.4207C307.413 94.579 293.654 94.579 284.24 90.4207L287.548 88.6575Z" fill="#2A313F"/>
<path d="M284.147 73.1397C278.152 77.1498 278.194 82.8763 284.232 86.8942L280.915 88.6574C273.058 83.6643 273.024 76.3618 280.805 71.3765L284.147 73.1397Z" fill="#2A313F"/>
<path d="M293.229 85.6304C297.893 87.214 303.021 87.214 307.685 85.6304L311.087 87.4092C304.287 89.9445 296.678 89.9445 289.878 87.4092L293.229 85.6304Z" fill="#2A313F"/>
<path d="M296.75 79.8181C296.728 79.95 296.728 80.0841 296.75 80.216L293.101 82.1587C292.774 81.8887 292.512 81.5585 292.333 81.1895C292.153 80.8205 292.061 80.4211 292.061 80.0171C292.061 79.6131 292.153 79.2136 292.333 78.8447C292.512 78.4757 292.774 78.1455 293.101 77.8755L296.75 79.8181Z" fill="#2A313F"/>
<path d="M264.971 246.285L264.945 253.291L188.572 294.016L188.589 287.01L264.971 246.285Z" fill="#D3D3DD"/>
<path d="M188.589 287.01L188.572 294.016L111.698 253.299L111.715 246.285L188.589 287.01Z" fill="#E0DEE9"/>
<path d="M264.971 246.285L188.589 287.01L111.715 246.285L188.096 205.567L264.971 246.285Z" fill="#EAEAF4"/>
<path d="M253.057 140.095L252.725 245.208L188.445 279.474L188.776 174.368L253.057 140.095Z" fill="#D3D3DD"/>
<path d="M188.776 174.368L188.445 279.474L123.748 245.201L124.071 140.095L188.776 174.368Z" fill="#E0DEE9"/>
<path d="M253.057 140.095L188.776 174.368L124.071 140.095L188.351 105.822L253.057 140.095Z" fill="#EAEAF4"/>
<path d="M140.747 186.055L140.713 196.954L130.381 191.477L130.415 180.578L140.747 186.055Z" fill="#2A313F"/>
<path d="M140.798 170.897L140.764 181.788L130.432 176.319L130.466 165.427L140.798 170.897Z" fill="#2A313F"/>
<path d="M140.84 155.737L140.806 166.636L130.474 161.16L130.508 150.26L140.84 155.737Z" fill="#2A313F"/>
<path d="M182.492 223.355L182.458 234.254L145.39 214.617L145.424 203.718L182.492 223.355Z" fill="#2A313F"/>
<path d="M182.543 208.197L182.509 219.096L145.441 199.451L145.466 188.56L182.543 208.197Z" fill="#2A313F"/>
<path d="M182.594 193.038L182.56 203.929L145.483 184.292L145.517 173.401L182.594 193.038Z" fill="#2A313F"/>
<path d="M182.637 177.871L182.603 188.77L145.534 169.133L145.568 158.242L182.637 177.871Z" fill="#2A313F"/>
<path d="M140.653 216.373L140.619 227.272L130.287 221.795L130.321 210.904L140.653 216.373Z" fill="#2A313F"/>
<path d="M140.704 201.214L140.67 212.113L130.338 206.644L130.372 195.745L140.704 201.214Z" fill="#2A313F"/>
<path d="M182.45 238.515L182.416 249.414L145.347 229.777L145.381 218.877L182.45 238.515Z" fill="#2A313F"/>
<path d="M205.095 187.678L205.129 198.577L194.789 204.054L194.755 193.155L205.095 187.678Z" fill="#2A313F"/>
<path d="M205.044 172.519L205.078 183.418L194.738 188.895L194.704 177.996L205.044 172.519Z" fill="#2A313F"/>
<path d="M247.019 211.029L247.053 221.92L209.985 241.557L209.951 230.666L247.019 211.029Z" fill="#2A313F"/>
<path d="M246.977 195.862L247.011 206.761L209.934 226.398L209.9 215.499L246.977 195.862Z" fill="#2A313F"/>
<path d="M246.926 180.711L246.96 191.602L209.891 211.239L209.857 200.34L246.926 180.711Z" fill="#2A313F"/>
<path d="M246.883 165.544L246.917 176.444L209.84 196.081L209.806 185.182L246.883 165.544Z" fill="#2A313F"/>
<path d="M246.832 150.385L246.866 161.285L209.798 180.914L209.764 170.015L246.832 150.385Z" fill="#2A313F"/>
<path d="M205.231 233.163L205.265 244.054L194.925 249.531L194.899 238.639L205.231 233.163Z" fill="#2A313F"/>
<path d="M205.189 217.996L205.214 228.895L194.882 234.372L194.848 223.473L205.189 217.996Z" fill="#2A313F"/>
<path d="M205.138 202.845L205.172 213.736L194.84 219.213L194.797 208.322L205.138 202.845Z" fill="#2A313F"/>
<path d="M252.759 236.728L252.734 245.201L188.453 279.474L188.428 270.798L252.759 236.728Z" fill="#FFA500"/>
<path d="M188.479 270.798L188.453 279.474L123.748 245.201L123.773 236.525L188.479 270.798Z" fill="#FFA500"/>
<path d="M188.054 141.483C188.294 141.499 188.536 141.499 188.776 141.483L192.459 143.434C189.831 144.167 187.025 144.167 184.397 143.434L188.054 141.483Z" fill="#2A313F"/>
<path d="M172.075 129.133C181.429 124.975 195.18 124.975 204.61 129.133L201.294 130.897C193.717 127.698 182.934 127.698 175.408 130.897L172.075 129.133Z" fill="#2A313F"/>
<path d="M177.755 132.137C184.556 129.609 192.163 129.609 198.964 132.137L195.622 133.924C190.942 132.332 185.795 132.332 181.114 133.924L177.755 132.137Z" fill="#2A313F"/>
<path d="M184.346 135.663C186.977 134.93 189.785 134.93 192.416 135.663L188.768 137.606H188.02L184.346 135.663Z" fill="#2A313F"/>
<path d="M192.084 139.728C192.101 139.598 192.101 139.467 192.084 139.338L195.741 137.387C196.065 137.659 196.324 137.99 196.501 138.359C196.678 138.728 196.77 139.126 196.77 139.529C196.77 139.932 196.678 140.33 196.501 140.699C196.324 141.068 196.065 141.399 195.741 141.671L192.084 139.728Z" fill="#2A313F"/>
<path d="M198.99 143.387C201.966 141.047 201.949 137.989 198.947 135.679L202.281 133.9C207.068 137.208 207.102 141.858 202.357 145.166L198.99 143.387Z" fill="#2A313F"/>
<path d="M177.815 135.663C174.839 138.004 174.864 141.062 177.866 143.372L174.524 145.15C169.736 141.842 169.711 137.192 174.456 133.885L177.815 135.663Z" fill="#2A313F"/>
<path d="M204.661 146.407C210.614 142.404 210.614 136.67 204.576 132.66L207.893 130.889C215.742 135.882 215.793 143.185 207.995 148.178L204.661 146.407Z" fill="#2A313F"/>
<path d="M175.519 148.146C183.079 151.337 193.87 151.337 201.396 148.146L204.73 149.909C195.375 154.068 181.625 154.068 172.202 149.909L175.519 148.146Z" fill="#2A313F"/>
<path d="M172.109 132.66C166.156 136.662 166.156 142.397 172.194 146.407L168.886 148.146C161.028 143.153 160.986 135.851 168.775 130.858L172.109 132.66Z" fill="#2A313F"/>
<path d="M181.191 145.143C185.855 146.726 190.983 146.726 195.647 145.143L199.049 146.929C192.252 149.465 184.645 149.465 177.849 146.929L181.191 145.143Z" fill="#2A313F"/>
<path d="M184.72 139.338C184.694 139.467 184.694 139.599 184.72 139.728L181.063 141.678C180.737 141.407 180.476 141.076 180.297 140.706C180.118 140.337 180.026 139.937 180.026 139.533C180.026 139.129 180.118 138.729 180.297 138.359C180.476 137.99 180.737 137.659 181.063 137.387L184.72 139.338Z" fill="#2A313F"/>
<g opacity="0.4">
<g opacity="0.4">
<path opacity="0.4" d="M325.824 357.476C327.406 353.575 321.853 348.059 313.417 345.188C304.981 342.317 296.86 343.191 295.278 347.092C293.697 350.993 299.25 356.509 307.685 359.388C316.121 362.266 324.234 361.408 325.824 357.492" fill="#D6D8E5"/>
</g>
</g>
<g opacity="0.4">
<g opacity="0.4">
<path opacity="0.4" d="M209.066 292.76C211.175 296.965 220.215 297.285 229.272 293.478C238.328 289.671 243.958 283.172 241.857 278.967C239.757 274.762 230.717 274.442 221.661 278.249C212.604 282.056 206.966 288.555 209.066 292.76Z" fill="#D6D8E5"/>
</g>
</g>
<path d="M220.266 31.1192L220.513 31.0178C220.836 30.893 221.159 30.7838 221.482 30.6823H221.542C221.839 30.5887 222.137 30.5107 222.392 30.4327H222.579C223.043 30.3147 223.515 30.2209 223.991 30.1518H224.093C224.458 30.105 224.824 30.0738 225.181 30.0582H225.394C225.734 30.0582 226.066 30.0582 226.397 30.0582H226.61C226.865 30.0582 227.112 30.105 227.358 30.1362H227.588C227.877 30.183 228.166 30.2454 228.438 30.3157H228.54C228.78 30.3794 229.015 30.4549 229.246 30.5419L229.476 30.6355L230.096 30.9086L230.309 31.01L200.741 15.2426L200.648 15.1958L200.529 15.1412L199.908 14.8681L199.789 14.8135L199.687 14.7745C199.449 14.6887 199.21 14.6106 198.972 14.5482H198.887C198.607 14.478 198.326 14.4156 198.037 14.3688H197.952H197.807C197.561 14.3688 197.314 14.3064 197.059 14.2908H196.914H196.846C196.515 14.2908 196.183 14.2908 195.843 14.2908H195.766H195.63C195.273 14.2908 194.916 14.3376 194.542 14.3844H194.457C193.981 14.4535 193.51 14.5472 193.045 14.6653H192.935H192.858C192.561 14.7433 192.263 14.8213 192.008 14.9149H191.948C191.625 15.0163 191.302 15.1256 190.979 15.2504H190.902L190.732 15.3284C190.435 15.4454 190.128 15.5703 189.822 15.7107C189.72 15.7575 189.61 15.7965 189.508 15.8511C189.125 16.0228 188.742 16.21 188.36 16.4207L217.978 32.2115C218.361 32.0009 218.744 31.8136 219.126 31.642L219.441 31.5015C219.747 31.3611 220.045 31.2363 220.351 31.1192" fill="#EAEAF4"/>
<path d="M174.983 17.5832L175.434 17.4038C175.876 17.2399 176.284 17.0839 176.752 16.9435L176.999 16.8576C177.517 16.7016 178.028 16.5534 178.538 16.4285C178.827 16.3505 179.125 16.2881 179.388 16.2257L179.822 16.1321C180.239 16.0462 180.672 15.9838 181.055 15.9214H181.123C181.531 15.8668 181.973 15.8278 182.331 15.7888H182.713H183.419C183.971 15.7614 184.525 15.7614 185.077 15.7888H185.366C185.8 15.7888 186.217 15.8668 186.659 15.9292L187.059 15.9916C187.546 16.0676 188.029 16.1692 188.504 16.2959H188.564C189.005 16.4152 189.44 16.5559 189.865 16.7172L190.231 16.8576C190.596 17.0059 190.945 17.1619 191.294 17.3335L191.634 17.4974L162.023 1.68314L161.87 1.60512L161.683 1.5193C161.343 1.34766 160.986 1.19163 160.62 1.04339L160.442 0.957571L160.272 0.902959C159.846 0.741608 159.412 0.60098 158.971 0.481662H158.928C158.448 0.349106 157.959 0.2423 157.465 0.161788H157.295H157.066C156.64 0.0993737 156.215 0.0525629 155.773 0.0213557C155.702 0.0251744 155.631 0.0251744 155.56 0.0213557H155.492C154.926 -0.00711857 154.358 -0.00711857 153.792 0.0213557H153.639H153.094H152.712C152.321 0.0603647 151.912 0.0993737 151.513 0.153986H151.453C151.045 0.208599 150.603 0.278815 150.22 0.364635C150.067 0.364635 149.922 0.427049 149.778 0.458256C149.633 0.489464 149.251 0.567482 148.987 0.637698H148.902C148.392 0.762526 147.882 0.910761 147.363 1.0668L147.116 1.15262C146.682 1.29305 146.266 1.44908 145.798 1.61292L145.654 1.65973C145.551 1.65973 145.449 1.75335 145.347 1.78456C144.88 1.97181 144.412 2.16685 143.936 2.3775L143.417 2.61155C142.805 2.89242 142.192 3.18889 141.58 3.51656C140.73 3.96126 139.879 4.44498 139.08 4.95209C138.791 5.13153 138.519 5.33438 138.23 5.52162C137.702 5.8649 137.167 6.20818 136.648 6.57487C136.316 6.80892 136.002 7.06638 135.679 7.35505C135.211 7.69832 134.743 8.0416 134.284 8.40829C133.825 8.77497 133.621 8.97782 133.28 9.26649C132.94 9.55515 132.43 9.98425 131.996 10.3665L131.937 10.4133C131.302 11.0011 130.673 11.6018 130.049 12.2156L129.539 12.7383C129.301 12.9801 129.063 13.2142 128.824 13.4639C128.586 13.7135 128.518 13.8071 128.365 13.9788C127.923 14.4625 127.515 14.9462 127.056 15.4377C126.886 15.6406 126.699 15.8278 126.52 16.0384C126.341 16.2491 126.273 16.3505 126.146 16.5066C125.823 16.8888 125.516 17.2867 125.202 17.6768C125.006 17.9265 124.802 18.1605 124.615 18.4102C124.428 18.6598 124.36 18.7691 124.224 18.9407C123.969 19.284 123.714 19.6351 123.467 19.9862C123.22 20.3372 123.11 20.4543 122.94 20.6961L122.481 21.3905L121.834 22.3579L121.46 22.9274C121.248 23.2551 121.06 23.5828 120.856 23.9105L120.321 24.7999L120.108 25.1509C119.819 25.6503 119.547 26.1574 119.258 26.6645L118.926 27.273L118.858 27.3979C118.458 28.178 118.084 28.9114 117.718 29.676L117.667 29.793C117.565 30.0037 117.48 30.2221 117.378 30.4406C117.14 30.9711 116.894 31.4938 116.672 32.0009C116.621 32.1101 116.587 32.2116 116.545 32.3208C116.4 32.6641 116.273 33.0152 116.137 33.3584C116.001 33.7017 115.831 34.1386 115.695 34.4819C115.644 34.6379 115.601 34.7862 115.55 34.9344C115.397 35.3635 115.261 35.7926 115.116 36.2217C114.972 36.6508 114.895 36.8536 114.802 37.1735C114.759 37.3217 114.725 37.47 114.683 37.626C114.521 38.1877 114.376 38.7417 114.232 39.3034C114.155 39.5999 114.062 39.8963 113.994 40.185C113.926 40.4737 113.883 40.6687 113.832 40.9106C113.535 41.0666 113.228 41.207 112.922 41.3709C112.276 41.7142 111.647 42.0886 111.017 42.4709L110.694 42.666C110.091 43.0405 109.495 43.4462 108.908 43.8519L108.568 44.1015C107.973 44.5306 107.386 44.9675 106.808 45.4356L106.655 45.5604C106.094 46.0129 105.549 46.4889 105.005 46.9726L104.835 47.113L104.733 47.2144C104.316 47.5889 103.883 47.9946 103.5 48.3691L103.441 48.4315C103.058 48.8138 102.675 49.2117 102.301 49.5862L102.199 49.6954L102.063 49.8436C101.459 50.4912 100.864 51.1543 100.286 51.8331L100.235 51.8877L100.107 52.0515C99.6478 52.5977 99.1971 53.1594 98.7634 53.7211L98.6274 53.8928C98.6027 53.9183 98.5826 53.9473 98.5679 53.9786C98.1427 54.5247 97.7175 55.0864 97.3433 55.6482L97.2243 55.812C97.1654 55.8924 97.1115 55.9758 97.0627 56.0617C96.7395 56.5246 96.4249 56.9927 96.1188 57.466C96.0756 57.5415 96.0273 57.6145 95.9742 57.6844L95.9232 57.7703C95.5745 58.3164 95.2429 58.8703 94.9197 59.4242L94.8432 59.5569L94.6901 59.8299C94.435 60.272 94.1884 60.7167 93.9503 61.164L93.7972 61.4449C93.7724 61.501 93.744 61.5557 93.7122 61.6087C93.423 62.1783 93.1339 62.74 92.8618 63.3173V63.3642L92.7853 63.5514C92.5386 64.0663 92.309 64.5812 92.0879 65.1118L91.9774 65.3692C91.9774 65.4316 91.9264 65.5096 91.8924 65.5799C91.6372 66.1884 91.3991 66.8047 91.1695 67.4211L91.127 67.5303C90.8974 68.1701 90.6933 68.8098 90.4892 69.4418C90.4688 69.5237 90.4432 69.6044 90.4127 69.6836C90.4157 69.7278 90.4157 69.7721 90.4127 69.8162C90.1916 70.5496 89.996 71.2908 89.8174 72.0319L89.7664 72.227C89.7664 72.3284 89.7239 72.422 89.7069 72.5157C89.6388 72.8043 89.5793 73.1008 89.5283 73.3895C89.4773 73.6781 89.4433 73.7873 89.4092 73.9902C89.3752 74.193 89.3072 74.5831 89.2562 74.8874C89.2562 75.0278 89.2137 75.1683 89.1881 75.3087C89.1921 75.345 89.1921 75.3816 89.1881 75.4179C89.1031 76.0499 89.0351 76.6896 88.984 77.3138V77.7195C88.984 78.367 88.916 79.0146 88.916 79.6465C88.916 84.4602 90.2086 88.2909 92.4111 90.9669C93.3759 92.144 94.5837 93.1355 95.9657 93.8848L125.584 109.668C121.248 107.327 118.552 102.436 118.535 95.4373C118.535 94.8054 118.535 94.1578 118.603 93.5103V93.1124C118.654 92.4805 118.722 91.8407 118.807 91.2088L118.883 90.6782C118.935 90.374 118.977 90.0775 119.037 89.781C119.096 89.4846 119.113 89.3831 119.147 89.1803C119.181 88.9774 119.266 88.5952 119.334 88.3065C119.334 88.1427 119.411 87.9866 119.445 87.8228C119.623 87.0894 119.819 86.3482 120.04 85.6071C120.04 85.4822 120.117 85.3574 120.151 85.2326C120.355 84.5928 120.559 83.9531 120.788 83.3212L120.839 83.1807C121.06 82.5566 121.307 81.948 121.562 81.3317C121.622 81.1757 121.69 81.0196 121.758 80.8636C121.979 80.3487 122.208 79.8259 122.447 79.3032C122.489 79.2252 122.523 79.1472 122.557 79.0692C122.829 78.4918 123.118 77.9301 123.408 77.3606L123.646 76.9159C123.884 76.4738 124.13 76.0291 124.385 75.5818L124.615 75.1761C124.938 74.6221 125.27 74.0682 125.619 73.5299L125.823 73.2178C126.12 72.7419 126.435 72.2738 126.758 71.8057L127.039 71.4C127.43 70.8383 127.838 70.2765 128.263 69.7226L128.45 69.4808C128.892 68.9112 129.343 68.3495 129.802 67.8034L129.981 67.5849C130.559 66.9062 131.155 66.243 131.758 65.5955L131.996 65.338C132.371 64.9479 132.753 64.5578 133.136 64.1911L133.195 64.1209C133.604 63.7308 134.046 63.3407 134.428 62.9663L134.701 62.7244C135.245 62.2407 135.798 61.7648 136.35 61.3123L136.503 61.1874C137.07 60.7245 137.657 60.2798 138.264 59.8533L138.604 59.6037C139.191 59.1902 139.786 58.8235 140.39 58.4178L140.704 58.2228C141.334 57.8405 141.971 57.4426 142.609 57.1305L143.528 56.6624C143.647 56.1319 143.791 55.5936 143.927 55.0552C144.063 54.5169 144.216 53.9396 144.378 53.3778C144.54 52.8161 144.659 52.4416 144.812 51.9735C144.965 51.5054 145.092 51.1153 145.245 50.6862C145.398 50.2571 145.628 49.6408 145.832 49.1259C145.968 48.7748 146.096 48.4237 146.24 48.0804C146.504 47.4407 146.785 46.8087 147.091 46.1768C147.193 45.9583 147.278 45.7321 147.38 45.5214C147.779 44.671 148.23 43.8362 148.638 43.0015L148.979 42.3929C149.31 41.7688 149.659 41.1446 150.024 40.5283C150.203 40.2318 150.382 39.9353 150.569 39.6389C150.886 39.1188 151.209 38.5986 151.538 38.0785C151.751 37.7508 151.963 37.4232 152.184 37.1033C152.508 36.6274 152.831 36.1593 153.171 35.699C153.511 35.2387 153.673 34.9968 153.928 34.6535C154.183 34.3103 154.489 33.8499 154.838 33.4599C155.186 33.0698 155.458 32.6797 155.782 32.2818C156.105 31.8839 156.385 31.5718 156.691 31.2207C157.125 30.7292 157.542 30.2455 158.001 29.7618C158.46 29.2781 158.775 28.927 159.175 28.5213C159.345 28.3419 159.515 28.1702 159.693 27.9986C160.323 27.3641 160.969 26.7477 161.632 26.1496C162.057 25.7673 162.483 25.3694 162.933 25.0339C163.384 24.6984 163.58 24.4644 163.92 24.1991C164.26 23.9339 164.855 23.4814 165.323 23.1225C165.646 22.8806 165.961 22.631 166.284 22.3969C166.803 22.0302 167.338 21.6869 167.874 21.3359L168.724 20.7741C169.575 20.267 170.425 19.7833 171.225 19.3386C171.837 19.0109 172.449 18.7145 173.061 18.4336L173.58 18.1995C174.056 17.9889 174.524 17.7939 174.992 17.6144" fill="#EAEAF4"/>
<path d="M171.216 19.3076C184.61 12.2158 195.877 15.9294 199.109 27.3278C199.722 26.9209 200.358 26.5433 201.014 26.1966C209.458 21.7261 216.474 24.4802 217.894 32.2352C227.622 27.0704 235.275 31.1195 235.275 41.0512C235.275 50.2729 228.753 61.3359 220.275 66.9142C219.577 67.3667 218.914 67.7724 218.234 68.1312C217.6 68.4678 216.947 68.7725 216.278 69.044L142.686 108.147C129.326 115.223 118.467 109.551 118.424 95.4609C118.382 81.3709 129.165 64.2537 142.524 57.1619C142.839 56.9903 143.137 56.8498 143.443 56.6938C146.606 41.9718 157.814 26.3916 171.182 19.3076" fill="#D3D3DD"/>
<path d="M264.384 76.3075C263.048 78.4958 261.426 80.5263 259.554 82.3539C259.026 82.9078 255.004 81.5035 255.846 81.1056C256.688 80.7077 259.324 77.3374 260.642 75.0904C261.749 72.4056 262.688 69.6654 263.457 66.8829C264.307 64.1367 264.996 60.1032 265.6 58.1995C265.756 57.4956 266.13 56.8479 266.678 56.3344C267.225 55.821 267.923 55.4635 268.687 55.3051C270.132 55.0008 271.068 55.3597 270.804 56.9669C270.345 59.7911 267.938 70.7526 264.384 76.2919" fill="#FFCEA9"/>
<path d="M266.689 119.28C265.447 120.216 263.602 119.366 263.517 119.451C262.049 120.695 260.51 121.867 258.908 122.962C258.134 123.524 256.918 124.281 257.139 125.357C257.53 127.284 260.897 126.691 262.165 126.098C263.432 125.506 264.469 124.538 265.677 123.852C266.527 123.36 267.377 123.11 267.505 122.112C267.59 121.519 266.918 119.256 266.655 119.28" fill="black"/>
<path d="M267.488 121.675C267.326 122.627 266.493 122.892 265.643 123.376C264.427 124.07 263.347 125.076 262.079 125.662C260.812 126.247 257.981 126.746 257.156 125.373C257.606 127.23 260.906 126.645 262.164 126.059C263.423 125.474 264.469 124.499 265.677 123.812C266.527 123.321 267.377 123.071 267.505 122.073C267.525 121.941 267.525 121.807 267.505 121.675" fill="#FFA500"/>
<path d="M254.043 112.554C252.793 113.491 250.642 112.469 250.514 112.554C249.221 113.766 247.849 114.904 246.407 115.964C245.624 116.526 244.417 117.275 244.629 118.351C245.029 120.286 248.388 119.693 249.664 119.131C250.939 118.57 251.968 117.571 253.167 116.877C254.018 116.393 254.868 116.136 255.004 115.145C255.081 114.544 254.264 112.562 254.043 112.586" fill="black"/>
<path d="M254.97 114.848C254.8 115.8 253.967 116.065 253.116 116.549C251.9 117.244 250.82 118.25 249.553 118.835C248.286 119.42 245.454 119.92 244.629 118.546C245.08 120.403 248.388 119.818 249.638 119.241C250.888 118.663 251.943 117.68 253.15 116.986C254.001 116.495 254.851 116.245 254.979 115.254C254.995 115.119 254.995 114.983 254.979 114.848" fill="#FFA500"/>
<path d="M283.373 82.5565C284.759 90.4831 280.915 93.44 275.932 95.1252C272.352 96.3344 267.216 98.1991 267.216 98.1991C267.216 98.1991 267.292 99.9389 267.326 103.84C267.369 107.28 266.867 119.826 266.867 119.826C266.277 120.105 265.622 120.25 264.958 120.25C264.294 120.25 263.639 120.105 263.049 119.826C263.049 119.826 261.042 110.214 260.617 105.884C260.038 100.001 259.052 96.155 259.384 94.8911C259.664 93.7754 266.671 90.6157 268.899 88.9227L254.222 93.4322C254.513 94.894 254.656 96.3775 254.647 97.8636C254.511 102.545 254.23 112.625 254.23 112.625C254.23 112.625 252.215 113.959 250.497 112.625C250.497 112.625 246.806 92.6364 247.257 89.9994C247.682 87.4872 260.617 82.3614 262.887 80.5904C263.285 80.2938 263.747 80.0773 264.242 79.9549C264.737 79.8326 265.255 79.8073 265.761 79.8804L283.373 82.5565Z" fill="#8C8C8C"/>
<path d="M248.184 85.8646L258.04 80.6374C258.127 80.5915 258.225 80.5674 258.325 80.5674C258.425 80.5674 258.523 80.5915 258.61 80.6374L275.907 89.8045L265.761 95.1722L248.184 85.8646Z" fill="#F4F4F4"/>
<path d="M266.221 93.2529L266.978 93.6508C267.037 93.6508 267.029 93.7444 266.978 93.7756L266.255 94.1579C266.218 94.175 266.177 94.184 266.136 94.184C266.094 94.184 266.054 94.175 266.017 94.1579L265.268 93.76C265.209 93.76 265.217 93.6742 265.268 93.6352L265.983 93.2529C266.02 93.2357 266.06 93.2268 266.102 93.2268C266.143 93.2268 266.184 93.2357 266.221 93.2529" fill="black"/>
<path d="M265.158 92.6911L265.915 93.089C265.974 93.089 265.966 93.1748 265.915 93.2138L265.192 93.5961C265.155 93.6133 265.114 93.6222 265.073 93.6222C265.031 93.6222 264.991 93.6133 264.954 93.5961L264.205 93.1982C264.146 93.1982 264.146 93.1124 264.205 93.0734L264.92 92.6911C264.957 92.674 264.997 92.665 265.039 92.665C265.08 92.665 265.121 92.674 265.158 92.6911" fill="black"/>
<path d="M264.086 92.1215L264.835 92.5194C264.894 92.5194 264.886 92.6052 264.835 92.6442L264.12 93.0265C264.083 93.0437 264.043 93.0526 264.001 93.0526C263.96 93.0526 263.919 93.0437 263.882 93.0265L263.125 92.6286C263.066 92.6286 263.074 92.535 263.125 92.5038L263.848 92.1215C263.885 92.1044 263.926 92.0955 263.967 92.0955C264.008 92.0955 264.049 92.1044 264.086 92.1215" fill="black"/>
<path d="M263.032 91.5598L263.78 91.9577C263.848 91.9577 263.84 92.0513 263.78 92.0903L263.066 92.4648C263.03 92.484 262.989 92.494 262.947 92.494C262.905 92.494 262.864 92.484 262.828 92.4648L262.071 92.0669C262.011 92.0669 262.02 91.9811 262.071 91.9421L262.785 91.5676C262.822 91.5504 262.863 91.5415 262.904 91.5415C262.946 91.5415 262.986 91.5504 263.023 91.5676" fill="black"/>
<path d="M261.969 90.9982L262.717 91.3961C262.777 91.3961 262.777 91.4898 262.717 91.521L262.003 91.9033C261.966 91.9204 261.925 91.9293 261.884 91.9293C261.842 91.9293 261.802 91.9204 261.765 91.9033L261.008 91.5054C260.948 91.5054 260.957 91.4195 261.008 91.3805L261.731 90.9982C261.768 90.9811 261.808 90.9722 261.85 90.9722C261.891 90.9722 261.932 90.9811 261.969 90.9982" fill="black"/>
<path d="M260.906 90.413L261.654 90.8109C261.714 90.8109 261.705 90.8967 261.654 90.9358L260.94 91.318C260.903 91.3352 260.862 91.3441 260.821 91.3441C260.779 91.3441 260.739 91.3352 260.702 91.318L259.945 90.9202C259.885 90.9202 259.894 90.8343 259.945 90.7953L260.668 90.413C260.705 90.3959 260.745 90.387 260.787 90.387C260.828 90.387 260.869 90.3959 260.906 90.413" fill="black"/>
<path d="M259.843 89.8745L260.591 90.2724C260.651 90.2724 260.642 90.3582 260.591 90.3972L259.877 90.7795C259.838 90.7947 259.796 90.8026 259.753 90.8026C259.711 90.8026 259.669 90.7947 259.63 90.7795L258.882 90.3816C258.822 90.3816 258.831 90.288 258.882 90.2568L259.605 89.8745C259.641 89.8553 259.682 89.8452 259.724 89.8452C259.766 89.8452 259.807 89.8553 259.843 89.8745" fill="black"/>
<path d="M258.78 89.3053L259.528 89.7031C259.588 89.7031 259.579 89.7968 259.528 89.8358L258.814 90.2103C258.776 90.2294 258.734 90.2394 258.69 90.2394C258.647 90.2394 258.605 90.2294 258.567 90.2103L257.819 89.8124C257.759 89.8124 257.768 89.7265 257.819 89.6875L258.533 89.313C258.572 89.2958 258.614 89.2869 258.656 89.2869C258.699 89.2869 258.741 89.2958 258.78 89.313" fill="black"/>
<path d="M257.708 88.7434L258.465 89.1412C258.525 89.1412 258.516 89.2349 258.465 89.2661L257.742 89.6484C257.705 89.6655 257.665 89.6744 257.623 89.6744C257.582 89.6744 257.541 89.6655 257.504 89.6484L256.756 89.2505C256.696 89.2505 256.705 89.1647 256.756 89.1256L257.47 88.7434C257.507 88.7262 257.548 88.7173 257.589 88.7173C257.631 88.7173 257.671 88.7262 257.708 88.7434" fill="black"/>
<path d="M256.645 88.1818L257.402 88.5797C257.462 88.5797 257.453 88.6655 257.402 88.7046L256.679 89.0868C256.642 89.104 256.602 89.1129 256.56 89.1129C256.519 89.1129 256.478 89.104 256.441 89.0868L255.693 88.689C255.633 88.689 255.633 88.6031 255.693 88.5641L256.407 88.1818C256.444 88.1647 256.485 88.1558 256.526 88.1558C256.568 88.1558 256.608 88.1647 256.645 88.1818" fill="black"/>
<path d="M255.582 87.6201L256.339 88.018C256.399 88.018 256.39 88.1038 256.339 88.1428L255.625 88.5251C255.587 88.5406 255.547 88.5486 255.506 88.5486C255.465 88.5486 255.424 88.5406 255.387 88.5251L254.638 88.1272C254.57 88.1272 254.579 88.0336 254.638 88.0024L255.353 87.6201C255.389 87.6009 255.43 87.5908 255.472 87.5908C255.514 87.5908 255.555 87.6009 255.591 87.6201" fill="black"/>
<path d="M254.52 87.0505L255.268 87.4484C255.336 87.4484 255.327 87.542 255.268 87.581L254.554 87.9555C254.517 87.9726 254.476 87.9816 254.434 87.9816C254.393 87.9816 254.352 87.9726 254.315 87.9555L253.559 87.5576C253.499 87.5576 253.508 87.464 253.559 87.425L254.273 87.0505C254.31 87.0333 254.351 87.0244 254.392 87.0244C254.433 87.0244 254.474 87.0333 254.511 87.0505" fill="black"/>
<path d="M253.456 86.5122L254.205 86.91C254.264 86.91 254.264 87.0037 254.205 87.0349L253.49 87.4172C253.453 87.4343 253.413 87.4432 253.371 87.4432C253.33 87.4432 253.289 87.4343 253.252 87.4172L252.495 87.0193C252.436 87.0193 252.444 86.9335 252.495 86.8944L253.218 86.5122C253.255 86.495 253.296 86.4861 253.337 86.4861C253.379 86.4861 253.419 86.495 253.456 86.5122" fill="black"/>
<path d="M251.883 85.6539L253.142 86.3248C253.201 86.3248 253.201 86.4106 253.142 86.4497L252.428 86.8319C252.391 86.8491 252.35 86.858 252.309 86.858C252.267 86.858 252.226 86.8491 252.189 86.8319L250.922 86.161C250.863 86.161 250.871 86.0752 250.922 86.0362L251.637 85.6539C251.675 85.6366 251.717 85.6277 251.76 85.6277C251.803 85.6277 251.845 85.6366 251.883 85.6539" fill="black"/>
<path d="M265.677 91.872L266.425 92.2699C266.493 92.2699 266.484 92.3557 266.425 92.3947L265.711 92.777C265.674 92.7942 265.633 92.8031 265.591 92.8031C265.55 92.8031 265.509 92.7942 265.472 92.777L264.716 92.3791C264.656 92.3791 264.665 92.2933 264.716 92.2543L265.43 91.872C265.467 91.8549 265.508 91.8459 265.549 91.8459C265.59 91.8459 265.631 91.8549 265.668 91.872" fill="black"/>
<path d="M264.613 91.3024L265.362 91.7003C265.421 91.7003 265.413 91.794 265.362 91.833L264.647 92.2074C264.61 92.2246 264.57 92.2335 264.528 92.2335C264.487 92.2335 264.446 92.2246 264.409 92.2074L263.652 91.8096C263.593 91.8096 263.601 91.7159 263.652 91.6769L264.375 91.3024C264.412 91.2853 264.453 91.2764 264.494 91.2764C264.536 91.2764 264.576 91.2853 264.613 91.3024" fill="black"/>
<path d="M263.542 90.7407L264.299 91.1386C264.358 91.1386 264.35 91.2322 264.299 91.2634L263.576 91.6457C263.539 91.6628 263.498 91.6717 263.457 91.6717C263.416 91.6717 263.375 91.6628 263.338 91.6457L262.59 91.2478C262.53 91.2478 262.539 91.162 262.59 91.123L263.304 90.7407C263.341 90.7235 263.382 90.7146 263.423 90.7146C263.464 90.7146 263.505 90.7235 263.542 90.7407" fill="black"/>
<path d="M262.487 90.1791L263.236 90.577C263.304 90.577 263.295 90.6629 263.236 90.7019L262.521 91.0842C262.484 91.1013 262.444 91.1102 262.402 91.1102C262.361 91.1102 262.32 91.1013 262.283 91.0842L261.535 90.6863C261.467 90.6863 261.475 90.5926 261.535 90.5614L262.249 90.1791C262.286 90.162 262.327 90.1531 262.368 90.1531C262.41 90.1531 262.45 90.162 262.487 90.1791Z" fill="black"/>
<path d="M261.425 89.6328L262.173 90.0307C262.232 90.0307 262.224 90.1243 262.173 90.1555L261.459 90.5378C261.422 90.5549 261.381 90.5638 261.34 90.5638C261.298 90.5638 261.257 90.5549 261.22 90.5378L260.464 90.1399C260.404 90.1399 260.413 90.0541 260.464 90.015L261.186 89.6328C261.223 89.6156 261.264 89.6067 261.306 89.6067C261.347 89.6067 261.388 89.6156 261.425 89.6328" fill="black"/>
<path d="M260.353 89.0554L261.11 89.4533C261.169 89.4533 261.161 89.5391 261.11 89.5781L260.387 89.9604C260.35 89.9759 260.309 89.9839 260.268 89.9839C260.227 89.9839 260.186 89.9759 260.149 89.9604L259.401 89.5625C259.341 89.5625 259.35 89.4689 259.401 89.4377L260.115 89.0554C260.151 89.0362 260.192 89.0261 260.234 89.0261C260.276 89.0261 260.317 89.0362 260.353 89.0554" fill="black"/>
<path d="M259.29 88.4859L260.038 88.8838C260.106 88.8838 260.098 88.9774 260.038 89.0165L259.324 89.3909C259.288 89.4101 259.247 89.4202 259.205 89.4202C259.163 89.4202 259.122 89.4101 259.086 89.3909L258.338 88.993C258.27 88.993 258.278 88.9072 258.338 88.8682L259.052 88.4859C259.089 88.4704 259.13 88.4624 259.171 88.4624C259.212 88.4624 259.253 88.4704 259.29 88.4859Z" fill="black"/>
<path d="M258.236 87.924L258.984 88.3219C259.044 88.3219 259.035 88.4078 258.984 88.4468L258.236 88.8525C258.199 88.8696 258.158 88.8785 258.117 88.8785C258.075 88.8785 258.034 88.8696 257.998 88.8525L257.241 88.4546C257.181 88.4546 257.19 88.3688 257.241 88.3297L257.964 87.9475C258 87.9303 258.041 87.9214 258.083 87.9214C258.124 87.9214 258.165 87.9303 258.202 87.9475" fill="black"/>
<path d="M257.156 87.3625L257.912 87.7604C257.972 87.7604 257.963 87.8462 257.912 87.8852L257.19 88.2675C257.152 88.283 257.112 88.2911 257.071 88.2911C257.029 88.2911 256.989 88.283 256.951 88.2675L256.203 87.8696C256.144 87.8696 256.152 87.776 256.203 87.737L256.917 87.3625C256.954 87.3433 256.995 87.3333 257.037 87.3333C257.078 87.3333 257.119 87.3433 257.156 87.3625" fill="black"/>
<path d="M256.093 86.7929L256.841 87.1908C256.909 87.1908 256.9 87.2844 256.841 87.3156L256.127 87.6979C256.09 87.7151 256.049 87.724 256.007 87.724C255.966 87.724 255.925 87.7151 255.888 87.6979L255.132 87.3C255.072 87.3 255.081 87.2142 255.132 87.1752L255.846 86.7929C255.883 86.7758 255.924 86.7668 255.965 86.7668C256.006 86.7668 256.047 86.7758 256.084 86.7929" fill="black"/>
<path d="M255.03 86.2314L255.778 86.6293C255.837 86.6293 255.829 86.7151 255.778 86.7541L255.064 87.1364C255.027 87.1535 254.986 87.1625 254.945 87.1625C254.903 87.1625 254.862 87.1535 254.825 87.1364L254.069 86.7385C254.009 86.7385 254.018 86.6449 254.069 86.6137L254.791 86.2314C254.828 86.2143 254.869 86.2053 254.91 86.2053C254.952 86.2053 254.993 86.2143 255.03 86.2314" fill="black"/>
<path d="M253.984 85.6618L254.741 86.0597C254.8 86.0597 254.792 86.1533 254.741 86.1923L254.018 86.5668C253.981 86.584 253.94 86.5929 253.899 86.5929C253.857 86.5929 253.817 86.584 253.78 86.5668L253.031 86.1689C252.972 86.1689 252.98 86.0753 253.031 86.0363L253.746 85.6618C253.782 85.6447 253.823 85.6357 253.865 85.6357C253.906 85.6357 253.947 85.6447 253.984 85.6618" fill="black"/>
<path d="M266.74 92.4337L268.007 93.1046C268.066 93.1046 268.058 93.1983 268.007 93.2295L267.292 93.6118C267.255 93.6289 267.215 93.6378 267.173 93.6378C267.132 93.6378 267.091 93.6289 267.054 93.6118L265.787 92.9408C265.728 92.9408 265.736 92.855 265.787 92.816L266.501 92.4337C266.539 92.4182 266.579 92.4102 266.62 92.4102C266.662 92.4102 266.702 92.4182 266.74 92.4337Z" fill="black"/>
<path d="M251.934 85.6227L252.683 86.0206C252.717 86.0358 252.755 86.0437 252.793 86.0437C252.831 86.0437 252.869 86.0358 252.904 86.0206L253.661 85.6149C253.729 85.6149 253.729 85.5291 253.661 85.4979H253.601C253.59 85.4925 253.582 85.4846 253.575 85.475C253.569 85.4654 253.566 85.4544 253.566 85.4433C253.566 85.4321 253.569 85.4212 253.575 85.4116C253.582 85.402 253.59 85.3941 253.601 85.3887L254.409 84.9596C254.422 84.9551 254.433 84.9471 254.441 84.9367C254.449 84.9262 254.453 84.9138 254.453 84.9011C254.453 84.8883 254.449 84.8759 254.441 84.8654C254.433 84.855 254.422 84.847 254.409 84.8425L253.933 84.5929C253.897 84.5775 253.858 84.5696 253.818 84.5696C253.778 84.5696 253.739 84.5775 253.703 84.5929L252.955 84.9908L252.802 85.0688L252.691 85.1312L252.581 85.1936L251.934 85.5291C251.866 85.5291 251.866 85.6149 251.934 85.6539" fill="black"/>
<path d="M270.345 91.0683L271.093 91.4662C271.161 91.4662 271.153 91.552 271.093 91.591L270.379 91.9733C270.342 91.9888 270.301 91.9969 270.26 91.9969C270.219 91.9969 270.178 91.9888 270.141 91.9733L269.384 91.5754C269.325 91.5754 269.333 91.4818 269.384 91.4506L270.098 91.0683C270.135 91.0492 270.176 91.0391 270.217 91.0391C270.259 91.0391 270.3 91.0492 270.336 91.0683" fill="black"/>
<path d="M269.291 90.5066L270.048 90.9044C270.107 90.9044 270.099 90.9903 270.048 91.0293L269.325 91.4116C269.287 91.4271 269.247 91.4351 269.206 91.4351C269.165 91.4351 269.124 91.4271 269.087 91.4116L268.338 91.0137C268.279 91.0137 268.279 90.9201 268.338 90.8888L269.053 90.5066C269.089 90.4874 269.13 90.4773 269.172 90.4773C269.214 90.4773 269.255 90.4874 269.291 90.5066" fill="black"/>
<path d="M268.219 89.945L268.976 90.3429C269.035 90.3429 269.027 90.4287 268.976 90.4678L268.262 90.85C268.223 90.8653 268.181 90.8731 268.138 90.8731C268.096 90.8731 268.054 90.8653 268.015 90.85L267.267 90.4522C267.207 90.4522 267.216 90.3585 267.267 90.3273L267.981 89.945C268.017 89.9259 268.058 89.9158 268.1 89.9158C268.142 89.9158 268.183 89.9259 268.219 89.945" fill="black"/>
<path d="M259.188 85.1545L259.936 85.5524C260.004 85.5524 259.996 85.646 259.936 85.6772L259.222 86.0595C259.185 86.0766 259.144 86.0856 259.103 86.0856C259.062 86.0856 259.021 86.0766 258.984 86.0595L258.227 85.6616C258.168 85.6616 258.176 85.5758 258.227 85.5368L258.95 85.1545C258.987 85.1374 259.028 85.1284 259.069 85.1284C259.11 85.1284 259.151 85.1374 259.188 85.1545" fill="black"/>
<path d="M258.125 84.593L258.882 84.9909C258.941 84.9909 258.933 85.0845 258.882 85.1157L258.159 85.498C258.122 85.5151 258.081 85.524 258.04 85.524C257.999 85.524 257.958 85.5151 257.921 85.498L257.173 85.1001C257.105 85.1001 257.113 85.0143 257.173 84.9753L257.887 84.593C257.924 84.5758 257.965 84.5669 258.006 84.5669C258.047 84.5669 258.088 84.5758 258.125 84.593" fill="black"/>
<path d="M257.062 84.031L257.819 84.4288C257.878 84.4288 257.87 84.5225 257.819 84.5537L257.096 84.936C257.059 84.9531 257.018 84.962 256.977 84.962C256.936 84.962 256.895 84.9531 256.858 84.936L256.11 84.5381C256.05 84.5381 256.059 84.4522 256.11 84.4132L256.824 84.031C256.861 84.0138 256.902 84.0049 256.943 84.0049C256.984 84.0049 257.025 84.0138 257.062 84.031" fill="black"/>
<path d="M256.008 83.4694L256.756 83.8673C256.815 83.8673 256.807 83.9609 256.756 83.9921L256.042 84.3744C256.003 84.3917 255.961 84.4006 255.918 84.4006C255.876 84.4006 255.833 84.3917 255.795 84.3744L255.047 83.9765C254.987 83.9765 254.996 83.8907 255.047 83.8517L255.769 83.4694C255.806 83.4523 255.847 83.4434 255.889 83.4434C255.93 83.4434 255.971 83.4523 256.008 83.4694" fill="black"/>
<path d="M266.892 89.2349L267.913 89.7811C267.972 89.7811 267.964 89.8669 267.913 89.9059L267.198 90.2882C267.161 90.3037 267.12 90.3117 267.079 90.3117C267.038 90.3117 266.998 90.3037 266.96 90.2882L265.931 89.742C265.872 89.742 265.88 89.6562 265.931 89.6172L266.646 89.2349C266.684 89.2177 266.726 89.2087 266.769 89.2087C266.812 89.2087 266.854 89.2177 266.892 89.2349" fill="black"/>
<path d="M260.251 85.732L261.271 86.2781C261.331 86.2781 261.331 86.364 261.271 86.403L260.557 86.7853C260.52 86.8024 260.479 86.8113 260.438 86.8113C260.397 86.8113 260.356 86.8024 260.319 86.7853L259.29 86.2391C259.231 86.2391 259.239 86.1533 259.29 86.1143L260.013 85.732C260.05 85.7165 260.091 85.7085 260.132 85.7085C260.173 85.7085 260.214 85.7165 260.251 85.732" fill="black"/>
<path d="M261.586 86.4261L266.578 89.0709C266.637 89.0709 266.629 89.1567 266.578 89.1957L265.863 89.578C265.826 89.5952 265.786 89.6041 265.744 89.6041C265.703 89.6041 265.662 89.5952 265.625 89.578L260.625 86.9332C260.565 86.9332 260.574 86.8396 260.625 86.8084L261.339 86.4261C261.378 86.4089 261.42 86.3999 261.463 86.3999C261.505 86.3999 261.548 86.4089 261.586 86.4261" fill="black"/>
<path d="M266.416 91.1932L267.173 91.5911C267.233 91.5911 267.224 91.6847 267.173 91.7159L266.45 92.0982C266.414 92.1174 266.373 92.1275 266.331 92.1275C266.289 92.1275 266.248 92.1174 266.212 92.0982L265.464 91.7003C265.404 91.7003 265.404 91.6145 265.464 91.5755L266.178 91.1932C266.216 91.1777 266.256 91.1697 266.297 91.1697C266.338 91.1697 266.379 91.1777 266.416 91.1932" fill="black"/>
<path d="M265.353 90.6081L266.11 91.006C266.17 91.006 266.161 91.0996 266.11 91.1308L265.387 91.5131C265.35 91.5303 265.31 91.5392 265.268 91.5392C265.227 91.5392 265.186 91.5303 265.149 91.5131L264.401 91.1152C264.341 91.1152 264.341 91.0294 264.401 90.9904L265.115 90.6081C265.152 90.591 265.193 90.582 265.234 90.582C265.276 90.582 265.316 90.591 265.353 90.6081" fill="black"/>
<path d="M264.29 90.0461L265.047 90.444C265.107 90.444 265.098 90.5298 265.047 90.5688L264.324 90.9511C264.287 90.9682 264.247 90.9772 264.205 90.9772C264.164 90.9772 264.123 90.9682 264.086 90.9511L263.338 90.5532C263.278 90.5532 263.278 90.4674 263.338 90.4284L264.052 90.0461C264.089 90.0289 264.13 90.02 264.171 90.02C264.213 90.02 264.253 90.0289 264.29 90.0461" fill="black"/>
<path d="M263.227 89.4846L263.984 89.8825C264.044 89.8825 264.035 89.9683 263.984 90.0073L263.261 90.3896C263.224 90.4067 263.184 90.4156 263.142 90.4156C263.101 90.4156 263.06 90.4067 263.023 90.3896L262.275 89.9917C262.215 89.9917 262.215 89.8981 262.275 89.8669L262.989 89.4846C263.026 89.4674 263.067 89.4585 263.108 89.4585C263.15 89.4585 263.19 89.4674 263.227 89.4846" fill="black"/>
<path d="M262.164 88.9228L262.921 89.3207C262.981 89.3207 262.972 89.4065 262.921 89.4455L262.198 89.8278C262.161 89.8433 262.12 89.8514 262.079 89.8514C262.038 89.8514 261.998 89.8433 261.96 89.8278L261.212 89.4299C261.152 89.4299 261.161 89.3363 261.212 89.2973L261.926 88.9228C261.962 88.9036 262.004 88.8936 262.045 88.8936C262.087 88.8936 262.128 88.9036 262.164 88.9228" fill="black"/>
<path d="M261.101 88.3532L261.858 88.7511C261.918 88.7511 261.909 88.8447 261.858 88.8837L261.135 89.2582C261.098 89.2754 261.058 89.2843 261.016 89.2843C260.975 89.2843 260.934 89.2754 260.897 89.2582L260.149 88.8603C260.089 88.8603 260.098 88.7667 260.149 88.7277L260.863 88.3532C260.9 88.3361 260.941 88.3271 260.982 88.3271C261.024 88.3271 261.064 88.3361 261.101 88.3532" fill="black"/>
<path d="M260.039 87.7916L260.795 88.1895C260.855 88.1895 260.846 88.2831 260.795 88.3143L260.073 88.6966C260.036 88.7158 259.995 88.7259 259.954 88.7259C259.912 88.7259 259.871 88.7158 259.835 88.6966L259.086 88.2987C259.027 88.2987 259.035 88.2129 259.086 88.1739L259.801 87.7916C259.838 87.7761 259.879 87.7681 259.92 87.7681C259.961 87.7681 260.001 87.7761 260.039 87.7916" fill="black"/>
<path d="M258.975 87.2299L259.732 87.6278C259.792 87.6278 259.783 87.7214 259.732 87.7526L259.009 88.1349C258.973 88.1521 258.932 88.161 258.89 88.161C258.849 88.161 258.808 88.1521 258.771 88.1349L258.023 87.737C257.963 87.737 257.972 87.6512 258.023 87.6122L258.737 87.2299C258.774 87.2128 258.815 87.2039 258.856 87.2039C258.898 87.2039 258.938 87.2128 258.975 87.2299" fill="black"/>
<path d="M257.912 86.6684L258.669 87.0663C258.729 87.0663 258.72 87.1521 258.669 87.1911L257.946 87.5734C257.91 87.5905 257.869 87.5995 257.827 87.5995C257.786 87.5995 257.745 87.5905 257.708 87.5734L256.96 87.1755C256.9 87.1755 256.909 87.0897 256.96 87.0507L257.674 86.6684C257.711 86.6513 257.752 86.6423 257.793 86.6423C257.835 86.6423 257.875 86.6513 257.912 86.6684" fill="black"/>
<path d="M256.858 86.1065L257.606 86.5044C257.666 86.5044 257.657 86.5902 257.606 86.6292L256.883 87.0115C256.847 87.0287 256.806 87.0376 256.764 87.0376C256.723 87.0376 256.682 87.0287 256.645 87.0115L255.897 86.6136C255.837 86.6136 255.846 86.52 255.897 86.4888L256.611 86.1065C256.65 86.0893 256.692 86.0803 256.735 86.0803C256.777 86.0803 256.82 86.0893 256.858 86.1065" fill="black"/>
<path d="M255.795 85.5445L256.543 85.9424C256.603 85.9424 256.594 86.0282 256.543 86.0673L255.82 86.4495C255.783 86.4651 255.742 86.4731 255.701 86.4731C255.66 86.4731 255.62 86.4651 255.582 86.4495L254.834 86.0517C254.774 86.0517 254.783 85.958 254.834 85.919L255.548 85.5445C255.586 85.5254 255.628 85.5154 255.672 85.5154C255.715 85.5154 255.757 85.5254 255.795 85.5445" fill="black"/>
<path d="M254.732 84.952L255.48 85.3499C255.54 85.3499 255.531 85.4435 255.48 85.4825L254.766 85.857C254.728 85.8742 254.685 85.8832 254.643 85.8832C254.6 85.8832 254.558 85.8742 254.519 85.857L253.771 85.4591C253.711 85.4591 253.72 85.3655 253.771 85.3265L254.485 84.952C254.524 84.9347 254.566 84.9258 254.609 84.9258C254.651 84.9258 254.694 84.9347 254.732 84.952" fill="black"/>
<path d="M267.479 91.7316L269.036 92.5586C269.095 92.5586 269.087 92.6445 269.036 92.6835L268.321 93.0658C268.284 93.0829 268.244 93.0918 268.202 93.0918C268.161 93.0918 268.12 93.0829 268.083 93.0658L266.527 92.2388C266.459 92.2388 266.467 92.1529 266.527 92.1139L267.241 91.7394C267.278 91.7223 267.319 91.7134 267.36 91.7134C267.402 91.7134 267.442 91.7223 267.479 91.7394" fill="black"/>
<path d="M267.981 90.9045L268.729 91.3024C268.789 91.3024 268.78 91.3882 268.729 91.4272L268.015 91.8095C267.978 91.8266 267.937 91.8356 267.896 91.8356C267.855 91.8356 267.814 91.8266 267.777 91.8095L267.02 91.4116C266.961 91.4116 266.969 91.3258 267.02 91.2868L267.743 90.9045C267.78 90.8873 267.821 90.8784 267.862 90.8784C267.903 90.8784 267.944 90.8873 267.981 90.9045" fill="black"/>
<path d="M266.918 90.343L267.666 90.7409C267.726 90.7409 267.717 90.8267 267.666 90.8657L266.952 91.248C266.915 91.2651 266.874 91.274 266.833 91.274C266.792 91.274 266.751 91.2651 266.714 91.248L265.957 90.8501C265.898 90.8501 265.906 90.7565 265.957 90.7253L266.68 90.343C266.717 90.3258 266.758 90.3169 266.799 90.3169C266.84 90.3169 266.881 90.3258 266.918 90.343" fill="black"/>
<path d="M265.889 89.781L266.638 90.1788C266.697 90.1788 266.689 90.2647 266.638 90.3037L265.923 90.686C265.885 90.7032 265.843 90.7121 265.8 90.7121C265.757 90.7121 265.715 90.7032 265.677 90.686L264.928 90.2881C264.869 90.2881 264.877 90.1944 264.928 90.1632L265.651 89.781C265.688 89.7638 265.729 89.7549 265.77 89.7549C265.811 89.7549 265.852 89.7638 265.889 89.781" fill="black"/>
<path d="M264.792 89.2192L265.54 89.6171C265.6 89.6171 265.591 89.7029 265.54 89.7419L264.826 90.1242C264.789 90.1397 264.748 90.1477 264.707 90.1477C264.666 90.1477 264.625 90.1397 264.588 90.1242L263.831 89.7263C263.772 89.7263 263.78 89.6327 263.831 89.5937L264.554 89.2192C264.59 89.2 264.631 89.1899 264.673 89.1899C264.715 89.1899 264.756 89.2 264.792 89.2192" fill="black"/>
<path d="M263.729 88.6496L264.477 89.0475C264.537 89.0475 264.528 89.1411 264.477 89.1801L263.763 89.5546C263.726 89.5718 263.685 89.5807 263.644 89.5807C263.603 89.5807 263.562 89.5718 263.525 89.5546L262.768 89.1567C262.709 89.1567 262.717 89.0631 262.768 89.0241L263.491 88.6496C263.528 88.6325 263.569 88.6235 263.61 88.6235C263.651 88.6235 263.692 88.6325 263.729 88.6496" fill="black"/>
<path d="M262.666 88.0726L263.414 88.4705C263.474 88.4705 263.465 88.5641 263.414 88.6031L262.7 88.9776C262.664 88.9968 262.623 89.0069 262.581 89.0069C262.539 89.0069 262.498 88.9968 262.462 88.9776L261.705 88.5797C261.646 88.5797 261.654 88.4939 261.705 88.4549L262.428 88.0726C262.465 88.0571 262.506 88.0491 262.547 88.0491C262.588 88.0491 262.629 88.0571 262.666 88.0726" fill="black"/>
<path d="M261.637 87.5263L262.386 87.9242C262.445 87.9242 262.437 88.0178 262.386 88.049L261.671 88.4313C261.634 88.4485 261.594 88.4574 261.552 88.4574C261.511 88.4574 261.47 88.4485 261.433 88.4313L260.676 88.0334C260.617 88.0334 260.625 87.9476 260.676 87.9086L261.399 87.5263C261.436 87.5092 261.477 87.5002 261.518 87.5002C261.56 87.5002 261.6 87.5092 261.637 87.5263" fill="black"/>
<path d="M260.54 86.9648L261.288 87.3627C261.356 87.3627 261.339 87.4485 261.288 87.4875L260.574 87.8698C260.537 87.8869 260.496 87.8959 260.455 87.8959C260.414 87.8959 260.373 87.8869 260.336 87.8698L259.579 87.4719C259.52 87.4719 259.528 87.3861 259.579 87.3471L260.302 86.9648C260.339 86.9477 260.38 86.9387 260.421 86.9387C260.462 86.9387 260.503 86.9477 260.54 86.9648" fill="black"/>
<path d="M259.477 86.4028L260.225 86.8007C260.293 86.8007 260.285 86.8865 260.225 86.9255L259.511 87.3078C259.474 87.3249 259.433 87.3339 259.392 87.3339C259.351 87.3339 259.31 87.3249 259.273 87.3078L258.516 86.9099C258.457 86.9099 258.465 86.8163 258.516 86.7851L259.239 86.4028C259.276 86.3856 259.317 86.3767 259.358 86.3767C259.399 86.3767 259.44 86.3856 259.477 86.4028" fill="black"/>
<path d="M258.414 85.841L259.162 86.2389C259.23 86.2389 259.222 86.3247 259.162 86.3638L258.448 86.746C258.411 86.7616 258.37 86.7696 258.329 86.7696C258.288 86.7696 258.247 86.7616 258.21 86.746L257.453 86.3482C257.394 86.3482 257.402 86.2545 257.453 86.2233L258.176 85.841C258.212 85.8219 258.253 85.8118 258.295 85.8118C258.337 85.8118 258.378 85.8219 258.414 85.841" fill="black"/>
<path d="M257.385 85.2795L258.134 85.6774C258.202 85.6774 258.193 85.7632 258.134 85.8022L257.419 86.1845C257.382 86.2 257.341 86.2081 257.3 86.2081C257.259 86.2081 257.219 86.2 257.181 86.1845L256.424 85.7866C256.365 85.7866 256.373 85.693 256.424 85.654L257.147 85.2795C257.183 85.2603 257.224 85.2502 257.266 85.2502C257.308 85.2502 257.349 85.2603 257.385 85.2795" fill="black"/>
<path d="M254.97 84.0153L257.037 85.1076C257.105 85.1076 257.096 85.2012 257.037 85.2402L256.322 85.6147C256.286 85.6339 256.245 85.644 256.203 85.644C256.162 85.644 256.12 85.6339 256.084 85.6147L254.018 84.5224C253.958 84.5224 253.967 84.4366 254.018 84.3976L254.732 84.0153C254.769 83.9982 254.81 83.9893 254.851 83.9893C254.893 83.9893 254.933 83.9982 254.97 84.0153" fill="black"/>
<path d="M269.044 91.4663L270.064 92.0124C270.124 92.0124 270.115 92.0982 270.064 92.1372L269.35 92.5195C269.313 92.535 269.272 92.543 269.231 92.543C269.19 92.543 269.149 92.535 269.112 92.5195L268.083 91.9734C268.023 91.9734 268.032 91.8875 268.083 91.8485L268.806 91.4663C268.843 91.4491 268.884 91.4402 268.925 91.4402C268.966 91.4402 269.007 91.4491 269.044 91.4663" fill="black"/>
<path d="M250.812 86.2233L265.889 94.2124C265.949 94.2124 265.94 94.306 265.889 94.345L265.532 94.5322C265.493 94.5495 265.451 94.5584 265.409 94.5584C265.366 94.5584 265.324 94.5495 265.285 94.5322L250.199 86.512C250.131 86.512 250.14 86.4262 250.199 86.3872L250.557 86.1999C250.593 86.1807 250.634 86.1707 250.676 86.1707C250.718 86.1707 250.759 86.1807 250.795 86.1999" fill="black"/>
<path d="M268.466 86.5744L268.364 86.6291L265.762 88.01L261.127 85.5524L261.025 85.5056L263.738 84.0701L268.466 86.5744Z" fill="#BFBFBF"/>
<path d="M268.364 86.629L265.762 88.0099L261.127 85.5523L263.738 84.1714L268.364 86.629Z" fill="#E5E5E5"/>
<path d="M275.907 89.8042V90.0148C275.912 90.1723 275.871 90.3282 275.787 90.4657C275.703 90.6031 275.58 90.717 275.43 90.795L266.238 95.6633C266.094 95.7401 265.932 95.7806 265.766 95.7806C265.6 95.7806 265.437 95.7401 265.294 95.6633L248.66 86.8551C248.511 86.7771 248.388 86.6632 248.304 86.5257C248.22 86.3883 248.179 86.2324 248.184 86.0749V85.8643L265.761 95.1718L275.907 89.8042Z" fill="#E5E5E5"/>
<path d="M265.498 95.3048C265.341 95.3594 265.172 95.3815 265.005 95.3693C264.837 95.3572 264.675 95.3112 264.529 95.2346L247.972 86.4654C247.827 86.3893 247.702 86.2848 247.607 86.1594C247.511 86.0339 247.447 85.8907 247.419 85.7398L245.608 75.8237C245.603 75.7666 245.603 75.7092 245.608 75.6521C245.608 75.3769 245.727 75.1132 245.939 74.9187L263.151 84.039C263.257 84.0954 263.348 84.1719 263.418 84.2634C263.489 84.355 263.537 84.4594 263.559 84.5695L265.498 95.3048Z" fill="#F4F4F4"/>
<path d="M265.762 95.172L265.651 95.2344L265.498 95.3046L263.542 84.5693C263.52 84.4592 263.471 84.3548 263.401 84.2632C263.331 84.1717 263.239 84.0951 263.134 84.0388L245.922 74.9185C245.989 74.8555 246.067 74.8028 246.152 74.7625L263.397 83.8906C263.504 83.9477 263.596 84.0255 263.666 84.1185C263.737 84.2114 263.784 84.3173 263.806 84.4289L265.762 95.172Z" fill="#E5E5E5"/>
<path d="M278.262 52.7302C278.262 52.7302 278.05 56.5063 278.143 56.8418C278.237 57.1773 280.031 58.2773 280.558 58.6752C281.085 59.0731 277.709 62.1158 276.077 62.8102C274.444 63.5045 269.274 61.6789 269.155 59.3462C269.036 57.0134 270.048 55.0474 270.855 54.9381C271.663 54.8289 278.279 52.7302 278.279 52.7302" fill="#FFCEA9"/>
<path d="M278.721 57.4896C278.721 57.4896 275.737 61.5699 271.578 61.9522C270.26 60.7663 270.141 56.5378 271.961 55.188C271.961 55.188 270.26 53.9554 269.146 54.1972C267.924 54.8788 267.017 55.9473 266.595 57.2009C265.533 60.0082 265.035 62.9686 265.124 65.9389C265.192 69.9412 265.124 80.068 265.124 80.068C265.37 81.2638 265.889 82.3985 266.647 83.3974C267.404 84.3964 268.384 85.2372 269.52 85.8647C272.523 87.4134 276.055 87.8595 279.402 87.113C281.511 86.6605 282.293 85.5526 283.016 84.1717C282.829 81.3709 281.621 75.5897 282.166 72.0633C282.71 68.5369 283.484 65.8999 283.696 63.0445C283.909 60.189 283.288 60.2514 281.732 59.2294C280.794 58.5859 279.808 58.0045 278.781 57.4896" fill="#F4F4F4"/>
<path d="M273.934 90.0152C274.685 89.5604 275.466 89.1487 276.272 88.7825C277.029 88.5667 277.717 88.1867 278.279 87.6747C279.011 87.0115 280.21 84.5539 281.06 82.1042C281.91 79.3676 282.243 76.5179 282.046 73.6782C281.681 70.2688 280.346 65.5097 280.006 63.5359C279.665 61.562 280.354 60.7975 281.349 60.0719C282.514 59.2293 284.121 59.6038 284.98 62.3422C286.101 66.1593 286.754 70.0793 286.928 74.0293C286.952 76.9451 286.452 79.8447 285.448 82.6113C284.563 84.9865 283.364 87.253 281.876 89.3598C281.468 89.9918 281.341 90.5535 280.711 91.8486C280.109 93.1453 279.172 94.2884 277.982 95.18C276.936 95.8665 276.442 95.9602 276.196 95.8353C275.949 95.7105 275.949 95.3594 276.391 94.9927C277.132 94.463 277.763 93.8156 278.254 93.0813C278.254 93.0813 277.335 93.9239 276.74 94.3764C276.213 94.7889 275.626 95.1328 274.997 95.3984C274.385 95.6481 273.534 95.1722 273.968 94.7977C274.402 94.4232 274.818 94.2282 275.72 93.5416C276.183 93.1748 276.597 92.7584 276.953 92.3011C276.342 92.7342 275.694 93.1204 275.014 93.4558C274.483 93.7553 273.868 93.9071 273.245 93.8927C272.922 93.8927 272.531 93.4714 273.134 93.0657C273.969 92.6686 274.748 92.1814 275.456 91.6146C276.119 91.006 276.502 90.4911 276.306 90.4833C276.111 90.4755 275.754 90.85 274.971 91.0762C274.189 91.3025 273.347 91.0762 273.271 90.7096C273.194 90.3429 273.194 90.3819 273.925 90.0542" fill="#FFCEA9"/>
<path d="M268.959 47.1052C269.444 44.1717 271.748 41.956 275.039 42.1199C276.716 42.2143 278.283 42.9142 279.399 44.0663C280.514 45.2185 281.087 46.7291 280.992 48.2677C280.938 49.1568 280.661 50.0225 280.181 50.7967C279.702 51.571 279.033 52.2328 278.228 52.7303C278.114 53.1738 277.943 53.6034 277.718 54.0098C276.553 55.2581 273.032 56.0305 272.02 55.8978C271.419 55.8487 270.848 55.635 270.381 55.2844C269.914 54.9338 269.573 54.4626 269.401 53.9318C268.304 51.6302 268.653 48.5485 268.925 47.1052" fill="#FFCEA9"/>
<path d="M278.262 52.7304L277.965 50.1714C277.965 50.1714 280.235 44.7648 274.861 45.8024C271.315 46.489 270.422 46.7855 269.342 44.601C268.262 42.4165 272.071 40.4504 276.595 40.9965C278.153 41.1468 279.593 41.8284 280.629 42.9062C281.666 43.9841 282.223 45.3797 282.191 46.8167C282.072 48.4238 281.604 51.6772 278.262 52.7304" fill="black"/>
<path d="M287.472 67.3976C287.472 67.3976 284.538 70.0814 281.06 69.309C280.567 68.9969 279.359 62.7399 279.359 62.7399C279.359 62.7399 279.359 59.2681 282.259 59.3617C285.159 59.4553 287.455 67.3976 287.455 67.3976" fill="#EDEDED"/>
<path d="M265.311 62.2095C264.489 62.179 263.711 61.8574 263.142 61.3123C263.253 59.9157 265.209 54.5949 269.146 54.197C268.075 54.885 267.225 55.8258 266.688 56.9198C266.081 58.6477 265.62 60.4162 265.311 62.2095" fill="#EDEDED"/>
<g opacity="0.4">
<g opacity="0.4">
<path opacity="0.4" d="M249.732 386.624C251.832 390.829 260.872 391.149 269.928 387.342C278.985 383.534 284.597 377.035 282.505 372.838C280.413 368.641 271.365 368.313 262.309 372.12C253.252 375.928 247.614 382.426 249.723 386.632" fill="#D6D8E5"/>
</g>
</g>
<path d="M280.524 311.321C280.524 311.321 279.963 319.068 278.823 320.184C277.684 321.3 273.968 322.064 273.968 322.064L271.076 326.418C271.076 326.418 273.713 312.569 274.291 312.234C274.869 311.898 280.49 311.321 280.49 311.321" fill="#FFCEA9"/>
<path d="M274.971 302.715C275.675 302.419 276.472 302.369 277.213 302.574C277.953 302.78 278.587 303.227 278.994 303.831C280.056 305.446 281.153 310.985 281.256 311.929C281.256 311.929 279.767 313.817 277.531 313.49L274.971 302.715Z" fill="#EDEDED"/>
<path d="M266.425 380.047C264.853 380.451 263.171 380.265 261.748 379.532C260.625 379.532 254.519 377.191 253.686 379.181C252.955 380.944 255.599 382.574 257.019 382.894C260.098 383.581 262.385 384.985 263.627 385.235C264.545 385.414 265.744 385.531 266.476 384.868C267.326 384.088 267.284 381.108 266.425 380.054" fill="black"/>
<path d="M275.932 377.332C274.362 377.73 272.684 377.542 271.263 376.809C270.132 376.809 264.027 374.469 263.193 376.458C262.471 378.221 265.115 379.852 266.527 380.172C269.614 380.858 271.893 382.27 273.134 382.512C274.061 382.692 275.252 382.809 275.992 382.146C276.842 381.365 276.799 378.393 275.932 377.34" fill="black"/>
<path d="M273.134 382.021C271.893 381.779 269.614 380.367 266.527 379.68C265.345 379.415 263.304 378.229 263.125 376.809C262.845 378.44 265.234 379.875 266.527 380.172C269.614 380.858 271.893 382.271 273.134 382.512C274.061 382.692 275.252 382.809 275.992 382.146C276.183 381.953 276.32 381.72 276.391 381.467C275.934 381.787 275.401 382.005 274.835 382.102C274.27 382.2 273.687 382.175 273.134 382.029" fill="#FFA500"/>
<path d="M276.612 361.572C276.346 359.491 275.874 357.436 275.201 355.432C275.201 355.432 275.618 350.135 275.83 345.111C276.068 339.415 278.22 334.399 276.519 329.85L257.606 333.751C257.606 333.751 258.516 356.517 258.771 359.271C258.91 361.412 259.194 363.544 259.622 365.653C260.472 370.061 261.45 379.93 261.45 379.93C263.483 381.015 266.45 380.125 266.45 380.125C266.45 380.125 266.45 367.767 266.331 364.592C266.17 360.691 266.042 361.003 266.042 361.003L266.68 351.337L267.088 346.531C267.088 346.531 267.624 350.057 267.939 353.209C268.245 355.955 268.968 358.444 269.775 363.562C270.473 368.001 271.196 377.043 271.196 377.043C273.228 378.128 275.949 377.379 275.949 377.379C275.949 377.379 277.123 365.458 276.578 361.611" fill="#8C8C8C"/>
<path d="M273.959 302.817C272.497 302.879 271.408 303.223 271.23 302.817C271.072 302.124 270.961 301.423 270.898 300.718C271.06 300.336 271.204 299.938 271.204 299.938C273.041 298.9 273.619 297.083 273.857 294.968C274.274 291.348 272.156 288.181 268.202 287.806C264.495 287.455 261.765 289.842 261.033 293.127C260.642 294.742 259.868 297.808 260.923 300.469C261.51 301.959 262.267 303.145 263.032 303.379C263.766 303.355 264.499 303.295 265.226 303.199V303.199C265.226 303.199 265.421 304.206 265.558 304.853C265.694 305.501 265.643 305.836 264.239 306.624C262.836 307.412 266.357 309.043 268.653 308.887C270.949 308.731 273.534 307.451 274.248 306.086C275.039 304.572 274.971 302.778 273.968 302.825" fill="#FFCEA9"/>
<path d="M271.842 303.012C272.25 303.94 271.221 305.072 268.483 305.86C265.744 306.648 265.489 305.633 265.489 305.633C263.665 306.381 261.887 307.223 260.166 308.153C258.516 309.207 257.785 312.265 257.564 317.414C257.309 323.382 257.292 332.238 257.504 333.798C257.504 333.798 260.583 336.614 264.511 336.318C268.44 336.021 275.073 332.823 276.68 330.357C276.629 325.122 275.966 324.272 276.893 321.26C279.002 314.364 280.116 311.539 279.087 306.952C278.237 303.176 277.055 302.708 275.43 302.739C274.229 302.785 273.031 302.889 271.842 303.051" fill="#F4F4F4"/>
<path d="M260.965 338.354L262.964 317.578L258.712 315.526L257.062 316.79L257.572 335.452V335.967V336.622C257.572 336.622 257.479 338.182 260.71 340.07C260.71 340.07 260.761 339.579 260.804 339.119L260.88 338.338L260.965 338.354Z" fill="#FFCEA9"/>
<path d="M261.467 306.866C259.29 306.827 257.895 307.888 257.368 310.97C256.841 314.052 256.518 316.572 256.518 316.572C257.518 317.597 258.909 318.231 260.404 318.343C263.04 318.608 263.806 317.383 263.806 317.383C263.806 317.383 264.078 314.177 264.231 312.008C264.384 309.839 264.163 306.913 261.467 306.866Z" fill="#EDEDED"/>
<path d="M265.141 286.917C270.464 286.222 273.883 289.359 274.282 292.76C274.657 296.014 272.471 299.392 270.881 300.734C269.332 301.1 267.69 300.919 266.28 300.227C266.191 299.34 266.157 298.449 266.178 297.558C266.178 297.558 268.772 292.55 261.144 292.636C261.144 292.636 257.742 287.884 265.124 286.917" fill="black"/>
<path d="M239.34 215.71C239.536 217.325 241.636 224.292 241.186 226.632C240.735 228.973 233.575 232.999 233.575 232.999L232.588 228.918L236.551 225.384L235.479 218.628L239.34 215.71Z" fill="#FFCEA9"/>
<path d="M233.804 208.86C234.5 208.564 235.29 208.513 236.025 208.717C236.759 208.921 237.385 209.367 237.784 209.968C238.838 211.567 239.935 217.06 240.029 217.996C240.029 217.996 238.558 219.868 236.338 219.556L233.804 208.86Z" fill="#EDEDED"/>
<path d="M225.623 286.371C224.065 286.766 222.399 286.581 220.989 285.856C219.875 285.856 213.82 283.515 212.995 285.505C212.272 287.252 214.9 288.875 216.295 289.187C219.356 289.866 221.618 291.262 222.851 291.528C223.77 291.707 224.952 291.824 225.683 291.161C226.533 290.381 226.482 287.44 225.623 286.394" fill="black"/>
<path d="M222.851 291.02C221.618 290.779 219.356 289.382 216.295 288.68C215.121 288.415 213.097 287.237 212.893 285.832C212.621 287.447 214.994 288.875 216.295 289.164C219.356 289.842 221.618 291.239 222.851 291.504C223.77 291.684 224.952 291.801 225.683 291.137C225.87 290.944 226.007 290.715 226.083 290.467C225.628 290.782 225.099 290.997 224.538 291.093C223.977 291.189 223.4 291.164 222.851 291.02" fill="#FFA500"/>
<path d="M235.454 282.337C233.896 282.734 232.23 282.549 230.819 281.822C229.697 281.822 223.642 279.482 222.817 281.471C222.094 283.227 224.722 284.842 226.125 285.154C229.187 285.832 231.449 287.237 232.673 287.494C233.592 287.674 234.774 287.791 235.505 287.128C236.355 286.347 236.304 283.406 235.454 282.361" fill="black"/>
<path d="M232.673 286.971C231.449 286.737 229.187 285.333 226.125 284.631C224.952 284.373 222.928 283.188 222.724 281.783C222.452 283.398 224.816 284.826 226.125 285.115C229.187 285.793 231.449 287.198 232.673 287.455C233.592 287.635 234.774 287.752 235.505 287.088C235.697 286.899 235.834 286.668 235.905 286.417C235.451 286.735 234.922 286.95 234.361 287.046C233.8 287.143 233.222 287.117 232.673 286.971Z" fill="#FFA500"/>
<path d="M235.573 267.225C235.311 265.159 234.841 263.119 234.17 261.132C234.17 261.132 234.586 255.881 234.799 250.904C235.037 245.247 237.171 240.278 235.488 235.768L216.482 239.669C216.482 239.669 217.63 262.201 217.885 264.931C218.022 267.052 218.306 269.163 218.735 271.251C219.586 275.627 221.014 286.035 221.014 286.035C222.459 286.67 224.095 286.837 225.657 286.511C225.657 286.511 225.513 273.357 225.385 270.205C225.224 266.351 225.096 266.648 225.096 266.648L225.725 257.059L226.142 252.292C226.142 252.292 226.669 255.795 226.992 258.916C227.29 261.647 228.004 264.112 228.804 269.183C229.501 273.583 230.632 282.446 230.632 282.446C232.639 283.515 235.369 282.626 235.369 282.626C235.369 282.626 236.1 271.079 235.556 267.264" fill="black"/>
<path d="M232.792 208.954C231.347 209.024 230.241 209.367 230.088 208.954C229.93 208.269 229.819 207.576 229.756 206.878C229.926 206.496 230.071 206.098 230.071 206.098C231.874 205.099 232.461 203.266 232.724 201.199C233.132 197.61 231.023 194.473 227.112 194.099C223.429 193.748 220.725 196.12 220.011 199.373C219.62 200.98 218.846 204.015 219.892 206.66C220.47 208.134 221.227 209.305 221.984 209.539C222.713 209.516 223.439 209.456 224.161 209.359V209.359C224.161 209.359 224.356 210.358 224.492 210.998C224.629 211.637 224.577 211.973 223.183 212.761C221.788 213.549 225.283 215.156 227.562 215C229.841 214.844 232.401 213.58 233.107 212.23C233.889 210.717 233.821 208.946 232.826 208.985" fill="#FFCEA9"/>
<path d="M230.7 209.156C231.1 210.069 230.08 211.193 227.367 211.98C224.654 212.768 224.399 211.754 224.399 211.754C222.588 212.494 220.825 213.327 219.118 214.251C217.485 215.296 216.763 218.323 216.567 223.434C216.312 229.355 216.286 238.132 216.507 239.646C216.507 239.646 219.552 242.431 223.455 242.142C227.358 241.854 233.923 238.678 235.513 236.228C235.471 231.04 234.816 230.198 235.726 227.21C237.827 220.367 238.924 217.567 237.912 213.018C237.061 209.273 235.888 208.805 234.28 208.844C233.09 208.891 231.904 208.995 230.726 209.156" fill="#F4F4F4"/>
<path d="M210.402 228.325C213.608 229.105 214.356 227.217 214.781 225.68C215.802 221.967 216.346 218.612 217.111 216.506C218.004 214.017 218.939 213.627 220.258 213.135C221.805 212.573 223.132 213.767 222.622 216.935C221.988 220.603 221.006 224.213 219.688 227.725C219.288 228.887 218.395 230.939 217.052 231.93C215.402 233.155 212.91 233.108 209.152 232.242C207.544 231.875 205.75 231.001 202.74 229.698C201.932 229.347 201.294 229.121 199.729 228.45C198.157 227.803 196.78 226.815 195.716 225.571C194.865 224.487 194.789 223.972 194.95 223.722C195.112 223.473 195.537 223.48 195.971 223.941C196.603 224.716 197.384 225.38 198.275 225.899C198.275 225.899 197.263 224.939 196.719 224.339C196.227 223.785 195.818 223.174 195.503 222.521C195.214 221.889 195.809 221.023 196.268 221.475C196.727 221.928 196.932 222.388 197.765 223.301C198.203 223.785 198.699 224.222 199.245 224.604C198.733 223.965 198.278 223.289 197.884 222.583C197.527 222.032 197.353 221.398 197.382 220.758C197.382 220.43 197.918 220.032 198.394 220.664C198.859 221.525 199.429 222.334 200.095 223.075C200.826 223.769 201.456 224.167 201.473 223.972C201.49 223.777 201.03 223.402 200.767 222.591C200.503 221.78 200.767 220.921 201.26 220.828C201.753 220.734 201.651 220.758 202.042 221.514C202.58 222.295 203.066 223.106 203.497 223.941C203.744 224.723 204.196 225.439 204.815 226.024C205.605 226.804 207.366 227.639 210.385 228.364" fill="#FFCEA9"/>
<path d="M221.44 212.628C219.305 212.339 217.792 213.229 216.848 216.201C215.904 219.174 215.24 221.608 215.24 221.608C216.09 222.728 217.374 223.509 218.829 223.793C221.38 224.362 222.307 223.239 222.307 223.239C222.307 223.239 223.013 220.118 223.455 218.004C223.897 215.889 224.093 212.987 221.44 212.628" fill="#EDEDED"/>
<path d="M220.105 198.858C220.105 198.858 216.703 194.177 224.05 193.186C229.331 192.492 232.724 195.605 233.115 198.983C233.49 202.205 231.321 205.56 229.756 206.886C228.219 207.247 226.589 207.066 225.19 206.379C225.106 205.502 225.075 204.622 225.096 203.742C225.096 203.742 227.647 198.772 220.105 198.858" fill="black"/>
<path d="M153.273 305.618L153.247 312.624L76.8745 353.349L76.9 346.343L153.273 305.618Z" fill="#D3D3DD"/>
<path d="M76.9001 346.343L76.8746 353.349L0 312.631L0.0255115 305.625L76.9001 346.343Z" fill="#E0DEE9"/>
<path d="M153.273 305.618L76.9002 346.343L0.0256348 305.626L76.3985 264.9L153.273 305.618Z" fill="#EAEAF4"/>
<path d="M141.359 199.427L141.036 304.541L76.7556 338.806L77.0788 233.701L141.359 199.427Z" fill="#D3D3DD"/>
<path d="M77.0785 233.701L76.7554 338.806L12.0498 304.541L12.373 199.427L77.0785 233.701Z" fill="#E0DEE9"/>
<path d="M141.359 199.428L77.0786 233.701L12.373 199.428L76.6534 165.154L141.359 199.428Z" fill="#EAEAF4"/>
<path d="M70.8028 282.688L70.7688 293.588L33.6921 273.95L33.7262 263.051L70.8028 282.688Z" fill="#2A313F"/>
<path d="M70.8453 267.529L70.8113 278.428L33.7432 258.791L33.7772 247.892L70.8453 267.529Z" fill="#2A313F"/>
<path d="M70.8963 252.37L70.8623 263.262L33.7856 243.624L33.8197 232.733L70.8963 252.37Z" fill="#2A313F"/>
<path d="M70.9389 237.204L70.9048 248.103L33.8367 228.466L33.8707 217.574L70.9389 237.204Z" fill="#2A313F"/>
<path d="M70.7518 297.847L70.7178 308.746L33.6497 289.109L33.6837 278.21L70.7518 297.847Z" fill="#2A313F"/>
<path d="M93.3975 247.011L93.4316 257.91L83.0909 263.387L83.0569 252.488L93.3975 247.011Z" fill="#2A313F"/>
<path d="M93.3465 231.852L93.3806 242.751L83.0484 248.228L83.0144 237.329L93.3465 231.852Z" fill="#2A313F"/>
<path d="M135.33 270.362L135.364 281.253L98.2872 300.89L98.2532 289.999L135.33 270.362Z" fill="#2A313F"/>
<path d="M135.279 255.195L135.313 266.094L98.2447 285.731L98.2107 274.832L135.279 255.195Z" fill="#2A313F"/>
<path d="M135.236 240.044L135.27 250.935L98.1937 270.572L98.1597 259.673L135.236 240.044Z" fill="#2A313F"/>
<path d="M135.185 224.877L135.219 235.776L98.1512 255.413L98.1172 244.514L135.185 224.877Z" fill="#2A313F"/>
<path d="M135.143 209.718L135.177 220.609L98.1002 240.254L98.0662 229.355L135.143 209.718Z" fill="#2A313F"/>
<path d="M93.5336 292.495L93.5676 303.386L83.2354 308.863L83.2014 297.972L93.5336 292.495Z" fill="#2A313F"/>
<path d="M93.491 277.328L93.5251 288.227L83.1844 293.704L83.1504 282.805L93.491 277.328Z" fill="#2A313F"/>
<path d="M93.4401 262.177L93.4741 273.069L83.1419 278.545L83.1079 267.654L93.4401 262.177Z" fill="#2A313F"/>
<path d="M141.062 296.061L141.036 304.534L76.7556 338.807L76.7726 330.131L141.062 296.061Z" fill="#FFA500"/>
<path d="M76.7724 330.131L76.7469 338.807L12.0498 304.541L12.0753 295.858L76.7724 330.131Z" fill="#FFA500"/>
<path d="M76.3559 200.816C76.5993 200.832 76.8437 200.832 77.0872 200.816L80.7608 202.767C78.1331 203.5 75.327 203.5 72.6992 202.767L76.3559 200.816Z" fill="#2A313F"/>
<path d="M60.3772 188.466C69.7314 184.308 83.4906 184.308 92.9128 188.466L89.5963 190.229C82.0194 187.03 71.2451 187.03 63.7192 190.229L60.3772 188.466Z" fill="#2A313F"/>
<path d="M66.0493 191.47C72.8475 188.942 80.4511 188.942 87.2493 191.47L83.9073 193.256C79.2427 191.675 74.1155 191.675 69.4508 193.256L66.0493 191.47Z" fill="#2A313F"/>
<path d="M72.6482 194.957C75.2788 194.224 78.0877 194.224 80.7183 194.957L77.1042 196.907H76.3559L72.6482 194.957Z" fill="#2A313F"/>
<path d="M80.3867 199.061C80.4037 198.931 80.4037 198.8 80.3867 198.671L84.0434 196.72C84.3674 196.992 84.6262 197.323 84.8033 197.692C84.9803 198.061 85.0718 198.459 85.0718 198.862C85.0718 199.265 84.9803 199.663 84.8033 200.032C84.6262 200.401 84.3674 200.732 84.0434 201.004L80.3867 199.061Z" fill="#2A313F"/>
<path d="M87.3086 202.759C90.2849 200.418 90.2764 197.36 87.3086 195.051L90.6506 193.272C95.4382 196.58 95.4638 201.23 90.7186 204.538L87.3086 202.759Z" fill="#2A313F"/>
<path d="M93.0064 205.747C98.9591 201.737 98.9591 196.003 92.9214 191.992L96.2379 190.221C104.078 195.215 104.129 202.517 96.3399 207.51L93.0064 205.747Z" fill="#2A313F"/>
<path d="M63.8212 207.502C71.3896 210.693 82.1809 210.693 89.6983 207.502L93.0318 209.273C83.6776 213.424 69.9269 213.424 60.5132 209.273L63.8212 207.502Z" fill="#2A313F"/>
<path d="M69.4933 204.475C74.158 206.057 79.2852 206.057 83.9498 204.475L87.3514 206.262C80.5519 208.797 72.9423 208.797 66.1428 206.262L69.4933 204.475Z" fill="#2A313F"/>
<path d="M73.0225 198.671C73.0013 198.8 73.0013 198.932 73.0225 199.061L69.3658 201.011C69.0392 200.74 68.7782 200.409 68.5996 200.039C68.4209 199.67 68.3286 199.27 68.3286 198.866C68.3286 198.462 68.4209 198.062 68.5996 197.692C68.7782 197.323 69.0392 196.992 69.3658 196.72L73.0225 198.671Z" fill="#2A313F"/>
</svg>
